<?xml version="1.0" encoding="utf-8" standalone="no"?>
<!DOCTYPE svg PUBLIC "-//W3C//DTD SVG 1.1//EN"
  "http://www.w3.org/Graphics/SVG/1.1/DTD/svg11.dtd">
<svg xmlns:xlink="http://www.w3.org/1999/xlink" width="264.017812pt" height="132.89976pt" viewBox="0 0 264.017812 132.89976" xmlns="http://www.w3.org/2000/svg" version="1.1">
 <metadata>
  <rdf:RDF xmlns:dc="http://purl.org/dc/elements/1.1/" xmlns:cc="http://creativecommons.org/ns#" xmlns:rdf="http://www.w3.org/1999/02/22-rdf-syntax-ns#">
   <cc:Work>
    <dc:type rdf:resource="http://purl.org/dc/dcmitype/StillImage"/>
    <dc:date>2024-09-23T09:29:16.400563</dc:date>
    <dc:format>image/svg+xml</dc:format>
    <dc:creator>
     <cc:Agent>
      <dc:title>Matplotlib v3.9.2, https://matplotlib.org/</dc:title>
     </cc:Agent>
    </dc:creator>
   </cc:Work>
  </rdf:RDF>
 </metadata>
 <defs>
  <style type="text/css">*{stroke-linejoin: round; stroke-linecap: butt}</style>
 </defs>
 <g id="figure_1">
  <g id="patch_1">
   <path d="M 0 132.89976 
L 264.017812 132.89976 
L 264.017812 0 
L 0 0 
L 0 132.89976 
z
" style="fill: none"/>
  </g>
  <g id="axes_1">
   <g id="patch_2">
    <path d="M 52.097904 73.578895 
L 131.078045 73.578895 
L 131.078045 20.038594 
L 52.097904 20.038594 
L 52.097904 73.578895 
z
" style="fill: none"/>
   </g>
   <g id="matplotlib.axis_1">
    <g id="xtick_1">
     <g id="line2d_1">
      <defs>
       <path id="mad0df5e6b5" d="M 0 0 
L 0 3.5 
" style="stroke: #000000; stroke-width: 1.5"/>
      </defs>
      <g>
       <use xlink:href="#mad0df5e6b5" x="65.261261" y="73.578895" style="stroke: #000000; stroke-width: 1.5"/>
      </g>
     </g>
     <g id="text_1">
      <text style="font: 9px 'Arial', sans-serif; text-anchor: middle" x="65.261261" y="87.417489" transform="rotate(-0 65.261261 87.417489)">1</text>
     </g>
    </g>
    <g id="xtick_2">
     <g id="line2d_2">
      <g>
       <use xlink:href="#mad0df5e6b5" x="91.587975" y="73.578895" style="stroke: #000000; stroke-width: 1.5"/>
      </g>
     </g>
     <g id="text_2">
      <text style="font: 9px 'Arial', sans-serif; text-anchor: middle" x="91.587975" y="87.417489" transform="rotate(-0 91.587975 87.417489)">10</text>
     </g>
    </g>
    <g id="xtick_3">
     <g id="line2d_3">
      <g>
       <use xlink:href="#mad0df5e6b5" x="117.914688" y="73.578895" style="stroke: #000000; stroke-width: 1.5"/>
      </g>
     </g>
     <g id="text_3">
      <text style="font: 9px 'Arial', sans-serif; text-anchor: middle" x="117.914688" y="87.417489" transform="rotate(-0 117.914688 87.417489)">100</text>
     </g>
    </g>
    <g id="text_4">
     <text style="font: 9px 'Arial', sans-serif; text-anchor: middle" x="91.587975" y="100.127801" transform="rotate(-0 91.587975 100.127801)">Transitions</text>
    </g>
   </g>
   <g id="matplotlib.axis_2">
    <g id="ytick_1">
     <g id="line2d_4">
      <defs>
       <path id="mb9dc6bb5de" d="M 0 0 
L -3.5 0 
" style="stroke: #000000; stroke-width: 1.5"/>
      </defs>
      <g>
       <use xlink:href="#mb9dc6bb5de" x="52.097904" y="73.578895" style="stroke: #000000; stroke-width: 1.5"/>
      </g>
     </g>
     <g id="text_5">
      <text style="font: 9px 'Arial', sans-serif; text-anchor: end" x="45.097904" y="76.998192" transform="rotate(-0 45.097904 76.998192)">0.5</text>
     </g>
    </g>
    <g id="ytick_2">
     <g id="line2d_5">
      <g>
       <use xlink:href="#mb9dc6bb5de" x="52.097904" y="20.038594" style="stroke: #000000; stroke-width: 1.5"/>
      </g>
     </g>
     <g id="text_6">
      <text style="font: 9px 'Arial', sans-serif; text-anchor: end" x="45.097904" y="23.457891" transform="rotate(-0 45.097904 23.457891)">1.0</text>
     </g>
    </g>
    <g id="text_7">
     <text style="font: 9px 'Arial', sans-serif; text-anchor: middle" x="26.532143" y="46.808744" transform="rotate(-90 26.532143 46.808744)">Lotka Volterra</text>
    </g>
   </g>
   <g id="line2d_6">
    <path d="M 65.261261 36.487245 
L 91.587975 27.732335 
L 117.914688 20.825636 
" clip-path="url(#pa3605baee2)" style="fill: none; stroke: #060169; stroke-opacity: 0.7; stroke-width: 2; stroke-linecap: square"/>
    <defs>
     <path id="m8cca3cb5e0" d="M 0 0.5 
C 0.132602 0.5 0.25979 0.447317 0.353553 0.353553 
C 0.447317 0.25979 0.5 0.132602 0.5 0 
C 0.5 -0.132602 0.447317 -0.25979 0.353553 -0.353553 
C 0.25979 -0.447317 0.132602 -0.5 0 -0.5 
C -0.132602 -0.5 -0.25979 -0.447317 -0.353553 -0.353553 
C -0.447317 -0.25979 -0.5 -0.132602 -0.5 0 
C -0.5 0.132602 -0.447317 0.25979 -0.353553 0.353553 
C -0.25979 0.447317 -0.132602 0.5 0 0.5 
z
" style="stroke: #060169; stroke-opacity: 0.7; stroke-width: 1.5"/>
    </defs>
    <g clip-path="url(#pa3605baee2)">
     <use xlink:href="#m8cca3cb5e0" x="65.261261" y="36.487245" style="fill: #060169; fill-opacity: 0.7; stroke: #060169; stroke-opacity: 0.7; stroke-width: 1.5"/>
     <use xlink:href="#m8cca3cb5e0" x="91.587975" y="27.732335" style="fill: #060169; fill-opacity: 0.7; stroke: #060169; stroke-opacity: 0.7; stroke-width: 1.5"/>
     <use xlink:href="#m8cca3cb5e0" x="117.914688" y="20.825636" style="fill: #060169; fill-opacity: 0.7; stroke: #060169; stroke-opacity: 0.7; stroke-width: 1.5"/>
    </g>
   </g>
   <g id="line2d_7">
    <path d="M 65.261261 37.486307 
L 65.261261 35.160516 
" clip-path="url(#pa3605baee2)" style="fill: none; stroke: #060169; stroke-opacity: 0.7; stroke-width: 2; stroke-linecap: square"/>
   </g>
   <g id="line2d_8">
    <path d="M 91.587975 28.757096 
L 91.587975 27.044878 
" clip-path="url(#pa3605baee2)" style="fill: none; stroke: #060169; stroke-opacity: 0.7; stroke-width: 2; stroke-linecap: square"/>
   </g>
   <g id="line2d_9">
    <path d="M 117.914688 21.001248 
L 117.914688 20.652166 
" clip-path="url(#pa3605baee2)" style="fill: none; stroke: #060169; stroke-opacity: 0.7; stroke-width: 2; stroke-linecap: square"/>
   </g>
   <g id="line2d_10">
    <path d="M 65.261261 62.114846 
L 91.587975 43.465688 
L 117.914688 23.854946 
" clip-path="url(#pa3605baee2)" style="fill: none; stroke: #1e81b0; stroke-opacity: 0.7; stroke-width: 2; stroke-linecap: square"/>
    <defs>
     <path id="m6abb85b22b" d="M 0 0.5 
C 0.132602 0.5 0.25979 0.447317 0.353553 0.353553 
C 0.447317 0.25979 0.5 0.132602 0.5 0 
C 0.5 -0.132602 0.447317 -0.25979 0.353553 -0.353553 
C 0.25979 -0.447317 0.132602 -0.5 0 -0.5 
C -0.132602 -0.5 -0.25979 -0.447317 -0.353553 -0.353553 
C -0.447317 -0.25979 -0.5 -0.132602 -0.5 0 
C -0.5 0.132602 -0.447317 0.25979 -0.353553 0.353553 
C -0.25979 0.447317 -0.132602 0.5 0 0.5 
z
" style="stroke: #1e81b0; stroke-opacity: 0.7; stroke-width: 1.5"/>
    </defs>
    <g clip-path="url(#pa3605baee2)">
     <use xlink:href="#m6abb85b22b" x="65.261261" y="62.114846" style="fill: #1e81b0; fill-opacity: 0.7; stroke: #1e81b0; stroke-opacity: 0.7; stroke-width: 1.5"/>
     <use xlink:href="#m6abb85b22b" x="91.587975" y="43.465688" style="fill: #1e81b0; fill-opacity: 0.7; stroke: #1e81b0; stroke-opacity: 0.7; stroke-width: 1.5"/>
     <use xlink:href="#m6abb85b22b" x="117.914688" y="23.854946" style="fill: #1e81b0; fill-opacity: 0.7; stroke: #1e81b0; stroke-opacity: 0.7; stroke-width: 1.5"/>
    </g>
   </g>
   <g id="line2d_11">
    <path d="M 65.261261 64.600186 
L 65.261261 59.204395 
" clip-path="url(#pa3605baee2)" style="fill: none; stroke: #1e81b0; stroke-opacity: 0.7; stroke-width: 2; stroke-linecap: square"/>
   </g>
   <g id="line2d_12">
    <path d="M 91.587975 46.27737 
L 91.587975 40.467685 
" clip-path="url(#pa3605baee2)" style="fill: none; stroke: #1e81b0; stroke-opacity: 0.7; stroke-width: 2; stroke-linecap: square"/>
   </g>
   <g id="line2d_13">
    <path d="M 117.914688 25.298768 
L 117.914688 22.348322 
" clip-path="url(#pa3605baee2)" style="fill: none; stroke: #1e81b0; stroke-opacity: 0.7; stroke-width: 2; stroke-linecap: square"/>
   </g>
   <g id="line2d_14">
    <path d="M 65.261261 50.368104 
L 91.587975 21.975682 
L 117.914688 20.24633 
" clip-path="url(#pa3605baee2)" style="fill: none; stroke: #9bf2fa; stroke-opacity: 0.7; stroke-width: 2; stroke-linecap: square"/>
    <defs>
     <path id="m99f35aba4e" d="M 0 0.5 
C 0.132602 0.5 0.25979 0.447317 0.353553 0.353553 
C 0.447317 0.25979 0.5 0.132602 0.5 0 
C 0.5 -0.132602 0.447317 -0.25979 0.353553 -0.353553 
C 0.25979 -0.447317 0.132602 -0.5 0 -0.5 
C -0.132602 -0.5 -0.25979 -0.447317 -0.353553 -0.353553 
C -0.447317 -0.25979 -0.5 -0.132602 -0.5 0 
C -0.5 0.132602 -0.447317 0.25979 -0.353553 0.353553 
C -0.25979 0.447317 -0.132602 0.5 0 0.5 
z
" style="stroke: #9bf2fa; stroke-opacity: 0.7; stroke-width: 1.5"/>
    </defs>
    <g clip-path="url(#pa3605baee2)">
     <use xlink:href="#m99f35aba4e" x="65.261261" y="50.368104" style="fill: #9bf2fa; fill-opacity: 0.7; stroke: #9bf2fa; stroke-opacity: 0.7; stroke-width: 1.5"/>
     <use xlink:href="#m99f35aba4e" x="91.587975" y="21.975682" style="fill: #9bf2fa; fill-opacity: 0.7; stroke: #9bf2fa; stroke-opacity: 0.7; stroke-width: 1.5"/>
     <use xlink:href="#m99f35aba4e" x="117.914688" y="20.24633" style="fill: #9bf2fa; fill-opacity: 0.7; stroke: #9bf2fa; stroke-opacity: 0.7; stroke-width: 1.5"/>
    </g>
   </g>
   <g id="line2d_15">
    <path d="M 65.261261 52.946765 
L 65.261261 48.261386 
" clip-path="url(#pa3605baee2)" style="fill: none; stroke: #9bf2fa; stroke-opacity: 0.7; stroke-width: 2; stroke-linecap: square"/>
   </g>
   <g id="line2d_16">
    <path d="M 91.587975 22.951909 
L 91.587975 21.029732 
" clip-path="url(#pa3605baee2)" style="fill: none; stroke: #9bf2fa; stroke-opacity: 0.7; stroke-width: 2; stroke-linecap: square"/>
   </g>
   <g id="line2d_17">
    <path d="M 117.914688 20.425195 
L 117.914688 20.111409 
" clip-path="url(#pa3605baee2)" style="fill: none; stroke: #9bf2fa; stroke-opacity: 0.7; stroke-width: 2; stroke-linecap: square"/>
   </g>
   <g id="line2d_18">
    <path d="M 65.261261 65.904428 
L 91.587975 44.107101 
L 117.914688 26.101497 
" clip-path="url(#pa3605baee2)" style="fill: none; stroke: #f2a900; stroke-opacity: 0.7; stroke-width: 2; stroke-linecap: square"/>
    <defs>
     <path id="m1ab65df327" d="M 0 0.5 
C 0.132602 0.5 0.25979 0.447317 0.353553 0.353553 
C 0.447317 0.25979 0.5 0.132602 0.5 0 
C 0.5 -0.132602 0.447317 -0.25979 0.353553 -0.353553 
C 0.25979 -0.447317 0.132602 -0.5 0 -0.5 
C -0.132602 -0.5 -0.25979 -0.447317 -0.353553 -0.353553 
C -0.447317 -0.25979 -0.5 -0.132602 -0.5 0 
C -0.5 0.132602 -0.447317 0.25979 -0.353553 0.353553 
C -0.25979 0.447317 -0.132602 0.5 0 0.5 
z
" style="stroke: #f2a900; stroke-opacity: 0.7; stroke-width: 1.5"/>
    </defs>
    <g clip-path="url(#pa3605baee2)">
     <use xlink:href="#m1ab65df327" x="65.261261" y="65.904428" style="fill: #f2a900; fill-opacity: 0.7; stroke: #f2a900; stroke-opacity: 0.7; stroke-width: 1.5"/>
     <use xlink:href="#m1ab65df327" x="91.587975" y="44.107101" style="fill: #f2a900; fill-opacity: 0.7; stroke: #f2a900; stroke-opacity: 0.7; stroke-width: 1.5"/>
     <use xlink:href="#m1ab65df327" x="117.914688" y="26.101497" style="fill: #f2a900; fill-opacity: 0.7; stroke: #f2a900; stroke-opacity: 0.7; stroke-width: 1.5"/>
    </g>
   </g>
   <g id="line2d_19">
    <path d="M 65.261261 66.67755 
L 65.261261 65.076695 
" clip-path="url(#pa3605baee2)" style="fill: none; stroke: #f2a900; stroke-opacity: 0.7; stroke-width: 2; stroke-linecap: square"/>
   </g>
   <g id="line2d_20">
    <path d="M 91.587975 45.478803 
L 91.587975 42.500892 
" clip-path="url(#pa3605baee2)" style="fill: none; stroke: #f2a900; stroke-opacity: 0.7; stroke-width: 2; stroke-linecap: square"/>
   </g>
   <g id="line2d_21">
    <path d="M 117.914688 26.752012 
L 117.914688 25.359429 
" clip-path="url(#pa3605baee2)" style="fill: none; stroke: #f2a900; stroke-opacity: 0.7; stroke-width: 2; stroke-linecap: square"/>
   </g>
   <g id="line2d_22"/>
   <g id="line2d_23"/>
   <g id="line2d_24"/>
   <g id="line2d_25"/>
   <g id="patch_3">
    <path d="M 52.097904 73.578895 
L 52.097904 20.038594 
" style="fill: none; stroke: #000000; stroke-width: 1.5; stroke-linejoin: miter; stroke-linecap: square"/>
   </g>
   <g id="patch_4">
    <path d="M 52.097904 73.578895 
L 131.078045 73.578895 
" style="fill: none; stroke: #000000; stroke-width: 1.5; stroke-linejoin: miter; stroke-linecap: square"/>
   </g>
   <g id="text_8">
    <text style="font: 9px 'Arial', sans-serif; text-anchor: middle" x="91.587975" y="14.038594" transform="rotate(-0 91.587975 14.038594)">C2ST</text>
   </g>
  </g>
  <g id="axes_2">
   <g id="patch_5">
    <path d="M 165.228525 73.578895 
L 244.208666 73.578895 
L 244.208666 20.038594 
L 165.228525 20.038594 
L 165.228525 73.578895 
z
" style="fill: none"/>
   </g>
   <g id="matplotlib.axis_3">
    <g id="xtick_4">
     <g id="line2d_26">
      <g>
       <use xlink:href="#mad0df5e6b5" x="178.391882" y="73.578895" style="stroke: #000000; stroke-width: 1.5"/>
      </g>
     </g>
     <g id="text_9">
      <text style="font: 9px 'Arial', sans-serif; text-anchor: middle" x="178.391882" y="87.417489" transform="rotate(-0 178.391882 87.417489)">1</text>
     </g>
    </g>
    <g id="xtick_5">
     <g id="line2d_27">
      <g>
       <use xlink:href="#mad0df5e6b5" x="204.718596" y="73.578895" style="stroke: #000000; stroke-width: 1.5"/>
      </g>
     </g>
     <g id="text_10">
      <text style="font: 9px 'Arial', sans-serif; text-anchor: middle" x="204.718596" y="87.417489" transform="rotate(-0 204.718596 87.417489)">10</text>
     </g>
    </g>
    <g id="xtick_6">
     <g id="line2d_28">
      <g>
       <use xlink:href="#mad0df5e6b5" x="231.045309" y="73.578895" style="stroke: #000000; stroke-width: 1.5"/>
      </g>
     </g>
     <g id="text_11">
      <text style="font: 9px 'Arial', sans-serif; text-anchor: middle" x="231.045309" y="87.417489" transform="rotate(-0 231.045309 87.417489)">100</text>
     </g>
    </g>
    <g id="text_12">
     <text style="font: 9px 'Arial', sans-serif; text-anchor: middle" x="204.718596" y="100.127801" transform="rotate(-0 204.718596 100.127801)">Transitions</text>
    </g>
   </g>
   <g id="matplotlib.axis_4">
    <g id="ytick_3">
     <g id="line2d_29">
      <g>
       <use xlink:href="#mb9dc6bb5de" x="165.228525" y="71.633559" style="stroke: #000000; stroke-width: 1.5"/>
      </g>
     </g>
     <g id="text_13">
      <!-- $\mathdefault{10^{-1}}$ -->
      <g transform="translate(137.078525 75.052856)">
       <text>
        <tspan style="font: 9px 'DejaVu Sans'" x="0 5.726074" y="-0.9609375">10</tspan>
        <tspan style="font: 6.3px 'DejaVu Sans'" x="11.538281 16.816992" y="-4.40625">−1</tspan>
       </text>
      </g>
     </g>
    </g>
    <g id="ytick_4">
     <g id="line2d_30">
      <g>
       <use xlink:href="#mb9dc6bb5de" x="165.228525" y="20.038594" style="stroke: #000000; stroke-width: 1.5"/>
      </g>
     </g>
     <g id="text_14">
      <!-- $\mathdefault{10^{2}}$ -->
      <g transform="translate(142.388525 23.457891)">
       <text>
        <tspan style="font: 9px 'DejaVu Sans'" x="0 5.726074" y="-0.8734375000000014">10</tspan>
        <tspan style="font: 6.3px 'DejaVu Sans'" x="11.538281" y="-4.318750000000001">2</tspan>
       </text>
      </g>
     </g>
    </g>
   </g>
   <g id="line2d_31">
    <path d="M 178.391882 58.71671 
L 204.718596 58.981672 
L 231.045309 54.706925 
" clip-path="url(#p9ea91b577b)" style="fill: none; stroke: #060169; stroke-opacity: 0.7; stroke-width: 2; stroke-linecap: square"/>
    <g clip-path="url(#p9ea91b577b)">
     <use xlink:href="#m8cca3cb5e0" x="178.391882" y="58.71671" style="fill: #060169; fill-opacity: 0.7; stroke: #060169; stroke-opacity: 0.7; stroke-width: 1.5"/>
     <use xlink:href="#m8cca3cb5e0" x="204.718596" y="58.981672" style="fill: #060169; fill-opacity: 0.7; stroke: #060169; stroke-opacity: 0.7; stroke-width: 1.5"/>
     <use xlink:href="#m8cca3cb5e0" x="231.045309" y="54.706925" style="fill: #060169; fill-opacity: 0.7; stroke: #060169; stroke-opacity: 0.7; stroke-width: 1.5"/>
    </g>
   </g>
   <g id="line2d_32">
    <path d="M 178.391882 59.441784 
L 178.391882 58.207065 
" clip-path="url(#p9ea91b577b)" style="fill: none; stroke: #060169; stroke-opacity: 0.7; stroke-width: 2; stroke-linecap: square"/>
   </g>
   <g id="line2d_33">
    <path d="M 204.718596 60.263804 
L 204.718596 58.006521 
" clip-path="url(#p9ea91b577b)" style="fill: none; stroke: #060169; stroke-opacity: 0.7; stroke-width: 2; stroke-linecap: square"/>
   </g>
   <g id="line2d_34">
    <path d="M 231.045309 55.130616 
L 231.045309 54.220645 
" clip-path="url(#p9ea91b577b)" style="fill: none; stroke: #060169; stroke-opacity: 0.7; stroke-width: 2; stroke-linecap: square"/>
   </g>
   <g id="line2d_35">
    <path d="M 178.391882 68.639266 
L 204.718596 65.231127 
L 231.045309 60.879019 
" clip-path="url(#p9ea91b577b)" style="fill: none; stroke: #1e81b0; stroke-opacity: 0.7; stroke-width: 2; stroke-linecap: square"/>
    <g clip-path="url(#p9ea91b577b)">
     <use xlink:href="#m6abb85b22b" x="178.391882" y="68.639266" style="fill: #1e81b0; fill-opacity: 0.7; stroke: #1e81b0; stroke-opacity: 0.7; stroke-width: 1.5"/>
     <use xlink:href="#m6abb85b22b" x="204.718596" y="65.231127" style="fill: #1e81b0; fill-opacity: 0.7; stroke: #1e81b0; stroke-opacity: 0.7; stroke-width: 1.5"/>
     <use xlink:href="#m6abb85b22b" x="231.045309" y="60.879019" style="fill: #1e81b0; fill-opacity: 0.7; stroke: #1e81b0; stroke-opacity: 0.7; stroke-width: 1.5"/>
    </g>
   </g>
   <g id="line2d_36">
    <path d="M 178.391882 69.990927 
L 178.391882 67.381688 
" clip-path="url(#p9ea91b577b)" style="fill: none; stroke: #1e81b0; stroke-opacity: 0.7; stroke-width: 2; stroke-linecap: square"/>
   </g>
   <g id="line2d_37">
    <path d="M 204.718596 66.3072 
L 204.718596 64.237214 
" clip-path="url(#p9ea91b577b)" style="fill: none; stroke: #1e81b0; stroke-opacity: 0.7; stroke-width: 2; stroke-linecap: square"/>
   </g>
   <g id="line2d_38">
    <path d="M 231.045309 63.101548 
L 231.045309 59.109239 
" clip-path="url(#p9ea91b577b)" style="fill: none; stroke: #1e81b0; stroke-opacity: 0.7; stroke-width: 2; stroke-linecap: square"/>
   </g>
   <g id="line2d_39">
    <path d="M 178.391882 63.718453 
L 204.718596 47.567064 
L 231.045309 30.146932 
" clip-path="url(#p9ea91b577b)" style="fill: none; stroke: #9bf2fa; stroke-opacity: 0.7; stroke-width: 2; stroke-linecap: square"/>
    <g clip-path="url(#p9ea91b577b)">
     <use xlink:href="#m99f35aba4e" x="178.391882" y="63.718453" style="fill: #9bf2fa; fill-opacity: 0.7; stroke: #9bf2fa; stroke-opacity: 0.7; stroke-width: 1.5"/>
     <use xlink:href="#m99f35aba4e" x="204.718596" y="47.567064" style="fill: #9bf2fa; fill-opacity: 0.7; stroke: #9bf2fa; stroke-opacity: 0.7; stroke-width: 1.5"/>
     <use xlink:href="#m99f35aba4e" x="231.045309" y="30.146932" style="fill: #9bf2fa; fill-opacity: 0.7; stroke: #9bf2fa; stroke-opacity: 0.7; stroke-width: 1.5"/>
    </g>
   </g>
   <g id="line2d_40">
    <path d="M 178.391882 64.895916 
L 178.391882 62.80469 
" clip-path="url(#p9ea91b577b)" style="fill: none; stroke: #9bf2fa; stroke-opacity: 0.7; stroke-width: 2; stroke-linecap: square"/>
   </g>
   <g id="line2d_41">
    <path d="M 204.718596 49.636091 
L 204.718596 45.669996 
" clip-path="url(#p9ea91b577b)" style="fill: none; stroke: #9bf2fa; stroke-opacity: 0.7; stroke-width: 2; stroke-linecap: square"/>
   </g>
   <g id="line2d_42">
    <path d="M 231.045309 35.721869 
L 231.045309 26.708659 
" clip-path="url(#p9ea91b577b)" style="fill: none; stroke: #9bf2fa; stroke-opacity: 0.7; stroke-width: 2; stroke-linecap: square"/>
   </g>
   <g id="line2d_43">
    <path d="M 178.391882 70.808741 
L 204.718596 65.140138 
L 231.045309 62.318283 
" clip-path="url(#p9ea91b577b)" style="fill: none; stroke: #f2a900; stroke-opacity: 0.7; stroke-width: 2; stroke-linecap: square"/>
    <g clip-path="url(#p9ea91b577b)">
     <use xlink:href="#m1ab65df327" x="178.391882" y="70.808741" style="fill: #f2a900; fill-opacity: 0.7; stroke: #f2a900; stroke-opacity: 0.7; stroke-width: 1.5"/>
     <use xlink:href="#m1ab65df327" x="204.718596" y="65.140138" style="fill: #f2a900; fill-opacity: 0.7; stroke: #f2a900; stroke-opacity: 0.7; stroke-width: 1.5"/>
     <use xlink:href="#m1ab65df327" x="231.045309" y="62.318283" style="fill: #f2a900; fill-opacity: 0.7; stroke: #f2a900; stroke-opacity: 0.7; stroke-width: 1.5"/>
    </g>
   </g>
   <g id="line2d_44">
    <path d="M 178.391882 71.346979 
L 178.391882 70.139261 
" clip-path="url(#p9ea91b577b)" style="fill: none; stroke: #f2a900; stroke-opacity: 0.7; stroke-width: 2; stroke-linecap: square"/>
   </g>
   <g id="line2d_45">
    <path d="M 204.718596 66.165655 
L 204.718596 63.956618 
" clip-path="url(#p9ea91b577b)" style="fill: none; stroke: #f2a900; stroke-opacity: 0.7; stroke-width: 2; stroke-linecap: square"/>
   </g>
   <g id="line2d_46">
    <path d="M 231.045309 62.987923 
L 231.045309 61.653463 
" clip-path="url(#p9ea91b577b)" style="fill: none; stroke: #f2a900; stroke-opacity: 0.7; stroke-width: 2; stroke-linecap: square"/>
   </g>
   <g id="line2d_47"/>
   <g id="line2d_48"/>
   <g id="line2d_49"/>
   <g id="line2d_50"/>
   <g id="patch_6">
    <path d="M 165.228525 73.578895 
L 165.228525 20.038594 
" style="fill: none; stroke: #000000; stroke-width: 1.5; stroke-linejoin: miter; stroke-linecap: square"/>
   </g>
   <g id="patch_7">
    <path d="M 165.228525 73.578895 
L 244.208666 73.578895 
" style="fill: none; stroke: #000000; stroke-width: 1.5; stroke-linejoin: miter; stroke-linecap: square"/>
   </g>
   <g id="text_15">
    <!-- s$W_1$ -->
    <g transform="translate(195.718596 14.038594)">
     <text>
      <tspan style="font: 9px 'DejaVu Sans'" x="0 4.688965" y="-0.4375">sW</tspan>
      <tspan style="font: 6.3px 'DejaVu Sans'" x="13.674023" y="1.0390625">1</tspan>
     </text>
    </g>
   </g>
  </g>
  <g id="legend_1">
   <g id="line2d_51">
    <path d="M 10.8 117.078041 
L 19.8 117.078041 
L 28.8 117.078041 
" style="fill: none; stroke: #060169; stroke-opacity: 0.7; stroke-width: 2; stroke-linecap: square"/>
    <g>
     <use xlink:href="#m8cca3cb5e0" x="19.8" y="117.078041" style="fill: #060169; fill-opacity: 0.7; stroke: #060169; stroke-opacity: 0.7; stroke-width: 1.5"/>
    </g>
   </g>
   <g id="text_16">
    <text style="font: 9px 'Arial', sans-serif; text-anchor: start" x="36" y="120.228041" transform="rotate(-0 36 120.228041)">NPE</text>
   </g>
   <g id="line2d_52">
    <path d="M 71.846719 117.078041 
L 80.846719 117.078041 
L 89.846719 117.078041 
" style="fill: none; stroke: #1e81b0; stroke-opacity: 0.7; stroke-width: 2; stroke-linecap: square"/>
    <g>
     <use xlink:href="#m6abb85b22b" x="80.846719" y="117.078041" style="fill: #1e81b0; fill-opacity: 0.7; stroke: #1e81b0; stroke-opacity: 0.7; stroke-width: 1.5"/>
    </g>
   </g>
   <g id="text_17">
    <text style="font: 9px 'Arial', sans-serif; text-anchor: start" x="97.046719" y="120.228041" transform="rotate(-0 97.046719 120.228041)">FNLE</text>
   </g>
   <g id="line2d_53">
    <path d="M 137.657812 117.078041 
L 146.657812 117.078041 
L 155.657812 117.078041 
" style="fill: none; stroke: #9bf2fa; stroke-opacity: 0.7; stroke-width: 2; stroke-linecap: square"/>
    <g>
     <use xlink:href="#m99f35aba4e" x="146.657812" y="117.078041" style="fill: #9bf2fa; fill-opacity: 0.7; stroke: #9bf2fa; stroke-opacity: 0.7; stroke-width: 1.5"/>
    </g>
   </g>
   <g id="text_18">
    <text style="font: 9px 'Arial', sans-serif; text-anchor: start" x="162.857812" y="120.228041" transform="rotate(-0 162.857812 120.228041)">FNRE</text>
   </g>
   <g id="line2d_54">
    <path d="M 204.707812 117.078041 
L 213.707812 117.078041 
L 222.707812 117.078041 
" style="fill: none; stroke: #f2a900; stroke-opacity: 0.7; stroke-width: 2; stroke-linecap: square"/>
    <g>
     <use xlink:href="#m1ab65df327" x="213.707812" y="117.078041" style="fill: #f2a900; fill-opacity: 0.7; stroke: #f2a900; stroke-opacity: 0.7; stroke-width: 1.5"/>
    </g>
   </g>
   <g id="text_19">
    <text style="font: 9px 'Arial', sans-serif; text-anchor: start" x="229.907812" y="120.228041" transform="rotate(-0 229.907812 120.228041)">FNSE</text>
   </g>
  </g>
 </g>
 <defs>
  <clipPath id="pa3605baee2">
   <rect x="52.097904" y="20.038594" width="78.980141" height="53.540301"/>
  </clipPath>
  <clipPath id="p9ea91b577b">
   <rect x="165.228525" y="20.038594" width="78.980141" height="53.540301"/>
  </clipPath>
 </defs>
</svg>
