<?xml version="1.0" encoding="utf-8" standalone="no"?>
<!DOCTYPE svg PUBLIC "-//W3C//DTD SVG 1.1//EN"
  "http://www.w3.org/Graphics/SVG/1.1/DTD/svg11.dtd">
<svg xmlns:xlink="http://www.w3.org/1999/xlink" width="271.625938pt" height="230.087403pt" viewBox="0 0 271.625938 230.087403" xmlns="http://www.w3.org/2000/svg" version="1.1">
 <metadata>
  <rdf:RDF xmlns:dc="http://purl.org/dc/elements/1.1/" xmlns:cc="http://creativecommons.org/ns#" xmlns:rdf="http://www.w3.org/1999/02/22-rdf-syntax-ns#">
   <cc:Work>
    <dc:type rdf:resource="http://purl.org/dc/dcmitype/StillImage"/>
    <dc:date>2024-09-23T10:48:23.571246</dc:date>
    <dc:format>image/svg+xml</dc:format>
    <dc:creator>
     <cc:Agent>
      <dc:title>Matplotlib v3.9.2, https://matplotlib.org/</dc:title>
     </cc:Agent>
    </dc:creator>
   </cc:Work>
  </rdf:RDF>
 </metadata>
 <defs>
  <style type="text/css">*{stroke-linejoin: round; stroke-linecap: butt}</style>
 </defs>
 <g id="figure_1">
  <g id="patch_1">
   <path d="M 0 230.087403 
L 271.625938 230.087403 
L 271.625938 0 
L 0 0 
L 0 230.087403 
z
" style="fill: none"/>
  </g>
  <g id="axes_1">
   <g id="patch_2">
    <path d="M 32.636563 74.644364 
L 255.836562 74.644364 
L 255.836562 33.408 
L 32.636563 33.408 
L 32.636563 74.644364 
z
" style="fill: none"/>
   </g>
   <g id="PolyCollection_1">
    <defs>
     <path id="me36181d7a2" d="M 32.636563 -163.690312 
L 32.636563 -163.690312 
L 34.868563 -164.462884 
L 37.100563 -165.421111 
L 39.332563 -166.453702 
L 41.564563 -167.52104 
L 43.796563 -168.570566 
L 46.028563 -169.445201 
L 48.260563 -169.939527 
L 50.492563 -169.893525 
L 52.724563 -169.025435 
L 54.956563 -167.304522 
L 57.188563 -165.126978 
L 59.420563 -162.995537 
L 61.652563 -161.207885 
L 63.884563 -159.864763 
L 66.116563 -158.933662 
L 68.348562 -158.287307 
L 70.580562 -157.850117 
L 72.812562 -157.548204 
L 75.044562 -157.350657 
L 77.276562 -157.219904 
L 79.508562 -157.135416 
L 81.740562 -157.094709 
L 83.972562 -157.106233 
L 86.204563 -157.132574 
L 88.436563 -157.199105 
L 90.668563 -157.287307 
L 92.900563 -157.423154 
L 95.132563 -157.590924 
L 97.364563 -157.805798 
L 99.596563 -158.066419 
L 101.828563 -158.365442 
L 104.060563 -158.726975 
L 106.292563 -159.163417 
L 108.524563 -159.681298 
L 110.756563 -160.316626 
L 112.988563 -160.989458 
L 115.220562 -161.651202 
L 117.452562 -162.034306 
L 119.684562 -161.854955 
L 121.916562 -161.058529 
L 124.148562 -160.056649 
L 126.380562 -159.171013 
L 128.612562 -158.502261 
L 130.844562 -158.009503 
L 133.076562 -157.654451 
L 135.308562 -157.372406 
L 137.540562 -157.161629 
L 139.772562 -156.986809 
L 142.004562 -156.853447 
L 144.236562 -156.74875 
L 146.468562 -156.666339 
L 148.700562 -156.596472 
L 150.932562 -156.542919 
L 153.164562 -156.496234 
L 155.396562 -156.463716 
L 157.628562 -156.44542 
L 159.860562 -156.431942 
L 162.092562 -156.42524 
L 164.324562 -156.437194 
L 166.556562 -156.452615 
L 168.788562 -156.483224 
L 171.020562 -156.522416 
L 173.252562 -156.572657 
L 175.484562 -156.632499 
L 177.716562 -156.717861 
L 179.948562 -156.803082 
L 182.180562 -156.902319 
L 184.412562 -156.983142 
L 186.644562 -157.067855 
L 188.876562 -157.105286 
L 191.108562 -157.093526 
L 193.340562 -157.035523 
L 195.572562 -156.979694 
L 197.804562 -156.872549 
L 200.036562 -156.7814 
L 202.268562 -156.683966 
L 204.500562 -156.590975 
L 206.732562 -156.508625 
L 208.964562 -156.430719 
L 211.196562 -156.34977 
L 213.428562 -156.286336 
L 215.660562 -156.238211 
L 217.892562 -156.187205 
L 220.124562 -156.152948 
L 222.356562 -156.11554 
L 224.588562 -156.075457 
L 226.820562 -156.050749 
L 229.052562 -156.018053 
L 231.284562 -156.001058 
L 233.516562 -155.982581 
L 235.748562 -155.967873 
L 237.980562 -155.952293 
L 240.212562 -155.942995 
L 242.444562 -155.934301 
L 244.676562 -155.932048 
L 246.908562 -155.935553 
L 249.140562 -155.937013 
L 251.372562 -155.942325 
L 253.604562 -155.94089 
L 253.604562 -186.207912 
L 253.604562 -186.207912 
L 251.372562 -185.648815 
L 249.140562 -184.997507 
L 246.908562 -184.417913 
L 244.676562 -183.895846 
L 242.444562 -183.572316 
L 240.212562 -182.909708 
L 237.980562 -182.595518 
L 235.748562 -182.523797 
L 233.516562 -182.373516 
L 231.284562 -182.395508 
L 229.052562 -182.821033 
L 226.820562 -183.238011 
L 224.588562 -183.999946 
L 222.356562 -184.645837 
L 220.124562 -185.577845 
L 217.892562 -186.482301 
L 215.660562 -187.241322 
L 213.428562 -188.034228 
L 211.196562 -188.327038 
L 208.964562 -188.712498 
L 206.732562 -188.829851 
L 204.500562 -188.972947 
L 202.268562 -188.88466 
L 200.036562 -188.602066 
L 197.804562 -188.362176 
L 195.572562 -187.967328 
L 193.340562 -187.371259 
L 191.108562 -186.764716 
L 188.876562 -186.010538 
L 186.644562 -185.231742 
L 184.412562 -184.410736 
L 182.180562 -183.373905 
L 179.948562 -182.419109 
L 177.716562 -181.384324 
L 175.484562 -180.13225 
L 173.252562 -178.835209 
L 171.020562 -177.426514 
L 168.788562 -176.050694 
L 166.556562 -174.462281 
L 164.324562 -172.998443 
L 162.092562 -171.553833 
L 159.860562 -170.145273 
L 157.628562 -169.264831 
L 155.396562 -168.834427 
L 153.164562 -168.966027 
L 150.932562 -170.429832 
L 148.700562 -173.43991 
L 146.468562 -176.732124 
L 144.236562 -179.699667 
L 142.004562 -182.08422 
L 139.772562 -183.732733 
L 137.540562 -185.351414 
L 135.308562 -186.24432 
L 133.076562 -187.007412 
L 130.844562 -187.234833 
L 128.612562 -187.232601 
L 126.380562 -186.849369 
L 124.148562 -186.413561 
L 121.916562 -185.66346 
L 119.684562 -184.525582 
L 117.452562 -183.344327 
L 115.220562 -181.930906 
L 112.988563 -180.551414 
L 110.756563 -178.841763 
L 108.524563 -177.093078 
L 106.292563 -175.172144 
L 104.060563 -173.232897 
L 101.828563 -171.288219 
L 99.596563 -169.394332 
L 97.364563 -167.673276 
L 95.132563 -166.162005 
L 92.900563 -164.866987 
L 90.668563 -163.791354 
L 88.436563 -162.962371 
L 86.204563 -162.372715 
L 83.972562 -162.026004 
L 81.740562 -161.943977 
L 79.508562 -162.209163 
L 77.276562 -162.888874 
L 75.044562 -164.054316 
L 72.812562 -165.878076 
L 70.580562 -168.406229 
L 68.348562 -171.784827 
L 66.116563 -175.593326 
L 63.884563 -179.406442 
L 61.652563 -182.530811 
L 59.420563 -184.356242 
L 57.188563 -184.965678 
L 54.956563 -184.372985 
L 52.724563 -182.729895 
L 50.492563 -180.532815 
L 48.260563 -178.05299 
L 46.028563 -175.49112 
L 43.796563 -172.980328 
L 41.564563 -170.652418 
L 39.332563 -168.562798 
L 37.100563 -166.716255 
L 34.868563 -165.122666 
L 32.636563 -163.690312 
z
" style="stroke: #eedf7a; stroke-opacity: 0.3"/>
    </defs>
    <g clip-path="url(#p9022131ceb)">
     <use xlink:href="#me36181d7a2" x="0" y="230.087403" style="fill: #eedf7a; fill-opacity: 0.3; stroke: #eedf7a; stroke-opacity: 0.3"/>
    </g>
   </g>
   <g id="PolyCollection_2">
    <defs>
     <path id="m83b0269cf9" d="M 32.636563 -163.690312 
L 32.636563 -163.690312 
L 34.868563 -164.565363 
L 37.100563 -165.678323 
L 39.332563 -166.923137 
L 41.564563 -168.26834 
L 43.796563 -169.6688 
L 46.028563 -170.997264 
L 48.260563 -172.104442 
L 50.492563 -172.703429 
L 52.724563 -172.512052 
L 54.956563 -171.239762 
L 57.188563 -169.017831 
L 59.420563 -166.284923 
L 61.652563 -163.670231 
L 63.884563 -161.585224 
L 66.116563 -160.058753 
L 68.348562 -159.049848 
L 70.580562 -158.365694 
L 72.812562 -157.893614 
L 75.044562 -157.590014 
L 77.276562 -157.390373 
L 79.508562 -157.266744 
L 81.740562 -157.201021 
L 83.972562 -157.17957 
L 86.204563 -157.199869 
L 88.436563 -157.252162 
L 90.668563 -157.337442 
L 92.900563 -157.455354 
L 95.132563 -157.618299 
L 97.364563 -157.81232 
L 99.596563 -158.064665 
L 101.828563 -158.364801 
L 104.060563 -158.725725 
L 106.292563 -159.162195 
L 108.524563 -159.681096 
L 110.756563 -160.277874 
L 112.988563 -160.992544 
L 115.220562 -161.775542 
L 117.452562 -162.44598 
L 119.684562 -162.65463 
L 121.916562 -162.114353 
L 124.148562 -161.148531 
L 126.380562 -160.082933 
L 128.612562 -159.184888 
L 130.844562 -158.508424 
L 133.076562 -158.044389 
L 135.308562 -157.684772 
L 137.540562 -157.38737 
L 139.772562 -157.156977 
L 142.004562 -156.969457 
L 144.236562 -156.827011 
L 146.468562 -156.714202 
L 148.700562 -156.629149 
L 150.932562 -156.571785 
L 153.164562 -156.521337 
L 155.396562 -156.482754 
L 157.628562 -156.46401 
L 159.860562 -156.450456 
L 162.092562 -156.45905 
L 164.324562 -156.47252 
L 166.556562 -156.493774 
L 168.788562 -156.534253 
L 171.020562 -156.577595 
L 173.252562 -156.637385 
L 175.484562 -156.711045 
L 177.716562 -156.798506 
L 179.948562 -156.892281 
L 182.180562 -156.997908 
L 184.412562 -157.101949 
L 186.644562 -157.191269 
L 188.876562 -157.248979 
L 191.108562 -157.28002 
L 193.340562 -157.246819 
L 195.572562 -157.178558 
L 197.804562 -157.074384 
L 200.036562 -156.953704 
L 202.268562 -156.84465 
L 204.500562 -156.736876 
L 206.732562 -156.631029 
L 208.964562 -156.534413 
L 211.196562 -156.449666 
L 213.428562 -156.374223 
L 215.660562 -156.292908 
L 217.892562 -156.229461 
L 220.124562 -156.172459 
L 222.356562 -156.128607 
L 224.588562 -156.085225 
L 226.820562 -156.052733 
L 229.052562 -156.023559 
L 231.284562 -155.999902 
L 233.516562 -155.97957 
L 235.748562 -155.964589 
L 237.980562 -155.950076 
L 240.212562 -155.945002 
L 242.444562 -155.941781 
L 244.676562 -155.942376 
L 246.908562 -155.944598 
L 249.140562 -155.948203 
L 251.372562 -155.950545 
L 253.604562 -155.965737 
L 253.604562 -185.585038 
L 253.604562 -185.585038 
L 251.372562 -185.007611 
L 249.140562 -184.342541 
L 246.908562 -183.822686 
L 244.676562 -183.176248 
L 242.444562 -182.447862 
L 240.212562 -181.973262 
L 237.980562 -181.6062 
L 235.748562 -181.350589 
L 233.516562 -181.321359 
L 231.284562 -181.338523 
L 229.052562 -181.457441 
L 226.820562 -182.060208 
L 224.588562 -182.477556 
L 222.356562 -183.310631 
L 220.124562 -184.568483 
L 217.892562 -185.638146 
L 215.660562 -186.47442 
L 213.428562 -187.255931 
L 211.196562 -187.63764 
L 208.964562 -187.84528 
L 206.732562 -188.027983 
L 204.500562 -187.97889 
L 202.268562 -187.961441 
L 200.036562 -187.878498 
L 197.804562 -187.641299 
L 195.572562 -187.246247 
L 193.340562 -186.56912 
L 191.108562 -185.89289 
L 188.876562 -185.235008 
L 186.644562 -184.508672 
L 184.412562 -183.871267 
L 182.180562 -183.121811 
L 179.948562 -182.20711 
L 177.716562 -181.143503 
L 175.484562 -179.917836 
L 173.252562 -178.692489 
L 171.020562 -177.423777 
L 168.788562 -175.960378 
L 166.556562 -174.479732 
L 164.324562 -172.865041 
L 162.092562 -171.249453 
L 159.860562 -169.82023 
L 157.628562 -168.715021 
L 155.396562 -168.033806 
L 153.164562 -167.931585 
L 150.932562 -168.886705 
L 148.700562 -171.32812 
L 146.468562 -174.358737 
L 144.236562 -176.766179 
L 142.004562 -178.947318 
L 139.772562 -180.803427 
L 137.540562 -182.38407 
L 135.308562 -183.627729 
L 133.076562 -184.492749 
L 130.844562 -184.844603 
L 128.612562 -185.023334 
L 126.380562 -184.911949 
L 124.148562 -184.573023 
L 121.916562 -184.006291 
L 119.684562 -183.225602 
L 117.452562 -182.351049 
L 115.220562 -181.255952 
L 112.988563 -180.089315 
L 110.756563 -178.706086 
L 108.524563 -177.026283 
L 106.292563 -175.174523 
L 104.060563 -173.188706 
L 101.828563 -171.16981 
L 99.596563 -169.184984 
L 97.364563 -167.444747 
L 95.132563 -165.891794 
L 92.900563 -164.603621 
L 90.668563 -163.54153 
L 88.436563 -162.69581 
L 86.204563 -162.045965 
L 83.972562 -161.61032 
L 81.740562 -161.376169 
L 79.508562 -161.360621 
L 77.276562 -161.605227 
L 75.044562 -162.208381 
L 72.812562 -163.260922 
L 70.580562 -164.878929 
L 68.348562 -167.127886 
L 66.116563 -169.976274 
L 63.884563 -173.251923 
L 61.652563 -176.344871 
L 59.420563 -178.86888 
L 57.188563 -180.372079 
L 54.956563 -180.612244 
L 52.724563 -179.915728 
L 50.492563 -178.471099 
L 48.260563 -176.549311 
L 46.028563 -174.383167 
L 43.796563 -172.198303 
L 41.564563 -170.124922 
L 39.332563 -168.228123 
L 37.100563 -166.54143 
L 34.868563 -165.064457 
L 32.636563 -163.690312 
z
" style="stroke: #d8a25e; stroke-opacity: 0.3"/>
    </defs>
    <g clip-path="url(#p9022131ceb)">
     <use xlink:href="#m83b0269cf9" x="0" y="230.087403" style="fill: #d8a25e; fill-opacity: 0.3; stroke: #d8a25e; stroke-opacity: 0.3"/>
    </g>
   </g>
   <g id="PolyCollection_3">
    <defs>
     <path id="m08c0870756" d="M 32.636563 -163.690312 
L 32.636563 -163.690312 
L 34.868563 -164.540102 
L 37.100563 -165.658047 
L 39.332563 -166.943277 
L 41.564563 -168.369237 
L 43.796563 -169.867528 
L 46.028563 -171.365845 
L 48.260563 -172.700458 
L 50.492563 -173.619465 
L 52.724563 -173.832303 
L 54.956563 -173.070457 
L 57.188563 -171.168579 
L 59.420563 -168.424958 
L 61.652563 -165.486917 
L 63.884563 -162.930404 
L 66.116563 -160.995988 
L 68.348562 -159.659284 
L 70.580562 -158.780099 
L 72.812562 -158.228313 
L 75.044562 -157.889688 
L 77.276562 -157.700324 
L 79.508562 -157.623434 
L 81.740562 -157.631109 
L 83.972562 -157.712689 
L 86.204563 -157.870498 
L 88.436563 -158.100169 
L 90.668563 -158.399248 
L 92.900563 -158.786063 
L 95.132563 -159.272091 
L 97.364563 -159.874668 
L 99.596563 -160.608475 
L 101.828563 -161.489164 
L 104.060563 -162.567788 
L 106.292563 -163.851327 
L 108.524563 -165.37693 
L 110.756563 -167.127033 
L 112.988563 -168.975274 
L 115.220562 -170.490246 
L 117.452562 -170.976313 
L 119.684562 -169.925716 
L 121.916562 -167.803318 
L 124.148562 -165.41083 
L 126.380562 -163.097956 
L 128.612562 -161.271066 
L 130.844562 -159.852696 
L 133.076562 -158.802236 
L 135.308562 -158.057648 
L 137.540562 -157.519577 
L 139.772562 -157.139405 
L 142.004562 -156.874156 
L 144.236562 -156.684775 
L 146.468562 -156.57588 
L 148.700562 -156.514629 
L 150.932562 -156.499406 
L 153.164562 -156.516912 
L 155.396562 -156.578942 
L 157.628562 -156.683348 
L 159.860562 -156.825982 
L 162.092562 -157.011149 
L 164.324562 -157.258605 
L 166.556562 -157.559595 
L 168.788562 -157.934711 
L 171.020562 -158.399348 
L 173.252562 -158.969482 
L 175.484562 -159.671293 
L 177.716562 -160.534287 
L 179.948562 -161.564348 
L 182.180562 -162.727784 
L 184.412562 -163.553699 
L 186.644562 -163.639821 
L 188.876562 -162.942314 
L 191.108562 -161.705124 
L 193.340562 -160.519612 
L 195.572562 -159.477005 
L 197.804562 -158.655541 
L 200.036562 -158.020003 
L 202.268562 -157.517758 
L 204.500562 -157.130879 
L 206.732562 -156.823827 
L 208.964562 -156.590095 
L 211.196562 -156.412085 
L 213.428562 -156.269778 
L 215.660562 -156.162556 
L 217.892562 -156.075399 
L 220.124562 -156.010695 
L 222.356562 -155.959792 
L 224.588562 -155.917502 
L 226.820562 -155.893228 
L 229.052562 -155.883773 
L 231.284562 -155.885783 
L 233.516562 -155.898002 
L 235.748562 -155.923938 
L 237.980562 -155.966796 
L 240.212562 -156.024122 
L 242.444562 -156.106774 
L 244.676562 -156.211527 
L 246.908562 -156.346337 
L 249.140562 -156.513598 
L 251.372562 -156.718715 
L 253.604562 -156.970368 
L 253.604562 -186.641507 
L 253.604562 -186.641507 
L 251.372562 -185.117062 
L 249.140562 -183.68543 
L 246.908562 -182.205978 
L 244.676562 -180.721261 
L 242.444562 -179.127443 
L 240.212562 -177.571378 
L 237.980562 -175.930114 
L 235.748562 -174.280817 
L 233.516562 -172.634298 
L 231.284562 -171.114569 
L 229.052562 -169.706952 
L 226.820562 -168.40084 
L 224.588562 -167.226125 
L 222.356562 -166.251831 
L 220.124562 -165.603494 
L 217.892562 -165.202537 
L 215.660562 -165.303716 
L 213.428562 -166.755729 
L 211.196562 -174.778301 
L 208.964562 -184.747055 
L 206.732562 -190.830545 
L 204.500562 -193.051496 
L 202.268562 -193.376687 
L 200.036562 -193.174633 
L 197.804562 -192.486946 
L 195.572562 -191.54939 
L 193.340562 -190.41512 
L 191.108562 -189.186078 
L 188.876562 -187.785286 
L 186.644562 -186.209396 
L 184.412562 -184.508717 
L 182.180562 -182.736144 
L 179.948562 -180.956547 
L 177.716562 -179.124226 
L 175.484562 -177.318971 
L 173.252562 -175.529154 
L 171.020562 -173.797474 
L 168.788562 -172.022227 
L 166.556562 -170.386063 
L 164.324562 -168.842472 
L 162.092562 -167.423783 
L 159.860562 -166.184272 
L 157.628562 -165.109044 
L 155.396562 -164.182197 
L 153.164562 -163.428834 
L 150.932562 -162.832589 
L 148.700562 -162.361623 
L 146.468562 -162.084399 
L 144.236562 -162.051747 
L 142.004562 -162.342832 
L 139.772562 -163.326054 
L 137.540562 -165.414059 
L 135.308562 -169.743057 
L 133.076562 -176.353422 
L 130.844562 -183.334677 
L 128.612562 -187.152685 
L 126.380562 -187.753327 
L 124.148562 -187.1303 
L 121.916562 -185.932328 
L 119.684562 -184.334794 
L 117.452562 -182.552977 
L 115.220562 -180.61956 
L 112.988563 -178.57515 
L 110.756563 -176.539692 
L 108.524563 -174.528121 
L 106.292563 -172.597742 
L 104.060563 -170.772026 
L 101.828563 -169.093006 
L 99.596563 -167.590156 
L 97.364563 -166.247949 
L 95.132563 -165.128664 
L 92.900563 -164.157829 
L 90.668563 -163.347441 
L 88.436563 -162.698067 
L 86.204563 -162.197279 
L 83.972562 -161.857892 
L 81.740562 -161.65168 
L 79.508562 -161.639167 
L 77.276562 -161.82797 
L 75.044562 -162.272235 
L 72.812562 -163.065878 
L 70.580562 -164.302915 
L 68.348562 -166.171897 
L 66.116563 -168.730924 
L 63.884563 -171.9849 
L 61.652563 -175.426212 
L 59.420563 -178.285283 
L 57.188563 -180.056936 
L 54.956563 -180.412047 
L 52.724563 -179.623876 
L 50.492563 -178.052162 
L 48.260563 -176.037166 
L 46.028563 -173.902172 
L 43.796563 -171.785654 
L 41.564563 -169.803148 
L 39.332563 -168.00846 
L 37.100563 -166.413757 
L 34.868563 -165.012077 
L 32.636563 -163.690312 
z
" style="stroke: #a04747; stroke-opacity: 0.3"/>
    </defs>
    <g clip-path="url(#p9022131ceb)">
     <use xlink:href="#m08c0870756" x="0" y="230.087403" style="fill: #a04747; fill-opacity: 0.3; stroke: #a04747; stroke-opacity: 0.3"/>
    </g>
   </g>
   <g id="matplotlib.axis_1"/>
   <g id="matplotlib.axis_2">
    <g id="ytick_1">
     <g id="line2d_1">
      <defs>
       <path id="mac205d29c0" d="M 0 0 
L -3.5 0 
" style="stroke: #000000; stroke-width: 1.5"/>
      </defs>
      <g>
       <use xlink:href="#mac205d29c0" x="32.636563" y="74.644364" style="stroke: #000000; stroke-width: 1.5"/>
      </g>
     </g>
     <g id="text_1">
      <text style="font: 9px 'Arial', sans-serif; text-anchor: end" x="25.636563" y="78.063661" transform="rotate(-0 25.636563 78.063661)">0</text>
     </g>
    </g>
    <g id="ytick_2">
     <g id="line2d_2">
      <g>
       <use xlink:href="#mac205d29c0" x="32.636563" y="33.408" style="stroke: #000000; stroke-width: 1.5"/>
      </g>
     </g>
     <g id="text_2">
      <text style="font: 9px 'Arial', sans-serif; text-anchor: end" x="25.636563" y="36.827297" transform="rotate(-0 25.636563 36.827297)">5</text>
     </g>
    </g>
    <g id="text_3">
     <!-- $x_1$ -->
     <g transform="translate(14.038594 58.886182) rotate(-90)">
      <text>
       <tspan style="font: 9px 'DejaVu Sans'" x="0" y="-0.078125">x</tspan>
       <tspan style="font: 6.3px 'DejaVu Sans'" x="5.412305" y="1.3984375">1</tspan>
      </text>
     </g>
    </g>
   </g>
   <g id="line2d_3">
    <defs>
     <path id="m318aaedc66" d="M 0 0.25 
C 0.066301 0.25 0.129895 0.223658 0.176777 0.176777 
C 0.223658 0.129895 0.25 0.066301 0.25 0 
C 0.25 -0.066301 0.223658 -0.129895 0.176777 -0.176777 
C 0.129895 -0.223658 0.066301 -0.25 0 -0.25 
C -0.066301 -0.25 -0.129895 -0.223658 -0.176777 -0.176777 
C -0.223658 -0.129895 -0.25 -0.066301 -0.25 0 
C -0.25 0.066301 -0.223658 0.129895 -0.176777 0.176777 
C -0.129895 0.223658 -0.066301 0.25 0 0.25 
z
" style="stroke: #000000"/>
    </defs>
    <g clip-path="url(#p9022131ceb)">
     <use xlink:href="#m318aaedc66" x="32.636563" y="66.397091" style="stroke: #000000"/>
     <use xlink:href="#m318aaedc66" x="34.868563" y="65.278528" style="stroke: #000000"/>
     <use xlink:href="#m318aaedc66" x="37.100563" y="64.130896" style="stroke: #000000"/>
     <use xlink:href="#m318aaedc66" x="39.332563" y="62.649441" style="stroke: #000000"/>
     <use xlink:href="#m318aaedc66" x="41.564563" y="61.252289" style="stroke: #000000"/>
     <use xlink:href="#m318aaedc66" x="43.796563" y="59.500467" style="stroke: #000000"/>
     <use xlink:href="#m318aaedc66" x="46.028563" y="57.552723" style="stroke: #000000"/>
     <use xlink:href="#m318aaedc66" x="48.260563" y="55.620625" style="stroke: #000000"/>
     <use xlink:href="#m318aaedc66" x="50.492563" y="53.250509" style="stroke: #000000"/>
     <use xlink:href="#m318aaedc66" x="52.724563" y="53.00242" style="stroke: #000000"/>
     <use xlink:href="#m318aaedc66" x="54.956563" y="54.584459" style="stroke: #000000"/>
     <use xlink:href="#m318aaedc66" x="57.188563" y="56.346457" style="stroke: #000000"/>
     <use xlink:href="#m318aaedc66" x="59.420563" y="59.075875" style="stroke: #000000"/>
     <use xlink:href="#m318aaedc66" x="61.652563" y="61.41568" style="stroke: #000000"/>
     <use xlink:href="#m318aaedc66" x="63.884563" y="63.504054" style="stroke: #000000"/>
     <use xlink:href="#m318aaedc66" x="66.116563" y="67.377801" style="stroke: #000000"/>
     <use xlink:href="#m318aaedc66" x="68.348562" y="69.155346" style="stroke: #000000"/>
     <use xlink:href="#m318aaedc66" x="70.580562" y="70.747049" style="stroke: #000000"/>
     <use xlink:href="#m318aaedc66" x="72.812562" y="71.076315" style="stroke: #000000"/>
     <use xlink:href="#m318aaedc66" x="75.044562" y="71.506487" style="stroke: #000000"/>
     <use xlink:href="#m318aaedc66" x="77.276562" y="71.419527" style="stroke: #000000"/>
     <use xlink:href="#m318aaedc66" x="79.508562" y="71.454491" style="stroke: #000000"/>
     <use xlink:href="#m318aaedc66" x="81.740562" y="71.259546" style="stroke: #000000"/>
     <use xlink:href="#m318aaedc66" x="83.972562" y="71.100072" style="stroke: #000000"/>
     <use xlink:href="#m318aaedc66" x="86.204563" y="70.857204" style="stroke: #000000"/>
     <use xlink:href="#m318aaedc66" x="88.436563" y="70.473315" style="stroke: #000000"/>
     <use xlink:href="#m318aaedc66" x="90.668563" y="69.833531" style="stroke: #000000"/>
     <use xlink:href="#m318aaedc66" x="92.900563" y="69.209755" style="stroke: #000000"/>
     <use xlink:href="#m318aaedc66" x="95.132563" y="68.31921" style="stroke: #000000"/>
     <use xlink:href="#m318aaedc66" x="97.364563" y="67.380289" style="stroke: #000000"/>
     <use xlink:href="#m318aaedc66" x="99.596563" y="66.234616" style="stroke: #000000"/>
     <use xlink:href="#m318aaedc66" x="101.828563" y="64.732108" style="stroke: #000000"/>
     <use xlink:href="#m318aaedc66" x="104.060563" y="62.894911" style="stroke: #000000"/>
     <use xlink:href="#m318aaedc66" x="106.292563" y="60.99765" style="stroke: #000000"/>
     <use xlink:href="#m318aaedc66" x="108.524563" y="58.8723" style="stroke: #000000"/>
     <use xlink:href="#m318aaedc66" x="110.756563" y="56.529124" style="stroke: #000000"/>
     <use xlink:href="#m318aaedc66" x="112.988563" y="53.548335" style="stroke: #000000"/>
     <use xlink:href="#m318aaedc66" x="115.220562" y="50.450981" style="stroke: #000000"/>
     <use xlink:href="#m318aaedc66" x="117.452562" y="48.089646" style="stroke: #000000"/>
     <use xlink:href="#m318aaedc66" x="119.684562" y="47.439662" style="stroke: #000000"/>
     <use xlink:href="#m318aaedc66" x="121.916562" y="47.408082" style="stroke: #000000"/>
     <use xlink:href="#m318aaedc66" x="124.148562" y="51.893075" style="stroke: #000000"/>
     <use xlink:href="#m318aaedc66" x="126.380562" y="57.215236" style="stroke: #000000"/>
     <use xlink:href="#m318aaedc66" x="128.612562" y="62.879422" style="stroke: #000000"/>
     <use xlink:href="#m318aaedc66" x="130.844562" y="66.366771" style="stroke: #000000"/>
     <use xlink:href="#m318aaedc66" x="133.076562" y="68.693229" style="stroke: #000000"/>
     <use xlink:href="#m318aaedc66" x="135.308562" y="69.836106" style="stroke: #000000"/>
     <use xlink:href="#m318aaedc66" x="137.540562" y="71.023548" style="stroke: #000000"/>
     <use xlink:href="#m318aaedc66" x="139.772562" y="71.49905" style="stroke: #000000"/>
     <use xlink:href="#m318aaedc66" x="142.004562" y="71.721145" style="stroke: #000000"/>
     <use xlink:href="#m318aaedc66" x="144.236562" y="72.074271" style="stroke: #000000"/>
     <use xlink:href="#m318aaedc66" x="146.468562" y="72.111325" style="stroke: #000000"/>
     <use xlink:href="#m318aaedc66" x="148.700562" y="72.163574" style="stroke: #000000"/>
     <use xlink:href="#m318aaedc66" x="150.932562" y="72.022718" style="stroke: #000000"/>
     <use xlink:href="#m318aaedc66" x="153.164562" y="71.771625" style="stroke: #000000"/>
     <use xlink:href="#m318aaedc66" x="155.396562" y="71.359275" style="stroke: #000000"/>
     <use xlink:href="#m318aaedc66" x="157.628562" y="70.995241" style="stroke: #000000"/>
     <use xlink:href="#m318aaedc66" x="159.860562" y="70.398043" style="stroke: #000000"/>
     <use xlink:href="#m318aaedc66" x="162.092562" y="69.737445" style="stroke: #000000"/>
     <use xlink:href="#m318aaedc66" x="164.324562" y="68.813521" style="stroke: #000000"/>
     <use xlink:href="#m318aaedc66" x="166.556562" y="67.784759" style="stroke: #000000"/>
     <use xlink:href="#m318aaedc66" x="168.788562" y="66.535384" style="stroke: #000000"/>
     <use xlink:href="#m318aaedc66" x="171.020562" y="65.019665" style="stroke: #000000"/>
     <use xlink:href="#m318aaedc66" x="173.252562" y="63.350086" style="stroke: #000000"/>
     <use xlink:href="#m318aaedc66" x="175.484562" y="61.230732" style="stroke: #000000"/>
     <use xlink:href="#m318aaedc66" x="177.716562" y="58.664282" style="stroke: #000000"/>
     <use xlink:href="#m318aaedc66" x="179.948562" y="55.898352" style="stroke: #000000"/>
     <use xlink:href="#m318aaedc66" x="182.180562" y="52.752214" style="stroke: #000000"/>
     <use xlink:href="#m318aaedc66" x="184.412562" y="49.198532" style="stroke: #000000"/>
     <use xlink:href="#m318aaedc66" x="186.644562" y="45.174159" style="stroke: #000000"/>
     <use xlink:href="#m318aaedc66" x="188.876562" y="43.395587" style="stroke: #000000"/>
     <use xlink:href="#m318aaedc66" x="191.108562" y="43.706736" style="stroke: #000000"/>
     <use xlink:href="#m318aaedc66" x="193.340562" y="44.351412" style="stroke: #000000"/>
     <use xlink:href="#m318aaedc66" x="195.572562" y="49.81803" style="stroke: #000000"/>
     <use xlink:href="#m318aaedc66" x="197.804562" y="60.234403" style="stroke: #000000"/>
     <use xlink:href="#m318aaedc66" x="200.036562" y="67.495326" style="stroke: #000000"/>
     <use xlink:href="#m318aaedc66" x="202.268562" y="69.936908" style="stroke: #000000"/>
     <use xlink:href="#m318aaedc66" x="204.500562" y="71.978282" style="stroke: #000000"/>
     <use xlink:href="#m318aaedc66" x="206.732562" y="72.501051" style="stroke: #000000"/>
     <use xlink:href="#m318aaedc66" x="208.964562" y="72.737875" style="stroke: #000000"/>
     <use xlink:href="#m318aaedc66" x="211.196562" y="72.967114" style="stroke: #000000"/>
     <use xlink:href="#m318aaedc66" x="213.428562" y="73.202082" style="stroke: #000000"/>
     <use xlink:href="#m318aaedc66" x="215.660562" y="73.299809" style="stroke: #000000"/>
     <use xlink:href="#m318aaedc66" x="217.892562" y="73.277813" style="stroke: #000000"/>
     <use xlink:href="#m318aaedc66" x="220.124562" y="73.228856" style="stroke: #000000"/>
     <use xlink:href="#m318aaedc66" x="222.356562" y="73.067781" style="stroke: #000000"/>
     <use xlink:href="#m318aaedc66" x="224.588562" y="72.908612" style="stroke: #000000"/>
     <use xlink:href="#m318aaedc66" x="226.820562" y="72.660037" style="stroke: #000000"/>
     <use xlink:href="#m318aaedc66" x="229.052562" y="72.342737" style="stroke: #000000"/>
     <use xlink:href="#m318aaedc66" x="231.284562" y="71.928584" style="stroke: #000000"/>
     <use xlink:href="#m318aaedc66" x="233.516562" y="71.459616" style="stroke: #000000"/>
     <use xlink:href="#m318aaedc66" x="235.748562" y="70.831748" style="stroke: #000000"/>
     <use xlink:href="#m318aaedc66" x="237.980562" y="70.065387" style="stroke: #000000"/>
     <use xlink:href="#m318aaedc66" x="240.212562" y="69.138382" style="stroke: #000000"/>
     <use xlink:href="#m318aaedc66" x="242.444562" y="68.018422" style="stroke: #000000"/>
     <use xlink:href="#m318aaedc66" x="244.676562" y="66.64212" style="stroke: #000000"/>
     <use xlink:href="#m318aaedc66" x="246.908562" y="64.973847" style="stroke: #000000"/>
     <use xlink:href="#m318aaedc66" x="249.140562" y="63.033169" style="stroke: #000000"/>
     <use xlink:href="#m318aaedc66" x="251.372562" y="60.635244" style="stroke: #000000"/>
     <use xlink:href="#m318aaedc66" x="253.604562" y="57.757368" style="stroke: #000000"/>
     <use xlink:href="#m318aaedc66" x="255.836562" y="54.459382" style="stroke: #000000"/>
    </g>
   </g>
   <g id="patch_3">
    <path d="M 32.636563 74.644364 
L 32.636563 33.408 
" style="fill: none; stroke: #000000; stroke-width: 1.5; stroke-linejoin: miter; stroke-linecap: square"/>
   </g>
   <g id="patch_4">
    <path d="M 32.636563 74.644364 
L 255.836562 74.644364 
" style="fill: none; stroke: #000000; stroke-width: 1.5; stroke-linejoin: miter; stroke-linecap: square"/>
   </g>
   <g id="text_4">
    <text style="font: 9px 'Arial', sans-serif; text-anchor: middle" x="144.236562" y="27.408" transform="rotate(-0 144.236562 27.408)">posterior predictive</text>
   </g>
  </g>
  <g id="axes_2">
   <g id="patch_5">
    <path d="M 32.636563 124.128 
L 255.836562 124.128 
L 255.836562 82.891636 
L 32.636563 82.891636 
L 32.636563 124.128 
z
" style="fill: none"/>
   </g>
   <g id="PolyCollection_4">
    <defs>
     <path id="m3eadef70cb" d="M 32.636563 -111.350044 
L 32.636563 -111.350044 
L 34.868563 -110.963328 
L 37.100563 -110.752801 
L 39.332563 -110.635254 
L 41.564563 -110.61015 
L 43.796563 -110.682893 
L 46.028563 -110.872082 
L 48.260563 -111.211664 
L 50.492563 -111.721029 
L 52.724563 -112.440858 
L 54.956563 -113.449537 
L 57.188563 -114.762238 
L 59.420563 -116.298836 
L 61.652563 -117.834478 
L 63.884563 -118.775716 
L 66.116563 -118.895887 
L 68.348562 -118.282177 
L 70.580562 -117.249734 
L 72.812562 -116.098949 
L 75.044562 -114.971894 
L 77.276562 -113.954846 
L 79.508562 -113.048667 
L 81.740562 -112.276113 
L 83.972562 -111.6301 
L 86.204563 -111.107301 
L 88.436563 -110.675667 
L 90.668563 -110.327177 
L 92.900563 -110.042156 
L 95.132563 -109.808902 
L 97.364563 -109.620762 
L 99.596563 -109.465274 
L 101.828563 -109.337604 
L 104.060563 -109.248816 
L 106.292563 -109.178058 
L 108.524563 -109.133971 
L 110.756563 -109.107449 
L 112.988563 -109.113215 
L 115.220562 -109.125216 
L 117.452562 -109.167461 
L 119.684562 -109.245669 
L 121.916562 -109.368846 
L 124.148562 -109.519141 
L 126.380562 -109.738912 
L 128.612562 -110.033715 
L 130.844562 -110.430095 
L 133.076562 -111.000899 
L 135.308562 -111.592331 
L 137.540562 -111.84715 
L 139.772562 -111.7853 
L 142.004562 -111.498104 
L 144.236562 -111.113645 
L 146.468562 -110.720938 
L 148.700562 -110.37029 
L 150.932562 -110.060326 
L 153.164562 -109.787992 
L 155.396562 -109.563398 
L 157.628562 -109.366493 
L 159.860562 -109.210398 
L 162.092562 -109.071023 
L 164.324562 -108.946743 
L 166.556562 -108.842676 
L 168.788562 -108.753748 
L 171.020562 -108.676767 
L 173.252562 -108.608012 
L 175.484562 -108.549066 
L 177.716562 -108.501521 
L 179.948562 -108.460637 
L 182.180562 -108.429626 
L 184.412562 -108.407125 
L 186.644562 -108.392597 
L 188.876562 -108.379331 
L 191.108562 -108.377212 
L 193.340562 -108.379611 
L 195.572562 -108.40028 
L 197.804562 -108.42822 
L 200.036562 -108.452128 
L 202.268562 -108.489406 
L 204.500562 -108.532934 
L 206.732562 -108.575245 
L 208.964562 -108.640363 
L 211.196562 -108.68343 
L 213.428562 -108.706507 
L 215.660562 -108.727634 
L 217.892562 -108.712623 
L 220.124562 -108.686372 
L 222.356562 -108.641005 
L 224.588562 -108.598638 
L 226.820562 -108.544119 
L 229.052562 -108.493785 
L 231.284562 -108.441494 
L 233.516562 -108.385206 
L 235.748562 -108.33525 
L 237.980562 -108.288629 
L 240.212562 -108.247786 
L 242.444562 -108.200525 
L 244.676562 -108.155636 
L 246.908562 -108.122426 
L 249.140562 -108.086147 
L 251.372562 -108.060321 
L 253.604562 -108.030338 
L 253.604562 -134.943356 
L 253.604562 -134.943356 
L 251.372562 -134.341254 
L 249.140562 -133.995728 
L 246.908562 -133.722804 
L 244.676562 -133.819911 
L 242.444562 -133.693501 
L 240.212562 -133.82478 
L 237.980562 -134.289609 
L 235.748562 -134.707455 
L 233.516562 -135.13935 
L 231.284562 -135.660315 
L 229.052562 -136.344944 
L 226.820562 -137.200426 
L 224.588562 -137.52308 
L 222.356562 -138.104399 
L 220.124562 -138.536551 
L 217.892562 -138.841121 
L 215.660562 -138.939945 
L 213.428562 -139.063883 
L 211.196562 -139.197589 
L 208.964562 -139.069322 
L 206.732562 -138.792499 
L 204.500562 -138.34084 
L 202.268562 -138.016547 
L 200.036562 -137.28079 
L 197.804562 -136.565677 
L 195.572562 -135.810091 
L 193.340562 -135.048651 
L 191.108562 -133.962561 
L 188.876562 -132.843295 
L 186.644562 -131.535438 
L 184.412562 -130.157681 
L 182.180562 -128.603295 
L 179.948562 -127.103892 
L 177.716562 -125.567486 
L 175.484562 -124.386083 
L 173.252562 -123.28564 
L 171.020562 -122.756194 
L 168.788562 -122.809852 
L 166.556562 -123.511077 
L 164.324562 -124.77075 
L 162.092562 -126.348483 
L 159.860562 -128.16873 
L 157.628562 -129.955793 
L 155.396562 -131.492395 
L 153.164562 -132.895325 
L 150.932562 -134.0674 
L 148.700562 -135.24514 
L 146.468562 -136.19388 
L 144.236562 -137.002357 
L 142.004562 -137.539956 
L 139.772562 -137.983865 
L 137.540562 -138.175036 
L 135.308562 -138.379411 
L 133.076562 -138.064313 
L 130.844562 -137.30656 
L 128.612562 -136.126433 
L 126.380562 -134.897428 
L 124.148562 -133.35668 
L 121.916562 -131.475452 
L 119.684562 -129.424964 
L 117.452562 -126.966186 
L 115.220562 -124.26007 
L 112.988563 -121.292102 
L 110.756563 -118.511121 
L 108.524563 -116.305108 
L 106.292563 -114.700608 
L 104.060563 -113.97401 
L 101.828563 -113.732434 
L 99.596563 -113.886403 
L 97.364563 -114.344868 
L 95.132563 -115.054495 
L 92.900563 -115.983999 
L 90.668563 -117.08508 
L 88.436563 -118.374277 
L 86.204563 -119.864595 
L 83.972562 -121.544772 
L 81.740562 -123.476328 
L 79.508562 -125.599412 
L 77.276562 -127.917418 
L 75.044562 -130.231328 
L 72.812562 -132.488473 
L 70.580562 -134.552201 
L 68.348562 -136.041638 
L 66.116563 -137.056432 
L 63.884563 -137.028377 
L 61.652563 -136.068608 
L 59.420563 -133.818546 
L 57.188563 -130.618716 
L 54.956563 -126.888772 
L 52.724563 -123.034145 
L 50.492563 -119.713136 
L 48.260563 -117.071011 
L 46.028563 -115.10211 
L 43.796563 -113.73212 
L 41.564563 -112.793719 
L 39.332563 -112.169181 
L 37.100563 -111.772771 
L 34.868563 -111.534867 
L 32.636563 -111.350044 
z
" style="stroke: #eedf7a; stroke-opacity: 0.3"/>
    </defs>
    <g clip-path="url(#p8d8c5cd0ac)">
     <use xlink:href="#m3eadef70cb" x="0" y="230.087403" style="fill: #eedf7a; fill-opacity: 0.3; stroke: #eedf7a; stroke-opacity: 0.3"/>
    </g>
   </g>
   <g id="PolyCollection_5">
    <defs>
     <path id="m62f78700f3" d="M 32.636563 -111.350044 
L 32.636563 -111.350044 
L 34.868563 -110.997159 
L 37.100563 -110.848744 
L 39.332563 -110.821914 
L 41.564563 -110.914689 
L 43.796563 -111.141991 
L 46.028563 -111.530932 
L 48.260563 -112.113658 
L 50.492563 -112.981588 
L 52.724563 -114.181834 
L 54.956563 -115.731339 
L 57.188563 -117.588042 
L 59.420563 -119.512649 
L 61.652563 -120.984922 
L 63.884563 -121.615956 
L 66.116563 -121.287258 
L 68.348562 -120.273753 
L 70.580562 -118.879271 
L 72.812562 -117.40187 
L 75.044562 -115.9972 
L 77.276562 -114.734157 
L 79.508562 -113.647787 
L 81.740562 -112.735494 
L 83.972562 -111.965741 
L 86.204563 -111.340321 
L 88.436563 -110.821099 
L 90.668563 -110.405636 
L 92.900563 -110.081534 
L 95.132563 -109.813848 
L 97.364563 -109.59579 
L 99.596563 -109.432465 
L 101.828563 -109.307633 
L 104.060563 -109.206341 
L 106.292563 -109.140878 
L 108.524563 -109.100558 
L 110.756563 -109.088743 
L 112.988563 -109.106376 
L 115.220562 -109.151949 
L 117.452562 -109.237708 
L 119.684562 -109.357492 
L 121.916562 -109.516206 
L 124.148562 -109.74304 
L 126.380562 -110.000114 
L 128.612562 -110.356024 
L 130.844562 -110.811172 
L 133.076562 -111.45782 
L 135.308562 -112.106154 
L 137.540562 -112.387586 
L 139.772562 -112.26966 
L 142.004562 -111.89959 
L 144.236562 -111.440502 
L 146.468562 -110.986428 
L 148.700562 -110.565013 
L 150.932562 -110.206402 
L 153.164562 -109.895611 
L 155.396562 -109.634435 
L 157.628562 -109.419235 
L 159.860562 -109.241728 
L 162.092562 -109.086387 
L 164.324562 -108.94966 
L 166.556562 -108.839507 
L 168.788562 -108.742179 
L 171.020562 -108.65808 
L 173.252562 -108.582432 
L 175.484562 -108.525485 
L 177.716562 -108.466276 
L 179.948562 -108.41923 
L 182.180562 -108.381827 
L 184.412562 -108.356787 
L 186.644562 -108.341356 
L 188.876562 -108.323282 
L 191.108562 -108.325722 
L 193.340562 -108.325853 
L 195.572562 -108.344143 
L 197.804562 -108.369028 
L 200.036562 -108.420859 
L 202.268562 -108.492761 
L 204.500562 -108.56465 
L 206.732562 -108.640086 
L 208.964562 -108.708009 
L 211.196562 -108.779521 
L 213.428562 -108.821016 
L 215.660562 -108.834737 
L 217.892562 -108.831051 
L 220.124562 -108.798791 
L 222.356562 -108.745311 
L 224.588562 -108.688378 
L 226.820562 -108.620137 
L 229.052562 -108.560037 
L 231.284562 -108.497895 
L 233.516562 -108.434608 
L 235.748562 -108.381273 
L 237.980562 -108.329304 
L 240.212562 -108.273949 
L 242.444562 -108.226005 
L 244.676562 -108.174067 
L 246.908562 -108.130552 
L 249.140562 -108.091607 
L 251.372562 -108.059117 
L 253.604562 -108.023738 
L 253.604562 -134.069421 
L 253.604562 -134.069421 
L 251.372562 -133.571849 
L 249.140562 -133.187934 
L 246.908562 -132.761954 
L 244.676562 -132.706963 
L 242.444562 -132.956932 
L 240.212562 -133.248282 
L 237.980562 -133.712211 
L 235.748562 -134.414727 
L 233.516562 -135.250976 
L 231.284562 -136.414333 
L 229.052562 -137.50163 
L 226.820562 -138.652433 
L 224.588562 -139.179214 
L 222.356562 -139.961251 
L 220.124562 -140.660096 
L 217.892562 -141.070106 
L 215.660562 -141.167126 
L 213.428562 -141.080399 
L 211.196562 -141.128143 
L 208.964562 -141.098897 
L 206.732562 -140.726454 
L 204.500562 -140.028824 
L 202.268562 -139.261068 
L 200.036562 -138.305714 
L 197.804562 -137.3026 
L 195.572562 -136.187234 
L 193.340562 -135.143055 
L 191.108562 -133.973137 
L 188.876562 -132.725559 
L 186.644562 -131.311631 
L 184.412562 -129.588695 
L 182.180562 -127.98071 
L 179.948562 -126.501428 
L 177.716562 -124.953515 
L 175.484562 -123.558508 
L 173.252562 -122.428571 
L 171.020562 -121.907618 
L 168.788562 -122.021554 
L 166.556562 -122.758209 
L 164.324562 -124.025024 
L 162.092562 -125.564937 
L 159.860562 -127.174653 
L 157.628562 -128.801384 
L 155.396562 -130.273384 
L 153.164562 -131.836015 
L 150.932562 -133.453296 
L 148.700562 -135.060451 
L 146.468562 -136.532243 
L 144.236562 -137.93632 
L 142.004562 -138.724437 
L 139.772562 -139.264056 
L 137.540562 -139.454007 
L 135.308562 -139.26843 
L 133.076562 -138.728612 
L 130.844562 -137.599726 
L 128.612562 -136.191564 
L 126.380562 -134.514169 
L 124.148562 -132.641037 
L 121.916562 -130.614533 
L 119.684562 -128.203328 
L 117.452562 -125.634626 
L 115.220562 -122.744265 
L 112.988563 -119.747729 
L 110.756563 -117.15796 
L 108.524563 -115.239873 
L 106.292563 -114.101408 
L 104.060563 -113.636725 
L 101.828563 -113.57636 
L 99.596563 -113.808012 
L 97.364563 -114.288943 
L 95.132563 -114.943002 
L 92.900563 -115.765395 
L 90.668563 -116.742328 
L 88.436563 -117.890305 
L 86.204563 -119.226229 
L 83.972562 -120.789526 
L 81.740562 -122.56288 
L 79.508562 -124.576297 
L 77.276562 -126.775682 
L 75.044562 -129.090121 
L 72.812562 -131.499852 
L 70.580562 -133.80543 
L 68.348562 -135.584627 
L 66.116563 -136.522368 
L 63.884563 -136.225335 
L 61.652563 -134.481608 
L 59.420563 -131.454588 
L 57.188563 -127.519427 
L 54.956563 -123.470664 
L 52.724563 -119.95951 
L 50.492563 -117.199857 
L 48.260563 -115.203781 
L 46.028563 -113.814083 
L 43.796563 -112.87674 
L 41.564563 -112.251684 
L 39.332563 -111.850933 
L 37.100563 -111.60511 
L 34.868563 -111.474814 
L 32.636563 -111.350044 
z
" style="stroke: #d8a25e; stroke-opacity: 0.3"/>
    </defs>
    <g clip-path="url(#p8d8c5cd0ac)">
     <use xlink:href="#m62f78700f3" x="0" y="230.087403" style="fill: #d8a25e; fill-opacity: 0.3; stroke: #d8a25e; stroke-opacity: 0.3"/>
    </g>
   </g>
   <g id="PolyCollection_6">
    <defs>
     <path id="m7bc2988669" d="M 32.636563 -111.350044 
L 32.636563 -111.350044 
L 34.868563 -110.960277 
L 37.100563 -110.787268 
L 39.332563 -110.731839 
L 41.564563 -110.790026 
L 43.796563 -110.98837 
L 46.028563 -111.339293 
L 48.260563 -111.927318 
L 50.492563 -112.791514 
L 52.724563 -114.027681 
L 54.956563 -115.713156 
L 57.188563 -117.819306 
L 59.420563 -120.041298 
L 61.652563 -121.901567 
L 63.884563 -122.847653 
L 66.116563 -122.725843 
L 68.348562 -121.798979 
L 70.580562 -120.390322 
L 72.812562 -118.837212 
L 75.044562 -117.288924 
L 77.276562 -115.845318 
L 79.508562 -114.578055 
L 81.740562 -113.489659 
L 83.972562 -112.562976 
L 86.204563 -111.776159 
L 88.436563 -111.123737 
L 90.668563 -110.592732 
L 92.900563 -110.15322 
L 95.132563 -109.796919 
L 97.364563 -109.508353 
L 99.596563 -109.280809 
L 101.828563 -109.102288 
L 104.060563 -108.975615 
L 106.292563 -108.895852 
L 108.524563 -108.867207 
L 110.756563 -108.891206 
L 112.988563 -108.98137 
L 115.220562 -109.170243 
L 117.452562 -109.495338 
L 119.684562 -110.058022 
L 121.916562 -111.020559 
L 124.148562 -112.605397 
L 126.380562 -115.332201 
L 128.612562 -118.828919 
L 130.844562 -120.259679 
L 133.076562 -119.819969 
L 135.308562 -118.601333 
L 137.540562 -117.243258 
L 139.772562 -115.901176 
L 142.004562 -114.68664 
L 144.236562 -113.639005 
L 146.468562 -112.708534 
L 148.700562 -111.937029 
L 150.932562 -111.268045 
L 153.164562 -110.704043 
L 155.396562 -110.231447 
L 157.628562 -109.829049 
L 159.860562 -109.491029 
L 162.092562 -109.215765 
L 164.324562 -108.983146 
L 166.556562 -108.782522 
L 168.788562 -108.616464 
L 171.020562 -108.472221 
L 173.252562 -108.35406 
L 175.484562 -108.256974 
L 177.716562 -108.177392 
L 179.948562 -108.114019 
L 182.180562 -108.068224 
L 184.412562 -108.042485 
L 186.644562 -108.030367 
L 188.876562 -108.040244 
L 191.108562 -108.097091 
L 193.340562 -108.199806 
L 195.572562 -108.397872 
L 197.804562 -108.768314 
L 200.036562 -109.476579 
L 202.268562 -110.919355 
L 204.500562 -112.619615 
L 206.732562 -112.802021 
L 208.964562 -112.472296 
L 211.196562 -111.971097 
L 213.428562 -111.437124 
L 215.660562 -110.934674 
L 217.892562 -110.498505 
L 220.124562 -110.09919 
L 222.356562 -109.759436 
L 224.588562 -109.461243 
L 226.820562 -109.201548 
L 229.052562 -108.977274 
L 231.284562 -108.786407 
L 233.516562 -108.615794 
L 235.748562 -108.47006 
L 237.980562 -108.343129 
L 240.212562 -108.236343 
L 242.444562 -108.14117 
L 244.676562 -108.061326 
L 246.908562 -107.992047 
L 249.140562 -107.929924 
L 251.372562 -107.875205 
L 253.604562 -107.833784 
L 253.604562 -130.922757 
L 253.604562 -130.922757 
L 251.372562 -128.73061 
L 249.140562 -126.37077 
L 246.908562 -124.067235 
L 244.676562 -121.972295 
L 242.444562 -119.952606 
L 240.212562 -118.325091 
L 237.980562 -117.155679 
L 235.748562 -116.54724 
L 233.516562 -116.528355 
L 231.284562 -116.999311 
L 229.052562 -118.476309 
L 226.820562 -120.956473 
L 224.588562 -124.161667 
L 222.356562 -127.930946 
L 220.124562 -132.32363 
L 217.892562 -136.904711 
L 215.660562 -140.690095 
L 213.428562 -143.131285 
L 211.196562 -144.802481 
L 208.964562 -145.321387 
L 206.732562 -145.260674 
L 204.500562 -144.728162 
L 202.268562 -143.654857 
L 200.036562 -142.405118 
L 197.804562 -140.801861 
L 195.572562 -138.770868 
L 193.340562 -136.545312 
L 191.108562 -134.082551 
L 188.876562 -131.511409 
L 186.644562 -128.912329 
L 184.412562 -126.129857 
L 182.180562 -123.48053 
L 179.948562 -120.859546 
L 177.716562 -118.572894 
L 175.484562 -116.68266 
L 173.252562 -115.252327 
L 171.020562 -114.199872 
L 168.788562 -113.48016 
L 166.556562 -113.054093 
L 164.324562 -112.929468 
L 162.092562 -113.069826 
L 159.860562 -113.511436 
L 157.628562 -114.248715 
L 155.396562 -115.335203 
L 153.164562 -116.859291 
L 150.932562 -118.86042 
L 148.700562 -121.390621 
L 146.468562 -124.515443 
L 144.236562 -128.232542 
L 142.004562 -132.37126 
L 139.772562 -136.420679 
L 137.540562 -139.394748 
L 135.308562 -140.701842 
L 133.076562 -140.55219 
L 130.844562 -139.239897 
L 128.612562 -137.231858 
L 126.380562 -134.632675 
L 124.148562 -131.638452 
L 121.916562 -128.340656 
L 119.684562 -124.977899 
L 117.452562 -121.883851 
L 115.220562 -119.143196 
L 112.988563 -116.975629 
L 110.756563 -115.329679 
L 108.524563 -114.174989 
L 106.292563 -113.399105 
L 104.060563 -112.915282 
L 101.828563 -112.657122 
L 99.596563 -112.562722 
L 97.364563 -112.656016 
L 95.132563 -112.91574 
L 92.900563 -113.327687 
L 90.668563 -113.932672 
L 88.436563 -114.728771 
L 86.204563 -115.738522 
L 83.972562 -117.01458 
L 81.740562 -118.594733 
L 79.508562 -120.445549 
L 77.276562 -122.611528 
L 75.044562 -125.095058 
L 72.812562 -127.739122 
L 70.580562 -130.403283 
L 68.348562 -132.708282 
L 66.116563 -134.098263 
L 63.884563 -134.116891 
L 61.652563 -132.40991 
L 59.420563 -129.362671 
L 57.188563 -125.571763 
L 54.956563 -121.761668 
L 52.724563 -118.586024 
L 50.492563 -116.12943 
L 48.260563 -114.378542 
L 46.028563 -113.176843 
L 43.796563 -112.366339 
L 41.564563 -111.855972 
L 39.332563 -111.552423 
L 37.100563 -111.403706 
L 34.868563 -111.37545 
L 32.636563 -111.350044 
z
" style="stroke: #a04747; stroke-opacity: 0.3"/>
    </defs>
    <g clip-path="url(#p8d8c5cd0ac)">
     <use xlink:href="#m7bc2988669" x="0" y="230.087403" style="fill: #a04747; fill-opacity: 0.3; stroke: #a04747; stroke-opacity: 0.3"/>
    </g>
   </g>
   <g id="matplotlib.axis_3">
    <g id="xtick_1">
     <g id="line2d_4">
      <defs>
       <path id="m9f0b067c81" d="M 0 0 
L 0 3.5 
" style="stroke: #000000; stroke-width: 1.5"/>
      </defs>
      <g>
       <use xlink:href="#m9f0b067c81" x="32.636563" y="124.128" style="stroke: #000000; stroke-width: 1.5"/>
      </g>
     </g>
     <g id="text_5">
      <text style="font: 9px 'Arial', sans-serif; text-anchor: middle" x="32.636563" y="137.966594" transform="rotate(-0 32.636563 137.966594)">0</text>
     </g>
    </g>
    <g id="xtick_2">
     <g id="line2d_5">
      <g>
       <use xlink:href="#m9f0b067c81" x="255.836562" y="124.128" style="stroke: #000000; stroke-width: 1.5"/>
      </g>
     </g>
     <g id="text_6">
      <text style="font: 9px 'Arial', sans-serif; text-anchor: middle" x="255.836562" y="137.966594" transform="rotate(-0 255.836562 137.966594)">100</text>
     </g>
    </g>
    <g id="text_7">
     <text style="font: 9px 'Arial', sans-serif; text-anchor: middle" x="144.236562" y="136.676906" transform="rotate(-0 144.236562 136.676906)">Time</text>
    </g>
   </g>
   <g id="matplotlib.axis_4">
    <g id="ytick_3">
     <g id="line2d_6">
      <g>
       <use xlink:href="#mac205d29c0" x="32.636563" y="122.667866" style="stroke: #000000; stroke-width: 1.5"/>
      </g>
     </g>
     <g id="text_8">
      <text style="font: 9px 'Arial', sans-serif; text-anchor: end" x="25.636563" y="126.087163" transform="rotate(-0 25.636563 126.087163)">0</text>
     </g>
    </g>
    <g id="ytick_4">
     <g id="line2d_7">
      <g>
       <use xlink:href="#mac205d29c0" x="32.636563" y="83.362806" style="stroke: #000000; stroke-width: 1.5"/>
      </g>
     </g>
     <g id="text_9">
      <text style="font: 9px 'Arial', sans-serif; text-anchor: end" x="25.636563" y="86.782103" transform="rotate(-0 25.636563 86.782103)">5</text>
     </g>
    </g>
    <g id="text_10">
     <!-- $x_2$ -->
     <g transform="translate(14.038594 108.369818) rotate(-90)">
      <text>
       <tspan style="font: 9px 'DejaVu Sans'" x="0" y="-0.078125">x</tspan>
       <tspan style="font: 6.3px 'DejaVu Sans'" x="5.412305" y="1.3984375">2</tspan>
      </text>
     </g>
    </g>
   </g>
   <g id="line2d_8">
    <g clip-path="url(#p8d8c5cd0ac)">
     <use xlink:href="#m318aaedc66" x="32.636563" y="118.73736" style="stroke: #000000"/>
     <use xlink:href="#m318aaedc66" x="34.868563" y="118.88822" style="stroke: #000000"/>
     <use xlink:href="#m318aaedc66" x="37.100563" y="119.058048" style="stroke: #000000"/>
     <use xlink:href="#m318aaedc66" x="39.332563" y="118.939883" style="stroke: #000000"/>
     <use xlink:href="#m318aaedc66" x="41.564563" y="118.422994" style="stroke: #000000"/>
     <use xlink:href="#m318aaedc66" x="43.796563" y="118.250268" style="stroke: #000000"/>
     <use xlink:href="#m318aaedc66" x="46.028563" y="118.067937" style="stroke: #000000"/>
     <use xlink:href="#m318aaedc66" x="48.260563" y="117.014761" style="stroke: #000000"/>
     <use xlink:href="#m318aaedc66" x="50.492563" y="114.717235" style="stroke: #000000"/>
     <use xlink:href="#m318aaedc66" x="52.724563" y="112.388536" style="stroke: #000000"/>
     <use xlink:href="#m318aaedc66" x="54.956563" y="110.149495" style="stroke: #000000"/>
     <use xlink:href="#m318aaedc66" x="57.188563" y="107.534355" style="stroke: #000000"/>
     <use xlink:href="#m318aaedc66" x="59.420563" y="104.243394" style="stroke: #000000"/>
     <use xlink:href="#m318aaedc66" x="61.652563" y="100.20939" style="stroke: #000000"/>
     <use xlink:href="#m318aaedc66" x="63.884563" y="98.944487" style="stroke: #000000"/>
     <use xlink:href="#m318aaedc66" x="66.116563" y="100.782588" style="stroke: #000000"/>
     <use xlink:href="#m318aaedc66" x="68.348562" y="103.75388" style="stroke: #000000"/>
     <use xlink:href="#m318aaedc66" x="70.580562" y="106.050435" style="stroke: #000000"/>
     <use xlink:href="#m318aaedc66" x="72.812562" y="108.908117" style="stroke: #000000"/>
     <use xlink:href="#m318aaedc66" x="75.044562" y="110.832516" style="stroke: #000000"/>
     <use xlink:href="#m318aaedc66" x="77.276562" y="112.950847" style="stroke: #000000"/>
     <use xlink:href="#m318aaedc66" x="79.508562" y="114.672166" style="stroke: #000000"/>
     <use xlink:href="#m318aaedc66" x="81.740562" y="116.053334" style="stroke: #000000"/>
     <use xlink:href="#m318aaedc66" x="83.972562" y="117.12818" style="stroke: #000000"/>
     <use xlink:href="#m318aaedc66" x="86.204563" y="118.010863" style="stroke: #000000"/>
     <use xlink:href="#m318aaedc66" x="88.436563" y="118.61189" style="stroke: #000000"/>
     <use xlink:href="#m318aaedc66" x="90.668563" y="119.218528" style="stroke: #000000"/>
     <use xlink:href="#m318aaedc66" x="92.900563" y="119.538612" style="stroke: #000000"/>
     <use xlink:href="#m318aaedc66" x="95.132563" y="119.90076" style="stroke: #000000"/>
     <use xlink:href="#m318aaedc66" x="97.364563" y="120.068994" style="stroke: #000000"/>
     <use xlink:href="#m318aaedc66" x="99.596563" y="120.298875" style="stroke: #000000"/>
     <use xlink:href="#m318aaedc66" x="101.828563" y="120.459535" style="stroke: #000000"/>
     <use xlink:href="#m318aaedc66" x="104.060563" y="120.456023" style="stroke: #000000"/>
     <use xlink:href="#m318aaedc66" x="106.292563" y="120.261151" style="stroke: #000000"/>
     <use xlink:href="#m318aaedc66" x="108.524563" y="119.99526" style="stroke: #000000"/>
     <use xlink:href="#m318aaedc66" x="110.756563" y="119.77417" style="stroke: #000000"/>
     <use xlink:href="#m318aaedc66" x="112.988563" y="119.127324" style="stroke: #000000"/>
     <use xlink:href="#m318aaedc66" x="115.220562" y="117.816423" style="stroke: #000000"/>
     <use xlink:href="#m318aaedc66" x="117.452562" y="116.538761" style="stroke: #000000"/>
     <use xlink:href="#m318aaedc66" x="119.684562" y="112.591514" style="stroke: #000000"/>
     <use xlink:href="#m318aaedc66" x="121.916562" y="106.419336" style="stroke: #000000"/>
     <use xlink:href="#m318aaedc66" x="124.148562" y="100.743499" style="stroke: #000000"/>
     <use xlink:href="#m318aaedc66" x="126.380562" y="97.85477" style="stroke: #000000"/>
     <use xlink:href="#m318aaedc66" x="128.612562" y="96.42806" style="stroke: #000000"/>
     <use xlink:href="#m318aaedc66" x="130.844562" y="97.277029" style="stroke: #000000"/>
     <use xlink:href="#m318aaedc66" x="133.076562" y="98.77018" style="stroke: #000000"/>
     <use xlink:href="#m318aaedc66" x="135.308562" y="102.216984" style="stroke: #000000"/>
     <use xlink:href="#m318aaedc66" x="137.540562" y="105.22868" style="stroke: #000000"/>
     <use xlink:href="#m318aaedc66" x="139.772562" y="107.900796" style="stroke: #000000"/>
     <use xlink:href="#m318aaedc66" x="142.004562" y="110.374985" style="stroke: #000000"/>
     <use xlink:href="#m318aaedc66" x="144.236562" y="112.617892" style="stroke: #000000"/>
     <use xlink:href="#m318aaedc66" x="146.468562" y="114.460877" style="stroke: #000000"/>
     <use xlink:href="#m318aaedc66" x="148.700562" y="115.947825" style="stroke: #000000"/>
     <use xlink:href="#m318aaedc66" x="150.932562" y="117.051762" style="stroke: #000000"/>
     <use xlink:href="#m318aaedc66" x="153.164562" y="118.110528" style="stroke: #000000"/>
     <use xlink:href="#m318aaedc66" x="155.396562" y="118.888508" style="stroke: #000000"/>
     <use xlink:href="#m318aaedc66" x="157.628562" y="119.485565" style="stroke: #000000"/>
     <use xlink:href="#m318aaedc66" x="159.860562" y="119.973826" style="stroke: #000000"/>
     <use xlink:href="#m318aaedc66" x="162.092562" y="120.343577" style="stroke: #000000"/>
     <use xlink:href="#m318aaedc66" x="164.324562" y="120.574795" style="stroke: #000000"/>
     <use xlink:href="#m318aaedc66" x="166.556562" y="120.801895" style="stroke: #000000"/>
     <use xlink:href="#m318aaedc66" x="168.788562" y="120.89796" style="stroke: #000000"/>
     <use xlink:href="#m318aaedc66" x="171.020562" y="120.978137" style="stroke: #000000"/>
     <use xlink:href="#m318aaedc66" x="173.252562" y="121.095267" style="stroke: #000000"/>
     <use xlink:href="#m318aaedc66" x="175.484562" y="121.037066" style="stroke: #000000"/>
     <use xlink:href="#m318aaedc66" x="177.716562" y="120.922575" style="stroke: #000000"/>
     <use xlink:href="#m318aaedc66" x="179.948562" y="120.874234" style="stroke: #000000"/>
     <use xlink:href="#m318aaedc66" x="182.180562" y="120.384842" style="stroke: #000000"/>
     <use xlink:href="#m318aaedc66" x="184.412562" y="119.853954" style="stroke: #000000"/>
     <use xlink:href="#m318aaedc66" x="186.644562" y="118.208277" style="stroke: #000000"/>
     <use xlink:href="#m318aaedc66" x="188.876562" y="115.883154" style="stroke: #000000"/>
     <use xlink:href="#m318aaedc66" x="191.108562" y="112.138415" style="stroke: #000000"/>
     <use xlink:href="#m318aaedc66" x="193.340562" y="103.375286" style="stroke: #000000"/>
     <use xlink:href="#m318aaedc66" x="195.572562" y="96.582746" style="stroke: #000000"/>
     <use xlink:href="#m318aaedc66" x="197.804562" y="88.763023" style="stroke: #000000"/>
     <use xlink:href="#m318aaedc66" x="200.036562" y="86.599929" style="stroke: #000000"/>
     <use xlink:href="#m318aaedc66" x="202.268562" y="91.260734" style="stroke: #000000"/>
     <use xlink:href="#m318aaedc66" x="204.500562" y="96.582023" style="stroke: #000000"/>
     <use xlink:href="#m318aaedc66" x="206.732562" y="101.671774" style="stroke: #000000"/>
     <use xlink:href="#m318aaedc66" x="208.964562" y="105.386897" style="stroke: #000000"/>
     <use xlink:href="#m318aaedc66" x="211.196562" y="108.816144" style="stroke: #000000"/>
     <use xlink:href="#m318aaedc66" x="213.428562" y="111.548317" style="stroke: #000000"/>
     <use xlink:href="#m318aaedc66" x="215.660562" y="113.931056" style="stroke: #000000"/>
     <use xlink:href="#m318aaedc66" x="217.892562" y="115.710534" style="stroke: #000000"/>
     <use xlink:href="#m318aaedc66" x="220.124562" y="117.158363" style="stroke: #000000"/>
     <use xlink:href="#m318aaedc66" x="222.356562" y="118.240287" style="stroke: #000000"/>
     <use xlink:href="#m318aaedc66" x="224.588562" y="119.117824" style="stroke: #000000"/>
     <use xlink:href="#m318aaedc66" x="226.820562" y="119.811705" style="stroke: #000000"/>
     <use xlink:href="#m318aaedc66" x="229.052562" y="120.318889" style="stroke: #000000"/>
     <use xlink:href="#m318aaedc66" x="231.284562" y="120.764632" style="stroke: #000000"/>
     <use xlink:href="#m318aaedc66" x="233.516562" y="121.066267" style="stroke: #000000"/>
     <use xlink:href="#m318aaedc66" x="235.748562" y="121.324196" style="stroke: #000000"/>
     <use xlink:href="#m318aaedc66" x="237.980562" y="121.48681" style="stroke: #000000"/>
     <use xlink:href="#m318aaedc66" x="240.212562" y="121.626433" style="stroke: #000000"/>
     <use xlink:href="#m318aaedc66" x="242.444562" y="121.73416" style="stroke: #000000"/>
     <use xlink:href="#m318aaedc66" x="244.676562" y="121.803343" style="stroke: #000000"/>
     <use xlink:href="#m318aaedc66" x="246.908562" y="121.817432" style="stroke: #000000"/>
     <use xlink:href="#m318aaedc66" x="249.140562" y="121.823957" style="stroke: #000000"/>
     <use xlink:href="#m318aaedc66" x="251.372562" y="121.82645" style="stroke: #000000"/>
     <use xlink:href="#m318aaedc66" x="253.604562" y="121.656218" style="stroke: #000000"/>
     <use xlink:href="#m318aaedc66" x="255.836562" y="121.443559" style="stroke: #000000"/>
    </g>
   </g>
   <g id="patch_6">
    <path d="M 32.636563 124.128 
L 32.636563 82.891636 
" style="fill: none; stroke: #000000; stroke-width: 1.5; stroke-linejoin: miter; stroke-linecap: square"/>
   </g>
   <g id="patch_7">
    <path d="M 32.636563 124.128 
L 255.836562 124.128 
" style="fill: none; stroke: #000000; stroke-width: 1.5; stroke-linejoin: miter; stroke-linecap: square"/>
   </g>
   <g id="legend_1">
    <g id="line2d_9">
     <g>
      <use xlink:href="#m318aaedc66" x="41.439688" y="214.265685" style="stroke: #000000"/>
     </g>
    </g>
    <g id="text_11">
     <!-- $x_o$/$\theta_o$ -->
     <g transform="translate(53.139688 217.415685)">
      <text>
       <tspan style="font: 9px 'DejaVu Sans'" x="0 9.512842 12.545068" y="-0.09375">x/</tspan>
       <tspan style="font: 6.3px 'DejaVu Sans'" x="5.412305 18.137549" y="1.3828125">oo</tspan>
      </text>
     </g>
    </g>
    <g id="patch_8">
     <path d="M 93.459688 217.415685 
L 102.459688 217.415685 
L 102.459688 211.115685 
L 93.459688 211.115685 
z
" style="fill: #eedf7a; fill-opacity: 0.3; stroke: #eedf7a; stroke-opacity: 0.3; stroke-linejoin: miter"/>
    </g>
    <g id="text_12">
     <text style="font: 9px 'Arial', sans-serif; text-anchor: start" x="109.659688" y="217.415685" transform="rotate(-0 109.659688 217.415685)">T=1</text>
    </g>
    <g id="patch_9">
     <path d="M 146.424688 217.415685 
L 155.424688 217.415685 
L 155.424688 211.115685 
L 146.424688 211.115685 
z
" style="fill: #d8a25e; fill-opacity: 0.3; stroke: #d8a25e; stroke-opacity: 0.3; stroke-linejoin: miter"/>
    </g>
    <g id="text_13">
     <text style="font: 9px 'Arial', sans-serif; text-anchor: start" x="162.624687" y="217.415685" transform="rotate(-0 162.624687 217.415685)">T=10</text>
    </g>
    <g id="patch_10">
     <path d="M 205.115938 217.415685 
L 214.115938 217.415685 
L 214.115938 211.115685 
L 205.115938 211.115685 
z
" style="fill: #a04747; fill-opacity: 0.3; stroke: #a04747; stroke-opacity: 0.3; stroke-linejoin: miter"/>
    </g>
    <g id="text_14">
     <text style="font: 9px 'Arial', sans-serif; text-anchor: start" x="221.315937" y="217.415685" transform="rotate(-0 221.315937 217.415685)">T=100</text>
    </g>
   </g>
  </g>
  <g id="axes_3">
   <g id="patch_11">
    <path d="M 32.636563 184.608 
L 75.559639 184.608 
L 75.559639 154.368 
L 32.636563 154.368 
L 32.636563 184.608 
z
" style="fill: none"/>
   </g>
   <g id="matplotlib.axis_5">
    <g id="xtick_3">
     <g id="line2d_10">
      <g>
       <use xlink:href="#m9f0b067c81" x="32.636562" y="184.608" style="stroke: #000000; stroke-width: 1.5"/>
      </g>
     </g>
     <g id="text_15">
      <text style="font: 9px 'Arial', sans-serif; text-anchor: middle" x="32.636562" y="198.446594" transform="rotate(-0 32.636562 198.446594)">3</text>
     </g>
    </g>
    <g id="xtick_4">
     <g id="line2d_11">
      <g>
       <use xlink:href="#m9f0b067c81" x="75.559639" y="184.608" style="stroke: #000000; stroke-width: 1.5"/>
      </g>
     </g>
     <g id="text_16">
      <text style="font: 9px 'Arial', sans-serif; text-anchor: middle" x="75.559639" y="198.446594" transform="rotate(-0 75.559639 198.446594)">3</text>
     </g>
    </g>
    <g id="text_17">
     <!-- $\theta_0$ -->
     <g transform="translate(49.148101 202.156906)">
      <text>
       <tspan style="font: 9px 'DejaVu Sans'" x="0" y="-0.09375"></tspan>
       <tspan style="font: 6.3px 'DejaVu Sans'" x="5.59248" y="1.3828125">0</tspan>
      </text>
     </g>
    </g>
   </g>
   <g id="matplotlib.axis_6"/>
   <g id="line2d_12">
    <path d="M 38.434785 184.607995 
L 49.016357 184.496145 
L 50.583998 184.2773 
L 51.955683 183.816259 
L 53.327368 183.046067 
L 55.090964 181.980314 
L 55.874784 181.838989 
L 57.050514 181.942556 
L 58.422199 182.271751 
L 60.969615 183.215769 
L 64.692761 184.273397 
L 67.044222 184.531078 
L 69.983547 184.592864 
L 77.429839 184.607995 
L 77.429839 184.607995 
" clip-path="url(#pf0c062f874)" style="fill: none; stroke: #eedf7a; stroke-width: 1.5; stroke-linecap: square"/>
   </g>
   <g id="line2d_13">
    <path d="M 41.539483 184.607993 
L 50.584297 184.506274 
L 51.622226 184.221926 
L 52.215329 183.833649 
L 52.956707 183.03903 
L 54.587739 181.017408 
L 55.032566 180.798039 
L 55.477393 180.795762 
L 55.92222 181.022957 
L 56.811874 181.567773 
L 57.553252 182.011809 
L 58.442906 182.533528 
L 59.480835 182.914303 
L 60.667041 183.472755 
L 62.149797 183.982226 
L 63.484278 184.345181 
L 65.11531 184.540675 
L 68.377374 184.605102 
L 71.046336 184.60799 
L 71.046336 184.60799 
" clip-path="url(#pf0c062f874)" style="fill: none; stroke: #d8a25e; stroke-width: 1.5; stroke-linecap: square"/>
   </g>
   <g id="line2d_14">
    <path d="M 52.719046 184.607949 
L 54.005215 184.483406 
L 54.482934 184.259828 
L 54.666673 183.90028 
L 54.776916 183.452006 
L 54.960654 181.478918 
L 55.217888 172.597414 
L 55.622112 155.817154 
L 55.658859 155.808 
L 55.80585 159.374567 
L 56.43056 182.503974 
L 56.687794 184.211048 
L 56.945028 184.525573 
L 57.312504 184.585364 
L 58.598673 184.608 
L 60.031832 184.607949 
L 60.031832 184.607949 
" clip-path="url(#pf0c062f874)" style="fill: none; stroke: #a04747; stroke-width: 1.5; stroke-linecap: square"/>
   </g>
   <g id="LineCollection_1">
    <path d="M 55.3335 184.608 
L 55.3335 157.392 
" clip-path="url(#pf0c062f874)" style="fill: none; stroke: #000000; stroke-width: 1.5"/>
   </g>
   <g id="patch_12">
    <path d="M 32.636562 184.608 
L 75.559639 184.608 
" style="fill: none; stroke: #000000; stroke-width: 1.5; stroke-linejoin: miter; stroke-linecap: square"/>
   </g>
  </g>
  <g id="axes_4">
   <g id="patch_13">
    <path d="M 92.72887 184.608 
L 135.651947 184.608 
L 135.651947 154.368 
L 92.72887 154.368 
L 92.72887 184.608 
z
" style="fill: none"/>
   </g>
   <g id="matplotlib.axis_7">
    <g id="xtick_5">
     <g id="line2d_15">
      <g>
       <use xlink:href="#m9f0b067c81" x="92.72887" y="184.608" style="stroke: #000000; stroke-width: 1.5"/>
      </g>
     </g>
     <g id="text_18">
      <text style="font: 9px 'Arial', sans-serif; text-anchor: middle" x="92.72887" y="198.446594" transform="rotate(-0 92.72887 198.446594)">3</text>
     </g>
    </g>
    <g id="xtick_6">
     <g id="line2d_16">
      <g>
       <use xlink:href="#m9f0b067c81" x="135.651947" y="184.608" style="stroke: #000000; stroke-width: 1.5"/>
      </g>
     </g>
     <g id="text_19">
      <text style="font: 9px 'Arial', sans-serif; text-anchor: middle" x="135.651947" y="198.446594" transform="rotate(-0 135.651947 198.446594)">3</text>
     </g>
    </g>
    <g id="text_20">
     <!-- $\theta_1$ -->
     <g transform="translate(109.240409 202.156906)">
      <text>
       <tspan style="font: 9px 'DejaVu Sans'" x="0" y="-0.09375"></tspan>
       <tspan style="font: 6.3px 'DejaVu Sans'" x="5.59248" y="1.3828125">1</tspan>
      </text>
     </g>
    </g>
   </g>
   <g id="matplotlib.axis_8"/>
   <g id="line2d_17">
    <path d="M 81.521638 184.607991 
L 94.406067 184.505543 
L 97.305063 184.313147 
L 100.52617 183.853875 
L 103.103056 183.179966 
L 105.357831 182.21968 
L 109.867381 180.263331 
L 111.155824 180.122848 
L 113.088488 180.034239 
L 114.699042 180.293747 
L 116.309595 180.800768 
L 119.852813 182.245104 
L 122.75181 183.358444 
L 125.006585 183.916728 
L 127.583471 184.348445 
L 130.804578 184.520843 
L 135.314128 184.600803 
L 145.621671 184.607991 
L 145.621671 184.607991 
" clip-path="url(#p72b3c8cef6)" style="fill: none; stroke: #eedf7a; stroke-width: 1.5; stroke-linecap: square"/>
   </g>
   <g id="line2d_18">
    <path d="M 85.899173 184.607989 
L 96.226472 184.498392 
L 98.868339 184.248982 
L 101.270037 183.731017 
L 103.911904 182.782197 
L 104.632413 182.32586 
L 105.352922 181.609063 
L 106.553771 180.022622 
L 107.75462 178.476614 
L 108.234959 178.108815 
L 108.715299 177.952768 
L 109.195638 178.002707 
L 110.156317 178.47626 
L 113.518694 180.293419 
L 115.199882 181.149135 
L 116.400731 181.67635 
L 118.802428 182.984789 
L 121.444295 183.917672 
L 123.605823 184.380341 
L 125.527181 184.528396 
L 128.889558 184.599229 
L 133.692952 184.607989 
L 133.692952 184.607989 
" clip-path="url(#p72b3c8cef6)" style="fill: none; stroke: #d8a25e; stroke-width: 1.5; stroke-linecap: square"/>
   </g>
   <g id="line2d_19">
    <path d="M 100.376833 184.607911 
L 104.733048 184.47672 
L 105.901788 184.361043 
L 106.539283 184.285298 
L 107.283027 183.908912 
L 107.601775 183.62899 
L 108.13302 182.583994 
L 108.451768 181.076668 
L 108.876764 177.531956 
L 109.301761 172.112615 
L 110.151754 158.409375 
L 110.470502 155.808 
L 110.576751 155.960315 
L 110.789249 157.038447 
L 111.001747 159.228779 
L 112.489235 179.744413 
L 113.12673 183.057975 
L 113.445478 183.717766 
L 113.976723 184.331017 
L 115.782959 184.593209 
L 121.520413 184.607953 
L 121.520413 184.607953 
" clip-path="url(#p72b3c8cef6)" style="fill: none; stroke: #a04747; stroke-width: 1.5; stroke-linecap: square"/>
   </g>
   <g id="LineCollection_2">
    <path d="M 110.893616 184.608 
L 110.893616 157.392 
" clip-path="url(#p72b3c8cef6)" style="fill: none; stroke: #000000; stroke-width: 1.5"/>
   </g>
   <g id="patch_14">
    <path d="M 92.72887 184.608 
L 135.651947 184.608 
" style="fill: none; stroke: #000000; stroke-width: 1.5; stroke-linejoin: miter; stroke-linecap: square"/>
   </g>
   <g id="text_21">
    <text style="font: 9px 'Arial', sans-serif; text-anchor: middle" x="146.382716" y="148.368" transform="rotate(-0 146.382716 148.368)">posterior</text>
   </g>
  </g>
  <g id="axes_5">
   <g id="patch_15">
    <path d="M 152.821178 184.608 
L 195.744255 184.608 
L 195.744255 154.368 
L 152.821178 154.368 
L 152.821178 184.608 
z
" style="fill: none"/>
   </g>
   <g id="matplotlib.axis_9">
    <g id="xtick_7">
     <g id="line2d_20">
      <g>
       <use xlink:href="#m9f0b067c81" x="152.821178" y="184.608" style="stroke: #000000; stroke-width: 1.5"/>
      </g>
     </g>
     <g id="text_22">
      <text style="font: 9px 'Arial', sans-serif; text-anchor: middle" x="152.821178" y="198.446594" transform="rotate(-0 152.821178 198.446594)">3</text>
     </g>
    </g>
    <g id="xtick_8">
     <g id="line2d_21">
      <g>
       <use xlink:href="#m9f0b067c81" x="195.744255" y="184.608" style="stroke: #000000; stroke-width: 1.5"/>
      </g>
     </g>
     <g id="text_23">
      <text style="font: 9px 'Arial', sans-serif; text-anchor: middle" x="195.744255" y="198.446594" transform="rotate(-0 195.744255 198.446594)">3</text>
     </g>
    </g>
    <g id="text_24">
     <!-- $\theta_2$ -->
     <g transform="translate(169.332716 202.156906)">
      <text>
       <tspan style="font: 9px 'DejaVu Sans'" x="0" y="-0.09375"></tspan>
       <tspan style="font: 6.3px 'DejaVu Sans'" x="5.59248" y="1.3828125">2</tspan>
      </text>
     </g>
    </g>
   </g>
   <g id="matplotlib.axis_10"/>
   <g id="line2d_22">
    <path d="M 147.882641 184.607995 
L 161.909978 184.505172 
L 165.276539 184.268878 
L 168.082006 183.931696 
L 172.00966 183.185786 
L 174.534581 182.607387 
L 176.217861 182.327442 
L 178.462235 182.13861 
L 179.864969 182.286057 
L 181.548249 182.637392 
L 185.75645 183.773784 
L 187.720277 184.107842 
L 192.209025 184.505544 
L 196.978319 184.594798 
L 203.711441 184.607995 
L 203.711441 184.607995 
" clip-path="url(#pa3806ef88a)" style="fill: none; stroke: #eedf7a; stroke-width: 1.5; stroke-linecap: square"/>
   </g>
   <g id="line2d_23">
    <path d="M 145.242137 184.607996 
L 160.777711 184.506324 
L 166.484656 184.144254 
L 171.874549 183.572608 
L 174.093917 182.954442 
L 176.94739 182.112609 
L 178.532652 181.906117 
L 179.800863 181.990064 
L 180.75202 182.263128 
L 184.239598 183.54061 
L 185.824861 183.895411 
L 188.361281 184.147513 
L 195.970542 184.522248 
L 202.311592 184.605001 
L 208.33559 184.607996 
L 208.33559 184.607996 
" clip-path="url(#pa3806ef88a)" style="fill: none; stroke: #d8a25e; stroke-width: 1.5; stroke-linecap: square"/>
   </g>
   <g id="line2d_24">
    <path d="M 180.039095 184.607954 
L 180.851291 184.527431 
L 181.031779 184.233514 
L 181.212267 183.628275 
L 181.392755 182.00239 
L 181.663487 176.427335 
L 182.385439 155.808 
L 182.475683 156.235929 
L 182.836659 166.118101 
L 183.287879 178.151198 
L 183.648855 182.612678 
L 184.009831 183.886856 
L 184.370807 184.373947 
L 184.731783 184.460982 
L 185.995199 184.589774 
L 188.612275 184.603932 
L 195.561064 184.605819 
L 197.365944 184.608 
L 197.997652 184.607954 
L 197.997652 184.607954 
" clip-path="url(#pa3806ef88a)" style="fill: none; stroke: #a04747; stroke-width: 1.5; stroke-linecap: square"/>
   </g>
   <g id="LineCollection_3">
    <path d="M 183.031664 184.608 
L 183.031664 157.392 
" clip-path="url(#pa3806ef88a)" style="fill: none; stroke: #000000; stroke-width: 1.5"/>
   </g>
   <g id="patch_16">
    <path d="M 152.821178 184.608 
L 195.744255 184.608 
" style="fill: none; stroke: #000000; stroke-width: 1.5; stroke-linejoin: miter; stroke-linecap: square"/>
   </g>
  </g>
  <g id="axes_6">
   <g id="patch_17">
    <path d="M 212.913486 184.608 
L 255.836562 184.608 
L 255.836562 154.368 
L 212.913486 154.368 
L 212.913486 184.608 
z
" style="fill: none"/>
   </g>
   <g id="matplotlib.axis_11">
    <g id="xtick_9">
     <g id="line2d_25">
      <g>
       <use xlink:href="#m9f0b067c81" x="212.913486" y="184.608" style="stroke: #000000; stroke-width: 1.5"/>
      </g>
     </g>
     <g id="text_25">
      <text style="font: 9px 'Arial', sans-serif; text-anchor: middle" x="212.913486" y="198.446594" transform="rotate(-0 212.913486 198.446594)">3</text>
     </g>
    </g>
    <g id="xtick_10">
     <g id="line2d_26">
      <g>
       <use xlink:href="#m9f0b067c81" x="255.836562" y="184.608" style="stroke: #000000; stroke-width: 1.5"/>
      </g>
     </g>
     <g id="text_26">
      <text style="font: 9px 'Arial', sans-serif; text-anchor: middle" x="255.836562" y="198.446594" transform="rotate(-0 255.836562 198.446594)">3</text>
     </g>
    </g>
    <g id="text_27">
     <!-- $\theta_3$ -->
     <g transform="translate(229.425024 202.156906)">
      <text>
       <tspan style="font: 9px 'DejaVu Sans'" x="0" y="-0.09375"></tspan>
       <tspan style="font: 6.3px 'DejaVu Sans'" x="5.59248" y="1.3828125">3</tspan>
      </text>
     </g>
    </g>
   </g>
   <g id="matplotlib.axis_12"/>
   <g id="line2d_27">
    <path d="M 201.694473 184.607991 
L 215.529933 184.502209 
L 218.838412 184.200639 
L 221.244579 183.697125 
L 223.951517 182.841248 
L 228.46308 181.042335 
L 229.966934 180.696391 
L 231.470788 180.498701 
L 232.974643 180.522354 
L 234.779268 180.953109 
L 235.982351 181.396741 
L 237.786976 182.379025 
L 239.591602 183.219502 
L 241.095456 183.73394 
L 242.900081 184.099391 
L 245.306248 184.408513 
L 248.614727 184.554166 
L 254.630145 184.607205 
L 261.547874 184.607992 
L 261.547874 184.607992 
" clip-path="url(#p399cb6f325)" style="fill: none; stroke: #eedf7a; stroke-width: 1.5; stroke-linecap: square"/>
   </g>
   <g id="line2d_28">
    <path d="M 212.177821 184.607984 
L 218.671085 184.496437 
L 222.490651 184.045898 
L 224.97337 183.300229 
L 226.883153 182.317028 
L 228.029023 181.397472 
L 229.747828 179.767045 
L 231.848589 177.797617 
L 232.421524 177.572887 
L 233.567394 177.303563 
L 233.949351 177.518028 
L 234.522286 178.278852 
L 235.477178 180.155645 
L 236.623048 182.392478 
L 237.386961 183.414249 
L 238.150874 184.004966 
L 238.914788 184.293871 
L 240.251636 184.506731 
L 241.970441 184.576379 
L 246.171964 184.605174 
L 250.182509 184.607987 
L 250.182509 184.607987 
" clip-path="url(#p399cb6f325)" style="fill: none; stroke: #d8a25e; stroke-width: 1.5; stroke-linecap: square"/>
   </g>
   <g id="line2d_29">
    <path d="M 228.880029 184.607939 
L 230.442577 184.499877 
L 230.963427 184.168914 
L 231.335462 183.442946 
L 231.63309 182.172107 
L 231.930718 179.624443 
L 232.302754 174.58977 
L 232.823603 163.746651 
L 233.270046 155.901089 
L 233.41886 155.831719 
L 233.567674 155.919643 
L 233.716488 157.079896 
L 234.16293 164.773378 
L 234.832594 177.672174 
L 235.279037 181.982157 
L 235.576665 183.25306 
L 236.023107 184.1017 
L 236.320735 184.337501 
L 236.692771 184.466821 
L 237.957691 184.570307 
L 241.975673 184.608 
L 243.687035 184.607947 
L 243.687035 184.607947 
" clip-path="url(#p399cb6f325)" style="fill: none; stroke: #a04747; stroke-width: 1.5; stroke-linecap: square"/>
   </g>
   <g id="LineCollection_4">
    <path d="M 233.866964 184.608 
L 233.866964 157.392 
" clip-path="url(#p399cb6f325)" style="fill: none; stroke: #000000; stroke-width: 1.5"/>
   </g>
   <g id="patch_18">
    <path d="M 212.913486 184.608 
L 255.836562 184.608 
" style="fill: none; stroke: #000000; stroke-width: 1.5; stroke-linejoin: miter; stroke-linecap: square"/>
   </g>
  </g>
  <g id="text_28">
   <text style="font: 9px 'Arial', sans-serif; text-anchor: middle" x="140.636562" y="14.038594" transform="rotate(-0 140.636562 14.038594)">Lotka Volterra</text>
  </g>
 </g>
 <defs>
  <clipPath id="p9022131ceb">
   <rect x="32.636563" y="33.408" width="223.2" height="41.236364"/>
  </clipPath>
  <clipPath id="p8d8c5cd0ac">
   <rect x="32.636563" y="82.891636" width="223.2" height="41.236364"/>
  </clipPath>
  <clipPath id="pf0c062f874">
   <rect x="32.636563" y="154.368" width="42.923077" height="30.24"/>
  </clipPath>
  <clipPath id="p72b3c8cef6">
   <rect x="92.72887" y="154.368" width="42.923077" height="30.24"/>
  </clipPath>
  <clipPath id="pa3806ef88a">
   <rect x="152.821178" y="154.368" width="42.923077" height="30.24"/>
  </clipPath>
  <clipPath id="p399cb6f325">
   <rect x="212.913486" y="154.368" width="42.923077" height="30.24"/>
  </clipPath>
 </defs>
</svg>
