<?xml version="1.0" encoding="utf-8" standalone="no"?>
<!DOCTYPE svg PUBLIC "-//W3C//DTD SVG 1.1//EN"
  "http://www.w3.org/Graphics/SVG/1.1/DTD/svg11.dtd">
<svg xmlns:xlink="http://www.w3.org/1999/xlink" width="264.017812pt" height="132.89976pt" viewBox="0 0 264.017812 132.89976" xmlns="http://www.w3.org/2000/svg" version="1.1">
 <metadata>
  <rdf:RDF xmlns:dc="http://purl.org/dc/elements/1.1/" xmlns:cc="http://creativecommons.org/ns#" xmlns:rdf="http://www.w3.org/1999/02/22-rdf-syntax-ns#">
   <cc:Work>
    <dc:type rdf:resource="http://purl.org/dc/dcmitype/StillImage"/>
    <dc:date>2024-09-23T09:29:23.246433</dc:date>
    <dc:format>image/svg+xml</dc:format>
    <dc:creator>
     <cc:Agent>
      <dc:title>Matplotlib v3.9.2, https://matplotlib.org/</dc:title>
     </cc:Agent>
    </dc:creator>
   </cc:Work>
  </rdf:RDF>
 </metadata>
 <defs>
  <style type="text/css">*{stroke-linejoin: round; stroke-linecap: butt}</style>
 </defs>
 <g id="figure_1">
  <g id="patch_1">
   <path d="M 0 132.89976 
L 264.017812 132.89976 
L 264.017812 0 
L 0 0 
L 0 132.89976 
z
" style="fill: none"/>
  </g>
  <g id="axes_1">
   <g id="patch_2">
    <path d="M 52.097904 73.578895 
L 131.078045 73.578895 
L 131.078045 20.038594 
L 52.097904 20.038594 
L 52.097904 73.578895 
z
" style="fill: none"/>
   </g>
   <g id="matplotlib.axis_1">
    <g id="xtick_1">
     <g id="line2d_1">
      <defs>
       <path id="m728bd8cf69" d="M 0 0 
L 0 3.5 
" style="stroke: #000000; stroke-width: 1.5"/>
      </defs>
      <g>
       <use xlink:href="#m728bd8cf69" x="65.261261" y="73.578895" style="stroke: #000000; stroke-width: 1.5"/>
      </g>
     </g>
     <g id="text_1">
      <text style="font: 9px 'Arial', sans-serif; text-anchor: middle" x="65.261261" y="87.417489" transform="rotate(-0 65.261261 87.417489)">1</text>
     </g>
    </g>
    <g id="xtick_2">
     <g id="line2d_2">
      <g>
       <use xlink:href="#m728bd8cf69" x="91.587975" y="73.578895" style="stroke: #000000; stroke-width: 1.5"/>
      </g>
     </g>
     <g id="text_2">
      <text style="font: 9px 'Arial', sans-serif; text-anchor: middle" x="91.587975" y="87.417489" transform="rotate(-0 91.587975 87.417489)">10</text>
     </g>
    </g>
    <g id="xtick_3">
     <g id="line2d_3">
      <g>
       <use xlink:href="#m728bd8cf69" x="117.914688" y="73.578895" style="stroke: #000000; stroke-width: 1.5"/>
      </g>
     </g>
     <g id="text_3">
      <text style="font: 9px 'Arial', sans-serif; text-anchor: middle" x="117.914688" y="87.417489" transform="rotate(-0 117.914688 87.417489)">100</text>
     </g>
    </g>
    <g id="text_4">
     <text style="font: 9px 'Arial', sans-serif; text-anchor: middle" x="91.587975" y="100.127801" transform="rotate(-0 91.587975 100.127801)">Transitions</text>
    </g>
   </g>
   <g id="matplotlib.axis_2">
    <g id="ytick_1">
     <g id="line2d_4">
      <defs>
       <path id="m410313a04f" d="M 0 0 
L -3.5 0 
" style="stroke: #000000; stroke-width: 1.5"/>
      </defs>
      <g>
       <use xlink:href="#m410313a04f" x="52.097904" y="73.578895" style="stroke: #000000; stroke-width: 1.5"/>
      </g>
     </g>
     <g id="text_5">
      <text style="font: 9px 'Arial', sans-serif; text-anchor: end" x="45.097904" y="76.998192" transform="rotate(-0 45.097904 76.998192)">0.5</text>
     </g>
    </g>
    <g id="ytick_2">
     <g id="line2d_5">
      <g>
       <use xlink:href="#m410313a04f" x="52.097904" y="20.038594" style="stroke: #000000; stroke-width: 1.5"/>
      </g>
     </g>
     <g id="text_6">
      <text style="font: 9px 'Arial', sans-serif; text-anchor: end" x="45.097904" y="23.457891" transform="rotate(-0 45.097904 23.457891)">1.0</text>
     </g>
    </g>
    <g id="text_7">
     <text style="font: 9px 'Arial', sans-serif; text-anchor: middle" x="26.532143" y="46.808744" transform="rotate(-90 26.532143 46.808744)">SIR</text>
    </g>
   </g>
   <g id="line2d_6">
    <path d="M 65.261261 23.399854 
L 91.587975 25.433315 
L 117.914688 20.079284 
" clip-path="url(#pceb6094118)" style="fill: none; stroke: #060169; stroke-opacity: 0.7; stroke-width: 2; stroke-linecap: square"/>
    <defs>
     <path id="mc02fece106" d="M 0 0.5 
C 0.132602 0.5 0.25979 0.447317 0.353553 0.353553 
C 0.447317 0.25979 0.5 0.132602 0.5 0 
C 0.5 -0.132602 0.447317 -0.25979 0.353553 -0.353553 
C 0.25979 -0.447317 0.132602 -0.5 0 -0.5 
C -0.132602 -0.5 -0.25979 -0.447317 -0.353553 -0.353553 
C -0.447317 -0.25979 -0.5 -0.132602 -0.5 0 
C -0.5 0.132602 -0.447317 0.25979 -0.353553 0.353553 
C -0.25979 0.447317 -0.132602 0.5 0 0.5 
z
" style="stroke: #060169; stroke-opacity: 0.7; stroke-width: 1.5"/>
    </defs>
    <g clip-path="url(#pceb6094118)">
     <use xlink:href="#mc02fece106" x="65.261261" y="23.399854" style="fill: #060169; fill-opacity: 0.7; stroke: #060169; stroke-opacity: 0.7; stroke-width: 1.5"/>
     <use xlink:href="#mc02fece106" x="91.587975" y="25.433315" style="fill: #060169; fill-opacity: 0.7; stroke: #060169; stroke-opacity: 0.7; stroke-width: 1.5"/>
     <use xlink:href="#mc02fece106" x="117.914688" y="20.079284" style="fill: #060169; fill-opacity: 0.7; stroke: #060169; stroke-opacity: 0.7; stroke-width: 1.5"/>
    </g>
   </g>
   <g id="line2d_7">
    <path d="M 65.261261 25.416182 
L 65.261261 21.809707 
" clip-path="url(#pceb6094118)" style="fill: none; stroke: #060169; stroke-opacity: 0.7; stroke-width: 2; stroke-linecap: square"/>
   </g>
   <g id="line2d_8">
    <path d="M 91.587975 26.182879 
L 91.587975 24.797256 
" clip-path="url(#pceb6094118)" style="fill: none; stroke: #060169; stroke-opacity: 0.7; stroke-width: 2; stroke-linecap: square"/>
   </g>
   <g id="line2d_9">
    <path d="M 117.914688 20.095346 
L 117.914688 20.066435 
" clip-path="url(#pceb6094118)" style="fill: none; stroke: #060169; stroke-opacity: 0.7; stroke-width: 2; stroke-linecap: square"/>
   </g>
   <g id="line2d_10">
    <path d="M 65.261261 27.727576 
L 91.587975 24.795352 
L 117.914688 23.577608 
" clip-path="url(#pceb6094118)" style="fill: none; stroke: #1e81b0; stroke-opacity: 0.7; stroke-width: 2; stroke-linecap: square"/>
    <defs>
     <path id="m4ae5300173" d="M 0 0.5 
C 0.132602 0.5 0.25979 0.447317 0.353553 0.353553 
C 0.447317 0.25979 0.5 0.132602 0.5 0 
C 0.5 -0.132602 0.447317 -0.25979 0.353553 -0.353553 
C 0.25979 -0.447317 0.132602 -0.5 0 -0.5 
C -0.132602 -0.5 -0.25979 -0.447317 -0.353553 -0.353553 
C -0.447317 -0.25979 -0.5 -0.132602 -0.5 0 
C -0.5 0.132602 -0.447317 0.25979 -0.353553 0.353553 
C -0.25979 0.447317 -0.132602 0.5 0 0.5 
z
" style="stroke: #1e81b0; stroke-opacity: 0.7; stroke-width: 1.5"/>
    </defs>
    <g clip-path="url(#pceb6094118)">
     <use xlink:href="#m4ae5300173" x="65.261261" y="27.727576" style="fill: #1e81b0; fill-opacity: 0.7; stroke: #1e81b0; stroke-opacity: 0.7; stroke-width: 1.5"/>
     <use xlink:href="#m4ae5300173" x="91.587975" y="24.795352" style="fill: #1e81b0; fill-opacity: 0.7; stroke: #1e81b0; stroke-opacity: 0.7; stroke-width: 1.5"/>
     <use xlink:href="#m4ae5300173" x="117.914688" y="23.577608" style="fill: #1e81b0; fill-opacity: 0.7; stroke: #1e81b0; stroke-opacity: 0.7; stroke-width: 1.5"/>
    </g>
   </g>
   <g id="line2d_11">
    <path d="M 65.261261 29.607882 
L 65.261261 25.806728 
" clip-path="url(#pceb6094118)" style="fill: none; stroke: #1e81b0; stroke-opacity: 0.7; stroke-width: 2; stroke-linecap: square"/>
   </g>
   <g id="line2d_12">
    <path d="M 91.587975 25.711947 
L 91.587975 23.956985 
" clip-path="url(#pceb6094118)" style="fill: none; stroke: #1e81b0; stroke-opacity: 0.7; stroke-width: 2; stroke-linecap: square"/>
   </g>
   <g id="line2d_13">
    <path d="M 117.914688 24.953236 
L 117.914688 22.124286 
" clip-path="url(#pceb6094118)" style="fill: none; stroke: #1e81b0; stroke-opacity: 0.7; stroke-width: 2; stroke-linecap: square"/>
   </g>
   <g id="line2d_14">
    <path d="M 65.261261 40.429953 
L 91.587975 31.429828 
L 117.914688 27.608122 
" clip-path="url(#pceb6094118)" style="fill: none; stroke: #9bf2fa; stroke-opacity: 0.7; stroke-width: 2; stroke-linecap: square"/>
    <defs>
     <path id="m69910fa7ce" d="M 0 0.5 
C 0.132602 0.5 0.25979 0.447317 0.353553 0.353553 
C 0.447317 0.25979 0.5 0.132602 0.5 0 
C 0.5 -0.132602 0.447317 -0.25979 0.353553 -0.353553 
C 0.25979 -0.447317 0.132602 -0.5 0 -0.5 
C -0.132602 -0.5 -0.25979 -0.447317 -0.353553 -0.353553 
C -0.447317 -0.25979 -0.5 -0.132602 -0.5 0 
C -0.5 0.132602 -0.447317 0.25979 -0.353553 0.353553 
C -0.25979 0.447317 -0.132602 0.5 0 0.5 
z
" style="stroke: #9bf2fa; stroke-opacity: 0.7; stroke-width: 1.5"/>
    </defs>
    <g clip-path="url(#pceb6094118)">
     <use xlink:href="#m69910fa7ce" x="65.261261" y="40.429953" style="fill: #9bf2fa; fill-opacity: 0.7; stroke: #9bf2fa; stroke-opacity: 0.7; stroke-width: 1.5"/>
     <use xlink:href="#m69910fa7ce" x="91.587975" y="31.429828" style="fill: #9bf2fa; fill-opacity: 0.7; stroke: #9bf2fa; stroke-opacity: 0.7; stroke-width: 1.5"/>
     <use xlink:href="#m69910fa7ce" x="117.914688" y="27.608122" style="fill: #9bf2fa; fill-opacity: 0.7; stroke: #9bf2fa; stroke-opacity: 0.7; stroke-width: 1.5"/>
    </g>
   </g>
   <g id="line2d_15">
    <path d="M 65.261261 41.704225 
L 65.261261 39.028268 
" clip-path="url(#pceb6094118)" style="fill: none; stroke: #9bf2fa; stroke-opacity: 0.7; stroke-width: 2; stroke-linecap: square"/>
   </g>
   <g id="line2d_16">
    <path d="M 91.587975 33.055151 
L 91.587975 29.952076 
" clip-path="url(#pceb6094118)" style="fill: none; stroke: #9bf2fa; stroke-opacity: 0.7; stroke-width: 2; stroke-linecap: square"/>
   </g>
   <g id="line2d_17">
    <path d="M 117.914688 29.058796 
L 117.914688 26.101109 
" clip-path="url(#pceb6094118)" style="fill: none; stroke: #9bf2fa; stroke-opacity: 0.7; stroke-width: 2; stroke-linecap: square"/>
   </g>
   <g id="line2d_18">
    <path d="M 65.261261 56.171337 
L 91.587975 43.065742 
L 117.914688 48.387112 
" clip-path="url(#pceb6094118)" style="fill: none; stroke: #f2a900; stroke-opacity: 0.7; stroke-width: 2; stroke-linecap: square"/>
    <defs>
     <path id="me7cd8d524f" d="M 0 0.5 
C 0.132602 0.5 0.25979 0.447317 0.353553 0.353553 
C 0.447317 0.25979 0.5 0.132602 0.5 0 
C 0.5 -0.132602 0.447317 -0.25979 0.353553 -0.353553 
C 0.25979 -0.447317 0.132602 -0.5 0 -0.5 
C -0.132602 -0.5 -0.25979 -0.447317 -0.353553 -0.353553 
C -0.447317 -0.25979 -0.5 -0.132602 -0.5 0 
C -0.5 0.132602 -0.447317 0.25979 -0.353553 0.353553 
C -0.25979 0.447317 -0.132602 0.5 0 0.5 
z
" style="stroke: #f2a900; stroke-opacity: 0.7; stroke-width: 1.5"/>
    </defs>
    <g clip-path="url(#pceb6094118)">
     <use xlink:href="#me7cd8d524f" x="65.261261" y="56.171337" style="fill: #f2a900; fill-opacity: 0.7; stroke: #f2a900; stroke-opacity: 0.7; stroke-width: 1.5"/>
     <use xlink:href="#me7cd8d524f" x="91.587975" y="43.065742" style="fill: #f2a900; fill-opacity: 0.7; stroke: #f2a900; stroke-opacity: 0.7; stroke-width: 1.5"/>
     <use xlink:href="#me7cd8d524f" x="117.914688" y="48.387112" style="fill: #f2a900; fill-opacity: 0.7; stroke: #f2a900; stroke-opacity: 0.7; stroke-width: 1.5"/>
    </g>
   </g>
   <g id="line2d_19">
    <path d="M 65.261261 57.71042 
L 65.261261 54.360979 
" clip-path="url(#pceb6094118)" style="fill: none; stroke: #f2a900; stroke-opacity: 0.7; stroke-width: 2; stroke-linecap: square"/>
   </g>
   <g id="line2d_20">
    <path d="M 91.587975 44.781374 
L 91.587975 41.185313 
" clip-path="url(#pceb6094118)" style="fill: none; stroke: #f2a900; stroke-opacity: 0.7; stroke-width: 2; stroke-linecap: square"/>
   </g>
   <g id="line2d_21">
    <path d="M 117.914688 50.577687 
L 117.914688 46.078361 
" clip-path="url(#pceb6094118)" style="fill: none; stroke: #f2a900; stroke-opacity: 0.7; stroke-width: 2; stroke-linecap: square"/>
   </g>
   <g id="line2d_22"/>
   <g id="line2d_23"/>
   <g id="line2d_24"/>
   <g id="line2d_25"/>
   <g id="patch_3">
    <path d="M 52.097904 73.578895 
L 52.097904 20.038594 
" style="fill: none; stroke: #000000; stroke-width: 1.5; stroke-linejoin: miter; stroke-linecap: square"/>
   </g>
   <g id="patch_4">
    <path d="M 52.097904 73.578895 
L 131.078045 73.578895 
" style="fill: none; stroke: #000000; stroke-width: 1.5; stroke-linejoin: miter; stroke-linecap: square"/>
   </g>
   <g id="text_8">
    <text style="font: 9px 'Arial', sans-serif; text-anchor: middle" x="91.587975" y="14.038594" transform="rotate(-0 91.587975 14.038594)">C2ST</text>
   </g>
  </g>
  <g id="axes_2">
   <g id="patch_5">
    <path d="M 165.228525 73.578895 
L 244.208666 73.578895 
L 244.208666 20.038594 
L 165.228525 20.038594 
L 165.228525 73.578895 
z
" style="fill: none"/>
   </g>
   <g id="matplotlib.axis_3">
    <g id="xtick_4">
     <g id="line2d_26">
      <g>
       <use xlink:href="#m728bd8cf69" x="178.391882" y="73.578895" style="stroke: #000000; stroke-width: 1.5"/>
      </g>
     </g>
     <g id="text_9">
      <text style="font: 9px 'Arial', sans-serif; text-anchor: middle" x="178.391882" y="87.417489" transform="rotate(-0 178.391882 87.417489)">1</text>
     </g>
    </g>
    <g id="xtick_5">
     <g id="line2d_27">
      <g>
       <use xlink:href="#m728bd8cf69" x="204.718596" y="73.578895" style="stroke: #000000; stroke-width: 1.5"/>
      </g>
     </g>
     <g id="text_10">
      <text style="font: 9px 'Arial', sans-serif; text-anchor: middle" x="204.718596" y="87.417489" transform="rotate(-0 204.718596 87.417489)">10</text>
     </g>
    </g>
    <g id="xtick_6">
     <g id="line2d_28">
      <g>
       <use xlink:href="#m728bd8cf69" x="231.045309" y="73.578895" style="stroke: #000000; stroke-width: 1.5"/>
      </g>
     </g>
     <g id="text_11">
      <text style="font: 9px 'Arial', sans-serif; text-anchor: middle" x="231.045309" y="87.417489" transform="rotate(-0 231.045309 87.417489)">100</text>
     </g>
    </g>
    <g id="text_12">
     <text style="font: 9px 'Arial', sans-serif; text-anchor: middle" x="204.718596" y="100.127801" transform="rotate(-0 204.718596 100.127801)">Transitions</text>
    </g>
   </g>
   <g id="matplotlib.axis_4">
    <g id="ytick_3">
     <g id="line2d_29">
      <g>
       <use xlink:href="#m410313a04f" x="165.228525" y="64.208883" style="stroke: #000000; stroke-width: 1.5"/>
      </g>
     </g>
     <g id="text_13">
      <!-- $\mathdefault{10^{-1}}$ -->
      <g transform="translate(137.078525 67.62818)">
       <text>
        <tspan style="font: 9px 'DejaVu Sans'" x="0 5.726074" y="-0.9609375">10</tspan>
        <tspan style="font: 6.3px 'DejaVu Sans'" x="11.538281 16.816992" y="-4.40625">−1</tspan>
       </text>
      </g>
     </g>
    </g>
    <g id="ytick_4">
     <g id="line2d_30">
      <g>
       <use xlink:href="#m410313a04f" x="165.228525" y="20.038594" style="stroke: #000000; stroke-width: 1.5"/>
      </g>
     </g>
     <g id="text_14">
      <!-- $\mathdefault{10^{2}}$ -->
      <g transform="translate(142.388525 23.457891)">
       <text>
        <tspan style="font: 9px 'DejaVu Sans'" x="0 5.726074" y="-0.8734375000000014">10</tspan>
        <tspan style="font: 6.3px 'DejaVu Sans'" x="11.538281" y="-4.318750000000001">2</tspan>
       </text>
      </g>
     </g>
    </g>
   </g>
   <g id="line2d_31">
    <path d="M 178.391882 51.144343 
L 204.718596 61.007562 
L 231.045309 45.016981 
" clip-path="url(#p009dddda44)" style="fill: none; stroke: #060169; stroke-opacity: 0.7; stroke-width: 2; stroke-linecap: square"/>
    <g clip-path="url(#p009dddda44)">
     <use xlink:href="#mc02fece106" x="178.391882" y="51.144343" style="fill: #060169; fill-opacity: 0.7; stroke: #060169; stroke-opacity: 0.7; stroke-width: 1.5"/>
     <use xlink:href="#mc02fece106" x="204.718596" y="61.007562" style="fill: #060169; fill-opacity: 0.7; stroke: #060169; stroke-opacity: 0.7; stroke-width: 1.5"/>
     <use xlink:href="#mc02fece106" x="231.045309" y="45.016981" style="fill: #060169; fill-opacity: 0.7; stroke: #060169; stroke-opacity: 0.7; stroke-width: 1.5"/>
    </g>
   </g>
   <g id="line2d_32">
    <path d="M 178.391882 51.655377 
L 178.391882 50.587541 
" clip-path="url(#p009dddda44)" style="fill: none; stroke: #060169; stroke-opacity: 0.7; stroke-width: 2; stroke-linecap: square"/>
   </g>
   <g id="line2d_33">
    <path d="M 204.718596 62.974788 
L 204.718596 59.511795 
" clip-path="url(#p009dddda44)" style="fill: none; stroke: #060169; stroke-opacity: 0.7; stroke-width: 2; stroke-linecap: square"/>
   </g>
   <g id="line2d_34">
    <path d="M 231.045309 45.852041 
L 231.045309 44.193244 
" clip-path="url(#p009dddda44)" style="fill: none; stroke: #060169; stroke-opacity: 0.7; stroke-width: 2; stroke-linecap: square"/>
   </g>
   <g id="line2d_35">
    <path d="M 178.391882 54.959411 
L 204.718596 59.081175 
L 231.045309 52.777372 
" clip-path="url(#p009dddda44)" style="fill: none; stroke: #1e81b0; stroke-opacity: 0.7; stroke-width: 2; stroke-linecap: square"/>
    <g clip-path="url(#p009dddda44)">
     <use xlink:href="#m4ae5300173" x="178.391882" y="54.959411" style="fill: #1e81b0; fill-opacity: 0.7; stroke: #1e81b0; stroke-opacity: 0.7; stroke-width: 1.5"/>
     <use xlink:href="#m4ae5300173" x="204.718596" y="59.081175" style="fill: #1e81b0; fill-opacity: 0.7; stroke: #1e81b0; stroke-opacity: 0.7; stroke-width: 1.5"/>
     <use xlink:href="#m4ae5300173" x="231.045309" y="52.777372" style="fill: #1e81b0; fill-opacity: 0.7; stroke: #1e81b0; stroke-opacity: 0.7; stroke-width: 1.5"/>
    </g>
   </g>
   <g id="line2d_36">
    <path d="M 178.391882 56.07653 
L 178.391882 53.926138 
" clip-path="url(#p009dddda44)" style="fill: none; stroke: #1e81b0; stroke-opacity: 0.7; stroke-width: 2; stroke-linecap: square"/>
   </g>
   <g id="line2d_37">
    <path d="M 204.718596 61.286043 
L 204.718596 57.425514 
" clip-path="url(#p009dddda44)" style="fill: none; stroke: #1e81b0; stroke-opacity: 0.7; stroke-width: 2; stroke-linecap: square"/>
   </g>
   <g id="line2d_38">
    <path d="M 231.045309 56.231724 
L 231.045309 50.475017 
" clip-path="url(#p009dddda44)" style="fill: none; stroke: #1e81b0; stroke-opacity: 0.7; stroke-width: 2; stroke-linecap: square"/>
   </g>
   <g id="line2d_39">
    <path d="M 178.391882 61.404972 
L 204.718596 63.707763 
L 231.045309 62.905773 
" clip-path="url(#p009dddda44)" style="fill: none; stroke: #9bf2fa; stroke-opacity: 0.7; stroke-width: 2; stroke-linecap: square"/>
    <g clip-path="url(#p009dddda44)">
     <use xlink:href="#m69910fa7ce" x="178.391882" y="61.404972" style="fill: #9bf2fa; fill-opacity: 0.7; stroke: #9bf2fa; stroke-opacity: 0.7; stroke-width: 1.5"/>
     <use xlink:href="#m69910fa7ce" x="204.718596" y="63.707763" style="fill: #9bf2fa; fill-opacity: 0.7; stroke: #9bf2fa; stroke-opacity: 0.7; stroke-width: 1.5"/>
     <use xlink:href="#m69910fa7ce" x="231.045309" y="62.905773" style="fill: #9bf2fa; fill-opacity: 0.7; stroke: #9bf2fa; stroke-opacity: 0.7; stroke-width: 1.5"/>
    </g>
   </g>
   <g id="line2d_40">
    <path d="M 178.391882 62.448427 
L 178.391882 60.352626 
" clip-path="url(#p009dddda44)" style="fill: none; stroke: #9bf2fa; stroke-opacity: 0.7; stroke-width: 2; stroke-linecap: square"/>
   </g>
   <g id="line2d_41">
    <path d="M 204.718596 66.921245 
L 204.718596 61.578821 
" clip-path="url(#p009dddda44)" style="fill: none; stroke: #9bf2fa; stroke-opacity: 0.7; stroke-width: 2; stroke-linecap: square"/>
   </g>
   <g id="line2d_42">
    <path d="M 231.045309 66.645646 
L 231.045309 60.539336 
" clip-path="url(#p009dddda44)" style="fill: none; stroke: #9bf2fa; stroke-opacity: 0.7; stroke-width: 2; stroke-linecap: square"/>
   </g>
   <g id="line2d_43">
    <path d="M 178.391882 68.139918 
L 204.718596 67.841857 
L 231.045309 70.274933 
" clip-path="url(#p009dddda44)" style="fill: none; stroke: #f2a900; stroke-opacity: 0.7; stroke-width: 2; stroke-linecap: square"/>
    <g clip-path="url(#p009dddda44)">
     <use xlink:href="#me7cd8d524f" x="178.391882" y="68.139918" style="fill: #f2a900; fill-opacity: 0.7; stroke: #f2a900; stroke-opacity: 0.7; stroke-width: 1.5"/>
     <use xlink:href="#me7cd8d524f" x="204.718596" y="67.841857" style="fill: #f2a900; fill-opacity: 0.7; stroke: #f2a900; stroke-opacity: 0.7; stroke-width: 1.5"/>
     <use xlink:href="#me7cd8d524f" x="231.045309" y="70.274933" style="fill: #f2a900; fill-opacity: 0.7; stroke: #f2a900; stroke-opacity: 0.7; stroke-width: 1.5"/>
    </g>
   </g>
   <g id="line2d_44">
    <path d="M 178.391882 70.43254 
L 178.391882 66.473655 
" clip-path="url(#p009dddda44)" style="fill: none; stroke: #f2a900; stroke-opacity: 0.7; stroke-width: 2; stroke-linecap: square"/>
   </g>
   <g id="line2d_45">
    <path d="M 204.718596 71.31132 
L 204.718596 65.544383 
" clip-path="url(#p009dddda44)" style="fill: none; stroke: #f2a900; stroke-opacity: 0.7; stroke-width: 2; stroke-linecap: square"/>
   </g>
   <g id="line2d_46">
    <path d="M 231.045309 72.179578 
L 231.045309 68.748989 
" clip-path="url(#p009dddda44)" style="fill: none; stroke: #f2a900; stroke-opacity: 0.7; stroke-width: 2; stroke-linecap: square"/>
   </g>
   <g id="line2d_47"/>
   <g id="line2d_48"/>
   <g id="line2d_49"/>
   <g id="line2d_50"/>
   <g id="patch_6">
    <path d="M 165.228525 73.578895 
L 165.228525 20.038594 
" style="fill: none; stroke: #000000; stroke-width: 1.5; stroke-linejoin: miter; stroke-linecap: square"/>
   </g>
   <g id="patch_7">
    <path d="M 165.228525 73.578895 
L 244.208666 73.578895 
" style="fill: none; stroke: #000000; stroke-width: 1.5; stroke-linejoin: miter; stroke-linecap: square"/>
   </g>
   <g id="text_15">
    <!-- s$W_1$ -->
    <g transform="translate(195.718596 14.038594)">
     <text>
      <tspan style="font: 9px 'DejaVu Sans'" x="0 4.688965" y="-0.4375">sW</tspan>
      <tspan style="font: 6.3px 'DejaVu Sans'" x="13.674023" y="1.0390625">1</tspan>
     </text>
    </g>
   </g>
  </g>
  <g id="legend_1">
   <g id="line2d_51">
    <path d="M 10.8 117.078041 
L 19.8 117.078041 
L 28.8 117.078041 
" style="fill: none; stroke: #060169; stroke-opacity: 0.7; stroke-width: 2; stroke-linecap: square"/>
    <g>
     <use xlink:href="#mc02fece106" x="19.8" y="117.078041" style="fill: #060169; fill-opacity: 0.7; stroke: #060169; stroke-opacity: 0.7; stroke-width: 1.5"/>
    </g>
   </g>
   <g id="text_16">
    <text style="font: 9px 'Arial', sans-serif; text-anchor: start" x="36" y="120.228041" transform="rotate(-0 36 120.228041)">NPE</text>
   </g>
   <g id="line2d_52">
    <path d="M 71.846719 117.078041 
L 80.846719 117.078041 
L 89.846719 117.078041 
" style="fill: none; stroke: #1e81b0; stroke-opacity: 0.7; stroke-width: 2; stroke-linecap: square"/>
    <g>
     <use xlink:href="#m4ae5300173" x="80.846719" y="117.078041" style="fill: #1e81b0; fill-opacity: 0.7; stroke: #1e81b0; stroke-opacity: 0.7; stroke-width: 1.5"/>
    </g>
   </g>
   <g id="text_17">
    <text style="font: 9px 'Arial', sans-serif; text-anchor: start" x="97.046719" y="120.228041" transform="rotate(-0 97.046719 120.228041)">FNLE</text>
   </g>
   <g id="line2d_53">
    <path d="M 137.657812 117.078041 
L 146.657812 117.078041 
L 155.657812 117.078041 
" style="fill: none; stroke: #9bf2fa; stroke-opacity: 0.7; stroke-width: 2; stroke-linecap: square"/>
    <g>
     <use xlink:href="#m69910fa7ce" x="146.657812" y="117.078041" style="fill: #9bf2fa; fill-opacity: 0.7; stroke: #9bf2fa; stroke-opacity: 0.7; stroke-width: 1.5"/>
    </g>
   </g>
   <g id="text_18">
    <text style="font: 9px 'Arial', sans-serif; text-anchor: start" x="162.857812" y="120.228041" transform="rotate(-0 162.857812 120.228041)">FNRE</text>
   </g>
   <g id="line2d_54">
    <path d="M 204.707812 117.078041 
L 213.707812 117.078041 
L 222.707812 117.078041 
" style="fill: none; stroke: #f2a900; stroke-opacity: 0.7; stroke-width: 2; stroke-linecap: square"/>
    <g>
     <use xlink:href="#me7cd8d524f" x="213.707812" y="117.078041" style="fill: #f2a900; fill-opacity: 0.7; stroke: #f2a900; stroke-opacity: 0.7; stroke-width: 1.5"/>
    </g>
   </g>
   <g id="text_19">
    <text style="font: 9px 'Arial', sans-serif; text-anchor: start" x="229.907812" y="120.228041" transform="rotate(-0 229.907812 120.228041)">FNSE</text>
   </g>
  </g>
 </g>
 <defs>
  <clipPath id="pceb6094118">
   <rect x="52.097904" y="20.038594" width="78.980141" height="53.540301"/>
  </clipPath>
  <clipPath id="p009dddda44">
   <rect x="165.228525" y="20.038594" width="78.980141" height="53.540301"/>
  </clipPath>
 </defs>
</svg>
