<?xml version="1.0" encoding="utf-8" standalone="no"?>
<!DOCTYPE svg PUBLIC "-//W3C//DTD SVG 1.1//EN"
  "http://www.w3.org/Graphics/SVG/1.1/DTD/svg11.dtd">
<svg xmlns:xlink="http://www.w3.org/1999/xlink" width="419.904261pt" height="166.540625pt" viewBox="0 0 419.904261 166.540625" xmlns="http://www.w3.org/2000/svg" version="1.1">
 <metadata>
  <rdf:RDF xmlns:dc="http://purl.org/dc/elements/1.1/" xmlns:cc="http://creativecommons.org/ns#" xmlns:rdf="http://www.w3.org/1999/02/22-rdf-syntax-ns#">
   <cc:Work>
    <dc:type rdf:resource="http://purl.org/dc/dcmitype/StillImage"/>
    <dc:date>2024-09-30T12:35:28.308014</dc:date>
    <dc:format>image/svg+xml</dc:format>
    <dc:creator>
     <cc:Agent>
      <dc:title>Matplotlib v3.9.2, https://matplotlib.org/</dc:title>
     </cc:Agent>
    </dc:creator>
   </cc:Work>
  </rdf:RDF>
 </metadata>
 <defs>
  <style type="text/css">*{stroke-linejoin: round; stroke-linecap: butt}</style>
 </defs>
 <g id="figure_1">
  <g id="patch_1">
   <path d="M 0 166.540625 
L 419.904261 166.540625 
L 419.904261 0 
L 0 0 
z
" style="fill: #ffffff"/>
  </g>
  <g id="axes_1">
   <g id="patch_2">
    <path d="M 41.223125 130.92 
L 168.041307 130.92 
L 168.041307 20.04 
L 41.223125 20.04 
z
" style="fill: #ffffff"/>
   </g>
   <g id="PolyCollection_1">
    <defs>
     <path id="m30cbf1b3da" d="M 46.987588 -46.708625 
L 46.987588 -40.660625 
L 49.316664 -40.660625 
L 51.64574 -41.668625 
L 53.974815 -42.676625 
L 56.303891 -43.684625 
L 58.632967 -44.692625 
L 60.962043 -46.708625 
L 63.291119 -47.716625 
L 65.620195 -49.732625 
L 67.949271 -50.740625 
L 70.278347 -52.756625 
L 72.607423 -54.772625 
L 74.936498 -55.780625 
L 77.265574 -57.796625 
L 79.59465 -59.812625 
L 81.923726 -60.820625 
L 84.252802 -62.836625 
L 86.581878 -64.852625 
L 88.910954 -66.868625 
L 91.24003 -68.884625 
L 93.569105 -70.900625 
L 95.898181 -71.908625 
L 98.227257 -73.924625 
L 100.556333 -75.940625 
L 102.885409 -77.956625 
L 105.214485 -79.972625 
L 107.543561 -81.988625 
L 109.872637 -84.004625 
L 112.201713 -86.020625 
L 114.530788 -88.036625 
L 116.859864 -90.052625 
L 119.18894 -92.068625 
L 121.518016 -95.092625 
L 123.847092 -97.108625 
L 126.176168 -99.124625 
L 128.505244 -101.140625 
L 130.83432 -103.156625 
L 133.163395 -106.180625 
L 135.492471 -108.196625 
L 137.821547 -110.212625 
L 140.150623 -113.236625 
L 142.479699 -115.252625 
L 144.808775 -117.268625 
L 147.137851 -120.292625 
L 149.466927 -123.316625 
L 151.796003 -125.332625 
L 154.125078 -128.356625 
L 156.454154 -131.380625 
L 158.78323 -135.412625 
L 161.112306 -141.460625 
L 161.112306 -141.460625 
L 161.112306 -141.460625 
L 158.78323 -141.460625 
L 156.454154 -141.460625 
L 154.125078 -140.452625 
L 151.796003 -139.444625 
L 149.466927 -138.436625 
L 147.137851 -137.428625 
L 144.808775 -135.412625 
L 142.479699 -134.404625 
L 140.150623 -132.388625 
L 137.821547 -131.380625 
L 135.492471 -129.364625 
L 133.163395 -127.348625 
L 130.83432 -126.340625 
L 128.505244 -124.324625 
L 126.176168 -122.308625 
L 123.847092 -121.300625 
L 121.518016 -119.284625 
L 119.18894 -117.268625 
L 116.859864 -115.252625 
L 114.530788 -113.236625 
L 112.201713 -111.220625 
L 109.872637 -110.212625 
L 107.543561 -108.196625 
L 105.214485 -106.180625 
L 102.885409 -104.164625 
L 100.556333 -102.148625 
L 98.227257 -100.132625 
L 95.898181 -98.116625 
L 93.569105 -96.100625 
L 91.24003 -94.084625 
L 88.910954 -92.068625 
L 86.581878 -90.052625 
L 84.252802 -87.028625 
L 81.923726 -85.012625 
L 79.59465 -82.996625 
L 77.265574 -80.980625 
L 74.936498 -78.964625 
L 72.607423 -75.940625 
L 70.278347 -73.924625 
L 67.949271 -71.908625 
L 65.620195 -68.884625 
L 63.291119 -66.868625 
L 60.962043 -64.852625 
L 58.632967 -61.828625 
L 56.303891 -58.804625 
L 53.974815 -56.788625 
L 51.64574 -53.764625 
L 49.316664 -50.740625 
L 46.987588 -46.708625 
z
" style="stroke: #808080; stroke-opacity: 0.2"/>
    </defs>
    <g clip-path="url(#p98b9fc8848)">
     <use xlink:href="#m30cbf1b3da" x="0" y="166.540625" style="fill: #808080; fill-opacity: 0.2; stroke: #808080; stroke-opacity: 0.2"/>
    </g>
   </g>
   <g id="matplotlib.axis_1">
    <g id="xtick_1">
     <g id="line2d_1">
      <defs>
       <path id="mcc9109ceed" d="M 0 0 
L 0 3.5 
" style="stroke: #000000; stroke-width: 1.5"/>
      </defs>
      <g>
       <use xlink:href="#mcc9109ceed" x="46.987588" y="130.92" style="stroke: #000000; stroke-width: 1.5"/>
      </g>
     </g>
     <g id="text_1">
      <text style="font: 9px 'Arial', sans-serif; text-anchor: middle" x="46.987588" y="144.758594" transform="rotate(-0 46.987588 144.758594)">0</text>
     </g>
    </g>
    <g id="xtick_2">
     <g id="line2d_2">
      <g>
       <use xlink:href="#mcc9109ceed" x="105.214485" y="130.92" style="stroke: #000000; stroke-width: 1.5"/>
      </g>
     </g>
     <g id="text_2">
      <text style="font: 9px 'Arial', sans-serif; text-anchor: middle" x="105.214485" y="144.758594" transform="rotate(-0 105.214485 144.758594)">500</text>
     </g>
    </g>
    <g id="xtick_3">
     <g id="line2d_3">
      <g>
       <use xlink:href="#mcc9109ceed" x="163.441382" y="130.92" style="stroke: #000000; stroke-width: 1.5"/>
      </g>
     </g>
     <g id="text_3">
      <text style="font: 9px 'Arial', sans-serif; text-anchor: middle" x="163.441382" y="144.758594" transform="rotate(-0 163.441382 144.758594)">1000</text>
     </g>
    </g>
    <g id="text_4">
     <text style="font: 9px 'Arial', sans-serif; text-anchor: middle" x="104.632216" y="157.468906" transform="rotate(-0 104.632216 157.468906)">posterior rank</text>
    </g>
   </g>
   <g id="matplotlib.axis_2">
    <g id="ytick_1">
     <g id="line2d_4">
      <defs>
       <path id="mb11e05f540" d="M 0 0 
L -3.5 0 
" style="stroke: #000000; stroke-width: 1.5"/>
      </defs>
      <g>
       <use xlink:href="#mb11e05f540" x="41.223125" y="125.88" style="stroke: #000000; stroke-width: 1.5"/>
      </g>
     </g>
     <g id="text_5">
      <text style="font: 9px 'Arial', sans-serif; text-anchor: end" x="34.223125" y="129.299297" transform="rotate(-0 34.223125 129.299297)">0.0</text>
     </g>
    </g>
    <g id="ytick_2">
     <g id="line2d_5">
      <g>
       <use xlink:href="#mb11e05f540" x="41.223125" y="75.48" style="stroke: #000000; stroke-width: 1.5"/>
      </g>
     </g>
     <g id="text_6">
      <text style="font: 9px 'Arial', sans-serif; text-anchor: end" x="34.223125" y="78.899297" transform="rotate(-0 34.223125 78.899297)">0.5</text>
     </g>
    </g>
    <g id="ytick_3">
     <g id="line2d_6">
      <g>
       <use xlink:href="#mb11e05f540" x="41.223125" y="25.08" style="stroke: #000000; stroke-width: 1.5"/>
      </g>
     </g>
     <g id="text_7">
      <text style="font: 9px 'Arial', sans-serif; text-anchor: end" x="34.223125" y="28.499297" transform="rotate(-0 34.223125 28.499297)">1.0</text>
     </g>
    </g>
    <g id="text_8">
     <text style="font: 9px 'Arial', sans-serif; text-anchor: middle" x="14.038594" y="75.48" transform="rotate(-90 14.038594 75.48)">empirical CDF</text>
    </g>
   </g>
   <g id="line2d_7">
    <path d="M 50.563884 124.368 
L 50.563884 124.368 
L 52.825417 124.368 
L 52.825417 123.864 
L 55.086949 123.864 
L 55.086949 123.864 
L 57.348482 123.864 
L 57.348482 122.352 
L 59.610015 122.352 
L 59.610015 121.848 
L 61.871547 121.848 
L 61.871547 121.848 
L 64.13308 121.848 
L 64.13308 120.84 
L 66.394613 120.84 
L 66.394613 119.832 
L 68.656145 119.832 
L 68.656145 119.328 
L 70.917678 119.328 
L 70.917678 118.32 
L 73.179211 118.32 
L 73.179211 116.808 
L 75.440743 116.808 
L 75.440743 114.288 
L 77.702276 114.288 
L 77.702276 111.264 
L 79.963809 111.264 
L 79.963809 108.744 
L 82.225341 108.744 
L 82.225341 106.224 
L 84.486874 106.224 
L 84.486874 103.704 
L 86.748407 103.704 
L 86.748407 101.184 
L 89.009939 101.184 
L 89.009939 96.144 
L 91.271472 96.144 
L 91.271472 90.096 
L 93.533005 90.096 
L 93.533005 88.584 
L 95.794537 88.584 
L 95.794537 85.56 
L 98.05607 85.56 
L 98.05607 82.536 
L 100.317603 82.536 
L 100.317603 75.48 
L 102.579136 75.48 
L 102.579136 71.952 
L 104.840668 71.952 
L 104.840668 66.408 
L 107.102201 66.408 
L 107.102201 61.872 
L 109.363734 61.872 
L 109.363734 56.832 
L 111.625266 56.832 
L 111.625266 54.816 
L 113.886799 54.816 
L 113.886799 52.296 
L 116.148332 52.296 
L 116.148332 48.264 
L 118.409864 48.264 
L 118.409864 46.752 
L 120.671397 46.752 
L 120.671397 45.24 
L 122.93293 45.24 
L 122.93293 43.728 
L 125.194462 43.728 
L 125.194462 41.712 
L 127.455995 41.712 
L 127.455995 40.704 
L 129.717528 40.704 
L 129.717528 38.184 
L 131.97906 38.184 
L 131.97906 37.176 
L 134.240593 37.176 
L 134.240593 34.656 
L 136.502126 34.656 
L 136.502126 33.144 
L 138.763658 33.144 
L 138.763658 32.136 
L 141.025191 32.136 
L 141.025191 31.632 
L 143.286724 31.632 
L 143.286724 31.128 
L 145.548256 31.128 
L 145.548256 30.624 
L 147.809789 30.624 
L 147.809789 28.608 
L 150.071322 28.608 
L 150.071322 28.104 
L 152.332855 28.104 
L 152.332855 26.592 
L 154.594387 26.592 
L 154.594387 26.088 
L 156.85592 26.088 
L 156.85592 26.088 
L 159.117453 26.088 
L 159.117453 25.08 
L 161.378985 25.08 
" clip-path="url(#p98b9fc8848)" style="fill: none; stroke: #eede7a; stroke-width: 1.5; stroke-linecap: square"/>
   </g>
   <g id="line2d_8">
    <path d="M 48.954492 124.872 
L 48.954492 124.872 
L 51.257948 124.872 
L 51.257948 124.872 
L 53.561404 124.872 
L 53.561404 124.872 
L 55.864861 124.872 
L 55.864861 124.872 
L 58.168317 124.872 
L 58.168317 124.872 
L 60.471773 124.872 
L 60.471773 124.872 
L 62.775229 124.872 
L 62.775229 124.872 
L 65.078685 124.872 
L 65.078685 123.864 
L 67.382141 123.864 
L 67.382141 123.864 
L 69.685597 123.864 
L 69.685597 119.832 
L 71.989053 119.832 
L 71.989053 116.808 
L 74.292509 116.808 
L 74.292509 116.808 
L 76.595965 116.808 
L 76.595965 112.776 
L 78.899421 112.776 
L 78.899421 110.76 
L 81.202877 110.76 
L 81.202877 108.744 
L 83.506333 108.744 
L 83.506333 106.728 
L 85.809789 106.728 
L 85.809789 98.664 
L 88.113245 98.664 
L 88.113245 96.648 
L 90.416701 96.648 
L 90.416701 92.616 
L 92.720157 92.616 
L 92.720157 89.592 
L 95.023613 89.592 
L 95.023613 88.584 
L 97.327069 88.584 
L 97.327069 87.576 
L 99.630525 87.576 
L 99.630525 83.544 
L 101.933981 83.544 
L 101.933981 80.52 
L 104.237438 80.52 
L 104.237438 74.472 
L 106.540894 74.472 
L 106.540894 73.464 
L 108.84435 73.464 
L 108.84435 69.432 
L 111.147806 69.432 
L 111.147806 67.416 
L 113.451262 67.416 
L 113.451262 64.392 
L 115.754718 64.392 
L 115.754718 62.376 
L 118.058174 62.376 
L 118.058174 61.368 
L 120.36163 61.368 
L 120.36163 58.344 
L 122.665086 58.344 
L 122.665086 54.312 
L 124.968542 54.312 
L 124.968542 53.304 
L 127.271998 53.304 
L 127.271998 52.296 
L 129.575454 52.296 
L 129.575454 52.296 
L 131.87891 52.296 
L 131.87891 49.272 
L 134.182366 49.272 
L 134.182366 45.24 
L 136.485822 45.24 
L 136.485822 41.208 
L 138.789278 41.208 
L 138.789278 40.2 
L 141.092734 40.2 
L 141.092734 39.192 
L 143.39619 39.192 
L 143.39619 37.176 
L 145.699646 37.176 
L 145.699646 32.136 
L 148.003102 32.136 
L 148.003102 31.128 
L 150.306559 31.128 
L 150.306559 31.128 
L 152.610015 31.128 
L 152.610015 28.104 
L 154.913471 28.104 
L 154.913471 28.104 
L 157.216927 28.104 
L 157.216927 28.104 
L 159.520383 28.104 
L 159.520383 25.08 
L 161.823839 25.08 
" clip-path="url(#p98b9fc8848)" style="fill: none; stroke: #ead375; stroke-width: 1.5; stroke-linecap: square"/>
   </g>
   <g id="line2d_9">
    <path d="M 48.149797 124.872 
L 48.149797 124.872 
L 50.474214 124.872 
L 50.474214 123.864 
L 52.798632 123.864 
L 52.798632 122.856 
L 55.12305 122.856 
L 55.12305 122.856 
L 57.447468 122.856 
L 57.447468 119.832 
L 59.771885 119.832 
L 59.771885 118.824 
L 62.096303 118.824 
L 62.096303 118.824 
L 64.420721 118.824 
L 64.420721 116.808 
L 66.745139 116.808 
L 66.745139 115.8 
L 69.069556 115.8 
L 69.069556 113.784 
L 71.393974 113.784 
L 71.393974 110.76 
L 73.718392 110.76 
L 73.718392 110.76 
L 76.042809 110.76 
L 76.042809 108.744 
L 78.367227 108.744 
L 78.367227 107.736 
L 80.691645 107.736 
L 80.691645 104.712 
L 83.016063 104.712 
L 83.016063 98.664 
L 85.34048 98.664 
L 85.34048 95.64 
L 87.664898 95.64 
L 87.664898 94.632 
L 89.989316 94.632 
L 89.989316 92.616 
L 92.313734 92.616 
L 92.313734 90.6 
L 94.638151 90.6 
L 94.638151 88.584 
L 96.962569 88.584 
L 96.962569 85.56 
L 99.286987 85.56 
L 99.286987 85.56 
L 101.611404 85.56 
L 101.611404 83.544 
L 103.935822 83.544 
L 103.935822 82.536 
L 106.26024 82.536 
L 106.26024 80.52 
L 108.584658 80.52 
L 108.584658 80.52 
L 110.909075 80.52 
L 110.909075 78.504 
L 113.233493 78.504 
L 113.233493 76.488 
L 115.557911 76.488 
L 115.557911 73.464 
L 117.882329 73.464 
L 117.882329 70.44 
L 120.206746 70.44 
L 120.206746 64.392 
L 122.531164 64.392 
L 122.531164 60.36 
L 124.855582 60.36 
L 124.855582 57.336 
L 127.18 57.336 
L 127.18 53.304 
L 129.504417 53.304 
L 129.504417 50.28 
L 131.828835 50.28 
L 131.828835 48.264 
L 134.153253 48.264 
L 134.153253 47.256 
L 136.47767 47.256 
L 136.47767 46.248 
L 138.802088 46.248 
L 138.802088 44.232 
L 141.126506 44.232 
L 141.126506 43.224 
L 143.450924 43.224 
L 143.450924 41.208 
L 145.775341 41.208 
L 145.775341 40.2 
L 148.099759 40.2 
L 148.099759 38.184 
L 150.424177 38.184 
L 150.424177 37.176 
L 152.748595 37.176 
L 152.748595 34.152 
L 155.073012 34.152 
L 155.073012 34.152 
L 157.39743 34.152 
L 157.39743 28.104 
L 159.721848 28.104 
L 159.721848 25.08 
L 162.046265 25.08 
" clip-path="url(#p98b9fc8848)" style="fill: none; stroke: #e5c76f; stroke-width: 1.5; stroke-linecap: square"/>
   </g>
   <g id="line2d_10">
    <path d="M 48.152126 122.856 
L 48.152126 121.848 
L 50.481202 121.848 
L 50.481202 120.84 
L 52.810278 120.84 
L 52.810278 120.84 
L 55.139353 120.84 
L 55.139353 120.84 
L 57.468429 120.84 
L 57.468429 118.824 
L 59.797505 118.824 
L 59.797505 117.816 
L 62.126581 117.816 
L 62.126581 115.8 
L 64.455657 115.8 
L 64.455657 114.792 
L 66.784733 114.792 
L 66.784733 114.792 
L 69.113809 114.792 
L 69.113809 114.792 
L 71.442885 114.792 
L 71.442885 114.792 
L 73.77196 114.792 
L 73.77196 112.776 
L 76.101036 112.776 
L 76.101036 110.76 
L 78.430112 110.76 
L 78.430112 106.728 
L 80.759188 106.728 
L 80.759188 103.704 
L 83.088264 103.704 
L 83.088264 100.68 
L 85.41734 100.68 
L 85.41734 99.672 
L 87.746416 99.672 
L 87.746416 98.664 
L 90.075492 98.664 
L 90.075492 97.656 
L 92.404568 97.656 
L 92.404568 94.632 
L 94.733643 94.632 
L 94.733643 92.616 
L 97.062719 92.616 
L 97.062719 89.592 
L 99.391795 89.592 
L 99.391795 86.568 
L 101.720871 86.568 
L 101.720871 85.56 
L 104.049947 85.56 
L 104.049947 84.552 
L 106.379023 84.552 
L 106.379023 84.552 
L 108.708099 84.552 
L 108.708099 83.544 
L 111.037175 83.544 
L 111.037175 83.544 
L 113.36625 83.544 
L 113.36625 80.52 
L 115.695326 80.52 
L 115.695326 80.52 
L 118.024402 80.52 
L 118.024402 79.512 
L 120.353478 79.512 
L 120.353478 74.472 
L 122.682554 74.472 
L 122.682554 70.44 
L 125.01163 70.44 
L 125.01163 70.44 
L 127.340706 70.44 
L 127.340706 69.432 
L 129.669782 69.432 
L 129.669782 67.416 
L 131.998858 67.416 
L 131.998858 64.392 
L 134.327933 64.392 
L 134.327933 60.36 
L 136.657009 60.36 
L 136.657009 58.344 
L 138.986085 58.344 
L 138.986085 57.336 
L 141.315161 57.336 
L 141.315161 56.328 
L 143.644237 56.328 
L 143.644237 56.328 
L 145.973313 56.328 
L 145.973313 55.32 
L 148.302389 55.32 
L 148.302389 53.304 
L 150.631465 53.304 
L 150.631465 52.296 
L 152.96054 52.296 
L 152.96054 48.264 
L 155.289616 48.264 
L 155.289616 40.2 
L 157.618692 40.2 
L 157.618692 35.16 
L 159.947768 35.16 
L 159.947768 25.08 
L 162.276844 25.08 
" clip-path="url(#p98b9fc8848)" style="fill: none; stroke: #ce915a; stroke-width: 1.5; stroke-linecap: square"/>
   </g>
   <g id="line2d_11">
    <path d="M 48.152126 122.856 
L 48.152126 121.848 
L 50.481202 121.848 
L 50.481202 120.84 
L 52.810278 120.84 
L 52.810278 119.832 
L 55.139353 119.832 
L 55.139353 118.824 
L 57.468429 118.824 
L 57.468429 117.816 
L 59.797505 117.816 
L 59.797505 115.8 
L 62.126581 115.8 
L 62.126581 114.792 
L 64.455657 114.792 
L 64.455657 113.784 
L 66.784733 113.784 
L 66.784733 112.776 
L 69.113809 112.776 
L 69.113809 112.776 
L 71.442885 112.776 
L 71.442885 111.768 
L 73.77196 111.768 
L 73.77196 111.768 
L 76.101036 111.768 
L 76.101036 111.768 
L 78.430112 111.768 
L 78.430112 110.76 
L 80.759188 110.76 
L 80.759188 109.752 
L 83.088264 109.752 
L 83.088264 109.752 
L 85.41734 109.752 
L 85.41734 106.728 
L 87.746416 106.728 
L 87.746416 104.712 
L 90.075492 104.712 
L 90.075492 100.68 
L 92.404568 100.68 
L 92.404568 100.68 
L 94.733643 100.68 
L 94.733643 100.68 
L 97.062719 100.68 
L 97.062719 97.656 
L 99.391795 97.656 
L 99.391795 95.64 
L 101.720871 95.64 
L 101.720871 95.64 
L 104.049947 95.64 
L 104.049947 94.632 
L 106.379023 94.632 
L 106.379023 92.616 
L 108.708099 92.616 
L 108.708099 91.608 
L 111.037175 91.608 
L 111.037175 91.608 
L 113.36625 91.608 
L 113.36625 91.608 
L 115.695326 91.608 
L 115.695326 88.584 
L 118.024402 88.584 
L 118.024402 84.552 
L 120.353478 84.552 
L 120.353478 77.496 
L 122.682554 77.496 
L 122.682554 77.496 
L 125.01163 77.496 
L 125.01163 76.488 
L 127.340706 76.488 
L 127.340706 72.456 
L 129.669782 72.456 
L 129.669782 72.456 
L 131.998858 72.456 
L 131.998858 72.456 
L 134.327933 72.456 
L 134.327933 71.448 
L 136.657009 71.448 
L 136.657009 67.416 
L 138.986085 67.416 
L 138.986085 66.408 
L 141.315161 66.408 
L 141.315161 65.4 
L 143.644237 65.4 
L 143.644237 64.392 
L 145.973313 64.392 
L 145.973313 61.368 
L 148.302389 61.368 
L 148.302389 59.352 
L 150.631465 59.352 
L 150.631465 55.32 
L 152.96054 55.32 
L 152.96054 52.296 
L 155.289616 52.296 
L 155.289616 46.248 
L 157.618692 46.248 
L 157.618692 43.224 
L 159.947768 43.224 
L 159.947768 25.08 
L 162.276844 25.08 
" clip-path="url(#p98b9fc8848)" style="fill: none; stroke: #a04747; stroke-width: 1.5; stroke-linecap: square"/>
   </g>
   <g id="patch_3">
    <path d="M 41.223125 130.92 
L 41.223125 20.04 
" style="fill: none; stroke: #000000; stroke-width: 1.5; stroke-linejoin: miter; stroke-linecap: square"/>
   </g>
   <g id="patch_4">
    <path d="M 41.223125 130.92 
L 168.041307 130.92 
" style="fill: none; stroke: #000000; stroke-width: 1.5; stroke-linejoin: miter; stroke-linecap: square"/>
   </g>
   <g id="text_9">
    <!-- Density $\rho$ -->
    <g transform="translate(83.212216 14.04)">
     <text>
      <tspan style="font: 9px 'DejaVu Sans'" x="0 6.930176 12.467285 18.171387 22.860352 25.36084 28.889648 34.21582 37.07666" y="-0.15625">Density ρ</tspan>
     </text>
    </g>
   </g>
  </g>
  <g id="axes_2">
   <g id="patch_5">
    <path d="M 193.404943 130.92 
L 320.223125 130.92 
L 320.223125 20.04 
L 193.404943 20.04 
z
" style="fill: #ffffff"/>
   </g>
   <g id="PolyCollection_2">
    <defs>
     <path id="mad0a501304" d="M 199.169406 -42.273425 
L 199.169406 -35.620625 
L 201.498482 -35.620625 
L 203.827558 -36.729425 
L 206.156634 -37.838225 
L 208.48571 -38.947025 
L 210.814785 -40.055825 
L 213.143861 -42.273425 
L 215.472937 -43.382225 
L 217.802013 -45.599825 
L 220.131089 -46.708625 
L 222.460165 -48.926225 
L 224.789241 -51.143825 
L 227.118317 -52.252625 
L 229.447392 -54.470225 
L 231.776468 -56.687825 
L 234.105544 -57.796625 
L 236.43462 -60.014225 
L 238.763696 -62.231825 
L 241.092772 -64.449425 
L 243.421848 -66.667025 
L 245.750924 -68.884625 
L 248.08 -69.993425 
L 250.409075 -72.211025 
L 252.738151 -74.428625 
L 255.067227 -76.646225 
L 257.396303 -78.863825 
L 259.725379 -81.081425 
L 262.054455 -83.299025 
L 264.383531 -85.516625 
L 266.712607 -87.734225 
L 269.041682 -89.951825 
L 271.370758 -92.169425 
L 273.699834 -95.495825 
L 276.02891 -97.713425 
L 278.357986 -99.931025 
L 280.687062 -102.148625 
L 283.016138 -104.366225 
L 285.345214 -107.692625 
L 287.67429 -109.910225 
L 290.003365 -112.127825 
L 292.332441 -115.454225 
L 294.661517 -117.671825 
L 296.990593 -119.889425 
L 299.319669 -123.215825 
L 301.648745 -126.542225 
L 303.977821 -128.759825 
L 306.306897 -132.086225 
L 308.635972 -135.412625 
L 310.965048 -139.847825 
L 313.294124 -146.500625 
L 313.294124 -146.500625 
L 313.294124 -146.500625 
L 310.965048 -146.500625 
L 308.635972 -146.500625 
L 306.306897 -145.391825 
L 303.977821 -144.283025 
L 301.648745 -143.174225 
L 299.319669 -142.065425 
L 296.990593 -139.847825 
L 294.661517 -138.739025 
L 292.332441 -136.521425 
L 290.003365 -135.412625 
L 287.67429 -133.195025 
L 285.345214 -130.977425 
L 283.016138 -129.868625 
L 280.687062 -127.651025 
L 278.357986 -125.433425 
L 276.02891 -124.324625 
L 273.699834 -122.107025 
L 271.370758 -119.889425 
L 269.041682 -117.671825 
L 266.712607 -115.454225 
L 264.383531 -113.236625 
L 262.054455 -112.127825 
L 259.725379 -109.910225 
L 257.396303 -107.692625 
L 255.067227 -105.475025 
L 252.738151 -103.257425 
L 250.409075 -101.039825 
L 248.08 -98.822225 
L 245.750924 -96.604625 
L 243.421848 -94.387025 
L 241.092772 -92.169425 
L 238.763696 -89.951825 
L 236.43462 -86.625425 
L 234.105544 -84.407825 
L 231.776468 -82.190225 
L 229.447392 -79.972625 
L 227.118317 -77.755025 
L 224.789241 -74.428625 
L 222.460165 -72.211025 
L 220.131089 -69.993425 
L 217.802013 -66.667025 
L 215.472937 -64.449425 
L 213.143861 -62.231825 
L 210.814785 -58.905425 
L 208.48571 -55.579025 
L 206.156634 -53.361425 
L 203.827558 -50.035025 
L 201.498482 -46.708625 
L 199.169406 -42.273425 
z
" style="stroke: #808080; stroke-opacity: 0.2"/>
    </defs>
    <g clip-path="url(#p2c33eddd5c)">
     <use xlink:href="#mad0a501304" x="0" y="166.540625" style="fill: #808080; fill-opacity: 0.2; stroke: #808080; stroke-opacity: 0.2"/>
    </g>
   </g>
   <g id="matplotlib.axis_3">
    <g id="xtick_4">
     <g id="line2d_12">
      <g>
       <use xlink:href="#mcc9109ceed" x="199.169406" y="130.92" style="stroke: #000000; stroke-width: 1.5"/>
      </g>
     </g>
     <g id="text_10">
      <text style="font: 9px 'Arial', sans-serif; text-anchor: middle" x="199.169406" y="144.758594" transform="rotate(-0 199.169406 144.758594)">0</text>
     </g>
    </g>
    <g id="xtick_5">
     <g id="line2d_13">
      <g>
       <use xlink:href="#mcc9109ceed" x="257.396303" y="130.92" style="stroke: #000000; stroke-width: 1.5"/>
      </g>
     </g>
     <g id="text_11">
      <text style="font: 9px 'Arial', sans-serif; text-anchor: middle" x="257.396303" y="144.758594" transform="rotate(-0 257.396303 144.758594)">500</text>
     </g>
    </g>
    <g id="xtick_6">
     <g id="line2d_14">
      <g>
       <use xlink:href="#mcc9109ceed" x="315.6232" y="130.92" style="stroke: #000000; stroke-width: 1.5"/>
      </g>
     </g>
     <g id="text_12">
      <text style="font: 9px 'Arial', sans-serif; text-anchor: middle" x="315.6232" y="144.758594" transform="rotate(-0 315.6232 144.758594)">1000</text>
     </g>
    </g>
    <g id="text_13">
     <text style="font: 9px 'Arial', sans-serif; text-anchor: middle" x="256.814034" y="157.468906" transform="rotate(-0 256.814034 157.468906)">posterior rank</text>
    </g>
   </g>
   <g id="matplotlib.axis_4">
    <g id="ytick_4">
     <g id="line2d_15">
      <g>
       <use xlink:href="#mb11e05f540" x="193.404943" y="130.92" style="stroke: #000000; stroke-width: 1.5"/>
      </g>
     </g>
    </g>
    <g id="ytick_5">
     <g id="line2d_16">
      <g>
       <use xlink:href="#mb11e05f540" x="193.404943" y="108.744" style="stroke: #000000; stroke-width: 1.5"/>
      </g>
     </g>
    </g>
    <g id="ytick_6">
     <g id="line2d_17">
      <g>
       <use xlink:href="#mb11e05f540" x="193.404943" y="86.568" style="stroke: #000000; stroke-width: 1.5"/>
      </g>
     </g>
    </g>
    <g id="ytick_7">
     <g id="line2d_18">
      <g>
       <use xlink:href="#mb11e05f540" x="193.404943" y="64.392" style="stroke: #000000; stroke-width: 1.5"/>
      </g>
     </g>
    </g>
    <g id="ytick_8">
     <g id="line2d_19">
      <g>
       <use xlink:href="#mb11e05f540" x="193.404943" y="42.216" style="stroke: #000000; stroke-width: 1.5"/>
      </g>
     </g>
    </g>
    <g id="ytick_9">
     <g id="line2d_20">
      <g>
       <use xlink:href="#mb11e05f540" x="193.404943" y="20.04" style="stroke: #000000; stroke-width: 1.5"/>
      </g>
     </g>
    </g>
   </g>
   <g id="line2d_21">
    <path d="M 201.2516 130.3656 
L 201.2516 126.4848 
L 203.552727 126.4848 
L 203.552727 125.9304 
L 205.853854 125.9304 
L 205.853854 125.376 
L 208.154981 125.376 
L 208.154981 122.0496 
L 210.456108 122.0496 
L 210.456108 119.832 
L 212.757235 119.832 
L 212.757235 117.6144 
L 215.058362 117.6144 
L 215.058362 114.8424 
L 217.359489 114.8424 
L 217.359489 112.0704 
L 219.660616 112.0704 
L 219.660616 109.2984 
L 221.961743 109.2984 
L 221.961743 108.1896 
L 224.26287 108.1896 
L 224.26287 104.3088 
L 226.563997 104.3088 
L 226.563997 102.6456 
L 228.865123 102.6456 
L 228.865123 99.3192 
L 231.16625 99.3192 
L 231.16625 97.656 
L 233.467377 97.656 
L 233.467377 96.5472 
L 235.768504 96.5472 
L 235.768504 94.3296 
L 238.069631 94.3296 
L 238.069631 92.6664 
L 240.370758 92.6664 
L 240.370758 91.0032 
L 242.671885 91.0032 
L 242.671885 88.2312 
L 244.973012 88.2312 
L 244.973012 85.4592 
L 247.274139 85.4592 
L 247.274139 83.796 
L 249.575266 83.796 
L 249.575266 82.6872 
L 251.876393 82.6872 
L 251.876393 80.4696 
L 254.17752 80.4696 
L 254.17752 79.3608 
L 256.478647 79.3608 
L 256.478647 77.6976 
L 258.779774 77.6976 
L 258.779774 76.0344 
L 261.080901 76.0344 
L 261.080901 72.708 
L 263.382028 72.708 
L 263.382028 68.2728 
L 265.683155 68.2728 
L 265.683155 66.6096 
L 267.984282 66.6096 
L 267.984282 62.1744 
L 270.285409 62.1744 
L 270.285409 61.0656 
L 272.586536 61.0656 
L 272.586536 59.9568 
L 274.887663 59.9568 
L 274.887663 58.2936 
L 277.18879 58.2936 
L 277.18879 57.1848 
L 279.489917 57.1848 
L 279.489917 53.8584 
L 281.791044 53.8584 
L 281.791044 50.532 
L 284.092171 50.532 
L 284.092171 46.6512 
L 286.393298 46.6512 
L 286.393298 44.4336 
L 288.694425 44.4336 
L 288.694425 42.216 
L 290.995552 42.216 
L 290.995552 39.444 
L 293.296679 39.444 
L 293.296679 39.444 
L 295.597806 39.444 
L 295.597806 37.7808 
L 297.898933 37.7808 
L 297.898933 34.4544 
L 300.20006 34.4544 
L 300.20006 32.2368 
L 302.501187 32.2368 
L 302.501187 30.0192 
L 304.802314 30.0192 
L 304.802314 26.6928 
L 307.103441 26.6928 
L 307.103441 25.584 
L 309.404568 25.584 
L 309.404568 22.2576 
L 311.705694 22.2576 
L 311.705694 20.04 
L 314.006821 20.04 
" clip-path="url(#p2c33eddd5c)" style="fill: none; stroke: #eede7a; stroke-width: 1.5; stroke-linecap: square"/>
   </g>
   <g id="line2d_22">
    <path d="M 200.325792 129.8112 
L 200.325792 123.1584 
L 202.638565 123.1584 
L 202.638565 122.0496 
L 204.951337 122.0496 
L 204.951337 119.832 
L 207.264109 119.832 
L 207.264109 117.6144 
L 209.576882 117.6144 
L 209.576882 115.3968 
L 211.889654 115.3968 
L 211.889654 114.288 
L 214.202426 114.288 
L 214.202426 112.0704 
L 216.515199 112.0704 
L 216.515199 109.8528 
L 218.827971 109.8528 
L 218.827971 106.5264 
L 221.140743 106.5264 
L 221.140743 105.4176 
L 223.453516 105.4176 
L 223.453516 103.2 
L 225.766288 103.2 
L 225.766288 102.0912 
L 228.07906 102.0912 
L 228.07906 99.8736 
L 230.391833 99.8736 
L 230.391833 97.656 
L 232.704605 97.656 
L 232.704605 96.5472 
L 235.017377 96.5472 
L 235.017377 96.5472 
L 237.33015 96.5472 
L 237.33015 94.3296 
L 239.642922 94.3296 
L 239.642922 94.3296 
L 241.955694 94.3296 
L 241.955694 93.2208 
L 244.268467 93.2208 
L 244.268467 92.112 
L 246.581239 92.112 
L 246.581239 91.0032 
L 248.894012 91.0032 
L 248.894012 88.7856 
L 251.206784 88.7856 
L 251.206784 86.568 
L 253.519556 86.568 
L 253.519556 84.3504 
L 255.832329 84.3504 
L 255.832329 83.2416 
L 258.145101 83.2416 
L 258.145101 81.024 
L 260.457873 81.024 
L 260.457873 78.8064 
L 262.770646 78.8064 
L 262.770646 78.8064 
L 265.083418 78.8064 
L 265.083418 76.5888 
L 267.39619 76.5888 
L 267.39619 76.5888 
L 269.708963 76.5888 
L 269.708963 73.2624 
L 272.021735 73.2624 
L 272.021735 69.936 
L 274.334507 69.936 
L 274.334507 67.7184 
L 276.64728 67.7184 
L 276.64728 65.5008 
L 278.960052 65.5008 
L 278.960052 62.1744 
L 281.272824 62.1744 
L 281.272824 58.848 
L 283.585597 58.848 
L 283.585597 56.6304 
L 285.898369 56.6304 
L 285.898369 52.1952 
L 288.211142 52.1952 
L 288.211142 49.9776 
L 290.523914 49.9776 
L 290.523914 43.3248 
L 292.836686 43.3248 
L 292.836686 41.1072 
L 295.149459 41.1072 
L 295.149459 38.8896 
L 297.462231 38.8896 
L 297.462231 37.7808 
L 299.775003 37.7808 
L 299.775003 34.4544 
L 302.087776 34.4544 
L 302.087776 32.2368 
L 304.400548 32.2368 
L 304.400548 28.9104 
L 306.71332 28.9104 
L 306.71332 24.4752 
L 309.026093 24.4752 
L 309.026093 22.2576 
L 311.338865 22.2576 
L 311.338865 20.04 
L 313.651637 20.04 
" clip-path="url(#p2c33eddd5c)" style="fill: none; stroke: #ead375; stroke-width: 1.5; stroke-linecap: square"/>
   </g>
   <g id="line2d_23">
    <path d="M 200.331615 128.7024 
L 200.331615 123.1584 
L 202.656033 123.1584 
L 202.656033 122.0496 
L 204.98045 122.0496 
L 204.98045 118.7232 
L 207.304868 118.7232 
L 207.304868 114.288 
L 209.629286 114.288 
L 209.629286 113.1792 
L 211.953704 113.1792 
L 211.953704 110.9616 
L 214.278121 110.9616 
L 214.278121 109.8528 
L 216.602539 109.8528 
L 216.602539 106.5264 
L 218.926957 106.5264 
L 218.926957 105.4176 
L 221.251374 105.4176 
L 221.251374 102.0912 
L 223.575792 102.0912 
L 223.575792 99.8736 
L 225.90021 99.8736 
L 225.90021 99.8736 
L 228.224628 99.8736 
L 228.224628 97.656 
L 230.549045 97.656 
L 230.549045 96.5472 
L 232.873463 96.5472 
L 232.873463 95.4384 
L 235.197881 95.4384 
L 235.197881 94.3296 
L 237.522299 94.3296 
L 237.522299 91.0032 
L 239.846716 91.0032 
L 239.846716 89.8944 
L 242.171134 89.8944 
L 242.171134 88.7856 
L 244.495552 88.7856 
L 244.495552 86.568 
L 246.819969 86.568 
L 246.819969 85.4592 
L 249.144387 85.4592 
L 249.144387 84.3504 
L 251.468805 84.3504 
L 251.468805 83.2416 
L 253.793223 83.2416 
L 253.793223 81.024 
L 256.11764 81.024 
L 256.11764 79.9152 
L 258.442058 79.9152 
L 258.442058 77.6976 
L 260.766476 77.6976 
L 260.766476 75.48 
L 263.090894 75.48 
L 263.090894 74.3712 
L 265.415311 74.3712 
L 265.415311 73.2624 
L 267.739729 73.2624 
L 267.739729 72.1536 
L 270.064147 72.1536 
L 270.064147 71.0448 
L 272.388565 71.0448 
L 272.388565 71.0448 
L 274.712982 71.0448 
L 274.712982 66.6096 
L 277.0374 66.6096 
L 277.0374 63.2832 
L 279.361818 63.2832 
L 279.361818 62.1744 
L 281.686235 62.1744 
L 281.686235 62.1744 
L 284.010653 62.1744 
L 284.010653 61.0656 
L 286.335071 61.0656 
L 286.335071 57.7392 
L 288.659489 57.7392 
L 288.659489 56.6304 
L 290.983906 56.6304 
L 290.983906 54.4128 
L 293.308324 54.4128 
L 293.308324 51.0864 
L 295.632742 51.0864 
L 295.632742 44.4336 
L 297.95716 44.4336 
L 297.95716 41.1072 
L 300.281577 41.1072 
L 300.281577 39.9984 
L 302.605995 39.9984 
L 302.605995 36.672 
L 304.930413 36.672 
L 304.930413 32.2368 
L 307.25483 32.2368 
L 307.25483 28.9104 
L 309.579248 28.9104 
L 309.579248 24.4752 
L 311.903666 24.4752 
L 311.903666 20.04 
L 314.228084 20.04 
" clip-path="url(#p2c33eddd5c)" style="fill: none; stroke: #e5c76f; stroke-width: 1.5; stroke-linecap: square"/>
   </g>
   <g id="line2d_24">
    <path d="M 200.333944 123.1584 
L 200.333944 123.1584 
L 202.66302 123.1584 
L 202.66302 118.7232 
L 204.992096 118.7232 
L 204.992096 115.3968 
L 207.321172 115.3968 
L 207.321172 115.3968 
L 209.650247 115.3968 
L 209.650247 113.1792 
L 211.979323 113.1792 
L 211.979323 110.9616 
L 214.308399 110.9616 
L 214.308399 109.8528 
L 216.637475 109.8528 
L 216.637475 106.5264 
L 218.966551 106.5264 
L 218.966551 105.4176 
L 221.295627 105.4176 
L 221.295627 105.4176 
L 223.624703 105.4176 
L 223.624703 104.3088 
L 225.953779 104.3088 
L 225.953779 102.0912 
L 228.282855 102.0912 
L 228.282855 100.9824 
L 230.61193 100.9824 
L 230.61193 99.8736 
L 232.941006 99.8736 
L 232.941006 97.656 
L 235.270082 97.656 
L 235.270082 97.656 
L 237.599158 97.656 
L 237.599158 95.4384 
L 239.928234 95.4384 
L 239.928234 95.4384 
L 242.25731 95.4384 
L 242.25731 94.3296 
L 244.586386 94.3296 
L 244.586386 93.2208 
L 246.915462 93.2208 
L 246.915462 92.112 
L 249.244537 92.112 
L 249.244537 89.8944 
L 251.573613 89.8944 
L 251.573613 89.8944 
L 253.902689 89.8944 
L 253.902689 89.8944 
L 256.231765 89.8944 
L 256.231765 89.8944 
L 258.560841 89.8944 
L 258.560841 89.8944 
L 260.889917 89.8944 
L 260.889917 87.6768 
L 263.218993 87.6768 
L 263.218993 84.3504 
L 265.548069 84.3504 
L 265.548069 84.3504 
L 267.877145 84.3504 
L 267.877145 84.3504 
L 270.20622 84.3504 
L 270.20622 82.1328 
L 272.535296 82.1328 
L 272.535296 77.6976 
L 274.864372 77.6976 
L 274.864372 77.6976 
L 277.193448 77.6976 
L 277.193448 77.6976 
L 279.522524 77.6976 
L 279.522524 76.5888 
L 281.8516 76.5888 
L 281.8516 75.48 
L 284.180676 75.48 
L 284.180676 73.2624 
L 286.509752 73.2624 
L 286.509752 72.1536 
L 288.838827 72.1536 
L 288.838827 68.8272 
L 291.167903 68.8272 
L 291.167903 64.392 
L 293.496979 64.392 
L 293.496979 63.2832 
L 295.826055 63.2832 
L 295.826055 62.1744 
L 298.155131 62.1744 
L 298.155131 56.6304 
L 300.484207 56.6304 
L 300.484207 56.6304 
L 302.813283 56.6304 
L 302.813283 54.4128 
L 305.142359 54.4128 
L 305.142359 45.5424 
L 307.471435 45.5424 
L 307.471435 45.5424 
L 309.80051 45.5424 
L 309.80051 36.672 
L 312.129586 36.672 
L 312.129586 20.04 
L 314.458662 20.04 
" clip-path="url(#p2c33eddd5c)" style="fill: none; stroke: #d8a25e; stroke-width: 1.5; stroke-linecap: square"/>
   </g>
   <g id="line2d_25">
    <path d="M 200.333944 125.376 
L 200.333944 120.9408 
L 202.66302 120.9408 
L 202.66302 119.832 
L 204.992096 119.832 
L 204.992096 116.5056 
L 207.321172 116.5056 
L 207.321172 115.3968 
L 209.650247 115.3968 
L 209.650247 113.1792 
L 211.979323 113.1792 
L 211.979323 113.1792 
L 214.308399 113.1792 
L 214.308399 113.1792 
L 216.637475 113.1792 
L 216.637475 112.0704 
L 218.966551 112.0704 
L 218.966551 109.8528 
L 221.295627 109.8528 
L 221.295627 108.744 
L 223.624703 108.744 
L 223.624703 106.5264 
L 225.953779 106.5264 
L 225.953779 105.4176 
L 228.282855 105.4176 
L 228.282855 105.4176 
L 230.61193 105.4176 
L 230.61193 104.3088 
L 232.941006 104.3088 
L 232.941006 103.2 
L 235.270082 103.2 
L 235.270082 103.2 
L 237.599158 103.2 
L 237.599158 100.9824 
L 239.928234 100.9824 
L 239.928234 99.8736 
L 242.25731 99.8736 
L 242.25731 97.656 
L 244.586386 97.656 
L 244.586386 97.656 
L 246.915462 97.656 
L 246.915462 97.656 
L 249.244537 97.656 
L 249.244537 96.5472 
L 251.573613 96.5472 
L 251.573613 95.4384 
L 253.902689 95.4384 
L 253.902689 95.4384 
L 256.231765 95.4384 
L 256.231765 94.3296 
L 258.560841 94.3296 
L 258.560841 93.2208 
L 260.889917 93.2208 
L 260.889917 91.0032 
L 263.218993 91.0032 
L 263.218993 91.0032 
L 265.548069 91.0032 
L 265.548069 91.0032 
L 267.877145 91.0032 
L 267.877145 91.0032 
L 270.20622 91.0032 
L 270.20622 91.0032 
L 272.535296 91.0032 
L 272.535296 91.0032 
L 274.864372 91.0032 
L 274.864372 88.7856 
L 277.193448 88.7856 
L 277.193448 87.6768 
L 279.522524 87.6768 
L 279.522524 86.568 
L 281.8516 86.568 
L 281.8516 85.4592 
L 284.180676 85.4592 
L 284.180676 84.3504 
L 286.509752 84.3504 
L 286.509752 84.3504 
L 288.838827 84.3504 
L 288.838827 83.2416 
L 291.167903 83.2416 
L 291.167903 83.2416 
L 293.496979 83.2416 
L 293.496979 82.1328 
L 295.826055 82.1328 
L 295.826055 79.9152 
L 298.155131 79.9152 
L 298.155131 77.6976 
L 300.484207 77.6976 
L 300.484207 73.2624 
L 302.813283 73.2624 
L 302.813283 73.2624 
L 305.142359 73.2624 
L 305.142359 69.936 
L 307.471435 69.936 
L 307.471435 64.392 
L 309.80051 64.392 
L 309.80051 58.848 
L 312.129586 58.848 
L 312.129586 20.04 
L 314.458662 20.04 
" clip-path="url(#p2c33eddd5c)" style="fill: none; stroke: #a04747; stroke-width: 1.5; stroke-linecap: square"/>
   </g>
   <g id="patch_6">
    <path d="M 193.404943 130.92 
L 193.404943 20.04 
" style="fill: none; stroke: #000000; stroke-width: 1.5; stroke-linejoin: miter; stroke-linecap: square"/>
   </g>
   <g id="patch_7">
    <path d="M 193.404943 130.92 
L 320.223125 130.92 
" style="fill: none; stroke: #000000; stroke-width: 1.5; stroke-linejoin: miter; stroke-linecap: square"/>
   </g>
   <g id="text_14">
    <text style="font: 9px 'Arial', sans-serif; text-anchor: middle" x="256.814034" y="14.04" transform="rotate(-0 256.814034 14.04)">Reynolds Re</text>
   </g>
   <g id="legend_1">
    <g id="line2d_26">
     <path d="M 353.686761 42.916594 
L 353.686761 42.916594 
L 362.686761 42.916594 
L 362.686761 42.916594 
L 371.686761 42.916594 
" style="fill: none; stroke: #eede7a; stroke-width: 1.5; stroke-linecap: square"/>
    </g>
    <g id="text_15">
     <text style="font: 9px 'Arial', sans-serif; text-anchor: start" x="378.886761" y="46.066594" transform="rotate(-0 378.886761 46.066594)">T=1</text>
    </g>
    <g id="line2d_27">
     <path d="M 353.686761 56.126906 
L 353.686761 56.126906 
L 362.686761 56.126906 
L 362.686761 56.126906 
L 371.686761 56.126906 
" style="fill: none; stroke: #ead375; stroke-width: 1.5; stroke-linecap: square"/>
    </g>
    <g id="text_16">
     <text style="font: 9px 'Arial', sans-serif; text-anchor: start" x="378.886761" y="59.276906" transform="rotate(-0 378.886761 59.276906)">T=10</text>
    </g>
    <g id="line2d_28">
     <path d="M 353.686761 69.337219 
L 353.686761 69.337219 
L 362.686761 69.337219 
L 362.686761 69.337219 
L 371.686761 69.337219 
" style="fill: none; stroke: #e5c76f; stroke-width: 1.5; stroke-linecap: square"/>
    </g>
    <g id="text_17">
     <text style="font: 9px 'Arial', sans-serif; text-anchor: start" x="378.886761" y="72.487219" transform="rotate(-0 378.886761 72.487219)">T=20</text>
    </g>
    <g id="line2d_29">
     <path d="M 353.686761 82.547531 
L 353.686761 82.547531 
L 362.686761 82.547531 
L 362.686761 82.547531 
L 371.686761 82.547531 
" style="fill: none; stroke: #ce915a; stroke-width: 1.5; stroke-linecap: square"/>
    </g>
    <g id="text_18">
     <text style="font: 9px 'Arial', sans-serif; text-anchor: start" x="378.886761" y="85.697531" transform="rotate(-0 378.886761 85.697531)">T=50</text>
    </g>
    <g id="line2d_30">
     <path d="M 353.686761 95.757844 
L 353.686761 95.757844 
L 362.686761 95.757844 
L 362.686761 95.757844 
L 371.686761 95.757844 
" style="fill: none; stroke: #a04747; stroke-width: 1.5; stroke-linecap: square"/>
    </g>
    <g id="text_19">
     <text style="font: 9px 'Arial', sans-serif; text-anchor: start" x="378.886761" y="98.907844" transform="rotate(-0 378.886761 98.907844)">T=100</text>
    </g>
   </g>
  </g>
 </g>
 <defs>
  <clipPath id="p98b9fc8848">
   <rect x="41.223125" y="20.04" width="126.818182" height="110.88"/>
  </clipPath>
  <clipPath id="p2c33eddd5c">
   <rect x="193.404943" y="20.04" width="126.818182" height="110.88"/>
  </clipPath>
 </defs>
</svg>
