<?xml version="1.0" encoding="utf-8" standalone="no"?>
<!DOCTYPE svg PUBLIC "-//W3C//DTD SVG 1.1//EN"
  "http://www.w3.org/Graphics/SVG/1.1/DTD/svg11.dtd">
<svg xmlns:xlink="http://www.w3.org/1999/xlink" width="108.784375pt" height="78.782312pt" viewBox="0 0 108.784375 78.782312" xmlns="http://www.w3.org/2000/svg" version="1.1">
 <metadata>
  <rdf:RDF xmlns:dc="http://purl.org/dc/elements/1.1/" xmlns:cc="http://creativecommons.org/ns#" xmlns:rdf="http://www.w3.org/1999/02/22-rdf-syntax-ns#">
   <cc:Work>
    <dc:type rdf:resource="http://purl.org/dc/dcmitype/StillImage"/>
    <dc:date>2024-09-30T15:35:54.559595</dc:date>
    <dc:format>image/svg+xml</dc:format>
    <dc:creator>
     <cc:Agent>
      <dc:title>Matplotlib v3.9.2, https://matplotlib.org/</dc:title>
     </cc:Agent>
    </dc:creator>
   </cc:Work>
  </rdf:RDF>
 </metadata>
 <defs>
  <style type="text/css">*{stroke-linejoin: round; stroke-linecap: butt}</style>
 </defs>
 <g id="figure_1">
  <g id="patch_1">
   <path d="M 0 78.782312 
L 108.784375 78.782312 
L 108.784375 -0 
L 0 -0 
L 0 78.782312 
z
" style="fill: none"/>
  </g>
  <g id="axes_1">
   <g id="patch_2">
    <path d="M 27.467969 55.872 
L 94.427969 55.872 
L 94.427969 19.836 
L 27.467969 19.836 
L 27.467969 55.872 
z
" style="fill: none"/>
   </g>
   <g id="QuadContourSet_1">
    <path d="M 34.057796 49.916906 
L 34.393642 49.975109 
L 34.729489 49.975281 
L 35.065335 49.953606 
L 35.401181 49.922195 
L 35.737028 49.885464 
L 36.072874 49.845632 
L 36.40872 49.804259 
L 36.559049 49.785095 
L 36.744566 49.762136 
L 37.080413 49.717726 
L 37.416259 49.668345 
L 37.752105 49.613118 
L 37.897084 49.586849 
L 38.087952 49.554321 
L 38.423798 49.496127 
L 38.759644 49.438409 
L 39.049548 49.388604 
L 39.09549 49.381236 
L 39.431337 49.329637 
L 39.767183 49.280535 
L 40.103029 49.234416 
L 40.438876 49.191262 
L 40.446027 49.190358 
L 40.774722 49.152729 
L 41.110568 49.109245 
L 41.446414 49.056343 
L 41.781907 48.992113 
L 41.782261 48.992052 
L 42.118107 48.926212 
L 42.453953 48.85501 
L 42.725645 48.793867 
L 42.7898 48.780709 
L 43.125646 48.710529 
L 43.461492 48.634904 
L 43.621277 48.595622 
L 43.797338 48.55674 
L 44.133185 48.477012 
L 44.437671 48.397376 
L 44.469031 48.389934 
L 44.804877 48.310077 
L 45.140724 48.224766 
L 45.240167 48.199131 
L 45.47657 48.144323 
L 45.812416 48.062297 
L 46.046813 48.000885 
L 46.148262 47.977089 
L 46.484109 47.895973 
L 46.819955 47.809534 
L 46.847221 47.80264 
L 47.155801 47.733616 
L 47.491648 47.657265 
L 47.718099 47.604394 
L 47.827494 47.58203 
L 48.16334 47.511538 
L 48.499186 47.432579 
L 48.600313 47.406148 
L 48.835033 47.353709 
L 49.170879 47.269584 
L 49.390203 47.207903 
L 49.506725 47.179768 
L 49.842572 47.093263 
L 50.133497 47.009657 
L 50.178418 46.998474 
L 50.514264 46.913902 
L 50.85011 46.819643 
L 50.879689 46.811412 
L 51.185957 46.737447 
L 51.521803 46.648509 
L 51.650899 46.613166 
L 51.857649 46.563777 
L 52.193496 46.477786 
L 52.416976 46.414921 
L 52.529342 46.387223 
L 52.865188 46.298721 
L 53.133814 46.216675 
L 53.201034 46.198635 
L 53.536881 46.099919 
L 53.771583 46.01843 
L 53.872727 45.987382 
L 54.208573 45.870748 
L 54.336746 45.820184 
L 54.54442 45.746568 
L 54.848278 45.621939 
L 54.880266 45.60998 
L 55.216112 45.476423 
L 55.338138 45.423693 
L 55.551958 45.337608 
L 55.808317 45.225448 
L 55.887805 45.192684 
L 56.223651 45.048787 
L 56.273896 45.027202 
L 56.559497 44.910609 
L 56.747551 44.828956 
L 56.895344 44.767671 
L 57.205299 44.630711 
L 57.23119 44.619743 
L 57.567036 44.477122 
L 57.665807 44.432465 
L 57.902882 44.329704 
L 58.105549 44.23422 
L 58.238729 44.173922 
L 58.51977 44.035974 
L 58.574575 44.010079 
L 58.910421 43.838975 
L 58.912742 43.837729 
L 59.246268 43.666017 
L 59.293844 43.639483 
L 59.582114 43.484415 
L 59.65696 43.441238 
L 59.91796 43.294597 
L 60.00466 43.242992 
L 60.253806 43.096528 
L 60.338206 43.044747 
L 60.589653 42.889655 
L 60.657917 42.846501 
L 60.925499 42.672934 
L 60.963412 42.648255 
L 61.255308 42.45001 
L 61.261345 42.445803 
L 61.543618 42.251764 
L 61.597192 42.212228 
L 61.820612 42.053519 
L 61.933038 41.966105 
L 62.084904 41.855273 
L 62.268884 41.705643 
L 62.334137 41.657028 
L 62.576186 41.458782 
L 62.60473 41.433768 
L 62.823452 41.260537 
L 62.940577 41.154288 
L 63.054938 41.062291 
L 63.268732 40.864046 
L 63.276423 40.856609 
L 63.500265 40.6658 
L 63.612269 40.553586 
L 63.71097 40.467554 
L 63.910747 40.269309 
L 63.948116 40.229318 
L 64.118761 40.071063 
L 64.283962 39.885937 
L 64.297608 39.872818 
L 64.495794 39.674572 
L 64.619808 39.525181 
L 64.667413 39.476327 
L 64.846676 39.278081 
L 64.955654 39.135976 
L 65.006658 39.079836 
L 65.172082 38.88159 
L 65.291501 38.710645 
L 65.314335 38.683345 
L 65.468592 38.485099 
L 65.596177 38.286854 
L 65.627347 38.233167 
L 65.729384 38.088608 
L 65.849178 37.890362 
L 65.949453 37.692117 
L 65.963193 37.66197 
L 66.058162 37.493871 
L 66.154126 37.295626 
L 66.235789 37.09738 
L 66.29904 36.920061 
L 66.308524 36.899135 
L 66.393168 36.700889 
L 66.467975 36.502644 
L 66.534778 36.304398 
L 66.595445 36.106153 
L 66.634886 35.970477 
L 66.658597 35.907907 
L 66.733121 35.709661 
L 66.804464 35.511416 
L 66.873589 35.31317 
L 66.940622 35.114925 
L 66.970732 35.024767 
L 67.017334 34.916679 
L 67.097202 34.718434 
L 67.166579 34.520188 
L 67.223372 34.321943 
L 67.265378 34.123697 
L 67.290519 33.925452 
L 67.297979 33.727206 
L 67.290275 33.528961 
L 67.274499 33.330715 
L 67.26025 33.132469 
L 67.25506 32.934224 
L 67.261529 32.735978 
L 67.277836 32.537733 
L 67.299567 32.339487 
L 67.306578 32.272678 
L 67.3239 32.141242 
L 67.34155 31.942996 
L 67.345727 31.744751 
L 67.333138 31.546505 
L 67.306578 31.365979 
L 67.304407 31.34826 
L 67.272454 31.150014 
L 67.238279 30.951768 
L 67.207834 30.753523 
L 67.185527 30.555277 
L 67.172711 30.357032 
L 67.167065 30.158786 
L 67.163219 29.960541 
L 67.153746 29.762295 
L 67.129939 29.56405 
L 67.082971 29.365804 
L 67.006768 29.167559 
L 66.970732 29.094302 
L 66.908976 28.969313 
L 66.80077 28.771068 
L 66.686164 28.572822 
L 66.634886 28.486551 
L 66.571412 28.374576 
L 66.44729 28.176331 
L 66.30171 27.978085 
L 66.29904 27.974646 
L 66.153261 27.77984 
L 65.985255 27.581594 
L 65.963193 27.557384 
L 65.797332 27.383349 
L 65.627347 27.240385 
L 65.548262 27.185103 
L 65.291501 27.030119 
L 65.20517 26.986858 
L 64.955654 26.858771 
L 64.804429 26.788612 
L 64.619808 26.699922 
L 64.308748 26.590367 
L 64.283962 26.582491 
L 63.948116 26.510104 
L 63.612269 26.454794 
L 63.300623 26.392121 
L 63.276423 26.386595 
L 62.940577 26.284 
L 62.650833 26.193875 
L 62.60473 26.177308 
L 62.268884 26.099518 
L 61.933038 26.091299 
L 61.597192 26.1578 
L 61.505798 26.193875 
L 61.261345 26.283722 
L 61.057902 26.392121 
L 60.925499 26.460703 
L 60.722719 26.590367 
L 60.589653 26.676372 
L 60.43375 26.788612 
L 60.253806 26.924178 
L 60.173356 26.986858 
L 59.93435 27.185103 
L 59.91796 27.198966 
L 59.696988 27.383349 
L 59.582114 27.489655 
L 59.476791 27.581594 
L 59.272473 27.77984 
L 59.246268 27.806515 
L 59.062769 27.978085 
L 58.910421 28.146394 
L 58.880192 28.176331 
L 58.691508 28.374576 
L 58.574575 28.520188 
L 58.526934 28.572822 
L 58.361254 28.771068 
L 58.238729 28.945318 
L 58.219647 28.969313 
L 58.069393 29.167559 
L 57.941481 29.365804 
L 57.902882 29.428119 
L 57.809064 29.56405 
L 57.683618 29.762295 
L 57.567036 29.960541 
L 57.567036 29.960541 
L 57.436482 30.158786 
L 57.312006 30.357032 
L 57.23119 30.486049 
L 57.184252 30.555277 
L 57.046664 30.753523 
L 56.914013 30.951768 
L 56.895344 30.978531 
L 56.766327 31.150014 
L 56.623697 31.34826 
L 56.559497 31.438768 
L 56.47618 31.546505 
L 56.327813 31.744751 
L 56.223651 31.893495 
L 56.185248 31.942996 
L 56.034688 32.141242 
L 55.898846 32.339487 
L 55.887805 32.355966 
L 55.750827 32.537733 
L 55.616119 32.735978 
L 55.551958 32.837245 
L 55.481758 32.934224 
L 55.34948 33.132469 
L 55.230621 33.330715 
L 55.216112 33.356792 
L 55.104648 33.528961 
L 54.988778 33.727206 
L 54.88609 33.925452 
L 54.880266 33.937382 
L 54.77129 34.123697 
L 54.665654 34.321943 
L 54.571839 34.520188 
L 54.54442 34.580658 
L 54.46719 34.718434 
L 54.363901 34.916679 
L 54.272592 35.114925 
L 54.208573 35.266887 
L 54.184039 35.31317 
L 54.082349 35.511416 
L 53.992078 35.709661 
L 53.909557 35.907907 
L 53.872727 35.997432 
L 53.817366 36.106153 
L 53.718623 36.304398 
L 53.624177 36.502644 
L 53.536881 36.69047 
L 53.530995 36.700889 
L 53.414189 36.899135 
L 53.303707 37.09738 
L 53.201034 37.292675 
L 53.199175 37.295626 
L 53.074245 37.493871 
L 52.960453 37.692117 
L 52.865188 37.873898 
L 52.854859 37.890362 
L 52.736155 38.088608 
L 52.629048 38.286854 
L 52.53229 38.485099 
L 52.529342 38.491455 
L 52.421532 38.683345 
L 52.319225 38.88159 
L 52.226302 39.079836 
L 52.193496 39.154242 
L 52.126671 39.278081 
L 52.02535 39.476327 
L 51.932578 39.674572 
L 51.857649 39.84599 
L 51.843257 39.872818 
L 51.730503 40.071063 
L 51.621325 40.269309 
L 51.521803 40.452251 
L 51.511779 40.467554 
L 51.364406 40.6658 
L 51.222798 40.864046 
L 51.185957 40.911537 
L 51.048819 41.062291 
L 50.87429 41.260537 
L 50.85011 41.286421 
L 50.6631 41.458782 
L 50.514264 41.601523 
L 50.447741 41.657028 
L 50.208884 41.855273 
L 50.178418 41.880328 
L 49.938706 42.053519 
L 49.842572 42.123557 
L 49.647962 42.251764 
L 49.506725 42.343733 
L 49.333451 42.45001 
L 49.170879 42.547103 
L 48.998937 42.648255 
L 48.835033 42.741358 
L 48.654014 42.846501 
L 48.499186 42.933137 
L 48.308386 43.044747 
L 48.16334 43.126665 
L 47.967439 43.242992 
L 47.827494 43.323602 
L 47.631969 43.441238 
L 47.491648 43.523583 
L 47.299965 43.639483 
L 47.155801 43.724966 
L 46.968164 43.837729 
L 46.819955 43.925515 
L 46.632743 44.035974 
L 46.484109 44.12282 
L 46.289289 44.23422 
L 46.148262 44.314429 
L 45.932204 44.432465 
L 45.812416 44.497798 
L 45.553646 44.630711 
L 45.47657 44.670322 
L 45.142353 44.828956 
L 45.140724 44.82973 
L 44.804877 44.966643 
L 44.645044 45.027202 
L 44.469031 45.091636 
L 44.133185 45.207389 
L 44.080177 45.225448 
L 43.797338 45.31492 
L 43.4767 45.423693 
L 43.461492 45.428508 
L 43.125646 45.539579 
L 42.896773 45.621939 
L 42.7898 45.658001 
L 42.453953 45.774979 
L 42.326641 45.820184 
L 42.118107 45.890442 
L 41.782261 46.005403 
L 41.742637 46.01843 
L 41.446414 46.111406 
L 41.12232 46.216675 
L 41.110568 46.220383 
L 40.774722 46.322661 
L 40.495055 46.414921 
L 40.438876 46.432912 
L 40.103029 46.545225 
L 39.917835 46.613166 
L 39.767183 46.666878 
L 39.431337 46.794872 
L 39.389251 46.811412 
L 39.09549 46.924406 
L 38.876851 47.009657 
L 38.759644 47.05522 
L 38.423798 47.18041 
L 38.345457 47.207903 
L 38.087952 47.297848 
L 37.75855 47.406148 
L 37.752105 47.408295 
L 37.416259 47.510544 
L 37.103431 47.604394 
L 37.080413 47.611387 
L 36.744566 47.71102 
L 36.451551 47.80264 
L 36.40872 47.816341 
L 36.072874 47.928199 
L 35.87561 48.000885 
L 35.737028 48.053672 
L 35.401181 48.195015 
L 35.392322 48.199131 
L 35.065335 48.358759 
L 34.992659 48.397376 
L 34.729489 48.549895 
L 34.653956 48.595622 
L 34.393642 48.77579 
L 34.367243 48.793867 
L 34.128548 48.992113 
L 34.057796 49.068509 
L 33.937102 49.190358 
L 33.809819 49.388604 
L 33.756176 49.586849 
L 33.830072 49.785095 
z
M 44.707582 47.009657 
L 44.469031 46.922638 
L 44.385359 46.811412 
L 44.469031 46.675983 
L 44.498821 46.613166 
L 44.711547 46.414921 
L 44.804877 46.351157 
L 44.972213 46.216675 
L 45.140724 46.105112 
L 45.257304 46.01843 
L 45.47657 45.876976 
L 45.557637 45.820184 
L 45.812416 45.659986 
L 45.869566 45.621939 
L 46.148262 45.451393 
L 46.191918 45.423693 
L 46.484109 45.25007 
L 46.524845 45.225448 
L 46.819955 45.055694 
L 46.869527 45.027202 
L 47.155801 44.868354 
L 47.22788 44.828956 
L 47.491648 44.688095 
L 47.601378 44.630711 
L 47.827494 44.514226 
L 47.988332 44.432465 
L 48.16334 44.344528 
L 48.380567 44.23422 
L 48.499186 44.174763 
L 48.76342 44.035974 
L 48.835033 43.999026 
L 49.122191 43.837729 
L 49.170879 43.811022 
L 49.450053 43.639483 
L 49.506725 43.605626 
L 49.749187 43.441238 
L 49.842572 43.379755 
L 50.025866 43.242992 
L 50.178418 43.132212 
L 50.285862 43.044747 
L 50.514264 42.862895 
L 50.532909 42.846501 
L 50.75591 42.648255 
L 50.85011 42.566394 
L 50.971234 42.45001 
L 51.182567 42.251764 
L 51.185957 42.248596 
L 51.374477 42.053519 
L 51.521803 41.906803 
L 51.569255 41.855273 
L 51.752874 41.657028 
L 51.857649 41.54768 
L 51.935873 41.458782 
L 52.112541 41.260537 
L 52.193496 41.171691 
L 52.285257 41.062291 
L 52.452703 40.864046 
L 52.529342 40.774113 
L 52.61438 40.6658 
L 52.768589 40.467554 
L 52.865188 40.344378 
L 52.919274 40.269309 
L 53.057275 40.071063 
L 53.199663 39.872818 
L 53.201034 39.87081 
L 53.321357 39.674572 
L 53.445344 39.476327 
L 53.536881 39.331313 
L 53.566834 39.278081 
L 53.673564 39.079836 
L 53.782126 38.88159 
L 53.872727 38.716597 
L 53.888737 38.683345 
L 53.979754 38.485099 
L 54.072607 38.286854 
L 54.16857 38.088608 
L 54.208573 38.008034 
L 54.259018 37.890362 
L 54.348525 37.692117 
L 54.445598 37.493871 
L 54.54442 37.308636 
L 54.550418 37.295626 
L 54.645423 37.09738 
L 54.747491 36.899135 
L 54.856519 36.700889 
L 54.880266 36.658127 
L 54.955238 36.502644 
L 55.053597 36.304398 
L 55.156064 36.106153 
L 55.216112 35.99205 
L 55.254756 35.907907 
L 55.347073 35.709661 
L 55.445724 35.511416 
L 55.551958 35.315056 
L 55.552857 35.31317 
L 55.650787 35.114925 
L 55.76005 34.916679 
L 55.882637 34.718434 
L 55.887805 34.710432 
L 55.998325 34.520188 
L 56.126266 34.321943 
L 56.223651 34.182305 
L 56.261097 34.123697 
L 56.391669 33.925452 
L 56.533466 33.727206 
L 56.559497 33.69061 
L 56.666255 33.528961 
L 56.803219 33.330715 
L 56.895344 33.200577 
L 56.940479 33.132469 
L 57.071311 32.934224 
L 57.209929 32.735978 
L 57.23119 32.705655 
L 57.341671 32.537733 
L 57.481136 32.339487 
L 57.567036 32.224352 
L 57.625736 32.141242 
L 57.774268 31.942996 
L 57.902882 31.784673 
L 57.933935 31.744751 
L 58.095593 31.546505 
L 58.238729 31.38318 
L 58.26842 31.34826 
L 58.441535 31.150014 
L 58.574575 31.00478 
L 58.622404 30.951768 
L 58.802068 30.753523 
L 58.910421 30.636327 
L 58.985623 30.555277 
L 59.167709 30.357032 
L 59.246268 30.270951 
L 59.351636 30.158786 
L 59.535923 29.960541 
L 59.582114 29.909369 
L 59.723649 29.762295 
L 59.916095 29.56405 
L 59.91796 29.562032 
L 60.120977 29.365804 
L 60.253806 29.239584 
L 60.343696 29.167559 
L 60.589653 28.972979 
L 60.595543 28.969313 
L 60.915718 28.771068 
L 60.925499 28.765119 
L 61.261345 28.617061 
L 61.420168 28.572822 
L 61.597192 28.523345 
L 61.933038 28.475063 
L 62.268884 28.470377 
L 62.60473 28.50711 
L 62.940577 28.572822 
L 62.940577 28.572822 
L 63.276423 28.647312 
L 63.612269 28.735435 
L 63.711116 28.771068 
L 63.948116 28.859297 
L 64.14432 28.969313 
L 64.283962 29.056133 
L 64.415507 29.167559 
L 64.615603 29.365804 
L 64.619808 29.370394 
L 64.77659 29.56405 
L 64.92741 29.762295 
L 64.955654 29.798492 
L 65.084468 29.960541 
L 65.23944 30.158786 
L 65.291501 30.232125 
L 65.37224 30.357032 
L 65.46669 30.555277 
L 65.527278 30.753523 
L 65.565355 30.951768 
L 65.591798 31.150014 
L 65.614027 31.34826 
L 65.627347 31.469698 
L 65.63646 31.546505 
L 65.660496 31.744751 
L 65.684056 31.942996 
L 65.706915 32.141242 
L 65.729629 32.339487 
L 65.752653 32.537733 
L 65.775423 32.735978 
L 65.796367 32.934224 
L 65.8139 33.132469 
L 65.827345 33.330715 
L 65.836919 33.528961 
L 65.842914 33.727206 
L 65.844839 33.925452 
L 65.841082 34.123697 
L 65.829337 34.321943 
L 65.807526 34.520188 
L 65.774589 34.718434 
L 65.730633 34.916679 
L 65.676503 35.114925 
L 65.627347 35.269457 
L 65.61576 35.31317 
L 65.558038 35.511416 
L 65.495392 35.709661 
L 65.42752 35.907907 
L 65.353386 36.106153 
L 65.291501 36.257781 
L 65.275523 36.304398 
L 65.203401 36.502644 
L 65.122925 36.700889 
L 65.032194 36.899135 
L 64.955654 37.049753 
L 64.934966 37.09738 
L 64.843532 37.295626 
L 64.740938 37.493871 
L 64.62607 37.692117 
L 64.619808 37.702588 
L 64.521649 37.890362 
L 64.406008 38.088608 
L 64.283962 38.275881 
L 64.277612 38.286854 
L 64.157081 38.485099 
L 64.020241 38.683345 
L 63.948116 38.778223 
L 63.877678 38.88159 
L 63.728238 39.079836 
L 63.612269 39.216454 
L 63.564873 39.278081 
L 63.398718 39.476327 
L 63.276423 39.606215 
L 63.217479 39.674572 
L 63.031658 39.872818 
L 62.940577 39.96143 
L 62.836247 40.071063 
L 62.62768 40.269309 
L 62.60473 40.290153 
L 62.42197 40.467554 
L 62.268884 40.602266 
L 62.200574 40.6658 
L 61.972652 40.864046 
L 61.933038 40.897061 
L 61.743258 41.062291 
L 61.597192 41.179657 
L 61.499774 41.260537 
L 61.261345 41.444242 
L 61.242899 41.458782 
L 60.981607 41.657028 
L 60.925499 41.697347 
L 60.707308 41.855273 
L 60.589653 41.935481 
L 60.416379 42.053519 
L 60.253806 42.158657 
L 60.108853 42.251764 
L 59.91796 42.369259 
L 59.785154 42.45001 
L 59.582114 42.569583 
L 59.446065 42.648255 
L 59.246268 42.761492 
L 59.092332 42.846501 
L 58.910421 42.946194 
L 58.724161 43.044747 
L 58.574575 43.12426 
L 58.341071 43.242992 
L 58.238729 43.295852 
L 57.942341 43.441238 
L 57.902882 43.461073 
L 57.567036 43.623342 
L 57.532367 43.639483 
L 57.23119 43.784379 
L 57.114785 43.837729 
L 56.895344 43.941777 
L 56.687379 44.035974 
L 56.559497 44.095937 
L 56.250042 44.23422 
L 56.223651 44.246449 
L 55.887805 44.397646 
L 55.805429 44.432465 
L 55.551958 44.544414 
L 55.338116 44.630711 
L 55.216112 44.682583 
L 54.880266 44.812029 
L 54.832129 44.828956 
L 54.54442 44.936822 
L 54.270649 45.027202 
L 54.208573 45.049206 
L 53.872727 45.157893 
L 53.643122 45.225448 
L 53.536881 45.258957 
L 53.201034 45.358422 
L 52.968064 45.423693 
L 52.865188 45.454342 
L 52.529342 45.551233 
L 52.273763 45.621939 
L 52.193496 45.645396 
L 51.857649 45.741531 
L 51.568547 45.820184 
L 51.521803 45.833621 
L 51.185957 45.926807 
L 50.85011 46.012719 
L 50.825635 46.01843 
L 50.514264 46.09605 
L 50.178418 46.169496 
L 49.931049 46.216675 
L 49.842572 46.234884 
L 49.506725 46.291944 
L 49.170879 46.341909 
L 48.835033 46.38815 
L 48.632431 46.414921 
L 48.499186 46.433104 
L 48.16334 46.477561 
L 47.827494 46.52488 
L 47.491648 46.57852 
L 47.301061 46.613166 
L 47.155801 46.638895 
L 46.819955 46.702808 
L 46.484109 46.771154 
L 46.289105 46.811412 
L 46.148262 46.839415 
L 45.812416 46.899947 
L 45.47657 46.955951 
L 45.140724 47.003739 
L 45.016489 47.009657 
L 44.804877 47.018613 
z
" clip-path="url(#pd67e2dd1f2)" style="fill: #f9fcfc; fill-opacity: 0.99"/>
    <path d="M 44.804877 47.018613 
L 45.016489 47.009657 
L 45.140724 47.003739 
L 45.47657 46.955951 
L 45.812416 46.899947 
L 46.148262 46.839415 
L 46.289105 46.811412 
L 46.484109 46.771154 
L 46.819955 46.702808 
L 47.155801 46.638895 
L 47.301061 46.613166 
L 47.491648 46.57852 
L 47.827494 46.52488 
L 48.16334 46.477561 
L 48.499186 46.433104 
L 48.632431 46.414921 
L 48.835033 46.38815 
L 49.170879 46.341909 
L 49.506725 46.291944 
L 49.842572 46.234884 
L 49.931049 46.216675 
L 50.178418 46.169496 
L 50.514264 46.09605 
L 50.825635 46.01843 
L 50.85011 46.012719 
L 51.185957 45.926807 
L 51.521803 45.833621 
L 51.568547 45.820184 
L 51.857649 45.741531 
L 52.193496 45.645396 
L 52.273763 45.621939 
L 52.529342 45.551233 
L 52.865188 45.454342 
L 52.968064 45.423693 
L 53.201034 45.358422 
L 53.536881 45.258957 
L 53.643122 45.225448 
L 53.872727 45.157893 
L 54.208573 45.049206 
L 54.270649 45.027202 
L 54.54442 44.936822 
L 54.832129 44.828956 
L 54.880266 44.812029 
L 55.216112 44.682583 
L 55.338116 44.630711 
L 55.551958 44.544414 
L 55.805429 44.432465 
L 55.887805 44.397646 
L 56.223651 44.246449 
L 56.250042 44.23422 
L 56.559497 44.095937 
L 56.687379 44.035974 
L 56.895344 43.941777 
L 57.114785 43.837729 
L 57.23119 43.784379 
L 57.532367 43.639483 
L 57.567036 43.623342 
L 57.902882 43.461073 
L 57.942341 43.441238 
L 58.238729 43.295852 
L 58.341071 43.242992 
L 58.574575 43.12426 
L 58.724161 43.044747 
L 58.910421 42.946194 
L 59.092332 42.846501 
L 59.246268 42.761492 
L 59.446065 42.648255 
L 59.582114 42.569583 
L 59.785154 42.45001 
L 59.91796 42.369259 
L 60.108853 42.251764 
L 60.253806 42.158657 
L 60.416379 42.053519 
L 60.589653 41.935481 
L 60.707308 41.855273 
L 60.925499 41.697347 
L 60.981607 41.657028 
L 61.242899 41.458782 
L 61.261345 41.444242 
L 61.499774 41.260537 
L 61.597192 41.179657 
L 61.743258 41.062291 
L 61.933038 40.897061 
L 61.972652 40.864046 
L 62.200574 40.6658 
L 62.268884 40.602266 
L 62.42197 40.467554 
L 62.60473 40.290153 
L 62.62768 40.269309 
L 62.836247 40.071063 
L 62.940577 39.96143 
L 63.031658 39.872818 
L 63.217479 39.674572 
L 63.276423 39.606215 
L 63.398718 39.476327 
L 63.564873 39.278081 
L 63.612269 39.216454 
L 63.728238 39.079836 
L 63.877678 38.88159 
L 63.948116 38.778223 
L 64.020241 38.683345 
L 64.157081 38.485099 
L 64.277612 38.286854 
L 64.283962 38.275881 
L 64.406008 38.088608 
L 64.521649 37.890362 
L 64.619808 37.702588 
L 64.62607 37.692117 
L 64.740938 37.493871 
L 64.843532 37.295626 
L 64.934966 37.09738 
L 64.955654 37.049753 
L 65.032194 36.899135 
L 65.122925 36.700889 
L 65.203401 36.502644 
L 65.275523 36.304398 
L 65.291501 36.257781 
L 65.353386 36.106153 
L 65.42752 35.907907 
L 65.495392 35.709661 
L 65.558038 35.511416 
L 65.61576 35.31317 
L 65.627347 35.269457 
L 65.676503 35.114925 
L 65.730633 34.916679 
L 65.774589 34.718434 
L 65.807526 34.520188 
L 65.829337 34.321943 
L 65.841082 34.123697 
L 65.844839 33.925452 
L 65.842914 33.727206 
L 65.836919 33.528961 
L 65.827345 33.330715 
L 65.8139 33.132469 
L 65.796367 32.934224 
L 65.775423 32.735978 
L 65.752653 32.537733 
L 65.729629 32.339487 
L 65.706915 32.141242 
L 65.684056 31.942996 
L 65.660496 31.744751 
L 65.63646 31.546505 
L 65.627347 31.469698 
L 65.614027 31.34826 
L 65.591798 31.150014 
L 65.565355 30.951768 
L 65.527278 30.753523 
L 65.46669 30.555277 
L 65.37224 30.357032 
L 65.291501 30.232125 
L 65.23944 30.158786 
L 65.084468 29.960541 
L 64.955654 29.798492 
L 64.92741 29.762295 
L 64.77659 29.56405 
L 64.619808 29.370394 
L 64.615603 29.365804 
L 64.415507 29.167559 
L 64.283962 29.056133 
L 64.14432 28.969313 
L 63.948116 28.859297 
L 63.711116 28.771068 
L 63.612269 28.735435 
L 63.276423 28.647312 
L 62.940577 28.572822 
L 62.940577 28.572822 
L 62.60473 28.50711 
L 62.268884 28.470377 
L 61.933038 28.475063 
L 61.597192 28.523345 
L 61.420168 28.572822 
L 61.261345 28.617061 
L 60.925499 28.765119 
L 60.915718 28.771068 
L 60.595543 28.969313 
L 60.589653 28.972979 
L 60.343696 29.167559 
L 60.253806 29.239584 
L 60.120977 29.365804 
L 59.91796 29.562032 
L 59.916095 29.56405 
L 59.723649 29.762295 
L 59.582114 29.909369 
L 59.535923 29.960541 
L 59.351636 30.158786 
L 59.246268 30.270951 
L 59.167709 30.357032 
L 58.985623 30.555277 
L 58.910421 30.636327 
L 58.802068 30.753523 
L 58.622404 30.951768 
L 58.574575 31.00478 
L 58.441535 31.150014 
L 58.26842 31.34826 
L 58.238729 31.38318 
L 58.095593 31.546505 
L 57.933935 31.744751 
L 57.902882 31.784673 
L 57.774268 31.942996 
L 57.625736 32.141242 
L 57.567036 32.224352 
L 57.481136 32.339487 
L 57.341671 32.537733 
L 57.23119 32.705655 
L 57.209929 32.735978 
L 57.071311 32.934224 
L 56.940479 33.132469 
L 56.895344 33.200577 
L 56.803219 33.330715 
L 56.666255 33.528961 
L 56.559497 33.69061 
L 56.533466 33.727206 
L 56.391669 33.925452 
L 56.261097 34.123697 
L 56.223651 34.182305 
L 56.126266 34.321943 
L 55.998325 34.520188 
L 55.887805 34.710432 
L 55.882637 34.718434 
L 55.76005 34.916679 
L 55.650787 35.114925 
L 55.552857 35.31317 
L 55.551958 35.315056 
L 55.445724 35.511416 
L 55.347073 35.709661 
L 55.254756 35.907907 
L 55.216112 35.99205 
L 55.156064 36.106153 
L 55.053597 36.304398 
L 54.955238 36.502644 
L 54.880266 36.658127 
L 54.856519 36.700889 
L 54.747491 36.899135 
L 54.645423 37.09738 
L 54.550418 37.295626 
L 54.54442 37.308636 
L 54.445598 37.493871 
L 54.348525 37.692117 
L 54.259018 37.890362 
L 54.208573 38.008034 
L 54.16857 38.088608 
L 54.072607 38.286854 
L 53.979754 38.485099 
L 53.888737 38.683345 
L 53.872727 38.716597 
L 53.782126 38.88159 
L 53.673564 39.079836 
L 53.566834 39.278081 
L 53.536881 39.331313 
L 53.445344 39.476327 
L 53.321357 39.674572 
L 53.201034 39.87081 
L 53.199663 39.872818 
L 53.057275 40.071063 
L 52.919274 40.269309 
L 52.865188 40.344378 
L 52.768589 40.467554 
L 52.61438 40.6658 
L 52.529342 40.774113 
L 52.452703 40.864046 
L 52.285257 41.062291 
L 52.193496 41.171691 
L 52.112541 41.260537 
L 51.935873 41.458782 
L 51.857649 41.54768 
L 51.752874 41.657028 
L 51.569255 41.855273 
L 51.521803 41.906803 
L 51.374477 42.053519 
L 51.185957 42.248596 
L 51.182567 42.251764 
L 50.971234 42.45001 
L 50.85011 42.566394 
L 50.75591 42.648255 
L 50.532909 42.846501 
L 50.514264 42.862895 
L 50.285862 43.044747 
L 50.178418 43.132212 
L 50.025866 43.242992 
L 49.842572 43.379755 
L 49.749187 43.441238 
L 49.506725 43.605626 
L 49.450053 43.639483 
L 49.170879 43.811022 
L 49.122191 43.837729 
L 48.835033 43.999026 
L 48.76342 44.035974 
L 48.499186 44.174763 
L 48.380567 44.23422 
L 48.16334 44.344528 
L 47.988332 44.432465 
L 47.827494 44.514226 
L 47.601378 44.630711 
L 47.491648 44.688095 
L 47.22788 44.828956 
L 47.155801 44.868354 
L 46.869527 45.027202 
L 46.819955 45.055694 
L 46.524845 45.225448 
L 46.484109 45.25007 
L 46.191918 45.423693 
L 46.148262 45.451393 
L 45.869566 45.621939 
L 45.812416 45.659986 
L 45.557637 45.820184 
L 45.47657 45.876976 
L 45.257304 46.01843 
L 45.140724 46.105112 
L 44.972213 46.216675 
L 44.804877 46.351157 
L 44.711547 46.414921 
L 44.498821 46.613166 
L 44.469031 46.675983 
L 44.385359 46.811412 
L 44.469031 46.922638 
L 44.707582 47.009657 
z
M 49.513977 45.225448 
L 49.506725 45.216105 
L 49.416336 45.027202 
L 49.480366 44.828956 
L 49.506725 44.796581 
L 49.620458 44.630711 
L 49.799522 44.432465 
L 49.842572 44.394161 
L 50.001481 44.23422 
L 50.178418 44.07446 
L 50.216989 44.035974 
L 50.437125 43.837729 
L 50.514264 43.772441 
L 50.659715 43.639483 
L 50.85011 43.471609 
L 50.882332 43.441238 
L 51.098889 43.242992 
L 51.185957 43.164197 
L 51.310623 43.044747 
L 51.51814 42.846501 
L 51.521803 42.842967 
L 51.713324 42.648255 
L 51.857649 42.500867 
L 51.905021 42.45001 
L 52.087265 42.251764 
L 52.193496 42.135558 
L 52.265069 42.053519 
L 52.437331 41.855273 
L 52.529342 41.749491 
L 52.606406 41.657028 
L 52.772535 41.458782 
L 52.865188 41.348857 
L 52.93681 41.260537 
L 53.098297 41.062291 
L 53.201034 40.936333 
L 53.257821 40.864046 
L 53.412397 40.6658 
L 53.536881 40.504902 
L 53.564559 40.467554 
L 53.70821 40.269309 
L 53.849899 40.071063 
L 53.872727 40.038478 
L 53.98164 39.872818 
L 54.109665 39.674572 
L 54.208573 39.521144 
L 54.23516 39.476327 
L 54.34986 39.278081 
L 54.464905 39.079836 
L 54.54442 38.94366 
L 54.576834 38.88159 
L 54.677542 38.683345 
L 54.778833 38.485099 
L 54.880266 38.289397 
L 54.881422 38.286854 
L 54.967698 38.088608 
L 55.05598 37.890362 
L 55.148031 37.692117 
L 55.216112 37.551611 
L 55.240519 37.493871 
L 55.327946 37.295626 
L 55.422877 37.09738 
L 55.525516 36.899135 
L 55.551958 36.849799 
L 55.623005 36.700889 
L 55.722503 36.502644 
L 55.827096 36.304398 
L 55.887805 36.191728 
L 55.929564 36.106153 
L 56.027436 35.907907 
L 56.129738 35.709661 
L 56.223651 35.536976 
L 56.236367 35.511416 
L 56.337547 35.31317 
L 56.447641 35.114925 
L 56.559497 34.932571 
L 56.568489 34.916679 
L 56.686839 34.718434 
L 56.819218 34.520188 
L 56.895344 34.415215 
L 56.958566 34.321943 
L 57.102645 34.123697 
L 57.23119 33.961941 
L 57.258741 33.925452 
L 57.412414 33.727206 
L 57.567036 33.542838 
L 57.57829 33.528961 
L 57.7376 33.330715 
L 57.902882 33.137466 
L 57.907097 33.132469 
L 58.069061 32.934224 
L 58.238729 32.73672 
L 58.239372 32.735978 
L 58.404972 32.537733 
L 58.574575 32.343623 
L 58.578328 32.339487 
L 58.753528 32.141242 
L 58.910421 31.970106 
L 58.937086 31.942996 
L 59.130267 31.744751 
L 59.246268 31.627282 
L 59.334977 31.546505 
L 59.552073 31.34826 
L 59.582114 31.320231 
L 59.793036 31.150014 
L 59.91796 31.046573 
L 60.056338 30.951768 
L 60.253806 30.811116 
L 60.355976 30.753523 
L 60.589653 30.615938 
L 60.725973 30.555277 
L 60.925499 30.462893 
L 61.244513 30.357032 
L 61.261345 30.351275 
L 61.597192 30.264111 
L 61.933038 30.201313 
L 62.262075 30.158786 
L 62.268884 30.157874 
L 62.60473 30.136695 
L 62.940577 30.157006 
L 62.948059 30.158786 
L 63.276423 30.241571 
L 63.495682 30.357032 
L 63.612269 30.425776 
L 63.769324 30.555277 
L 63.948116 30.714224 
L 63.987031 30.753523 
L 64.172874 30.951768 
L 64.283962 31.091232 
L 64.324354 31.150014 
L 64.432606 31.34826 
L 64.511047 31.546505 
L 64.570639 31.744751 
L 64.619808 31.942996 
L 64.619808 31.942996 
L 64.663944 32.141242 
L 64.702913 32.339487 
L 64.736714 32.537733 
L 64.766661 32.735978 
L 64.795357 32.934224 
L 64.825483 33.132469 
L 64.858258 33.330715 
L 64.892498 33.528961 
L 64.925029 33.727206 
L 64.952249 33.925452 
L 64.955654 33.959278 
L 64.972438 34.123697 
L 64.983149 34.321943 
L 64.983368 34.520188 
L 64.972494 34.718434 
L 64.955654 34.867811 
L 64.950777 34.916679 
L 64.920955 35.114925 
L 64.882338 35.31317 
L 64.835741 35.511416 
L 64.781796 35.709661 
L 64.720692 35.907907 
L 64.651964 36.106153 
L 64.619808 36.189749 
L 64.580716 36.304398 
L 64.506462 36.502644 
L 64.423424 36.700889 
L 64.329418 36.899135 
L 64.283962 36.985872 
L 64.23179 37.09738 
L 64.130294 37.295626 
L 64.016293 37.493871 
L 63.948116 37.603047 
L 63.897727 37.692117 
L 63.778597 37.890362 
L 63.646861 38.088608 
L 63.612269 38.138919 
L 63.518905 38.286854 
L 63.384376 38.485099 
L 63.276423 38.632873 
L 63.242205 38.683345 
L 63.102117 38.88159 
L 62.946866 39.079836 
L 62.940577 39.087489 
L 62.794653 39.278081 
L 62.625095 39.476327 
L 62.60473 39.498648 
L 62.454144 39.674572 
L 62.268884 39.868459 
L 62.264939 39.872818 
L 62.075354 40.071063 
L 61.933038 40.206053 
L 61.869448 40.269309 
L 61.655907 40.467554 
L 61.597192 40.518731 
L 61.435016 40.6658 
L 61.261345 40.811237 
L 61.200183 40.864046 
L 60.956217 41.062291 
L 60.925499 41.086131 
L 60.705481 41.260537 
L 60.589653 41.346454 
L 60.439935 41.458782 
L 60.253806 41.590418 
L 60.159678 41.657028 
L 59.91796 41.819737 
L 59.864558 41.855273 
L 59.582114 42.036016 
L 59.554079 42.053519 
L 59.246268 42.240602 
L 59.227192 42.251764 
L 58.910421 42.434529 
L 58.882224 42.45001 
L 58.574575 42.618611 
L 58.517295 42.648255 
L 58.238729 42.793698 
L 58.131442 42.846501 
L 57.902882 42.960927 
L 57.726017 43.044747 
L 57.567036 43.121815 
L 57.305028 43.242992 
L 57.23119 43.278036 
L 56.895344 43.431828 
L 56.874361 43.441238 
L 56.559497 43.586189 
L 56.438646 43.639483 
L 56.223651 43.737172 
L 55.989274 43.837729 
L 55.887805 43.882789 
L 55.551958 44.021541 
L 55.513795 44.035974 
L 55.216112 44.153678 
L 54.988632 44.23422 
L 54.880266 44.274493 
L 54.54442 44.385692 
L 54.38809 44.432465 
L 54.208573 44.488731 
L 53.872727 44.585174 
L 53.706472 44.630711 
L 53.536881 44.678786 
L 53.201034 44.771099 
L 52.990452 44.828956 
L 52.865188 44.864097 
L 52.529342 44.957348 
L 52.277307 45.027202 
L 52.193496 45.050731 
L 51.857649 45.140543 
L 51.524166 45.225448 
L 51.521803 45.226059 
L 51.185957 45.29755 
L 50.85011 45.352831 
L 50.514264 45.385714 
L 50.178418 45.387024 
L 49.842572 45.34358 
z
" clip-path="url(#pd67e2dd1f2)" style="fill: #ecf5f7; fill-opacity: 0.99"/>
    <path d="M 49.842572 45.34358 
L 50.178418 45.387024 
L 50.514264 45.385714 
L 50.85011 45.352831 
L 51.185957 45.29755 
L 51.521803 45.226059 
L 51.524166 45.225448 
L 51.857649 45.140543 
L 52.193496 45.050731 
L 52.277307 45.027202 
L 52.529342 44.957348 
L 52.865188 44.864097 
L 52.990452 44.828956 
L 53.201034 44.771099 
L 53.536881 44.678786 
L 53.706472 44.630711 
L 53.872727 44.585174 
L 54.208573 44.488731 
L 54.38809 44.432465 
L 54.54442 44.385692 
L 54.880266 44.274493 
L 54.988632 44.23422 
L 55.216112 44.153678 
L 55.513795 44.035974 
L 55.551958 44.021541 
L 55.887805 43.882789 
L 55.989274 43.837729 
L 56.223651 43.737172 
L 56.438646 43.639483 
L 56.559497 43.586189 
L 56.874361 43.441238 
L 56.895344 43.431828 
L 57.23119 43.278036 
L 57.305028 43.242992 
L 57.567036 43.121815 
L 57.726017 43.044747 
L 57.902882 42.960927 
L 58.131442 42.846501 
L 58.238729 42.793698 
L 58.517295 42.648255 
L 58.574575 42.618611 
L 58.882224 42.45001 
L 58.910421 42.434529 
L 59.227192 42.251764 
L 59.246268 42.240602 
L 59.554079 42.053519 
L 59.582114 42.036016 
L 59.864558 41.855273 
L 59.91796 41.819737 
L 60.159678 41.657028 
L 60.253806 41.590418 
L 60.439935 41.458782 
L 60.589653 41.346454 
L 60.705481 41.260537 
L 60.925499 41.086131 
L 60.956217 41.062291 
L 61.200183 40.864046 
L 61.261345 40.811237 
L 61.435016 40.6658 
L 61.597192 40.518731 
L 61.655907 40.467554 
L 61.869448 40.269309 
L 61.933038 40.206053 
L 62.075354 40.071063 
L 62.264939 39.872818 
L 62.268884 39.868459 
L 62.454144 39.674572 
L 62.60473 39.498648 
L 62.625095 39.476327 
L 62.794653 39.278081 
L 62.940577 39.087489 
L 62.946866 39.079836 
L 63.102117 38.88159 
L 63.242205 38.683345 
L 63.276423 38.632873 
L 63.384376 38.485099 
L 63.518905 38.286854 
L 63.612269 38.138919 
L 63.646861 38.088608 
L 63.778597 37.890362 
L 63.897727 37.692117 
L 63.948116 37.603047 
L 64.016293 37.493871 
L 64.130294 37.295626 
L 64.23179 37.09738 
L 64.283962 36.985872 
L 64.329418 36.899135 
L 64.423424 36.700889 
L 64.506462 36.502644 
L 64.580716 36.304398 
L 64.619808 36.189749 
L 64.651964 36.106153 
L 64.720692 35.907907 
L 64.781796 35.709661 
L 64.835741 35.511416 
L 64.882338 35.31317 
L 64.920955 35.114925 
L 64.950777 34.916679 
L 64.955654 34.867811 
L 64.972494 34.718434 
L 64.983368 34.520188 
L 64.983149 34.321943 
L 64.972438 34.123697 
L 64.955654 33.959278 
L 64.952249 33.925452 
L 64.925029 33.727206 
L 64.892498 33.528961 
L 64.858258 33.330715 
L 64.825483 33.132469 
L 64.795357 32.934224 
L 64.766661 32.735978 
L 64.736714 32.537733 
L 64.702913 32.339487 
L 64.663944 32.141242 
L 64.619808 31.942996 
L 64.619808 31.942996 
L 64.570639 31.744751 
L 64.511047 31.546505 
L 64.432606 31.34826 
L 64.324354 31.150014 
L 64.283962 31.091232 
L 64.172874 30.951768 
L 63.987031 30.753523 
L 63.948116 30.714224 
L 63.769324 30.555277 
L 63.612269 30.425776 
L 63.495682 30.357032 
L 63.276423 30.241571 
L 62.948059 30.158786 
L 62.940577 30.157006 
L 62.60473 30.136695 
L 62.268884 30.157874 
L 62.262075 30.158786 
L 61.933038 30.201313 
L 61.597192 30.264111 
L 61.261345 30.351275 
L 61.244513 30.357032 
L 60.925499 30.462893 
L 60.725973 30.555277 
L 60.589653 30.615938 
L 60.355976 30.753523 
L 60.253806 30.811116 
L 60.056338 30.951768 
L 59.91796 31.046573 
L 59.793036 31.150014 
L 59.582114 31.320231 
L 59.552073 31.34826 
L 59.334977 31.546505 
L 59.246268 31.627282 
L 59.130267 31.744751 
L 58.937086 31.942996 
L 58.910421 31.970106 
L 58.753528 32.141242 
L 58.578328 32.339487 
L 58.574575 32.343623 
L 58.404972 32.537733 
L 58.239372 32.735978 
L 58.238729 32.73672 
L 58.069061 32.934224 
L 57.907097 33.132469 
L 57.902882 33.137466 
L 57.7376 33.330715 
L 57.57829 33.528961 
L 57.567036 33.542838 
L 57.412414 33.727206 
L 57.258741 33.925452 
L 57.23119 33.961941 
L 57.102645 34.123697 
L 56.958566 34.321943 
L 56.895344 34.415215 
L 56.819218 34.520188 
L 56.686839 34.718434 
L 56.568489 34.916679 
L 56.559497 34.932571 
L 56.447641 35.114925 
L 56.337547 35.31317 
L 56.236367 35.511416 
L 56.223651 35.536976 
L 56.129738 35.709661 
L 56.027436 35.907907 
L 55.929564 36.106153 
L 55.887805 36.191728 
L 55.827096 36.304398 
L 55.722503 36.502644 
L 55.623005 36.700889 
L 55.551958 36.849799 
L 55.525516 36.899135 
L 55.422877 37.09738 
L 55.327946 37.295626 
L 55.240519 37.493871 
L 55.216112 37.551611 
L 55.148031 37.692117 
L 55.05598 37.890362 
L 54.967698 38.088608 
L 54.881422 38.286854 
L 54.880266 38.289397 
L 54.778833 38.485099 
L 54.677542 38.683345 
L 54.576834 38.88159 
L 54.54442 38.94366 
L 54.464905 39.079836 
L 54.34986 39.278081 
L 54.23516 39.476327 
L 54.208573 39.521144 
L 54.109665 39.674572 
L 53.98164 39.872818 
L 53.872727 40.038478 
L 53.849899 40.071063 
L 53.70821 40.269309 
L 53.564559 40.467554 
L 53.536881 40.504902 
L 53.412397 40.6658 
L 53.257821 40.864046 
L 53.201034 40.936333 
L 53.098297 41.062291 
L 52.93681 41.260537 
L 52.865188 41.348857 
L 52.772535 41.458782 
L 52.606406 41.657028 
L 52.529342 41.749491 
L 52.437331 41.855273 
L 52.265069 42.053519 
L 52.193496 42.135558 
L 52.087265 42.251764 
L 51.905021 42.45001 
L 51.857649 42.500867 
L 51.713324 42.648255 
L 51.521803 42.842967 
L 51.51814 42.846501 
L 51.310623 43.044747 
L 51.185957 43.164197 
L 51.098889 43.242992 
L 50.882332 43.441238 
L 50.85011 43.471609 
L 50.659715 43.639483 
L 50.514264 43.772441 
L 50.437125 43.837729 
L 50.216989 44.035974 
L 50.178418 44.07446 
L 50.001481 44.23422 
L 49.842572 44.394161 
L 49.799522 44.432465 
L 49.620458 44.630711 
L 49.506725 44.796581 
L 49.480366 44.828956 
L 49.416336 45.027202 
L 49.506725 45.216105 
L 49.513977 45.225448 
z
M 51.753514 44.23422 
L 51.64989 44.035974 
L 51.701488 43.837729 
L 51.8061 43.639483 
L 51.857649 43.568693 
L 51.945956 43.441238 
L 52.098798 43.242992 
L 52.193496 43.129806 
L 52.261543 43.044747 
L 52.427821 42.846501 
L 52.529342 42.729028 
L 52.596348 42.648255 
L 52.763316 42.45001 
L 52.865188 42.330745 
L 52.930021 42.251764 
L 53.093297 42.053519 
L 53.201034 41.92429 
L 53.256168 41.855273 
L 53.414948 41.657028 
L 53.536881 41.507325 
L 53.574499 41.458782 
L 53.728308 41.260537 
L 53.872727 41.077865 
L 53.884324 41.062291 
L 54.030424 40.864046 
L 54.177803 40.6658 
L 54.208573 40.623497 
L 54.314218 40.467554 
L 54.44679 40.269309 
L 54.54442 40.119705 
L 54.573667 40.071063 
L 54.689246 39.872818 
L 54.8023 39.674572 
L 54.880266 39.53499 
L 54.910211 39.476327 
L 55.01011 39.278081 
L 55.109409 39.079836 
L 55.209442 38.88159 
L 55.216112 38.868516 
L 55.301295 38.683345 
L 55.392876 38.485099 
L 55.486181 38.286854 
L 55.551958 38.150449 
L 55.578697 38.088608 
L 55.66449 37.890362 
L 55.753391 37.692117 
L 55.847619 37.493871 
L 55.887805 37.41287 
L 55.939868 37.295626 
L 56.032875 37.09738 
L 56.133849 36.899135 
L 56.223651 36.734637 
L 56.240479 36.700889 
L 56.341878 36.502644 
L 56.449546 36.304398 
L 56.559497 36.110596 
L 56.561863 36.106153 
L 56.665784 35.907907 
L 56.773465 35.709661 
L 56.885084 35.511416 
L 56.895344 35.493424 
L 56.993485 35.31317 
L 57.10786 35.114925 
L 57.23119 34.917326 
L 57.231581 34.916679 
L 57.357813 34.718434 
L 57.495957 34.520188 
L 57.567036 34.426012 
L 57.643712 34.321943 
L 57.800086 34.123697 
L 57.902882 34.002636 
L 57.967815 33.925452 
L 58.142621 33.727206 
L 58.238729 33.623663 
L 58.327337 33.528961 
L 58.519848 33.330715 
L 58.574575 33.275316 
L 58.719912 33.132469 
L 58.910421 32.952658 
L 58.93099 32.934224 
L 59.150737 32.735978 
L 59.246268 32.651514 
L 59.38553 32.537733 
L 59.582114 32.380685 
L 59.639131 32.339487 
L 59.917413 32.141242 
L 59.91796 32.140847 
L 60.229943 31.942996 
L 60.253806 31.927938 
L 60.589653 31.744751 
L 60.589653 31.744751 
L 60.925499 31.584594 
L 61.023963 31.546505 
L 61.261345 31.450407 
L 61.592165 31.34826 
L 61.597192 31.346605 
L 61.933038 31.273697 
L 62.268884 31.250264 
L 62.60473 31.295666 
L 62.74382 31.34826 
L 62.940577 31.433124 
L 63.108864 31.546505 
L 63.276423 31.677908 
L 63.341677 31.744751 
L 63.500217 31.942996 
L 63.612269 32.129081 
L 63.618484 32.141242 
L 63.706363 32.339487 
L 63.781483 32.537733 
L 63.846601 32.735978 
L 63.901433 32.934224 
L 63.946197 33.132469 
L 63.948116 33.142244 
L 63.98498 33.330715 
L 64.022607 33.528961 
L 64.063136 33.727206 
L 64.107867 33.925452 
L 64.15424 34.123697 
L 64.196967 34.321943 
L 64.23067 34.520188 
L 64.251852 34.718434 
L 64.259202 34.916679 
L 64.252944 35.114925 
L 64.234134 35.31317 
L 64.204151 35.511416 
L 64.164323 35.709661 
L 64.115659 35.907907 
L 64.05867 36.106153 
L 63.993235 36.304398 
L 63.948116 36.424467 
L 63.9207 36.502644 
L 63.842906 36.700889 
L 63.755662 36.899135 
L 63.657083 37.09738 
L 63.612269 37.178181 
L 63.551429 37.295626 
L 63.438746 37.493871 
L 63.313231 37.692117 
L 63.276423 37.746408 
L 63.184592 37.890362 
L 63.048542 38.088608 
L 62.940577 38.23487 
L 62.904083 38.286854 
L 62.760931 38.485099 
L 62.606184 38.683345 
L 62.60473 38.685195 
L 62.457219 38.88159 
L 62.29666 39.079836 
L 62.268884 39.11321 
L 62.136956 39.278081 
L 61.966314 39.476327 
L 61.933038 39.513262 
L 61.792677 39.674572 
L 61.605862 39.872818 
L 61.597192 39.881564 
L 61.414941 40.071063 
L 61.261345 40.21892 
L 61.210017 40.269309 
L 60.996646 40.467554 
L 60.925499 40.529773 
L 60.772003 40.6658 
L 60.589653 40.817772 
L 60.534161 40.864046 
L 60.284771 41.062291 
L 60.253806 41.085814 
L 60.022007 41.260537 
L 59.91796 41.335397 
L 59.742654 41.458782 
L 59.582114 41.567629 
L 59.445417 41.657028 
L 59.246268 41.783677 
L 59.128111 41.855273 
L 58.910421 41.984727 
L 58.787987 42.053519 
L 58.574575 42.172202 
L 58.422765 42.251764 
L 58.238729 42.347945 
L 58.0323 42.45001 
L 57.902882 42.514224 
L 57.619788 42.648255 
L 57.567036 42.673456 
L 57.23119 42.828432 
L 57.190842 42.846501 
L 56.895344 42.980888 
L 56.749176 43.044747 
L 56.559497 43.129519 
L 56.291716 43.242992 
L 56.223651 43.272706 
L 55.887805 43.408664 
L 55.798348 43.441238 
L 55.551958 43.534878 
L 55.243301 43.639483 
L 55.216112 43.649121 
L 54.880266 43.75037 
L 54.556105 43.837729 
L 54.54442 43.841007 
L 54.208573 43.921451 
L 53.872727 43.997177 
L 53.69227 44.035974 
L 53.536881 44.069953 
L 53.201034 44.139132 
L 52.865188 44.207358 
L 52.710071 44.23422 
L 52.529342 44.265669 
L 52.193496 44.300163 
L 51.857649 44.27926 
z
" clip-path="url(#pd67e2dd1f2)" style="fill: #deedf1; fill-opacity: 0.99"/>
    <path d="M 51.857649 44.27926 
L 52.193496 44.300163 
L 52.529342 44.265669 
L 52.710071 44.23422 
L 52.865188 44.207358 
L 53.201034 44.139132 
L 53.536881 44.069953 
L 53.69227 44.035974 
L 53.872727 43.997177 
L 54.208573 43.921451 
L 54.54442 43.841007 
L 54.556105 43.837729 
L 54.880266 43.75037 
L 55.216112 43.649121 
L 55.243301 43.639483 
L 55.551958 43.534878 
L 55.798348 43.441238 
L 55.887805 43.408664 
L 56.223651 43.272706 
L 56.291716 43.242992 
L 56.559497 43.129519 
L 56.749176 43.044747 
L 56.895344 42.980888 
L 57.190842 42.846501 
L 57.23119 42.828432 
L 57.567036 42.673456 
L 57.619788 42.648255 
L 57.902882 42.514224 
L 58.0323 42.45001 
L 58.238729 42.347945 
L 58.422765 42.251764 
L 58.574575 42.172202 
L 58.787987 42.053519 
L 58.910421 41.984727 
L 59.128111 41.855273 
L 59.246268 41.783677 
L 59.445417 41.657028 
L 59.582114 41.567629 
L 59.742654 41.458782 
L 59.91796 41.335397 
L 60.022007 41.260537 
L 60.253806 41.085814 
L 60.284771 41.062291 
L 60.534161 40.864046 
L 60.589653 40.817772 
L 60.772003 40.6658 
L 60.925499 40.529773 
L 60.996646 40.467554 
L 61.210017 40.269309 
L 61.261345 40.21892 
L 61.414941 40.071063 
L 61.597192 39.881564 
L 61.605862 39.872818 
L 61.792677 39.674572 
L 61.933038 39.513262 
L 61.966314 39.476327 
L 62.136956 39.278081 
L 62.268884 39.11321 
L 62.29666 39.079836 
L 62.457219 38.88159 
L 62.60473 38.685195 
L 62.606184 38.683345 
L 62.760931 38.485099 
L 62.904083 38.286854 
L 62.940577 38.23487 
L 63.048542 38.088608 
L 63.184592 37.890362 
L 63.276423 37.746408 
L 63.313231 37.692117 
L 63.438746 37.493871 
L 63.551429 37.295626 
L 63.612269 37.178181 
L 63.657083 37.09738 
L 63.755662 36.899135 
L 63.842906 36.700889 
L 63.9207 36.502644 
L 63.948116 36.424467 
L 63.993235 36.304398 
L 64.05867 36.106153 
L 64.115659 35.907907 
L 64.164323 35.709661 
L 64.204151 35.511416 
L 64.234134 35.31317 
L 64.252944 35.114925 
L 64.259202 34.916679 
L 64.251852 34.718434 
L 64.23067 34.520188 
L 64.196967 34.321943 
L 64.15424 34.123697 
L 64.107867 33.925452 
L 64.063136 33.727206 
L 64.022607 33.528961 
L 63.98498 33.330715 
L 63.948116 33.142244 
L 63.946197 33.132469 
L 63.901433 32.934224 
L 63.846601 32.735978 
L 63.781483 32.537733 
L 63.706363 32.339487 
L 63.618484 32.141242 
L 63.612269 32.129081 
L 63.500217 31.942996 
L 63.341677 31.744751 
L 63.276423 31.677908 
L 63.108864 31.546505 
L 62.940577 31.433124 
L 62.74382 31.34826 
L 62.60473 31.295666 
L 62.268884 31.250264 
L 61.933038 31.273697 
L 61.597192 31.346605 
L 61.592165 31.34826 
L 61.261345 31.450407 
L 61.023963 31.546505 
L 60.925499 31.584594 
L 60.589653 31.744751 
L 60.589653 31.744751 
L 60.253806 31.927938 
L 60.229943 31.942996 
L 59.91796 32.140847 
L 59.917413 32.141242 
L 59.639131 32.339487 
L 59.582114 32.380685 
L 59.38553 32.537733 
L 59.246268 32.651514 
L 59.150737 32.735978 
L 58.93099 32.934224 
L 58.910421 32.952658 
L 58.719912 33.132469 
L 58.574575 33.275316 
L 58.519848 33.330715 
L 58.327337 33.528961 
L 58.238729 33.623663 
L 58.142621 33.727206 
L 57.967815 33.925452 
L 57.902882 34.002636 
L 57.800086 34.123697 
L 57.643712 34.321943 
L 57.567036 34.426012 
L 57.495957 34.520188 
L 57.357813 34.718434 
L 57.231581 34.916679 
L 57.23119 34.917326 
L 57.10786 35.114925 
L 56.993485 35.31317 
L 56.895344 35.493424 
L 56.885084 35.511416 
L 56.773465 35.709661 
L 56.665784 35.907907 
L 56.561863 36.106153 
L 56.559497 36.110596 
L 56.449546 36.304398 
L 56.341878 36.502644 
L 56.240479 36.700889 
L 56.223651 36.734637 
L 56.133849 36.899135 
L 56.032875 37.09738 
L 55.939868 37.295626 
L 55.887805 37.41287 
L 55.847619 37.493871 
L 55.753391 37.692117 
L 55.66449 37.890362 
L 55.578697 38.088608 
L 55.551958 38.150449 
L 55.486181 38.286854 
L 55.392876 38.485099 
L 55.301295 38.683345 
L 55.216112 38.868516 
L 55.209442 38.88159 
L 55.109409 39.079836 
L 55.01011 39.278081 
L 54.910211 39.476327 
L 54.880266 39.53499 
L 54.8023 39.674572 
L 54.689246 39.872818 
L 54.573667 40.071063 
L 54.54442 40.119705 
L 54.44679 40.269309 
L 54.314218 40.467554 
L 54.208573 40.623497 
L 54.177803 40.6658 
L 54.030424 40.864046 
L 53.884324 41.062291 
L 53.872727 41.077865 
L 53.728308 41.260537 
L 53.574499 41.458782 
L 53.536881 41.507325 
L 53.414948 41.657028 
L 53.256168 41.855273 
L 53.201034 41.92429 
L 53.093297 42.053519 
L 52.930021 42.251764 
L 52.865188 42.330745 
L 52.763316 42.45001 
L 52.596348 42.648255 
L 52.529342 42.729028 
L 52.427821 42.846501 
L 52.261543 43.044747 
L 52.193496 43.129806 
L 52.098798 43.242992 
L 51.945956 43.441238 
L 51.857649 43.568693 
L 51.8061 43.639483 
L 51.701488 43.837729 
L 51.64989 44.035974 
L 51.753514 44.23422 
z
M 53.872727 43.242992 
L 53.872727 43.242992 
L 53.536881 43.093643 
L 53.499155 43.044747 
L 53.481033 42.846501 
L 53.535258 42.648255 
L 53.536881 42.645133 
L 53.635015 42.45001 
L 53.748271 42.251764 
L 53.870526 42.053519 
L 53.872727 42.050389 
L 54.004577 41.855273 
L 54.139991 41.657028 
L 54.208573 41.561613 
L 54.278854 41.458782 
L 54.41725 41.260537 
L 54.54442 41.081729 
L 54.557443 41.062291 
L 54.691458 40.864046 
L 54.824924 40.6658 
L 54.880266 40.582986 
L 54.951968 40.467554 
L 55.071501 40.269309 
L 55.188094 40.071063 
L 55.216112 40.021343 
L 55.293399 39.872818 
L 55.392139 39.674572 
L 55.487266 39.476327 
L 55.551958 39.336487 
L 55.577038 39.278081 
L 55.659964 39.079836 
L 55.741803 38.88159 
L 55.823444 38.683345 
L 55.887805 38.529684 
L 55.905288 38.485099 
L 55.985092 38.286854 
L 56.066692 38.088608 
L 56.151565 37.890362 
L 56.223651 37.731398 
L 56.240323 37.692117 
L 56.327817 37.493871 
L 56.420692 37.295626 
L 56.521434 37.09738 
L 56.559497 37.027031 
L 56.624396 36.899135 
L 56.731221 36.700889 
L 56.846639 36.502644 
L 56.895344 36.421923 
L 56.963338 36.304398 
L 57.081554 36.106153 
L 57.204985 35.907907 
L 57.23119 35.865116 
L 57.325033 35.709661 
L 57.446511 35.511416 
L 57.567036 35.318812 
L 57.570605 35.31317 
L 57.694573 35.114925 
L 57.823872 34.916679 
L 57.902882 34.800783 
L 57.960375 34.718434 
L 58.105491 34.520188 
L 58.238729 34.349279 
L 58.260857 34.321943 
L 58.429435 34.123697 
L 58.574575 33.962331 
L 58.609438 33.925452 
L 58.804038 33.727206 
L 58.910421 33.623332 
L 59.013333 33.528961 
L 59.235475 33.330715 
L 59.246268 33.321301 
L 59.480551 33.132469 
L 59.582114 33.05208 
L 59.74787 32.934224 
L 59.91796 32.81387 
L 60.044743 32.735978 
L 60.253806 32.606249 
L 60.386469 32.537733 
L 60.589653 32.429957 
L 60.806259 32.339487 
L 60.925499 32.287387 
L 61.261345 32.184299 
L 61.53055 32.141242 
L 61.597192 32.129682 
L 61.933038 32.139744 
L 61.939348 32.141242 
L 62.268884 32.233648 
L 62.457378 32.339487 
L 62.60473 32.442127 
L 62.698634 32.537733 
L 62.857091 32.735978 
L 62.940577 32.859667 
L 62.982452 32.934224 
L 63.083254 33.132469 
L 63.167868 33.330715 
L 63.234742 33.528961 
L 63.276423 33.686092 
L 63.28669 33.727206 
L 63.331986 33.925452 
L 63.37877 34.123697 
L 63.431028 34.321943 
L 63.487448 34.520188 
L 63.541623 34.718434 
L 63.585567 34.916679 
L 63.612269 35.104451 
L 63.613649 35.114925 
L 63.623897 35.31317 
L 63.617585 35.511416 
L 63.612269 35.559567 
L 63.596331 35.709661 
L 63.562427 35.907907 
L 63.517731 36.106153 
L 63.463424 36.304398 
L 63.399973 36.502644 
L 63.327119 36.700889 
L 63.276423 36.821427 
L 63.244958 36.899135 
L 63.154269 37.09738 
L 63.052606 37.295626 
L 62.940577 37.489844 
L 62.938343 37.493871 
L 62.81762 37.692117 
L 62.68509 37.890362 
L 62.60473 38.001102 
L 62.54358 38.088608 
L 62.396532 38.286854 
L 62.268884 38.44713 
L 62.239589 38.485099 
L 62.082197 38.683345 
L 61.933038 38.859524 
L 61.914805 38.88159 
L 61.749061 39.079836 
L 61.597192 39.250932 
L 61.57348 39.278081 
L 61.397745 39.476327 
L 61.261345 39.621976 
L 61.212475 39.674572 
L 61.022174 39.872818 
L 60.925499 39.968902 
L 60.822666 40.071063 
L 60.612723 40.269309 
L 60.589653 40.290287 
L 60.392953 40.467554 
L 60.253806 40.586846 
L 60.159691 40.6658 
L 59.91796 40.859917 
L 59.912639 40.864046 
L 59.648443 41.062291 
L 59.582114 41.110235 
L 59.364902 41.260537 
L 59.246268 41.340047 
L 59.059463 41.458782 
L 58.910421 41.551035 
L 58.729011 41.657028 
L 58.574575 41.745352 
L 58.371154 41.855273 
L 58.238729 41.925688 
L 57.985729 42.053519 
L 57.902882 42.094952 
L 57.575305 42.251764 
L 57.567036 42.255709 
L 57.23119 42.409646 
L 57.13827 42.45001 
L 56.895344 42.55704 
L 56.674267 42.648255 
L 56.559497 42.696782 
L 56.223651 42.826395 
L 56.163259 42.846501 
L 55.887805 42.942345 
L 55.551958 43.043873 
L 55.548164 43.044747 
L 55.216112 43.12513 
L 54.880266 43.188767 
L 54.54442 43.234571 
L 54.409766 43.242992 
L 54.208573 43.256016 
z
" clip-path="url(#pd67e2dd1f2)" style="fill: #cfe5eb; fill-opacity: 0.99"/>
    <path d="M 54.208573 43.256016 
L 54.409766 43.242992 
L 54.54442 43.234571 
L 54.880266 43.188767 
L 55.216112 43.12513 
L 55.548164 43.044747 
L 55.551958 43.043873 
L 55.887805 42.942345 
L 56.163259 42.846501 
L 56.223651 42.826395 
L 56.559497 42.696782 
L 56.674267 42.648255 
L 56.895344 42.55704 
L 57.13827 42.45001 
L 57.23119 42.409646 
L 57.567036 42.255709 
L 57.575305 42.251764 
L 57.902882 42.094952 
L 57.985729 42.053519 
L 58.238729 41.925688 
L 58.371154 41.855273 
L 58.574575 41.745352 
L 58.729011 41.657028 
L 58.910421 41.551035 
L 59.059463 41.458782 
L 59.246268 41.340047 
L 59.364902 41.260537 
L 59.582114 41.110235 
L 59.648443 41.062291 
L 59.912639 40.864046 
L 59.91796 40.859917 
L 60.159691 40.6658 
L 60.253806 40.586846 
L 60.392953 40.467554 
L 60.589653 40.290287 
L 60.612723 40.269309 
L 60.822666 40.071063 
L 60.925499 39.968902 
L 61.022174 39.872818 
L 61.212475 39.674572 
L 61.261345 39.621976 
L 61.397745 39.476327 
L 61.57348 39.278081 
L 61.597192 39.250932 
L 61.749061 39.079836 
L 61.914805 38.88159 
L 61.933038 38.859524 
L 62.082197 38.683345 
L 62.239589 38.485099 
L 62.268884 38.44713 
L 62.396532 38.286854 
L 62.54358 38.088608 
L 62.60473 38.001102 
L 62.68509 37.890362 
L 62.81762 37.692117 
L 62.938343 37.493871 
L 62.940577 37.489844 
L 63.052606 37.295626 
L 63.154269 37.09738 
L 63.244958 36.899135 
L 63.276423 36.821427 
L 63.327119 36.700889 
L 63.399973 36.502644 
L 63.463424 36.304398 
L 63.517731 36.106153 
L 63.562427 35.907907 
L 63.596331 35.709661 
L 63.612269 35.559567 
L 63.617585 35.511416 
L 63.623897 35.31317 
L 63.613649 35.114925 
L 63.612269 35.104451 
L 63.585567 34.916679 
L 63.541623 34.718434 
L 63.487448 34.520188 
L 63.431028 34.321943 
L 63.37877 34.123697 
L 63.331986 33.925452 
L 63.28669 33.727206 
L 63.276423 33.686092 
L 63.234742 33.528961 
L 63.167868 33.330715 
L 63.083254 33.132469 
L 62.982452 32.934224 
L 62.940577 32.859667 
L 62.857091 32.735978 
L 62.698634 32.537733 
L 62.60473 32.442127 
L 62.457378 32.339487 
L 62.268884 32.233648 
L 61.939348 32.141242 
L 61.933038 32.139744 
L 61.597192 32.129682 
L 61.53055 32.141242 
L 61.261345 32.184299 
L 60.925499 32.287387 
L 60.806259 32.339487 
L 60.589653 32.429957 
L 60.386469 32.537733 
L 60.253806 32.606249 
L 60.044743 32.735978 
L 59.91796 32.81387 
L 59.74787 32.934224 
L 59.582114 33.05208 
L 59.480551 33.132469 
L 59.246268 33.321301 
L 59.235475 33.330715 
L 59.013333 33.528961 
L 58.910421 33.623332 
L 58.804038 33.727206 
L 58.609438 33.925452 
L 58.574575 33.962331 
L 58.429435 34.123697 
L 58.260857 34.321943 
L 58.238729 34.349279 
L 58.105491 34.520188 
L 57.960375 34.718434 
L 57.902882 34.800783 
L 57.823872 34.916679 
L 57.694573 35.114925 
L 57.570605 35.31317 
L 57.567036 35.318812 
L 57.446511 35.511416 
L 57.325033 35.709661 
L 57.23119 35.865116 
L 57.204985 35.907907 
L 57.081554 36.106153 
L 56.963338 36.304398 
L 56.895344 36.421923 
L 56.846639 36.502644 
L 56.731221 36.700889 
L 56.624396 36.899135 
L 56.559497 37.027031 
L 56.521434 37.09738 
L 56.420692 37.295626 
L 56.327817 37.493871 
L 56.240323 37.692117 
L 56.223651 37.731398 
L 56.151565 37.890362 
L 56.066692 38.088608 
L 55.985092 38.286854 
L 55.905288 38.485099 
L 55.887805 38.529684 
L 55.823444 38.683345 
L 55.741803 38.88159 
L 55.659964 39.079836 
L 55.577038 39.278081 
L 55.551958 39.336487 
L 55.487266 39.476327 
L 55.392139 39.674572 
L 55.293399 39.872818 
L 55.216112 40.021343 
L 55.188094 40.071063 
L 55.071501 40.269309 
L 54.951968 40.467554 
L 54.880266 40.582986 
L 54.824924 40.6658 
L 54.691458 40.864046 
L 54.557443 41.062291 
L 54.54442 41.081729 
L 54.41725 41.260537 
L 54.278854 41.458782 
L 54.208573 41.561613 
L 54.139991 41.657028 
L 54.004577 41.855273 
L 53.872727 42.050389 
L 53.870526 42.053519 
L 53.748271 42.251764 
L 53.635015 42.45001 
L 53.536881 42.645133 
L 53.535258 42.648255 
L 53.481033 42.846501 
L 53.499155 43.044747 
L 53.536881 43.093643 
L 53.872727 43.242992 
L 53.872727 43.242992 
z
M 55.335359 42.45001 
L 55.216112 42.44375 
L 54.880266 42.269774 
L 54.865772 42.251764 
L 54.81412 42.053519 
L 54.83566 41.855273 
L 54.880266 41.711765 
L 54.896515 41.657028 
L 54.982957 41.458782 
L 55.08035 41.260537 
L 55.18541 41.062291 
L 55.216112 41.009361 
L 55.296789 40.864046 
L 55.408284 40.6658 
L 55.51928 40.467554 
L 55.551958 40.409443 
L 55.627414 40.269309 
L 55.730261 40.071063 
L 55.829114 39.872818 
L 55.887805 39.750667 
L 55.922937 39.674572 
L 56.009649 39.476327 
L 56.092058 39.278081 
L 56.170744 39.079836 
L 56.223651 38.940539 
L 56.245424 38.88159 
L 56.316451 38.683345 
L 56.386372 38.485099 
L 56.456388 38.286854 
L 56.528132 38.088608 
L 56.559497 38.007231 
L 56.603796 37.890362 
L 56.683363 37.692117 
L 56.767749 37.493871 
L 56.859085 37.295626 
L 56.895344 37.22368 
L 56.957804 37.09738 
L 57.062597 36.899135 
L 57.176155 36.700889 
L 57.23119 36.611308 
L 57.297416 36.502644 
L 57.424049 36.304398 
L 57.559019 36.106153 
L 57.567036 36.09442 
L 57.696245 35.907907 
L 57.838372 35.709661 
L 57.902882 35.619394 
L 57.98337 35.511416 
L 58.130279 35.31317 
L 58.238729 35.166707 
L 58.279882 35.114925 
L 58.43395 34.916679 
L 58.574575 34.737304 
L 58.590878 34.718434 
L 58.760778 34.520188 
L 58.910421 34.347879 
L 58.935819 34.321943 
L 59.13233 34.123697 
L 59.246268 34.010131 
L 59.344047 33.925452 
L 59.572762 33.727206 
L 59.582114 33.719291 
L 59.846439 33.528961 
L 59.91796 33.477022 
L 60.167272 33.330715 
L 60.253806 33.278976 
L 60.579679 33.132469 
L 60.589653 33.127858 
L 60.925499 33.034375 
L 61.261345 33.002655 
L 61.597192 33.048461 
L 61.80072 33.132469 
L 61.933038 33.193928 
L 62.107639 33.330715 
L 62.268884 33.47115 
L 62.316157 33.528961 
L 62.456957 33.727206 
L 62.561315 33.925452 
L 62.60473 34.038798 
L 62.632574 34.123697 
L 62.687137 34.321943 
L 62.740155 34.520188 
L 62.798949 34.718434 
L 62.86397 34.916679 
L 62.927763 35.114925 
L 62.940577 35.162784 
L 62.977323 35.31317 
L 63.006675 35.511416 
L 63.015269 35.709661 
L 63.004776 35.907907 
L 62.977786 36.106153 
L 62.940577 36.28573 
L 62.936797 36.304398 
L 62.88402 36.502644 
L 62.821055 36.700889 
L 62.74808 36.899135 
L 62.664642 37.09738 
L 62.60473 37.221852 
L 62.570164 37.295626 
L 62.464914 37.493871 
L 62.347518 37.692117 
L 62.268884 37.811183 
L 62.218174 37.890362 
L 62.079425 38.088608 
L 61.933038 38.279979 
L 61.927923 38.286854 
L 61.771687 38.485099 
L 61.603138 38.683345 
L 61.597192 38.690134 
L 61.432729 38.88159 
L 61.261345 39.068239 
L 61.250798 39.079836 
L 61.067985 39.278081 
L 60.925499 39.424431 
L 60.874845 39.476327 
L 60.677073 39.674572 
L 60.589653 39.759316 
L 60.470826 39.872818 
L 60.253806 40.071063 
L 60.253806 40.071063 
L 60.028628 40.269309 
L 59.91796 40.362877 
L 59.78914 40.467554 
L 59.582114 40.630192 
L 59.534346 40.6658 
L 59.261647 40.864046 
L 59.246268 40.874954 
L 58.966525 41.062291 
L 58.910421 41.098851 
L 58.646258 41.260537 
L 58.574575 41.303436 
L 58.297882 41.458782 
L 58.238729 41.491429 
L 57.919335 41.657028 
L 57.902882 41.665468 
L 57.567036 41.827089 
L 57.503075 41.855273 
L 57.23119 41.976762 
L 57.041317 42.053519 
L 56.895344 42.113958 
L 56.559497 42.236191 
L 56.505398 42.251764 
L 56.223651 42.337042 
L 55.887805 42.413866 
L 55.603586 42.45001 
L 55.551958 42.457021 
z
" clip-path="url(#pd67e2dd1f2)" style="fill: #c0dde4; fill-opacity: 0.99"/>
    <path d="M 55.551958 42.457021 
L 55.603586 42.45001 
L 55.887805 42.413866 
L 56.223651 42.337042 
L 56.505398 42.251764 
L 56.559497 42.236191 
L 56.895344 42.113958 
L 57.041317 42.053519 
L 57.23119 41.976762 
L 57.503075 41.855273 
L 57.567036 41.827089 
L 57.902882 41.665468 
L 57.919335 41.657028 
L 58.238729 41.491429 
L 58.297882 41.458782 
L 58.574575 41.303436 
L 58.646258 41.260537 
L 58.910421 41.098851 
L 58.966525 41.062291 
L 59.246268 40.874954 
L 59.261647 40.864046 
L 59.534346 40.6658 
L 59.582114 40.630192 
L 59.78914 40.467554 
L 59.91796 40.362877 
L 60.028628 40.269309 
L 60.253806 40.071063 
L 60.253806 40.071063 
L 60.470826 39.872818 
L 60.589653 39.759316 
L 60.677073 39.674572 
L 60.874845 39.476327 
L 60.925499 39.424431 
L 61.067985 39.278081 
L 61.250798 39.079836 
L 61.261345 39.068239 
L 61.432729 38.88159 
L 61.597192 38.690134 
L 61.603138 38.683345 
L 61.771687 38.485099 
L 61.927923 38.286854 
L 61.933038 38.279979 
L 62.079425 38.088608 
L 62.218174 37.890362 
L 62.268884 37.811183 
L 62.347518 37.692117 
L 62.464914 37.493871 
L 62.570164 37.295626 
L 62.60473 37.221852 
L 62.664642 37.09738 
L 62.74808 36.899135 
L 62.821055 36.700889 
L 62.88402 36.502644 
L 62.936797 36.304398 
L 62.940577 36.28573 
L 62.977786 36.106153 
L 63.004776 35.907907 
L 63.015269 35.709661 
L 63.006675 35.511416 
L 62.977323 35.31317 
L 62.940577 35.162784 
L 62.927763 35.114925 
L 62.86397 34.916679 
L 62.798949 34.718434 
L 62.740155 34.520188 
L 62.687137 34.321943 
L 62.632574 34.123697 
L 62.60473 34.038798 
L 62.561315 33.925452 
L 62.456957 33.727206 
L 62.316157 33.528961 
L 62.268884 33.47115 
L 62.107639 33.330715 
L 61.933038 33.193928 
L 61.80072 33.132469 
L 61.597192 33.048461 
L 61.261345 33.002655 
L 60.925499 33.034375 
L 60.589653 33.127858 
L 60.579679 33.132469 
L 60.253806 33.278976 
L 60.167272 33.330715 
L 59.91796 33.477022 
L 59.846439 33.528961 
L 59.582114 33.719291 
L 59.572762 33.727206 
L 59.344047 33.925452 
L 59.246268 34.010131 
L 59.13233 34.123697 
L 58.935819 34.321943 
L 58.910421 34.347879 
L 58.760778 34.520188 
L 58.590878 34.718434 
L 58.574575 34.737304 
L 58.43395 34.916679 
L 58.279882 35.114925 
L 58.238729 35.166707 
L 58.130279 35.31317 
L 57.98337 35.511416 
L 57.902882 35.619394 
L 57.838372 35.709661 
L 57.696245 35.907907 
L 57.567036 36.09442 
L 57.559019 36.106153 
L 57.424049 36.304398 
L 57.297416 36.502644 
L 57.23119 36.611308 
L 57.176155 36.700889 
L 57.062597 36.899135 
L 56.957804 37.09738 
L 56.895344 37.22368 
L 56.859085 37.295626 
L 56.767749 37.493871 
L 56.683363 37.692117 
L 56.603796 37.890362 
L 56.559497 38.007231 
L 56.528132 38.088608 
L 56.456388 38.286854 
L 56.386372 38.485099 
L 56.316451 38.683345 
L 56.245424 38.88159 
L 56.223651 38.940539 
L 56.170744 39.079836 
L 56.092058 39.278081 
L 56.009649 39.476327 
L 55.922937 39.674572 
L 55.887805 39.750667 
L 55.829114 39.872818 
L 55.730261 40.071063 
L 55.627414 40.269309 
L 55.551958 40.409443 
L 55.51928 40.467554 
L 55.408284 40.6658 
L 55.296789 40.864046 
L 55.216112 41.009361 
L 55.18541 41.062291 
L 55.08035 41.260537 
L 54.982957 41.458782 
L 54.896515 41.657028 
L 54.880266 41.711765 
L 54.83566 41.855273 
L 54.81412 42.053519 
L 54.865772 42.251764 
L 54.880266 42.269774 
L 55.216112 42.44375 
L 55.335359 42.45001 
z
M 56.033772 41.657028 
L 55.887805 41.54752 
L 55.842056 41.458782 
L 55.824493 41.260537 
L 55.855635 41.062291 
L 55.887805 40.95679 
L 55.916364 40.864046 
L 55.994192 40.6658 
L 56.077242 40.467554 
L 56.162699 40.269309 
L 56.223651 40.131089 
L 56.250279 40.071063 
L 56.338139 39.872818 
L 56.422311 39.674572 
L 56.503629 39.476327 
L 56.559497 39.336347 
L 56.582998 39.278081 
L 56.659731 39.079836 
L 56.732605 38.88159 
L 56.80178 38.683345 
L 56.867215 38.485099 
L 56.895344 38.396328 
L 56.931277 38.286854 
L 56.995902 38.088608 
L 57.061627 37.890362 
L 57.130411 37.692117 
L 57.204506 37.493871 
L 57.23119 37.430605 
L 57.290425 37.295626 
L 57.385239 37.09738 
L 57.487944 36.899135 
L 57.567036 36.76074 
L 57.602734 36.700889 
L 57.729711 36.502644 
L 57.864841 36.304398 
L 57.902882 36.251743 
L 58.01342 36.106153 
L 58.169432 35.907907 
L 58.238729 35.822302 
L 58.336816 35.709661 
L 58.511598 35.511416 
L 58.574575 35.439824 
L 58.697858 35.31317 
L 58.891204 35.114925 
L 58.910421 35.094495 
L 59.101777 34.916679 
L 59.246268 34.780996 
L 59.325466 34.718434 
L 59.569779 34.520188 
L 59.582114 34.509749 
L 59.85944 34.321943 
L 59.91796 34.280999 
L 60.220449 34.123697 
L 60.253806 34.105613 
L 60.589653 33.985133 
L 60.925499 33.929899 
L 61.261345 33.943643 
L 61.597192 34.053816 
L 61.693192 34.123697 
L 61.891267 34.321943 
L 61.933038 34.385962 
L 61.995319 34.520188 
L 62.064146 34.718434 
L 62.125705 34.916679 
L 62.192558 35.114925 
L 62.267947 35.31317 
L 62.268884 35.315614 
L 62.337759 35.511416 
L 62.390117 35.709661 
L 62.418092 35.907907 
L 62.421464 36.106153 
L 62.403492 36.304398 
L 62.368006 36.502644 
L 62.318098 36.700889 
L 62.268884 36.856812 
L 62.255679 36.899135 
L 62.181859 37.09738 
L 62.097367 37.295626 
L 62.001439 37.493871 
L 61.933038 37.617968 
L 61.892838 37.692117 
L 61.771742 37.890362 
L 61.638169 38.088608 
L 61.597192 38.143498 
L 61.491846 38.286854 
L 61.334746 38.485099 
L 61.261345 38.571116 
L 61.166096 38.683345 
L 60.98835 38.88159 
L 60.925499 38.948252 
L 60.800497 39.079836 
L 60.603388 39.278081 
L 60.589653 39.291576 
L 60.397596 39.476327 
L 60.253806 39.609533 
L 60.18065 39.674572 
L 59.953879 39.872818 
L 59.91796 39.90376 
L 59.713435 40.071063 
L 59.582114 40.176413 
L 59.45795 40.269309 
L 59.246268 40.426335 
L 59.185691 40.467554 
L 58.910421 40.655118 
L 58.893087 40.6658 
L 58.574575 40.864046 
L 58.574575 40.864046 
L 58.238729 41.054146 
L 58.22244 41.062291 
L 57.902882 41.226063 
L 57.825675 41.260537 
L 57.567036 41.37974 
L 57.366257 41.458782 
L 57.23119 41.514083 
L 56.895344 41.62383 
L 56.739736 41.657028 
L 56.559497 41.698329 
L 56.223651 41.712899 
z
" clip-path="url(#pd67e2dd1f2)" style="fill: #b0d4de; fill-opacity: 0.99"/>
    <path d="M 56.223651 41.712899 
L 56.559497 41.698329 
L 56.739736 41.657028 
L 56.895344 41.62383 
L 57.23119 41.514083 
L 57.366257 41.458782 
L 57.567036 41.37974 
L 57.825675 41.260537 
L 57.902882 41.226063 
L 58.22244 41.062291 
L 58.238729 41.054146 
L 58.574575 40.864046 
L 58.574575 40.864046 
L 58.893087 40.6658 
L 58.910421 40.655118 
L 59.185691 40.467554 
L 59.246268 40.426335 
L 59.45795 40.269309 
L 59.582114 40.176413 
L 59.713435 40.071063 
L 59.91796 39.90376 
L 59.953879 39.872818 
L 60.18065 39.674572 
L 60.253806 39.609533 
L 60.397596 39.476327 
L 60.589653 39.291576 
L 60.603388 39.278081 
L 60.800497 39.079836 
L 60.925499 38.948252 
L 60.98835 38.88159 
L 61.166096 38.683345 
L 61.261345 38.571116 
L 61.334746 38.485099 
L 61.491846 38.286854 
L 61.597192 38.143498 
L 61.638169 38.088608 
L 61.771742 37.890362 
L 61.892838 37.692117 
L 61.933038 37.617968 
L 62.001439 37.493871 
L 62.097367 37.295626 
L 62.181859 37.09738 
L 62.255679 36.899135 
L 62.268884 36.856812 
L 62.318098 36.700889 
L 62.368006 36.502644 
L 62.403492 36.304398 
L 62.421464 36.106153 
L 62.418092 35.907907 
L 62.390117 35.709661 
L 62.337759 35.511416 
L 62.268884 35.315614 
L 62.267947 35.31317 
L 62.192558 35.114925 
L 62.125705 34.916679 
L 62.064146 34.718434 
L 61.995319 34.520188 
L 61.933038 34.385962 
L 61.891267 34.321943 
L 61.693192 34.123697 
L 61.597192 34.053816 
L 61.261345 33.943643 
L 60.925499 33.929899 
L 60.589653 33.985133 
L 60.253806 34.105613 
L 60.220449 34.123697 
L 59.91796 34.280999 
L 59.85944 34.321943 
L 59.582114 34.509749 
L 59.569779 34.520188 
L 59.325466 34.718434 
L 59.246268 34.780996 
L 59.101777 34.916679 
L 58.910421 35.094495 
L 58.891204 35.114925 
L 58.697858 35.31317 
L 58.574575 35.439824 
L 58.511598 35.511416 
L 58.336816 35.709661 
L 58.238729 35.822302 
L 58.169432 35.907907 
L 58.01342 36.106153 
L 57.902882 36.251743 
L 57.864841 36.304398 
L 57.729711 36.502644 
L 57.602734 36.700889 
L 57.567036 36.76074 
L 57.487944 36.899135 
L 57.385239 37.09738 
L 57.290425 37.295626 
L 57.23119 37.430605 
L 57.204506 37.493871 
L 57.130411 37.692117 
L 57.061627 37.890362 
L 56.995902 38.088608 
L 56.931277 38.286854 
L 56.895344 38.396328 
L 56.867215 38.485099 
L 56.80178 38.683345 
L 56.732605 38.88159 
L 56.659731 39.079836 
L 56.582998 39.278081 
L 56.559497 39.336347 
L 56.503629 39.476327 
L 56.422311 39.674572 
L 56.338139 39.872818 
L 56.250279 40.071063 
L 56.223651 40.131089 
L 56.162699 40.269309 
L 56.077242 40.467554 
L 55.994192 40.6658 
L 55.916364 40.864046 
L 55.887805 40.95679 
L 55.855635 41.062291 
L 55.824493 41.260537 
L 55.842056 41.458782 
L 55.887805 41.54752 
L 56.033772 41.657028 
z
M 57.174964 40.864046 
L 56.895344 40.754129 
L 56.844842 40.6658 
L 56.819139 40.467554 
L 56.83926 40.269309 
L 56.881149 40.071063 
L 56.895344 40.021471 
L 56.941168 39.872818 
L 57.007135 39.674572 
L 57.074649 39.476327 
L 57.143478 39.278081 
L 57.213523 39.079836 
L 57.23119 39.030799 
L 57.28864 38.88159 
L 57.362986 38.683345 
L 57.4343 38.485099 
L 57.501501 38.286854 
L 57.563499 38.088608 
L 57.567036 38.076545 
L 57.627952 37.890362 
L 57.691634 37.692117 
L 57.756875 37.493871 
L 57.826554 37.295626 
L 57.902882 37.099127 
L 57.903656 37.09738 
L 58.007157 36.899135 
L 58.118466 36.700889 
L 58.238729 36.502644 
L 58.238729 36.502644 
L 58.391002 36.304398 
L 58.547117 36.106153 
L 58.574575 36.073747 
L 58.733188 35.907907 
L 58.910421 35.724697 
L 58.927453 35.709661 
L 59.155458 35.511416 
L 59.246268 35.43258 
L 59.411599 35.31317 
L 59.582114 35.187846 
L 59.708674 35.114925 
L 59.91796 34.990085 
L 60.090988 34.916679 
L 60.253806 34.843791 
L 60.589653 34.761481 
L 60.925499 34.77539 
L 61.160721 34.916679 
L 61.261345 35.028834 
L 61.306967 35.114925 
L 61.388142 35.31317 
L 61.468319 35.511416 
L 61.560957 35.709661 
L 61.597192 35.781829 
L 61.651186 35.907907 
L 61.718257 36.106153 
L 61.754542 36.304398 
L 61.759638 36.502644 
L 61.738956 36.700889 
L 61.69829 36.899135 
L 61.641721 37.09738 
L 61.597192 37.221709 
L 61.569941 37.295626 
L 61.483935 37.493871 
L 61.387011 37.692117 
L 61.278352 37.890362 
L 61.261345 37.917343 
L 61.15116 38.088608 
L 61.012678 38.286854 
L 60.925499 38.400633 
L 60.858374 38.485099 
L 60.690021 38.683345 
L 60.589653 38.794584 
L 60.506908 38.88159 
L 60.311775 39.079836 
L 60.253806 39.13629 
L 60.098154 39.278081 
L 59.91796 39.440439 
L 59.874063 39.476327 
L 59.63185 39.674572 
L 59.582114 39.715002 
L 59.36681 39.872818 
L 59.246268 39.962478 
L 59.080248 40.071063 
L 58.910421 40.185389 
L 58.765172 40.269309 
L 58.574575 40.384055 
L 58.408894 40.467554 
L 58.238729 40.557866 
L 57.988513 40.6658 
L 57.902882 40.705062 
L 57.567036 40.815395 
L 57.278176 40.864046 
L 57.23119 40.872845 
z
" clip-path="url(#pd67e2dd1f2)" style="fill: #9fcbd7; fill-opacity: 0.99"/>
    <path d="M 57.23119 40.872845 
L 57.278176 40.864046 
L 57.567036 40.815395 
L 57.902882 40.705062 
L 57.988513 40.6658 
L 58.238729 40.557866 
L 58.408894 40.467554 
L 58.574575 40.384055 
L 58.765172 40.269309 
L 58.910421 40.185389 
L 59.080248 40.071063 
L 59.246268 39.962478 
L 59.36681 39.872818 
L 59.582114 39.715002 
L 59.63185 39.674572 
L 59.874063 39.476327 
L 59.91796 39.440439 
L 60.098154 39.278081 
L 60.253806 39.13629 
L 60.311775 39.079836 
L 60.506908 38.88159 
L 60.589653 38.794584 
L 60.690021 38.683345 
L 60.858374 38.485099 
L 60.925499 38.400633 
L 61.012678 38.286854 
L 61.15116 38.088608 
L 61.261345 37.917343 
L 61.278352 37.890362 
L 61.387011 37.692117 
L 61.483935 37.493871 
L 61.569941 37.295626 
L 61.597192 37.221709 
L 61.641721 37.09738 
L 61.69829 36.899135 
L 61.738956 36.700889 
L 61.759638 36.502644 
L 61.754542 36.304398 
L 61.718257 36.106153 
L 61.651186 35.907907 
L 61.597192 35.781829 
L 61.560957 35.709661 
L 61.468319 35.511416 
L 61.388142 35.31317 
L 61.306967 35.114925 
L 61.261345 35.028834 
L 61.160721 34.916679 
L 60.925499 34.77539 
L 60.589653 34.761481 
L 60.253806 34.843791 
L 60.090988 34.916679 
L 59.91796 34.990085 
L 59.708674 35.114925 
L 59.582114 35.187846 
L 59.411599 35.31317 
L 59.246268 35.43258 
L 59.155458 35.511416 
L 58.927453 35.709661 
L 58.910421 35.724697 
L 58.733188 35.907907 
L 58.574575 36.073747 
L 58.547117 36.106153 
L 58.391002 36.304398 
L 58.238729 36.502644 
L 58.238729 36.502644 
L 58.118466 36.700889 
L 58.007157 36.899135 
L 57.903656 37.09738 
L 57.902882 37.099127 
L 57.826554 37.295626 
L 57.756875 37.493871 
L 57.691634 37.692117 
L 57.627952 37.890362 
L 57.567036 38.076545 
L 57.563499 38.088608 
L 57.501501 38.286854 
L 57.4343 38.485099 
L 57.362986 38.683345 
L 57.28864 38.88159 
L 57.23119 39.030799 
L 57.213523 39.079836 
L 57.143478 39.278081 
L 57.074649 39.476327 
L 57.007135 39.674572 
L 56.941168 39.872818 
L 56.895344 40.021471 
L 56.881149 40.071063 
L 56.83926 40.269309 
L 56.819139 40.467554 
L 56.844842 40.6658 
L 56.895344 40.754129 
L 57.174964 40.864046 
z
M 57.889805 39.872818 
L 57.801653 39.674572 
L 57.791459 39.476327 
L 57.815428 39.278081 
L 57.85865 39.079836 
L 57.902882 38.92626 
L 57.917751 38.88159 
L 57.994986 38.683345 
L 58.075538 38.485099 
L 58.158253 38.286854 
L 58.238729 38.093955 
L 58.241333 38.088608 
L 58.332784 37.890362 
L 58.418531 37.692117 
L 58.49744 37.493871 
L 58.568424 37.295626 
L 58.574575 37.277744 
L 58.655016 37.09738 
L 58.748353 36.899135 
L 58.84713 36.700889 
L 58.910421 36.58774 
L 58.975852 36.502644 
L 59.142455 36.304398 
L 59.246268 36.18456 
L 59.345968 36.106153 
L 59.582114 35.913402 
L 59.59496 35.907907 
L 59.91796 35.763966 
L 60.253806 35.769781 
L 60.409781 35.907907 
L 60.589653 36.09865 
L 60.594616 36.106153 
L 60.753282 36.304398 
L 60.925499 36.501709 
L 60.926019 36.502644 
L 61.004854 36.700889 
L 61.034834 36.899135 
L 61.025316 37.09738 
L 60.987444 37.295626 
L 60.928765 37.493871 
L 60.925499 37.501955 
L 60.838965 37.692117 
L 60.738174 37.890362 
L 60.626983 38.088608 
L 60.589653 38.146482 
L 60.487702 38.286854 
L 60.336127 38.485099 
L 60.253806 38.585475 
L 60.161405 38.683345 
L 59.970701 38.88159 
L 59.91796 38.933936 
L 59.746169 39.079836 
L 59.582114 39.222979 
L 59.504322 39.278081 
L 59.246268 39.470309 
L 59.235644 39.476327 
L 58.910421 39.674572 
L 58.910421 39.674572 
L 58.574575 39.830571 
L 58.417554 39.872818 
L 58.238729 39.927137 
L 57.902882 39.885047 
z
" clip-path="url(#pd67e2dd1f2)" style="fill: #8fc2cf; fill-opacity: 0.99"/>
    <path d="M 57.902882 39.885047 
L 58.238729 39.927137 
L 58.417554 39.872818 
L 58.574575 39.830571 
L 58.910421 39.674572 
L 58.910421 39.674572 
L 59.235644 39.476327 
L 59.246268 39.470309 
L 59.504322 39.278081 
L 59.582114 39.222979 
L 59.746169 39.079836 
L 59.91796 38.933936 
L 59.970701 38.88159 
L 60.161405 38.683345 
L 60.253806 38.585475 
L 60.336127 38.485099 
L 60.487702 38.286854 
L 60.589653 38.146482 
L 60.626983 38.088608 
L 60.738174 37.890362 
L 60.838965 37.692117 
L 60.925499 37.501955 
L 60.928765 37.493871 
L 60.987444 37.295626 
L 61.025316 37.09738 
L 61.034834 36.899135 
L 61.004854 36.700889 
L 60.926019 36.502644 
L 60.925499 36.501709 
L 60.753282 36.304398 
L 60.594616 36.106153 
L 60.589653 36.09865 
L 60.409781 35.907907 
L 60.253806 35.769781 
L 59.91796 35.763966 
L 59.59496 35.907907 
L 59.582114 35.913402 
L 59.345968 36.106153 
L 59.246268 36.18456 
L 59.142455 36.304398 
L 58.975852 36.502644 
L 58.910421 36.58774 
L 58.84713 36.700889 
L 58.748353 36.899135 
L 58.655016 37.09738 
L 58.574575 37.277744 
L 58.568424 37.295626 
L 58.49744 37.493871 
L 58.418531 37.692117 
L 58.332784 37.890362 
L 58.241333 38.088608 
L 58.238729 38.093955 
L 58.158253 38.286854 
L 58.075538 38.485099 
L 57.994986 38.683345 
L 57.917751 38.88159 
L 57.902882 38.92626 
L 57.85865 39.079836 
L 57.815428 39.278081 
L 57.791459 39.476327 
L 57.801653 39.674572 
L 57.889805 39.872818 
z
" clip-path="url(#pd67e2dd1f2)" style="fill: #7eb9c8; fill-opacity: 0.99"/>
   </g>
   <g id="PathCollection_1">
    <defs>
     <path id="md5075f6f4f" d="M 0 1 
C 0.265203 1 0.51958 0.894634 0.707107 0.707107 
C 0.894634 0.51958 1 0.265203 1 0 
C 1 -0.265203 0.894634 -0.51958 0.707107 -0.707107 
C 0.51958 -0.894634 0.265203 -1 0 -1 
C -0.265203 -1 -0.51958 -0.894634 -0.707107 -0.707107 
C -0.894634 -0.51958 -1 -0.265203 -1 0 
C -1 0.265203 -0.894634 0.51958 -0.707107 0.707107 
C -0.51958 0.894634 -0.265203 1 0 1 
z
" style="stroke: #000000"/>
    </defs>
    <g clip-path="url(#pd67e2dd1f2)">
     <use xlink:href="#md5075f6f4f" x="55.609916" y="36.327579" style="stroke: #000000"/>
    </g>
   </g>
   <g id="PathCollection_2">
    <defs>
     <path id="mff7068bf49" d="M 0 0.866025 
C 0.229673 0.866025 0.449969 0.774776 0.612372 0.612372 
C 0.774776 0.449969 0.866025 0.229673 0.866025 0 
C 0.866025 -0.229673 0.774776 -0.449969 0.612372 -0.612372 
C 0.449969 -0.774776 0.229673 -0.866025 0 -0.866025 
C -0.229673 -0.866025 -0.449969 -0.774776 -0.612372 -0.612372 
C -0.774776 -0.449969 -0.866025 -0.229673 -0.866025 0 
C -0.866025 0.229673 -0.774776 0.449969 -0.612372 0.612372 
C -0.449969 0.774776 -0.229673 0.866025 0 0.866025 
z
" style="stroke: #ff7f0e"/>
    </defs>
    <g clip-path="url(#pd67e2dd1f2)">
     <use xlink:href="#mff7068bf49" x="63.067676" y="33.796626" style="fill: #ff7f0e; stroke: #ff7f0e"/>
    </g>
   </g>
   <g id="PathCollection_3">
    <defs>
     <path id="me584d816b9" d="M 0 0.866025 
C 0.229673 0.866025 0.449969 0.774776 0.612372 0.612372 
C 0.774776 0.449969 0.866025 0.229673 0.866025 0 
C 0.866025 -0.229673 0.774776 -0.449969 0.612372 -0.612372 
C 0.449969 -0.774776 0.229673 -0.866025 0 -0.866025 
C -0.229673 -0.866025 -0.449969 -0.774776 -0.612372 -0.612372 
C -0.774776 -0.449969 -0.866025 -0.229673 -0.866025 0 
C -0.866025 0.229673 -0.774776 0.449969 -0.612372 0.612372 
C -0.449969 0.774776 -0.229673 0.866025 0 0.866025 
z
" style="stroke: #ffff00"/>
    </defs>
    <g clip-path="url(#pd67e2dd1f2)">
     <use xlink:href="#me584d816b9" x="49.500848" y="44.267026" style="fill: #ffff00; stroke: #ffff00"/>
    </g>
   </g>
   <g id="matplotlib.axis_1">
    <g id="xtick_1">
     <g id="line2d_1">
      <defs>
       <path id="maea25dc828" d="M 0 0 
L 0 3.5 
" style="stroke: #000000; stroke-width: 1.5"/>
      </defs>
      <g>
       <use xlink:href="#maea25dc828" x="27.467969" y="55.872" style="stroke: #000000; stroke-width: 1.5"/>
      </g>
     </g>
     <g id="text_1">
      <text style="font: 9px 'Arial', sans-serif; text-anchor: middle" x="27.467969" y="69.710594" transform="rotate(-0 27.467969 69.710594)">0.8</text>
     </g>
    </g>
    <g id="xtick_2">
     <g id="line2d_2">
      <g>
       <use xlink:href="#maea25dc828" x="94.427969" y="55.872" style="stroke: #000000; stroke-width: 1.5"/>
      </g>
     </g>
     <g id="text_2">
      <text style="font: 9px 'Arial', sans-serif; text-anchor: middle" x="94.427969" y="69.710594" transform="rotate(-0 94.427969 69.710594)">1.2</text>
     </g>
    </g>
    <g id="text_3">
     <!-- $\rho$ -->
     <g transform="translate(58.067969 68.402625)">
      <text>
       <tspan style="font: 9px 'DejaVu Sans'" x="0" y="-0.953125"></tspan>
      </text>
     </g>
    </g>
   </g>
   <g id="matplotlib.axis_2">
    <g id="ytick_1">
     <g id="line2d_3">
      <defs>
       <path id="m41b1c4ad9c" d="M 0 0 
L -3.5 0 
" style="stroke: #000000; stroke-width: 1.5"/>
      </defs>
      <g>
       <use xlink:href="#m41b1c4ad9c" x="27.467969" y="53.298" style="stroke: #000000; stroke-width: 1.5"/>
      </g>
     </g>
     <g id="text_4">
      <text style="font: 9px 'Arial', sans-serif; text-anchor: end" x="20.467969" y="56.717297" transform="rotate(-0 20.467969 56.717297)">3</text>
     </g>
    </g>
    <g id="ytick_2">
     <g id="line2d_4">
      <g>
       <use xlink:href="#m41b1c4ad9c" x="27.467969" y="22.41" style="stroke: #000000; stroke-width: 1.5"/>
      </g>
     </g>
     <g id="text_5">
      <text style="font: 9px 'Arial', sans-serif; text-anchor: end" x="20.467969" y="25.829297" transform="rotate(-0 20.467969 25.829297)">3</text>
     </g>
    </g>
    <g id="text_6">
     <text style="font: 9px 'Arial', sans-serif; text-anchor: middle" x="20.328281" y="37.854" transform="rotate(-90 20.328281 37.854)">Re</text>
    </g>
   </g>
   <g id="patch_3">
    <path d="M 27.467969 55.872 
L 27.467969 19.836 
" style="fill: none; stroke: #000000; stroke-width: 1.5; stroke-linejoin: miter; stroke-linecap: square"/>
   </g>
   <g id="patch_4">
    <path d="M 27.467969 55.872 
L 94.427969 55.872 
" style="fill: none; stroke: #000000; stroke-width: 1.5; stroke-linejoin: miter; stroke-linecap: square"/>
   </g>
   <g id="text_7">
    <!-- $\theta^*$ -->
    <g transform="translate(47.239914 36.327579)">
     <text>
      <tspan style="font: 9px 'DejaVu Sans'" x="0" y="-0.8734375000000014"></tspan>
      <tspan style="font: 6.3px 'DejaVu Sans'" x="6.787266" y="-4.318750000000001">*</tspan>
     </text>
    </g>
   </g>
  </g>
  <g id="text_8">
   <text style="font: 9px 'Arial', sans-serif; text-anchor: middle" x="59.867969" y="14.038594" transform="rotate(-0 59.867969 14.038594)">Posterior (T=10)</text>
  </g>
 </g>
 <defs>
  <clipPath id="pd67e2dd1f2">
   <rect x="27.467969" y="19.836" width="66.96" height="36.036"/>
  </clipPath>
 </defs>
</svg>
