<?xml version="1.0" encoding="utf-8" standalone="no"?>
<!DOCTYPE svg PUBLIC "-//W3C//DTD SVG 1.1//EN"
  "http://www.w3.org/Graphics/SVG/1.1/DTD/svg11.dtd">
<svg xmlns:xlink="http://www.w3.org/1999/xlink" width="108.784375pt" height="66.991609pt" viewBox="0 0 108.784375 66.991609" xmlns="http://www.w3.org/2000/svg" version="1.1">
 <metadata>
  <rdf:RDF xmlns:dc="http://purl.org/dc/elements/1.1/" xmlns:cc="http://creativecommons.org/ns#" xmlns:rdf="http://www.w3.org/1999/02/22-rdf-syntax-ns#">
   <cc:Work>
    <dc:type rdf:resource="http://purl.org/dc/dcmitype/StillImage"/>
    <dc:date>2024-09-30T13:47:12.740931</dc:date>
    <dc:format>image/svg+xml</dc:format>
    <dc:creator>
     <cc:Agent>
      <dc:title>Matplotlib v3.9.2, https://matplotlib.org/</dc:title>
     </cc:Agent>
    </dc:creator>
   </cc:Work>
  </rdf:RDF>
 </metadata>
 <defs>
  <style type="text/css">*{stroke-linejoin: round; stroke-linecap: butt}</style>
 </defs>
 <g id="figure_1">
  <g id="patch_1">
   <path d="M 0 66.991609 
L 108.784375 66.991609 
L 108.784375 -0 
L 0 -0 
z
" style="fill: #ffffff"/>
  </g>
  <g id="axes_1">
   <g id="patch_2">
    <path d="M 27.467969 44.081297 
L 94.427969 44.081297 
L 94.427969 8.045297 
L 27.467969 8.045297 
z
" style="fill: #ffffff"/>
   </g>
   <g id="QuadContourSet_1">
    <path d="M 39.994908 34.568219 
L 40.324245 34.618479 
L 40.653581 34.600544 
L 40.982917 34.546323 
L 41.203084 34.51067 
L 41.312254 34.48676 
L 41.64159 34.478287 
L 41.785613 34.51067 
L 41.970926 34.544534 
L 42.300263 34.594818 
L 42.629599 34.55229 
L 42.723635 34.51067 
L 42.958935 34.400829 
L 43.137508 34.276766 
L 43.288271 34.152683 
L 43.405881 34.042863 
L 43.583556 33.808959 
L 43.617608 33.724809 
L 43.682333 33.575056 
L 43.66032 33.341152 
L 43.617608 33.278925 
L 43.289385 33.107248 
L 43.288271 33.106966 
L 43.285143 33.107248 
L 42.958935 33.134472 
L 42.629599 33.226336 
L 42.300263 33.333344 
L 42.276253 33.341152 
L 41.970926 33.458347 
L 41.64159 33.550997 
L 41.541464 33.575056 
L 41.312254 33.645798 
L 40.982917 33.727894 
L 40.653581 33.80767 
L 40.648541 33.808959 
L 40.324245 33.926983 
L 40.036323 34.042863 
L 39.994908 34.078075 
L 39.782261 34.276766 
L 39.852655 34.51067 
z
M 47.89898 32.422509 
L 48.228316 32.509676 
L 48.557652 32.465622 
L 48.748327 32.405538 
L 48.886989 32.374079 
L 49.216325 32.284288 
L 49.545661 32.200648 
L 49.689897 32.171634 
L 49.874998 32.144731 
L 50.204334 32.107132 
L 50.53367 32.066988 
L 50.863007 32.01572 
L 51.192343 31.950516 
L 51.245879 31.93773 
L 51.521679 31.886455 
L 51.851016 31.808286 
L 52.180352 31.70479 
L 52.183069 31.703827 
L 52.509688 31.608845 
L 52.839025 31.498222 
L 52.926779 31.469923 
L 53.168361 31.406958 
L 53.497697 31.327558 
L 53.827033 31.247206 
L 53.869339 31.23602 
L 54.15637 31.178726 
L 54.485706 31.095239 
L 54.76814 31.002116 
L 54.815042 30.989572 
L 55.144379 30.892084 
L 55.473715 30.776609 
L 55.499655 30.768212 
L 55.803051 30.684235 
L 56.132388 30.591267 
L 56.327448 30.534309 
L 56.461724 30.500889 
L 56.79106 30.40945 
L 57.098388 30.300405 
L 57.120397 30.29349 
L 57.449733 30.174429 
L 57.689232 30.066502 
L 57.779069 30.028706 
L 58.108406 29.87396 
L 58.189589 29.832598 
L 58.437742 29.713134 
L 58.65339 29.598694 
L 58.767078 29.541814 
L 59.093378 29.364791 
L 59.096414 29.363241 
L 59.425751 29.191879 
L 59.532291 29.130887 
L 59.755087 29.007913 
L 59.938824 28.896983 
L 60.084423 28.808703 
L 60.308128 28.66308 
L 60.41376 28.591783 
L 60.644337 28.429176 
L 60.743096 28.356326 
L 60.958086 28.195273 
L 61.072432 28.106498 
L 61.261067 27.961369 
L 61.401769 27.84963 
L 61.56004 27.727465 
L 61.731105 27.588285 
L 61.852774 27.493562 
L 62.060441 27.315214 
L 62.129092 27.259658 
L 62.380495 27.025755 
L 62.389778 27.015922 
L 62.625459 26.791851 
L 62.719114 26.683223 
L 62.842137 26.557947 
L 63.03616 26.324044 
L 63.04845 26.307808 
L 63.239533 26.09014 
L 63.377787 25.902836 
L 63.417312 25.856237 
L 63.579619 25.622333 
L 63.693227 25.388429 
L 63.707123 25.32387 
L 63.751971 25.154526 
L 63.730184 24.920622 
L 63.707123 24.865781 
L 63.645579 24.686719 
L 63.544551 24.452815 
L 63.461783 24.218911 
L 63.402445 23.985008 
L 63.377787 23.869216 
L 63.3567 23.751104 
L 63.312782 23.517201 
L 63.262829 23.283297 
L 63.173984 23.049393 
L 63.04845 22.902548 
L 62.974029 22.81549 
L 62.719114 22.583424 
L 62.717698 22.581586 
L 62.577122 22.347683 
L 62.478961 22.113779 
L 62.389778 21.886742 
L 62.386215 21.879875 
L 62.215271 21.645972 
L 62.060441 21.502732 
L 61.9567 21.412068 
L 61.731105 21.195546 
L 61.71435 21.178165 
L 61.486884 20.944261 
L 61.401769 20.869407 
L 61.135869 20.710357 
L 61.072432 20.680894 
L 60.743096 20.580091 
L 60.41376 20.506899 
L 60.269406 20.476454 
L 60.084423 20.39929 
L 59.755087 20.305332 
L 59.455926 20.24255 
L 59.425751 20.235968 
L 59.096414 20.132849 
L 58.767078 20.024436 
L 58.724178 20.008647 
L 58.437742 19.87888 
L 58.223767 19.774743 
L 58.108406 19.715479 
L 57.779069 19.630213 
L 57.449733 19.642174 
L 57.120397 19.70848 
L 56.87851 19.774743 
L 56.79106 19.795101 
L 56.461724 19.888531 
L 56.132388 19.995859 
L 56.098217 20.008647 
L 55.803051 20.113647 
L 55.473715 20.242021 
L 55.472179 20.24255 
L 55.144379 20.358394 
L 54.815042 20.460573 
L 54.744771 20.476454 
L 54.485706 20.538007 
L 54.15637 20.607614 
L 53.827033 20.67943 
L 53.706014 20.710357 
L 53.497697 20.76774 
L 53.168361 20.880404 
L 53.040275 20.944261 
L 52.839025 21.050693 
L 52.67152 21.178165 
L 52.509688 21.303399 
L 52.402269 21.412068 
L 52.180352 21.631078 
L 52.167401 21.645972 
L 51.963653 21.879875 
L 51.851016 22.00652 
L 51.760658 22.113779 
L 51.567638 22.347683 
L 51.521679 22.408196 
L 51.385918 22.581586 
L 51.192343 22.81549 
L 51.192343 22.81549 
L 51.001318 23.049393 
L 50.863007 23.196918 
L 50.786537 23.283297 
L 50.554969 23.517201 
L 50.53367 23.535319 
L 50.320113 23.751104 
L 50.204334 23.851702 
L 50.074716 23.985008 
L 49.874998 24.164853 
L 49.822055 24.218911 
L 49.565296 24.452815 
L 49.545661 24.469109 
L 49.303837 24.686719 
L 49.216325 24.766042 
L 49.050887 24.920622 
L 48.886989 25.084301 
L 48.814844 25.154526 
L 48.594591 25.388429 
L 48.557652 25.433642 
L 48.383803 25.622333 
L 48.228316 25.830593 
L 48.205373 25.856237 
L 48.033585 26.09014 
L 47.908132 26.324044 
L 47.89898 26.347823 
L 47.786993 26.557947 
L 47.696873 26.791851 
L 47.631706 27.025755 
L 47.577431 27.259658 
L 47.569644 27.291937 
L 47.502291 27.493562 
L 47.432523 27.727465 
L 47.360104 27.961369 
L 47.274713 28.195273 
L 47.240307 28.267295 
L 47.144947 28.429176 
L 47.003846 28.66308 
L 46.910971 28.827951 
L 46.862512 28.896983 
L 46.720202 29.130887 
L 46.611773 29.364791 
L 46.581635 29.452626 
L 46.517251 29.598694 
L 46.455558 29.832598 
L 46.426598 30.066502 
L 46.426171 30.300405 
L 46.446114 30.534309 
L 46.474713 30.768212 
L 46.509314 31.002116 
L 46.553561 31.23602 
L 46.581635 31.360055 
L 46.6032 31.469923 
L 46.685278 31.703827 
L 46.910971 31.926041 
L 46.979901 31.93773 
L 47.240307 31.976895 
L 47.569644 32.089729 
L 47.657709 32.171634 
L 47.874902 32.405538 
z
M 49.798357 30.768212 
L 49.545661 30.565503 
L 49.51625 30.534309 
L 49.302246 30.300405 
L 49.216325 30.210567 
L 49.062685 30.066502 
L 48.886989 29.86596 
L 48.862735 29.832598 
L 48.746312 29.598694 
L 48.688329 29.364791 
L 48.664598 29.130887 
L 48.661928 28.896983 
L 48.679325 28.66308 
L 48.722316 28.429176 
L 48.789914 28.195273 
L 48.8744 27.961369 
L 48.886989 27.930826 
L 48.960053 27.727465 
L 49.050319 27.493562 
L 49.149861 27.259658 
L 49.216325 27.122182 
L 49.258877 27.025755 
L 49.379376 26.791851 
L 49.530162 26.557947 
L 49.545661 26.535547 
L 49.690013 26.324044 
L 49.874998 26.105941 
L 49.888223 26.09014 
L 50.106244 25.856237 
L 50.204334 25.765437 
L 50.3615 25.622333 
L 50.53367 25.486379 
L 50.652551 25.388429 
L 50.863007 25.23351 
L 50.961008 25.154526 
L 51.192343 24.983213 
L 51.268762 24.920622 
L 51.521679 24.726066 
L 51.568968 24.686719 
L 51.851016 24.462566 
L 51.862769 24.452815 
L 52.148203 24.218911 
L 52.180352 24.193785 
L 52.440231 23.985008 
L 52.509688 23.931914 
L 52.751324 23.751104 
L 52.839025 23.688103 
L 53.095137 23.517201 
L 53.168361 23.469576 
L 53.492438 23.283297 
L 53.497697 23.280271 
L 53.827033 23.107495 
L 53.953271 23.049393 
L 54.15637 22.953011 
L 54.485706 22.81549 
L 54.485706 22.81549 
L 54.815042 22.668712 
L 55.029273 22.581586 
L 55.144379 22.530492 
L 55.473715 22.3962 
L 55.608644 22.347683 
L 55.803051 22.26924 
L 56.132388 22.160674 
L 56.303975 22.113779 
L 56.461724 22.06421 
L 56.79106 21.982479 
L 57.120397 21.921569 
L 57.449733 21.892316 
L 57.779069 21.92345 
L 58.108406 22.048847 
L 58.230697 22.113779 
L 58.437742 22.204613 
L 58.767078 22.299038 
L 59.056787 22.347683 
L 59.096414 22.354076 
L 59.425751 22.432631 
L 59.708912 22.581586 
L 59.755087 22.611827 
L 59.988335 22.81549 
L 60.084423 22.901788 
L 60.26131 23.049393 
L 60.41376 23.171643 
L 60.559716 23.283297 
L 60.743096 23.451613 
L 60.808827 23.517201 
L 61.031189 23.751104 
L 61.072432 23.792687 
L 61.254021 23.985008 
L 61.401769 24.158637 
L 61.451427 24.218911 
L 61.612375 24.452815 
L 61.701267 24.686719 
L 61.714297 24.920622 
L 61.677052 25.154526 
L 61.612225 25.388429 
L 61.526866 25.622333 
L 61.421235 25.856237 
L 61.401769 25.895569 
L 61.320662 26.09014 
L 61.198133 26.324044 
L 61.072432 26.515279 
L 61.047372 26.557947 
L 60.87776 26.791851 
L 60.743096 26.937638 
L 60.666527 27.025755 
L 60.414073 27.259658 
L 60.41376 27.259917 
L 60.142251 27.493562 
L 60.084423 27.537626 
L 59.846099 27.727465 
L 59.755087 27.793172 
L 59.528305 27.961369 
L 59.425751 28.031326 
L 59.183588 28.195273 
L 59.096414 28.250709 
L 58.803593 28.429176 
L 58.767078 28.450801 
L 58.437742 28.639027 
L 58.393727 28.66308 
L 58.108406 28.820864 
L 57.956892 28.896983 
L 57.779069 28.99079 
L 57.471628 29.130887 
L 57.449733 29.141703 
L 57.120397 29.290034 
L 56.915437 29.364791 
L 56.79106 29.415473 
L 56.461724 29.534412 
L 56.267455 29.598694 
L 56.132388 29.649595 
L 55.803051 29.770292 
L 55.624455 29.832598 
L 55.473715 29.892674 
L 55.144379 30.010637 
L 54.957126 30.066502 
L 54.815042 30.114674 
L 54.485706 30.201762 
L 54.15637 30.268016 
L 53.963222 30.300405 
L 53.827033 30.32664 
L 53.497697 30.388757 
L 53.168361 30.454063 
L 52.839025 30.522857 
L 52.784542 30.534309 
L 52.509688 30.602173 
L 52.180352 30.674997 
L 51.851016 30.734359 
L 51.58131 30.768212 
L 51.521679 30.77648 
L 51.192343 30.804972 
L 50.863007 30.832483 
L 50.53367 30.859102 
L 50.204334 30.865035 
L 49.874998 30.806359 
z
" clip-path="url(#pa51de2b626)" style="fill: #f9fcfc; fill-opacity: 0.99"/>
    <path d="M 49.874998 30.806359 
L 50.204334 30.865035 
L 50.53367 30.859102 
L 50.863007 30.832483 
L 51.192343 30.804972 
L 51.521679 30.77648 
L 51.58131 30.768212 
L 51.851016 30.734359 
L 52.180352 30.674997 
L 52.509688 30.602173 
L 52.784542 30.534309 
L 52.839025 30.522857 
L 53.168361 30.454063 
L 53.497697 30.388757 
L 53.827033 30.32664 
L 53.963222 30.300405 
L 54.15637 30.268016 
L 54.485706 30.201762 
L 54.815042 30.114674 
L 54.957126 30.066502 
L 55.144379 30.010637 
L 55.473715 29.892674 
L 55.624455 29.832598 
L 55.803051 29.770292 
L 56.132388 29.649595 
L 56.267455 29.598694 
L 56.461724 29.534412 
L 56.79106 29.415473 
L 56.915437 29.364791 
L 57.120397 29.290034 
L 57.449733 29.141703 
L 57.471628 29.130887 
L 57.779069 28.99079 
L 57.956892 28.896983 
L 58.108406 28.820864 
L 58.393727 28.66308 
L 58.437742 28.639027 
L 58.767078 28.450801 
L 58.803593 28.429176 
L 59.096414 28.250709 
L 59.183588 28.195273 
L 59.425751 28.031326 
L 59.528305 27.961369 
L 59.755087 27.793172 
L 59.846099 27.727465 
L 60.084423 27.537626 
L 60.142251 27.493562 
L 60.41376 27.259917 
L 60.414073 27.259658 
L 60.666527 27.025755 
L 60.743096 26.937638 
L 60.87776 26.791851 
L 61.047372 26.557947 
L 61.072432 26.515279 
L 61.198133 26.324044 
L 61.320662 26.09014 
L 61.401769 25.895569 
L 61.421235 25.856237 
L 61.526866 25.622333 
L 61.612225 25.388429 
L 61.677052 25.154526 
L 61.714297 24.920622 
L 61.701267 24.686719 
L 61.612375 24.452815 
L 61.451427 24.218911 
L 61.401769 24.158637 
L 61.254021 23.985008 
L 61.072432 23.792687 
L 61.031189 23.751104 
L 60.808827 23.517201 
L 60.743096 23.451613 
L 60.559716 23.283297 
L 60.41376 23.171643 
L 60.26131 23.049393 
L 60.084423 22.901788 
L 59.988335 22.81549 
L 59.755087 22.611827 
L 59.708912 22.581586 
L 59.425751 22.432631 
L 59.096414 22.354076 
L 59.056787 22.347683 
L 58.767078 22.299038 
L 58.437742 22.204613 
L 58.230697 22.113779 
L 58.108406 22.048847 
L 57.779069 21.92345 
L 57.449733 21.892316 
L 57.120397 21.921569 
L 56.79106 21.982479 
L 56.461724 22.06421 
L 56.303975 22.113779 
L 56.132388 22.160674 
L 55.803051 22.26924 
L 55.608644 22.347683 
L 55.473715 22.3962 
L 55.144379 22.530492 
L 55.029273 22.581586 
L 54.815042 22.668712 
L 54.485706 22.81549 
L 54.485706 22.81549 
L 54.15637 22.953011 
L 53.953271 23.049393 
L 53.827033 23.107495 
L 53.497697 23.280271 
L 53.492438 23.283297 
L 53.168361 23.469576 
L 53.095137 23.517201 
L 52.839025 23.688103 
L 52.751324 23.751104 
L 52.509688 23.931914 
L 52.440231 23.985008 
L 52.180352 24.193785 
L 52.148203 24.218911 
L 51.862769 24.452815 
L 51.851016 24.462566 
L 51.568968 24.686719 
L 51.521679 24.726066 
L 51.268762 24.920622 
L 51.192343 24.983213 
L 50.961008 25.154526 
L 50.863007 25.23351 
L 50.652551 25.388429 
L 50.53367 25.486379 
L 50.3615 25.622333 
L 50.204334 25.765437 
L 50.106244 25.856237 
L 49.888223 26.09014 
L 49.874998 26.105941 
L 49.690013 26.324044 
L 49.545661 26.535547 
L 49.530162 26.557947 
L 49.379376 26.791851 
L 49.258877 27.025755 
L 49.216325 27.122182 
L 49.149861 27.259658 
L 49.050319 27.493562 
L 48.960053 27.727465 
L 48.886989 27.930826 
L 48.8744 27.961369 
L 48.789914 28.195273 
L 48.722316 28.429176 
L 48.679325 28.66308 
L 48.661928 28.896983 
L 48.664598 29.130887 
L 48.688329 29.364791 
L 48.746312 29.598694 
L 48.862735 29.832598 
L 48.886989 29.86596 
L 49.062685 30.066502 
L 49.216325 30.210567 
L 49.302246 30.300405 
L 49.51625 30.534309 
L 49.545661 30.565503 
L 49.798357 30.768212 
z
M 50.529302 29.832598 
L 50.258594 29.598694 
L 50.204334 29.537295 
L 50.055815 29.364791 
L 49.874998 29.131149 
L 49.874795 29.130887 
L 49.737973 28.896983 
L 49.683822 28.66308 
L 49.688476 28.429176 
L 49.72804 28.195273 
L 49.791604 27.961369 
L 49.874998 27.727465 
L 49.874998 27.727465 
L 49.958675 27.493562 
L 50.059206 27.259658 
L 50.181063 27.025755 
L 50.204334 26.987713 
L 50.312718 26.791851 
L 50.47403 26.557947 
L 50.53367 26.48662 
L 50.657639 26.324044 
L 50.863007 26.105426 
L 50.876351 26.09014 
L 51.109325 25.856237 
L 51.192343 25.783413 
L 51.367366 25.622333 
L 51.521679 25.493143 
L 51.645273 25.388429 
L 51.851016 25.222861 
L 51.937957 25.154526 
L 52.180352 24.96686 
L 52.243125 24.920622 
L 52.509688 24.721845 
L 52.559951 24.686719 
L 52.839025 24.485975 
L 52.888742 24.452815 
L 53.168361 24.259878 
L 53.233327 24.218911 
L 53.497697 24.047071 
L 53.604023 23.985008 
L 53.827033 23.851714 
L 54.016362 23.751104 
L 54.15637 23.675283 
L 54.482544 23.517201 
L 54.485706 23.51564 
L 54.815042 23.365097 
L 55.017911 23.283297 
L 55.144379 23.229893 
L 55.473715 23.109104 
L 55.672266 23.049393 
L 55.803051 23.007944 
L 56.132388 22.928263 
L 56.461724 22.875186 
L 56.79106 22.852361 
L 57.120397 22.865097 
L 57.449733 22.918326 
L 57.779069 23.004521 
L 57.929921 23.049393 
L 58.108406 23.099614 
L 58.437742 23.201859 
L 58.652378 23.283297 
L 58.767078 23.328386 
L 59.096414 23.505232 
L 59.113811 23.517201 
L 59.425751 23.748226 
L 59.429213 23.751104 
L 59.694892 23.985008 
L 59.755087 24.04169 
L 59.946036 24.218911 
L 60.084423 24.346737 
L 60.201631 24.452815 
L 60.407034 24.686719 
L 60.41376 24.698124 
L 60.542317 24.920622 
L 60.615705 25.154526 
L 60.631787 25.388429 
L 60.593863 25.622333 
L 60.512439 25.856237 
L 60.41376 26.047686 
L 60.393552 26.09014 
L 60.252007 26.324044 
L 60.084423 26.543763 
L 60.073938 26.557947 
L 59.878844 26.791851 
L 59.755087 26.919611 
L 59.654259 27.025755 
L 59.425751 27.241673 
L 59.406898 27.259658 
L 59.143902 27.493562 
L 59.096414 27.531995 
L 58.855786 27.727465 
L 58.767078 27.792793 
L 58.535554 27.961369 
L 58.437742 28.026505 
L 58.178635 28.195273 
L 58.108406 28.237927 
L 57.780648 28.429176 
L 57.779069 28.430059 
L 57.449733 28.606811 
L 57.334525 28.66308 
L 57.120397 28.765723 
L 56.805471 28.896983 
L 56.79106 28.903128 
L 56.461724 29.031097 
L 56.166679 29.130887 
L 56.132388 29.143369 
L 55.803051 29.25546 
L 55.473715 29.355725 
L 55.44133 29.364791 
L 55.144379 29.458841 
L 54.815042 29.547958 
L 54.588907 29.598694 
L 54.485706 29.625523 
L 54.15637 29.700035 
L 53.827033 29.760973 
L 53.497697 29.81178 
L 53.332491 29.832598 
L 53.168361 29.858332 
L 52.839025 29.892477 
L 52.509688 29.90546 
L 52.180352 29.902431 
L 51.851016 29.906366 
L 51.521679 29.93032 
L 51.192343 29.95666 
L 50.863007 29.947819 
L 50.53367 29.835549 
z
" clip-path="url(#pa51de2b626)" style="fill: #ecf5f7; fill-opacity: 0.99"/>
    <path d="M 50.53367 29.835549 
L 50.863007 29.947819 
L 51.192343 29.95666 
L 51.521679 29.93032 
L 51.851016 29.906366 
L 52.180352 29.902431 
L 52.509688 29.90546 
L 52.839025 29.892477 
L 53.168361 29.858332 
L 53.332491 29.832598 
L 53.497697 29.81178 
L 53.827033 29.760973 
L 54.15637 29.700035 
L 54.485706 29.625523 
L 54.588907 29.598694 
L 54.815042 29.547958 
L 55.144379 29.458841 
L 55.44133 29.364791 
L 55.473715 29.355725 
L 55.803051 29.25546 
L 56.132388 29.143369 
L 56.166679 29.130887 
L 56.461724 29.031097 
L 56.79106 28.903128 
L 56.805471 28.896983 
L 57.120397 28.765723 
L 57.334525 28.66308 
L 57.449733 28.606811 
L 57.779069 28.430059 
L 57.780648 28.429176 
L 58.108406 28.237927 
L 58.178635 28.195273 
L 58.437742 28.026505 
L 58.535554 27.961369 
L 58.767078 27.792793 
L 58.855786 27.727465 
L 59.096414 27.531995 
L 59.143902 27.493562 
L 59.406898 27.259658 
L 59.425751 27.241673 
L 59.654259 27.025755 
L 59.755087 26.919611 
L 59.878844 26.791851 
L 60.073938 26.557947 
L 60.084423 26.543763 
L 60.252007 26.324044 
L 60.393552 26.09014 
L 60.41376 26.047686 
L 60.512439 25.856237 
L 60.593863 25.622333 
L 60.631787 25.388429 
L 60.615705 25.154526 
L 60.542317 24.920622 
L 60.41376 24.698124 
L 60.407034 24.686719 
L 60.201631 24.452815 
L 60.084423 24.346737 
L 59.946036 24.218911 
L 59.755087 24.04169 
L 59.694892 23.985008 
L 59.429213 23.751104 
L 59.425751 23.748226 
L 59.113811 23.517201 
L 59.096414 23.505232 
L 58.767078 23.328386 
L 58.652378 23.283297 
L 58.437742 23.201859 
L 58.108406 23.099614 
L 57.929921 23.049393 
L 57.779069 23.004521 
L 57.449733 22.918326 
L 57.120397 22.865097 
L 56.79106 22.852361 
L 56.461724 22.875186 
L 56.132388 22.928263 
L 55.803051 23.007944 
L 55.672266 23.049393 
L 55.473715 23.109104 
L 55.144379 23.229893 
L 55.017911 23.283297 
L 54.815042 23.365097 
L 54.485706 23.51564 
L 54.482544 23.517201 
L 54.15637 23.675283 
L 54.016362 23.751104 
L 53.827033 23.851714 
L 53.604023 23.985008 
L 53.497697 24.047071 
L 53.233327 24.218911 
L 53.168361 24.259878 
L 52.888742 24.452815 
L 52.839025 24.485975 
L 52.559951 24.686719 
L 52.509688 24.721845 
L 52.243125 24.920622 
L 52.180352 24.96686 
L 51.937957 25.154526 
L 51.851016 25.222861 
L 51.645273 25.388429 
L 51.521679 25.493143 
L 51.367366 25.622333 
L 51.192343 25.783413 
L 51.109325 25.856237 
L 50.876351 26.09014 
L 50.863007 26.105426 
L 50.657639 26.324044 
L 50.53367 26.48662 
L 50.47403 26.557947 
L 50.312718 26.791851 
L 50.204334 26.987713 
L 50.181063 27.025755 
L 50.059206 27.259658 
L 49.958675 27.493562 
L 49.874998 27.727465 
L 49.874998 27.727465 
L 49.791604 27.961369 
L 49.72804 28.195273 
L 49.688476 28.429176 
L 49.683822 28.66308 
L 49.737973 28.896983 
L 49.874795 29.130887 
L 49.874998 29.131149 
L 50.055815 29.364791 
L 50.204334 29.537295 
L 50.258594 29.598694 
L 50.529302 29.832598 
z
M 51.521679 29.364791 
L 51.521679 29.364791 
L 51.192343 29.282752 
L 50.968132 29.130887 
L 50.863007 29.023559 
L 50.760216 28.896983 
L 50.596667 28.66308 
L 50.53367 28.54553 
L 50.476193 28.429176 
L 50.433436 28.195273 
L 50.457459 27.961369 
L 50.526329 27.727465 
L 50.53367 27.709885 
L 50.620665 27.493562 
L 50.73064 27.259658 
L 50.855293 27.025755 
L 50.863007 27.012748 
L 50.988934 26.791851 
L 51.142925 26.557947 
L 51.192343 26.494257 
L 51.319615 26.324044 
L 51.521679 26.095888 
L 51.526676 26.09014 
L 51.760272 25.856237 
L 51.851016 25.775587 
L 52.024799 25.622333 
L 52.180352 25.496818 
L 52.317311 25.388429 
L 52.509688 25.245234 
L 52.634595 25.154526 
L 52.839025 25.011406 
L 52.973488 24.920622 
L 53.168361 24.790681 
L 53.334855 24.686719 
L 53.497697 24.583634 
L 53.728914 24.452815 
L 53.827033 24.394895 
L 54.15637 24.22877 
L 54.180112 24.218911 
L 54.485706 24.079145 
L 54.743102 23.985008 
L 54.815042 23.955547 
L 55.144379 23.840926 
L 55.447589 23.751104 
L 55.473715 23.742482 
L 55.803051 23.647201 
L 56.132388 23.577424 
L 56.461724 23.538108 
L 56.79106 23.534112 
L 57.120397 23.56754 
L 57.449733 23.631411 
L 57.779069 23.718528 
L 57.878654 23.751104 
L 58.108406 23.824603 
L 58.437742 23.968182 
L 58.468376 23.985008 
L 58.767078 24.172631 
L 58.828627 24.218911 
L 59.096414 24.440493 
L 59.110359 24.452815 
L 59.369327 24.686719 
L 59.425751 24.742668 
L 59.594607 24.920622 
L 59.737231 25.154526 
L 59.755087 25.21588 
L 59.803724 25.388429 
L 59.814787 25.622333 
L 59.77581 25.856237 
L 59.755087 25.90852 
L 59.68962 26.09014 
L 59.55367 26.324044 
L 59.425751 26.487285 
L 59.37305 26.557947 
L 59.158916 26.791851 
L 59.096414 26.85268 
L 58.919753 27.025755 
L 58.767078 27.162101 
L 58.657125 27.259658 
L 58.437742 27.441266 
L 58.373521 27.493562 
L 58.108406 27.696574 
L 58.067036 27.727465 
L 57.779069 27.929304 
L 57.731375 27.961369 
L 57.449733 28.138417 
L 57.352526 28.195273 
L 57.120397 28.322642 
L 56.903441 28.429176 
L 56.79106 28.481891 
L 56.461724 28.619981 
L 56.34617 28.66308 
L 56.132388 28.743 
L 55.803051 28.85427 
L 55.668024 28.896983 
L 55.473715 28.961767 
L 55.144379 29.063858 
L 54.902096 29.130887 
L 54.815042 29.157312 
L 54.485706 29.247422 
L 54.15637 29.319815 
L 53.892818 29.364791 
L 53.827033 29.377772 
L 53.497697 29.419321 
L 53.168361 29.433057 
L 52.839025 29.418203 
L 52.509688 29.388675 
L 52.180352 29.37208 
L 51.851016 29.373693 
z
" clip-path="url(#pa51de2b626)" style="fill: #deedf1; fill-opacity: 0.99"/>
    <path d="M 51.851016 29.373693 
L 52.180352 29.37208 
L 52.509688 29.388675 
L 52.839025 29.418203 
L 53.168361 29.433057 
L 53.497697 29.419321 
L 53.827033 29.377772 
L 53.892818 29.364791 
L 54.15637 29.319815 
L 54.485706 29.247422 
L 54.815042 29.157312 
L 54.902096 29.130887 
L 55.144379 29.063858 
L 55.473715 28.961767 
L 55.668024 28.896983 
L 55.803051 28.85427 
L 56.132388 28.743 
L 56.34617 28.66308 
L 56.461724 28.619981 
L 56.79106 28.481891 
L 56.903441 28.429176 
L 57.120397 28.322642 
L 57.352526 28.195273 
L 57.449733 28.138417 
L 57.731375 27.961369 
L 57.779069 27.929304 
L 58.067036 27.727465 
L 58.108406 27.696574 
L 58.373521 27.493562 
L 58.437742 27.441266 
L 58.657125 27.259658 
L 58.767078 27.162101 
L 58.919753 27.025755 
L 59.096414 26.85268 
L 59.158916 26.791851 
L 59.37305 26.557947 
L 59.425751 26.487285 
L 59.55367 26.324044 
L 59.68962 26.09014 
L 59.755087 25.90852 
L 59.77581 25.856237 
L 59.814787 25.622333 
L 59.803724 25.388429 
L 59.755087 25.21588 
L 59.737231 25.154526 
L 59.594607 24.920622 
L 59.425751 24.742668 
L 59.369327 24.686719 
L 59.110359 24.452815 
L 59.096414 24.440493 
L 58.828627 24.218911 
L 58.767078 24.172631 
L 58.468376 23.985008 
L 58.437742 23.968182 
L 58.108406 23.824603 
L 57.878654 23.751104 
L 57.779069 23.718528 
L 57.449733 23.631411 
L 57.120397 23.56754 
L 56.79106 23.534112 
L 56.461724 23.538108 
L 56.132388 23.577424 
L 55.803051 23.647201 
L 55.473715 23.742482 
L 55.447589 23.751104 
L 55.144379 23.840926 
L 54.815042 23.955547 
L 54.743102 23.985008 
L 54.485706 24.079145 
L 54.180112 24.218911 
L 54.15637 24.22877 
L 53.827033 24.394895 
L 53.728914 24.452815 
L 53.497697 24.583634 
L 53.334855 24.686719 
L 53.168361 24.790681 
L 52.973488 24.920622 
L 52.839025 25.011406 
L 52.634595 25.154526 
L 52.509688 25.245234 
L 52.317311 25.388429 
L 52.180352 25.496818 
L 52.024799 25.622333 
L 51.851016 25.775587 
L 51.760272 25.856237 
L 51.526676 26.09014 
L 51.521679 26.095888 
L 51.319615 26.324044 
L 51.192343 26.494257 
L 51.142925 26.557947 
L 50.988934 26.791851 
L 50.863007 27.012748 
L 50.855293 27.025755 
L 50.73064 27.259658 
L 50.620665 27.493562 
L 50.53367 27.709885 
L 50.526329 27.727465 
L 50.457459 27.961369 
L 50.433436 28.195273 
L 50.476193 28.429176 
L 50.53367 28.54553 
L 50.596667 28.66308 
L 50.760216 28.896983 
L 50.863007 29.023559 
L 50.968132 29.130887 
L 51.192343 29.282752 
L 51.521679 29.364791 
L 51.521679 29.364791 
z
M 51.84026 28.896983 
L 51.521679 28.739646 
L 51.433955 28.66308 
L 51.24294 28.429176 
L 51.192343 28.336772 
L 51.122435 28.195273 
L 51.078574 27.961369 
L 51.107105 27.727465 
L 51.187652 27.493562 
L 51.192343 27.483783 
L 51.296131 27.259658 
L 51.422879 27.025755 
L 51.521679 26.858888 
L 51.560237 26.791851 
L 51.710358 26.557947 
L 51.851016 26.369457 
L 51.883749 26.324044 
L 52.085181 26.09014 
L 52.180352 25.996609 
L 52.319606 25.856237 
L 52.509688 25.692007 
L 52.588728 25.622333 
L 52.839025 25.427378 
L 52.889271 25.388429 
L 53.168361 25.189711 
L 53.220473 25.154526 
L 53.497697 24.975191 
L 53.592676 24.920622 
L 53.827033 24.786023 
L 54.03503 24.686719 
L 54.15637 24.626408 
L 54.485706 24.49434 
L 54.609249 24.452815 
L 54.815042 24.378948 
L 55.144379 24.27372 
L 55.33271 24.218911 
L 55.473715 24.174171 
L 55.803051 24.087155 
L 56.132388 24.03015 
L 56.461724 24.010327 
L 56.79106 24.027604 
L 57.120397 24.072116 
L 57.449733 24.140763 
L 57.700725 24.218911 
L 57.779069 24.245563 
L 58.108406 24.410672 
L 58.174433 24.452815 
L 58.437742 24.653989 
L 58.478172 24.686719 
L 58.748415 24.920622 
L 58.767078 24.938615 
L 58.976184 25.154526 
L 59.096414 25.343737 
L 59.121094 25.388429 
L 59.177118 25.622333 
L 59.165829 25.856237 
L 59.096414 26.09014 
L 59.096414 26.09014 
L 58.977351 26.324044 
L 58.805793 26.557947 
L 58.767078 26.59941 
L 58.594235 26.791851 
L 58.437742 26.93784 
L 58.345031 27.025755 
L 58.108406 27.224972 
L 58.066984 27.259658 
L 57.779069 27.482588 
L 57.764487 27.493562 
L 57.449733 27.717625 
L 57.4351 27.727465 
L 57.120397 27.929202 
L 57.065479 27.961369 
L 56.79106 28.114771 
L 56.628608 28.195273 
L 56.461724 28.274707 
L 56.132388 28.413432 
L 56.092889 28.429176 
L 55.803051 28.542954 
L 55.473715 28.658618 
L 55.460661 28.66308 
L 55.144379 28.772938 
L 54.815042 28.873112 
L 54.725833 28.896983 
L 54.485706 28.964809 
L 54.15637 29.036596 
L 53.827033 29.083256 
L 53.497697 29.098515 
L 53.168361 29.077816 
L 52.839025 29.0328 
L 52.509688 28.989002 
L 52.180352 28.954098 
L 51.851016 28.900447 
z
" clip-path="url(#pa51de2b626)" style="fill: #cfe5eb; fill-opacity: 0.99"/>
    <path d="M 51.851016 28.900447 
L 52.180352 28.954098 
L 52.509688 28.989002 
L 52.839025 29.0328 
L 53.168361 29.077816 
L 53.497697 29.098515 
L 53.827033 29.083256 
L 54.15637 29.036596 
L 54.485706 28.964809 
L 54.725833 28.896983 
L 54.815042 28.873112 
L 55.144379 28.772938 
L 55.460661 28.66308 
L 55.473715 28.658618 
L 55.803051 28.542954 
L 56.092889 28.429176 
L 56.132388 28.413432 
L 56.461724 28.274707 
L 56.628608 28.195273 
L 56.79106 28.114771 
L 57.065479 27.961369 
L 57.120397 27.929202 
L 57.4351 27.727465 
L 57.449733 27.717625 
L 57.764487 27.493562 
L 57.779069 27.482588 
L 58.066984 27.259658 
L 58.108406 27.224972 
L 58.345031 27.025755 
L 58.437742 26.93784 
L 58.594235 26.791851 
L 58.767078 26.59941 
L 58.805793 26.557947 
L 58.977351 26.324044 
L 59.096414 26.09014 
L 59.096414 26.09014 
L 59.165829 25.856237 
L 59.177118 25.622333 
L 59.121094 25.388429 
L 59.096414 25.343737 
L 58.976184 25.154526 
L 58.767078 24.938615 
L 58.748415 24.920622 
L 58.478172 24.686719 
L 58.437742 24.653989 
L 58.174433 24.452815 
L 58.108406 24.410672 
L 57.779069 24.245563 
L 57.700725 24.218911 
L 57.449733 24.140763 
L 57.120397 24.072116 
L 56.79106 24.027604 
L 56.461724 24.010327 
L 56.132388 24.03015 
L 55.803051 24.087155 
L 55.473715 24.174171 
L 55.33271 24.218911 
L 55.144379 24.27372 
L 54.815042 24.378948 
L 54.609249 24.452815 
L 54.485706 24.49434 
L 54.15637 24.626408 
L 54.03503 24.686719 
L 53.827033 24.786023 
L 53.592676 24.920622 
L 53.497697 24.975191 
L 53.220473 25.154526 
L 53.168361 25.189711 
L 52.889271 25.388429 
L 52.839025 25.427378 
L 52.588728 25.622333 
L 52.509688 25.692007 
L 52.319606 25.856237 
L 52.180352 25.996609 
L 52.085181 26.09014 
L 51.883749 26.324044 
L 51.851016 26.369457 
L 51.710358 26.557947 
L 51.560237 26.791851 
L 51.521679 26.858888 
L 51.422879 27.025755 
L 51.296131 27.259658 
L 51.192343 27.483783 
L 51.187652 27.493562 
L 51.107105 27.727465 
L 51.078574 27.961369 
L 51.122435 28.195273 
L 51.192343 28.336772 
L 51.24294 28.429176 
L 51.433955 28.66308 
L 51.521679 28.739646 
L 51.84026 28.896983 
z
M 53.048704 28.66308 
L 52.839025 28.613506 
L 52.509688 28.526682 
L 52.249236 28.429176 
L 52.180352 28.389834 
L 51.945723 28.195273 
L 51.851016 28.054096 
L 51.80135 27.961369 
L 51.76007 27.727465 
L 51.79688 27.493562 
L 51.851016 27.359121 
L 51.887951 27.259658 
L 52.006642 27.025755 
L 52.14744 26.791851 
L 52.180352 26.742748 
L 52.297344 26.557947 
L 52.470224 26.324044 
L 52.509688 26.278155 
L 52.665553 26.09014 
L 52.839025 25.916028 
L 52.898843 25.856237 
L 53.168361 25.623998 
L 53.170419 25.622333 
L 53.491164 25.388429 
L 53.497697 25.384007 
L 53.827033 25.185895 
L 53.889094 25.154526 
L 54.15637 25.02369 
L 54.409851 24.920622 
L 54.485706 24.889897 
L 54.815042 24.770306 
L 55.068255 24.686719 
L 55.144379 24.66094 
L 55.473715 24.562016 
L 55.803051 24.489524 
L 56.132388 24.452815 
L 56.461724 24.4532 
L 56.79106 24.481437 
L 57.120397 24.538944 
L 57.449733 24.650085 
L 57.52054 24.686719 
L 57.779069 24.865028 
L 57.846937 24.920622 
L 58.08858 25.154526 
L 58.108406 25.176952 
L 58.301574 25.388429 
L 58.437742 25.619553 
L 58.439251 25.622333 
L 58.490099 25.856237 
L 58.465595 26.09014 
L 58.437742 26.159724 
L 58.37459 26.324044 
L 58.224949 26.557947 
L 58.108406 26.691432 
L 58.023134 26.791851 
L 57.779069 27.02345 
L 57.776681 27.025755 
L 57.492352 27.259658 
L 57.449733 27.291579 
L 57.171384 27.493562 
L 57.120397 27.528039 
L 56.806578 27.727465 
L 56.79106 27.736763 
L 56.461724 27.920484 
L 56.382298 27.961369 
L 56.132388 28.082982 
L 55.878717 28.195273 
L 55.803051 28.227543 
L 55.473715 28.359406 
L 55.284683 28.429176 
L 55.144379 28.480227 
L 54.815042 28.587088 
L 54.53224 28.66308 
L 54.485706 28.675866 
L 54.15637 28.737699 
L 53.827033 28.762821 
L 53.497697 28.744437 
L 53.168361 28.688169 
z
" clip-path="url(#pa51de2b626)" style="fill: #c0dde4; fill-opacity: 0.99"/>
    <path d="M 53.168361 28.688169 
L 53.497697 28.744437 
L 53.827033 28.762821 
L 54.15637 28.737699 
L 54.485706 28.675866 
L 54.53224 28.66308 
L 54.815042 28.587088 
L 55.144379 28.480227 
L 55.284683 28.429176 
L 55.473715 28.359406 
L 55.803051 28.227543 
L 55.878717 28.195273 
L 56.132388 28.082982 
L 56.382298 27.961369 
L 56.461724 27.920484 
L 56.79106 27.736763 
L 56.806578 27.727465 
L 57.120397 27.528039 
L 57.171384 27.493562 
L 57.449733 27.291579 
L 57.492352 27.259658 
L 57.776681 27.025755 
L 57.779069 27.02345 
L 58.023134 26.791851 
L 58.108406 26.691432 
L 58.224949 26.557947 
L 58.37459 26.324044 
L 58.437742 26.159724 
L 58.465595 26.09014 
L 58.490099 25.856237 
L 58.439251 25.622333 
L 58.437742 25.619553 
L 58.301574 25.388429 
L 58.108406 25.176952 
L 58.08858 25.154526 
L 57.846937 24.920622 
L 57.779069 24.865028 
L 57.52054 24.686719 
L 57.449733 24.650085 
L 57.120397 24.538944 
L 56.79106 24.481437 
L 56.461724 24.4532 
L 56.132388 24.452815 
L 55.803051 24.489524 
L 55.473715 24.562016 
L 55.144379 24.66094 
L 55.068255 24.686719 
L 54.815042 24.770306 
L 54.485706 24.889897 
L 54.409851 24.920622 
L 54.15637 25.02369 
L 53.889094 25.154526 
L 53.827033 25.185895 
L 53.497697 25.384007 
L 53.491164 25.388429 
L 53.170419 25.622333 
L 53.168361 25.623998 
L 52.898843 25.856237 
L 52.839025 25.916028 
L 52.665553 26.09014 
L 52.509688 26.278155 
L 52.470224 26.324044 
L 52.297344 26.557947 
L 52.180352 26.742748 
L 52.14744 26.791851 
L 52.006642 27.025755 
L 51.887951 27.259658 
L 51.851016 27.359121 
L 51.79688 27.493562 
L 51.76007 27.727465 
L 51.80135 27.961369 
L 51.851016 28.054096 
L 51.945723 28.195273 
L 52.180352 28.389834 
L 52.249236 28.429176 
L 52.509688 28.526682 
L 52.839025 28.613506 
L 53.048704 28.66308 
z
M 53.998234 28.429176 
L 53.827033 28.426402 
L 53.497697 28.36675 
L 53.168361 28.265984 
L 52.987205 28.195273 
L 52.839025 28.110049 
L 52.637674 27.961369 
L 52.509688 27.7855 
L 52.474203 27.727465 
L 52.422262 27.493562 
L 52.451251 27.259658 
L 52.509688 27.102689 
L 52.537423 27.025755 
L 52.661371 26.791851 
L 52.809218 26.557947 
L 52.839025 26.51818 
L 52.986666 26.324044 
L 53.168361 26.119724 
L 53.196452 26.09014 
L 53.453165 25.856237 
L 53.497697 25.820425 
L 53.776435 25.622333 
L 53.827033 25.589695 
L 54.15637 25.407141 
L 54.194461 25.388429 
L 54.485706 25.255365 
L 54.733881 25.154526 
L 54.815042 25.122722 
L 55.144379 25.007146 
L 55.453729 24.920622 
L 55.473715 24.91488 
L 55.803051 24.856536 
L 56.132388 24.836117 
L 56.461724 24.848688 
L 56.79106 24.896725 
L 56.870269 24.920622 
L 57.120397 25.020756 
L 57.311039 25.154526 
L 57.449733 25.294038 
L 57.534761 25.388429 
L 57.695869 25.622333 
L 57.779069 25.830018 
L 57.789624 25.856237 
L 57.807786 26.09014 
L 57.779069 26.210422 
L 57.753986 26.324044 
L 57.635455 26.557947 
L 57.455062 26.791851 
L 57.449733 26.797042 
L 57.221015 27.025755 
L 57.120397 27.108193 
L 56.935626 27.259658 
L 56.79106 27.361528 
L 56.597307 27.493562 
L 56.461724 27.576065 
L 56.196719 27.727465 
L 56.132388 27.761294 
L 55.803051 27.922477 
L 55.717728 27.961369 
L 55.473715 28.066184 
L 55.144379 28.195273 
L 55.144379 28.195273 
L 54.815042 28.302811 
L 54.485706 28.385381 
L 54.171404 28.429176 
L 54.15637 28.431296 
z
" clip-path="url(#pa51de2b626)" style="fill: #afd4dd; fill-opacity: 0.99"/>
    <path d="M 54.15637 28.431296 
L 54.171404 28.429176 
L 54.485706 28.385381 
L 54.815042 28.302811 
L 55.144379 28.195273 
L 55.144379 28.195273 
L 55.473715 28.066184 
L 55.717728 27.961369 
L 55.803051 27.922477 
L 56.132388 27.761294 
L 56.196719 27.727465 
L 56.461724 27.576065 
L 56.597307 27.493562 
L 56.79106 27.361528 
L 56.935626 27.259658 
L 57.120397 27.108193 
L 57.221015 27.025755 
L 57.449733 26.797042 
L 57.455062 26.791851 
L 57.635455 26.557947 
L 57.753986 26.324044 
L 57.779069 26.210422 
L 57.807786 26.09014 
L 57.789624 25.856237 
L 57.779069 25.830018 
L 57.695869 25.622333 
L 57.534761 25.388429 
L 57.449733 25.294038 
L 57.311039 25.154526 
L 57.120397 25.020756 
L 56.870269 24.920622 
L 56.79106 24.896725 
L 56.461724 24.848688 
L 56.132388 24.836117 
L 55.803051 24.856536 
L 55.473715 24.91488 
L 55.453729 24.920622 
L 55.144379 25.007146 
L 54.815042 25.122722 
L 54.733881 25.154526 
L 54.485706 25.255365 
L 54.194461 25.388429 
L 54.15637 25.407141 
L 53.827033 25.589695 
L 53.776435 25.622333 
L 53.497697 25.820425 
L 53.453165 25.856237 
L 53.196452 26.09014 
L 53.168361 26.119724 
L 52.986666 26.324044 
L 52.839025 26.51818 
L 52.809218 26.557947 
L 52.661371 26.791851 
L 52.537423 27.025755 
L 52.509688 27.102689 
L 52.451251 27.259658 
L 52.422262 27.493562 
L 52.474203 27.727465 
L 52.509688 27.7855 
L 52.637674 27.961369 
L 52.839025 28.110049 
L 52.987205 28.195273 
L 53.168361 28.265984 
L 53.497697 28.36675 
L 53.827033 28.426402 
L 53.998234 28.429176 
z
M 53.61316 27.961369 
L 53.497697 27.901699 
L 53.270979 27.727465 
L 53.168361 27.560965 
L 53.132406 27.493562 
L 53.090244 27.259658 
L 53.11488 27.025755 
L 53.168361 26.870493 
L 53.195494 26.791851 
L 53.331319 26.557947 
L 53.497697 26.337723 
L 53.5086 26.324044 
L 53.750022 26.09014 
L 53.827033 26.027877 
L 54.062657 25.856237 
L 54.15637 25.797587 
L 54.469353 25.622333 
L 54.485706 25.614122 
L 54.815042 25.467206 
L 55.028414 25.388429 
L 55.144379 25.347431 
L 55.473715 25.265549 
L 55.803051 25.22203 
L 56.132388 25.217471 
L 56.461724 25.259733 
L 56.79106 25.388429 
L 56.79106 25.388429 
L 57.019713 25.622333 
L 57.120397 25.801255 
L 57.147716 25.856237 
L 57.193908 26.09014 
L 57.164374 26.324044 
L 57.120397 26.425204 
L 57.063495 26.557947 
L 56.898954 26.791851 
L 56.79106 26.902938 
L 56.669537 27.025755 
L 56.461724 27.193179 
L 56.374966 27.259658 
L 56.132388 27.416707 
L 56.005441 27.493562 
L 55.803051 27.601821 
L 55.549704 27.727465 
L 55.473715 27.761986 
L 55.144379 27.894844 
L 54.946117 27.961369 
L 54.815042 28.002971 
L 54.485706 28.069491 
L 54.15637 28.084774 
L 53.827033 28.034389 
z
" clip-path="url(#pa51de2b626)" style="fill: #9fcbd6; fill-opacity: 0.99"/>
    <path d="M 53.827033 28.034389 
L 54.15637 28.084774 
L 54.485706 28.069491 
L 54.815042 28.002971 
L 54.946117 27.961369 
L 55.144379 27.894844 
L 55.473715 27.761986 
L 55.549704 27.727465 
L 55.803051 27.601821 
L 56.005441 27.493562 
L 56.132388 27.416707 
L 56.374966 27.259658 
L 56.461724 27.193179 
L 56.669537 27.025755 
L 56.79106 26.902938 
L 56.898954 26.791851 
L 57.063495 26.557947 
L 57.120397 26.425204 
L 57.164374 26.324044 
L 57.193908 26.09014 
L 57.147716 25.856237 
L 57.120397 25.801255 
L 57.019713 25.622333 
L 56.79106 25.388429 
L 56.79106 25.388429 
L 56.461724 25.259733 
L 56.132388 25.217471 
L 55.803051 25.22203 
L 55.473715 25.265549 
L 55.144379 25.347431 
L 55.028414 25.388429 
L 54.815042 25.467206 
L 54.485706 25.614122 
L 54.469353 25.622333 
L 54.15637 25.797587 
L 54.062657 25.856237 
L 53.827033 26.027877 
L 53.750022 26.09014 
L 53.5086 26.324044 
L 53.497697 26.337723 
L 53.331319 26.557947 
L 53.195494 26.791851 
L 53.168361 26.870493 
L 53.11488 27.025755 
L 53.090244 27.259658 
L 53.132406 27.493562 
L 53.168361 27.560965 
L 53.270979 27.727465 
L 53.497697 27.901699 
L 53.61316 27.961369 
z
M 53.968358 27.493562 
L 53.827033 27.295347 
L 53.81038 27.259658 
L 53.790024 27.025755 
L 53.827033 26.838466 
L 53.836784 26.791851 
L 53.952306 26.557947 
L 54.133568 26.324044 
L 54.15637 26.303192 
L 54.412808 26.09014 
L 54.485706 26.042128 
L 54.815042 25.856237 
L 54.815042 25.856237 
L 55.144379 25.738722 
L 55.473715 25.664673 
L 55.803051 25.643229 
L 56.132388 25.700017 
L 56.390195 25.856237 
L 56.461724 25.96031 
L 56.519602 26.09014 
L 56.530252 26.324044 
L 56.461724 26.547792 
L 56.4582 26.557947 
L 56.29053 26.791851 
L 56.132388 26.95098 
L 56.050097 27.025755 
L 55.803051 27.202098 
L 55.713323 27.259658 
L 55.473715 27.387266 
L 55.245582 27.493562 
L 55.144379 27.534594 
L 54.815042 27.628037 
L 54.485706 27.664457 
L 54.15637 27.602812 
z
" clip-path="url(#pa51de2b626)" style="fill: #8ec2cf; fill-opacity: 0.99"/>
    <path d="M 54.15637 27.602812 
L 54.485706 27.664457 
L 54.815042 27.628037 
L 55.144379 27.534594 
L 55.245582 27.493562 
L 55.473715 27.387266 
L 55.713323 27.259658 
L 55.803051 27.202098 
L 56.050097 27.025755 
L 56.132388 26.95098 
L 56.29053 26.791851 
L 56.4582 26.557947 
L 56.461724 26.547792 
L 56.530252 26.324044 
L 56.519602 26.09014 
L 56.461724 25.96031 
L 56.390195 25.856237 
L 56.132388 25.700017 
L 55.803051 25.643229 
L 55.473715 25.664673 
L 55.144379 25.738722 
L 54.815042 25.856237 
L 54.815042 25.856237 
L 54.485706 26.042128 
L 54.412808 26.09014 
L 54.15637 26.303192 
L 54.133568 26.324044 
L 53.952306 26.557947 
L 53.836784 26.791851 
L 53.827033 26.838466 
L 53.790024 27.025755 
L 53.81038 27.259658 
L 53.827033 27.295347 
L 53.968358 27.493562 
z
" clip-path="url(#pa51de2b626)" style="fill: #7eb9c8; fill-opacity: 0.99"/>
   </g>
   <g id="PathCollection_1">
    <defs>
     <path id="m14d090fa33" d="M 0 1.5 
C 0.397805 1.5 0.77937 1.341951 1.06066 1.06066 
C 1.341951 0.77937 1.5 0.397805 1.5 0 
C 1.5 -0.397805 1.341951 -0.77937 1.06066 -1.06066 
C 0.77937 -1.341951 0.397805 -1.5 0 -1.5 
C -0.397805 -1.5 -0.77937 -1.341951 -1.06066 -1.06066 
C -1.341951 -0.77937 -1.5 -0.397805 -1.5 0 
C -1.5 0.397805 -1.341951 0.77937 -1.06066 1.06066 
C -0.77937 1.341951 -0.397805 1.5 0 1.5 
z
" style="stroke: #000000"/>
    </defs>
    <g clip-path="url(#pa51de2b626)">
     <use xlink:href="#m14d090fa33" x="55.609916" y="24.536876" style="stroke: #000000"/>
    </g>
   </g>
   <g id="PathCollection_2">
    <defs>
     <path id="m6fae97c98a" d="M 0 1 
C 0.265203 1 0.51958 0.894634 0.707107 0.707107 
C 0.894634 0.51958 1 0.265203 1 0 
C 1 -0.265203 0.894634 -0.51958 0.707107 -0.707107 
C 0.51958 -0.894634 0.265203 -1 0 -1 
C -0.265203 -1 -0.51958 -0.894634 -0.707107 -0.707107 
C -0.894634 -0.51958 -1 -0.265203 -1 0 
C -1 0.265203 -0.894634 0.51958 -0.707107 0.707107 
C -0.51958 0.894634 -0.265203 1 0 1 
z
" style="stroke: #ff7f0e"/>
    </defs>
    <g clip-path="url(#pa51de2b626)">
     <use xlink:href="#m6fae97c98a" x="55.704676" y="29.71911" style="fill: #ff7f0e; stroke: #ff7f0e"/>
    </g>
   </g>
   <g id="PathCollection_3">
    <defs>
     <path id="m0bee4851f6" d="M 0 1 
C 0.265203 1 0.51958 0.894634 0.707107 0.707107 
C 0.894634 0.51958 1 0.265203 1 0 
C 1 -0.265203 0.894634 -0.51958 0.707107 -0.707107 
C 0.51958 -0.894634 0.265203 -1 0 -1 
C -0.265203 -1 -0.51958 -0.894634 -0.707107 -0.707107 
C -0.894634 -0.51958 -1 -0.265203 -1 0 
C -1 0.265203 -0.894634 0.51958 -0.707107 0.707107 
C -0.51958 0.894634 -0.265203 1 0 1 
z
" style="stroke: #ffff00"/>
    </defs>
    <g clip-path="url(#pa51de2b626)">
     <use xlink:href="#m0bee4851f6" x="55.357737" y="24.607627" style="fill: #ffff00; stroke: #ffff00"/>
    </g>
   </g>
   <g id="matplotlib.axis_1">
    <g id="xtick_1">
     <g id="line2d_1">
      <defs>
       <path id="m3b3efb76e3" d="M 0 0 
L 0 3.5 
" style="stroke: #000000; stroke-width: 1.5"/>
      </defs>
      <g>
       <use xlink:href="#m3b3efb76e3" x="27.467969" y="44.081297" style="stroke: #000000; stroke-width: 1.5"/>
      </g>
     </g>
     <g id="text_1">
      <text style="font: 9px 'Arial', sans-serif; text-anchor: middle" x="27.467969" y="57.919891" transform="rotate(-0 27.467969 57.919891)">0.8</text>
     </g>
    </g>
    <g id="xtick_2">
     <g id="line2d_2">
      <g>
       <use xlink:href="#m3b3efb76e3" x="94.427969" y="44.081297" style="stroke: #000000; stroke-width: 1.5"/>
      </g>
     </g>
     <g id="text_2">
      <text style="font: 9px 'Arial', sans-serif; text-anchor: middle" x="94.427969" y="57.919891" transform="rotate(-0 94.427969 57.919891)">1.2</text>
     </g>
    </g>
    <g id="text_3">
     <!-- $\rho$ -->
     <g transform="translate(58.067969 56.611922)">
      <text>
       <tspan style="font: 9px 'DejaVu Sans'" x="0" y="-0.953125">ρ</tspan>
      </text>
     </g>
    </g>
   </g>
   <g id="matplotlib.axis_2">
    <g id="ytick_1">
     <g id="line2d_3">
      <defs>
       <path id="m30dbd45e28" d="M 0 0 
L -3.5 0 
" style="stroke: #000000; stroke-width: 1.5"/>
      </defs>
      <g>
       <use xlink:href="#m30dbd45e28" x="27.467969" y="41.507297" style="stroke: #000000; stroke-width: 1.5"/>
      </g>
     </g>
     <g id="text_4">
      <text style="font: 9px 'Arial', sans-serif; text-anchor: end" x="20.467969" y="44.926594" transform="rotate(-0 20.467969 44.926594)">−3</text>
     </g>
    </g>
    <g id="ytick_2">
     <g id="line2d_4">
      <g>
       <use xlink:href="#m30dbd45e28" x="27.467969" y="10.619297" style="stroke: #000000; stroke-width: 1.5"/>
      </g>
     </g>
     <g id="text_5">
      <text style="font: 9px 'Arial', sans-serif; text-anchor: end" x="20.467969" y="14.038594" transform="rotate(-0 20.467969 14.038594)">3</text>
     </g>
    </g>
    <g id="text_6">
     <text style="font: 9px 'Arial', sans-serif; text-anchor: middle" x="20.328281" y="26.063297" transform="rotate(-90 20.328281 26.063297)">Re</text>
    </g>
   </g>
   <g id="patch_3">
    <path d="M 27.467969 44.081297 
L 27.467969 8.045297 
" style="fill: none; stroke: #000000; stroke-width: 1.5; stroke-linejoin: miter; stroke-linecap: square"/>
   </g>
   <g id="patch_4">
    <path d="M 27.467969 44.081297 
L 94.427969 44.081297 
" style="fill: none; stroke: #000000; stroke-width: 1.5; stroke-linejoin: miter; stroke-linecap: square"/>
   </g>
   <g id="text_7">
    <!-- $\theta^*$ -->
    <g transform="translate(47.239914 24.536876)">
     <text>
      <tspan style="font: 9px 'DejaVu Sans'" x="0" y="-0.8734375000000014">θ</tspan>
      <tspan style="font: 6.3px 'DejaVu Sans'" x="6.787266" y="-4.318750000000001">*</tspan>
     </text>
    </g>
   </g>
  </g>
 </g>
 <defs>
  <clipPath id="pa51de2b626">
   <rect x="27.467969" y="8.045297" width="66.96" height="36.036"/>
  </clipPath>
 </defs>
</svg>
