<?xml version="1.0" encoding="utf-8" standalone="no"?>
<!DOCTYPE svg PUBLIC "-//W3C//DTD SVG 1.1//EN"
  "http://www.w3.org/Graphics/SVG/1.1/DTD/svg11.dtd">
<svg xmlns:xlink="http://www.w3.org/1999/xlink" width="49.483125pt" height="43.181562pt" viewBox="0 0 49.483125 43.181562" xmlns="http://www.w3.org/2000/svg" version="1.1">
 <metadata>
  <rdf:RDF xmlns:dc="http://purl.org/dc/elements/1.1/" xmlns:cc="http://creativecommons.org/ns#" xmlns:rdf="http://www.w3.org/1999/02/22-rdf-syntax-ns#">
   <cc:Work>
    <dc:type rdf:resource="http://purl.org/dc/dcmitype/StillImage"/>
    <dc:date>2024-09-23T11:12:21.159844</dc:date>
    <dc:format>image/svg+xml</dc:format>
    <dc:creator>
     <cc:Agent>
      <dc:title>Matplotlib v3.9.0, https://matplotlib.org/</dc:title>
     </cc:Agent>
    </dc:creator>
   </cc:Work>
  </rdf:RDF>
 </metadata>
 <defs>
  <style type="text/css">*{stroke-linejoin: round; stroke-linecap: butt}</style>
 </defs>
 <g id="figure_1">
  <g id="patch_1">
   <path d="M 0 43.181562 
L 49.483125 43.181562 
L 49.483125 0 
L 0 0 
L 0 43.181562 
z
" style="fill: none"/>
  </g>
  <g id="axes_1">
   <g id="patch_2">
    <path d="M 5.130703 27.72 
L 46.980703 27.72 
L 46.980703 0 
L 5.130703 0 
L 5.130703 27.72 
z
" style="fill: none"/>
   </g>
   <g id="PolyCollection_1">
    <defs>
     <path id="m43ba4edfd1" d="M 5.130703 -16.721563 
L 5.130703 -17.00151 
L 5.172597 -17.006595 
L 5.214487 -17.011762 
L 5.256379 -17.017011 
L 5.298271 -17.022345 
L 5.340164 -17.027764 
L 5.382054 -17.033269 
L 5.423946 -17.038862 
L 5.465838 -17.044543 
L 5.507732 -17.050315 
L 5.549622 -17.056177 
L 5.591514 -17.062132 
L 5.633406 -17.06818 
L 5.675299 -17.074323 
L 5.717189 -17.080562 
L 5.759081 -17.086898 
L 5.800973 -17.093332 
L 5.842867 -17.099867 
L 5.884757 -17.106501 
L 5.926649 -17.113238 
L 5.96854 -17.120079 
L 6.010434 -17.127025 
L 6.052324 -17.134077 
L 6.094216 -17.141236 
L 6.136108 -17.148504 
L 6.178001 -17.155883 
L 6.219892 -17.163372 
L 6.261784 -17.170975 
L 6.303675 -17.178692 
L 6.345569 -17.186526 
L 6.387459 -17.194476 
L 6.429351 -17.202544 
L 6.471243 -17.210733 
L 6.513136 -17.219043 
L 6.555027 -17.227476 
L 6.596918 -17.236034 
L 6.63881 -17.244717 
L 6.680704 -17.253528 
L 6.722594 -17.262468 
L 6.764486 -17.271538 
L 6.806378 -17.28074 
L 6.848271 -17.290075 
L 6.890162 -17.299545 
L 6.932053 -17.309153 
L 6.973945 -17.318898 
L 7.015839 -17.328783 
L 7.057729 -17.338809 
L 7.099621 -17.348978 
L 7.141513 -17.359291 
L 7.183406 -17.369751 
L 7.225296 -17.380358 
L 7.267188 -17.391116 
L 7.30908 -17.402024 
L 7.350974 -17.413085 
L 7.392864 -17.4243 
L 7.434757 -17.435672 
L 7.476649 -17.447201 
L 7.518541 -17.45889 
L 7.560433 -17.47074 
L 7.602325 -17.482753 
L 7.644218 -17.494931 
L 7.686109 -17.507275 
L 7.728002 -17.519788 
L 7.769892 -17.53247 
L 7.811786 -17.545325 
L 7.853676 -17.558352 
L 7.89557 -17.571556 
L 7.93746 -17.584936 
L 7.979353 -17.598496 
L 8.021244 -17.612236 
L 8.063137 -17.626159 
L 8.105027 -17.640266 
L 8.146921 -17.65456 
L 8.188811 -17.669042 
L 8.230705 -17.683714 
L 8.272595 -17.698578 
L 8.314488 -17.713636 
L 8.356379 -17.728889 
L 8.398272 -17.744341 
L 8.440162 -17.759992 
L 8.482056 -17.775844 
L 8.523946 -17.791899 
L 8.56584 -17.808161 
L 8.60773 -17.824628 
L 8.649623 -17.841306 
L 8.691513 -17.858194 
L 8.733407 -17.875297 
L 8.775297 -17.892613 
L 8.817191 -17.910147 
L 8.859081 -17.9279 
L 8.900974 -17.945874 
L 8.942865 -17.96407 
L 8.984758 -17.982492 
L 9.026648 -18.001141 
L 9.068542 -18.020019 
L 9.110432 -18.039127 
L 9.152326 -18.058469 
L 9.194216 -18.078045 
L 9.236109 -18.097859 
L 9.278 -18.117911 
L 9.319893 -18.138206 
L 9.361783 -18.158742 
L 9.403677 -18.179525 
L 9.445567 -18.200553 
L 9.487461 -18.221832 
L 9.529351 -18.243361 
L 9.571244 -18.265144 
L 9.613135 -18.287181 
L 9.655028 -18.309478 
L 9.696918 -18.332032 
L 9.738812 -18.35485 
L 9.780702 -18.377929 
L 9.822596 -18.401275 
L 9.864486 -18.424887 
L 9.906379 -18.448771 
L 9.948269 -18.472924 
L 9.990163 -18.497353 
L 10.032053 -18.522056 
L 10.073947 -18.547039 
L 10.115837 -18.572299 
L 10.15773 -18.597844 
L 10.199621 -18.62367 
L 10.241514 -18.649785 
L 10.283404 -18.676185 
L 10.325298 -18.702877 
L 10.367188 -18.729859 
L 10.409082 -18.757138 
L 10.450972 -18.784711 
L 10.492865 -18.812583 
L 10.534756 -18.840754 
L 10.576649 -18.869229 
L 10.618539 -18.898005 
L 10.660433 -18.92709 
L 10.702323 -18.956481 
L 10.744217 -18.986184 
L 10.786107 -19.016197 
L 10.828 -19.046525 
L 10.869892 -19.07717 
L 10.911784 -19.10813 
L 10.953676 -19.139412 
L 10.995568 -19.171014 
L 11.037461 -19.202942 
L 11.079352 -19.235193 
L 11.121245 -19.267774 
L 11.163137 -19.300682 
L 11.205029 -19.333921 
L 11.246919 -19.367493 
L 11.288813 -19.401401 
L 11.330704 -19.435645 
L 11.372596 -19.470227 
L 11.414486 -19.505149 
L 11.45638 -19.540414 
L 11.498272 -19.576023 
L 11.540164 -19.611977 
L 11.582054 -19.648276 
L 11.623947 -19.684927 
L 11.665839 -19.721928 
L 11.707731 -19.759282 
L 11.749621 -19.796987 
L 11.791515 -19.835053 
L 11.833407 -19.873473 
L 11.875299 -19.912252 
L 11.917189 -19.95139 
L 11.959082 -19.990895 
L 12.000974 -20.030761 
L 12.042866 -20.070992 
L 12.084756 -20.11159 
L 12.12665 -20.152558 
L 12.168542 -20.193894 
L 12.210434 -20.235602 
L 12.252324 -20.27768 
L 12.294217 -20.320136 
L 12.336109 -20.362966 
L 12.378001 -20.406173 
L 12.419891 -20.449757 
L 12.461785 -20.493722 
L 12.503678 -20.538068 
L 12.545569 -20.582794 
L 12.58746 -20.627904 
L 12.629352 -20.6734 
L 12.671245 -20.719281 
L 12.713136 -20.765549 
L 12.755027 -20.812203 
L 12.79692 -20.859248 
L 12.838812 -20.906683 
L 12.880703 -20.954508 
L 12.922595 -21.002724 
L 12.964487 -21.051336 
L 13.00638 -21.100342 
L 13.048271 -21.149741 
L 13.090162 -21.199534 
L 13.132055 -21.249727 
L 13.173947 -21.300318 
L 13.215838 -21.351304 
L 13.257729 -21.402689 
L 13.299622 -21.454477 
L 13.341515 -21.506664 
L 13.383406 -21.55925 
L 13.425297 -21.612238 
L 13.46719 -21.665629 
L 13.509082 -21.719424 
L 13.550973 -21.77362 
L 13.592864 -21.82822 
L 13.634757 -21.883224 
L 13.67665 -21.938632 
L 13.718541 -21.994444 
L 13.760432 -22.050661 
L 13.802325 -22.107285 
L 13.844217 -22.164314 
L 13.886108 -22.221745 
L 13.928 -22.279584 
L 13.969892 -22.337829 
L 14.011786 -22.396481 
L 14.053676 -22.455535 
L 14.095568 -22.514996 
L 14.13746 -22.574863 
L 14.179353 -22.635137 
L 14.221243 -22.695813 
L 14.263135 -22.756896 
L 14.305027 -22.818382 
L 14.34692 -22.880275 
L 14.388811 -22.942567 
L 14.430703 -23.005266 
L 14.472594 -23.068367 
L 14.514488 -23.131874 
L 14.556378 -23.195777 
L 14.59827 -23.260085 
L 14.640162 -23.324791 
L 14.682055 -23.3899 
L 14.723946 -23.455404 
L 14.765838 -23.521308 
L 14.807729 -23.58761 
L 14.849623 -23.65431 
L 14.891513 -23.721403 
L 14.933405 -23.788889 
L 14.975297 -23.856771 
L 15.01719 -23.925047 
L 15.059081 -23.993709 
L 15.100972 -24.062763 
L 15.142864 -24.132205 
L 15.184758 -24.202037 
L 15.226649 -24.27225 
L 15.26854 -24.342849 
L 15.310433 -24.413831 
L 15.352325 -24.485197 
L 15.394216 -24.556938 
L 15.436107 -24.629056 
L 15.478 -24.701553 
L 15.519893 -24.774426 
L 15.561784 -24.847667 
L 15.603675 -24.921279 
L 15.645568 -24.99526 
L 15.68746 -25.069611 
L 15.729351 -25.144319 
L 15.771242 -25.219393 
L 15.813135 -25.294828 
L 15.855028 -25.37062 
L 15.896919 -25.446765 
L 15.93881 -25.523263 
L 15.980702 -25.600114 
L 16.022595 -25.677313 
L 16.064486 -25.754857 
L 16.106377 -25.832741 
L 16.14827 -25.910968 
L 16.190163 -25.989533 
L 16.232054 -26.068429 
L 16.273945 -26.147658 
L 16.315837 -26.227218 
L 16.35773 -26.307104 
L 16.399621 -26.387309 
L 16.441512 -26.467833 
L 16.483405 -26.548677 
L 16.525298 -26.629836 
L 16.567189 -26.7113 
L 16.60908 -26.79307 
L 16.650973 -26.875147 
L 16.692865 -26.957523 
L 16.734757 -27.040193 
L 16.776647 -27.123154 
L 16.818541 -27.20641 
L 16.860433 -27.289946 
L 16.902324 -27.373764 
L 16.944216 -27.457861 
L 16.98611 -27.542234 
L 17.028 -27.626871 
L 17.069894 -27.711778 
L 17.111784 -27.796942 
L 17.153677 -27.882368 
L 17.195567 -27.968043 
L 17.237461 -28.053972 
L 17.279351 -28.140139 
L 17.321245 -28.226552 
L 17.363135 -28.313196 
L 17.405028 -28.400077 
L 17.446919 -28.487179 
L 17.488812 -28.574509 
L 17.530702 -28.662047 
L 17.572596 -28.749809 
L 17.614486 -28.837771 
L 17.65638 -28.925942 
L 17.69827 -29.014304 
L 17.740163 -29.102864 
L 17.782054 -29.191609 
L 17.823947 -29.280544 
L 17.865838 -29.369651 
L 17.907731 -29.458933 
L 17.949622 -29.548379 
L 17.991515 -29.637991 
L 18.033406 -29.727758 
L 18.075298 -29.817679 
L 18.117189 -29.907742 
L 18.159082 -29.997949 
L 18.200973 -30.088288 
L 18.242866 -30.17876 
L 18.284757 -30.269353 
L 18.32665 -30.360064 
L 18.368541 -30.450886 
L 18.410433 -30.541819 
L 18.452324 -30.632845 
L 18.494217 -30.723971 
L 18.536108 -30.815183 
L 18.578001 -30.90648 
L 18.619892 -30.997852 
L 18.661784 -31.089298 
L 18.703675 -31.1808 
L 18.745568 -31.272365 
L 18.787459 -31.36398 
L 18.829352 -31.455643 
L 18.871243 -31.547343 
L 18.913136 -31.639077 
L 18.955027 -31.730834 
L 18.996919 -31.822615 
L 19.03881 -31.914403 
L 19.080704 -32.006207 
L 19.122596 -32.098006 
L 19.164488 -32.189797 
L 19.20638 -32.281575 
L 19.248271 -32.373334 
L 19.290163 -32.465067 
L 19.332055 -32.556764 
L 19.373947 -32.648421 
L 19.415839 -32.74003 
L 19.457731 -32.831587 
L 19.499623 -32.923082 
L 19.541514 -33.014509 
L 19.583406 -33.105861 
L 19.625298 -33.197132 
L 19.66719 -33.288312 
L 19.709082 -33.379395 
L 19.750974 -33.470378 
L 19.792866 -33.561248 
L 19.834758 -33.652001 
L 19.87665 -33.742628 
L 19.918542 -33.833125 
L 19.960434 -33.923481 
L 20.002326 -34.01369 
L 20.044218 -34.103745 
L 20.08611 -34.193641 
L 20.128001 -34.283366 
L 20.169893 -34.372915 
L 20.211785 -34.462282 
L 20.253677 -34.551458 
L 20.295569 -34.640436 
L 20.337461 -34.729207 
L 20.379353 -34.817767 
L 20.421245 -34.906105 
L 20.463136 -34.994216 
L 20.505028 -35.082089 
L 20.54692 -35.169725 
L 20.588812 -35.257107 
L 20.630704 -35.34423 
L 20.672596 -35.43109 
L 20.714488 -35.517675 
L 20.756379 -35.60398 
L 20.798271 -35.689997 
L 20.840163 -35.775718 
L 20.882055 -35.861138 
L 20.923947 -35.946245 
L 20.965839 -36.031036 
L 21.007731 -36.115502 
L 21.049623 -36.199632 
L 21.091514 -36.283424 
L 21.133406 -36.366867 
L 21.175298 -36.449953 
L 21.21719 -36.532677 
L 21.259082 -36.61503 
L 21.300974 -36.697003 
L 21.342866 -36.778594 
L 21.384757 -36.859788 
L 21.426649 -36.940584 
L 21.468541 -37.020972 
L 21.510433 -37.100942 
L 21.552325 -37.180492 
L 21.594217 -37.259609 
L 21.636109 -37.338288 
L 21.678001 -37.416526 
L 21.719892 -37.49431 
L 21.761784 -37.571632 
L 21.803676 -37.648488 
L 21.845568 -37.72487 
L 21.88746 -37.80077 
L 21.929352 -37.87618 
L 21.971244 -37.951096 
L 22.013135 -38.025508 
L 22.055027 -38.099409 
L 22.096919 -38.172792 
L 22.138811 -38.245654 
L 22.180703 -38.317982 
L 22.222595 -38.389771 
L 22.264487 -38.461014 
L 22.306379 -38.531708 
L 22.34827 -38.60184 
L 22.390162 -38.671404 
L 22.432054 -38.740396 
L 22.473946 -38.80881 
L 22.515838 -38.876637 
L 22.55773 -38.94387 
L 22.599622 -39.010504 
L 22.641514 -39.07653 
L 22.683406 -39.141943 
L 22.725298 -39.206739 
L 22.76719 -39.270907 
L 22.809082 -39.334439 
L 22.850974 -39.397336 
L 22.892866 -39.459586 
L 22.934757 -39.521184 
L 22.976649 -39.582126 
L 23.018541 -39.642403 
L 23.060433 -39.702011 
L 23.102325 -39.76094 
L 23.144217 -39.819191 
L 23.186109 -39.876752 
L 23.228 -39.933619 
L 23.269892 -39.989786 
L 23.311784 -40.045248 
L 23.353676 -40.099999 
L 23.395568 -40.154034 
L 23.43746 -40.207345 
L 23.479352 -40.259928 
L 23.521244 -40.311779 
L 23.563135 -40.362891 
L 23.605027 -40.413258 
L 23.646919 -40.462878 
L 23.688811 -40.511745 
L 23.730703 -40.559849 
L 23.772595 -40.607191 
L 23.814487 -40.653763 
L 23.856378 -40.699562 
L 23.89827 -40.74458 
L 23.940162 -40.788814 
L 23.982054 -40.832261 
L 24.023946 -40.874916 
L 24.065838 -40.916774 
L 24.10773 -40.957828 
L 24.149622 -40.998077 
L 24.191513 -41.037516 
L 24.233405 -41.076141 
L 24.275297 -41.113945 
L 24.317189 -41.150929 
L 24.359081 -41.187087 
L 24.400973 -41.222412 
L 24.442865 -41.256904 
L 24.484756 -41.29056 
L 24.526648 -41.323373 
L 24.56854 -41.355342 
L 24.610432 -41.38646 
L 24.652324 -41.416729 
L 24.694216 -41.446144 
L 24.736108 -41.4747 
L 24.778 -41.502396 
L 24.819891 -41.529226 
L 24.861783 -41.555191 
L 24.903675 -41.580288 
L 24.945567 -41.604508 
L 24.987459 -41.627857 
L 25.029351 -41.650329 
L 25.071243 -41.67192 
L 25.113134 -41.69263 
L 25.155026 -41.712453 
L 25.196918 -41.731391 
L 25.238811 -41.749443 
L 25.280703 -41.7666 
L 25.322595 -41.782867 
L 25.364486 -41.79824 
L 25.406378 -41.812718 
L 25.44827 -41.826297 
L 25.490162 -41.838978 
L 25.532055 -41.85076 
L 25.573947 -41.86164 
L 25.615839 -41.871617 
L 25.657731 -41.880691 
L 25.699622 -41.888861 
L 25.741515 -41.896124 
L 25.783406 -41.902481 
L 25.825299 -41.907933 
L 25.86719 -41.912476 
L 25.909082 -41.916109 
L 25.950973 -41.918837 
L 25.992866 -41.920655 
L 26.034757 -41.921562 
L 26.07665 -41.921562 
L 26.118541 -41.920655 
L 26.160434 -41.918837 
L 26.202325 -41.916109 
L 26.244217 -41.912476 
L 26.286108 -41.907933 
L 26.328001 -41.902481 
L 26.369892 -41.896124 
L 26.411785 -41.888859 
L 26.453676 -41.880691 
L 26.495569 -41.871617 
L 26.53746 -41.86164 
L 26.579352 -41.850759 
L 26.621243 -41.838978 
L 26.663136 -41.826297 
L 26.705027 -41.812718 
L 26.74692 -41.79824 
L 26.788811 -41.782867 
L 26.830703 -41.7666 
L 26.872595 -41.749443 
L 26.914487 -41.731391 
L 26.956378 -41.712455 
L 26.998271 -41.69263 
L 27.040162 -41.67192 
L 27.082055 -41.650329 
L 27.123946 -41.627857 
L 27.165838 -41.60451 
L 27.207729 -41.580288 
L 27.249622 -41.555191 
L 27.291513 -41.529228 
L 27.333406 -41.502396 
L 27.375297 -41.4747 
L 27.41719 -41.446144 
L 27.459081 -41.416729 
L 27.500973 -41.386462 
L 27.542864 -41.355342 
L 27.584757 -41.323373 
L 27.626648 -41.29056 
L 27.668541 -41.256906 
L 27.710432 -41.222414 
L 27.752325 -41.187087 
L 27.794216 -41.150931 
L 27.836108 -41.113945 
L 27.877999 -41.076141 
L 27.919892 -41.037516 
L 27.961784 -40.998077 
L 28.003677 -40.957828 
L 28.045568 -40.916774 
L 28.08746 -40.874916 
L 28.129351 -40.832261 
L 28.171244 -40.788814 
L 28.213135 -40.74458 
L 28.255028 -40.699562 
L 28.296919 -40.653763 
L 28.338812 -40.607191 
L 28.380703 -40.559851 
L 28.422595 -40.511745 
L 28.464486 -40.462878 
L 28.506379 -40.413258 
L 28.54827 -40.362891 
L 28.590163 -40.311779 
L 28.632054 -40.25993 
L 28.673946 -40.207345 
L 28.715838 -40.154034 
L 28.757731 -40.099997 
L 28.799623 -40.045246 
L 28.841515 -39.989786 
L 28.883407 -39.933619 
L 28.925299 -39.87675 
L 28.96719 -39.819189 
L 29.009082 -39.76094 
L 29.050974 -39.702011 
L 29.092866 -39.642403 
L 29.134758 -39.582124 
L 29.17665 -39.521183 
L 29.218542 -39.459586 
L 29.260433 -39.397336 
L 29.302325 -39.334439 
L 29.344217 -39.270904 
L 29.386109 -39.206736 
L 29.428001 -39.141943 
L 29.469893 -39.07653 
L 29.511785 -39.010504 
L 29.553677 -38.94387 
L 29.595568 -38.876637 
L 29.63746 -38.80881 
L 29.679352 -38.740396 
L 29.721244 -38.671404 
L 29.763136 -38.60184 
L 29.805028 -38.531708 
L 29.84692 -38.461014 
L 29.888811 -38.389771 
L 29.930703 -38.317982 
L 29.972595 -38.245654 
L 30.014487 -38.172792 
L 30.056379 -38.099409 
L 30.098271 -38.025508 
L 30.140163 -37.951096 
L 30.182055 -37.87618 
L 30.223946 -37.80077 
L 30.265838 -37.72487 
L 30.30773 -37.648488 
L 30.349622 -37.571632 
L 30.391514 -37.49431 
L 30.433406 -37.416526 
L 30.475298 -37.338288 
L 30.517189 -37.259609 
L 30.559081 -37.180492 
L 30.600974 -37.100942 
L 30.642866 -37.02097 
L 30.684758 -36.940584 
L 30.72665 -36.859788 
L 30.768541 -36.778592 
L 30.810433 -36.697003 
L 30.852325 -36.615028 
L 30.894217 -36.532677 
L 30.936109 -36.449953 
L 30.978001 -36.366863 
L 31.019893 -36.283424 
L 31.061785 -36.19963 
L 31.103676 -36.1155 
L 31.145568 -36.031035 
L 31.18746 -35.946243 
L 31.229352 -35.861134 
L 31.271244 -35.775718 
L 31.313136 -35.689995 
L 31.355028 -35.603976 
L 31.396919 -35.517674 
L 31.438811 -35.431085 
L 31.480703 -35.344228 
L 31.522595 -35.257101 
L 31.564487 -35.169721 
L 31.606379 -35.082089 
L 31.648271 -34.994213 
L 31.690163 -34.906105 
L 31.732054 -34.817765 
L 31.773946 -34.729205 
L 31.815838 -34.640434 
L 31.85773 -34.551456 
L 31.899622 -34.46228 
L 31.941514 -34.372915 
L 31.983406 -34.283365 
L 32.025297 -34.193639 
L 32.067189 -34.103745 
L 32.109081 -34.013688 
L 32.150973 -33.923479 
L 32.192865 -33.833125 
L 32.234757 -33.742628 
L 32.276649 -33.652001 
L 32.318541 -33.561248 
L 32.360432 -33.470378 
L 32.402324 -33.379395 
L 32.444216 -33.288312 
L 32.486108 -33.197132 
L 32.528 -33.105861 
L 32.569892 -33.014509 
L 32.611784 -32.923082 
L 32.653675 -32.831587 
L 32.695567 -32.74003 
L 32.737459 -32.648421 
L 32.779351 -32.556764 
L 32.821243 -32.465067 
L 32.863135 -32.373334 
L 32.905027 -32.281575 
L 32.946919 -32.189797 
L 32.98881 -32.098006 
L 33.030703 -32.006205 
L 33.072597 -31.914403 
L 33.114487 -31.822615 
L 33.15638 -31.730834 
L 33.198271 -31.639077 
L 33.240164 -31.547339 
L 33.282054 -31.455643 
L 33.323948 -31.36398 
L 33.365838 -31.272365 
L 33.407732 -31.180799 
L 33.449622 -31.089298 
L 33.491515 -30.99785 
L 33.533406 -30.90648 
L 33.575299 -30.815183 
L 33.617189 -30.723971 
L 33.659083 -30.632844 
L 33.700973 -30.541819 
L 33.742867 -30.450885 
L 33.784757 -30.360064 
L 33.82665 -30.269349 
L 33.86854 -30.17876 
L 33.910434 -30.088285 
L 33.952324 -29.997949 
L 33.994218 -29.90774 
L 34.036108 -29.817679 
L 34.078001 -29.727756 
L 34.119892 -29.637991 
L 34.161785 -29.548379 
L 34.203675 -29.458933 
L 34.245569 -29.369648 
L 34.287459 -29.280544 
L 34.329353 -29.191609 
L 34.371243 -29.102864 
L 34.413136 -29.014304 
L 34.455027 -28.925942 
L 34.49692 -28.837771 
L 34.53881 -28.749809 
L 34.580704 -28.662047 
L 34.622596 -28.574506 
L 34.664488 -28.487179 
L 34.706379 -28.400073 
L 34.748271 -28.313196 
L 34.790163 -28.226549 
L 34.832055 -28.140139 
L 34.873947 -28.053968 
L 34.915839 -27.968043 
L 34.957731 -27.882365 
L 34.999623 -27.796942 
L 35.041514 -27.711776 
L 35.083406 -27.626871 
L 35.125298 -27.542231 
L 35.16719 -27.457861 
L 35.209082 -27.373764 
L 35.250974 -27.289946 
L 35.292866 -27.20641 
L 35.334757 -27.123157 
L 35.376649 -27.040193 
L 35.418541 -26.957523 
L 35.460433 -26.875147 
L 35.502325 -26.793072 
L 35.544217 -26.7113 
L 35.586109 -26.629836 
L 35.628001 -26.548678 
L 35.669892 -26.467837 
L 35.711784 -26.38731 
L 35.753676 -26.307104 
L 35.795568 -26.22722 
L 35.83746 -26.147661 
L 35.879352 -26.068432 
L 35.921244 -25.989533 
L 35.963135 -25.91097 
L 36.005027 -25.832744 
L 36.046919 -25.754858 
L 36.088811 -25.677313 
L 36.130703 -25.600117 
L 36.172595 -25.523266 
L 36.214487 -25.446766 
L 36.256379 -25.37062 
L 36.29827 -25.29483 
L 36.340162 -25.219395 
L 36.382054 -25.144321 
L 36.423946 -25.069611 
L 36.465838 -24.995262 
L 36.50773 -24.921281 
L 36.549622 -24.847667 
L 36.591513 -24.774426 
L 36.633405 -24.701555 
L 36.675297 -24.62906 
L 36.717189 -24.556938 
L 36.759081 -24.485197 
L 36.800973 -24.413835 
L 36.842865 -24.342852 
L 36.884757 -24.272252 
L 36.926648 -24.202037 
L 36.96854 -24.132208 
L 37.010432 -24.062767 
L 37.052324 -23.993713 
L 37.094216 -23.925047 
L 37.136108 -23.856774 
L 37.178 -23.788893 
L 37.219891 -23.721405 
L 37.261783 -23.65431 
L 37.303677 -23.58761 
L 37.34557 -23.521308 
L 37.387461 -23.455404 
L 37.429353 -23.389897 
L 37.471244 -23.324791 
L 37.513137 -23.260081 
L 37.555028 -23.195777 
L 37.596921 -23.13187 
L 37.638812 -23.068367 
L 37.680705 -23.005265 
L 37.722596 -22.942567 
L 37.764488 -22.880271 
L 37.806379 -22.818382 
L 37.848272 -22.756893 
L 37.890163 -22.695813 
L 37.932056 -22.635135 
L 37.973947 -22.574863 
L 38.015839 -22.514996 
L 38.05773 -22.455535 
L 38.099623 -22.396478 
L 38.141514 -22.337829 
L 38.183407 -22.279584 
L 38.225298 -22.221745 
L 38.267191 -22.164312 
L 38.309082 -22.107285 
L 38.350974 -22.050661 
L 38.392865 -21.994444 
L 38.434758 -21.93863 
L 38.476649 -21.883224 
L 38.518542 -21.82822 
L 38.560433 -21.77362 
L 38.602326 -21.719423 
L 38.644217 -21.665629 
L 38.686109 -21.612238 
L 38.728 -21.55925 
L 38.769893 -21.506662 
L 38.811784 -21.454477 
L 38.853677 -21.402689 
L 38.895568 -21.351304 
L 38.937461 -21.300316 
L 38.979352 -21.249727 
L 39.021244 -21.199534 
L 39.063135 -21.149741 
L 39.105028 -21.10034 
L 39.146919 -21.051336 
L 39.188812 -21.002724 
L 39.230703 -20.954508 
L 39.272595 -20.906681 
L 39.314486 -20.859248 
L 39.356379 -20.812203 
L 39.39827 -20.765549 
L 39.440163 -20.719279 
L 39.482054 -20.6734 
L 39.523947 -20.627904 
L 39.565838 -20.582794 
L 39.60773 -20.538066 
L 39.649621 -20.493722 
L 39.691514 -20.449757 
L 39.733405 -20.406173 
L 39.775298 -20.362965 
L 39.817189 -20.320136 
L 39.859082 -20.277681 
L 39.900973 -20.235602 
L 39.942865 -20.193894 
L 39.984756 -20.152558 
L 40.02665 -20.11159 
L 40.068542 -20.070991 
L 40.110434 -20.03076 
L 40.152325 -19.990894 
L 40.194217 -19.95139 
L 40.236109 -19.912251 
L 40.278001 -19.873471 
L 40.319893 -19.835051 
L 40.361785 -19.796987 
L 40.403677 -19.759281 
L 40.445569 -19.721927 
L 40.48746 -19.684926 
L 40.529352 -19.648276 
L 40.571244 -19.611975 
L 40.613136 -19.576021 
L 40.655028 -19.540413 
L 40.69692 -19.505149 
L 40.738812 -19.470226 
L 40.780703 -19.435644 
L 40.822595 -19.4014 
L 40.864487 -19.367493 
L 40.906379 -19.33392 
L 40.948271 -19.300681 
L 40.990163 -19.267772 
L 41.032055 -19.235193 
L 41.073947 -19.202941 
L 41.115838 -19.171014 
L 41.15773 -19.139412 
L 41.199622 -19.10813 
L 41.241514 -19.07717 
L 41.283406 -19.046525 
L 41.325298 -19.016198 
L 41.36719 -18.986184 
L 41.409081 -18.956482 
L 41.450973 -18.92709 
L 41.492865 -18.898006 
L 41.534757 -18.869229 
L 41.576649 -18.840755 
L 41.618541 -18.812583 
L 41.660434 -18.784711 
L 41.702325 -18.757138 
L 41.744218 -18.729859 
L 41.786108 -18.702877 
L 41.828002 -18.676185 
L 41.869892 -18.649785 
L 41.911786 -18.62367 
L 41.953676 -18.597844 
L 41.995569 -18.572299 
L 42.03746 -18.547039 
L 42.079353 -18.522056 
L 42.121243 -18.497353 
L 42.163137 -18.472924 
L 42.205027 -18.448771 
L 42.24692 -18.424887 
L 42.288811 -18.401275 
L 42.330704 -18.377929 
L 42.372594 -18.35485 
L 42.414488 -18.332032 
L 42.456378 -18.309478 
L 42.498272 -18.287181 
L 42.540162 -18.265144 
L 42.582055 -18.243361 
L 42.623946 -18.221832 
L 42.665839 -18.200553 
L 42.707731 -18.179523 
L 42.749623 -18.158742 
L 42.791515 -18.138205 
L 42.833407 -18.117911 
L 42.875299 -18.097858 
L 42.91719 -18.078045 
L 42.959082 -18.058468 
L 43.000974 -18.039127 
L 43.042866 -18.020018 
L 43.084758 -18.001141 
L 43.12665 -17.982492 
L 43.168542 -17.96407 
L 43.210433 -17.945873 
L 43.252325 -17.9279 
L 43.294217 -17.910146 
L 43.336109 -17.892613 
L 43.378001 -17.875296 
L 43.419893 -17.858194 
L 43.461785 -17.841306 
L 43.503677 -17.824628 
L 43.545568 -17.80816 
L 43.58746 -17.791899 
L 43.629352 -17.775844 
L 43.671244 -17.759992 
L 43.713136 -17.74434 
L 43.755028 -17.728889 
L 43.79692 -17.713636 
L 43.838811 -17.698578 
L 43.880703 -17.683714 
L 43.922595 -17.669042 
L 43.964487 -17.65456 
L 44.006379 -17.640266 
L 44.048271 -17.626158 
L 44.090163 -17.612236 
L 44.132055 -17.598495 
L 44.173946 -17.584936 
L 44.215838 -17.571555 
L 44.25773 -17.558352 
L 44.299622 -17.545324 
L 44.341514 -17.53247 
L 44.383406 -17.519787 
L 44.425298 -17.507275 
L 44.467189 -17.494931 
L 44.509081 -17.482753 
L 44.550973 -17.47074 
L 44.592865 -17.45889 
L 44.634757 -17.447201 
L 44.676649 -17.435672 
L 44.718541 -17.4243 
L 44.760433 -17.413085 
L 44.802324 -17.402024 
L 44.844216 -17.391116 
L 44.886108 -17.380359 
L 44.928 -17.369751 
L 44.969892 -17.359292 
L 45.011784 -17.348978 
L 45.053676 -17.338809 
L 45.095567 -17.328783 
L 45.137459 -17.318898 
L 45.179351 -17.309153 
L 45.221243 -17.299546 
L 45.263135 -17.290075 
L 45.305027 -17.28074 
L 45.34692 -17.271538 
L 45.388811 -17.262468 
L 45.430704 -17.253528 
L 45.472594 -17.244718 
L 45.514488 -17.236034 
L 45.556378 -17.227477 
L 45.598272 -17.219043 
L 45.640162 -17.210733 
L 45.682055 -17.202544 
L 45.723945 -17.194476 
L 45.765839 -17.186526 
L 45.807729 -17.178693 
L 45.849623 -17.170975 
L 45.891515 -17.163372 
L 45.933408 -17.155882 
L 45.975298 -17.148504 
L 46.017192 -17.141236 
L 46.059082 -17.134077 
L 46.100976 -17.127025 
L 46.142866 -17.120079 
L 46.184759 -17.113238 
L 46.22665 -17.106501 
L 46.268543 -17.099866 
L 46.310433 -17.093332 
L 46.352327 -17.086898 
L 46.394217 -17.080562 
L 46.436111 -17.074323 
L 46.478001 -17.06818 
L 46.519894 -17.062132 
L 46.561784 -17.056177 
L 46.603678 -17.050315 
L 46.645568 -17.044543 
L 46.687462 -17.038862 
L 46.729352 -17.033269 
L 46.771245 -17.027764 
L 46.813136 -17.022345 
L 46.855029 -17.017011 
L 46.896919 -17.011762 
L 46.938813 -17.006595 
L 46.980703 -17.00151 
L 46.980703 -16.721563 
L 46.980703 -16.721563 
L 46.938813 -16.721563 
L 46.896919 -16.721563 
L 46.855029 -16.721563 
L 46.813136 -16.721563 
L 46.771245 -16.721563 
L 46.729352 -16.721563 
L 46.687462 -16.721563 
L 46.645568 -16.721563 
L 46.603678 -16.721563 
L 46.561784 -16.721563 
L 46.519894 -16.721563 
L 46.478001 -16.721563 
L 46.436111 -16.721563 
L 46.394217 -16.721563 
L 46.352327 -16.721563 
L 46.310433 -16.721563 
L 46.268543 -16.721563 
L 46.22665 -16.721563 
L 46.184759 -16.721563 
L 46.142866 -16.721563 
L 46.100976 -16.721563 
L 46.059082 -16.721563 
L 46.017192 -16.721563 
L 45.975298 -16.721563 
L 45.933408 -16.721563 
L 45.891515 -16.721563 
L 45.849623 -16.721563 
L 45.807729 -16.721563 
L 45.765839 -16.721563 
L 45.723945 -16.721563 
L 45.682055 -16.721563 
L 45.640162 -16.721563 
L 45.598272 -16.721563 
L 45.556378 -16.721563 
L 45.514488 -16.721563 
L 45.472594 -16.721563 
L 45.430704 -16.721563 
L 45.388811 -16.721563 
L 45.34692 -16.721563 
L 45.305027 -16.721563 
L 45.263135 -16.721563 
L 45.221243 -16.721563 
L 45.179351 -16.721563 
L 45.137459 -16.721563 
L 45.095567 -16.721563 
L 45.053676 -16.721563 
L 45.011784 -16.721563 
L 44.969892 -16.721563 
L 44.928 -16.721563 
L 44.886108 -16.721563 
L 44.844216 -16.721563 
L 44.802324 -16.721563 
L 44.760433 -16.721563 
L 44.718541 -16.721563 
L 44.676649 -16.721563 
L 44.634757 -16.721563 
L 44.592865 -16.721563 
L 44.550973 -16.721563 
L 44.509081 -16.721563 
L 44.467189 -16.721563 
L 44.425298 -16.721563 
L 44.383406 -16.721563 
L 44.341514 -16.721563 
L 44.299622 -16.721563 
L 44.25773 -16.721563 
L 44.215838 -16.721563 
L 44.173946 -16.721563 
L 44.132055 -16.721563 
L 44.090163 -16.721563 
L 44.048271 -16.721563 
L 44.006379 -16.721563 
L 43.964487 -16.721563 
L 43.922595 -16.721563 
L 43.880703 -16.721563 
L 43.838811 -16.721563 
L 43.79692 -16.721563 
L 43.755028 -16.721563 
L 43.713136 -16.721563 
L 43.671244 -16.721563 
L 43.629352 -16.721563 
L 43.58746 -16.721563 
L 43.545568 -16.721563 
L 43.503677 -16.721563 
L 43.461785 -16.721563 
L 43.419893 -16.721563 
L 43.378001 -16.721563 
L 43.336109 -16.721563 
L 43.294217 -16.721563 
L 43.252325 -16.721563 
L 43.210433 -16.721563 
L 43.168542 -16.721563 
L 43.12665 -16.721563 
L 43.084758 -16.721563 
L 43.042866 -16.721563 
L 43.000974 -16.721563 
L 42.959082 -16.721563 
L 42.91719 -16.721563 
L 42.875299 -16.721563 
L 42.833407 -16.721563 
L 42.791515 -16.721563 
L 42.749623 -16.721563 
L 42.707731 -16.721563 
L 42.665839 -16.721563 
L 42.623946 -16.721563 
L 42.582055 -16.721563 
L 42.540162 -16.721563 
L 42.498272 -16.721563 
L 42.456378 -16.721563 
L 42.414488 -16.721563 
L 42.372594 -16.721563 
L 42.330704 -16.721563 
L 42.288811 -16.721563 
L 42.24692 -16.721563 
L 42.205027 -16.721563 
L 42.163137 -16.721563 
L 42.121243 -16.721563 
L 42.079353 -16.721563 
L 42.03746 -16.721563 
L 41.995569 -16.721563 
L 41.953676 -16.721563 
L 41.911786 -16.721563 
L 41.869892 -16.721563 
L 41.828002 -16.721563 
L 41.786108 -16.721563 
L 41.744218 -16.721563 
L 41.702325 -16.721563 
L 41.660434 -16.721563 
L 41.618541 -16.721563 
L 41.576649 -16.721563 
L 41.534757 -16.721563 
L 41.492865 -16.721563 
L 41.450973 -16.721563 
L 41.409081 -16.721563 
L 41.36719 -16.721563 
L 41.325298 -16.721563 
L 41.283406 -16.721563 
L 41.241514 -16.721563 
L 41.199622 -16.721563 
L 41.15773 -16.721563 
L 41.115838 -16.721563 
L 41.073947 -16.721563 
L 41.032055 -16.721563 
L 40.990163 -16.721563 
L 40.948271 -16.721563 
L 40.906379 -16.721563 
L 40.864487 -16.721563 
L 40.822595 -16.721563 
L 40.780703 -16.721563 
L 40.738812 -16.721563 
L 40.69692 -16.721563 
L 40.655028 -16.721563 
L 40.613136 -16.721563 
L 40.571244 -16.721563 
L 40.529352 -16.721563 
L 40.48746 -16.721563 
L 40.445569 -16.721563 
L 40.403677 -16.721563 
L 40.361785 -16.721563 
L 40.319893 -16.721563 
L 40.278001 -16.721563 
L 40.236109 -16.721563 
L 40.194217 -16.721563 
L 40.152325 -16.721563 
L 40.110434 -16.721563 
L 40.068542 -16.721563 
L 40.02665 -16.721563 
L 39.984756 -16.721563 
L 39.942865 -16.721563 
L 39.900973 -16.721563 
L 39.859082 -16.721563 
L 39.817189 -16.721563 
L 39.775298 -16.721563 
L 39.733405 -16.721563 
L 39.691514 -16.721563 
L 39.649621 -16.721563 
L 39.60773 -16.721563 
L 39.565838 -16.721563 
L 39.523947 -16.721563 
L 39.482054 -16.721563 
L 39.440163 -16.721563 
L 39.39827 -16.721563 
L 39.356379 -16.721563 
L 39.314486 -16.721563 
L 39.272595 -16.721563 
L 39.230703 -16.721563 
L 39.188812 -16.721563 
L 39.146919 -16.721563 
L 39.105028 -16.721563 
L 39.063135 -16.721563 
L 39.021244 -16.721563 
L 38.979352 -16.721563 
L 38.937461 -16.721563 
L 38.895568 -16.721563 
L 38.853677 -16.721563 
L 38.811784 -16.721563 
L 38.769893 -16.721563 
L 38.728 -16.721563 
L 38.686109 -16.721563 
L 38.644217 -16.721563 
L 38.602326 -16.721563 
L 38.560433 -16.721563 
L 38.518542 -16.721563 
L 38.476649 -16.721563 
L 38.434758 -16.721563 
L 38.392865 -16.721563 
L 38.350974 -16.721563 
L 38.309082 -16.721563 
L 38.267191 -16.721563 
L 38.225298 -16.721563 
L 38.183407 -16.721563 
L 38.141514 -16.721563 
L 38.099623 -16.721563 
L 38.05773 -16.721563 
L 38.015839 -16.721563 
L 37.973947 -16.721563 
L 37.932056 -16.721563 
L 37.890163 -16.721563 
L 37.848272 -16.721563 
L 37.806379 -16.721563 
L 37.764488 -16.721563 
L 37.722596 -16.721563 
L 37.680705 -16.721563 
L 37.638812 -16.721563 
L 37.596921 -16.721563 
L 37.555028 -16.721563 
L 37.513137 -16.721563 
L 37.471244 -16.721563 
L 37.429353 -16.721563 
L 37.387461 -16.721563 
L 37.34557 -16.721563 
L 37.303677 -16.721563 
L 37.261783 -16.721563 
L 37.219891 -16.721563 
L 37.178 -16.721563 
L 37.136108 -16.721563 
L 37.094216 -16.721563 
L 37.052324 -16.721563 
L 37.010432 -16.721563 
L 36.96854 -16.721563 
L 36.926648 -16.721563 
L 36.884757 -16.721563 
L 36.842865 -16.721563 
L 36.800973 -16.721563 
L 36.759081 -16.721563 
L 36.717189 -16.721563 
L 36.675297 -16.721563 
L 36.633405 -16.721563 
L 36.591513 -16.721563 
L 36.549622 -16.721563 
L 36.50773 -16.721563 
L 36.465838 -16.721563 
L 36.423946 -16.721563 
L 36.382054 -16.721563 
L 36.340162 -16.721563 
L 36.29827 -16.721563 
L 36.256379 -16.721563 
L 36.214487 -16.721563 
L 36.172595 -16.721563 
L 36.130703 -16.721563 
L 36.088811 -16.721563 
L 36.046919 -16.721563 
L 36.005027 -16.721563 
L 35.963135 -16.721563 
L 35.921244 -16.721563 
L 35.879352 -16.721563 
L 35.83746 -16.721563 
L 35.795568 -16.721563 
L 35.753676 -16.721563 
L 35.711784 -16.721563 
L 35.669892 -16.721563 
L 35.628001 -16.721563 
L 35.586109 -16.721563 
L 35.544217 -16.721563 
L 35.502325 -16.721563 
L 35.460433 -16.721563 
L 35.418541 -16.721563 
L 35.376649 -16.721563 
L 35.334757 -16.721563 
L 35.292866 -16.721563 
L 35.250974 -16.721563 
L 35.209082 -16.721563 
L 35.16719 -16.721563 
L 35.125298 -16.721563 
L 35.083406 -16.721563 
L 35.041514 -16.721563 
L 34.999623 -16.721563 
L 34.957731 -16.721563 
L 34.915839 -16.721563 
L 34.873947 -16.721563 
L 34.832055 -16.721563 
L 34.790163 -16.721563 
L 34.748271 -16.721563 
L 34.706379 -16.721563 
L 34.664488 -16.721563 
L 34.622596 -16.721563 
L 34.580704 -16.721563 
L 34.53881 -16.721563 
L 34.49692 -16.721563 
L 34.455027 -16.721563 
L 34.413136 -16.721563 
L 34.371243 -16.721563 
L 34.329353 -16.721563 
L 34.287459 -16.721563 
L 34.245569 -16.721563 
L 34.203675 -16.721563 
L 34.161785 -16.721563 
L 34.119892 -16.721563 
L 34.078001 -16.721563 
L 34.036108 -16.721563 
L 33.994218 -16.721563 
L 33.952324 -16.721563 
L 33.910434 -16.721563 
L 33.86854 -16.721563 
L 33.82665 -16.721563 
L 33.784757 -16.721563 
L 33.742867 -16.721563 
L 33.700973 -16.721563 
L 33.659083 -16.721563 
L 33.617189 -16.721563 
L 33.575299 -16.721563 
L 33.533406 -16.721563 
L 33.491515 -16.721563 
L 33.449622 -16.721563 
L 33.407732 -16.721563 
L 33.365838 -16.721563 
L 33.323948 -16.721563 
L 33.282054 -16.721563 
L 33.240164 -16.721563 
L 33.198271 -16.721563 
L 33.15638 -16.721563 
L 33.114487 -16.721563 
L 33.072597 -16.721563 
L 33.030703 -16.721563 
L 32.98881 -16.721563 
L 32.946919 -16.721563 
L 32.905027 -16.721563 
L 32.863135 -16.721563 
L 32.821243 -16.721563 
L 32.779351 -16.721563 
L 32.737459 -16.721563 
L 32.695567 -16.721563 
L 32.653675 -16.721563 
L 32.611784 -16.721563 
L 32.569892 -16.721563 
L 32.528 -16.721563 
L 32.486108 -16.721563 
L 32.444216 -16.721563 
L 32.402324 -16.721563 
L 32.360432 -16.721563 
L 32.318541 -16.721563 
L 32.276649 -16.721563 
L 32.234757 -16.721563 
L 32.192865 -16.721563 
L 32.150973 -16.721563 
L 32.109081 -16.721563 
L 32.067189 -16.721563 
L 32.025297 -16.721563 
L 31.983406 -16.721563 
L 31.941514 -16.721563 
L 31.899622 -16.721563 
L 31.85773 -16.721563 
L 31.815838 -16.721563 
L 31.773946 -16.721563 
L 31.732054 -16.721563 
L 31.690163 -16.721563 
L 31.648271 -16.721563 
L 31.606379 -16.721563 
L 31.564487 -16.721563 
L 31.522595 -16.721563 
L 31.480703 -16.721563 
L 31.438811 -16.721563 
L 31.396919 -16.721563 
L 31.355028 -16.721563 
L 31.313136 -16.721563 
L 31.271244 -16.721563 
L 31.229352 -16.721563 
L 31.18746 -16.721563 
L 31.145568 -16.721563 
L 31.103676 -16.721563 
L 31.061785 -16.721563 
L 31.019893 -16.721563 
L 30.978001 -16.721563 
L 30.936109 -16.721563 
L 30.894217 -16.721563 
L 30.852325 -16.721563 
L 30.810433 -16.721563 
L 30.768541 -16.721563 
L 30.72665 -16.721563 
L 30.684758 -16.721563 
L 30.642866 -16.721563 
L 30.600974 -16.721563 
L 30.559081 -16.721563 
L 30.517189 -16.721563 
L 30.475298 -16.721563 
L 30.433406 -16.721563 
L 30.391514 -16.721563 
L 30.349622 -16.721563 
L 30.30773 -16.721563 
L 30.265838 -16.721563 
L 30.223946 -16.721563 
L 30.182055 -16.721563 
L 30.140163 -16.721563 
L 30.098271 -16.721563 
L 30.056379 -16.721563 
L 30.014487 -16.721563 
L 29.972595 -16.721563 
L 29.930703 -16.721563 
L 29.888811 -16.721563 
L 29.84692 -16.721563 
L 29.805028 -16.721563 
L 29.763136 -16.721563 
L 29.721244 -16.721563 
L 29.679352 -16.721563 
L 29.63746 -16.721563 
L 29.595568 -16.721563 
L 29.553677 -16.721563 
L 29.511785 -16.721563 
L 29.469893 -16.721563 
L 29.428001 -16.721563 
L 29.386109 -16.721563 
L 29.344217 -16.721563 
L 29.302325 -16.721563 
L 29.260433 -16.721563 
L 29.218542 -16.721563 
L 29.17665 -16.721563 
L 29.134758 -16.721563 
L 29.092866 -16.721563 
L 29.050974 -16.721563 
L 29.009082 -16.721563 
L 28.96719 -16.721563 
L 28.925299 -16.721563 
L 28.883407 -16.721563 
L 28.841515 -16.721563 
L 28.799623 -16.721563 
L 28.757731 -16.721563 
L 28.715838 -16.721563 
L 28.673946 -16.721563 
L 28.632054 -16.721563 
L 28.590163 -16.721563 
L 28.54827 -16.721563 
L 28.506379 -16.721563 
L 28.464486 -16.721563 
L 28.422595 -16.721563 
L 28.380703 -16.721563 
L 28.338812 -16.721563 
L 28.296919 -16.721563 
L 28.255028 -16.721563 
L 28.213135 -16.721563 
L 28.171244 -16.721563 
L 28.129351 -16.721563 
L 28.08746 -16.721563 
L 28.045568 -16.721563 
L 28.003677 -16.721563 
L 27.961784 -16.721563 
L 27.919892 -16.721563 
L 27.877999 -16.721563 
L 27.836108 -16.721563 
L 27.794216 -16.721563 
L 27.752325 -16.721563 
L 27.710432 -16.721563 
L 27.668541 -16.721563 
L 27.626648 -16.721563 
L 27.584757 -16.721563 
L 27.542864 -16.721563 
L 27.500973 -16.721563 
L 27.459081 -16.721563 
L 27.41719 -16.721563 
L 27.375297 -16.721563 
L 27.333406 -16.721563 
L 27.291513 -16.721563 
L 27.249622 -16.721563 
L 27.207729 -16.721563 
L 27.165838 -16.721563 
L 27.123946 -16.721563 
L 27.082055 -16.721563 
L 27.040162 -16.721563 
L 26.998271 -16.721563 
L 26.956378 -16.721563 
L 26.914487 -16.721563 
L 26.872595 -16.721563 
L 26.830703 -16.721563 
L 26.788811 -16.721563 
L 26.74692 -16.721563 
L 26.705027 -16.721563 
L 26.663136 -16.721563 
L 26.621243 -16.721563 
L 26.579352 -16.721563 
L 26.53746 -16.721563 
L 26.495569 -16.721563 
L 26.453676 -16.721563 
L 26.411785 -16.721563 
L 26.369892 -16.721563 
L 26.328001 -16.721563 
L 26.286108 -16.721563 
L 26.244217 -16.721563 
L 26.202325 -16.721563 
L 26.160434 -16.721563 
L 26.118541 -16.721563 
L 26.07665 -16.721563 
L 26.034757 -16.721563 
L 25.992866 -16.721563 
L 25.950973 -16.721563 
L 25.909082 -16.721563 
L 25.86719 -16.721563 
L 25.825299 -16.721563 
L 25.783406 -16.721563 
L 25.741515 -16.721563 
L 25.699622 -16.721563 
L 25.657731 -16.721563 
L 25.615839 -16.721563 
L 25.573947 -16.721563 
L 25.532055 -16.721563 
L 25.490162 -16.721563 
L 25.44827 -16.721563 
L 25.406378 -16.721563 
L 25.364486 -16.721563 
L 25.322595 -16.721563 
L 25.280703 -16.721563 
L 25.238811 -16.721563 
L 25.196918 -16.721563 
L 25.155026 -16.721563 
L 25.113134 -16.721563 
L 25.071243 -16.721563 
L 25.029351 -16.721563 
L 24.987459 -16.721563 
L 24.945567 -16.721563 
L 24.903675 -16.721563 
L 24.861783 -16.721563 
L 24.819891 -16.721563 
L 24.778 -16.721563 
L 24.736108 -16.721563 
L 24.694216 -16.721563 
L 24.652324 -16.721563 
L 24.610432 -16.721563 
L 24.56854 -16.721563 
L 24.526648 -16.721563 
L 24.484756 -16.721563 
L 24.442865 -16.721563 
L 24.400973 -16.721563 
L 24.359081 -16.721563 
L 24.317189 -16.721563 
L 24.275297 -16.721563 
L 24.233405 -16.721563 
L 24.191513 -16.721563 
L 24.149622 -16.721563 
L 24.10773 -16.721563 
L 24.065838 -16.721563 
L 24.023946 -16.721563 
L 23.982054 -16.721563 
L 23.940162 -16.721563 
L 23.89827 -16.721563 
L 23.856378 -16.721563 
L 23.814487 -16.721563 
L 23.772595 -16.721563 
L 23.730703 -16.721563 
L 23.688811 -16.721563 
L 23.646919 -16.721563 
L 23.605027 -16.721563 
L 23.563135 -16.721563 
L 23.521244 -16.721563 
L 23.479352 -16.721563 
L 23.43746 -16.721563 
L 23.395568 -16.721563 
L 23.353676 -16.721563 
L 23.311784 -16.721563 
L 23.269892 -16.721563 
L 23.228 -16.721563 
L 23.186109 -16.721563 
L 23.144217 -16.721563 
L 23.102325 -16.721563 
L 23.060433 -16.721563 
L 23.018541 -16.721563 
L 22.976649 -16.721563 
L 22.934757 -16.721563 
L 22.892866 -16.721563 
L 22.850974 -16.721563 
L 22.809082 -16.721563 
L 22.76719 -16.721563 
L 22.725298 -16.721563 
L 22.683406 -16.721563 
L 22.641514 -16.721563 
L 22.599622 -16.721563 
L 22.55773 -16.721563 
L 22.515838 -16.721563 
L 22.473946 -16.721563 
L 22.432054 -16.721563 
L 22.390162 -16.721563 
L 22.34827 -16.721563 
L 22.306379 -16.721563 
L 22.264487 -16.721563 
L 22.222595 -16.721563 
L 22.180703 -16.721563 
L 22.138811 -16.721563 
L 22.096919 -16.721563 
L 22.055027 -16.721563 
L 22.013135 -16.721563 
L 21.971244 -16.721563 
L 21.929352 -16.721563 
L 21.88746 -16.721563 
L 21.845568 -16.721563 
L 21.803676 -16.721563 
L 21.761784 -16.721563 
L 21.719892 -16.721563 
L 21.678001 -16.721563 
L 21.636109 -16.721563 
L 21.594217 -16.721563 
L 21.552325 -16.721563 
L 21.510433 -16.721563 
L 21.468541 -16.721563 
L 21.426649 -16.721563 
L 21.384757 -16.721563 
L 21.342866 -16.721563 
L 21.300974 -16.721563 
L 21.259082 -16.721563 
L 21.21719 -16.721563 
L 21.175298 -16.721563 
L 21.133406 -16.721563 
L 21.091514 -16.721563 
L 21.049623 -16.721563 
L 21.007731 -16.721563 
L 20.965839 -16.721563 
L 20.923947 -16.721563 
L 20.882055 -16.721563 
L 20.840163 -16.721563 
L 20.798271 -16.721563 
L 20.756379 -16.721563 
L 20.714488 -16.721563 
L 20.672596 -16.721563 
L 20.630704 -16.721563 
L 20.588812 -16.721563 
L 20.54692 -16.721563 
L 20.505028 -16.721563 
L 20.463136 -16.721563 
L 20.421245 -16.721563 
L 20.379353 -16.721563 
L 20.337461 -16.721563 
L 20.295569 -16.721563 
L 20.253677 -16.721563 
L 20.211785 -16.721563 
L 20.169893 -16.721563 
L 20.128001 -16.721563 
L 20.08611 -16.721563 
L 20.044218 -16.721563 
L 20.002326 -16.721563 
L 19.960434 -16.721563 
L 19.918542 -16.721563 
L 19.87665 -16.721563 
L 19.834758 -16.721563 
L 19.792866 -16.721563 
L 19.750974 -16.721563 
L 19.709082 -16.721563 
L 19.66719 -16.721563 
L 19.625298 -16.721563 
L 19.583406 -16.721563 
L 19.541514 -16.721563 
L 19.499623 -16.721563 
L 19.457731 -16.721563 
L 19.415839 -16.721563 
L 19.373947 -16.721563 
L 19.332055 -16.721563 
L 19.290163 -16.721563 
L 19.248271 -16.721563 
L 19.20638 -16.721563 
L 19.164488 -16.721563 
L 19.122596 -16.721563 
L 19.080704 -16.721563 
L 19.03881 -16.721563 
L 18.996919 -16.721563 
L 18.955027 -16.721563 
L 18.913136 -16.721563 
L 18.871243 -16.721563 
L 18.829352 -16.721563 
L 18.787459 -16.721563 
L 18.745568 -16.721563 
L 18.703675 -16.721563 
L 18.661784 -16.721563 
L 18.619892 -16.721563 
L 18.578001 -16.721563 
L 18.536108 -16.721563 
L 18.494217 -16.721563 
L 18.452324 -16.721563 
L 18.410433 -16.721563 
L 18.368541 -16.721563 
L 18.32665 -16.721563 
L 18.284757 -16.721563 
L 18.242866 -16.721563 
L 18.200973 -16.721563 
L 18.159082 -16.721563 
L 18.117189 -16.721563 
L 18.075298 -16.721563 
L 18.033406 -16.721563 
L 17.991515 -16.721563 
L 17.949622 -16.721563 
L 17.907731 -16.721563 
L 17.865838 -16.721563 
L 17.823947 -16.721563 
L 17.782054 -16.721563 
L 17.740163 -16.721563 
L 17.69827 -16.721563 
L 17.65638 -16.721563 
L 17.614486 -16.721563 
L 17.572596 -16.721563 
L 17.530702 -16.721563 
L 17.488812 -16.721563 
L 17.446919 -16.721563 
L 17.405028 -16.721563 
L 17.363135 -16.721563 
L 17.321245 -16.721563 
L 17.279351 -16.721563 
L 17.237461 -16.721563 
L 17.195567 -16.721563 
L 17.153677 -16.721563 
L 17.111784 -16.721563 
L 17.069894 -16.721563 
L 17.028 -16.721563 
L 16.98611 -16.721563 
L 16.944216 -16.721563 
L 16.902324 -16.721563 
L 16.860433 -16.721563 
L 16.818541 -16.721563 
L 16.776647 -16.721563 
L 16.734757 -16.721563 
L 16.692865 -16.721563 
L 16.650973 -16.721563 
L 16.60908 -16.721563 
L 16.567189 -16.721563 
L 16.525298 -16.721563 
L 16.483405 -16.721563 
L 16.441512 -16.721563 
L 16.399621 -16.721563 
L 16.35773 -16.721563 
L 16.315837 -16.721563 
L 16.273945 -16.721563 
L 16.232054 -16.721563 
L 16.190163 -16.721563 
L 16.14827 -16.721563 
L 16.106377 -16.721563 
L 16.064486 -16.721563 
L 16.022595 -16.721563 
L 15.980702 -16.721563 
L 15.93881 -16.721563 
L 15.896919 -16.721563 
L 15.855028 -16.721563 
L 15.813135 -16.721563 
L 15.771242 -16.721563 
L 15.729351 -16.721563 
L 15.68746 -16.721563 
L 15.645568 -16.721563 
L 15.603675 -16.721563 
L 15.561784 -16.721563 
L 15.519893 -16.721563 
L 15.478 -16.721563 
L 15.436107 -16.721563 
L 15.394216 -16.721563 
L 15.352325 -16.721563 
L 15.310433 -16.721563 
L 15.26854 -16.721563 
L 15.226649 -16.721563 
L 15.184758 -16.721563 
L 15.142864 -16.721563 
L 15.100972 -16.721563 
L 15.059081 -16.721563 
L 15.01719 -16.721563 
L 14.975297 -16.721563 
L 14.933405 -16.721563 
L 14.891513 -16.721563 
L 14.849623 -16.721563 
L 14.807729 -16.721563 
L 14.765838 -16.721563 
L 14.723946 -16.721563 
L 14.682055 -16.721563 
L 14.640162 -16.721563 
L 14.59827 -16.721563 
L 14.556378 -16.721563 
L 14.514488 -16.721563 
L 14.472594 -16.721563 
L 14.430703 -16.721563 
L 14.388811 -16.721563 
L 14.34692 -16.721563 
L 14.305027 -16.721563 
L 14.263135 -16.721563 
L 14.221243 -16.721563 
L 14.179353 -16.721563 
L 14.13746 -16.721563 
L 14.095568 -16.721563 
L 14.053676 -16.721563 
L 14.011786 -16.721563 
L 13.969892 -16.721563 
L 13.928 -16.721563 
L 13.886108 -16.721563 
L 13.844217 -16.721563 
L 13.802325 -16.721563 
L 13.760432 -16.721563 
L 13.718541 -16.721563 
L 13.67665 -16.721563 
L 13.634757 -16.721563 
L 13.592864 -16.721563 
L 13.550973 -16.721563 
L 13.509082 -16.721563 
L 13.46719 -16.721563 
L 13.425297 -16.721563 
L 13.383406 -16.721563 
L 13.341515 -16.721563 
L 13.299622 -16.721563 
L 13.257729 -16.721563 
L 13.215838 -16.721563 
L 13.173947 -16.721563 
L 13.132055 -16.721563 
L 13.090162 -16.721563 
L 13.048271 -16.721563 
L 13.00638 -16.721563 
L 12.964487 -16.721563 
L 12.922595 -16.721563 
L 12.880703 -16.721563 
L 12.838812 -16.721563 
L 12.79692 -16.721563 
L 12.755027 -16.721563 
L 12.713136 -16.721563 
L 12.671245 -16.721563 
L 12.629352 -16.721563 
L 12.58746 -16.721563 
L 12.545569 -16.721563 
L 12.503678 -16.721563 
L 12.461785 -16.721563 
L 12.419891 -16.721563 
L 12.378001 -16.721563 
L 12.336109 -16.721563 
L 12.294217 -16.721563 
L 12.252324 -16.721563 
L 12.210434 -16.721563 
L 12.168542 -16.721563 
L 12.12665 -16.721563 
L 12.084756 -16.721563 
L 12.042866 -16.721563 
L 12.000974 -16.721563 
L 11.959082 -16.721563 
L 11.917189 -16.721563 
L 11.875299 -16.721563 
L 11.833407 -16.721563 
L 11.791515 -16.721563 
L 11.749621 -16.721563 
L 11.707731 -16.721563 
L 11.665839 -16.721563 
L 11.623947 -16.721563 
L 11.582054 -16.721563 
L 11.540164 -16.721563 
L 11.498272 -16.721563 
L 11.45638 -16.721563 
L 11.414486 -16.721563 
L 11.372596 -16.721563 
L 11.330704 -16.721563 
L 11.288813 -16.721563 
L 11.246919 -16.721563 
L 11.205029 -16.721563 
L 11.163137 -16.721563 
L 11.121245 -16.721563 
L 11.079352 -16.721563 
L 11.037461 -16.721563 
L 10.995568 -16.721563 
L 10.953676 -16.721563 
L 10.911784 -16.721563 
L 10.869892 -16.721563 
L 10.828 -16.721563 
L 10.786107 -16.721563 
L 10.744217 -16.721563 
L 10.702323 -16.721563 
L 10.660433 -16.721563 
L 10.618539 -16.721563 
L 10.576649 -16.721563 
L 10.534756 -16.721563 
L 10.492865 -16.721563 
L 10.450972 -16.721563 
L 10.409082 -16.721563 
L 10.367188 -16.721563 
L 10.325298 -16.721563 
L 10.283404 -16.721563 
L 10.241514 -16.721563 
L 10.199621 -16.721563 
L 10.15773 -16.721563 
L 10.115837 -16.721563 
L 10.073947 -16.721563 
L 10.032053 -16.721563 
L 9.990163 -16.721563 
L 9.948269 -16.721563 
L 9.906379 -16.721563 
L 9.864486 -16.721563 
L 9.822596 -16.721563 
L 9.780702 -16.721563 
L 9.738812 -16.721563 
L 9.696918 -16.721563 
L 9.655028 -16.721563 
L 9.613135 -16.721563 
L 9.571244 -16.721563 
L 9.529351 -16.721563 
L 9.487461 -16.721563 
L 9.445567 -16.721563 
L 9.403677 -16.721563 
L 9.361783 -16.721563 
L 9.319893 -16.721563 
L 9.278 -16.721563 
L 9.236109 -16.721563 
L 9.194216 -16.721563 
L 9.152326 -16.721563 
L 9.110432 -16.721563 
L 9.068542 -16.721563 
L 9.026648 -16.721563 
L 8.984758 -16.721563 
L 8.942865 -16.721563 
L 8.900974 -16.721563 
L 8.859081 -16.721563 
L 8.817191 -16.721563 
L 8.775297 -16.721563 
L 8.733407 -16.721563 
L 8.691513 -16.721563 
L 8.649623 -16.721563 
L 8.60773 -16.721563 
L 8.56584 -16.721563 
L 8.523946 -16.721563 
L 8.482056 -16.721563 
L 8.440162 -16.721563 
L 8.398272 -16.721563 
L 8.356379 -16.721563 
L 8.314488 -16.721563 
L 8.272595 -16.721563 
L 8.230705 -16.721563 
L 8.188811 -16.721563 
L 8.146921 -16.721563 
L 8.105027 -16.721563 
L 8.063137 -16.721563 
L 8.021244 -16.721563 
L 7.979353 -16.721563 
L 7.93746 -16.721563 
L 7.89557 -16.721563 
L 7.853676 -16.721563 
L 7.811786 -16.721563 
L 7.769892 -16.721563 
L 7.728002 -16.721563 
L 7.686109 -16.721563 
L 7.644218 -16.721563 
L 7.602325 -16.721563 
L 7.560433 -16.721563 
L 7.518541 -16.721563 
L 7.476649 -16.721563 
L 7.434757 -16.721563 
L 7.392864 -16.721563 
L 7.350974 -16.721563 
L 7.30908 -16.721563 
L 7.267188 -16.721563 
L 7.225296 -16.721563 
L 7.183406 -16.721563 
L 7.141513 -16.721563 
L 7.099621 -16.721563 
L 7.057729 -16.721563 
L 7.015839 -16.721563 
L 6.973945 -16.721563 
L 6.932053 -16.721563 
L 6.890162 -16.721563 
L 6.848271 -16.721563 
L 6.806378 -16.721563 
L 6.764486 -16.721563 
L 6.722594 -16.721563 
L 6.680704 -16.721563 
L 6.63881 -16.721563 
L 6.596918 -16.721563 
L 6.555027 -16.721563 
L 6.513136 -16.721563 
L 6.471243 -16.721563 
L 6.429351 -16.721563 
L 6.387459 -16.721563 
L 6.345569 -16.721563 
L 6.303675 -16.721563 
L 6.261784 -16.721563 
L 6.219892 -16.721563 
L 6.178001 -16.721563 
L 6.136108 -16.721563 
L 6.094216 -16.721563 
L 6.052324 -16.721563 
L 6.010434 -16.721563 
L 5.96854 -16.721563 
L 5.926649 -16.721563 
L 5.884757 -16.721563 
L 5.842867 -16.721563 
L 5.800973 -16.721563 
L 5.759081 -16.721563 
L 5.717189 -16.721563 
L 5.675299 -16.721563 
L 5.633406 -16.721563 
L 5.591514 -16.721563 
L 5.549622 -16.721563 
L 5.507732 -16.721563 
L 5.465838 -16.721563 
L 5.423946 -16.721563 
L 5.382054 -16.721563 
L 5.340164 -16.721563 
L 5.298271 -16.721563 
L 5.256379 -16.721563 
L 5.214487 -16.721563 
L 5.172597 -16.721563 
L 5.130703 -16.721563 
z
" style="stroke: #ffdf7f; stroke-opacity: 0.5"/>
    </defs>
    <g clip-path="url(#p8614fd3ec4)">
     <use xlink:href="#m43ba4edfd1" x="0" y="43.181562" style="fill: #ffdf7f; fill-opacity: 0.5; stroke: #ffdf7f; stroke-opacity: 0.5"/>
    </g>
   </g>
   <g id="matplotlib.axis_1">
    <g id="xtick_1">
     <g id="line2d_1">
      <defs>
       <path id="m2fbd071810" d="M 0 0 
L 0 3.5 
" style="stroke: #000000; stroke-width: 1.5"/>
      </defs>
      <g>
       <use xlink:href="#m2fbd071810" x="5.130703" y="27.72" style="stroke: #000000; stroke-width: 1.5"/>
      </g>
     </g>
     <g id="text_1">
      <text style="font: 9px 'Arial', sans-serif; text-anchor: middle" x="5.130703" y="41.162031" transform="rotate(-0 5.130703 41.162031)">−3</text>
     </g>
    </g>
    <g id="xtick_2">
     <g id="line2d_2">
      <g>
       <use xlink:href="#m2fbd071810" x="46.980703" y="27.72" style="stroke: #000000; stroke-width: 1.5"/>
      </g>
     </g>
     <g id="text_2">
      <text style="font: 9px 'Arial', sans-serif; text-anchor: middle" x="46.980703" y="41.162031" transform="rotate(-0 46.980703 41.162031)">3</text>
     </g>
    </g>
    <g id="text_3">
     <!-- $\theta$ -->
     <g transform="translate(23.535703 41.392812)">
      <text>
       <tspan style="font: 9px 'Arial'" x="0" y="-0.453125">θ</tspan>
      </text>
     </g>
    </g>
   </g>
   <g id="line2d_3">
    <path d="M 5.130703 26.180052 
L 7.099621 25.832585 
L 8.649623 25.340256 
L 9.990163 24.684209 
L 11.205029 23.847641 
L 12.419891 22.731806 
L 13.634757 21.298338 
L 14.891513 19.460159 
L 16.273945 17.033904 
L 17.991515 13.543572 
L 22.096919 5.00877 
L 23.228 3.247943 
L 24.149622 2.183486 
L 24.945567 1.577054 
L 25.657731 1.300872 
L 26.328001 1.279081 
L 26.998271 1.488933 
L 27.710432 1.959148 
L 28.506379 2.768304 
L 29.428001 4.03962 
L 30.559081 6.00107 
L 32.150973 9.258084 
L 36.130703 17.581445 
L 37.596921 20.049693 
L 38.937461 21.881247 
L 40.194217 23.230172 
L 41.450973 24.254472 
L 42.749623 25.022821 
L 44.132055 25.583067 
L 45.723945 25.987087 
L 46.980703 26.180052 
L 46.980703 26.180052 
" clip-path="url(#p8614fd3ec4)" style="fill: none; stroke: #ffdf7f; stroke-opacity: 0.85098; stroke-width: 2; stroke-linecap: square"/>
   </g>
   <g id="patch_3">
    <path d="M 5.130703 27.72 
L 46.980703 27.72 
" style="fill: none; stroke: #000000; stroke-width: 1.5; stroke-linejoin: miter; stroke-linecap: square"/>
   </g>
  </g>
 </g>
 <defs>
  <clipPath id="p8614fd3ec4">
   <rect x="5.130703" y="0" width="41.85" height="27.72"/>
  </clipPath>
 </defs>
</svg>
