<?xml version="1.0" encoding="utf-8" standalone="no"?>
<!DOCTYPE svg PUBLIC "-//W3C//DTD SVG 1.1//EN"
  "http://www.w3.org/Graphics/SVG/1.1/DTD/svg11.dtd">
<svg xmlns:xlink="http://www.w3.org/1999/xlink" width="54.487969pt" height="43.181562pt" viewBox="0 0 54.487969 43.181562" xmlns="http://www.w3.org/2000/svg" version="1.1">
 <metadata>
  <rdf:RDF xmlns:dc="http://purl.org/dc/elements/1.1/" xmlns:cc="http://creativecommons.org/ns#" xmlns:rdf="http://www.w3.org/1999/02/22-rdf-syntax-ns#">
   <cc:Work>
    <dc:type rdf:resource="http://purl.org/dc/dcmitype/StillImage"/>
    <dc:date>2024-09-23T11:12:21.348442</dc:date>
    <dc:format>image/svg+xml</dc:format>
    <dc:creator>
     <cc:Agent>
      <dc:title>Matplotlib v3.9.0, https://matplotlib.org/</dc:title>
     </cc:Agent>
    </dc:creator>
   </cc:Work>
  </rdf:RDF>
 </metadata>
 <defs>
  <style type="text/css">*{stroke-linejoin: round; stroke-linecap: butt}</style>
 </defs>
 <g id="figure_1">
  <g id="patch_1">
   <path d="M -0 43.181562 
L 54.487969 43.181562 
L 54.487969 0 
L -0 0 
L -0 43.181562 
z
" style="fill: none"/>
  </g>
  <g id="axes_1">
   <g id="patch_2">
    <path d="M 7.633125 27.72 
L 49.483125 27.72 
L 49.483125 0 
L 7.633125 0 
L 7.633125 27.72 
z
" style="fill: none"/>
   </g>
   <g id="PolyCollection_1">
    <defs>
     <path id="m0057157b6c" d="M 7.633125 -16.721562 
L 7.633125 -17.00151 
L 7.675016 -17.006595 
L 7.716909 -17.011762 
L 7.7588 -17.017011 
L 7.800694 -17.022345 
L 7.842585 -17.027764 
L 7.884476 -17.033269 
L 7.926369 -17.038862 
L 7.96826 -17.044544 
L 8.010151 -17.050315 
L 8.052044 -17.056177 
L 8.093935 -17.062132 
L 8.135827 -17.06818 
L 8.17772 -17.074323 
L 8.21961 -17.080562 
L 8.261504 -17.086898 
L 8.303395 -17.093332 
L 8.345287 -17.099866 
L 8.387179 -17.106501 
L 8.42907 -17.113238 
L 8.470964 -17.12008 
L 8.512855 -17.127025 
L 8.554745 -17.134076 
L 8.596639 -17.141236 
L 8.63853 -17.148504 
L 8.680422 -17.155883 
L 8.722314 -17.163373 
L 8.764205 -17.170975 
L 8.806097 -17.178692 
L 8.847989 -17.186526 
L 8.88988 -17.194476 
L 8.931774 -17.202544 
L 8.973665 -17.210733 
L 9.015557 -17.219043 
L 9.057449 -17.227477 
L 9.09934 -17.236034 
L 9.141234 -17.244718 
L 9.183124 -17.253528 
L 9.225017 -17.262468 
L 9.266909 -17.271538 
L 9.3088 -17.28074 
L 9.350692 -17.290075 
L 9.392584 -17.299546 
L 9.434475 -17.309152 
L 9.476367 -17.318898 
L 9.518259 -17.328782 
L 9.560152 -17.338809 
L 9.602044 -17.348978 
L 9.643935 -17.359291 
L 9.685827 -17.369751 
L 9.727719 -17.380359 
L 9.769611 -17.391116 
L 9.811503 -17.402024 
L 9.853394 -17.413084 
L 9.895286 -17.4243 
L 9.93718 -17.435672 
L 9.979072 -17.447201 
L 10.020963 -17.45889 
L 10.062855 -17.47074 
L 10.104747 -17.482753 
L 10.146638 -17.494931 
L 10.188531 -17.507275 
L 10.230423 -17.519787 
L 10.272315 -17.53247 
L 10.314207 -17.545325 
L 10.356098 -17.558352 
L 10.39799 -17.571555 
L 10.439882 -17.584936 
L 10.481773 -17.598495 
L 10.523667 -17.612236 
L 10.565558 -17.626159 
L 10.60745 -17.640266 
L 10.649342 -17.65456 
L 10.691233 -17.669042 
L 10.733125 -17.683713 
L 10.775017 -17.698578 
L 10.816908 -17.713636 
L 10.858802 -17.728889 
L 10.900693 -17.744341 
L 10.942585 -17.759992 
L 10.984477 -17.775844 
L 11.026368 -17.791899 
L 11.068261 -17.808161 
L 11.110152 -17.824629 
L 11.152043 -17.841306 
L 11.193937 -17.858195 
L 11.235828 -17.875296 
L 11.27772 -17.892613 
L 11.319612 -17.910147 
L 11.361503 -17.9279 
L 11.403396 -17.945874 
L 11.445287 -17.96407 
L 11.487178 -17.982491 
L 11.529072 -18.001141 
L 11.570962 -18.020019 
L 11.612856 -18.039127 
L 11.654747 -18.058469 
L 11.696638 -18.078045 
L 11.738531 -18.097859 
L 11.780422 -18.117912 
L 11.822313 -18.138205 
L 11.864207 -18.158742 
L 11.906097 -18.179523 
L 11.947991 -18.200554 
L 11.989882 -18.221831 
L 12.031773 -18.243361 
L 12.073666 -18.265145 
L 12.115557 -18.287182 
L 12.157448 -18.309477 
L 12.199341 -18.332033 
L 12.241232 -18.354848 
L 12.283126 -18.37793 
L 12.325017 -18.401274 
L 12.366908 -18.424887 
L 12.408801 -18.44877 
L 12.450692 -18.472924 
L 12.492583 -18.497352 
L 12.534476 -18.522057 
L 12.576367 -18.547038 
L 12.618261 -18.5723 
L 12.660152 -18.597843 
L 12.702043 -18.62367 
L 12.743936 -18.649784 
L 12.785827 -18.676185 
L 12.827719 -18.702877 
L 12.869611 -18.72986 
L 12.911502 -18.757137 
L 12.953396 -18.784712 
L 12.995287 -18.812582 
L 13.037177 -18.840754 
L 13.079071 -18.869229 
L 13.120962 -18.898005 
L 13.162854 -18.92709 
L 13.204746 -18.956481 
L 13.246637 -18.986184 
L 13.288531 -19.016198 
L 13.330422 -19.046525 
L 13.372312 -19.077169 
L 13.414206 -19.10813 
L 13.456097 -19.139411 
L 13.497989 -19.171014 
L 13.539883 -19.202941 
L 13.581775 -19.235194 
L 13.623667 -19.267774 
L 13.665558 -19.300681 
L 13.70745 -19.333921 
L 13.749342 -19.367494 
L 13.791234 -19.401402 
L 13.833125 -19.435644 
L 13.875017 -19.470226 
L 13.91691 -19.50515 
L 13.958801 -19.540413 
L 14.000693 -19.576022 
L 14.042585 -19.611975 
L 14.084477 -19.648277 
L 14.126369 -19.684928 
L 14.16826 -19.721927 
L 14.210152 -19.759281 
L 14.252045 -19.796989 
L 14.293937 -19.835051 
L 14.335829 -19.873473 
L 14.37772 -19.912253 
L 14.419612 -19.951392 
L 14.461504 -19.990894 
L 14.503395 -20.03076 
L 14.545287 -20.070991 
L 14.58718 -20.111591 
L 14.62907 -20.152556 
L 14.670964 -20.193894 
L 14.712855 -20.2356 
L 14.754747 -20.277683 
L 14.796639 -20.320136 
L 14.83853 -20.362964 
L 14.880424 -20.406173 
L 14.922315 -20.449757 
L 14.964207 -20.493722 
L 15.006099 -20.538068 
L 15.04799 -20.582795 
L 15.089882 -20.627904 
L 15.131774 -20.6734 
L 15.173665 -20.71928 
L 15.215559 -20.765549 
L 15.257449 -20.812204 
L 15.29934 -20.859247 
L 15.341234 -20.906684 
L 15.383125 -20.954506 
L 15.425018 -21.002727 
L 15.466909 -21.051335 
L 15.5088 -21.100339 
L 15.550694 -21.149741 
L 15.592584 -21.199534 
L 15.634477 -21.249728 
L 15.676369 -21.300317 
L 15.71826 -21.351305 
L 15.760153 -21.402692 
L 15.802044 -21.454476 
L 15.843935 -21.506662 
L 15.885828 -21.55925 
L 15.927719 -21.61224 
L 15.96961 -21.665627 
L 16.011504 -21.719424 
L 16.053395 -21.773618 
L 16.095288 -21.828222 
L 16.137179 -21.883224 
L 16.17907 -21.93863 
L 16.220963 -21.994444 
L 16.262854 -22.050663 
L 16.304748 -22.107285 
L 16.346639 -22.164312 
L 16.38853 -22.221745 
L 16.430423 -22.279584 
L 16.472314 -22.337828 
L 16.514205 -22.396479 
L 16.556098 -22.455536 
L 16.597989 -22.514996 
L 16.63988 -22.574861 
L 16.681774 -22.635135 
L 16.723664 -22.695811 
L 16.765558 -22.756896 
L 16.807449 -22.818382 
L 16.84934 -22.880271 
L 16.891233 -22.942569 
L 16.933124 -23.005265 
L 16.975018 -23.068369 
L 17.016909 -23.131871 
L 17.058799 -23.195775 
L 17.100693 -23.260085 
L 17.142584 -23.324791 
L 17.184475 -23.389898 
L 17.226368 -23.455405 
L 17.268259 -23.521309 
L 17.310151 -23.58761 
L 17.352043 -23.654309 
L 17.393934 -23.7214 
L 17.435828 -23.788892 
L 17.477719 -23.856772 
L 17.51961 -23.925044 
L 17.561503 -23.99371 
L 17.603394 -24.062762 
L 17.645288 -24.132207 
L 17.687178 -24.202036 
L 17.72907 -24.272249 
L 17.770963 -24.342851 
L 17.812854 -24.41383 
L 17.854746 -24.485195 
L 17.896638 -24.556938 
L 17.93853 -24.629056 
L 17.980421 -24.701551 
L 18.022313 -24.774424 
L 18.064205 -24.847663 
L 18.106098 -24.921279 
L 18.147989 -24.995259 
L 18.189881 -25.069607 
L 18.231773 -25.14432 
L 18.273665 -25.219393 
L 18.315557 -25.294827 
L 18.357448 -25.370618 
L 18.39934 -25.446766 
L 18.441233 -25.523266 
L 18.483124 -25.600114 
L 18.525016 -25.677311 
L 18.566908 -25.754857 
L 18.608799 -25.832741 
L 18.650691 -25.910966 
L 18.692583 -25.989532 
L 18.734475 -26.06843 
L 18.776368 -26.147658 
L 18.818259 -26.227218 
L 18.860151 -26.3071 
L 18.902043 -26.387307 
L 18.943934 -26.467833 
L 18.985827 -26.548677 
L 19.027719 -26.629833 
L 19.06961 -26.711298 
L 19.111503 -26.79307 
L 19.153394 -26.875145 
L 19.195286 -26.957518 
L 19.237178 -27.040191 
L 19.279069 -27.123155 
L 19.320961 -27.206405 
L 19.362854 -27.289944 
L 19.404745 -27.373762 
L 19.446639 -27.457861 
L 19.48853 -27.542231 
L 19.530422 -27.626871 
L 19.572315 -27.711777 
L 19.614206 -27.796944 
L 19.656097 -27.882363 
L 19.69799 -27.968042 
L 19.739882 -28.053968 
L 19.781774 -28.140142 
L 19.823665 -28.22655 
L 19.865557 -28.313197 
L 19.90745 -28.400076 
L 19.949341 -28.487179 
L 19.991232 -28.574503 
L 20.033125 -28.662049 
L 20.075016 -28.749807 
L 20.116909 -28.837772 
L 20.158801 -28.92594 
L 20.200692 -29.014304 
L 20.242585 -29.102866 
L 20.284476 -29.19161 
L 20.326368 -29.280539 
L 20.36826 -29.369649 
L 20.410151 -29.458931 
L 20.452044 -29.548379 
L 20.493936 -29.63799 
L 20.535827 -29.727757 
L 20.57772 -29.817676 
L 20.619611 -29.907741 
L 20.661503 -29.997946 
L 20.703395 -30.088289 
L 20.745286 -30.178757 
L 20.787179 -30.269353 
L 20.829071 -30.360064 
L 20.870962 -30.450885 
L 20.912854 -30.541817 
L 20.954746 -30.632847 
L 20.996638 -30.72397 
L 21.03853 -30.815183 
L 21.080421 -30.906479 
L 21.122314 -30.997851 
L 21.164206 -31.089294 
L 21.206097 -31.180799 
L 21.247989 -31.272363 
L 21.289881 -31.36398 
L 21.331772 -31.455639 
L 21.373665 -31.547344 
L 21.415557 -31.639072 
L 21.457449 -31.730834 
L 21.499341 -31.822612 
L 21.541232 -31.914403 
L 21.583126 -32.006207 
L 21.625017 -32.098006 
L 21.666909 -32.189792 
L 21.708802 -32.281576 
L 21.750693 -32.373332 
L 21.792584 -32.465063 
L 21.834477 -32.556761 
L 21.876368 -32.648417 
L 21.918261 -32.740031 
L 21.960153 -32.831586 
L 22.002044 -32.92308 
L 22.043937 -33.014509 
L 22.085828 -33.105861 
L 22.127721 -33.19713 
L 22.169612 -33.288309 
L 22.211503 -33.379393 
L 22.253396 -33.470378 
L 22.295288 -33.561246 
L 22.337179 -33.651998 
L 22.379071 -33.742624 
L 22.420963 -33.833122 
L 22.462855 -33.923477 
L 22.504747 -34.013685 
L 22.546638 -34.103741 
L 22.588531 -34.193638 
L 22.630423 -34.283363 
L 22.672314 -34.372913 
L 22.714206 -34.462281 
L 22.756098 -34.551455 
L 22.797991 -34.640433 
L 22.839882 -34.729207 
L 22.881773 -34.817763 
L 22.923666 -34.906101 
L 22.965558 -34.994212 
L 23.007449 -35.08209 
L 23.049341 -35.16972 
L 23.091233 -35.257103 
L 23.133124 -35.344224 
L 23.175017 -35.431085 
L 23.216909 -35.517671 
L 23.258801 -35.603978 
L 23.300693 -35.689994 
L 23.342584 -35.775715 
L 23.384477 -35.861138 
L 23.426368 -35.946244 
L 23.468261 -36.031033 
L 23.510152 -36.115499 
L 23.552044 -36.199632 
L 23.593936 -36.28342 
L 23.635827 -36.366862 
L 23.677719 -36.44995 
L 23.719612 -36.532678 
L 23.761503 -36.615029 
L 23.803394 -36.696999 
L 23.845287 -36.778588 
L 23.887179 -36.859784 
L 23.929072 -36.940583 
L 23.970962 -37.020969 
L 24.012854 -37.100937 
L 24.054747 -37.18049 
L 24.096638 -37.259611 
L 24.138531 -37.338289 
L 24.180422 -37.416522 
L 24.222314 -37.494306 
L 24.264206 -37.571631 
L 24.306097 -37.648486 
L 24.347989 -37.724867 
L 24.389882 -37.800769 
L 24.431773 -37.876176 
L 24.473665 -37.951091 
L 24.515557 -38.025505 
L 24.557449 -38.099409 
L 24.599341 -38.172792 
L 24.641233 -38.245651 
L 24.683124 -38.317976 
L 24.725017 -38.389768 
L 24.766908 -38.461013 
L 24.808801 -38.531707 
L 24.850692 -38.601836 
L 24.892583 -38.6714 
L 24.934476 -38.740397 
L 24.976368 -38.808808 
L 25.018259 -38.876634 
L 25.060152 -38.943868 
L 25.102043 -39.010501 
L 25.143935 -39.076526 
L 25.185828 -39.141944 
L 25.227718 -39.206734 
L 25.269611 -39.270904 
L 25.311503 -39.334437 
L 25.353394 -39.397333 
L 25.395287 -39.459581 
L 25.437178 -39.521185 
L 25.479071 -39.582125 
L 25.520962 -39.642403 
L 25.562854 -39.702009 
L 25.604746 -39.760937 
L 25.646638 -39.819187 
L 25.688529 -39.876746 
L 25.730422 -39.933619 
L 25.772313 -39.98978 
L 25.814205 -40.045244 
L 25.856097 -40.099993 
L 25.897989 -40.154029 
L 25.939881 -40.20734 
L 25.981773 -40.259928 
L 26.023664 -40.311778 
L 26.065557 -40.362891 
L 26.107449 -40.413256 
L 26.149341 -40.462875 
L 26.191232 -40.511741 
L 26.233124 -40.559846 
L 26.275017 -40.607185 
L 26.316908 -40.653759 
L 26.358799 -40.699556 
L 26.400692 -40.744579 
L 26.442584 -40.788812 
L 26.484474 -40.832254 
L 26.526367 -40.874912 
L 26.568259 -40.916768 
L 26.610152 -40.957828 
L 26.652043 -40.998074 
L 26.693934 -41.037511 
L 26.735827 -41.076138 
L 26.777718 -41.113942 
L 26.819611 -41.150929 
L 26.861502 -41.187083 
L 26.903394 -41.222411 
L 26.945287 -41.256904 
L 26.987178 -41.290556 
L 27.029069 -41.323369 
L 27.070962 -41.355339 
L 27.112853 -41.386457 
L 27.154745 -41.416728 
L 27.196637 -41.446141 
L 27.238529 -41.474694 
L 27.280421 -41.502395 
L 27.322313 -41.529229 
L 27.364205 -41.555189 
L 27.406097 -41.580285 
L 27.447988 -41.604509 
L 27.489881 -41.627852 
L 27.531773 -41.650327 
L 27.573664 -41.671917 
L 27.615556 -41.692628 
L 27.657448 -41.712448 
L 27.69934 -41.731391 
L 27.741232 -41.749435 
L 27.783123 -41.766597 
L 27.825015 -41.782862 
L 27.866908 -41.79824 
L 27.908799 -41.812714 
L 27.950691 -41.826295 
L 27.992583 -41.838976 
L 28.034476 -41.850758 
L 28.076368 -41.861634 
L 28.11826 -41.871617 
L 28.160152 -41.88069 
L 28.202044 -41.888856 
L 28.243935 -41.896122 
L 28.285827 -41.902481 
L 28.327719 -41.907933 
L 28.369611 -41.912472 
L 28.411503 -41.916108 
L 28.453395 -41.918835 
L 28.495287 -41.920654 
L 28.537179 -41.921562 
L 28.57907 -41.921562 
L 28.620963 -41.920654 
L 28.662854 -41.918835 
L 28.704746 -41.916108 
L 28.746638 -41.912472 
L 28.78853 -41.907933 
L 28.830422 -41.902481 
L 28.872314 -41.896122 
L 28.914205 -41.888856 
L 28.956098 -41.88069 
L 28.997989 -41.871617 
L 29.039881 -41.861634 
L 29.081773 -41.850758 
L 29.123665 -41.838976 
L 29.165557 -41.826295 
L 29.207449 -41.812714 
L 29.24934 -41.79824 
L 29.291233 -41.782867 
L 29.333125 -41.766597 
L 29.375016 -41.74944 
L 29.416908 -41.731391 
L 29.4588 -41.712448 
L 29.500692 -41.692628 
L 29.542584 -41.671917 
L 29.584475 -41.650327 
L 29.626367 -41.627859 
L 29.66826 -41.604509 
L 29.710152 -41.580285 
L 29.752043 -41.555189 
L 29.793935 -41.529229 
L 29.835827 -41.502395 
L 29.877719 -41.474701 
L 29.91961 -41.446141 
L 29.961503 -41.416728 
L 30.003395 -41.386457 
L 30.045286 -41.355339 
L 30.087178 -41.323369 
L 30.12907 -41.290556 
L 30.170961 -41.256904 
L 30.212854 -41.222411 
L 30.254745 -41.187083 
L 30.296638 -41.150929 
L 30.33853 -41.113946 
L 30.380421 -41.076138 
L 30.422313 -41.037516 
L 30.464205 -40.998079 
L 30.506098 -40.957828 
L 30.547989 -40.916772 
L 30.58988 -40.874919 
L 30.631773 -40.832261 
L 30.673664 -40.788812 
L 30.715556 -40.744579 
L 30.757448 -40.699563 
L 30.79934 -40.653764 
L 30.841233 -40.607192 
L 30.883124 -40.559846 
L 30.925015 -40.511745 
L 30.966908 -40.46288 
L 31.008799 -40.413263 
L 31.050692 -40.362891 
L 31.092583 -40.311778 
L 31.134475 -40.259928 
L 31.176368 -40.20734 
L 31.218259 -40.154034 
L 31.260151 -40.099998 
L 31.302044 -40.045244 
L 31.343936 -39.989787 
L 31.385828 -39.933619 
L 31.427719 -39.876753 
L 31.469611 -39.819187 
L 31.511504 -39.760937 
L 31.553395 -39.702009 
L 31.595288 -39.642403 
L 31.637179 -39.582125 
L 31.679071 -39.521185 
L 31.720963 -39.459586 
L 31.762854 -39.397333 
L 31.804746 -39.334437 
L 31.846639 -39.270904 
L 31.88853 -39.206734 
L 31.930422 -39.141944 
L 31.972314 -39.07653 
L 32.014206 -39.010501 
L 32.056098 -38.943868 
L 32.097989 -38.876638 
L 32.139882 -38.808808 
L 32.181774 -38.740397 
L 32.223665 -38.671407 
L 32.265557 -38.60184 
L 32.307449 -38.531707 
L 32.34934 -38.461018 
L 32.391233 -38.389768 
L 32.433124 -38.31798 
L 32.475017 -38.245651 
L 32.516909 -38.172792 
L 32.5588 -38.099409 
L 32.600692 -38.025508 
L 32.642584 -37.951098 
L 32.684477 -37.876176 
L 32.726368 -37.800769 
L 32.768259 -37.724872 
L 32.810152 -37.648486 
L 32.852044 -37.571631 
L 32.893935 -37.494311 
L 32.935827 -37.416527 
L 32.977719 -37.338289 
L 33.019612 -37.259611 
L 33.061503 -37.18049 
L 33.103394 -37.100944 
L 33.145287 -37.020969 
L 33.187178 -36.940583 
L 33.22907 -36.859789 
L 33.270962 -36.778593 
L 33.312854 -36.697004 
L 33.354747 -36.615029 
L 33.396637 -36.532678 
L 33.438529 -36.449956 
L 33.480422 -36.366862 
L 33.522313 -36.28342 
L 33.564206 -36.199632 
L 33.606097 -36.115499 
L 33.647989 -36.031038 
L 33.689882 -35.946244 
L 33.731772 -35.861138 
L 33.773664 -35.77572 
L 33.815557 -35.689994 
L 33.857448 -35.603978 
L 33.899341 -35.517671 
L 33.941232 -35.431085 
L 33.983124 -35.344229 
L 34.025016 -35.257103 
L 34.066907 -35.169725 
L 34.1088 -35.08209 
L 34.150692 -34.994212 
L 34.192583 -34.906105 
L 34.234476 -34.817763 
L 34.276367 -34.729207 
L 34.318259 -34.640436 
L 34.360151 -34.551455 
L 34.402042 -34.462281 
L 34.443935 -34.372913 
L 34.485827 -34.283366 
L 34.527718 -34.193638 
L 34.569611 -34.103741 
L 34.611502 -34.013689 
L 34.653395 -33.923481 
L 34.695286 -33.833122 
L 34.737177 -33.742629 
L 34.77907 -33.652002 
L 34.820962 -33.561249 
L 34.862853 -33.470378 
L 34.904746 -33.379396 
L 34.946637 -33.288312 
L 34.98853 -33.19713 
L 35.030421 -33.105861 
L 35.072312 -33.014513 
L 35.114205 -32.923083 
L 35.156097 -32.831586 
L 35.197989 -32.740031 
L 35.239881 -32.648422 
L 35.281772 -32.556766 
L 35.323665 -32.465063 
L 35.365556 -32.373332 
L 35.407447 -32.28158 
L 35.44934 -32.189796 
L 35.491231 -32.098006 
L 35.533126 -32.006204 
L 35.575017 -31.914408 
L 35.616908 -31.822616 
L 35.658801 -31.730834 
L 35.700692 -31.639076 
L 35.742585 -31.547344 
L 35.784476 -31.455643 
L 35.826368 -31.36398 
L 35.868261 -31.272363 
L 35.910151 -31.180803 
L 35.952043 -31.089296 
L 35.993936 -30.997851 
L 36.035827 -30.906479 
L 36.07772 -30.815183 
L 36.119611 -30.723971 
L 36.161503 -30.632847 
L 36.203396 -30.541817 
L 36.245286 -30.450888 
L 36.287179 -30.360064 
L 36.329071 -30.269353 
L 36.370962 -30.178757 
L 36.412855 -30.088289 
L 36.454746 -29.997948 
L 36.496638 -29.907743 
L 36.53853 -29.817676 
L 36.580421 -29.72776 
L 36.622314 -29.63799 
L 36.664206 -29.548379 
L 36.706097 -29.458933 
L 36.747989 -29.369649 
L 36.789881 -29.280542 
L 36.831774 -29.19161 
L 36.873665 -29.102866 
L 36.915556 -29.014307 
L 36.957449 -28.92594 
L 36.999341 -28.837772 
L 37.041232 -28.749809 
L 37.083124 -28.662051 
L 37.125016 -28.574506 
L 37.166909 -28.487179 
L 37.2088 -28.400076 
L 37.250691 -28.313199 
L 37.292584 -28.226552 
L 37.334476 -28.140142 
L 37.376367 -28.05397 
L 37.418259 -27.968042 
L 37.460151 -27.882368 
L 37.502044 -27.796944 
L 37.543935 -27.711777 
L 37.585826 -27.626873 
L 37.627719 -27.542231 
L 37.669611 -27.457864 
L 37.711503 -27.373765 
L 37.753394 -27.289949 
L 37.795286 -27.206412 
L 37.837179 -27.123157 
L 37.87907 -27.040196 
L 37.920961 -26.957526 
L 37.962854 -26.87515 
L 38.004745 -26.793075 
L 38.046638 -26.7113 
L 38.088529 -26.629836 
L 38.130421 -26.548683 
L 38.172314 -26.467838 
L 38.214205 -26.387312 
L 38.256097 -26.307104 
L 38.297989 -26.22722 
L 38.33988 -26.147663 
L 38.381773 -26.068432 
L 38.423664 -25.989536 
L 38.465556 -25.910973 
L 38.507449 -25.832745 
L 38.549339 -25.754861 
L 38.591233 -25.677313 
L 38.633124 -25.600118 
L 38.675015 -25.52327 
L 38.716908 -25.446766 
L 38.758799 -25.370622 
L 38.800692 -25.294829 
L 38.842583 -25.219397 
L 38.884474 -25.144324 
L 38.926368 -25.069608 
L 38.968259 -24.995262 
L 39.01015 -24.921284 
L 39.052043 -24.847667 
L 39.093934 -24.774428 
L 39.135827 -24.701555 
L 39.177718 -24.62906 
L 39.219609 -24.556943 
L 39.261503 -24.485196 
L 39.303394 -24.413836 
L 39.345287 -24.342852 
L 39.387178 -24.272253 
L 39.429069 -24.202039 
L 39.470962 -24.132209 
L 39.512853 -24.062767 
L 39.554744 -23.993713 
L 39.596638 -23.925048 
L 39.638529 -23.856775 
L 39.680421 -23.788894 
L 39.722313 -23.721405 
L 39.764204 -23.654314 
L 39.806097 -23.587612 
L 39.84799 -23.52131 
L 39.889882 -23.455405 
L 39.931773 -23.389901 
L 39.973665 -23.324791 
L 40.015557 -23.260085 
L 40.057449 -23.195777 
L 40.09934 -23.131872 
L 40.141232 -23.068369 
L 40.183125 -23.005267 
L 40.225017 -22.942569 
L 40.266908 -22.880274 
L 40.3088 -22.818383 
L 40.350692 -22.756896 
L 40.392584 -22.695814 
L 40.434476 -22.635135 
L 40.476367 -22.574865 
L 40.518259 -22.514998 
L 40.560152 -22.455536 
L 40.602043 -22.396482 
L 40.643935 -22.337831 
L 40.685827 -22.279584 
L 40.727719 -22.221745 
L 40.769611 -22.164312 
L 40.811502 -22.107285 
L 40.853394 -22.050663 
L 40.895287 -21.994444 
L 40.937177 -21.938632 
L 40.97907 -21.883224 
L 41.020962 -21.828222 
L 41.062854 -21.77362 
L 41.104746 -21.719424 
L 41.146637 -21.665632 
L 41.188529 -21.61224 
L 41.230422 -21.55925 
L 41.272312 -21.506664 
L 41.314206 -21.454476 
L 41.356097 -21.402692 
L 41.397989 -21.351305 
L 41.439881 -21.300317 
L 41.481772 -21.24973 
L 41.523664 -21.199536 
L 41.565556 -21.149741 
L 41.607447 -21.100343 
L 41.649341 -21.051335 
L 41.691232 -21.002727 
L 41.733124 -20.954508 
L 41.775016 -20.906684 
L 41.816907 -20.859249 
L 41.858801 -20.812204 
L 41.900691 -20.765549 
L 41.942582 -20.719284 
L 41.984476 -20.6734 
L 42.026367 -20.627907 
L 42.068259 -20.582795 
L 42.110151 -20.538068 
L 42.152042 -20.493723 
L 42.193935 -20.449757 
L 42.235826 -20.406173 
L 42.277717 -20.362968 
L 42.319611 -20.320136 
L 42.361502 -20.277683 
L 42.403395 -20.2356 
L 42.445286 -20.193894 
L 42.487177 -20.152558 
L 42.52907 -20.111591 
L 42.570961 -20.070994 
L 42.612852 -20.030763 
L 42.654746 -19.990894 
L 42.696637 -19.951394 
L 42.73853 -19.912253 
L 42.780421 -19.873473 
L 42.822312 -19.835053 
L 42.864205 -19.796989 
L 42.906096 -19.759281 
L 42.94799 -19.721927 
L 42.989881 -19.684928 
L 43.031772 -19.648279 
L 43.073665 -19.611975 
L 43.115556 -19.576022 
L 43.157447 -19.540416 
L 43.19934 -19.50515 
L 43.241231 -19.470228 
L 43.283125 -19.435644 
L 43.325016 -19.401402 
L 43.366906 -19.367494 
L 43.4088 -19.333921 
L 43.450691 -19.300682 
L 43.492584 -19.267771 
L 43.534475 -19.235194 
L 43.576366 -19.202944 
L 43.61826 -19.171014 
L 43.660151 -19.139413 
L 43.702041 -19.108132 
L 43.743935 -19.077169 
L 43.785826 -19.046528 
L 43.827719 -19.016198 
L 43.86961 -18.986185 
L 43.911501 -18.956483 
L 43.953395 -18.92709 
L 43.995285 -18.898007 
L 44.037178 -18.86923 
L 44.07907 -18.840756 
L 44.120962 -18.812584 
L 44.162854 -18.784712 
L 44.204746 -18.757137 
L 44.246637 -18.729861 
L 44.28853 -18.702877 
L 44.330422 -18.676185 
L 44.372314 -18.649784 
L 44.414206 -18.623671 
L 44.456097 -18.597844 
L 44.497989 -18.5723 
L 44.539881 -18.547039 
L 44.581774 -18.522057 
L 44.623664 -18.497353 
L 44.665557 -18.472925 
L 44.707449 -18.44877 
L 44.749341 -18.424887 
L 44.791232 -18.401275 
L 44.833124 -18.37793 
L 44.875016 -18.35485 
L 44.916909 -18.332033 
L 44.958799 -18.309478 
L 45.000692 -18.287183 
L 45.042584 -18.265145 
L 45.084476 -18.243361 
L 45.126367 -18.221833 
L 45.168259 -18.200554 
L 45.210151 -18.179525 
L 45.252043 -18.158742 
L 45.293934 -18.138206 
L 45.335827 -18.117912 
L 45.377719 -18.097859 
L 45.419611 -18.078045 
L 45.461503 -18.058469 
L 45.503394 -18.039127 
L 45.545286 -18.020019 
L 45.587178 -18.001141 
L 45.629069 -17.982492 
L 45.670961 -17.964071 
L 45.712854 -17.945874 
L 45.754746 -17.9279 
L 45.796638 -17.910147 
L 45.838529 -17.892613 
L 45.880421 -17.875297 
L 45.922313 -17.858195 
L 45.964204 -17.841307 
L 46.006098 -17.824629 
L 46.047989 -17.808161 
L 46.089881 -17.7919 
L 46.131773 -17.775844 
L 46.173664 -17.759992 
L 46.215556 -17.744341 
L 46.257448 -17.728889 
L 46.299339 -17.713637 
L 46.341233 -17.698578 
L 46.383124 -17.683714 
L 46.425016 -17.669042 
L 46.466908 -17.65456 
L 46.508799 -17.640266 
L 46.550692 -17.626159 
L 46.592583 -17.612236 
L 46.634474 -17.598496 
L 46.676368 -17.584936 
L 46.718258 -17.571556 
L 46.760151 -17.558353 
L 46.802043 -17.545325 
L 46.843934 -17.532471 
L 46.885827 -17.519787 
L 46.927718 -17.507275 
L 46.96961 -17.494931 
L 47.011503 -17.482753 
L 47.053393 -17.47074 
L 47.095287 -17.45889 
L 47.137178 -17.447201 
L 47.179069 -17.435672 
L 47.220962 -17.4243 
L 47.262853 -17.413085 
L 47.304745 -17.402025 
L 47.346637 -17.391116 
L 47.388528 -17.380359 
L 47.430422 -17.369752 
L 47.472313 -17.359292 
L 47.514204 -17.348979 
L 47.556097 -17.338809 
L 47.597988 -17.328783 
L 47.639882 -17.318898 
L 47.681772 -17.309153 
L 47.723663 -17.299546 
L 47.765557 -17.290076 
L 47.807448 -17.28074 
L 47.849339 -17.271539 
L 47.891232 -17.262468 
L 47.933123 -17.253529 
L 47.975016 -17.244718 
L 48.016907 -17.236034 
L 48.058798 -17.227477 
L 48.100692 -17.219044 
L 48.142583 -17.210733 
L 48.184475 -17.202545 
L 48.226367 -17.194476 
L 48.268258 -17.186526 
L 48.310151 -17.178693 
L 48.352042 -17.170976 
L 48.393934 -17.163373 
L 48.435828 -17.155883 
L 48.477719 -17.148504 
L 48.519611 -17.141236 
L 48.561503 -17.134077 
L 48.603394 -17.127025 
L 48.645286 -17.12008 
L 48.687179 -17.113239 
L 48.729069 -17.106502 
L 48.770963 -17.099866 
L 48.812854 -17.093333 
L 48.854746 -17.086898 
L 48.896638 -17.080562 
L 48.938529 -17.074323 
L 48.980421 -17.068181 
L 49.022313 -17.062132 
L 49.064206 -17.056177 
L 49.106098 -17.050315 
L 49.147989 -17.044544 
L 49.189881 -17.038862 
L 49.231773 -17.033269 
L 49.273664 -17.027764 
L 49.315556 -17.022345 
L 49.357448 -17.017011 
L 49.399341 -17.011762 
L 49.441233 -17.006595 
L 49.483125 -17.00151 
L 49.483125 -16.721562 
L 49.483125 -16.721562 
L 49.441233 -16.721562 
L 49.399341 -16.721562 
L 49.357448 -16.721562 
L 49.315556 -16.721562 
L 49.273664 -16.721562 
L 49.231773 -16.721562 
L 49.189881 -16.721562 
L 49.147989 -16.721562 
L 49.106098 -16.721562 
L 49.064206 -16.721562 
L 49.022313 -16.721562 
L 48.980421 -16.721562 
L 48.938529 -16.721562 
L 48.896638 -16.721562 
L 48.854746 -16.721562 
L 48.812854 -16.721562 
L 48.770963 -16.721562 
L 48.729069 -16.721562 
L 48.687179 -16.721562 
L 48.645286 -16.721562 
L 48.603394 -16.721562 
L 48.561503 -16.721562 
L 48.519611 -16.721562 
L 48.477719 -16.721562 
L 48.435828 -16.721562 
L 48.393934 -16.721562 
L 48.352042 -16.721562 
L 48.310151 -16.721562 
L 48.268258 -16.721562 
L 48.226367 -16.721562 
L 48.184475 -16.721562 
L 48.142583 -16.721562 
L 48.100692 -16.721562 
L 48.058798 -16.721562 
L 48.016907 -16.721562 
L 47.975016 -16.721562 
L 47.933123 -16.721562 
L 47.891232 -16.721562 
L 47.849339 -16.721562 
L 47.807448 -16.721562 
L 47.765557 -16.721562 
L 47.723663 -16.721562 
L 47.681772 -16.721562 
L 47.639882 -16.721562 
L 47.597988 -16.721562 
L 47.556097 -16.721562 
L 47.514204 -16.721562 
L 47.472313 -16.721562 
L 47.430422 -16.721562 
L 47.388528 -16.721562 
L 47.346637 -16.721562 
L 47.304745 -16.721562 
L 47.262853 -16.721562 
L 47.220962 -16.721562 
L 47.179069 -16.721562 
L 47.137178 -16.721562 
L 47.095287 -16.721562 
L 47.053393 -16.721562 
L 47.011503 -16.721562 
L 46.96961 -16.721562 
L 46.927718 -16.721562 
L 46.885827 -16.721562 
L 46.843934 -16.721562 
L 46.802043 -16.721562 
L 46.760151 -16.721562 
L 46.718258 -16.721562 
L 46.676368 -16.721562 
L 46.634474 -16.721562 
L 46.592583 -16.721562 
L 46.550692 -16.721562 
L 46.508799 -16.721562 
L 46.466908 -16.721562 
L 46.425016 -16.721562 
L 46.383124 -16.721562 
L 46.341233 -16.721562 
L 46.299339 -16.721562 
L 46.257448 -16.721562 
L 46.215556 -16.721562 
L 46.173664 -16.721562 
L 46.131773 -16.721562 
L 46.089881 -16.721562 
L 46.047989 -16.721562 
L 46.006098 -16.721562 
L 45.964204 -16.721562 
L 45.922313 -16.721562 
L 45.880421 -16.721562 
L 45.838529 -16.721562 
L 45.796638 -16.721562 
L 45.754746 -16.721562 
L 45.712854 -16.721562 
L 45.670961 -16.721562 
L 45.629069 -16.721562 
L 45.587178 -16.721562 
L 45.545286 -16.721562 
L 45.503394 -16.721562 
L 45.461503 -16.721562 
L 45.419611 -16.721562 
L 45.377719 -16.721562 
L 45.335827 -16.721562 
L 45.293934 -16.721562 
L 45.252043 -16.721562 
L 45.210151 -16.721562 
L 45.168259 -16.721562 
L 45.126367 -16.721562 
L 45.084476 -16.721562 
L 45.042584 -16.721562 
L 45.000692 -16.721562 
L 44.958799 -16.721562 
L 44.916909 -16.721562 
L 44.875016 -16.721562 
L 44.833124 -16.721562 
L 44.791232 -16.721562 
L 44.749341 -16.721562 
L 44.707449 -16.721562 
L 44.665557 -16.721562 
L 44.623664 -16.721562 
L 44.581774 -16.721562 
L 44.539881 -16.721562 
L 44.497989 -16.721562 
L 44.456097 -16.721562 
L 44.414206 -16.721562 
L 44.372314 -16.721562 
L 44.330422 -16.721562 
L 44.28853 -16.721562 
L 44.246637 -16.721562 
L 44.204746 -16.721562 
L 44.162854 -16.721562 
L 44.120962 -16.721562 
L 44.07907 -16.721562 
L 44.037178 -16.721562 
L 43.995285 -16.721562 
L 43.953395 -16.721562 
L 43.911501 -16.721562 
L 43.86961 -16.721562 
L 43.827719 -16.721562 
L 43.785826 -16.721562 
L 43.743935 -16.721562 
L 43.702041 -16.721562 
L 43.660151 -16.721562 
L 43.61826 -16.721562 
L 43.576366 -16.721562 
L 43.534475 -16.721562 
L 43.492584 -16.721562 
L 43.450691 -16.721562 
L 43.4088 -16.721562 
L 43.366906 -16.721562 
L 43.325016 -16.721562 
L 43.283125 -16.721562 
L 43.241231 -16.721562 
L 43.19934 -16.721562 
L 43.157447 -16.721562 
L 43.115556 -16.721562 
L 43.073665 -16.721562 
L 43.031772 -16.721562 
L 42.989881 -16.721562 
L 42.94799 -16.721562 
L 42.906096 -16.721562 
L 42.864205 -16.721562 
L 42.822312 -16.721562 
L 42.780421 -16.721562 
L 42.73853 -16.721562 
L 42.696637 -16.721562 
L 42.654746 -16.721562 
L 42.612852 -16.721562 
L 42.570961 -16.721562 
L 42.52907 -16.721562 
L 42.487177 -16.721562 
L 42.445286 -16.721562 
L 42.403395 -16.721562 
L 42.361502 -16.721562 
L 42.319611 -16.721562 
L 42.277717 -16.721562 
L 42.235826 -16.721562 
L 42.193935 -16.721562 
L 42.152042 -16.721562 
L 42.110151 -16.721562 
L 42.068259 -16.721562 
L 42.026367 -16.721562 
L 41.984476 -16.721562 
L 41.942582 -16.721562 
L 41.900691 -16.721562 
L 41.858801 -16.721562 
L 41.816907 -16.721562 
L 41.775016 -16.721562 
L 41.733124 -16.721562 
L 41.691232 -16.721562 
L 41.649341 -16.721562 
L 41.607447 -16.721562 
L 41.565556 -16.721562 
L 41.523664 -16.721562 
L 41.481772 -16.721562 
L 41.439881 -16.721562 
L 41.397989 -16.721562 
L 41.356097 -16.721562 
L 41.314206 -16.721562 
L 41.272312 -16.721562 
L 41.230422 -16.721562 
L 41.188529 -16.721562 
L 41.146637 -16.721562 
L 41.104746 -16.721562 
L 41.062854 -16.721562 
L 41.020962 -16.721562 
L 40.97907 -16.721562 
L 40.937177 -16.721562 
L 40.895287 -16.721562 
L 40.853394 -16.721562 
L 40.811502 -16.721562 
L 40.769611 -16.721562 
L 40.727719 -16.721562 
L 40.685827 -16.721562 
L 40.643935 -16.721562 
L 40.602043 -16.721562 
L 40.560152 -16.721562 
L 40.518259 -16.721562 
L 40.476367 -16.721562 
L 40.434476 -16.721562 
L 40.392584 -16.721562 
L 40.350692 -16.721562 
L 40.3088 -16.721562 
L 40.266908 -16.721562 
L 40.225017 -16.721562 
L 40.183125 -16.721562 
L 40.141232 -16.721562 
L 40.09934 -16.721562 
L 40.057449 -16.721562 
L 40.015557 -16.721562 
L 39.973665 -16.721562 
L 39.931773 -16.721562 
L 39.889882 -16.721562 
L 39.84799 -16.721562 
L 39.806097 -16.721562 
L 39.764204 -16.721562 
L 39.722313 -16.721562 
L 39.680421 -16.721562 
L 39.638529 -16.721562 
L 39.596638 -16.721562 
L 39.554744 -16.721562 
L 39.512853 -16.721562 
L 39.470962 -16.721562 
L 39.429069 -16.721562 
L 39.387178 -16.721562 
L 39.345287 -16.721562 
L 39.303394 -16.721562 
L 39.261503 -16.721562 
L 39.219609 -16.721562 
L 39.177718 -16.721562 
L 39.135827 -16.721562 
L 39.093934 -16.721562 
L 39.052043 -16.721562 
L 39.01015 -16.721562 
L 38.968259 -16.721562 
L 38.926368 -16.721562 
L 38.884474 -16.721562 
L 38.842583 -16.721562 
L 38.800692 -16.721562 
L 38.758799 -16.721562 
L 38.716908 -16.721562 
L 38.675015 -16.721562 
L 38.633124 -16.721562 
L 38.591233 -16.721562 
L 38.549339 -16.721562 
L 38.507449 -16.721562 
L 38.465556 -16.721562 
L 38.423664 -16.721562 
L 38.381773 -16.721562 
L 38.33988 -16.721562 
L 38.297989 -16.721562 
L 38.256097 -16.721562 
L 38.214205 -16.721562 
L 38.172314 -16.721562 
L 38.130421 -16.721562 
L 38.088529 -16.721562 
L 38.046638 -16.721562 
L 38.004745 -16.721562 
L 37.962854 -16.721562 
L 37.920961 -16.721562 
L 37.87907 -16.721562 
L 37.837179 -16.721562 
L 37.795286 -16.721562 
L 37.753394 -16.721562 
L 37.711503 -16.721562 
L 37.669611 -16.721562 
L 37.627719 -16.721562 
L 37.585826 -16.721562 
L 37.543935 -16.721562 
L 37.502044 -16.721562 
L 37.460151 -16.721562 
L 37.418259 -16.721562 
L 37.376367 -16.721562 
L 37.334476 -16.721562 
L 37.292584 -16.721562 
L 37.250691 -16.721562 
L 37.2088 -16.721562 
L 37.166909 -16.721562 
L 37.125016 -16.721562 
L 37.083124 -16.721562 
L 37.041232 -16.721562 
L 36.999341 -16.721562 
L 36.957449 -16.721562 
L 36.915556 -16.721562 
L 36.873665 -16.721562 
L 36.831774 -16.721562 
L 36.789881 -16.721562 
L 36.747989 -16.721562 
L 36.706097 -16.721562 
L 36.664206 -16.721562 
L 36.622314 -16.721562 
L 36.580421 -16.721562 
L 36.53853 -16.721562 
L 36.496638 -16.721562 
L 36.454746 -16.721562 
L 36.412855 -16.721562 
L 36.370962 -16.721562 
L 36.329071 -16.721562 
L 36.287179 -16.721562 
L 36.245286 -16.721562 
L 36.203396 -16.721562 
L 36.161503 -16.721562 
L 36.119611 -16.721562 
L 36.07772 -16.721562 
L 36.035827 -16.721562 
L 35.993936 -16.721562 
L 35.952043 -16.721562 
L 35.910151 -16.721562 
L 35.868261 -16.721562 
L 35.826368 -16.721562 
L 35.784476 -16.721562 
L 35.742585 -16.721562 
L 35.700692 -16.721562 
L 35.658801 -16.721562 
L 35.616908 -16.721562 
L 35.575017 -16.721562 
L 35.533126 -16.721562 
L 35.491231 -16.721562 
L 35.44934 -16.721562 
L 35.407447 -16.721562 
L 35.365556 -16.721562 
L 35.323665 -16.721562 
L 35.281772 -16.721562 
L 35.239881 -16.721562 
L 35.197989 -16.721562 
L 35.156097 -16.721562 
L 35.114205 -16.721562 
L 35.072312 -16.721562 
L 35.030421 -16.721562 
L 34.98853 -16.721562 
L 34.946637 -16.721562 
L 34.904746 -16.721562 
L 34.862853 -16.721562 
L 34.820962 -16.721562 
L 34.77907 -16.721562 
L 34.737177 -16.721562 
L 34.695286 -16.721562 
L 34.653395 -16.721562 
L 34.611502 -16.721562 
L 34.569611 -16.721562 
L 34.527718 -16.721562 
L 34.485827 -16.721562 
L 34.443935 -16.721562 
L 34.402042 -16.721562 
L 34.360151 -16.721562 
L 34.318259 -16.721562 
L 34.276367 -16.721562 
L 34.234476 -16.721562 
L 34.192583 -16.721562 
L 34.150692 -16.721562 
L 34.1088 -16.721562 
L 34.066907 -16.721562 
L 34.025016 -16.721562 
L 33.983124 -16.721562 
L 33.941232 -16.721562 
L 33.899341 -16.721562 
L 33.857448 -16.721562 
L 33.815557 -16.721562 
L 33.773664 -16.721562 
L 33.731772 -16.721562 
L 33.689882 -16.721562 
L 33.647989 -16.721562 
L 33.606097 -16.721562 
L 33.564206 -16.721562 
L 33.522313 -16.721562 
L 33.480422 -16.721562 
L 33.438529 -16.721562 
L 33.396637 -16.721562 
L 33.354747 -16.721562 
L 33.312854 -16.721562 
L 33.270962 -16.721562 
L 33.22907 -16.721562 
L 33.187178 -16.721562 
L 33.145287 -16.721562 
L 33.103394 -16.721562 
L 33.061503 -16.721562 
L 33.019612 -16.721562 
L 32.977719 -16.721562 
L 32.935827 -16.721562 
L 32.893935 -16.721562 
L 32.852044 -16.721562 
L 32.810152 -16.721562 
L 32.768259 -16.721562 
L 32.726368 -16.721562 
L 32.684477 -16.721562 
L 32.642584 -16.721562 
L 32.600692 -16.721562 
L 32.5588 -16.721562 
L 32.516909 -16.721562 
L 32.475017 -16.721562 
L 32.433124 -16.721562 
L 32.391233 -16.721562 
L 32.34934 -16.721562 
L 32.307449 -16.721562 
L 32.265557 -16.721562 
L 32.223665 -16.721562 
L 32.181774 -16.721562 
L 32.139882 -16.721562 
L 32.097989 -16.721562 
L 32.056098 -16.721562 
L 32.014206 -16.721562 
L 31.972314 -16.721562 
L 31.930422 -16.721562 
L 31.88853 -16.721562 
L 31.846639 -16.721562 
L 31.804746 -16.721562 
L 31.762854 -16.721562 
L 31.720963 -16.721562 
L 31.679071 -16.721562 
L 31.637179 -16.721562 
L 31.595288 -16.721562 
L 31.553395 -16.721562 
L 31.511504 -16.721562 
L 31.469611 -16.721562 
L 31.427719 -16.721562 
L 31.385828 -16.721562 
L 31.343936 -16.721562 
L 31.302044 -16.721562 
L 31.260151 -16.721562 
L 31.218259 -16.721562 
L 31.176368 -16.721562 
L 31.134475 -16.721562 
L 31.092583 -16.721562 
L 31.050692 -16.721562 
L 31.008799 -16.721562 
L 30.966908 -16.721562 
L 30.925015 -16.721562 
L 30.883124 -16.721562 
L 30.841233 -16.721562 
L 30.79934 -16.721562 
L 30.757448 -16.721562 
L 30.715556 -16.721562 
L 30.673664 -16.721562 
L 30.631773 -16.721562 
L 30.58988 -16.721562 
L 30.547989 -16.721562 
L 30.506098 -16.721562 
L 30.464205 -16.721562 
L 30.422313 -16.721562 
L 30.380421 -16.721562 
L 30.33853 -16.721562 
L 30.296638 -16.721562 
L 30.254745 -16.721562 
L 30.212854 -16.721562 
L 30.170961 -16.721562 
L 30.12907 -16.721562 
L 30.087178 -16.721562 
L 30.045286 -16.721562 
L 30.003395 -16.721562 
L 29.961503 -16.721562 
L 29.91961 -16.721562 
L 29.877719 -16.721562 
L 29.835827 -16.721562 
L 29.793935 -16.721562 
L 29.752043 -16.721562 
L 29.710152 -16.721562 
L 29.66826 -16.721562 
L 29.626367 -16.721562 
L 29.584475 -16.721562 
L 29.542584 -16.721562 
L 29.500692 -16.721562 
L 29.4588 -16.721562 
L 29.416908 -16.721562 
L 29.375016 -16.721562 
L 29.333125 -16.721562 
L 29.291233 -16.721562 
L 29.24934 -16.721562 
L 29.207449 -16.721562 
L 29.165557 -16.721562 
L 29.123665 -16.721562 
L 29.081773 -16.721562 
L 29.039881 -16.721562 
L 28.997989 -16.721562 
L 28.956098 -16.721562 
L 28.914205 -16.721562 
L 28.872314 -16.721562 
L 28.830422 -16.721562 
L 28.78853 -16.721562 
L 28.746638 -16.721562 
L 28.704746 -16.721562 
L 28.662854 -16.721562 
L 28.620963 -16.721562 
L 28.57907 -16.721562 
L 28.537179 -16.721562 
L 28.495287 -16.721562 
L 28.453395 -16.721562 
L 28.411503 -16.721562 
L 28.369611 -16.721562 
L 28.327719 -16.721562 
L 28.285827 -16.721562 
L 28.243935 -16.721562 
L 28.202044 -16.721562 
L 28.160152 -16.721562 
L 28.11826 -16.721562 
L 28.076368 -16.721562 
L 28.034476 -16.721562 
L 27.992583 -16.721562 
L 27.950691 -16.721562 
L 27.908799 -16.721562 
L 27.866908 -16.721562 
L 27.825015 -16.721562 
L 27.783123 -16.721562 
L 27.741232 -16.721562 
L 27.69934 -16.721562 
L 27.657448 -16.721562 
L 27.615556 -16.721562 
L 27.573664 -16.721562 
L 27.531773 -16.721562 
L 27.489881 -16.721562 
L 27.447988 -16.721562 
L 27.406097 -16.721562 
L 27.364205 -16.721562 
L 27.322313 -16.721562 
L 27.280421 -16.721562 
L 27.238529 -16.721562 
L 27.196637 -16.721562 
L 27.154745 -16.721562 
L 27.112853 -16.721562 
L 27.070962 -16.721562 
L 27.029069 -16.721562 
L 26.987178 -16.721562 
L 26.945287 -16.721562 
L 26.903394 -16.721562 
L 26.861502 -16.721562 
L 26.819611 -16.721562 
L 26.777718 -16.721562 
L 26.735827 -16.721562 
L 26.693934 -16.721562 
L 26.652043 -16.721562 
L 26.610152 -16.721562 
L 26.568259 -16.721562 
L 26.526367 -16.721562 
L 26.484474 -16.721562 
L 26.442584 -16.721562 
L 26.400692 -16.721562 
L 26.358799 -16.721562 
L 26.316908 -16.721562 
L 26.275017 -16.721562 
L 26.233124 -16.721562 
L 26.191232 -16.721562 
L 26.149341 -16.721562 
L 26.107449 -16.721562 
L 26.065557 -16.721562 
L 26.023664 -16.721562 
L 25.981773 -16.721562 
L 25.939881 -16.721562 
L 25.897989 -16.721562 
L 25.856097 -16.721562 
L 25.814205 -16.721562 
L 25.772313 -16.721562 
L 25.730422 -16.721562 
L 25.688529 -16.721562 
L 25.646638 -16.721562 
L 25.604746 -16.721562 
L 25.562854 -16.721562 
L 25.520962 -16.721562 
L 25.479071 -16.721562 
L 25.437178 -16.721562 
L 25.395287 -16.721562 
L 25.353394 -16.721562 
L 25.311503 -16.721562 
L 25.269611 -16.721562 
L 25.227718 -16.721562 
L 25.185828 -16.721562 
L 25.143935 -16.721562 
L 25.102043 -16.721562 
L 25.060152 -16.721562 
L 25.018259 -16.721562 
L 24.976368 -16.721562 
L 24.934476 -16.721562 
L 24.892583 -16.721562 
L 24.850692 -16.721562 
L 24.808801 -16.721562 
L 24.766908 -16.721562 
L 24.725017 -16.721562 
L 24.683124 -16.721562 
L 24.641233 -16.721562 
L 24.599341 -16.721562 
L 24.557449 -16.721562 
L 24.515557 -16.721562 
L 24.473665 -16.721562 
L 24.431773 -16.721562 
L 24.389882 -16.721562 
L 24.347989 -16.721562 
L 24.306097 -16.721562 
L 24.264206 -16.721562 
L 24.222314 -16.721562 
L 24.180422 -16.721562 
L 24.138531 -16.721562 
L 24.096638 -16.721562 
L 24.054747 -16.721562 
L 24.012854 -16.721562 
L 23.970962 -16.721562 
L 23.929072 -16.721562 
L 23.887179 -16.721562 
L 23.845287 -16.721562 
L 23.803394 -16.721562 
L 23.761503 -16.721562 
L 23.719612 -16.721562 
L 23.677719 -16.721562 
L 23.635827 -16.721562 
L 23.593936 -16.721562 
L 23.552044 -16.721562 
L 23.510152 -16.721562 
L 23.468261 -16.721562 
L 23.426368 -16.721562 
L 23.384477 -16.721562 
L 23.342584 -16.721562 
L 23.300693 -16.721562 
L 23.258801 -16.721562 
L 23.216909 -16.721562 
L 23.175017 -16.721562 
L 23.133124 -16.721562 
L 23.091233 -16.721562 
L 23.049341 -16.721562 
L 23.007449 -16.721562 
L 22.965558 -16.721562 
L 22.923666 -16.721562 
L 22.881773 -16.721562 
L 22.839882 -16.721562 
L 22.797991 -16.721562 
L 22.756098 -16.721562 
L 22.714206 -16.721562 
L 22.672314 -16.721562 
L 22.630423 -16.721562 
L 22.588531 -16.721562 
L 22.546638 -16.721562 
L 22.504747 -16.721562 
L 22.462855 -16.721562 
L 22.420963 -16.721562 
L 22.379071 -16.721562 
L 22.337179 -16.721562 
L 22.295288 -16.721562 
L 22.253396 -16.721562 
L 22.211503 -16.721562 
L 22.169612 -16.721562 
L 22.127721 -16.721562 
L 22.085828 -16.721562 
L 22.043937 -16.721562 
L 22.002044 -16.721562 
L 21.960153 -16.721562 
L 21.918261 -16.721562 
L 21.876368 -16.721562 
L 21.834477 -16.721562 
L 21.792584 -16.721562 
L 21.750693 -16.721562 
L 21.708802 -16.721562 
L 21.666909 -16.721562 
L 21.625017 -16.721562 
L 21.583126 -16.721562 
L 21.541232 -16.721562 
L 21.499341 -16.721562 
L 21.457449 -16.721562 
L 21.415557 -16.721562 
L 21.373665 -16.721562 
L 21.331772 -16.721562 
L 21.289881 -16.721562 
L 21.247989 -16.721562 
L 21.206097 -16.721562 
L 21.164206 -16.721562 
L 21.122314 -16.721562 
L 21.080421 -16.721562 
L 21.03853 -16.721562 
L 20.996638 -16.721562 
L 20.954746 -16.721562 
L 20.912854 -16.721562 
L 20.870962 -16.721562 
L 20.829071 -16.721562 
L 20.787179 -16.721562 
L 20.745286 -16.721562 
L 20.703395 -16.721562 
L 20.661503 -16.721562 
L 20.619611 -16.721562 
L 20.57772 -16.721562 
L 20.535827 -16.721562 
L 20.493936 -16.721562 
L 20.452044 -16.721562 
L 20.410151 -16.721562 
L 20.36826 -16.721562 
L 20.326368 -16.721562 
L 20.284476 -16.721562 
L 20.242585 -16.721562 
L 20.200692 -16.721562 
L 20.158801 -16.721562 
L 20.116909 -16.721562 
L 20.075016 -16.721562 
L 20.033125 -16.721562 
L 19.991232 -16.721562 
L 19.949341 -16.721562 
L 19.90745 -16.721562 
L 19.865557 -16.721562 
L 19.823665 -16.721562 
L 19.781774 -16.721562 
L 19.739882 -16.721562 
L 19.69799 -16.721562 
L 19.656097 -16.721562 
L 19.614206 -16.721562 
L 19.572315 -16.721562 
L 19.530422 -16.721562 
L 19.48853 -16.721562 
L 19.446639 -16.721562 
L 19.404745 -16.721562 
L 19.362854 -16.721562 
L 19.320961 -16.721562 
L 19.279069 -16.721562 
L 19.237178 -16.721562 
L 19.195286 -16.721562 
L 19.153394 -16.721562 
L 19.111503 -16.721562 
L 19.06961 -16.721562 
L 19.027719 -16.721562 
L 18.985827 -16.721562 
L 18.943934 -16.721562 
L 18.902043 -16.721562 
L 18.860151 -16.721562 
L 18.818259 -16.721562 
L 18.776368 -16.721562 
L 18.734475 -16.721562 
L 18.692583 -16.721562 
L 18.650691 -16.721562 
L 18.608799 -16.721562 
L 18.566908 -16.721562 
L 18.525016 -16.721562 
L 18.483124 -16.721562 
L 18.441233 -16.721562 
L 18.39934 -16.721562 
L 18.357448 -16.721562 
L 18.315557 -16.721562 
L 18.273665 -16.721562 
L 18.231773 -16.721562 
L 18.189881 -16.721562 
L 18.147989 -16.721562 
L 18.106098 -16.721562 
L 18.064205 -16.721562 
L 18.022313 -16.721562 
L 17.980421 -16.721562 
L 17.93853 -16.721562 
L 17.896638 -16.721562 
L 17.854746 -16.721562 
L 17.812854 -16.721562 
L 17.770963 -16.721562 
L 17.72907 -16.721562 
L 17.687178 -16.721562 
L 17.645288 -16.721562 
L 17.603394 -16.721562 
L 17.561503 -16.721562 
L 17.51961 -16.721562 
L 17.477719 -16.721562 
L 17.435828 -16.721562 
L 17.393934 -16.721562 
L 17.352043 -16.721562 
L 17.310151 -16.721562 
L 17.268259 -16.721562 
L 17.226368 -16.721562 
L 17.184475 -16.721562 
L 17.142584 -16.721562 
L 17.100693 -16.721562 
L 17.058799 -16.721562 
L 17.016909 -16.721562 
L 16.975018 -16.721562 
L 16.933124 -16.721562 
L 16.891233 -16.721562 
L 16.84934 -16.721562 
L 16.807449 -16.721562 
L 16.765558 -16.721562 
L 16.723664 -16.721562 
L 16.681774 -16.721562 
L 16.63988 -16.721562 
L 16.597989 -16.721562 
L 16.556098 -16.721562 
L 16.514205 -16.721562 
L 16.472314 -16.721562 
L 16.430423 -16.721562 
L 16.38853 -16.721562 
L 16.346639 -16.721562 
L 16.304748 -16.721562 
L 16.262854 -16.721562 
L 16.220963 -16.721562 
L 16.17907 -16.721562 
L 16.137179 -16.721562 
L 16.095288 -16.721562 
L 16.053395 -16.721562 
L 16.011504 -16.721562 
L 15.96961 -16.721562 
L 15.927719 -16.721562 
L 15.885828 -16.721562 
L 15.843935 -16.721562 
L 15.802044 -16.721562 
L 15.760153 -16.721562 
L 15.71826 -16.721562 
L 15.676369 -16.721562 
L 15.634477 -16.721562 
L 15.592584 -16.721562 
L 15.550694 -16.721562 
L 15.5088 -16.721562 
L 15.466909 -16.721562 
L 15.425018 -16.721562 
L 15.383125 -16.721562 
L 15.341234 -16.721562 
L 15.29934 -16.721562 
L 15.257449 -16.721562 
L 15.215559 -16.721562 
L 15.173665 -16.721562 
L 15.131774 -16.721562 
L 15.089882 -16.721562 
L 15.04799 -16.721562 
L 15.006099 -16.721562 
L 14.964207 -16.721562 
L 14.922315 -16.721562 
L 14.880424 -16.721562 
L 14.83853 -16.721562 
L 14.796639 -16.721562 
L 14.754747 -16.721562 
L 14.712855 -16.721562 
L 14.670964 -16.721562 
L 14.62907 -16.721562 
L 14.58718 -16.721562 
L 14.545287 -16.721562 
L 14.503395 -16.721562 
L 14.461504 -16.721562 
L 14.419612 -16.721562 
L 14.37772 -16.721562 
L 14.335829 -16.721562 
L 14.293937 -16.721562 
L 14.252045 -16.721562 
L 14.210152 -16.721562 
L 14.16826 -16.721562 
L 14.126369 -16.721562 
L 14.084477 -16.721562 
L 14.042585 -16.721562 
L 14.000693 -16.721562 
L 13.958801 -16.721562 
L 13.91691 -16.721562 
L 13.875017 -16.721562 
L 13.833125 -16.721562 
L 13.791234 -16.721562 
L 13.749342 -16.721562 
L 13.70745 -16.721562 
L 13.665558 -16.721562 
L 13.623667 -16.721562 
L 13.581775 -16.721562 
L 13.539883 -16.721562 
L 13.497989 -16.721562 
L 13.456097 -16.721562 
L 13.414206 -16.721562 
L 13.372312 -16.721562 
L 13.330422 -16.721562 
L 13.288531 -16.721562 
L 13.246637 -16.721562 
L 13.204746 -16.721562 
L 13.162854 -16.721562 
L 13.120962 -16.721562 
L 13.079071 -16.721562 
L 13.037177 -16.721562 
L 12.995287 -16.721562 
L 12.953396 -16.721562 
L 12.911502 -16.721562 
L 12.869611 -16.721562 
L 12.827719 -16.721562 
L 12.785827 -16.721562 
L 12.743936 -16.721562 
L 12.702043 -16.721562 
L 12.660152 -16.721562 
L 12.618261 -16.721562 
L 12.576367 -16.721562 
L 12.534476 -16.721562 
L 12.492583 -16.721562 
L 12.450692 -16.721562 
L 12.408801 -16.721562 
L 12.366908 -16.721562 
L 12.325017 -16.721562 
L 12.283126 -16.721562 
L 12.241232 -16.721562 
L 12.199341 -16.721562 
L 12.157448 -16.721562 
L 12.115557 -16.721562 
L 12.073666 -16.721562 
L 12.031773 -16.721562 
L 11.989882 -16.721562 
L 11.947991 -16.721562 
L 11.906097 -16.721562 
L 11.864207 -16.721562 
L 11.822313 -16.721562 
L 11.780422 -16.721562 
L 11.738531 -16.721562 
L 11.696638 -16.721562 
L 11.654747 -16.721562 
L 11.612856 -16.721562 
L 11.570962 -16.721562 
L 11.529072 -16.721562 
L 11.487178 -16.721562 
L 11.445287 -16.721562 
L 11.403396 -16.721562 
L 11.361503 -16.721562 
L 11.319612 -16.721562 
L 11.27772 -16.721562 
L 11.235828 -16.721562 
L 11.193937 -16.721562 
L 11.152043 -16.721562 
L 11.110152 -16.721562 
L 11.068261 -16.721562 
L 11.026368 -16.721562 
L 10.984477 -16.721562 
L 10.942585 -16.721562 
L 10.900693 -16.721562 
L 10.858802 -16.721562 
L 10.816908 -16.721562 
L 10.775017 -16.721562 
L 10.733125 -16.721562 
L 10.691233 -16.721562 
L 10.649342 -16.721562 
L 10.60745 -16.721562 
L 10.565558 -16.721562 
L 10.523667 -16.721562 
L 10.481773 -16.721562 
L 10.439882 -16.721562 
L 10.39799 -16.721562 
L 10.356098 -16.721562 
L 10.314207 -16.721562 
L 10.272315 -16.721562 
L 10.230423 -16.721562 
L 10.188531 -16.721562 
L 10.146638 -16.721562 
L 10.104747 -16.721562 
L 10.062855 -16.721562 
L 10.020963 -16.721562 
L 9.979072 -16.721562 
L 9.93718 -16.721562 
L 9.895286 -16.721562 
L 9.853394 -16.721562 
L 9.811503 -16.721562 
L 9.769611 -16.721562 
L 9.727719 -16.721562 
L 9.685827 -16.721562 
L 9.643935 -16.721562 
L 9.602044 -16.721562 
L 9.560152 -16.721562 
L 9.518259 -16.721562 
L 9.476367 -16.721562 
L 9.434475 -16.721562 
L 9.392584 -16.721562 
L 9.350692 -16.721562 
L 9.3088 -16.721562 
L 9.266909 -16.721562 
L 9.225017 -16.721562 
L 9.183124 -16.721562 
L 9.141234 -16.721562 
L 9.09934 -16.721562 
L 9.057449 -16.721562 
L 9.015557 -16.721562 
L 8.973665 -16.721562 
L 8.931774 -16.721562 
L 8.88988 -16.721562 
L 8.847989 -16.721562 
L 8.806097 -16.721562 
L 8.764205 -16.721562 
L 8.722314 -16.721562 
L 8.680422 -16.721562 
L 8.63853 -16.721562 
L 8.596639 -16.721562 
L 8.554745 -16.721562 
L 8.512855 -16.721562 
L 8.470964 -16.721562 
L 8.42907 -16.721562 
L 8.387179 -16.721562 
L 8.345287 -16.721562 
L 8.303395 -16.721562 
L 8.261504 -16.721562 
L 8.21961 -16.721562 
L 8.17772 -16.721562 
L 8.135827 -16.721562 
L 8.093935 -16.721562 
L 8.052044 -16.721562 
L 8.010151 -16.721562 
L 7.96826 -16.721562 
L 7.926369 -16.721562 
L 7.884476 -16.721562 
L 7.842585 -16.721562 
L 7.800694 -16.721562 
L 7.7588 -16.721562 
L 7.716909 -16.721562 
L 7.675016 -16.721562 
L 7.633125 -16.721562 
z
" style="stroke: #8ebad9; stroke-opacity: 0.5"/>
    </defs>
    <g clip-path="url(#p8aac13c380)">
     <use xlink:href="#m0057157b6c" x="0" y="43.181562" style="fill: #8ebad9; fill-opacity: 0.5; stroke: #8ebad9; stroke-opacity: 0.5"/>
    </g>
   </g>
   <g id="matplotlib.axis_1">
    <g id="xtick_1">
     <g id="line2d_1">
      <defs>
       <path id="m3ec1313f53" d="M 0 0 
L 0 3.5 
" style="stroke: #000000; stroke-width: 1.5"/>
      </defs>
      <g>
       <use xlink:href="#m3ec1313f53" x="7.633125" y="27.72" style="stroke: #000000; stroke-width: 1.5"/>
      </g>
     </g>
     <g id="text_1">
      <text style="font: 9px 'Arial', sans-serif; text-anchor: middle" x="7.633125" y="41.162031" transform="rotate(-0 7.633125 41.162031)">−15</text>
     </g>
    </g>
    <g id="xtick_2">
     <g id="line2d_2">
      <g>
       <use xlink:href="#m3ec1313f53" x="49.483125" y="27.72" style="stroke: #000000; stroke-width: 1.5"/>
      </g>
     </g>
     <g id="text_2">
      <text style="font: 9px 'Arial', sans-serif; text-anchor: middle" x="49.483125" y="41.162031" transform="rotate(-0 49.483125 41.162031)">15</text>
     </g>
    </g>
    <g id="text_3">
     <!-- $x_t$ -->
     <g transform="translate(25.093125 40.391562)">
      <text>
       <tspan style="font: 9px 'Arial'" x="0" y="-0.328125">x</tspan>
       <tspan style="font: 6.3px 'Arial'" x="4.656811" y="2.3600624999999997">t</tspan>
      </text>
     </g>
    </g>
   </g>
   <g id="line2d_3">
    <path d="M 7.633125 26.180052 
L 9.602044 25.832585 
L 11.152043 25.340257 
L 12.492583 24.68421 
L 13.70745 23.847641 
L 14.922315 22.731806 
L 16.137179 21.298338 
L 17.393934 19.460162 
L 18.776368 17.033904 
L 20.493936 13.543572 
L 24.599341 5.00877 
L 25.730422 3.247943 
L 26.652043 2.183488 
L 27.447988 1.577054 
L 28.160152 1.300872 
L 28.830422 1.279082 
L 29.500692 1.488935 
L 30.212854 1.959152 
L 31.008799 2.7683 
L 31.930422 4.039619 
L 33.061503 6.001072 
L 34.653395 9.258081 
L 38.633124 17.581444 
L 40.09934 20.049691 
L 41.439881 21.881245 
L 42.696637 23.230169 
L 43.953395 24.254472 
L 45.252043 25.02282 
L 46.634474 25.583066 
L 48.226367 25.987087 
L 49.483125 26.180052 
L 49.483125 26.180052 
" clip-path="url(#p8aac13c380)" style="fill: none; stroke: #8ebad9; stroke-width: 2; stroke-linecap: square"/>
   </g>
   <g id="patch_3">
    <path d="M 7.633125 27.72 
L 49.483125 27.72 
" style="fill: none; stroke: #000000; stroke-width: 1.5; stroke-linejoin: miter; stroke-linecap: square"/>
   </g>
  </g>
 </g>
 <defs>
  <clipPath id="p8aac13c380">
   <rect x="7.633125" y="0" width="41.85" height="27.72"/>
  </clipPath>
 </defs>
</svg>
