<?xml version="1.0" encoding="utf-8" standalone="no"?>
<!DOCTYPE svg PUBLIC "-//W3C//DTD SVG 1.1//EN"
  "http://www.w3.org/Graphics/SVG/1.1/DTD/svg11.dtd">
<svg xmlns:xlink="http://www.w3.org/1999/xlink" width="54.487969pt" height="43.181562pt" viewBox="0 0 54.487969 43.181562" xmlns="http://www.w3.org/2000/svg" version="1.1">
 <metadata>
  <rdf:RDF xmlns:dc="http://purl.org/dc/elements/1.1/" xmlns:cc="http://creativecommons.org/ns#" xmlns:rdf="http://www.w3.org/1999/02/22-rdf-syntax-ns#">
   <cc:Work>
    <dc:type rdf:resource="http://purl.org/dc/dcmitype/StillImage"/>
    <dc:date>2024-09-22T09:56:45.722312</dc:date>
    <dc:format>image/svg+xml</dc:format>
    <dc:creator>
     <cc:Agent>
      <dc:title>Matplotlib v3.9.0, https://matplotlib.org/</dc:title>
     </cc:Agent>
    </dc:creator>
   </cc:Work>
  </rdf:RDF>
 </metadata>
 <defs>
  <style type="text/css">*{stroke-linejoin: round; stroke-linecap: butt}</style>
 </defs>
 <g id="figure_1">
  <g id="patch_1">
   <path d="M -0 43.181562 
L 54.487969 43.181562 
L 54.487969 0 
L -0 0 
L -0 43.181562 
z
" style="fill: none"/>
  </g>
  <g id="axes_1">
   <g id="patch_2">
    <path d="M 7.633125 27.72 
L 49.483125 27.72 
L 49.483125 0 
L 7.633125 0 
L 7.633125 27.72 
z
" style="fill: none"/>
   </g>
   <g id="PolyCollection_1">
    <defs>
     <path id="m962506e213" d="M 7.633125 -16.721563 
L 7.633125 -16.721563 
L 7.675016 -16.721563 
L 7.716909 -16.721563 
L 7.7588 -16.721563 
L 7.800694 -16.721563 
L 7.842585 -16.721563 
L 7.884476 -16.721563 
L 7.926369 -16.721563 
L 7.96826 -16.721563 
L 8.010151 -16.721563 
L 8.052044 -16.721563 
L 8.093935 -16.721563 
L 8.135827 -16.721563 
L 8.17772 -16.721563 
L 8.21961 -16.721563 
L 8.261504 -16.721563 
L 8.303395 -16.721563 
L 8.345287 -16.721563 
L 8.387179 -16.721563 
L 8.42907 -16.721563 
L 8.470964 -16.721563 
L 8.512855 -16.721563 
L 8.554745 -16.721563 
L 8.596639 -16.721563 
L 8.63853 -16.721563 
L 8.680422 -16.721563 
L 8.722314 -16.721563 
L 8.764205 -16.721563 
L 8.806097 -16.721563 
L 8.847989 -16.721563 
L 8.88988 -16.721563 
L 8.931774 -16.721563 
L 8.973665 -16.721563 
L 9.015557 -16.721563 
L 9.057449 -16.721563 
L 9.09934 -16.721563 
L 9.141234 -16.721563 
L 9.183124 -16.721563 
L 9.225017 -16.721563 
L 9.266909 -16.721563 
L 9.3088 -16.721563 
L 9.350692 -16.721563 
L 9.392584 -16.721563 
L 9.434475 -16.721563 
L 9.476367 -16.721563 
L 9.518259 -16.721563 
L 9.560152 -16.721563 
L 9.602044 -16.721563 
L 9.643935 -16.721563 
L 9.685827 -16.721563 
L 9.727719 -16.721563 
L 9.769611 -16.721563 
L 9.811503 -16.721563 
L 9.853394 -16.721563 
L 9.895286 -16.721563 
L 9.93718 -16.721563 
L 9.979072 -16.721563 
L 10.020963 -16.721563 
L 10.062855 -16.721563 
L 10.104747 -16.721563 
L 10.146638 -16.721563 
L 10.188531 -16.721563 
L 10.230423 -16.721563 
L 10.272315 -16.721563 
L 10.314207 -16.721563 
L 10.356098 -16.721563 
L 10.39799 -16.721563 
L 10.439882 -16.721563 
L 10.481773 -16.721563 
L 10.523667 -16.721563 
L 10.565558 -16.721563 
L 10.60745 -16.721563 
L 10.649342 -16.721563 
L 10.691233 -16.721563 
L 10.733125 -16.721563 
L 10.775017 -16.721563 
L 10.816908 -16.721563 
L 10.858802 -16.721563 
L 10.900693 -16.721563 
L 10.942585 -16.721563 
L 10.984477 -16.721563 
L 11.026368 -16.721563 
L 11.068261 -16.721563 
L 11.110152 -16.721563 
L 11.152043 -16.721563 
L 11.193937 -16.721563 
L 11.235828 -16.721563 
L 11.27772 -16.721563 
L 11.319612 -16.721563 
L 11.361503 -16.721563 
L 11.403396 -16.721563 
L 11.445287 -16.721563 
L 11.487178 -16.721563 
L 11.529072 -16.721563 
L 11.570962 -16.721563 
L 11.612856 -16.721563 
L 11.654747 -16.721563 
L 11.696638 -16.721563 
L 11.738531 -16.721563 
L 11.780422 -16.721563 
L 11.822313 -16.721563 
L 11.864207 -16.721563 
L 11.906097 -16.721563 
L 11.947991 -16.721563 
L 11.989882 -16.721563 
L 12.031773 -16.721563 
L 12.073666 -16.721563 
L 12.115557 -16.721563 
L 12.157448 -16.721563 
L 12.199341 -16.721563 
L 12.241232 -16.721563 
L 12.283126 -16.721563 
L 12.325017 -16.721563 
L 12.366908 -16.721563 
L 12.408801 -16.721563 
L 12.450692 -16.721563 
L 12.492583 -16.721563 
L 12.534476 -16.721563 
L 12.576367 -16.721563 
L 12.618261 -16.721563 
L 12.660152 -16.721563 
L 12.702043 -16.721563 
L 12.743936 -16.721563 
L 12.785827 -16.721563 
L 12.827719 -16.721563 
L 12.869611 -16.721563 
L 12.911502 -16.721563 
L 12.953396 -16.721563 
L 12.995287 -16.721563 
L 13.037177 -16.721563 
L 13.079071 -16.721563 
L 13.120962 -16.721563 
L 13.162854 -16.721563 
L 13.204746 -16.721563 
L 13.246637 -16.721563 
L 13.288531 -16.721563 
L 13.330422 -16.721563 
L 13.372312 -16.721563 
L 13.414206 -16.721563 
L 13.456097 -16.721563 
L 13.497989 -16.721563 
L 13.539883 -16.721563 
L 13.581775 -16.721563 
L 13.623667 -16.721563 
L 13.665558 -16.721563 
L 13.70745 -16.721563 
L 13.749342 -16.721563 
L 13.791234 -16.721563 
L 13.833125 -16.721563 
L 13.875017 -16.721563 
L 13.91691 -16.721563 
L 13.958801 -16.721563 
L 14.000693 -16.721563 
L 14.042585 -16.721563 
L 14.084477 -16.721563 
L 14.126369 -16.721563 
L 14.16826 -16.721563 
L 14.210152 -16.721563 
L 14.252045 -16.721563 
L 14.293937 -16.721563 
L 14.335829 -16.721563 
L 14.37772 -16.721563 
L 14.419612 -16.721563 
L 14.461504 -16.721563 
L 14.503395 -16.721563 
L 14.545287 -16.721563 
L 14.58718 -16.721563 
L 14.62907 -16.721563 
L 14.670964 -16.721563 
L 14.712855 -16.721563 
L 14.754747 -16.721563 
L 14.796639 -16.721563 
L 14.83853 -16.721563 
L 14.880424 -16.721563 
L 14.922315 -16.721563 
L 14.964207 -16.721563 
L 15.006099 -16.721563 
L 15.04799 -16.721563 
L 15.089882 -16.721563 
L 15.131774 -16.721563 
L 15.173665 -16.721563 
L 15.215559 -16.721563 
L 15.257449 -16.721563 
L 15.29934 -16.721563 
L 15.341234 -16.721563 
L 15.383125 -16.721563 
L 15.425018 -16.721563 
L 15.466909 -16.721563 
L 15.5088 -16.721563 
L 15.550694 -16.721563 
L 15.592584 -16.721563 
L 15.634477 -16.721563 
L 15.676369 -16.721563 
L 15.71826 -16.721563 
L 15.760153 -16.721563 
L 15.802044 -16.721563 
L 15.843935 -16.721563 
L 15.885828 -16.721563 
L 15.927719 -16.721563 
L 15.96961 -16.721563 
L 16.011504 -16.721563 
L 16.053395 -16.721563 
L 16.095288 -16.721563 
L 16.137179 -16.721563 
L 16.17907 -16.721563 
L 16.220963 -16.721563 
L 16.262854 -16.721563 
L 16.304748 -16.721563 
L 16.346639 -16.721563 
L 16.38853 -16.721563 
L 16.430423 -16.721563 
L 16.472314 -16.721563 
L 16.514205 -16.721563 
L 16.556098 -16.721563 
L 16.597989 -16.721563 
L 16.63988 -16.721563 
L 16.681774 -16.721563 
L 16.723664 -16.721563 
L 16.765558 -16.721563 
L 16.807449 -16.721563 
L 16.84934 -16.721563 
L 16.891233 -16.721563 
L 16.933124 -16.721563 
L 16.975018 -16.721563 
L 17.016909 -16.721563 
L 17.058799 -16.721563 
L 17.100693 -16.721563 
L 17.142584 -16.721563 
L 17.184475 -16.721563 
L 17.226368 -16.721563 
L 17.268259 -16.721563 
L 17.310151 -16.721563 
L 17.352043 -16.721563 
L 17.393934 -16.721563 
L 17.435828 -16.721563 
L 17.477719 -16.721563 
L 17.51961 -16.721563 
L 17.561503 -16.721563 
L 17.603394 -16.721563 
L 17.645288 -16.721563 
L 17.687178 -16.721563 
L 17.72907 -16.721563 
L 17.770963 -16.721563 
L 17.812854 -16.721563 
L 17.854746 -16.721563 
L 17.896638 -16.721563 
L 17.93853 -16.721563 
L 17.980421 -16.721563 
L 18.022313 -16.721563 
L 18.064205 -16.721563 
L 18.106098 -16.721563 
L 18.147989 -16.721563 
L 18.189881 -16.721563 
L 18.231773 -16.721563 
L 18.273665 -16.721563 
L 18.315557 -16.721563 
L 18.357448 -16.721563 
L 18.39934 -16.721563 
L 18.441233 -16.721563 
L 18.483124 -16.721563 
L 18.525016 -16.721563 
L 18.566908 -16.721563 
L 18.608799 -16.721563 
L 18.650691 -16.721563 
L 18.692583 -16.721563 
L 18.734475 -16.721563 
L 18.776368 -16.721563 
L 18.818259 -16.721563 
L 18.860151 -16.721563 
L 18.902043 -16.721563 
L 18.943934 -16.721563 
L 18.985827 -16.721563 
L 19.027719 -16.721563 
L 19.06961 -16.721563 
L 19.111503 -16.721563 
L 19.153394 -16.721563 
L 19.195286 -16.721563 
L 19.237178 -16.721563 
L 19.279069 -16.721563 
L 19.320961 -16.721563 
L 19.362854 -16.721563 
L 19.404745 -16.721563 
L 19.446639 -16.721563 
L 19.48853 -16.721563 
L 19.530422 -16.721563 
L 19.572315 -16.721563 
L 19.614206 -16.721563 
L 19.656097 -16.721563 
L 19.69799 -16.721563 
L 19.739882 -16.721563 
L 19.781774 -16.721563 
L 19.823665 -16.721563 
L 19.865557 -16.721563 
L 19.90745 -16.721563 
L 19.949341 -16.721563 
L 19.991232 -16.721563 
L 20.033125 -16.721563 
L 20.075016 -16.721563 
L 20.116909 -16.721563 
L 20.158801 -16.721563 
L 20.200692 -16.721563 
L 20.242585 -16.721563 
L 20.284476 -16.721563 
L 20.326368 -16.721563 
L 20.36826 -16.721563 
L 20.410151 -16.721563 
L 20.452044 -16.721563 
L 20.493936 -16.721563 
L 20.535827 -16.721563 
L 20.57772 -16.721563 
L 20.619611 -16.721563 
L 20.661503 -16.721563 
L 20.703395 -16.721563 
L 20.745286 -16.721563 
L 20.787179 -16.721563 
L 20.829071 -16.721563 
L 20.870962 -16.721563 
L 20.912854 -16.721563 
L 20.954746 -16.721563 
L 20.996638 -16.721563 
L 21.03853 -16.721563 
L 21.080421 -16.721563 
L 21.122314 -16.721563 
L 21.164206 -16.721563 
L 21.206097 -16.721563 
L 21.247989 -16.721563 
L 21.289881 -16.721563 
L 21.331772 -16.721563 
L 21.373665 -16.721563 
L 21.415557 -16.721563 
L 21.457449 -16.721563 
L 21.499341 -16.721563 
L 21.541232 -16.721563 
L 21.583126 -16.721563 
L 21.625017 -16.721563 
L 21.666909 -16.721563 
L 21.708802 -16.721563 
L 21.750693 -16.721563 
L 21.792584 -16.721563 
L 21.834477 -16.721563 
L 21.876368 -16.721563 
L 21.918261 -16.721563 
L 21.960153 -16.721563 
L 22.002044 -16.721563 
L 22.043937 -16.721563 
L 22.085828 -16.721563 
L 22.127721 -16.721563 
L 22.169612 -16.721563 
L 22.211503 -16.721563 
L 22.253396 -16.721563 
L 22.295288 -16.721563 
L 22.337179 -16.721563 
L 22.379071 -16.721563 
L 22.420963 -16.721563 
L 22.462855 -16.721563 
L 22.504747 -16.721563 
L 22.546638 -16.721563 
L 22.588531 -16.721563 
L 22.630423 -16.721563 
L 22.672314 -16.721563 
L 22.714206 -16.721563 
L 22.756098 -16.721563 
L 22.797991 -16.721563 
L 22.839882 -16.721563 
L 22.881773 -16.721563 
L 22.923666 -16.721563 
L 22.965558 -16.721563 
L 23.007449 -16.721563 
L 23.049341 -16.721563 
L 23.091233 -16.721563 
L 23.133124 -16.721563 
L 23.175017 -16.721563 
L 23.216909 -16.721564 
L 23.258801 -16.721564 
L 23.300693 -16.721564 
L 23.342584 -16.721564 
L 23.384477 -16.721565 
L 23.426368 -16.721565 
L 23.468261 -16.721565 
L 23.510152 -16.721566 
L 23.552044 -16.721567 
L 23.593936 -16.721567 
L 23.635827 -16.721568 
L 23.677719 -16.721569 
L 23.719612 -16.721571 
L 23.761503 -16.721572 
L 23.803394 -16.721574 
L 23.845287 -16.721576 
L 23.887179 -16.721578 
L 23.929072 -16.721581 
L 23.970962 -16.721584 
L 24.012854 -16.721587 
L 24.054747 -16.721592 
L 24.096638 -16.721597 
L 24.138531 -16.721602 
L 24.180422 -16.721609 
L 24.222314 -16.721617 
L 24.264206 -16.721626 
L 24.306097 -16.721636 
L 24.347989 -16.721648 
L 24.389882 -16.721662 
L 24.431773 -16.721678 
L 24.473665 -16.721697 
L 24.515557 -16.721718 
L 24.557449 -16.721743 
L 24.599341 -16.721771 
L 24.641233 -16.721804 
L 24.683124 -16.721841 
L 24.725017 -16.721884 
L 24.766908 -16.721933 
L 24.808801 -16.721989 
L 24.850692 -16.722053 
L 24.892583 -16.722126 
L 24.934476 -16.72221 
L 24.976368 -16.722306 
L 25.018259 -16.722415 
L 25.060152 -16.722539 
L 25.102043 -16.72268 
L 25.143935 -16.72284 
L 25.185828 -16.723022 
L 25.227718 -16.723228 
L 25.269611 -16.723461 
L 25.311503 -16.723726 
L 25.353394 -16.724025 
L 25.395287 -16.724363 
L 25.437178 -16.724745 
L 25.479071 -16.725175 
L 25.520962 -16.725659 
L 25.562854 -16.726205 
L 25.604746 -16.726818 
L 25.646638 -16.727507 
L 25.688529 -16.72828 
L 25.730422 -16.729147 
L 25.772313 -16.730118 
L 25.814205 -16.731205 
L 25.856097 -16.73242 
L 25.897989 -16.733777 
L 25.939881 -16.735292 
L 25.981773 -16.73698 
L 26.023664 -16.73886 
L 26.065557 -16.740952 
L 26.107449 -16.743277 
L 26.149341 -16.74586 
L 26.191232 -16.748724 
L 26.233124 -16.7519 
L 26.275017 -16.755416 
L 26.316908 -16.759305 
L 26.358799 -16.763604 
L 26.400692 -16.76835 
L 26.442584 -16.773584 
L 26.484474 -16.779352 
L 26.526367 -16.785702 
L 26.568259 -16.792685 
L 26.610152 -16.800357 
L 26.652043 -16.808779 
L 26.693934 -16.818013 
L 26.735827 -16.828129 
L 26.777718 -16.8392 
L 26.819611 -16.851304 
L 26.861502 -16.864524 
L 26.903394 -16.87895 
L 26.945287 -16.894675 
L 26.987178 -16.911799 
L 27.029069 -16.930429 
L 27.070962 -16.950677 
L 27.112853 -16.97266 
L 27.154745 -16.996506 
L 27.196637 -17.022344 
L 27.238529 -17.050314 
L 27.280421 -17.080561 
L 27.322313 -17.113238 
L 27.364205 -17.148503 
L 27.406097 -17.186524 
L 27.447988 -17.227475 
L 27.489881 -17.271537 
L 27.531773 -17.318897 
L 27.573664 -17.369749 
L 27.615556 -17.424298 
L 27.657448 -17.482751 
L 27.69934 -17.545323 
L 27.741232 -17.612233 
L 27.783123 -17.683711 
L 27.825015 -17.759989 
L 27.866908 -17.841304 
L 27.908799 -17.927897 
L 27.950691 -18.020014 
L 27.992583 -18.117908 
L 28.034476 -18.221832 
L 28.076368 -18.332032 
L 28.11826 -18.448769 
L 28.160152 -18.572299 
L 28.202044 -18.702877 
L 28.243935 -18.840754 
L 28.285827 -18.986181 
L 28.327719 -19.13941 
L 28.369611 -19.300681 
L 28.411503 -19.470224 
L 28.453395 -19.648273 
L 28.495287 -19.83505 
L 28.537179 -20.03076 
L 28.57907 -20.235598 
L 28.620963 -20.449757 
L 28.662854 -20.673396 
L 28.704746 -20.90668 
L 28.746638 -21.149737 
L 28.78853 -21.402689 
L 28.830422 -21.665626 
L 28.872314 -21.93863 
L 28.914205 -22.22174 
L 28.956098 -22.514993 
L 28.997989 -22.818376 
L 29.039881 -23.13187 
L 29.081773 -23.455398 
L 29.123665 -23.788888 
L 29.165557 -24.132205 
L 29.207449 -24.48519 
L 29.24934 -24.847659 
L 29.291233 -25.219389 
L 29.333125 -25.600114 
L 29.375016 -25.989528 
L 29.416908 -26.3873 
L 29.4588 -26.793067 
L 29.500692 -27.206405 
L 29.542584 -27.626862 
L 29.584475 -28.053959 
L 29.626367 -28.48717 
L 29.66826 -28.925932 
L 29.710152 -29.369648 
L 29.752043 -29.817664 
L 29.793935 -30.269342 
L 29.835827 -30.723965 
L 29.877719 -31.180799 
L 29.91961 -31.639062 
L 29.961503 -32.098 
L 30.003395 -32.556753 
L 30.045286 -33.014496 
L 30.087178 -33.470368 
L 30.12907 -33.923468 
L 30.170961 -34.372896 
L 30.212854 -34.817759 
L 30.254745 -35.25709 
L 30.296638 -35.689989 
L 30.33853 -36.115491 
L 30.380421 -36.532664 
L 30.422313 -36.940575 
L 30.464205 -37.338277 
L 30.506098 -37.724866 
L 30.547989 -38.099403 
L 30.58988 -38.461002 
L 30.631773 -38.808806 
L 30.673664 -39.141935 
L 30.715556 -39.459577 
L 30.757448 -39.760931 
L 30.79934 -40.045238 
L 30.841233 -40.311777 
L 30.883124 -40.559846 
L 30.925015 -40.788805 
L 30.966908 -40.998073 
L 31.008799 -41.187079 
L 31.050692 -41.35534 
L 31.092583 -41.502392 
L 31.134475 -41.627853 
L 31.176368 -41.731391 
L 31.218259 -41.812714 
L 31.260151 -41.871617 
L 31.302044 -41.907933 
L 31.343936 -41.921562 
L 31.385828 -41.912476 
L 31.427719 -41.880691 
L 31.469611 -41.826299 
L 31.511504 -41.749443 
L 31.553395 -41.650329 
L 31.595288 -41.529226 
L 31.637179 -41.386462 
L 31.679071 -41.222414 
L 31.720963 -41.037516 
L 31.762854 -40.832265 
L 31.804746 -40.607195 
L 31.846639 -40.362889 
L 31.88853 -40.099999 
L 31.930422 -39.819189 
L 31.972314 -39.521184 
L 32.014206 -39.206741 
L 32.056098 -38.876639 
L 32.097989 -38.531712 
L 32.139882 -38.17279 
L 32.181774 -37.80077 
L 32.223665 -37.416528 
L 32.265557 -37.020972 
L 32.307449 -36.615032 
L 32.34934 -36.19964 
L 32.391233 -35.775724 
L 32.433124 -35.344238 
L 32.475017 -34.906103 
L 32.516909 -34.462282 
L 32.5588 -34.013692 
L 32.600692 -33.561249 
L 32.642584 -33.105867 
L 32.684477 -32.648417 
L 32.726368 -32.189803 
L 32.768259 -31.730847 
L 32.810152 -31.272365 
L 32.852044 -30.815189 
L 32.893935 -30.360072 
L 32.935827 -29.907747 
L 32.977719 -29.458939 
L 33.019612 -29.014304 
L 33.061503 -28.574513 
L 33.103394 -28.140152 
L 33.145287 -27.711778 
L 33.187178 -27.289953 
L 33.22907 -26.875157 
L 33.270962 -26.467843 
L 33.312854 -26.06844 
L 33.354747 -25.677313 
L 33.396637 -25.294839 
L 33.438529 -24.921293 
L 33.480422 -24.556942 
L 33.522313 -24.202042 
L 33.564206 -23.856771 
L 33.606097 -23.521316 
L 33.647989 -23.195786 
L 33.689882 -22.880275 
L 33.731772 -22.574873 
L 33.773664 -22.279596 
L 33.815557 -21.994449 
L 33.857448 -21.71943 
L 33.899341 -21.454477 
L 33.941232 -21.199541 
L 33.983124 -20.954516 
L 34.025016 -20.719283 
L 34.066907 -20.493729 
L 34.1088 -20.277684 
L 34.150692 -20.070996 
L 34.192583 -19.873477 
L 34.234476 -19.684927 
L 34.276367 -19.505154 
L 34.318259 -19.333926 
L 34.360151 -19.171017 
L 34.402042 -19.016204 
L 34.443935 -18.869231 
L 34.485827 -18.729864 
L 34.527718 -18.597847 
L 34.569611 -18.472926 
L 34.611502 -18.354853 
L 34.653395 -18.243362 
L 34.695286 -18.138207 
L 34.737177 -18.039131 
L 34.77907 -17.945875 
L 34.820962 -17.858197 
L 34.862853 -17.775847 
L 34.904746 -17.698579 
L 34.946637 -17.626161 
L 34.98853 -17.558353 
L 35.030421 -17.494932 
L 35.072312 -17.435675 
L 35.114205 -17.38036 
L 35.156097 -17.328784 
L 35.197989 -17.28074 
L 35.239881 -17.236035 
L 35.281772 -17.194478 
L 35.323665 -17.155883 
L 35.365556 -17.12008 
L 35.407447 -17.0869 
L 35.44934 -17.056178 
L 35.491231 -17.027765 
L 35.533126 -17.00151 
L 35.575017 -16.977277 
L 35.616908 -16.954932 
L 35.658801 -16.934346 
L 35.700692 -16.915402 
L 35.742585 -16.897985 
L 35.784476 -16.881988 
L 35.826368 -16.867311 
L 35.868261 -16.853856 
L 35.910151 -16.841536 
L 35.952043 -16.830265 
L 35.993936 -16.819964 
L 36.035827 -16.810559 
L 36.07772 -16.80198 
L 36.119611 -16.794163 
L 36.161503 -16.787046 
L 36.203396 -16.780574 
L 36.245286 -16.774694 
L 36.287179 -16.769356 
L 36.329071 -16.764516 
L 36.370962 -16.760131 
L 36.412855 -16.756163 
L 36.454746 -16.752575 
L 36.496638 -16.749334 
L 36.53853 -16.746409 
L 36.580421 -16.743772 
L 36.622314 -16.741398 
L 36.664206 -16.739261 
L 36.706097 -16.73734 
L 36.747989 -16.735615 
L 36.789881 -16.734067 
L 36.831774 -16.73268 
L 36.873665 -16.731437 
L 36.915556 -16.730326 
L 36.957449 -16.729333 
L 36.999341 -16.728446 
L 37.041232 -16.727655 
L 37.083124 -16.726949 
L 37.125016 -16.726322 
L 37.166909 -16.725763 
L 37.2088 -16.725267 
L 37.250691 -16.724826 
L 37.292584 -16.724436 
L 37.334476 -16.724089 
L 37.376367 -16.723783 
L 37.418259 -16.723512 
L 37.460151 -16.723272 
L 37.502044 -16.723061 
L 37.543935 -16.722874 
L 37.585826 -16.72271 
L 37.627719 -16.722565 
L 37.669611 -16.722438 
L 37.711503 -16.722326 
L 37.753394 -16.722228 
L 37.795286 -16.722142 
L 37.837179 -16.722067 
L 37.87907 -16.722001 
L 37.920961 -16.721943 
L 37.962854 -16.721893 
L 38.004745 -16.721849 
L 38.046638 -16.721811 
L 38.088529 -16.721777 
L 38.130421 -16.721748 
L 38.172314 -16.721723 
L 38.214205 -16.721701 
L 38.256097 -16.721682 
L 38.297989 -16.721665 
L 38.33988 -16.721651 
L 38.381773 -16.721639 
L 38.423664 -16.721628 
L 38.465556 -16.721619 
L 38.507449 -16.721611 
L 38.549339 -16.721604 
L 38.591233 -16.721598 
L 38.633124 -16.721593 
L 38.675015 -16.721588 
L 38.716908 -16.721585 
L 38.758799 -16.721581 
L 38.800692 -16.721578 
L 38.842583 -16.721576 
L 38.884474 -16.721574 
L 38.926368 -16.721572 
L 38.968259 -16.721571 
L 39.01015 -16.72157 
L 39.052043 -16.721569 
L 39.093934 -16.721568 
L 39.135827 -16.721567 
L 39.177718 -16.721566 
L 39.219609 -16.721566 
L 39.261503 -16.721565 
L 39.303394 -16.721565 
L 39.345287 -16.721564 
L 39.387178 -16.721564 
L 39.429069 -16.721564 
L 39.470962 -16.721564 
L 39.512853 -16.721563 
L 39.554744 -16.721563 
L 39.596638 -16.721563 
L 39.638529 -16.721563 
L 39.680421 -16.721563 
L 39.722313 -16.721563 
L 39.764204 -16.721563 
L 39.806097 -16.721563 
L 39.84799 -16.721563 
L 39.889882 -16.721563 
L 39.931773 -16.721563 
L 39.973665 -16.721563 
L 40.015557 -16.721563 
L 40.057449 -16.721563 
L 40.09934 -16.721563 
L 40.141232 -16.721563 
L 40.183125 -16.721563 
L 40.225017 -16.721563 
L 40.266908 -16.721563 
L 40.3088 -16.721563 
L 40.350692 -16.721563 
L 40.392584 -16.721563 
L 40.434476 -16.721563 
L 40.476367 -16.721563 
L 40.518259 -16.721563 
L 40.560152 -16.721563 
L 40.602043 -16.721563 
L 40.643935 -16.721563 
L 40.685827 -16.721563 
L 40.727719 -16.721563 
L 40.769611 -16.721563 
L 40.811502 -16.721563 
L 40.853394 -16.721563 
L 40.895287 -16.721563 
L 40.937177 -16.721563 
L 40.97907 -16.721563 
L 41.020962 -16.721563 
L 41.062854 -16.721563 
L 41.104746 -16.721563 
L 41.146637 -16.721563 
L 41.188529 -16.721563 
L 41.230422 -16.721563 
L 41.272312 -16.721563 
L 41.314206 -16.721563 
L 41.356097 -16.721563 
L 41.397989 -16.721563 
L 41.439881 -16.721563 
L 41.481772 -16.721563 
L 41.523664 -16.721563 
L 41.565556 -16.721563 
L 41.607447 -16.721563 
L 41.649341 -16.721563 
L 41.691232 -16.721563 
L 41.733124 -16.721563 
L 41.775016 -16.721563 
L 41.816907 -16.721563 
L 41.858801 -16.721563 
L 41.900691 -16.721563 
L 41.942582 -16.721563 
L 41.984476 -16.721563 
L 42.026367 -16.721563 
L 42.068259 -16.721563 
L 42.110151 -16.721563 
L 42.152042 -16.721563 
L 42.193935 -16.721563 
L 42.235826 -16.721563 
L 42.277717 -16.721563 
L 42.319611 -16.721563 
L 42.361502 -16.721563 
L 42.403395 -16.721563 
L 42.445286 -16.721563 
L 42.487177 -16.721563 
L 42.52907 -16.721563 
L 42.570961 -16.721563 
L 42.612852 -16.721563 
L 42.654746 -16.721563 
L 42.696637 -16.721563 
L 42.73853 -16.721563 
L 42.780421 -16.721563 
L 42.822312 -16.721563 
L 42.864205 -16.721563 
L 42.906096 -16.721563 
L 42.94799 -16.721563 
L 42.989881 -16.721563 
L 43.031772 -16.721563 
L 43.073665 -16.721563 
L 43.115556 -16.721563 
L 43.157447 -16.721563 
L 43.19934 -16.721563 
L 43.241231 -16.721563 
L 43.283125 -16.721563 
L 43.325016 -16.721563 
L 43.366906 -16.721563 
L 43.4088 -16.721563 
L 43.450691 -16.721563 
L 43.492584 -16.721563 
L 43.534475 -16.721563 
L 43.576366 -16.721563 
L 43.61826 -16.721563 
L 43.660151 -16.721563 
L 43.702041 -16.721563 
L 43.743935 -16.721563 
L 43.785826 -16.721563 
L 43.827719 -16.721563 
L 43.86961 -16.721563 
L 43.911501 -16.721563 
L 43.953395 -16.721563 
L 43.995285 -16.721563 
L 44.037178 -16.721563 
L 44.07907 -16.721563 
L 44.120962 -16.721563 
L 44.162854 -16.721563 
L 44.204746 -16.721563 
L 44.246637 -16.721563 
L 44.28853 -16.721563 
L 44.330422 -16.721563 
L 44.372314 -16.721563 
L 44.414206 -16.721563 
L 44.456097 -16.721563 
L 44.497989 -16.721563 
L 44.539881 -16.721563 
L 44.581774 -16.721563 
L 44.623664 -16.721563 
L 44.665557 -16.721563 
L 44.707449 -16.721563 
L 44.749341 -16.721563 
L 44.791232 -16.721563 
L 44.833124 -16.721563 
L 44.875016 -16.721563 
L 44.916909 -16.721563 
L 44.958799 -16.721563 
L 45.000692 -16.721563 
L 45.042584 -16.721563 
L 45.084476 -16.721563 
L 45.126367 -16.721563 
L 45.168259 -16.721563 
L 45.210151 -16.721563 
L 45.252043 -16.721563 
L 45.293934 -16.721563 
L 45.335827 -16.721563 
L 45.377719 -16.721563 
L 45.419611 -16.721563 
L 45.461503 -16.721563 
L 45.503394 -16.721563 
L 45.545286 -16.721563 
L 45.587178 -16.721563 
L 45.629069 -16.721563 
L 45.670961 -16.721563 
L 45.712854 -16.721563 
L 45.754746 -16.721563 
L 45.796638 -16.721563 
L 45.838529 -16.721563 
L 45.880421 -16.721563 
L 45.922313 -16.721563 
L 45.964204 -16.721563 
L 46.006098 -16.721563 
L 46.047989 -16.721563 
L 46.089881 -16.721563 
L 46.131773 -16.721563 
L 46.173664 -16.721563 
L 46.215556 -16.721563 
L 46.257448 -16.721563 
L 46.299339 -16.721563 
L 46.341233 -16.721563 
L 46.383124 -16.721563 
L 46.425016 -16.721563 
L 46.466908 -16.721563 
L 46.508799 -16.721563 
L 46.550692 -16.721563 
L 46.592583 -16.721563 
L 46.634474 -16.721563 
L 46.676368 -16.721563 
L 46.718258 -16.721563 
L 46.760151 -16.721563 
L 46.802043 -16.721563 
L 46.843934 -16.721563 
L 46.885827 -16.721563 
L 46.927718 -16.721563 
L 46.96961 -16.721563 
L 47.011503 -16.721563 
L 47.053393 -16.721563 
L 47.095287 -16.721563 
L 47.137178 -16.721563 
L 47.179069 -16.721563 
L 47.220962 -16.721563 
L 47.262853 -16.721563 
L 47.304745 -16.721563 
L 47.346637 -16.721563 
L 47.388528 -16.721563 
L 47.430422 -16.721563 
L 47.472313 -16.721563 
L 47.514204 -16.721563 
L 47.556097 -16.721563 
L 47.597988 -16.721563 
L 47.639882 -16.721563 
L 47.681772 -16.721563 
L 47.723663 -16.721563 
L 47.765557 -16.721563 
L 47.807448 -16.721563 
L 47.849339 -16.721563 
L 47.891232 -16.721563 
L 47.933123 -16.721563 
L 47.975016 -16.721563 
L 48.016907 -16.721563 
L 48.058798 -16.721563 
L 48.100692 -16.721563 
L 48.142583 -16.721563 
L 48.184475 -16.721563 
L 48.226367 -16.721563 
L 48.268258 -16.721563 
L 48.310151 -16.721563 
L 48.352042 -16.721563 
L 48.393934 -16.721563 
L 48.435828 -16.721563 
L 48.477719 -16.721563 
L 48.519611 -16.721563 
L 48.561503 -16.721563 
L 48.603394 -16.721563 
L 48.645286 -16.721563 
L 48.687179 -16.721563 
L 48.729069 -16.721563 
L 48.770963 -16.721563 
L 48.812854 -16.721563 
L 48.854746 -16.721563 
L 48.896638 -16.721563 
L 48.938529 -16.721563 
L 48.980421 -16.721563 
L 49.022313 -16.721563 
L 49.064206 -16.721563 
L 49.106098 -16.721563 
L 49.147989 -16.721563 
L 49.189881 -16.721563 
L 49.231773 -16.721563 
L 49.273664 -16.721563 
L 49.315556 -16.721563 
L 49.357448 -16.721563 
L 49.399341 -16.721563 
L 49.441233 -16.721563 
L 49.483125 -16.721563 
L 49.483125 -16.721563 
L 49.483125 -16.721563 
L 49.441233 -16.721563 
L 49.399341 -16.721563 
L 49.357448 -16.721563 
L 49.315556 -16.721563 
L 49.273664 -16.721563 
L 49.231773 -16.721563 
L 49.189881 -16.721563 
L 49.147989 -16.721563 
L 49.106098 -16.721563 
L 49.064206 -16.721563 
L 49.022313 -16.721563 
L 48.980421 -16.721563 
L 48.938529 -16.721563 
L 48.896638 -16.721563 
L 48.854746 -16.721563 
L 48.812854 -16.721563 
L 48.770963 -16.721563 
L 48.729069 -16.721563 
L 48.687179 -16.721563 
L 48.645286 -16.721563 
L 48.603394 -16.721563 
L 48.561503 -16.721563 
L 48.519611 -16.721563 
L 48.477719 -16.721563 
L 48.435828 -16.721563 
L 48.393934 -16.721563 
L 48.352042 -16.721563 
L 48.310151 -16.721563 
L 48.268258 -16.721563 
L 48.226367 -16.721563 
L 48.184475 -16.721563 
L 48.142583 -16.721563 
L 48.100692 -16.721563 
L 48.058798 -16.721563 
L 48.016907 -16.721563 
L 47.975016 -16.721563 
L 47.933123 -16.721563 
L 47.891232 -16.721563 
L 47.849339 -16.721563 
L 47.807448 -16.721563 
L 47.765557 -16.721563 
L 47.723663 -16.721563 
L 47.681772 -16.721563 
L 47.639882 -16.721563 
L 47.597988 -16.721563 
L 47.556097 -16.721563 
L 47.514204 -16.721563 
L 47.472313 -16.721563 
L 47.430422 -16.721563 
L 47.388528 -16.721563 
L 47.346637 -16.721563 
L 47.304745 -16.721563 
L 47.262853 -16.721563 
L 47.220962 -16.721563 
L 47.179069 -16.721563 
L 47.137178 -16.721563 
L 47.095287 -16.721563 
L 47.053393 -16.721563 
L 47.011503 -16.721563 
L 46.96961 -16.721563 
L 46.927718 -16.721563 
L 46.885827 -16.721563 
L 46.843934 -16.721563 
L 46.802043 -16.721563 
L 46.760151 -16.721563 
L 46.718258 -16.721563 
L 46.676368 -16.721563 
L 46.634474 -16.721563 
L 46.592583 -16.721563 
L 46.550692 -16.721563 
L 46.508799 -16.721563 
L 46.466908 -16.721563 
L 46.425016 -16.721563 
L 46.383124 -16.721563 
L 46.341233 -16.721563 
L 46.299339 -16.721563 
L 46.257448 -16.721563 
L 46.215556 -16.721563 
L 46.173664 -16.721563 
L 46.131773 -16.721563 
L 46.089881 -16.721563 
L 46.047989 -16.721563 
L 46.006098 -16.721563 
L 45.964204 -16.721563 
L 45.922313 -16.721563 
L 45.880421 -16.721563 
L 45.838529 -16.721563 
L 45.796638 -16.721563 
L 45.754746 -16.721563 
L 45.712854 -16.721563 
L 45.670961 -16.721563 
L 45.629069 -16.721563 
L 45.587178 -16.721563 
L 45.545286 -16.721563 
L 45.503394 -16.721563 
L 45.461503 -16.721563 
L 45.419611 -16.721563 
L 45.377719 -16.721563 
L 45.335827 -16.721563 
L 45.293934 -16.721563 
L 45.252043 -16.721563 
L 45.210151 -16.721563 
L 45.168259 -16.721563 
L 45.126367 -16.721563 
L 45.084476 -16.721563 
L 45.042584 -16.721563 
L 45.000692 -16.721563 
L 44.958799 -16.721563 
L 44.916909 -16.721563 
L 44.875016 -16.721563 
L 44.833124 -16.721563 
L 44.791232 -16.721563 
L 44.749341 -16.721563 
L 44.707449 -16.721563 
L 44.665557 -16.721563 
L 44.623664 -16.721563 
L 44.581774 -16.721563 
L 44.539881 -16.721563 
L 44.497989 -16.721563 
L 44.456097 -16.721563 
L 44.414206 -16.721563 
L 44.372314 -16.721563 
L 44.330422 -16.721563 
L 44.28853 -16.721563 
L 44.246637 -16.721563 
L 44.204746 -16.721563 
L 44.162854 -16.721563 
L 44.120962 -16.721563 
L 44.07907 -16.721563 
L 44.037178 -16.721563 
L 43.995285 -16.721563 
L 43.953395 -16.721563 
L 43.911501 -16.721563 
L 43.86961 -16.721563 
L 43.827719 -16.721563 
L 43.785826 -16.721563 
L 43.743935 -16.721563 
L 43.702041 -16.721563 
L 43.660151 -16.721563 
L 43.61826 -16.721563 
L 43.576366 -16.721563 
L 43.534475 -16.721563 
L 43.492584 -16.721563 
L 43.450691 -16.721563 
L 43.4088 -16.721563 
L 43.366906 -16.721563 
L 43.325016 -16.721563 
L 43.283125 -16.721563 
L 43.241231 -16.721563 
L 43.19934 -16.721563 
L 43.157447 -16.721563 
L 43.115556 -16.721563 
L 43.073665 -16.721563 
L 43.031772 -16.721563 
L 42.989881 -16.721563 
L 42.94799 -16.721563 
L 42.906096 -16.721563 
L 42.864205 -16.721563 
L 42.822312 -16.721563 
L 42.780421 -16.721563 
L 42.73853 -16.721563 
L 42.696637 -16.721563 
L 42.654746 -16.721563 
L 42.612852 -16.721563 
L 42.570961 -16.721563 
L 42.52907 -16.721563 
L 42.487177 -16.721563 
L 42.445286 -16.721563 
L 42.403395 -16.721563 
L 42.361502 -16.721563 
L 42.319611 -16.721563 
L 42.277717 -16.721563 
L 42.235826 -16.721563 
L 42.193935 -16.721563 
L 42.152042 -16.721563 
L 42.110151 -16.721563 
L 42.068259 -16.721563 
L 42.026367 -16.721563 
L 41.984476 -16.721563 
L 41.942582 -16.721563 
L 41.900691 -16.721563 
L 41.858801 -16.721563 
L 41.816907 -16.721563 
L 41.775016 -16.721563 
L 41.733124 -16.721563 
L 41.691232 -16.721563 
L 41.649341 -16.721563 
L 41.607447 -16.721563 
L 41.565556 -16.721563 
L 41.523664 -16.721563 
L 41.481772 -16.721563 
L 41.439881 -16.721563 
L 41.397989 -16.721563 
L 41.356097 -16.721563 
L 41.314206 -16.721563 
L 41.272312 -16.721563 
L 41.230422 -16.721563 
L 41.188529 -16.721563 
L 41.146637 -16.721563 
L 41.104746 -16.721563 
L 41.062854 -16.721563 
L 41.020962 -16.721563 
L 40.97907 -16.721563 
L 40.937177 -16.721563 
L 40.895287 -16.721563 
L 40.853394 -16.721563 
L 40.811502 -16.721563 
L 40.769611 -16.721563 
L 40.727719 -16.721563 
L 40.685827 -16.721563 
L 40.643935 -16.721563 
L 40.602043 -16.721563 
L 40.560152 -16.721563 
L 40.518259 -16.721563 
L 40.476367 -16.721563 
L 40.434476 -16.721563 
L 40.392584 -16.721563 
L 40.350692 -16.721563 
L 40.3088 -16.721563 
L 40.266908 -16.721563 
L 40.225017 -16.721563 
L 40.183125 -16.721563 
L 40.141232 -16.721563 
L 40.09934 -16.721563 
L 40.057449 -16.721563 
L 40.015557 -16.721563 
L 39.973665 -16.721563 
L 39.931773 -16.721563 
L 39.889882 -16.721563 
L 39.84799 -16.721563 
L 39.806097 -16.721563 
L 39.764204 -16.721563 
L 39.722313 -16.721563 
L 39.680421 -16.721563 
L 39.638529 -16.721563 
L 39.596638 -16.721563 
L 39.554744 -16.721563 
L 39.512853 -16.721563 
L 39.470962 -16.721563 
L 39.429069 -16.721563 
L 39.387178 -16.721563 
L 39.345287 -16.721563 
L 39.303394 -16.721563 
L 39.261503 -16.721563 
L 39.219609 -16.721563 
L 39.177718 -16.721563 
L 39.135827 -16.721563 
L 39.093934 -16.721563 
L 39.052043 -16.721563 
L 39.01015 -16.721563 
L 38.968259 -16.721563 
L 38.926368 -16.721563 
L 38.884474 -16.721563 
L 38.842583 -16.721563 
L 38.800692 -16.721563 
L 38.758799 -16.721563 
L 38.716908 -16.721563 
L 38.675015 -16.721563 
L 38.633124 -16.721563 
L 38.591233 -16.721563 
L 38.549339 -16.721563 
L 38.507449 -16.721563 
L 38.465556 -16.721563 
L 38.423664 -16.721563 
L 38.381773 -16.721563 
L 38.33988 -16.721563 
L 38.297989 -16.721563 
L 38.256097 -16.721563 
L 38.214205 -16.721563 
L 38.172314 -16.721563 
L 38.130421 -16.721563 
L 38.088529 -16.721563 
L 38.046638 -16.721563 
L 38.004745 -16.721563 
L 37.962854 -16.721563 
L 37.920961 -16.721563 
L 37.87907 -16.721563 
L 37.837179 -16.721563 
L 37.795286 -16.721563 
L 37.753394 -16.721563 
L 37.711503 -16.721563 
L 37.669611 -16.721563 
L 37.627719 -16.721563 
L 37.585826 -16.721563 
L 37.543935 -16.721563 
L 37.502044 -16.721563 
L 37.460151 -16.721563 
L 37.418259 -16.721563 
L 37.376367 -16.721563 
L 37.334476 -16.721563 
L 37.292584 -16.721563 
L 37.250691 -16.721563 
L 37.2088 -16.721563 
L 37.166909 -16.721563 
L 37.125016 -16.721563 
L 37.083124 -16.721563 
L 37.041232 -16.721563 
L 36.999341 -16.721563 
L 36.957449 -16.721563 
L 36.915556 -16.721563 
L 36.873665 -16.721563 
L 36.831774 -16.721563 
L 36.789881 -16.721563 
L 36.747989 -16.721563 
L 36.706097 -16.721563 
L 36.664206 -16.721563 
L 36.622314 -16.721563 
L 36.580421 -16.721563 
L 36.53853 -16.721563 
L 36.496638 -16.721563 
L 36.454746 -16.721563 
L 36.412855 -16.721563 
L 36.370962 -16.721563 
L 36.329071 -16.721563 
L 36.287179 -16.721563 
L 36.245286 -16.721563 
L 36.203396 -16.721563 
L 36.161503 -16.721563 
L 36.119611 -16.721563 
L 36.07772 -16.721563 
L 36.035827 -16.721563 
L 35.993936 -16.721563 
L 35.952043 -16.721563 
L 35.910151 -16.721563 
L 35.868261 -16.721563 
L 35.826368 -16.721563 
L 35.784476 -16.721563 
L 35.742585 -16.721563 
L 35.700692 -16.721563 
L 35.658801 -16.721563 
L 35.616908 -16.721563 
L 35.575017 -16.721563 
L 35.533126 -16.721563 
L 35.491231 -16.721563 
L 35.44934 -16.721563 
L 35.407447 -16.721563 
L 35.365556 -16.721563 
L 35.323665 -16.721563 
L 35.281772 -16.721563 
L 35.239881 -16.721563 
L 35.197989 -16.721563 
L 35.156097 -16.721563 
L 35.114205 -16.721563 
L 35.072312 -16.721563 
L 35.030421 -16.721563 
L 34.98853 -16.721563 
L 34.946637 -16.721563 
L 34.904746 -16.721563 
L 34.862853 -16.721563 
L 34.820962 -16.721563 
L 34.77907 -16.721563 
L 34.737177 -16.721563 
L 34.695286 -16.721563 
L 34.653395 -16.721563 
L 34.611502 -16.721563 
L 34.569611 -16.721563 
L 34.527718 -16.721563 
L 34.485827 -16.721563 
L 34.443935 -16.721563 
L 34.402042 -16.721563 
L 34.360151 -16.721563 
L 34.318259 -16.721563 
L 34.276367 -16.721563 
L 34.234476 -16.721563 
L 34.192583 -16.721563 
L 34.150692 -16.721563 
L 34.1088 -16.721563 
L 34.066907 -16.721563 
L 34.025016 -16.721563 
L 33.983124 -16.721563 
L 33.941232 -16.721563 
L 33.899341 -16.721563 
L 33.857448 -16.721563 
L 33.815557 -16.721563 
L 33.773664 -16.721563 
L 33.731772 -16.721563 
L 33.689882 -16.721563 
L 33.647989 -16.721563 
L 33.606097 -16.721563 
L 33.564206 -16.721563 
L 33.522313 -16.721563 
L 33.480422 -16.721563 
L 33.438529 -16.721563 
L 33.396637 -16.721563 
L 33.354747 -16.721563 
L 33.312854 -16.721563 
L 33.270962 -16.721563 
L 33.22907 -16.721563 
L 33.187178 -16.721563 
L 33.145287 -16.721563 
L 33.103394 -16.721563 
L 33.061503 -16.721563 
L 33.019612 -16.721563 
L 32.977719 -16.721563 
L 32.935827 -16.721563 
L 32.893935 -16.721563 
L 32.852044 -16.721563 
L 32.810152 -16.721563 
L 32.768259 -16.721563 
L 32.726368 -16.721563 
L 32.684477 -16.721563 
L 32.642584 -16.721563 
L 32.600692 -16.721563 
L 32.5588 -16.721563 
L 32.516909 -16.721563 
L 32.475017 -16.721563 
L 32.433124 -16.721563 
L 32.391233 -16.721563 
L 32.34934 -16.721563 
L 32.307449 -16.721563 
L 32.265557 -16.721563 
L 32.223665 -16.721563 
L 32.181774 -16.721563 
L 32.139882 -16.721563 
L 32.097989 -16.721563 
L 32.056098 -16.721563 
L 32.014206 -16.721563 
L 31.972314 -16.721563 
L 31.930422 -16.721563 
L 31.88853 -16.721563 
L 31.846639 -16.721563 
L 31.804746 -16.721563 
L 31.762854 -16.721563 
L 31.720963 -16.721563 
L 31.679071 -16.721563 
L 31.637179 -16.721563 
L 31.595288 -16.721563 
L 31.553395 -16.721563 
L 31.511504 -16.721563 
L 31.469611 -16.721563 
L 31.427719 -16.721563 
L 31.385828 -16.721563 
L 31.343936 -16.721563 
L 31.302044 -16.721563 
L 31.260151 -16.721563 
L 31.218259 -16.721563 
L 31.176368 -16.721563 
L 31.134475 -16.721563 
L 31.092583 -16.721563 
L 31.050692 -16.721563 
L 31.008799 -16.721563 
L 30.966908 -16.721563 
L 30.925015 -16.721563 
L 30.883124 -16.721563 
L 30.841233 -16.721563 
L 30.79934 -16.721563 
L 30.757448 -16.721563 
L 30.715556 -16.721563 
L 30.673664 -16.721563 
L 30.631773 -16.721563 
L 30.58988 -16.721563 
L 30.547989 -16.721563 
L 30.506098 -16.721563 
L 30.464205 -16.721563 
L 30.422313 -16.721563 
L 30.380421 -16.721563 
L 30.33853 -16.721563 
L 30.296638 -16.721563 
L 30.254745 -16.721563 
L 30.212854 -16.721563 
L 30.170961 -16.721563 
L 30.12907 -16.721563 
L 30.087178 -16.721563 
L 30.045286 -16.721563 
L 30.003395 -16.721563 
L 29.961503 -16.721563 
L 29.91961 -16.721563 
L 29.877719 -16.721563 
L 29.835827 -16.721563 
L 29.793935 -16.721563 
L 29.752043 -16.721563 
L 29.710152 -16.721563 
L 29.66826 -16.721563 
L 29.626367 -16.721563 
L 29.584475 -16.721563 
L 29.542584 -16.721563 
L 29.500692 -16.721563 
L 29.4588 -16.721563 
L 29.416908 -16.721563 
L 29.375016 -16.721563 
L 29.333125 -16.721563 
L 29.291233 -16.721563 
L 29.24934 -16.721563 
L 29.207449 -16.721563 
L 29.165557 -16.721563 
L 29.123665 -16.721563 
L 29.081773 -16.721563 
L 29.039881 -16.721563 
L 28.997989 -16.721563 
L 28.956098 -16.721563 
L 28.914205 -16.721563 
L 28.872314 -16.721563 
L 28.830422 -16.721563 
L 28.78853 -16.721563 
L 28.746638 -16.721563 
L 28.704746 -16.721563 
L 28.662854 -16.721563 
L 28.620963 -16.721563 
L 28.57907 -16.721563 
L 28.537179 -16.721563 
L 28.495287 -16.721563 
L 28.453395 -16.721563 
L 28.411503 -16.721563 
L 28.369611 -16.721563 
L 28.327719 -16.721563 
L 28.285827 -16.721563 
L 28.243935 -16.721563 
L 28.202044 -16.721563 
L 28.160152 -16.721563 
L 28.11826 -16.721563 
L 28.076368 -16.721563 
L 28.034476 -16.721563 
L 27.992583 -16.721563 
L 27.950691 -16.721563 
L 27.908799 -16.721563 
L 27.866908 -16.721563 
L 27.825015 -16.721563 
L 27.783123 -16.721563 
L 27.741232 -16.721563 
L 27.69934 -16.721563 
L 27.657448 -16.721563 
L 27.615556 -16.721563 
L 27.573664 -16.721563 
L 27.531773 -16.721563 
L 27.489881 -16.721563 
L 27.447988 -16.721563 
L 27.406097 -16.721563 
L 27.364205 -16.721563 
L 27.322313 -16.721563 
L 27.280421 -16.721563 
L 27.238529 -16.721563 
L 27.196637 -16.721563 
L 27.154745 -16.721563 
L 27.112853 -16.721563 
L 27.070962 -16.721563 
L 27.029069 -16.721563 
L 26.987178 -16.721563 
L 26.945287 -16.721563 
L 26.903394 -16.721563 
L 26.861502 -16.721563 
L 26.819611 -16.721563 
L 26.777718 -16.721563 
L 26.735827 -16.721563 
L 26.693934 -16.721563 
L 26.652043 -16.721563 
L 26.610152 -16.721563 
L 26.568259 -16.721563 
L 26.526367 -16.721563 
L 26.484474 -16.721563 
L 26.442584 -16.721563 
L 26.400692 -16.721563 
L 26.358799 -16.721563 
L 26.316908 -16.721563 
L 26.275017 -16.721563 
L 26.233124 -16.721563 
L 26.191232 -16.721563 
L 26.149341 -16.721563 
L 26.107449 -16.721563 
L 26.065557 -16.721563 
L 26.023664 -16.721563 
L 25.981773 -16.721563 
L 25.939881 -16.721563 
L 25.897989 -16.721563 
L 25.856097 -16.721563 
L 25.814205 -16.721563 
L 25.772313 -16.721563 
L 25.730422 -16.721563 
L 25.688529 -16.721563 
L 25.646638 -16.721563 
L 25.604746 -16.721563 
L 25.562854 -16.721563 
L 25.520962 -16.721563 
L 25.479071 -16.721563 
L 25.437178 -16.721563 
L 25.395287 -16.721563 
L 25.353394 -16.721563 
L 25.311503 -16.721563 
L 25.269611 -16.721563 
L 25.227718 -16.721563 
L 25.185828 -16.721563 
L 25.143935 -16.721563 
L 25.102043 -16.721563 
L 25.060152 -16.721563 
L 25.018259 -16.721563 
L 24.976368 -16.721563 
L 24.934476 -16.721563 
L 24.892583 -16.721563 
L 24.850692 -16.721563 
L 24.808801 -16.721563 
L 24.766908 -16.721563 
L 24.725017 -16.721563 
L 24.683124 -16.721563 
L 24.641233 -16.721563 
L 24.599341 -16.721563 
L 24.557449 -16.721563 
L 24.515557 -16.721563 
L 24.473665 -16.721563 
L 24.431773 -16.721563 
L 24.389882 -16.721563 
L 24.347989 -16.721563 
L 24.306097 -16.721563 
L 24.264206 -16.721563 
L 24.222314 -16.721563 
L 24.180422 -16.721563 
L 24.138531 -16.721563 
L 24.096638 -16.721563 
L 24.054747 -16.721563 
L 24.012854 -16.721563 
L 23.970962 -16.721563 
L 23.929072 -16.721563 
L 23.887179 -16.721563 
L 23.845287 -16.721563 
L 23.803394 -16.721563 
L 23.761503 -16.721563 
L 23.719612 -16.721563 
L 23.677719 -16.721563 
L 23.635827 -16.721563 
L 23.593936 -16.721563 
L 23.552044 -16.721563 
L 23.510152 -16.721563 
L 23.468261 -16.721563 
L 23.426368 -16.721563 
L 23.384477 -16.721563 
L 23.342584 -16.721563 
L 23.300693 -16.721563 
L 23.258801 -16.721563 
L 23.216909 -16.721563 
L 23.175017 -16.721563 
L 23.133124 -16.721563 
L 23.091233 -16.721563 
L 23.049341 -16.721563 
L 23.007449 -16.721563 
L 22.965558 -16.721563 
L 22.923666 -16.721563 
L 22.881773 -16.721563 
L 22.839882 -16.721563 
L 22.797991 -16.721563 
L 22.756098 -16.721563 
L 22.714206 -16.721563 
L 22.672314 -16.721563 
L 22.630423 -16.721563 
L 22.588531 -16.721563 
L 22.546638 -16.721563 
L 22.504747 -16.721563 
L 22.462855 -16.721563 
L 22.420963 -16.721563 
L 22.379071 -16.721563 
L 22.337179 -16.721563 
L 22.295288 -16.721563 
L 22.253396 -16.721563 
L 22.211503 -16.721563 
L 22.169612 -16.721563 
L 22.127721 -16.721563 
L 22.085828 -16.721563 
L 22.043937 -16.721563 
L 22.002044 -16.721563 
L 21.960153 -16.721563 
L 21.918261 -16.721563 
L 21.876368 -16.721563 
L 21.834477 -16.721563 
L 21.792584 -16.721563 
L 21.750693 -16.721563 
L 21.708802 -16.721563 
L 21.666909 -16.721563 
L 21.625017 -16.721563 
L 21.583126 -16.721563 
L 21.541232 -16.721563 
L 21.499341 -16.721563 
L 21.457449 -16.721563 
L 21.415557 -16.721563 
L 21.373665 -16.721563 
L 21.331772 -16.721563 
L 21.289881 -16.721563 
L 21.247989 -16.721563 
L 21.206097 -16.721563 
L 21.164206 -16.721563 
L 21.122314 -16.721563 
L 21.080421 -16.721563 
L 21.03853 -16.721563 
L 20.996638 -16.721563 
L 20.954746 -16.721563 
L 20.912854 -16.721563 
L 20.870962 -16.721563 
L 20.829071 -16.721563 
L 20.787179 -16.721563 
L 20.745286 -16.721563 
L 20.703395 -16.721563 
L 20.661503 -16.721563 
L 20.619611 -16.721563 
L 20.57772 -16.721563 
L 20.535827 -16.721563 
L 20.493936 -16.721563 
L 20.452044 -16.721563 
L 20.410151 -16.721563 
L 20.36826 -16.721563 
L 20.326368 -16.721563 
L 20.284476 -16.721563 
L 20.242585 -16.721563 
L 20.200692 -16.721563 
L 20.158801 -16.721563 
L 20.116909 -16.721563 
L 20.075016 -16.721563 
L 20.033125 -16.721563 
L 19.991232 -16.721563 
L 19.949341 -16.721563 
L 19.90745 -16.721563 
L 19.865557 -16.721563 
L 19.823665 -16.721563 
L 19.781774 -16.721563 
L 19.739882 -16.721563 
L 19.69799 -16.721563 
L 19.656097 -16.721563 
L 19.614206 -16.721563 
L 19.572315 -16.721563 
L 19.530422 -16.721563 
L 19.48853 -16.721563 
L 19.446639 -16.721563 
L 19.404745 -16.721563 
L 19.362854 -16.721563 
L 19.320961 -16.721563 
L 19.279069 -16.721563 
L 19.237178 -16.721563 
L 19.195286 -16.721563 
L 19.153394 -16.721563 
L 19.111503 -16.721563 
L 19.06961 -16.721563 
L 19.027719 -16.721563 
L 18.985827 -16.721563 
L 18.943934 -16.721563 
L 18.902043 -16.721563 
L 18.860151 -16.721563 
L 18.818259 -16.721563 
L 18.776368 -16.721563 
L 18.734475 -16.721563 
L 18.692583 -16.721563 
L 18.650691 -16.721563 
L 18.608799 -16.721563 
L 18.566908 -16.721563 
L 18.525016 -16.721563 
L 18.483124 -16.721563 
L 18.441233 -16.721563 
L 18.39934 -16.721563 
L 18.357448 -16.721563 
L 18.315557 -16.721563 
L 18.273665 -16.721563 
L 18.231773 -16.721563 
L 18.189881 -16.721563 
L 18.147989 -16.721563 
L 18.106098 -16.721563 
L 18.064205 -16.721563 
L 18.022313 -16.721563 
L 17.980421 -16.721563 
L 17.93853 -16.721563 
L 17.896638 -16.721563 
L 17.854746 -16.721563 
L 17.812854 -16.721563 
L 17.770963 -16.721563 
L 17.72907 -16.721563 
L 17.687178 -16.721563 
L 17.645288 -16.721563 
L 17.603394 -16.721563 
L 17.561503 -16.721563 
L 17.51961 -16.721563 
L 17.477719 -16.721563 
L 17.435828 -16.721563 
L 17.393934 -16.721563 
L 17.352043 -16.721563 
L 17.310151 -16.721563 
L 17.268259 -16.721563 
L 17.226368 -16.721563 
L 17.184475 -16.721563 
L 17.142584 -16.721563 
L 17.100693 -16.721563 
L 17.058799 -16.721563 
L 17.016909 -16.721563 
L 16.975018 -16.721563 
L 16.933124 -16.721563 
L 16.891233 -16.721563 
L 16.84934 -16.721563 
L 16.807449 -16.721563 
L 16.765558 -16.721563 
L 16.723664 -16.721563 
L 16.681774 -16.721563 
L 16.63988 -16.721563 
L 16.597989 -16.721563 
L 16.556098 -16.721563 
L 16.514205 -16.721563 
L 16.472314 -16.721563 
L 16.430423 -16.721563 
L 16.38853 -16.721563 
L 16.346639 -16.721563 
L 16.304748 -16.721563 
L 16.262854 -16.721563 
L 16.220963 -16.721563 
L 16.17907 -16.721563 
L 16.137179 -16.721563 
L 16.095288 -16.721563 
L 16.053395 -16.721563 
L 16.011504 -16.721563 
L 15.96961 -16.721563 
L 15.927719 -16.721563 
L 15.885828 -16.721563 
L 15.843935 -16.721563 
L 15.802044 -16.721563 
L 15.760153 -16.721563 
L 15.71826 -16.721563 
L 15.676369 -16.721563 
L 15.634477 -16.721563 
L 15.592584 -16.721563 
L 15.550694 -16.721563 
L 15.5088 -16.721563 
L 15.466909 -16.721563 
L 15.425018 -16.721563 
L 15.383125 -16.721563 
L 15.341234 -16.721563 
L 15.29934 -16.721563 
L 15.257449 -16.721563 
L 15.215559 -16.721563 
L 15.173665 -16.721563 
L 15.131774 -16.721563 
L 15.089882 -16.721563 
L 15.04799 -16.721563 
L 15.006099 -16.721563 
L 14.964207 -16.721563 
L 14.922315 -16.721563 
L 14.880424 -16.721563 
L 14.83853 -16.721563 
L 14.796639 -16.721563 
L 14.754747 -16.721563 
L 14.712855 -16.721563 
L 14.670964 -16.721563 
L 14.62907 -16.721563 
L 14.58718 -16.721563 
L 14.545287 -16.721563 
L 14.503395 -16.721563 
L 14.461504 -16.721563 
L 14.419612 -16.721563 
L 14.37772 -16.721563 
L 14.335829 -16.721563 
L 14.293937 -16.721563 
L 14.252045 -16.721563 
L 14.210152 -16.721563 
L 14.16826 -16.721563 
L 14.126369 -16.721563 
L 14.084477 -16.721563 
L 14.042585 -16.721563 
L 14.000693 -16.721563 
L 13.958801 -16.721563 
L 13.91691 -16.721563 
L 13.875017 -16.721563 
L 13.833125 -16.721563 
L 13.791234 -16.721563 
L 13.749342 -16.721563 
L 13.70745 -16.721563 
L 13.665558 -16.721563 
L 13.623667 -16.721563 
L 13.581775 -16.721563 
L 13.539883 -16.721563 
L 13.497989 -16.721563 
L 13.456097 -16.721563 
L 13.414206 -16.721563 
L 13.372312 -16.721563 
L 13.330422 -16.721563 
L 13.288531 -16.721563 
L 13.246637 -16.721563 
L 13.204746 -16.721563 
L 13.162854 -16.721563 
L 13.120962 -16.721563 
L 13.079071 -16.721563 
L 13.037177 -16.721563 
L 12.995287 -16.721563 
L 12.953396 -16.721563 
L 12.911502 -16.721563 
L 12.869611 -16.721563 
L 12.827719 -16.721563 
L 12.785827 -16.721563 
L 12.743936 -16.721563 
L 12.702043 -16.721563 
L 12.660152 -16.721563 
L 12.618261 -16.721563 
L 12.576367 -16.721563 
L 12.534476 -16.721563 
L 12.492583 -16.721563 
L 12.450692 -16.721563 
L 12.408801 -16.721563 
L 12.366908 -16.721563 
L 12.325017 -16.721563 
L 12.283126 -16.721563 
L 12.241232 -16.721563 
L 12.199341 -16.721563 
L 12.157448 -16.721563 
L 12.115557 -16.721563 
L 12.073666 -16.721563 
L 12.031773 -16.721563 
L 11.989882 -16.721563 
L 11.947991 -16.721563 
L 11.906097 -16.721563 
L 11.864207 -16.721563 
L 11.822313 -16.721563 
L 11.780422 -16.721563 
L 11.738531 -16.721563 
L 11.696638 -16.721563 
L 11.654747 -16.721563 
L 11.612856 -16.721563 
L 11.570962 -16.721563 
L 11.529072 -16.721563 
L 11.487178 -16.721563 
L 11.445287 -16.721563 
L 11.403396 -16.721563 
L 11.361503 -16.721563 
L 11.319612 -16.721563 
L 11.27772 -16.721563 
L 11.235828 -16.721563 
L 11.193937 -16.721563 
L 11.152043 -16.721563 
L 11.110152 -16.721563 
L 11.068261 -16.721563 
L 11.026368 -16.721563 
L 10.984477 -16.721563 
L 10.942585 -16.721563 
L 10.900693 -16.721563 
L 10.858802 -16.721563 
L 10.816908 -16.721563 
L 10.775017 -16.721563 
L 10.733125 -16.721563 
L 10.691233 -16.721563 
L 10.649342 -16.721563 
L 10.60745 -16.721563 
L 10.565558 -16.721563 
L 10.523667 -16.721563 
L 10.481773 -16.721563 
L 10.439882 -16.721563 
L 10.39799 -16.721563 
L 10.356098 -16.721563 
L 10.314207 -16.721563 
L 10.272315 -16.721563 
L 10.230423 -16.721563 
L 10.188531 -16.721563 
L 10.146638 -16.721563 
L 10.104747 -16.721563 
L 10.062855 -16.721563 
L 10.020963 -16.721563 
L 9.979072 -16.721563 
L 9.93718 -16.721563 
L 9.895286 -16.721563 
L 9.853394 -16.721563 
L 9.811503 -16.721563 
L 9.769611 -16.721563 
L 9.727719 -16.721563 
L 9.685827 -16.721563 
L 9.643935 -16.721563 
L 9.602044 -16.721563 
L 9.560152 -16.721563 
L 9.518259 -16.721563 
L 9.476367 -16.721563 
L 9.434475 -16.721563 
L 9.392584 -16.721563 
L 9.350692 -16.721563 
L 9.3088 -16.721563 
L 9.266909 -16.721563 
L 9.225017 -16.721563 
L 9.183124 -16.721563 
L 9.141234 -16.721563 
L 9.09934 -16.721563 
L 9.057449 -16.721563 
L 9.015557 -16.721563 
L 8.973665 -16.721563 
L 8.931774 -16.721563 
L 8.88988 -16.721563 
L 8.847989 -16.721563 
L 8.806097 -16.721563 
L 8.764205 -16.721563 
L 8.722314 -16.721563 
L 8.680422 -16.721563 
L 8.63853 -16.721563 
L 8.596639 -16.721563 
L 8.554745 -16.721563 
L 8.512855 -16.721563 
L 8.470964 -16.721563 
L 8.42907 -16.721563 
L 8.387179 -16.721563 
L 8.345287 -16.721563 
L 8.303395 -16.721563 
L 8.261504 -16.721563 
L 8.21961 -16.721563 
L 8.17772 -16.721563 
L 8.135827 -16.721563 
L 8.093935 -16.721563 
L 8.052044 -16.721563 
L 8.010151 -16.721563 
L 7.96826 -16.721563 
L 7.926369 -16.721563 
L 7.884476 -16.721563 
L 7.842585 -16.721563 
L 7.800694 -16.721563 
L 7.7588 -16.721563 
L 7.716909 -16.721563 
L 7.675016 -16.721563 
L 7.633125 -16.721563 
z
" style="stroke: #8ebad9; stroke-opacity: 0.5"/>
    </defs>
    <g clip-path="url(#p52f7cf9831)">
     <use xlink:href="#m962506e213" x="0" y="43.181562" style="fill: #8ebad9; fill-opacity: 0.5; stroke: #8ebad9; stroke-opacity: 0.5"/>
    </g>
   </g>
   <g id="matplotlib.axis_1">
    <g id="xtick_1">
     <g id="line2d_1">
      <defs>
       <path id="m4fc45a441a" d="M 0 0 
L 0 3.5 
" style="stroke: #000000; stroke-width: 1.5"/>
      </defs>
      <g>
       <use xlink:href="#m4fc45a441a" x="7.633125" y="27.72" style="stroke: #000000; stroke-width: 1.5"/>
      </g>
     </g>
     <g id="text_1">
      <text style="font: 9px 'Arial', sans-serif; text-anchor: middle" x="7.633125" y="41.162031" transform="rotate(-0 7.633125 41.162031)">−15</text>
     </g>
    </g>
    <g id="xtick_2">
     <g id="line2d_2">
      <g>
       <use xlink:href="#m4fc45a441a" x="49.483125" y="27.72" style="stroke: #000000; stroke-width: 1.5"/>
      </g>
     </g>
     <g id="text_2">
      <text style="font: 9px 'Arial', sans-serif; text-anchor: middle" x="49.483125" y="41.162031" transform="rotate(-0 49.483125 41.162031)">15</text>
     </g>
    </g>
    <g id="text_3">
     <!-- $x_{t+1}$ -->
     <g transform="translate(20.323125 40.391562)">
      <text>
       <tspan style="font: 9px 'Arial'" x="0" y="-0.328125">x</tspan>
       <tspan style="font: 6.3px 'Arial'" x="4.656811 7.601938 12.475825" y="2.3600624999999997">t+1</tspan>
      </text>
     </g>
    </g>
   </g>
   <g id="line2d_3">
    <path d="M 7.633125 26.46 
L 26.735827 26.353433 
L 27.280421 26.101002 
L 27.69934 25.63624 
L 28.076368 24.849531 
L 28.453395 23.53329 
L 28.872314 21.242933 
L 29.375016 17.192034 
L 31.092583 1.67917 
L 31.343936 1.26 
L 31.469611 1.355264 
L 31.679071 1.959148 
L 31.972314 3.660378 
L 32.433124 7.837325 
L 33.815557 21.187114 
L 34.318259 23.847636 
L 34.77907 25.235687 
L 35.239881 25.945528 
L 35.700692 26.266161 
L 36.329071 26.417047 
L 37.795286 26.45942 
L 49.483125 26.46 
L 49.483125 26.46 
" clip-path="url(#p52f7cf9831)" style="fill: none; stroke: #8ebad9; stroke-width: 2; stroke-linecap: square"/>
   </g>
   <g id="patch_3">
    <path d="M 7.633125 27.72 
L 49.483125 27.72 
" style="fill: none; stroke: #000000; stroke-width: 1.5; stroke-linejoin: miter; stroke-linecap: square"/>
   </g>
  </g>
 </g>
 <defs>
  <clipPath id="p52f7cf9831">
   <rect x="7.633125" y="0" width="41.85" height="27.72"/>
  </clipPath>
 </defs>
</svg>
