<?xml version="1.0" encoding="utf-8" standalone="no"?>
<!DOCTYPE svg PUBLIC "-//W3C//DTD SVG 1.1//EN"
  "http://www.w3.org/Graphics/SVG/1.1/DTD/svg11.dtd">
<svg xmlns:xlink="http://www.w3.org/1999/xlink" width="182.199687pt" height="101.679922pt" viewBox="0 0 182.199687 101.679922" xmlns="http://www.w3.org/2000/svg" version="1.1">
 <metadata>
  <rdf:RDF xmlns:dc="http://purl.org/dc/elements/1.1/" xmlns:cc="http://creativecommons.org/ns#" xmlns:rdf="http://www.w3.org/1999/02/22-rdf-syntax-ns#">
   <cc:Work>
    <dc:type rdf:resource="http://purl.org/dc/dcmitype/StillImage"/>
    <dc:date>2024-11-20T14:47:42.204229</dc:date>
    <dc:format>image/svg+xml</dc:format>
    <dc:creator>
     <cc:Agent>
      <dc:title>Matplotlib v3.9.2, https://matplotlib.org/</dc:title>
     </cc:Agent>
    </dc:creator>
   </cc:Work>
  </rdf:RDF>
 </metadata>
 <defs>
  <style type="text/css">*{stroke-linejoin: round; stroke-linecap: butt}</style>
 </defs>
 <g id="figure_1">
  <g id="patch_1">
   <path d="M 0 101.679922 
L 182.199687 101.679922 
L 182.199687 0 
L 0 0 
z
" style="fill: #ffffff"/>
  </g>
  <g id="axes_1">
   <g id="patch_2">
    <path d="M 32.636562 66.059297 
L 96.045653 66.059297 
L 96.045653 10.619297 
L 32.636562 10.619297 
z
" style="fill: #ffffff"/>
   </g>
   <g id="PolyCollection_1">
    <defs>
     <path id="mc825e15e15" d="M 32.636562 -37.394705 
L 32.636562 -36.175025 
L 33.904744 -37.006625 
L 35.172926 -37.949105 
L 36.441108 -38.891585 
L 37.70929 -39.834065 
L 38.977472 -40.831985 
L 40.245653 -41.829905 
L 41.513835 -42.883265 
L 42.782017 -43.881185 
L 44.050199 -44.934545 
L 45.318381 -45.987905 
L 46.586562 -47.041265 
L 47.854744 -48.094625 
L 49.122926 -49.147985 
L 50.391108 -50.201345 
L 51.65929 -51.254705 
L 52.927472 -52.363505 
L 54.195653 -53.416865 
L 55.463835 -54.525665 
L 56.732017 -55.579025 
L 58.000199 -56.687825 
L 59.268381 -57.796625 
L 60.536562 -58.849985 
L 61.804744 -59.958785 
L 63.072926 -61.067585 
L 64.341108 -62.176385 
L 65.60929 -63.285185 
L 66.877472 -64.393985 
L 68.145653 -65.558225 
L 69.413835 -66.667025 
L 70.682017 -67.775825 
L 71.950199 -68.940065 
L 73.218381 -70.048865 
L 74.486562 -71.213105 
L 75.754744 -72.321905 
L 77.022926 -73.486145 
L 78.291108 -74.650385 
L 79.55929 -75.814625 
L 80.827472 -76.978865 
L 82.095653 -78.143105 
L 83.363835 -79.307345 
L 84.632017 -80.527025 
L 85.900199 -81.691265 
L 87.168381 -82.910945 
L 88.436562 -84.130625 
L 89.704744 -85.350305 
L 90.972926 -86.625425 
L 92.241108 -87.900545 
L 93.50929 -89.286545 
L 94.777472 -91.060625 
L 94.777472 -91.060625 
L 94.777472 -91.060625 
L 93.50929 -90.506225 
L 92.241108 -89.674625 
L 90.972926 -88.732145 
L 89.704744 -87.789665 
L 88.436562 -86.847185 
L 87.168381 -85.849265 
L 85.900199 -84.851345 
L 84.632017 -83.797985 
L 83.363835 -82.800065 
L 82.095653 -81.746705 
L 80.827472 -80.693345 
L 79.55929 -79.639985 
L 78.291108 -78.586625 
L 77.022926 -77.533265 
L 75.754744 -76.479905 
L 74.486562 -75.426545 
L 73.218381 -74.317745 
L 71.950199 -73.264385 
L 70.682017 -72.155585 
L 69.413835 -71.102225 
L 68.145653 -69.993425 
L 66.877472 -68.884625 
L 65.60929 -67.831265 
L 64.341108 -66.722465 
L 63.072926 -65.613665 
L 61.804744 -64.504865 
L 60.536562 -63.396065 
L 59.268381 -62.287265 
L 58.000199 -61.123025 
L 56.732017 -60.014225 
L 55.463835 -58.905425 
L 54.195653 -57.741185 
L 52.927472 -56.632385 
L 51.65929 -55.468145 
L 50.391108 -54.359345 
L 49.122926 -53.195105 
L 47.854744 -52.030865 
L 46.586562 -50.866625 
L 45.318381 -49.702385 
L 44.050199 -48.538145 
L 42.782017 -47.373905 
L 41.513835 -46.154225 
L 40.245653 -44.989985 
L 38.977472 -43.770305 
L 37.70929 -42.550625 
L 36.441108 -41.330945 
L 35.172926 -40.055825 
L 33.904744 -38.780705 
L 32.636562 -37.394705 
z
" style="stroke: #808080; stroke-opacity: 0.2"/>
    </defs>
    <g clip-path="url(#p56fcbcfd2b)">
     <use xlink:href="#mc825e15e15" x="0" y="101.679922" style="fill: #808080; fill-opacity: 0.2; stroke: #808080; stroke-opacity: 0.2"/>
    </g>
   </g>
   <g id="matplotlib.axis_1">
    <g id="xtick_1">
     <g id="line2d_1">
      <defs>
       <path id="m7ba3bfaa1c" d="M 0 0 
L 0 3.5 
" style="stroke: #000000; stroke-width: 1.5"/>
      </defs>
      <g>
       <use xlink:href="#m7ba3bfaa1c" x="32.636562" y="66.059297" style="stroke: #000000; stroke-width: 1.5"/>
      </g>
     </g>
     <g id="text_1">
      <text style="font: 9px 'Arial', sans-serif; text-anchor: middle" x="32.636562" y="79.897891" transform="rotate(-0 32.636562 79.897891)">0</text>
     </g>
    </g>
    <g id="xtick_2">
     <g id="line2d_2">
      <g>
       <use xlink:href="#m7ba3bfaa1c" x="96.045653" y="66.059297" style="stroke: #000000; stroke-width: 1.5"/>
      </g>
     </g>
     <g id="text_2">
      <text style="font: 9px 'Arial', sans-serif; text-anchor: middle" x="96.045653" y="79.897891" transform="rotate(-0 96.045653 79.897891)">1</text>
     </g>
    </g>
    <g id="text_3">
     <text style="font: 9px 'Arial', sans-serif; text-anchor: middle" x="64.341108" y="92.608203" transform="rotate(-0 64.341108 92.608203)">Exp. coverage</text>
    </g>
   </g>
   <g id="matplotlib.axis_2">
    <g id="ytick_1">
     <g id="line2d_3">
      <defs>
       <path id="mdec04b3975" d="M 0 0 
L -3.5 0 
" style="stroke: #000000; stroke-width: 1.5"/>
      </defs>
      <g>
       <use xlink:href="#mdec04b3975" x="32.636562" y="66.059297" style="stroke: #000000; stroke-width: 1.5"/>
      </g>
     </g>
     <g id="text_4">
      <text style="font: 9px 'Arial', sans-serif; text-anchor: end" x="25.636562" y="69.478594" transform="rotate(-0 25.636562 69.478594)">0</text>
     </g>
    </g>
    <g id="ytick_2">
     <g id="line2d_4">
      <g>
       <use xlink:href="#mdec04b3975" x="32.636562" y="10.619297" style="stroke: #000000; stroke-width: 1.5"/>
      </g>
     </g>
     <g id="text_5">
      <text style="font: 9px 'Arial', sans-serif; text-anchor: end" x="25.636562" y="14.038594" transform="rotate(-0 25.636562 14.038594)">1</text>
     </g>
    </g>
    <g id="text_6">
     <text style="font: 9px 'Arial', sans-serif; text-anchor: middle" x="14.038594" y="38.339297" transform="rotate(-90 14.038594 38.339297)">Emp. coverage</text>
    </g>
   </g>
   <g id="line2d_5">
    <path d="M 33.270653 65.560337 
L 33.270653 64.784177 
L 34.538835 64.784177 
L 34.538835 63.841697 
L 35.807017 63.841697 
L 35.807017 62.732897 
L 37.075199 62.732897 
L 37.075199 61.790417 
L 38.343381 61.790417 
L 38.343381 60.681617 
L 39.611562 60.681617 
L 39.611562 60.127217 
L 40.879744 60.127217 
L 40.879744 59.129297 
L 42.147926 59.129297 
L 42.147926 58.685777 
L 43.416108 58.685777 
L 43.416108 58.075937 
L 44.68429 58.075937 
L 44.68429 56.911697 
L 45.952472 56.911697 
L 45.952472 56.135537 
L 47.220653 56.135537 
L 47.220653 55.414817 
L 48.488835 55.414817 
L 48.488835 54.860417 
L 49.757017 54.860417 
L 49.757017 54.195137 
L 51.025199 54.195137 
L 51.025199 53.252657 
L 52.293381 53.252657 
L 52.293381 52.531937 
L 53.561562 52.531937 
L 53.561562 52.088417 
L 54.829744 52.088417 
L 54.829744 51.145937 
L 56.097926 51.145937 
L 56.097926 50.369777 
L 57.366108 50.369777 
L 57.366108 49.593617 
L 58.63429 49.593617 
L 58.63429 48.928337 
L 59.902472 48.928337 
L 59.902472 48.484817 
L 61.170653 48.484817 
L 61.170653 47.653217 
L 62.438835 47.653217 
L 62.438835 46.766177 
L 63.707017 46.766177 
L 63.707017 45.768257 
L 64.975199 45.768257 
L 64.975199 45.102977 
L 66.243381 45.102977 
L 66.243381 43.827857 
L 67.511562 43.827857 
L 67.511562 43.218017 
L 68.779744 43.218017 
L 68.779744 42.109217 
L 70.047926 42.109217 
L 70.047926 41.388497 
L 71.316108 41.388497 
L 71.316108 40.723217 
L 72.58429 40.723217 
L 72.58429 39.503537 
L 73.852472 39.503537 
L 73.852472 38.339297 
L 75.120653 38.339297 
L 75.120653 37.285937 
L 76.388835 37.285937 
L 76.388835 36.010817 
L 77.657017 36.010817 
L 77.657017 34.347617 
L 78.925199 34.347617 
L 78.925199 32.961617 
L 80.193381 32.961617 
L 80.193381 31.520177 
L 81.461562 31.520177 
L 81.461562 30.189617 
L 82.729744 30.189617 
L 82.729744 28.470977 
L 83.997926 28.470977 
L 83.997926 26.197937 
L 85.266108 26.197937 
L 85.266108 24.257537 
L 86.53429 24.257537 
L 86.53429 22.206257 
L 87.802472 22.206257 
L 87.802472 20.653937 
L 89.070653 20.653937 
L 89.070653 18.491777 
L 90.338835 18.491777 
L 90.338835 16.107857 
L 91.607017 16.107857 
L 91.607017 14.333777 
L 92.875199 14.333777 
L 92.875199 12.726017 
L 94.143381 12.726017 
L 94.143381 10.619297 
L 95.411562 10.619297 
" clip-path="url(#p56fcbcfd2b)" style="fill: none; stroke: #eedf7a; stroke-linecap: square"/>
   </g>
   <g id="line2d_6">
    <path d="M 33.396203 65.671217 
L 33.396203 65.172257 
L 34.661849 65.172257 
L 34.661849 64.950497 
L 35.927494 64.950497 
L 35.927494 64.673297 
L 37.19314 64.673297 
L 37.19314 64.506977 
L 38.458785 64.506977 
L 38.458785 64.229777 
L 39.724431 64.229777 
L 39.724431 63.897137 
L 40.990076 63.897137 
L 40.990076 63.398177 
L 42.255722 63.398177 
L 42.255722 63.010097 
L 43.521367 63.010097 
L 43.521367 62.400257 
L 44.787012 62.400257 
L 44.787012 62.178497 
L 46.052658 62.178497 
L 46.052658 61.956737 
L 47.318303 61.956737 
L 47.318303 61.845857 
L 48.583949 61.845857 
L 48.583949 61.624097 
L 49.849594 61.624097 
L 49.849594 61.291457 
L 51.11524 61.291457 
L 51.11524 60.903377 
L 52.380885 60.903377 
L 52.380885 60.404417 
L 53.646531 60.404417 
L 53.646531 59.628257 
L 54.912176 59.628257 
L 54.912176 58.685777 
L 56.177822 58.685777 
L 56.177822 58.242257 
L 57.443467 58.242257 
L 57.443467 57.632417 
L 58.709112 57.632417 
L 58.709112 56.911697 
L 59.974758 56.911697 
L 59.974758 56.080097 
L 61.240403 56.080097 
L 61.240403 55.414817 
L 62.506049 55.414817 
L 62.506049 54.361457 
L 63.771694 54.361457 
L 63.771694 53.474417 
L 65.03734 53.474417 
L 65.03734 52.698257 
L 66.302985 52.698257 
L 66.302985 51.312257 
L 67.568631 51.312257 
L 67.568631 50.092577 
L 68.834276 50.092577 
L 68.834276 48.651137 
L 70.099922 48.651137 
L 70.099922 46.987937 
L 71.365567 46.987937 
L 71.365567 45.269297 
L 72.631212 45.269297 
L 72.631212 43.051697 
L 73.896858 43.051697 
L 73.896858 41.222177 
L 75.162503 41.222177 
L 75.162503 40.113377 
L 76.428149 40.113377 
L 76.428149 38.062097 
L 77.693794 38.062097 
L 77.693794 36.343457 
L 78.95944 36.343457 
L 78.95944 34.624817 
L 80.225085 34.624817 
L 80.225085 32.628977 
L 81.490731 32.628977 
L 81.490731 31.242977 
L 82.756376 31.242977 
L 82.756376 28.581857 
L 84.022022 28.581857 
L 84.022022 26.752337 
L 85.287667 26.752337 
L 85.287667 24.312977 
L 86.553313 24.312977 
L 86.553313 22.538897 
L 87.818958 22.538897 
L 87.818958 20.931137 
L 89.084603 20.931137 
L 89.084603 18.602657 
L 90.350249 18.602657 
L 90.350249 16.495937 
L 91.615894 16.495937 
L 91.615894 14.056577 
L 92.88154 14.056577 
L 92.88154 12.005297 
L 94.147185 12.005297 
L 94.147185 10.619297 
L 95.412831 10.619297 
" clip-path="url(#p56fcbcfd2b)" style="fill: none; stroke: #e7cb71; stroke-linecap: square"/>
   </g>
   <g id="line2d_7">
    <path d="M 33.396203 65.560337 
L 33.396203 64.895057 
L 34.661849 64.895057 
L 34.661849 64.506977 
L 35.927494 64.506977 
L 35.927494 63.841697 
L 37.19314 63.841697 
L 37.19314 63.287297 
L 38.458785 63.287297 
L 38.458785 62.289377 
L 39.724431 62.289377 
L 39.724431 61.513217 
L 40.990076 61.513217 
L 40.990076 60.459857 
L 42.255722 60.459857 
L 42.255722 59.683697 
L 43.521367 59.683697 
L 43.521367 58.630337 
L 44.787012 58.630337 
L 44.787012 57.466097 
L 46.052658 57.466097 
L 46.052658 56.246417 
L 47.318303 56.246417 
L 47.318303 54.971297 
L 48.583949 54.971297 
L 48.583949 53.751617 
L 49.849594 53.751617 
L 49.849594 52.531937 
L 51.11524 52.531937 
L 51.11524 51.201377 
L 52.380885 51.201377 
L 52.380885 49.870817 
L 53.646531 49.870817 
L 53.646531 47.708657 
L 54.912176 47.708657 
L 54.912176 46.433537 
L 56.177822 46.433537 
L 56.177822 44.548577 
L 57.443467 44.548577 
L 57.443467 42.996257 
L 58.709112 42.996257 
L 58.709112 41.277617 
L 59.974758 41.277617 
L 59.974758 40.279697 
L 61.240403 40.279697 
L 61.240403 39.115457 
L 62.506049 39.115457 
L 62.506049 37.784897 
L 63.771694 37.784897 
L 63.771694 36.343457 
L 65.03734 36.343457 
L 65.03734 34.957457 
L 66.302985 34.957457 
L 66.302985 33.793217 
L 67.568631 33.793217 
L 67.568631 32.240897 
L 68.834276 32.240897 
L 68.834276 31.021217 
L 70.099922 31.021217 
L 70.099922 29.912417 
L 71.365567 29.912417 
L 71.365567 28.859057 
L 72.631212 28.859057 
L 72.631212 27.251297 
L 73.896858 27.251297 
L 73.896858 25.976177 
L 75.162503 25.976177 
L 75.162503 24.978257 
L 76.428149 24.978257 
L 76.428149 23.980337 
L 77.693794 23.980337 
L 77.693794 22.816097 
L 78.95944 22.816097 
L 78.95944 21.540977 
L 80.225085 21.540977 
L 80.225085 20.376737 
L 81.490731 20.376737 
L 81.490731 18.935297 
L 82.756376 18.935297 
L 82.756376 17.161217 
L 84.022022 17.161217 
L 84.022022 15.941537 
L 85.287667 15.941537 
L 85.287667 15.109937 
L 86.553313 15.109937 
L 86.553313 14.222897 
L 87.818958 14.222897 
L 87.818958 13.502177 
L 89.084603 13.502177 
L 89.084603 12.892337 
L 90.350249 12.892337 
L 90.350249 12.227057 
L 91.615894 12.227057 
L 91.615894 11.561777 
L 92.88154 11.561777 
L 92.88154 11.062817 
L 94.147185 11.062817 
L 94.147185 10.619297 
L 95.412831 10.619297 
" clip-path="url(#p56fcbcfd2b)" style="fill: none; stroke: #e0b768; stroke-linecap: square"/>
   </g>
   <g id="line2d_8">
    <path d="M 33.261776 26.641457 
L 33.261776 21.596417 
L 34.512203 21.596417 
L 34.512203 19.600577 
L 35.762631 19.600577 
L 35.762631 18.491777 
L 37.013058 18.491777 
L 37.013058 17.327537 
L 38.263485 17.327537 
L 38.263485 16.495937 
L 39.513912 16.495937 
L 39.513912 15.941537 
L 40.76434 15.941537 
L 40.76434 15.387137 
L 42.014767 15.387137 
L 42.014767 14.888177 
L 43.265194 14.888177 
L 43.265194 14.610977 
L 44.515622 14.610977 
L 44.515622 14.278337 
L 45.766049 14.278337 
L 45.766049 13.779377 
L 47.016476 13.779377 
L 47.016476 13.613057 
L 48.266903 13.613057 
L 48.266903 13.335857 
L 49.517331 13.335857 
L 49.517331 13.280417 
L 50.767758 13.280417 
L 50.767758 13.169537 
L 52.018185 13.169537 
L 52.018185 13.114097 
L 53.268612 13.114097 
L 53.268612 12.836897 
L 54.51904 12.836897 
L 54.51904 12.670577 
L 55.769467 12.670577 
L 55.769467 12.559697 
L 57.019894 12.559697 
L 57.019894 12.448817 
L 58.270322 12.448817 
L 58.270322 12.393377 
L 59.520749 12.393377 
L 59.520749 12.227057 
L 60.771176 12.227057 
L 60.771176 12.060737 
L 62.021603 12.060737 
L 62.021603 12.005297 
L 63.272031 12.005297 
L 63.272031 11.894417 
L 64.522458 11.894417 
L 64.522458 11.672657 
L 65.772885 11.672657 
L 65.772885 11.561777 
L 67.023312 11.561777 
L 67.023312 11.450897 
L 68.27374 11.450897 
L 68.27374 11.450897 
L 69.524167 11.450897 
L 69.524167 11.395457 
L 70.774594 11.395457 
L 70.774594 11.229137 
L 72.025022 11.229137 
L 72.025022 11.173697 
L 73.275449 11.173697 
L 73.275449 11.118257 
L 74.525876 11.118257 
L 74.525876 11.062817 
L 75.776303 11.062817 
L 75.776303 11.007377 
L 77.026731 11.007377 
L 77.026731 11.007377 
L 78.277158 11.007377 
L 78.277158 10.951937 
L 79.527585 10.951937 
L 79.527585 10.896497 
L 80.778012 10.896497 
L 80.778012 10.896497 
L 82.02844 10.896497 
L 82.02844 10.896497 
L 83.278867 10.896497 
L 83.278867 10.896497 
L 84.529294 10.896497 
L 84.529294 10.896497 
L 85.779722 10.896497 
L 85.779722 10.841057 
L 87.030149 10.841057 
L 87.030149 10.841057 
L 88.280576 10.841057 
L 88.280576 10.785617 
L 89.531003 10.785617 
L 89.531003 10.785617 
L 90.781431 10.785617 
L 90.781431 10.730177 
L 92.031858 10.730177 
L 92.031858 10.730177 
L 93.282285 10.730177 
L 93.282285 10.619297 
L 94.532712 10.619297 
" clip-path="url(#p56fcbcfd2b)" style="fill: none; stroke: #d8a25e; stroke-linecap: square"/>
   </g>
   <g id="line2d_9">
    <path d="M 33.264312 12.615137 
L 33.264312 11.949857 
L 34.519812 11.949857 
L 34.519812 11.783537 
L 35.775312 11.783537 
L 35.775312 11.728097 
L 37.030812 11.728097 
L 37.030812 11.617217 
L 38.286312 11.617217 
L 38.286312 11.617217 
L 39.541812 11.617217 
L 39.541812 11.617217 
L 40.797312 11.617217 
L 40.797312 11.617217 
L 42.052812 11.617217 
L 42.052812 11.617217 
L 43.308312 11.617217 
L 43.308312 11.506337 
L 44.563812 11.506337 
L 44.563812 11.506337 
L 45.819312 11.506337 
L 45.819312 11.506337 
L 47.074812 11.506337 
L 47.074812 11.450897 
L 48.330312 11.450897 
L 48.330312 11.395457 
L 49.585812 11.395457 
L 49.585812 11.340017 
L 50.841313 11.340017 
L 50.841313 11.284577 
L 52.096812 11.284577 
L 52.096812 11.284577 
L 53.352312 11.284577 
L 53.352312 11.284577 
L 54.607812 11.284577 
L 54.607812 11.229137 
L 55.863312 11.229137 
L 55.863312 11.229137 
L 57.118812 11.229137 
L 57.118812 11.229137 
L 58.374312 11.229137 
L 58.374312 11.229137 
L 59.629812 11.229137 
L 59.629812 11.229137 
L 60.885312 11.229137 
L 60.885312 11.229137 
L 62.140812 11.229137 
L 62.140812 11.173697 
L 63.396312 11.173697 
L 63.396312 11.118257 
L 64.651812 11.118257 
L 64.651812 11.118257 
L 65.907312 11.118257 
L 65.907312 11.118257 
L 67.162813 11.118257 
L 67.162813 11.118257 
L 68.418312 11.118257 
L 68.418312 11.118257 
L 69.673812 11.118257 
L 69.673812 11.118257 
L 70.929312 11.118257 
L 70.929312 11.062817 
L 72.184812 11.062817 
L 72.184812 11.062817 
L 73.440312 11.062817 
L 73.440312 11.062817 
L 74.695812 11.062817 
L 74.695812 11.062817 
L 75.951313 11.062817 
L 75.951313 11.007377 
L 77.206812 11.007377 
L 77.206812 11.007377 
L 78.462312 11.007377 
L 78.462312 10.951937 
L 79.717812 10.951937 
L 79.717812 10.951937 
L 80.973312 10.951937 
L 80.973312 10.951937 
L 82.228812 10.951937 
L 82.228812 10.951937 
L 83.484312 10.951937 
L 83.484312 10.951937 
L 84.739812 10.951937 
L 84.739812 10.951937 
L 85.995312 10.951937 
L 85.995312 10.951937 
L 87.250812 10.951937 
L 87.250812 10.951937 
L 88.506312 10.951937 
L 88.506312 10.841057 
L 89.761812 10.841057 
L 89.761812 10.785617 
L 91.017313 10.785617 
L 91.017313 10.785617 
L 92.272812 10.785617 
L 92.272812 10.674737 
L 93.528312 10.674737 
L 93.528312 10.619297 
L 94.783812 10.619297 
" clip-path="url(#p56fcbcfd2b)" style="fill: none; stroke: #c68457; stroke-linecap: square"/>
   </g>
   <g id="line2d_10">
    <path d="M 33.269385 15.553457 
L 33.269385 15.331697 
L 34.535031 15.331697 
L 34.535031 14.888177 
L 35.800676 14.888177 
L 35.800676 14.610977 
L 37.066322 14.610977 
L 37.066322 14.500097 
L 38.331967 14.500097 
L 38.331967 14.333777 
L 39.597612 14.333777 
L 39.597612 14.278337 
L 40.863258 14.278337 
L 40.863258 14.112017 
L 42.128903 14.112017 
L 42.128903 14.056577 
L 43.394549 14.056577 
L 43.394549 14.056577 
L 44.660194 14.056577 
L 44.660194 13.779377 
L 45.92584 13.779377 
L 45.92584 13.668497 
L 47.191485 13.668497 
L 47.191485 13.668497 
L 48.457131 13.668497 
L 48.457131 13.502177 
L 49.722776 13.502177 
L 49.722776 13.502177 
L 50.988422 13.502177 
L 50.988422 13.502177 
L 52.254067 13.502177 
L 52.254067 13.446737 
L 53.519712 13.446737 
L 53.519712 13.391297 
L 54.785358 13.391297 
L 54.785358 13.391297 
L 56.051003 13.391297 
L 56.051003 13.391297 
L 57.316649 13.391297 
L 57.316649 13.280417 
L 58.582294 13.280417 
L 58.582294 13.169537 
L 59.84794 13.169537 
L 59.84794 13.114097 
L 61.113585 13.114097 
L 61.113585 13.058657 
L 62.379231 13.058657 
L 62.379231 13.058657 
L 63.644876 13.058657 
L 63.644876 13.058657 
L 64.910522 13.058657 
L 64.910522 13.058657 
L 66.176167 13.058657 
L 66.176167 13.058657 
L 67.441812 13.058657 
L 67.441812 13.003217 
L 68.707458 13.003217 
L 68.707458 12.892337 
L 69.973103 12.892337 
L 69.973103 12.892337 
L 71.238749 12.892337 
L 71.238749 12.892337 
L 72.504394 12.892337 
L 72.504394 12.892337 
L 73.77004 12.892337 
L 73.77004 12.892337 
L 75.035685 12.892337 
L 75.035685 12.892337 
L 76.301331 12.892337 
L 76.301331 12.781457 
L 77.566976 12.781457 
L 77.566976 12.670577 
L 78.832622 12.670577 
L 78.832622 12.670577 
L 80.098267 12.670577 
L 80.098267 12.670577 
L 81.363912 12.670577 
L 81.363912 12.559697 
L 82.629558 12.559697 
L 82.629558 12.559697 
L 83.895203 12.559697 
L 83.895203 12.448817 
L 85.160849 12.448817 
L 85.160849 12.337937 
L 86.426494 12.337937 
L 86.426494 12.282497 
L 87.69214 12.282497 
L 87.69214 12.116177 
L 88.957785 12.116177 
L 88.957785 12.005297 
L 90.223431 12.005297 
L 90.223431 11.949857 
L 91.489076 11.949857 
L 91.489076 11.783537 
L 92.754722 11.783537 
L 92.754722 11.561777 
L 94.020367 11.561777 
L 94.020367 10.619297 
L 95.286012 10.619297 
" clip-path="url(#p56fcbcfd2b)" style="fill: none; stroke: #b3664f; stroke-linecap: square"/>
   </g>
   <g id="patch_3">
    <path d="M 32.636562 66.059297 
L 32.636562 10.619297 
" style="fill: none; stroke: #000000; stroke-width: 1.5; stroke-linejoin: miter; stroke-linecap: square"/>
   </g>
   <g id="patch_4">
    <path d="M 32.636562 66.059297 
L 96.045653 66.059297 
" style="fill: none; stroke: #000000; stroke-width: 1.5; stroke-linejoin: miter; stroke-linecap: square"/>
   </g>
  </g>
  <g id="axes_2">
   <g id="patch_5">
    <path d="M 108.727472 66.059297 
L 172.136562 66.059297 
L 172.136562 10.619297 
L 108.727472 10.619297 
z
" style="fill: #ffffff"/>
   </g>
   <g id="PolyCollection_2">
    <defs>
     <path id="m07eb6acd4a" d="M 108.727472 -37.394705 
L 108.727472 -36.175025 
L 109.995653 -37.006625 
L 111.263835 -37.949105 
L 112.532017 -38.891585 
L 113.800199 -39.834065 
L 115.068381 -40.831985 
L 116.336562 -41.829905 
L 117.604744 -42.883265 
L 118.872926 -43.881185 
L 120.141108 -44.934545 
L 121.40929 -45.987905 
L 122.677472 -47.041265 
L 123.945653 -48.094625 
L 125.213835 -49.147985 
L 126.482017 -50.201345 
L 127.750199 -51.254705 
L 129.018381 -52.363505 
L 130.286562 -53.416865 
L 131.554744 -54.525665 
L 132.822926 -55.579025 
L 134.091108 -56.687825 
L 135.35929 -57.796625 
L 136.627472 -58.849985 
L 137.895653 -59.958785 
L 139.163835 -61.067585 
L 140.432017 -62.176385 
L 141.700199 -63.285185 
L 142.968381 -64.393985 
L 144.236562 -65.558225 
L 145.504744 -66.667025 
L 146.772926 -67.775825 
L 148.041108 -68.940065 
L 149.30929 -70.048865 
L 150.577472 -71.213105 
L 151.845653 -72.321905 
L 153.113835 -73.486145 
L 154.382017 -74.650385 
L 155.650199 -75.814625 
L 156.918381 -76.978865 
L 158.186562 -78.143105 
L 159.454744 -79.307345 
L 160.722926 -80.527025 
L 161.991108 -81.691265 
L 163.25929 -82.910945 
L 164.527472 -84.130625 
L 165.795653 -85.350305 
L 167.063835 -86.625425 
L 168.332017 -87.900545 
L 169.600199 -89.286545 
L 170.868381 -91.060625 
L 170.868381 -91.060625 
L 170.868381 -91.060625 
L 169.600199 -90.506225 
L 168.332017 -89.674625 
L 167.063835 -88.732145 
L 165.795653 -87.789665 
L 164.527472 -86.847185 
L 163.25929 -85.849265 
L 161.991108 -84.851345 
L 160.722926 -83.797985 
L 159.454744 -82.800065 
L 158.186562 -81.746705 
L 156.918381 -80.693345 
L 155.650199 -79.639985 
L 154.382017 -78.586625 
L 153.113835 -77.533265 
L 151.845653 -76.479905 
L 150.577472 -75.426545 
L 149.30929 -74.317745 
L 148.041108 -73.264385 
L 146.772926 -72.155585 
L 145.504744 -71.102225 
L 144.236562 -69.993425 
L 142.968381 -68.884625 
L 141.700199 -67.831265 
L 140.432017 -66.722465 
L 139.163835 -65.613665 
L 137.895653 -64.504865 
L 136.627472 -63.396065 
L 135.35929 -62.287265 
L 134.091108 -61.123025 
L 132.822926 -60.014225 
L 131.554744 -58.905425 
L 130.286562 -57.741185 
L 129.018381 -56.632385 
L 127.750199 -55.468145 
L 126.482017 -54.359345 
L 125.213835 -53.195105 
L 123.945653 -52.030865 
L 122.677472 -50.866625 
L 121.40929 -49.702385 
L 120.141108 -48.538145 
L 118.872926 -47.373905 
L 117.604744 -46.154225 
L 116.336562 -44.989985 
L 115.068381 -43.770305 
L 113.800199 -42.550625 
L 112.532017 -41.330945 
L 111.263835 -40.055825 
L 109.995653 -38.780705 
L 108.727472 -37.394705 
z
" style="stroke: #808080; stroke-opacity: 0.2"/>
    </defs>
    <g clip-path="url(#p57feebd794)">
     <use xlink:href="#m07eb6acd4a" x="0" y="101.679922" style="fill: #808080; fill-opacity: 0.2; stroke: #808080; stroke-opacity: 0.2"/>
    </g>
   </g>
   <g id="matplotlib.axis_3">
    <g id="xtick_3">
     <g id="line2d_11">
      <g>
       <use xlink:href="#m7ba3bfaa1c" x="108.727472" y="66.059297" style="stroke: #000000; stroke-width: 1.5"/>
      </g>
     </g>
     <g id="text_7">
      <text style="font: 9px 'Arial', sans-serif; text-anchor: middle" x="108.727472" y="79.897891" transform="rotate(-0 108.727472 79.897891)">0</text>
     </g>
    </g>
    <g id="xtick_4">
     <g id="line2d_12">
      <g>
       <use xlink:href="#m7ba3bfaa1c" x="172.136562" y="66.059297" style="stroke: #000000; stroke-width: 1.5"/>
      </g>
     </g>
     <g id="text_8">
      <text style="font: 9px 'Arial', sans-serif; text-anchor: middle" x="172.136562" y="79.897891" transform="rotate(-0 172.136562 79.897891)">1</text>
     </g>
    </g>
    <g id="text_9">
     <text style="font: 9px 'Arial', sans-serif; text-anchor: middle" x="140.432017" y="92.608203" transform="rotate(-0 140.432017 92.608203)">Exp. coverage</text>
    </g>
   </g>
   <g id="matplotlib.axis_4">
    <g id="ytick_3">
     <g id="line2d_13">
      <g>
       <use xlink:href="#mdec04b3975" x="108.727472" y="66.059297" style="stroke: #000000; stroke-width: 1.5"/>
      </g>
     </g>
    </g>
    <g id="ytick_4">
     <g id="line2d_14">
      <g>
       <use xlink:href="#mdec04b3975" x="108.727472" y="10.619297" style="stroke: #000000; stroke-width: 1.5"/>
      </g>
     </g>
    </g>
   </g>
   <g id="line2d_15">
    <path d="M 109.361562 65.504897 
L 109.361562 64.895057 
L 110.629744 64.895057 
L 110.629744 64.562417 
L 111.897926 64.562417 
L 111.897926 64.063457 
L 113.166108 64.063457 
L 113.166108 63.619937 
L 114.43429 63.619937 
L 114.43429 63.120977 
L 115.702472 63.120977 
L 115.702472 62.843777 
L 116.970653 62.843777 
L 116.970653 62.400257 
L 118.238835 62.400257 
L 118.238835 61.845857 
L 119.507017 61.845857 
L 119.507017 61.236017 
L 120.775199 61.236017 
L 120.775199 60.681617 
L 122.043381 60.681617 
L 122.043381 60.238097 
L 123.311562 60.238097 
L 123.311562 59.517377 
L 124.579744 59.517377 
L 124.579744 58.796657 
L 125.847926 58.796657 
L 125.847926 58.131377 
L 127.116108 58.131377 
L 127.116108 57.244337 
L 128.38429 57.244337 
L 128.38429 56.745377 
L 129.652472 56.745377 
L 129.652472 55.581137 
L 130.920653 55.581137 
L 130.920653 54.416897 
L 132.188835 54.416897 
L 132.188835 53.529857 
L 133.457017 53.529857 
L 133.457017 52.421057 
L 134.725199 52.421057 
L 134.725199 51.367697 
L 135.993381 51.367697 
L 135.993381 50.148017 
L 137.261562 50.148017 
L 137.261562 49.150097 
L 138.529744 49.150097 
L 138.529744 48.595697 
L 139.797926 48.595697 
L 139.797926 47.431457 
L 141.066108 47.431457 
L 141.066108 46.100897 
L 142.33429 46.100897 
L 142.33429 44.992097 
L 143.602472 44.992097 
L 143.602472 43.716977 
L 144.870653 43.716977 
L 144.870653 42.220097 
L 146.138835 42.220097 
L 146.138835 40.834097 
L 147.407017 40.834097 
L 147.407017 39.337217 
L 148.675199 39.337217 
L 148.675199 38.006657 
L 149.943381 38.006657 
L 149.943381 36.454337 
L 151.211562 36.454337 
L 151.211562 34.680257 
L 152.479744 34.680257 
L 152.479744 33.017057 
L 153.747926 33.017057 
L 153.747926 31.741937 
L 155.016108 31.741937 
L 155.016108 30.134177 
L 156.28429 30.134177 
L 156.28429 28.526417 
L 157.552472 28.526417 
L 157.552472 25.754417 
L 158.820653 25.754417 
L 158.820653 24.202097 
L 160.088835 24.202097 
L 160.088835 23.037857 
L 161.357017 23.037857 
L 161.357017 20.820257 
L 162.625199 20.820257 
L 162.625199 19.101617 
L 163.893381 19.101617 
L 163.893381 17.549297 
L 165.161562 17.549297 
L 165.161562 16.163297 
L 166.429744 16.163297 
L 166.429744 14.888177 
L 167.697926 14.888177 
L 167.697926 13.890257 
L 168.966108 13.890257 
L 168.966108 12.337937 
L 170.23429 12.337937 
L 170.23429 10.619297 
L 171.502472 10.619297 
" clip-path="url(#p57feebd794)" style="fill: none; stroke: #eedf7a; stroke-linecap: square"/>
   </g>
   <g id="line2d_16">
    <path d="M 109.35649 65.504897 
L 109.35649 64.728737 
L 110.614526 64.728737 
L 110.614526 64.174337 
L 111.872562 64.174337 
L 111.872562 63.010097 
L 113.130599 63.010097 
L 113.130599 61.901297 
L 114.388635 61.901297 
L 114.388635 60.737057 
L 115.646672 60.737057 
L 115.646672 59.295617 
L 116.904708 59.295617 
L 116.904708 58.131377 
L 118.162744 58.131377 
L 118.162744 57.022577 
L 119.420781 57.022577 
L 119.420781 55.248497 
L 120.678817 55.248497 
L 120.678817 53.640737 
L 121.936853 53.640737 
L 121.936853 51.644897 
L 123.19489 51.644897 
L 123.19489 49.316417 
L 124.452926 49.316417 
L 124.452926 47.542337 
L 125.710962 47.542337 
L 125.710962 45.601937 
L 126.968999 45.601937 
L 126.968999 43.938737 
L 128.227035 43.938737 
L 128.227035 42.109217 
L 129.485072 42.109217 
L 129.485072 40.113377 
L 130.743108 40.113377 
L 130.743108 38.006657 
L 132.001144 38.006657 
L 132.001144 36.288017 
L 133.259181 36.288017 
L 133.259181 34.680257 
L 134.517217 34.680257 
L 134.517217 33.183377 
L 135.775253 33.183377 
L 135.775253 31.686497 
L 137.03329 31.686497 
L 137.03329 29.967857 
L 138.291326 29.967857 
L 138.291326 28.914497 
L 139.549362 28.914497 
L 139.549362 27.473057 
L 140.807399 27.473057 
L 140.807399 26.308817 
L 142.065435 26.308817 
L 142.065435 25.089137 
L 143.323472 25.089137 
L 143.323472 24.257537 
L 144.581508 24.257537 
L 144.581508 23.148737 
L 145.839544 23.148737 
L 145.839544 22.261697 
L 147.097581 22.261697 
L 147.097581 21.762737 
L 148.355617 21.762737 
L 148.355617 20.875697 
L 149.613653 20.875697 
L 149.613653 19.988657 
L 150.87169 19.988657 
L 150.87169 18.990737 
L 152.129726 18.990737 
L 152.129726 17.992817 
L 153.387762 17.992817 
L 153.387762 17.438417 
L 154.645799 17.438417 
L 154.645799 16.994897 
L 155.903835 16.994897 
L 155.903835 16.163297 
L 157.161872 16.163297 
L 157.161872 15.331697 
L 158.419908 15.331697 
L 158.419908 14.777297 
L 159.677944 14.777297 
L 159.677944 13.890257 
L 160.935981 13.890257 
L 160.935981 13.391297 
L 162.194017 13.391297 
L 162.194017 13.058657 
L 163.452053 13.058657 
L 163.452053 12.670577 
L 164.71009 12.670577 
L 164.71009 12.393377 
L 165.968126 12.393377 
L 165.968126 11.894417 
L 167.226162 11.894417 
L 167.226162 11.450897 
L 168.484199 11.450897 
L 168.484199 11.062817 
L 169.742235 11.062817 
L 169.742235 10.619297 
L 171.000272 10.619297 
" clip-path="url(#p57feebd794)" style="fill: none; stroke: #e7cb71; stroke-linecap: square"/>
   </g>
   <g id="line2d_17">
    <path d="M 109.359026 65.394017 
L 109.359026 64.174337 
L 110.622135 64.174337 
L 110.622135 63.176417 
L 111.885244 63.176417 
L 111.885244 62.067617 
L 113.148353 62.067617 
L 113.148353 60.459857 
L 114.411462 60.459857 
L 114.411462 58.685777 
L 115.674572 58.685777 
L 115.674572 57.078017 
L 116.937681 57.078017 
L 116.937681 54.472337 
L 118.20079 54.472337 
L 118.20079 52.642817 
L 119.463899 52.642817 
L 119.463899 50.258897 
L 120.727008 50.258897 
L 120.727008 48.263057 
L 121.990117 48.263057 
L 121.990117 46.488977 
L 123.253226 46.488977 
L 123.253226 43.772417 
L 124.516335 43.772417 
L 124.516335 41.055857 
L 125.779444 41.055857 
L 125.779444 38.339297 
L 127.042553 38.339297 
L 127.042553 36.454337 
L 128.305662 36.454337 
L 128.305662 34.236737 
L 129.568772 34.236737 
L 129.568772 32.296337 
L 130.831881 32.296337 
L 130.831881 30.577697 
L 132.09499 30.577697 
L 132.09499 28.360097 
L 133.358099 28.360097 
L 133.358099 26.863217 
L 134.621208 26.863217 
L 134.621208 25.698977 
L 135.884317 25.698977 
L 135.884317 24.312977 
L 137.147426 24.312977 
L 137.147426 23.204177 
L 138.410535 23.204177 
L 138.410535 22.372577 
L 139.673644 22.372577 
L 139.673644 21.319217 
L 140.936753 21.319217 
L 140.936753 20.044097 
L 142.199862 20.044097 
L 142.199862 19.212497 
L 143.462972 19.212497 
L 143.462972 18.547217 
L 144.726081 18.547217 
L 144.726081 17.937377 
L 145.98919 17.937377 
L 145.98919 16.884017 
L 147.252299 16.884017 
L 147.252299 16.385057 
L 148.515408 16.385057 
L 148.515408 16.052417 
L 149.778517 16.052417 
L 149.778517 15.387137 
L 151.041626 15.387137 
L 151.041626 14.999057 
L 152.304735 14.999057 
L 152.304735 14.721857 
L 153.567844 14.721857 
L 153.567844 14.444657 
L 154.830953 14.444657 
L 154.830953 14.167457 
L 156.094062 14.167457 
L 156.094062 13.557617 
L 157.357172 13.557617 
L 157.357172 13.335857 
L 158.620281 13.335857 
L 158.620281 13.114097 
L 159.88339 13.114097 
L 159.88339 12.670577 
L 161.146499 12.670577 
L 161.146499 12.227057 
L 162.409608 12.227057 
L 162.409608 12.171617 
L 163.672717 12.171617 
L 163.672717 11.783537 
L 164.935826 11.783537 
L 164.935826 11.672657 
L 166.198935 11.672657 
L 166.198935 11.395457 
L 167.462044 11.395457 
L 167.462044 11.062817 
L 168.725153 11.062817 
L 168.725153 10.896497 
L 169.988262 10.896497 
L 169.988262 10.619297 
L 171.251372 10.619297 
" clip-path="url(#p57feebd794)" style="fill: none; stroke: #e0b768; stroke-linecap: square"/>
   </g>
   <g id="line2d_18">
    <path d="M 109.361562 23.869457 
L 109.361562 20.875697 
L 110.629744 20.875697 
L 110.629744 19.434257 
L 111.897926 19.434257 
L 111.897926 18.547217 
L 113.166108 18.547217 
L 113.166108 17.937377 
L 114.43429 17.937377 
L 114.43429 17.272097 
L 115.702472 17.272097 
L 115.702472 16.773137 
L 116.970653 16.773137 
L 116.970653 16.385057 
L 118.238835 16.385057 
L 118.238835 16.163297 
L 119.507017 16.163297 
L 119.507017 15.775217 
L 120.775199 15.775217 
L 120.775199 15.608897 
L 122.043381 15.608897 
L 122.043381 15.331697 
L 123.311562 15.331697 
L 123.311562 15.109937 
L 124.579744 15.109937 
L 124.579744 14.777297 
L 125.847926 14.777297 
L 125.847926 14.555537 
L 127.116108 14.555537 
L 127.116108 14.500097 
L 128.38429 14.500097 
L 128.38429 14.333777 
L 129.652472 14.333777 
L 129.652472 14.167457 
L 130.920653 14.167457 
L 130.920653 14.112017 
L 132.188835 14.112017 
L 132.188835 14.001137 
L 133.457017 14.001137 
L 133.457017 14.001137 
L 134.725199 14.001137 
L 134.725199 13.890257 
L 135.993381 13.890257 
L 135.993381 13.834817 
L 137.261562 13.834817 
L 137.261562 13.668497 
L 138.529744 13.668497 
L 138.529744 13.668497 
L 139.797926 13.668497 
L 139.797926 13.557617 
L 141.066108 13.557617 
L 141.066108 13.557617 
L 142.33429 13.557617 
L 142.33429 13.502177 
L 143.602472 13.502177 
L 143.602472 13.502177 
L 144.870653 13.502177 
L 144.870653 13.502177 
L 146.138835 13.502177 
L 146.138835 13.335857 
L 147.407017 13.335857 
L 147.407017 13.335857 
L 148.675199 13.335857 
L 148.675199 13.003217 
L 149.943381 13.003217 
L 149.943381 13.003217 
L 151.211562 13.003217 
L 151.211562 12.892337 
L 152.479744 12.892337 
L 152.479744 12.836897 
L 153.747926 12.836897 
L 153.747926 12.781457 
L 155.016108 12.781457 
L 155.016108 12.670577 
L 156.28429 12.670577 
L 156.28429 12.615137 
L 157.552472 12.615137 
L 157.552472 12.615137 
L 158.820653 12.615137 
L 158.820653 12.448817 
L 160.088835 12.448817 
L 160.088835 12.393377 
L 161.357017 12.393377 
L 161.357017 12.393377 
L 162.625199 12.393377 
L 162.625199 12.171617 
L 163.893381 12.171617 
L 163.893381 12.171617 
L 165.161562 12.171617 
L 165.161562 12.060737 
L 166.429744 12.060737 
L 166.429744 12.005297 
L 167.697926 12.005297 
L 167.697926 11.894417 
L 168.966108 11.894417 
L 168.966108 11.561777 
L 170.23429 11.561777 
L 170.23429 10.619297 
L 171.502472 10.619297 
" clip-path="url(#p57feebd794)" style="fill: none; stroke: #d8a25e; stroke-linecap: square"/>
   </g>
   <g id="line2d_19">
    <path d="M 109.361562 21.707297 
L 109.361562 19.988657 
L 110.629744 19.988657 
L 110.629744 19.489697 
L 111.897926 19.489697 
L 111.897926 19.212497 
L 113.166108 19.212497 
L 113.166108 18.935297 
L 114.43429 18.935297 
L 114.43429 18.713537 
L 115.702472 18.713537 
L 115.702472 18.547217 
L 116.970653 18.547217 
L 116.970653 18.270017 
L 118.238835 18.270017 
L 118.238835 18.103697 
L 119.507017 18.103697 
L 119.507017 17.881937 
L 120.775199 17.881937 
L 120.775199 17.771057 
L 122.043381 17.771057 
L 122.043381 17.771057 
L 123.311562 17.771057 
L 123.311562 17.771057 
L 124.579744 17.771057 
L 124.579744 17.660177 
L 125.847926 17.660177 
L 125.847926 17.604737 
L 127.116108 17.604737 
L 127.116108 17.549297 
L 128.38429 17.549297 
L 128.38429 17.438417 
L 129.652472 17.438417 
L 129.652472 17.216657 
L 130.920653 17.216657 
L 130.920653 17.105777 
L 132.188835 17.105777 
L 132.188835 17.105777 
L 133.457017 17.105777 
L 133.457017 17.050337 
L 134.725199 17.050337 
L 134.725199 17.050337 
L 135.993381 17.050337 
L 135.993381 16.939457 
L 137.261562 16.939457 
L 137.261562 16.828577 
L 138.529744 16.828577 
L 138.529744 16.773137 
L 139.797926 16.773137 
L 139.797926 16.662257 
L 141.066108 16.662257 
L 141.066108 16.662257 
L 142.33429 16.662257 
L 142.33429 16.606817 
L 143.602472 16.606817 
L 143.602472 16.495937 
L 144.870653 16.495937 
L 144.870653 16.495937 
L 146.138835 16.495937 
L 146.138835 16.440497 
L 147.407017 16.440497 
L 147.407017 16.329617 
L 148.675199 16.329617 
L 148.675199 16.329617 
L 149.943381 16.329617 
L 149.943381 16.274177 
L 151.211562 16.274177 
L 151.211562 16.163297 
L 152.479744 16.163297 
L 152.479744 16.107857 
L 153.747926 16.107857 
L 153.747926 16.107857 
L 155.016108 16.107857 
L 155.016108 15.886097 
L 156.28429 15.886097 
L 156.28429 15.775217 
L 157.552472 15.775217 
L 157.552472 15.664337 
L 158.820653 15.664337 
L 158.820653 15.608897 
L 160.088835 15.608897 
L 160.088835 15.553457 
L 161.357017 15.553457 
L 161.357017 15.553457 
L 162.625199 15.553457 
L 162.625199 15.498017 
L 163.893381 15.498017 
L 163.893381 15.331697 
L 165.161562 15.331697 
L 165.161562 15.276257 
L 166.429744 15.276257 
L 166.429744 15.165377 
L 167.697926 15.165377 
L 167.697926 14.999057 
L 168.966108 14.999057 
L 168.966108 14.666417 
L 170.23429 14.666417 
L 170.23429 10.619297 
L 171.502472 10.619297 
" clip-path="url(#p57feebd794)" style="fill: none; stroke: #c68457; stroke-linecap: square"/>
   </g>
   <g id="line2d_20">
    <path d="M 109.361562 36.398897 
L 109.361562 29.358017 
L 110.629744 29.358017 
L 110.629744 26.974097 
L 111.897926 26.974097 
L 111.897926 25.144577 
L 113.166108 25.144577 
L 113.166108 23.980337 
L 114.43429 23.980337 
L 114.43429 23.148737 
L 115.702472 23.148737 
L 115.702472 22.428017 
L 116.970653 22.428017 
L 116.970653 21.873617 
L 118.238835 21.873617 
L 118.238835 21.540977 
L 119.507017 21.540977 
L 119.507017 21.263777 
L 120.775199 21.263777 
L 120.775199 20.820257 
L 122.043381 20.820257 
L 122.043381 20.598497 
L 123.311562 20.598497 
L 123.311562 20.321297 
L 124.579744 20.321297 
L 124.579744 19.877777 
L 125.847926 19.877777 
L 125.847926 19.489697 
L 127.116108 19.489697 
L 127.116108 18.935297 
L 128.38429 18.935297 
L 128.38429 18.879857 
L 129.652472 18.879857 
L 129.652472 18.547217 
L 130.920653 18.547217 
L 130.920653 18.103697 
L 132.188835 18.103697 
L 132.188835 18.048257 
L 133.457017 18.048257 
L 133.457017 17.771057 
L 134.725199 17.771057 
L 134.725199 17.715617 
L 135.993381 17.715617 
L 135.993381 17.382977 
L 137.261562 17.382977 
L 137.261562 17.216657 
L 138.529744 17.216657 
L 138.529744 16.994897 
L 139.797926 16.994897 
L 139.797926 16.717697 
L 141.066108 16.717697 
L 141.066108 16.385057 
L 142.33429 16.385057 
L 142.33429 16.274177 
L 143.602472 16.274177 
L 143.602472 16.163297 
L 144.870653 16.163297 
L 144.870653 15.996977 
L 146.138835 15.996977 
L 146.138835 15.830657 
L 147.407017 15.830657 
L 147.407017 15.775217 
L 148.675199 15.775217 
L 148.675199 15.553457 
L 149.943381 15.553457 
L 149.943381 15.276257 
L 151.211562 15.276257 
L 151.211562 14.943617 
L 152.479744 14.943617 
L 152.479744 14.832737 
L 153.747926 14.832737 
L 153.747926 14.500097 
L 155.016108 14.500097 
L 155.016108 14.167457 
L 156.28429 14.167457 
L 156.28429 14.167457 
L 157.552472 14.167457 
L 157.552472 14.112017 
L 158.820653 14.112017 
L 158.820653 13.723937 
L 160.088835 13.723937 
L 160.088835 13.613057 
L 161.357017 13.613057 
L 161.357017 13.335857 
L 162.625199 13.335857 
L 162.625199 13.169537 
L 163.893381 13.169537 
L 163.893381 13.003217 
L 165.161562 13.003217 
L 165.161562 12.670577 
L 166.429744 12.670577 
L 166.429744 12.559697 
L 167.697926 12.559697 
L 167.697926 12.116177 
L 168.966108 12.116177 
L 168.966108 11.783537 
L 170.23429 11.783537 
L 170.23429 10.619297 
L 171.502472 10.619297 
" clip-path="url(#p57feebd794)" style="fill: none; stroke: #b3664f; stroke-linecap: square"/>
   </g>
   <g id="patch_6">
    <path d="M 108.727472 66.059297 
L 108.727472 10.619297 
" style="fill: none; stroke: #000000; stroke-width: 1.5; stroke-linejoin: miter; stroke-linecap: square"/>
   </g>
   <g id="patch_7">
    <path d="M 108.727472 66.059297 
L 172.136562 66.059297 
" style="fill: none; stroke: #000000; stroke-width: 1.5; stroke-linejoin: miter; stroke-linecap: square"/>
   </g>
  </g>
 </g>
 <defs>
  <clipPath id="p56fcbcfd2b">
   <rect x="32.636562" y="10.619297" width="63.409091" height="55.44"/>
  </clipPath>
  <clipPath id="p57feebd794">
   <rect x="108.727472" y="10.619297" width="63.409091" height="55.44"/>
  </clipPath>
 </defs>
</svg>
