<?xml version="1.0" encoding="utf-8" standalone="no"?>
<!DOCTYPE svg PUBLIC "-//W3C//DTD SVG 1.1//EN"
  "http://www.w3.org/Graphics/SVG/1.1/DTD/svg11.dtd">
<svg xmlns:xlink="http://www.w3.org/1999/xlink" width="182.199687pt" height="98.388906pt" viewBox="0 0 182.199687 98.388906" xmlns="http://www.w3.org/2000/svg" version="1.1">
 <metadata>
  <rdf:RDF xmlns:dc="http://purl.org/dc/elements/1.1/" xmlns:cc="http://creativecommons.org/ns#" xmlns:rdf="http://www.w3.org/1999/02/22-rdf-syntax-ns#">
   <cc:Work>
    <dc:type rdf:resource="http://purl.org/dc/dcmitype/StillImage"/>
    <dc:date>2024-11-20T14:45:13.476223</dc:date>
    <dc:format>image/svg+xml</dc:format>
    <dc:creator>
     <cc:Agent>
      <dc:title>Matplotlib v3.9.2, https://matplotlib.org/</dc:title>
     </cc:Agent>
    </dc:creator>
   </cc:Work>
  </rdf:RDF>
 </metadata>
 <defs>
  <style type="text/css">*{stroke-linejoin: round; stroke-linecap: butt}</style>
 </defs>
 <g id="figure_1">
  <g id="patch_1">
   <path d="M 0 98.388906 
L 182.199687 98.388906 
L 182.199687 0 
L 0 0 
z
" style="fill: #ffffff"/>
  </g>
  <g id="axes_1">
   <g id="patch_2">
    <path d="M 32.636562 75.478594 
L 96.045653 75.478594 
L 96.045653 20.038594 
L 32.636562 20.038594 
z
" style="fill: #ffffff"/>
   </g>
   <g id="PolyCollection_1">
    <defs>
     <path id="m521c40fc77" d="M 32.636562 -24.684393 
L 32.636562 -23.464713 
L 33.904744 -24.296312 
L 35.172926 -25.238792 
L 36.441108 -26.181272 
L 37.70929 -27.123752 
L 38.977472 -28.121672 
L 40.245653 -29.119592 
L 41.513835 -30.172953 
L 42.782017 -31.170873 
L 44.050199 -32.224232 
L 45.318381 -33.277592 
L 46.586562 -34.330952 
L 47.854744 -35.384313 
L 49.122926 -36.437672 
L 50.391108 -37.491033 
L 51.65929 -38.544393 
L 52.927472 -39.653193 
L 54.195653 -40.706553 
L 55.463835 -41.815353 
L 56.732017 -42.868713 
L 58.000199 -43.977513 
L 59.268381 -45.086313 
L 60.536562 -46.139673 
L 61.804744 -47.248472 
L 63.072926 -48.357273 
L 64.341108 -49.466072 
L 65.60929 -50.574872 
L 66.877472 -51.683673 
L 68.145653 -52.847912 
L 69.413835 -53.956713 
L 70.682017 -55.065512 
L 71.950199 -56.229753 
L 73.218381 -57.338552 
L 74.486562 -58.502792 
L 75.754744 -59.611593 
L 77.022926 -60.775833 
L 78.291108 -61.940072 
L 79.55929 -63.104312 
L 80.827472 -64.268552 
L 82.095653 -65.432793 
L 83.363835 -66.597032 
L 84.632017 -67.816712 
L 85.900199 -68.980953 
L 87.168381 -70.200632 
L 88.436562 -71.420312 
L 89.704744 -72.639993 
L 90.972926 -73.915113 
L 92.241108 -75.190232 
L 93.50929 -76.576232 
L 94.777472 -78.350313 
L 94.777472 -78.350313 
L 94.777472 -78.350313 
L 93.50929 -77.795913 
L 92.241108 -76.964312 
L 90.972926 -76.021833 
L 89.704744 -75.079352 
L 88.436562 -74.136872 
L 87.168381 -73.138953 
L 85.900199 -72.141032 
L 84.632017 -71.087672 
L 83.363835 -70.089753 
L 82.095653 -69.036392 
L 80.827472 -67.983032 
L 79.55929 -66.929672 
L 78.291108 -65.876312 
L 77.022926 -64.822952 
L 75.754744 -63.769593 
L 74.486562 -62.716232 
L 73.218381 -61.607433 
L 71.950199 -60.554073 
L 70.682017 -59.445273 
L 69.413835 -58.391913 
L 68.145653 -57.283113 
L 66.877472 -56.174312 
L 65.60929 -55.120953 
L 64.341108 -54.012152 
L 63.072926 -52.903352 
L 61.804744 -51.794552 
L 60.536562 -50.685752 
L 59.268381 -49.576952 
L 58.000199 -48.412712 
L 56.732017 -47.303912 
L 55.463835 -46.195112 
L 54.195653 -45.030873 
L 52.927472 -43.922072 
L 51.65929 -42.757832 
L 50.391108 -41.649033 
L 49.122926 -40.484792 
L 47.854744 -39.320552 
L 46.586562 -38.156312 
L 45.318381 -36.992072 
L 44.050199 -35.827832 
L 42.782017 -34.663593 
L 41.513835 -33.443912 
L 40.245653 -32.279673 
L 38.977472 -31.059992 
L 37.70929 -29.840312 
L 36.441108 -28.620632 
L 35.172926 -27.345512 
L 33.904744 -26.070393 
L 32.636562 -24.684393 
z
" style="stroke: #808080; stroke-opacity: 0.2"/>
    </defs>
    <g clip-path="url(#pd097517202)">
     <use xlink:href="#m521c40fc77" x="0" y="98.388906" style="fill: #808080; fill-opacity: 0.2; stroke: #808080; stroke-opacity: 0.2"/>
    </g>
   </g>
   <g id="matplotlib.axis_1">
    <g id="xtick_1">
     <g id="line2d_1">
      <defs>
       <path id="m2f47c23310" d="M 0 0 
L 0 3.5 
" style="stroke: #000000; stroke-width: 1.5"/>
      </defs>
      <g>
       <use xlink:href="#m2f47c23310" x="32.636562" y="75.478594" style="stroke: #000000; stroke-width: 1.5"/>
      </g>
     </g>
     <g id="text_1">
      <text style="font: 9px 'Arial', sans-serif; text-anchor: middle" x="32.636562" y="89.317188" transform="rotate(-0 32.636562 89.317188)">0</text>
     </g>
    </g>
    <g id="xtick_2">
     <g id="line2d_2">
      <g>
       <use xlink:href="#m2f47c23310" x="96.045653" y="75.478594" style="stroke: #000000; stroke-width: 1.5"/>
      </g>
     </g>
     <g id="text_2">
      <text style="font: 9px 'Arial', sans-serif; text-anchor: middle" x="96.045653" y="89.317188" transform="rotate(-0 96.045653 89.317188)">1</text>
     </g>
    </g>
   </g>
   <g id="matplotlib.axis_2">
    <g id="ytick_1">
     <g id="line2d_3">
      <defs>
       <path id="m9da9250a8b" d="M 0 0 
L -3.5 0 
" style="stroke: #000000; stroke-width: 1.5"/>
      </defs>
      <g>
       <use xlink:href="#m9da9250a8b" x="32.636562" y="75.478594" style="stroke: #000000; stroke-width: 1.5"/>
      </g>
     </g>
     <g id="text_3">
      <text style="font: 9px 'Arial', sans-serif; text-anchor: end" x="25.636562" y="78.897891" transform="rotate(-0 25.636562 78.897891)">0</text>
     </g>
    </g>
    <g id="ytick_2">
     <g id="line2d_4">
      <g>
       <use xlink:href="#m9da9250a8b" x="32.636562" y="20.038594" style="stroke: #000000; stroke-width: 1.5"/>
      </g>
     </g>
     <g id="text_4">
      <text style="font: 9px 'Arial', sans-serif; text-anchor: end" x="25.636562" y="23.457891" transform="rotate(-0 25.636562 23.457891)">1</text>
     </g>
    </g>
    <g id="text_5">
     <text style="font: 9px 'Arial', sans-serif; text-anchor: middle" x="14.038594" y="47.758594" transform="rotate(-90 14.038594 47.758594)">Emp. coverage</text>
    </g>
   </g>
   <g id="line2d_5">
    <path d="M 33.270653 74.536114 
L 33.270653 73.593634 
L 34.538835 73.593634 
L 34.538835 72.595714 
L 35.807017 72.595714 
L 35.807017 71.542354 
L 37.075199 71.542354 
L 37.075199 70.544434 
L 38.343381 70.544434 
L 38.343381 69.491074 
L 39.611562 69.491074 
L 39.611562 67.938754 
L 40.879744 67.938754 
L 40.879744 67.162594 
L 42.147926 67.162594 
L 42.147926 65.832034 
L 43.416108 65.832034 
L 43.416108 64.390594 
L 44.68429 64.390594 
L 44.68429 63.337234 
L 45.952472 63.337234 
L 45.952472 62.172994 
L 47.220653 62.172994 
L 47.220653 60.786994 
L 48.488835 60.786994 
L 48.488835 59.511874 
L 49.757017 59.511874 
L 49.757017 58.403074 
L 51.025199 58.403074 
L 51.025199 57.294274 
L 52.293381 57.294274 
L 52.293381 55.908274 
L 53.561562 55.908274 
L 53.561562 54.854914 
L 54.829744 54.854914 
L 54.829744 53.524354 
L 56.097926 53.524354 
L 56.097926 52.526434 
L 57.366108 52.526434 
L 57.366108 51.195874 
L 58.63429 51.195874 
L 58.63429 49.809874 
L 59.902472 49.809874 
L 59.902472 48.756514 
L 61.170653 48.756514 
L 61.170653 47.315074 
L 62.438835 47.315074 
L 62.438835 46.317154 
L 63.707017 46.317154 
L 63.707017 44.764834 
L 64.975199 44.764834 
L 64.975199 43.378834 
L 66.243381 43.378834 
L 66.243381 42.380914 
L 67.511562 42.380914 
L 67.511562 40.884034 
L 68.779744 40.884034 
L 68.779744 39.886114 
L 70.047926 39.886114 
L 70.047926 38.666434 
L 71.316108 38.666434 
L 71.316108 37.502194 
L 72.58429 37.502194 
L 72.58429 36.171634 
L 73.852472 36.171634 
L 73.852472 35.173714 
L 75.120653 35.173714 
L 75.120653 34.120354 
L 76.388835 34.120354 
L 76.388835 32.845234 
L 77.657017 32.845234 
L 77.657017 31.791874 
L 78.925199 31.791874 
L 78.925199 30.793954 
L 80.193381 30.793954 
L 80.193381 29.407954 
L 81.461562 29.407954 
L 81.461562 28.354594 
L 82.729744 28.354594 
L 82.729744 27.412114 
L 83.997926 27.412114 
L 83.997926 25.970674 
L 85.266108 25.970674 
L 85.266108 25.139074 
L 86.53429 25.139074 
L 86.53429 23.974834 
L 87.802472 23.974834 
L 87.802472 23.364994 
L 89.070653 23.364994 
L 89.070653 22.477954 
L 90.338835 22.477954 
L 90.338835 21.868114 
L 91.607017 21.868114 
L 91.607017 21.036514 
L 92.875199 21.036514 
L 92.875199 20.703874 
L 94.143381 20.703874 
L 94.143381 20.038594 
L 95.411562 20.038594 
" clip-path="url(#pd097517202)" style="fill: none; stroke: #eedf7a; stroke-linecap: square"/>
   </g>
   <g id="line2d_6">
    <path d="M 33.521753 74.369794 
L 33.521753 73.870834 
L 34.784862 73.870834 
L 34.784862 72.429394 
L 36.047972 72.429394 
L 36.047972 71.486914 
L 37.311081 71.486914 
L 37.311081 70.766194 
L 38.57419 70.766194 
L 38.57419 69.768274 
L 39.837299 69.768274 
L 39.837299 68.437714 
L 41.100408 68.437714 
L 41.100408 67.495234 
L 42.363517 67.495234 
L 42.363517 66.774514 
L 43.626626 66.774514 
L 43.626626 65.333074 
L 44.889735 65.333074 
L 44.889735 64.335154 
L 46.152844 64.335154 
L 46.152844 62.893714 
L 47.415953 62.893714 
L 47.415953 61.341394 
L 48.679063 61.341394 
L 48.679063 59.844514 
L 49.942172 59.844514 
L 49.942172 58.403074 
L 51.205281 58.403074 
L 51.205281 57.238834 
L 52.46839 57.238834 
L 52.46839 55.686514 
L 53.731499 55.686514 
L 53.731499 53.801554 
L 54.994608 53.801554 
L 54.994608 52.581874 
L 56.257717 52.581874 
L 56.257717 51.417634 
L 57.520826 51.417634 
L 57.520826 49.754434 
L 58.783935 49.754434 
L 58.783935 48.590194 
L 60.047044 48.590194 
L 60.047044 46.926994 
L 61.310153 46.926994 
L 61.310153 45.651874 
L 62.573262 45.651874 
L 62.573262 44.265874 
L 63.836372 44.265874 
L 63.836372 42.658114 
L 65.099481 42.658114 
L 65.099481 40.495954 
L 66.36259 40.495954 
L 66.36259 39.387154 
L 67.625699 39.387154 
L 67.625699 37.834834 
L 68.888808 37.834834 
L 68.888808 36.559714 
L 70.151917 36.559714 
L 70.151917 35.617234 
L 71.415026 35.617234 
L 71.415026 33.954034 
L 72.678135 33.954034 
L 72.678135 32.845234 
L 73.941244 32.845234 
L 73.941244 32.069074 
L 75.204353 32.069074 
L 75.204353 31.071154 
L 76.467462 31.071154 
L 76.467462 29.574274 
L 77.730572 29.574274 
L 77.730572 28.576354 
L 78.993681 28.576354 
L 78.993681 27.578434 
L 80.25679 27.578434 
L 80.25679 26.857714 
L 81.519899 26.857714 
L 81.519899 25.748914 
L 82.783008 25.748914 
L 82.783008 24.972754 
L 84.046117 24.972754 
L 84.046117 24.418354 
L 85.309226 24.418354 
L 85.309226 23.586754 
L 86.572335 23.586754 
L 86.572335 22.866034 
L 87.835444 22.866034 
L 87.835444 22.477954 
L 89.098553 22.477954 
L 89.098553 22.034434 
L 90.361662 22.034434 
L 90.361662 21.590914 
L 91.624772 21.590914 
L 91.624772 20.981074 
L 92.887881 20.981074 
L 92.887881 20.371234 
L 94.15099 20.371234 
L 94.15099 20.038594 
L 95.414099 20.038594 
" clip-path="url(#pd097517202)" style="fill: none; stroke: #e7cb71; stroke-linecap: square"/>
   </g>
   <g id="line2d_7">
    <path d="M 33.270653 74.979634 
L 33.270653 74.591554 
L 34.538835 74.591554 
L 34.538835 73.815394 
L 35.807017 73.815394 
L 35.807017 73.150114 
L 37.075199 73.150114 
L 37.075199 72.651154 
L 38.343381 72.651154 
L 38.343381 72.096754 
L 39.611562 72.096754 
L 39.611562 71.154274 
L 40.879744 71.154274 
L 40.879744 69.990034 
L 42.147926 69.990034 
L 42.147926 68.770354 
L 43.416108 68.770354 
L 43.416108 67.495234 
L 44.68429 67.495234 
L 44.68429 66.719074 
L 45.952472 66.719074 
L 45.952472 65.166754 
L 47.220653 65.166754 
L 47.220653 63.503554 
L 48.488835 63.503554 
L 48.488835 62.228434 
L 49.757017 62.228434 
L 49.757017 60.786994 
L 51.025199 60.786994 
L 51.025199 59.012914 
L 52.293381 59.012914 
L 52.293381 57.127954 
L 53.561562 57.127954 
L 53.561562 55.242994 
L 54.829744 55.242994 
L 54.829744 53.136274 
L 56.097926 53.136274 
L 56.097926 51.473074 
L 57.366108 51.473074 
L 57.366108 49.809874 
L 58.63429 49.809874 
L 58.63429 47.425954 
L 59.902472 47.425954 
L 59.902472 45.818194 
L 61.170653 45.818194 
L 61.170653 43.766914 
L 62.438835 43.766914 
L 62.438835 42.436354 
L 63.707017 42.436354 
L 63.707017 40.274194 
L 64.975199 40.274194 
L 64.975199 39.054514 
L 66.243381 39.054514 
L 66.243381 36.947794 
L 67.511562 36.947794 
L 67.511562 35.173714 
L 68.779744 35.173714 
L 68.779744 33.676834 
L 70.047926 33.676834 
L 70.047926 32.290834 
L 71.316108 32.290834 
L 71.316108 31.071154 
L 72.58429 31.071154 
L 72.58429 29.906914 
L 73.852472 29.906914 
L 73.852472 28.465474 
L 75.120653 28.465474 
L 75.120653 27.412114 
L 76.388835 27.412114 
L 76.388835 26.247874 
L 77.657017 26.247874 
L 77.657017 25.748914 
L 78.925199 25.748914 
L 78.925199 25.083634 
L 80.193381 25.083634 
L 80.193381 24.362914 
L 81.461562 24.362914 
L 81.461562 23.697634 
L 82.729744 23.697634 
L 82.729744 23.198674 
L 83.997926 23.198674 
L 83.997926 22.699714 
L 85.266108 22.699714 
L 85.266108 22.311634 
L 86.53429 22.311634 
L 86.53429 22.034434 
L 87.802472 22.034434 
L 87.802472 21.757234 
L 89.070653 21.757234 
L 89.070653 21.369154 
L 90.338835 21.369154 
L 90.338835 21.202834 
L 91.607017 21.202834 
L 91.607017 20.759314 
L 92.875199 20.759314 
L 92.875199 20.648434 
L 94.143381 20.648434 
L 94.143381 20.038594 
L 95.411562 20.038594 
" clip-path="url(#pd097517202)" style="fill: none; stroke: #e0b768; stroke-linecap: square"/>
   </g>
   <g id="line2d_8">
    <path d="M 34.275053 75.090514 
L 34.275053 74.425234 
L 35.522944 74.425234 
L 35.522944 73.926274 
L 36.770835 73.926274 
L 36.770835 73.593634 
L 38.018726 73.593634 
L 38.018726 73.260994 
L 39.266617 73.260994 
L 39.266617 72.817474 
L 40.514508 72.817474 
L 40.514508 72.263074 
L 41.762399 72.263074 
L 41.762399 71.542354 
L 43.01029 71.542354 
L 43.01029 70.987954 
L 44.258181 70.987954 
L 44.258181 70.045474 
L 45.506072 70.045474 
L 45.506072 69.158434 
L 46.753962 69.158434 
L 46.753962 68.437714 
L 48.001853 68.437714 
L 48.001853 67.661554 
L 49.249744 67.661554 
L 49.249744 66.663634 
L 50.497635 66.663634 
L 50.497635 65.776594 
L 51.745526 65.776594 
L 51.745526 64.335154 
L 52.993417 64.335154 
L 52.993417 63.004594 
L 54.241308 63.004594 
L 54.241308 61.285954 
L 55.489199 61.285954 
L 55.489199 59.678194 
L 56.73709 59.678194 
L 56.73709 57.127954 
L 57.984981 57.127954 
L 57.984981 54.910354 
L 59.232872 54.910354 
L 59.232872 53.080834 
L 60.480762 53.080834 
L 60.480762 50.752354 
L 61.728653 50.752354 
L 61.728653 48.202114 
L 62.976544 48.202114 
L 62.976544 45.319234 
L 64.224435 45.319234 
L 64.224435 42.879874 
L 65.472326 42.879874 
L 65.472326 40.939474 
L 66.720217 40.939474 
L 66.720217 38.832754 
L 67.968108 38.832754 
L 67.968108 36.393394 
L 69.215999 36.393394 
L 69.215999 34.231234 
L 70.46389 34.231234 
L 70.46389 32.179954 
L 71.711781 32.179954 
L 71.711781 31.348354 
L 72.959672 31.348354 
L 72.959672 29.906914 
L 74.207562 29.906914 
L 74.207562 28.299154 
L 75.455453 28.299154 
L 75.455453 27.522994 
L 76.703344 27.522994 
L 76.703344 26.746834 
L 77.951235 26.746834 
L 77.951235 25.748914 
L 79.199126 25.748914 
L 79.199126 24.806434 
L 80.447017 24.806434 
L 80.447017 24.085714 
L 81.694908 24.085714 
L 81.694908 23.697634 
L 82.942799 23.697634 
L 82.942799 23.143234 
L 84.19069 23.143234 
L 84.19069 22.921474 
L 85.438581 22.921474 
L 85.438581 22.644274 
L 86.686472 22.644274 
L 86.686472 22.311634 
L 87.934362 22.311634 
L 87.934362 21.923554 
L 89.182253 21.923554 
L 89.182253 21.812674 
L 90.430144 21.812674 
L 90.430144 21.535474 
L 91.678035 21.535474 
L 91.678035 21.258274 
L 92.925926 21.258274 
L 92.925926 21.091954 
L 94.173817 21.091954 
L 94.173817 20.038594 
L 95.421708 20.038594 
" clip-path="url(#pd097517202)" style="fill: none; stroke: #d8a25e; stroke-linecap: square"/>
   </g>
   <g id="line2d_9">
    <path d="M 33.270653 75.201394 
L 33.270653 75.035074 
L 34.538835 75.035074 
L 34.538835 74.868754 
L 35.807017 74.868754 
L 35.807017 74.591554 
L 37.075199 74.591554 
L 37.075199 74.258914 
L 38.343381 74.258914 
L 38.343381 73.870834 
L 39.611562 73.870834 
L 39.611562 73.482754 
L 40.879744 73.482754 
L 40.879744 73.205554 
L 42.147926 73.205554 
L 42.147926 72.928354 
L 43.416108 72.928354 
L 43.416108 72.484834 
L 44.68429 72.484834 
L 44.68429 72.041314 
L 45.952472 72.041314 
L 45.952472 71.542354 
L 47.220653 71.542354 
L 47.220653 70.655314 
L 48.488835 70.655314 
L 48.488835 69.768274 
L 49.757017 69.768274 
L 49.757017 69.213874 
L 51.025199 69.213874 
L 51.025199 68.493154 
L 52.293381 68.493154 
L 52.293381 67.661554 
L 53.561562 67.661554 
L 53.561562 66.497314 
L 54.829744 66.497314 
L 54.829744 65.277634 
L 56.097926 65.277634 
L 56.097926 63.891634 
L 57.366108 63.891634 
L 57.366108 61.840354 
L 58.63429 61.840354 
L 58.63429 59.622754 
L 59.902472 59.622754 
L 59.902472 57.460594 
L 61.170653 57.460594 
L 61.170653 55.021234 
L 62.438835 55.021234 
L 62.438835 52.581874 
L 63.707017 52.581874 
L 63.707017 50.530594 
L 64.975199 50.530594 
L 64.975199 47.924914 
L 66.243381 47.924914 
L 66.243381 44.875714 
L 67.511562 44.875714 
L 67.511562 41.992834 
L 68.779744 41.992834 
L 68.779744 39.054514 
L 70.047926 39.054514 
L 70.047926 37.502194 
L 71.316108 37.502194 
L 71.316108 35.561794 
L 72.58429 35.561794 
L 72.58429 32.900674 
L 73.852472 32.900674 
L 73.852472 30.738514 
L 75.120653 30.738514 
L 75.120653 29.518834 
L 76.388835 29.518834 
L 76.388835 28.576354 
L 77.657017 28.576354 
L 77.657017 27.190354 
L 78.925199 27.190354 
L 78.925199 26.192434 
L 80.193381 26.192434 
L 80.193381 25.360834 
L 81.461562 25.360834 
L 81.461562 24.584674 
L 82.729744 24.584674 
L 82.729744 24.196594 
L 83.997926 24.196594 
L 83.997926 23.697634 
L 85.266108 23.697634 
L 85.266108 23.309554 
L 86.53429 23.309554 
L 86.53429 23.032354 
L 87.802472 23.032354 
L 87.802472 22.699714 
L 89.070653 22.699714 
L 89.070653 22.533394 
L 90.338835 22.533394 
L 90.338835 22.311634 
L 91.607017 22.311634 
L 91.607017 22.200754 
L 92.875199 22.200754 
L 92.875199 21.590914 
L 94.143381 21.590914 
L 94.143381 20.038594 
L 95.411562 20.038594 
" clip-path="url(#pd097517202)" style="fill: none; stroke: #c68457; stroke-linecap: square"/>
   </g>
   <g id="line2d_10">
    <path d="M 33.270653 75.201394 
L 33.270653 75.201394 
L 34.538835 75.201394 
L 34.538835 74.924194 
L 35.807017 74.924194 
L 35.807017 74.813314 
L 37.075199 74.813314 
L 37.075199 74.203474 
L 38.343381 74.203474 
L 38.343381 73.759954 
L 39.611562 73.759954 
L 39.611562 72.983794 
L 40.879744 72.983794 
L 40.879744 72.762034 
L 42.147926 72.762034 
L 42.147926 72.207634 
L 43.416108 72.207634 
L 43.416108 71.708674 
L 44.68429 71.708674 
L 44.68429 71.154274 
L 45.952472 71.154274 
L 45.952472 70.100914 
L 47.220653 70.100914 
L 47.220653 68.936674 
L 48.488835 68.936674 
L 48.488835 67.827874 
L 49.757017 67.827874 
L 49.757017 66.885394 
L 51.025199 66.885394 
L 51.025199 65.499394 
L 52.293381 65.499394 
L 52.293381 64.335154 
L 53.561562 64.335154 
L 53.561562 62.450194 
L 54.829744 62.450194 
L 54.829744 60.897874 
L 56.097926 60.897874 
L 56.097926 58.957474 
L 57.366108 58.957474 
L 57.366108 57.571474 
L 58.63429 57.571474 
L 58.63429 55.353874 
L 59.902472 55.353874 
L 59.902472 53.967874 
L 61.170653 53.967874 
L 61.170653 51.916594 
L 62.438835 51.916594 
L 62.438835 50.031634 
L 63.707017 50.031634 
L 63.707017 48.257554 
L 64.975199 48.257554 
L 64.975199 45.818194 
L 66.243381 45.818194 
L 66.243381 43.434274 
L 67.511562 43.434274 
L 67.511562 41.216674 
L 68.779744 41.216674 
L 68.779744 38.721874 
L 70.047926 38.721874 
L 70.047926 36.559714 
L 71.316108 36.559714 
L 71.316108 34.397554 
L 72.58429 34.397554 
L 72.58429 32.678914 
L 73.852472 32.678914 
L 73.852472 31.292914 
L 75.120653 31.292914 
L 75.120653 29.906914 
L 76.388835 29.906914 
L 76.388835 28.631794 
L 77.657017 28.631794 
L 77.657017 27.412114 
L 78.925199 27.412114 
L 78.925199 26.635954 
L 80.193381 26.635954 
L 80.193381 25.915234 
L 81.461562 25.915234 
L 81.461562 25.582594 
L 82.729744 25.582594 
L 82.729744 25.083634 
L 83.997926 25.083634 
L 83.997926 24.861874 
L 85.266108 24.861874 
L 85.266108 24.362914 
L 86.53429 24.362914 
L 86.53429 24.030274 
L 87.802472 24.030274 
L 87.802472 23.697634 
L 89.070653 23.697634 
L 89.070653 23.309554 
L 90.338835 23.309554 
L 90.338835 22.921474 
L 91.607017 22.921474 
L 91.607017 22.699714 
L 92.875199 22.699714 
L 92.875199 22.311634 
L 94.143381 22.311634 
L 94.143381 20.038594 
L 95.411562 20.038594 
" clip-path="url(#pd097517202)" style="fill: none; stroke: #b3664f; stroke-linecap: square"/>
   </g>
   <g id="patch_3">
    <path d="M 32.636562 75.478594 
L 32.636562 20.038594 
" style="fill: none; stroke: #000000; stroke-width: 1.5; stroke-linejoin: miter; stroke-linecap: square"/>
   </g>
   <g id="patch_4">
    <path d="M 32.636562 75.478594 
L 96.045653 75.478594 
" style="fill: none; stroke: #000000; stroke-width: 1.5; stroke-linejoin: miter; stroke-linecap: square"/>
   </g>
   <g id="text_6">
    <!-- $\theta_1$ -->
    <g transform="translate(59.391108 14.038594)">
     <text>
      <tspan style="font: 9px 'DejaVu Sans'" x="0" y="-0.09375">θ</tspan>
      <tspan style="font: 6.3px 'DejaVu Sans'" x="5.59248" y="1.3828125">1</tspan>
     </text>
    </g>
   </g>
  </g>
  <g id="axes_2">
   <g id="patch_5">
    <path d="M 108.727472 75.478594 
L 172.136562 75.478594 
L 172.136562 20.038594 
L 108.727472 20.038594 
z
" style="fill: #ffffff"/>
   </g>
   <g id="PolyCollection_2">
    <defs>
     <path id="mc655da934f" d="M 108.727472 -24.684393 
L 108.727472 -23.464713 
L 109.995653 -24.296312 
L 111.263835 -25.238792 
L 112.532017 -26.181272 
L 113.800199 -27.123752 
L 115.068381 -28.121672 
L 116.336562 -29.119592 
L 117.604744 -30.172953 
L 118.872926 -31.170873 
L 120.141108 -32.224232 
L 121.40929 -33.277592 
L 122.677472 -34.330952 
L 123.945653 -35.384313 
L 125.213835 -36.437672 
L 126.482017 -37.491033 
L 127.750199 -38.544393 
L 129.018381 -39.653193 
L 130.286562 -40.706553 
L 131.554744 -41.815353 
L 132.822926 -42.868713 
L 134.091108 -43.977513 
L 135.35929 -45.086313 
L 136.627472 -46.139673 
L 137.895653 -47.248472 
L 139.163835 -48.357273 
L 140.432017 -49.466072 
L 141.700199 -50.574872 
L 142.968381 -51.683673 
L 144.236562 -52.847912 
L 145.504744 -53.956713 
L 146.772926 -55.065512 
L 148.041108 -56.229753 
L 149.30929 -57.338552 
L 150.577472 -58.502792 
L 151.845653 -59.611593 
L 153.113835 -60.775833 
L 154.382017 -61.940072 
L 155.650199 -63.104312 
L 156.918381 -64.268552 
L 158.186562 -65.432793 
L 159.454744 -66.597032 
L 160.722926 -67.816712 
L 161.991108 -68.980953 
L 163.25929 -70.200632 
L 164.527472 -71.420312 
L 165.795653 -72.639993 
L 167.063835 -73.915113 
L 168.332017 -75.190232 
L 169.600199 -76.576232 
L 170.868381 -78.350313 
L 170.868381 -78.350313 
L 170.868381 -78.350313 
L 169.600199 -77.795913 
L 168.332017 -76.964312 
L 167.063835 -76.021833 
L 165.795653 -75.079352 
L 164.527472 -74.136872 
L 163.25929 -73.138953 
L 161.991108 -72.141032 
L 160.722926 -71.087672 
L 159.454744 -70.089753 
L 158.186562 -69.036392 
L 156.918381 -67.983032 
L 155.650199 -66.929672 
L 154.382017 -65.876312 
L 153.113835 -64.822952 
L 151.845653 -63.769593 
L 150.577472 -62.716232 
L 149.30929 -61.607433 
L 148.041108 -60.554073 
L 146.772926 -59.445273 
L 145.504744 -58.391913 
L 144.236562 -57.283113 
L 142.968381 -56.174312 
L 141.700199 -55.120953 
L 140.432017 -54.012152 
L 139.163835 -52.903352 
L 137.895653 -51.794552 
L 136.627472 -50.685752 
L 135.35929 -49.576952 
L 134.091108 -48.412712 
L 132.822926 -47.303912 
L 131.554744 -46.195112 
L 130.286562 -45.030873 
L 129.018381 -43.922072 
L 127.750199 -42.757832 
L 126.482017 -41.649033 
L 125.213835 -40.484792 
L 123.945653 -39.320552 
L 122.677472 -38.156312 
L 121.40929 -36.992072 
L 120.141108 -35.827832 
L 118.872926 -34.663593 
L 117.604744 -33.443912 
L 116.336562 -32.279673 
L 115.068381 -31.059992 
L 113.800199 -29.840312 
L 112.532017 -28.620632 
L 111.263835 -27.345512 
L 109.995653 -26.070393 
L 108.727472 -24.684393 
z
" style="stroke: #808080; stroke-opacity: 0.2"/>
    </defs>
    <g clip-path="url(#p6504e8cd43)">
     <use xlink:href="#mc655da934f" x="0" y="98.388906" style="fill: #808080; fill-opacity: 0.2; stroke: #808080; stroke-opacity: 0.2"/>
    </g>
   </g>
   <g id="matplotlib.axis_3">
    <g id="xtick_3">
     <g id="line2d_11">
      <g>
       <use xlink:href="#m2f47c23310" x="108.727472" y="75.478594" style="stroke: #000000; stroke-width: 1.5"/>
      </g>
     </g>
     <g id="text_7">
      <text style="font: 9px 'Arial', sans-serif; text-anchor: middle" x="108.727472" y="89.317188" transform="rotate(-0 108.727472 89.317188)">0</text>
     </g>
    </g>
    <g id="xtick_4">
     <g id="line2d_12">
      <g>
       <use xlink:href="#m2f47c23310" x="172.136562" y="75.478594" style="stroke: #000000; stroke-width: 1.5"/>
      </g>
     </g>
     <g id="text_8">
      <text style="font: 9px 'Arial', sans-serif; text-anchor: middle" x="172.136562" y="89.317188" transform="rotate(-0 172.136562 89.317188)">1</text>
     </g>
    </g>
   </g>
   <g id="matplotlib.axis_4">
    <g id="ytick_3">
     <g id="line2d_13">
      <g>
       <use xlink:href="#m9da9250a8b" x="108.727472" y="75.478594" style="stroke: #000000; stroke-width: 1.5"/>
      </g>
     </g>
    </g>
    <g id="ytick_4">
     <g id="line2d_14">
      <g>
       <use xlink:href="#m9da9250a8b" x="108.727472" y="20.038594" style="stroke: #000000; stroke-width: 1.5"/>
      </g>
     </g>
    </g>
   </g>
   <g id="line2d_15">
    <path d="M 109.487112 75.256834 
L 109.487112 74.868754 
L 110.752758 74.868754 
L 110.752758 74.480674 
L 112.018403 74.480674 
L 112.018403 74.092594 
L 113.284049 74.092594 
L 113.284049 73.538194 
L 114.549694 73.538194 
L 114.549694 72.706594 
L 115.81534 72.706594 
L 115.81534 71.985874 
L 117.080985 71.985874 
L 117.080985 71.209714 
L 118.346631 71.209714 
L 118.346631 70.322674 
L 119.612276 70.322674 
L 119.612276 69.380194 
L 120.877922 69.380194 
L 120.877922 68.049634 
L 122.143567 68.049634 
L 122.143567 67.051714 
L 123.409212 67.051714 
L 123.409212 66.164674 
L 124.674858 66.164674 
L 124.674858 64.446034 
L 125.940503 64.446034 
L 125.940503 63.226354 
L 127.206149 63.226354 
L 127.206149 62.006674 
L 128.471794 62.006674 
L 128.471794 61.064194 
L 129.73744 61.064194 
L 129.73744 59.068354 
L 131.003085 59.068354 
L 131.003085 57.682354 
L 132.268731 57.682354 
L 132.268731 56.185474 
L 133.534376 56.185474 
L 133.534376 54.577714 
L 134.800022 54.577714 
L 134.800022 53.247154 
L 136.065667 53.247154 
L 136.065667 51.251314 
L 137.331312 51.251314 
L 137.331312 49.200034 
L 138.596958 49.200034 
L 138.596958 47.315074 
L 139.862603 47.315074 
L 139.862603 45.430114 
L 141.128249 45.430114 
L 141.128249 43.101634 
L 142.393894 43.101634 
L 142.393894 41.105794 
L 143.65954 41.105794 
L 143.65954 39.664354 
L 144.925185 39.664354 
L 144.925185 38.666434 
L 146.190831 38.666434 
L 146.190831 37.446754 
L 147.456476 37.446754 
L 147.456476 35.894434 
L 148.722122 35.894434 
L 148.722122 34.619314 
L 149.987767 34.619314 
L 149.987767 32.956114 
L 151.253412 32.956114 
L 151.253412 31.237474 
L 152.519058 31.237474 
L 152.519058 30.239554 
L 153.784703 30.239554 
L 153.784703 28.853554 
L 155.050349 28.853554 
L 155.050349 27.744754 
L 156.315994 27.744754 
L 156.315994 26.635954 
L 157.58164 26.635954 
L 157.58164 25.748914 
L 158.847285 25.748914 
L 158.847285 24.640114 
L 160.112931 24.640114 
L 160.112931 23.863954 
L 161.378576 23.863954 
L 161.378576 23.309554 
L 162.644222 23.309554 
L 162.644222 22.699714 
L 163.909867 22.699714 
L 163.909867 22.200754 
L 165.175512 22.200754 
L 165.175512 21.701794 
L 166.441158 21.701794 
L 166.441158 21.313714 
L 167.706803 21.313714 
L 167.706803 20.925634 
L 168.972449 20.925634 
L 168.972449 20.482114 
L 170.238094 20.482114 
L 170.238094 20.038594 
L 171.50374 20.038594 
" clip-path="url(#p6504e8cd43)" style="fill: none; stroke: #eedf7a; stroke-linecap: square"/>
   </g>
   <g id="line2d_16">
    <path d="M 109.361562 75.145954 
L 109.361562 74.924194 
L 110.629744 74.924194 
L 110.629744 74.702434 
L 111.897926 74.702434 
L 111.897926 74.425234 
L 113.166108 74.425234 
L 113.166108 74.203474 
L 114.43429 74.203474 
L 114.43429 73.981714 
L 115.702472 73.981714 
L 115.702472 73.593634 
L 116.970653 73.593634 
L 116.970653 73.094674 
L 118.238835 73.094674 
L 118.238835 72.762034 
L 119.507017 72.762034 
L 119.507017 72.207634 
L 120.775199 72.207634 
L 120.775199 71.653234 
L 122.043381 71.653234 
L 122.043381 70.488994 
L 123.311562 70.488994 
L 123.311562 69.712834 
L 124.579744 69.712834 
L 124.579744 68.992114 
L 125.847926 68.992114 
L 125.847926 67.827874 
L 127.116108 67.827874 
L 127.116108 66.386434 
L 128.38429 66.386434 
L 128.38429 65.055874 
L 129.652472 65.055874 
L 129.652472 63.337234 
L 130.920653 63.337234 
L 130.920653 61.563154 
L 132.188835 61.563154 
L 132.188835 60.121714 
L 133.457017 60.121714 
L 133.457017 57.904114 
L 134.725199 57.904114 
L 134.725199 56.130034 
L 135.993381 56.130034 
L 135.993381 53.967874 
L 137.261562 53.967874 
L 137.261562 51.583954 
L 138.529744 51.583954 
L 138.529744 48.978274 
L 139.797926 48.978274 
L 139.797926 46.538914 
L 141.066108 46.538914 
L 141.066108 43.545154 
L 142.33429 43.545154 
L 142.33429 41.881954 
L 143.602472 41.881954 
L 143.602472 40.052434 
L 144.870653 40.052434 
L 144.870653 37.224994 
L 146.138835 37.224994 
L 146.138835 35.395474 
L 147.407017 35.395474 
L 147.407017 33.455074 
L 148.675199 33.455074 
L 148.675199 31.958194 
L 149.943381 31.958194 
L 149.943381 30.627634 
L 151.211562 30.627634 
L 151.211562 29.407954 
L 152.479744 29.407954 
L 152.479744 28.132834 
L 153.747926 28.132834 
L 153.747926 27.079474 
L 155.016108 27.079474 
L 155.016108 26.247874 
L 156.28429 26.247874 
L 156.28429 25.305394 
L 157.552472 25.305394 
L 157.552472 24.529234 
L 158.820653 24.529234 
L 158.820653 23.753074 
L 160.088835 23.753074 
L 160.088835 23.198674 
L 161.357017 23.198674 
L 161.357017 22.921474 
L 162.625199 22.921474 
L 162.625199 22.533394 
L 163.893381 22.533394 
L 163.893381 22.034434 
L 165.161562 22.034434 
L 165.161562 21.812674 
L 166.429744 21.812674 
L 166.429744 21.424594 
L 167.697926 21.424594 
L 167.697926 20.981074 
L 168.966108 20.981074 
L 168.966108 20.537554 
L 170.23429 20.537554 
L 170.23429 20.038594 
L 171.502472 20.038594 
" clip-path="url(#p6504e8cd43)" style="fill: none; stroke: #e7cb71; stroke-linecap: square"/>
   </g>
   <g id="line2d_17">
    <path d="M 109.361562 75.201394 
L 109.361562 75.090514 
L 110.629744 75.090514 
L 110.629744 74.813314 
L 111.897926 74.813314 
L 111.897926 74.591554 
L 113.166108 74.591554 
L 113.166108 74.536114 
L 114.43429 74.536114 
L 114.43429 74.314354 
L 115.702472 74.314354 
L 115.702472 73.870834 
L 116.970653 73.870834 
L 116.970653 73.371874 
L 118.238835 73.371874 
L 118.238835 73.260994 
L 119.507017 73.260994 
L 119.507017 72.928354 
L 120.775199 72.928354 
L 120.775199 72.651154 
L 122.043381 72.651154 
L 122.043381 72.207634 
L 123.311562 72.207634 
L 123.311562 71.043394 
L 124.579744 71.043394 
L 124.579744 70.211794 
L 125.847926 70.211794 
L 125.847926 69.158434 
L 127.116108 69.158434 
L 127.116108 67.384354 
L 128.38429 67.384354 
L 128.38429 66.053794 
L 129.652472 66.053794 
L 129.652472 64.390594 
L 130.920653 64.390594 
L 130.920653 62.727394 
L 132.188835 62.727394 
L 132.188835 60.842434 
L 133.457017 60.842434 
L 133.457017 59.456434 
L 134.725199 59.456434 
L 134.725199 56.518114 
L 135.993381 56.518114 
L 135.993381 53.247154 
L 137.261562 53.247154 
L 137.261562 50.142514 
L 138.529744 50.142514 
L 138.529744 47.536834 
L 139.797926 47.536834 
L 139.797926 45.152914 
L 141.066108 45.152914 
L 141.066108 42.879874 
L 142.33429 42.879874 
L 142.33429 39.886114 
L 143.602472 39.886114 
L 143.602472 37.335874 
L 144.870653 37.335874 
L 144.870653 34.619314 
L 146.138835 34.619314 
L 146.138835 32.401714 
L 147.407017 32.401714 
L 147.407017 30.017794 
L 148.675199 30.017794 
L 148.675199 28.410034 
L 149.943381 28.410034 
L 149.943381 27.190354 
L 151.211562 27.190354 
L 151.211562 26.303314 
L 152.479744 26.303314 
L 152.479744 25.693474 
L 153.747926 25.693474 
L 153.747926 25.028194 
L 155.016108 25.028194 
L 155.016108 24.473794 
L 156.28429 24.473794 
L 156.28429 23.808514 
L 157.552472 23.808514 
L 157.552472 23.697634 
L 158.820653 23.697634 
L 158.820653 23.143234 
L 160.088835 23.143234 
L 160.088835 22.755154 
L 161.357017 22.755154 
L 161.357017 22.311634 
L 162.625199 22.311634 
L 162.625199 21.978994 
L 163.893381 21.978994 
L 163.893381 21.646354 
L 165.161562 21.646354 
L 165.161562 21.313714 
L 166.429744 21.313714 
L 166.429744 21.091954 
L 167.697926 21.091954 
L 167.697926 20.870194 
L 168.966108 20.870194 
L 168.966108 20.592994 
L 170.23429 20.592994 
L 170.23429 20.038594 
L 171.502472 20.038594 
" clip-path="url(#p6504e8cd43)" style="fill: none; stroke: #e0b768; stroke-linecap: square"/>
   </g>
   <g id="line2d_18">
    <path d="M 109.361562 75.145954 
L 109.361562 75.035074 
L 110.629744 75.035074 
L 110.629744 74.813314 
L 111.897926 74.813314 
L 111.897926 74.757874 
L 113.166108 74.757874 
L 113.166108 74.591554 
L 114.43429 74.591554 
L 114.43429 74.480674 
L 115.702472 74.480674 
L 115.702472 74.314354 
L 116.970653 74.314354 
L 116.970653 74.092594 
L 118.238835 74.092594 
L 118.238835 73.926274 
L 119.507017 73.926274 
L 119.507017 73.704514 
L 120.775199 73.704514 
L 120.775199 73.427314 
L 122.043381 73.427314 
L 122.043381 72.983794 
L 123.311562 72.983794 
L 123.311562 71.930434 
L 124.579744 71.930434 
L 124.579744 70.987954 
L 125.847926 70.987954 
L 125.847926 70.211794 
L 127.116108 70.211794 
L 127.116108 68.936674 
L 128.38429 68.936674 
L 128.38429 67.716994 
L 129.652472 67.716994 
L 129.652472 66.330994 
L 130.920653 66.330994 
L 130.920653 64.501474 
L 132.188835 64.501474 
L 132.188835 62.117554 
L 133.457017 62.117554 
L 133.457017 60.232594 
L 134.725199 60.232594 
L 134.725199 57.571474 
L 135.993381 57.571474 
L 135.993381 54.688594 
L 137.261562 54.688594 
L 137.261562 51.583954 
L 138.529744 51.583954 
L 138.529744 48.534754 
L 139.797926 48.534754 
L 139.797926 45.873634 
L 141.066108 45.873634 
L 141.066108 42.048274 
L 142.33429 42.048274 
L 142.33429 39.276274 
L 143.602472 39.276274 
L 143.602472 36.504274 
L 144.870653 36.504274 
L 144.870653 34.064914 
L 146.138835 34.064914 
L 146.138835 31.736434 
L 147.407017 31.736434 
L 147.407017 29.962354 
L 148.675199 29.962354 
L 148.675199 28.410034 
L 149.943381 28.410034 
L 149.943381 27.301234 
L 151.211562 27.301234 
L 151.211562 25.693474 
L 152.479744 25.693474 
L 152.479744 24.917314 
L 153.747926 24.917314 
L 153.747926 24.418354 
L 155.016108 24.418354 
L 155.016108 23.919394 
L 156.28429 23.919394 
L 156.28429 23.531314 
L 157.552472 23.531314 
L 157.552472 23.032354 
L 158.820653 23.032354 
L 158.820653 22.921474 
L 160.088835 22.921474 
L 160.088835 22.644274 
L 161.357017 22.644274 
L 161.357017 22.311634 
L 162.625199 22.311634 
L 162.625199 22.089874 
L 163.893381 22.089874 
L 163.893381 21.923554 
L 165.161562 21.923554 
L 165.161562 21.646354 
L 166.429744 21.646354 
L 166.429744 21.480034 
L 167.697926 21.480034 
L 167.697926 21.202834 
L 168.966108 21.202834 
L 168.966108 20.870194 
L 170.23429 20.870194 
L 170.23429 20.038594 
L 171.502472 20.038594 
" clip-path="url(#p6504e8cd43)" style="fill: none; stroke: #d8a25e; stroke-linecap: square"/>
   </g>
   <g id="line2d_19">
    <path d="M 109.361562 75.035074 
L 109.361562 74.924194 
L 110.629744 74.924194 
L 110.629744 74.924194 
L 111.897926 74.924194 
L 111.897926 74.646994 
L 113.166108 74.646994 
L 113.166108 74.480674 
L 114.43429 74.480674 
L 114.43429 74.369794 
L 115.702472 74.369794 
L 115.702472 74.203474 
L 116.970653 74.203474 
L 116.970653 73.926274 
L 118.238835 73.926274 
L 118.238835 73.759954 
L 119.507017 73.759954 
L 119.507017 73.150114 
L 120.775199 73.150114 
L 120.775199 72.540274 
L 122.043381 72.540274 
L 122.043381 71.930434 
L 123.311562 71.930434 
L 123.311562 71.431474 
L 124.579744 71.431474 
L 124.579744 70.766194 
L 125.847926 70.766194 
L 125.847926 69.546514 
L 127.116108 69.546514 
L 127.116108 68.215954 
L 128.38429 68.215954 
L 128.38429 66.608194 
L 129.652472 66.608194 
L 129.652472 64.501474 
L 130.920653 64.501474 
L 130.920653 61.951234 
L 132.188835 61.951234 
L 132.188835 59.400994 
L 133.457017 59.400994 
L 133.457017 57.127954 
L 134.725199 57.127954 
L 134.725199 54.577714 
L 135.993381 54.577714 
L 135.993381 52.082914 
L 137.261562 52.082914 
L 137.261562 49.200034 
L 138.529744 49.200034 
L 138.529744 45.651874 
L 139.797926 45.651874 
L 139.797926 42.713554 
L 141.066108 42.713554 
L 141.066108 40.495954 
L 142.33429 40.495954 
L 142.33429 38.444674 
L 143.602472 38.444674 
L 143.602472 35.672674 
L 144.870653 35.672674 
L 144.870653 33.621394 
L 146.138835 33.621394 
L 146.138835 31.403794 
L 147.407017 31.403794 
L 147.407017 30.017794 
L 148.675199 30.017794 
L 148.675199 28.576354 
L 149.943381 28.576354 
L 149.943381 27.467554 
L 151.211562 27.467554 
L 151.211562 26.580514 
L 152.479744 26.580514 
L 152.479744 25.859794 
L 153.747926 25.859794 
L 153.747926 25.028194 
L 155.016108 25.028194 
L 155.016108 24.584674 
L 156.28429 24.584674 
L 156.28429 24.252034 
L 157.552472 24.252034 
L 157.552472 23.863954 
L 158.820653 23.863954 
L 158.820653 23.364994 
L 160.088835 23.364994 
L 160.088835 23.143234 
L 161.357017 23.143234 
L 161.357017 22.699714 
L 162.625199 22.699714 
L 162.625199 22.477954 
L 163.893381 22.477954 
L 163.893381 22.311634 
L 165.161562 22.311634 
L 165.161562 22.089874 
L 166.429744 22.089874 
L 166.429744 21.701794 
L 167.697926 21.701794 
L 167.697926 21.480034 
L 168.966108 21.480034 
L 168.966108 20.981074 
L 170.23429 20.981074 
L 170.23429 20.038594 
L 171.502472 20.038594 
" clip-path="url(#p6504e8cd43)" style="fill: none; stroke: #c68457; stroke-linecap: square"/>
   </g>
   <g id="line2d_20">
    <path d="M 109.361562 74.979634 
L 109.361562 74.757874 
L 110.629744 74.757874 
L 110.629744 74.591554 
L 111.897926 74.591554 
L 111.897926 74.258914 
L 113.166108 74.258914 
L 113.166108 74.203474 
L 114.43429 74.203474 
L 114.43429 74.092594 
L 115.702472 74.092594 
L 115.702472 73.926274 
L 116.970653 73.926274 
L 116.970653 73.538194 
L 118.238835 73.538194 
L 118.238835 73.094674 
L 119.507017 73.094674 
L 119.507017 72.651154 
L 120.775199 72.651154 
L 120.775199 72.207634 
L 122.043381 72.207634 
L 122.043381 71.320594 
L 123.311562 71.320594 
L 123.311562 70.655314 
L 124.579744 70.655314 
L 124.579744 69.990034 
L 125.847926 69.990034 
L 125.847926 68.881234 
L 127.116108 68.881234 
L 127.116108 67.661554 
L 128.38429 67.661554 
L 128.38429 66.386434 
L 129.652472 66.386434 
L 129.652472 64.778674 
L 130.920653 64.778674 
L 130.920653 62.283874 
L 132.188835 62.283874 
L 132.188835 60.232594 
L 133.457017 60.232594 
L 133.457017 58.403074 
L 134.725199 58.403074 
L 134.725199 55.520194 
L 135.993381 55.520194 
L 135.993381 52.969954 
L 137.261562 52.969954 
L 137.261562 49.310914 
L 138.529744 49.310914 
L 138.529744 46.428034 
L 139.797926 46.428034 
L 139.797926 42.935314 
L 141.066108 42.935314 
L 141.066108 39.996994 
L 142.33429 39.996994 
L 142.33429 37.502194 
L 143.602472 37.502194 
L 143.602472 34.730194 
L 144.870653 34.730194 
L 144.870653 32.789794 
L 146.138835 32.789794 
L 146.138835 31.126594 
L 147.407017 31.126594 
L 147.407017 29.740594 
L 148.675199 29.740594 
L 148.675199 28.576354 
L 149.943381 28.576354 
L 149.943381 27.245794 
L 151.211562 27.245794 
L 151.211562 26.081554 
L 152.479744 26.081554 
L 152.479744 25.305394 
L 153.747926 25.305394 
L 153.747926 24.473794 
L 155.016108 24.473794 
L 155.016108 23.808514 
L 156.28429 23.808514 
L 156.28429 23.531314 
L 157.552472 23.531314 
L 157.552472 23.143234 
L 158.820653 23.143234 
L 158.820653 22.755154 
L 160.088835 22.755154 
L 160.088835 22.533394 
L 161.357017 22.533394 
L 161.357017 22.256194 
L 162.625199 22.256194 
L 162.625199 22.145314 
L 163.893381 22.145314 
L 163.893381 21.701794 
L 165.161562 21.701794 
L 165.161562 21.535474 
L 166.429744 21.535474 
L 166.429744 21.369154 
L 167.697926 21.369154 
L 167.697926 21.258274 
L 168.966108 21.258274 
L 168.966108 21.036514 
L 170.23429 21.036514 
L 170.23429 20.038594 
L 171.502472 20.038594 
" clip-path="url(#p6504e8cd43)" style="fill: none; stroke: #b3664f; stroke-linecap: square"/>
   </g>
   <g id="patch_6">
    <path d="M 108.727472 75.478594 
L 108.727472 20.038594 
" style="fill: none; stroke: #000000; stroke-width: 1.5; stroke-linejoin: miter; stroke-linecap: square"/>
   </g>
   <g id="patch_7">
    <path d="M 108.727472 75.478594 
L 172.136562 75.478594 
" style="fill: none; stroke: #000000; stroke-width: 1.5; stroke-linejoin: miter; stroke-linecap: square"/>
   </g>
   <g id="text_9">
    <!-- $\theta_2$ -->
    <g transform="translate(135.482017 14.038594)">
     <text>
      <tspan style="font: 9px 'DejaVu Sans'" x="0" y="-0.09375">θ</tspan>
      <tspan style="font: 6.3px 'DejaVu Sans'" x="5.59248" y="1.3828125">2</tspan>
     </text>
    </g>
   </g>
  </g>
 </g>
 <defs>
  <clipPath id="pd097517202">
   <rect x="32.636562" y="20.038594" width="63.409091" height="55.44"/>
  </clipPath>
  <clipPath id="p6504e8cd43">
   <rect x="108.727472" y="20.038594" width="63.409091" height="55.44"/>
  </clipPath>
 </defs>
</svg>
