<?xml version="1.0" encoding="utf-8" standalone="no"?>
<!DOCTYPE svg PUBLIC "-//W3C//DTD SVG 1.1//EN"
  "http://www.w3.org/Graphics/SVG/1.1/DTD/svg11.dtd">
<svg xmlns:xlink="http://www.w3.org/1999/xlink" width="321.699688pt" height="98.388906pt" viewBox="0 0 321.699688 98.388906" xmlns="http://www.w3.org/2000/svg" version="1.1">
 <metadata>
  <rdf:RDF xmlns:dc="http://purl.org/dc/elements/1.1/" xmlns:cc="http://creativecommons.org/ns#" xmlns:rdf="http://www.w3.org/1999/02/22-rdf-syntax-ns#">
   <cc:Work>
    <dc:type rdf:resource="http://purl.org/dc/dcmitype/StillImage"/>
    <dc:date>2024-11-20T14:49:55.507348</dc:date>
    <dc:format>image/svg+xml</dc:format>
    <dc:creator>
     <cc:Agent>
      <dc:title>Matplotlib v3.9.2, https://matplotlib.org/</dc:title>
     </cc:Agent>
    </dc:creator>
   </cc:Work>
  </rdf:RDF>
 </metadata>
 <defs>
  <style type="text/css">*{stroke-linejoin: round; stroke-linecap: butt}</style>
 </defs>
 <g id="figure_1">
  <g id="patch_1">
   <path d="M 0 98.388906 
L 321.699688 98.388906 
L 321.699688 0 
L 0 0 
z
" style="fill: #ffffff"/>
  </g>
  <g id="axes_1">
   <g id="patch_2">
    <path d="M 32.636562 75.478594 
L 93.288736 75.478594 
L 93.288736 20.038594 
L 32.636562 20.038594 
z
" style="fill: #ffffff"/>
   </g>
   <g id="PolyCollection_1">
    <defs>
     <path id="m5f148a1778" d="M 32.636562 -24.684393 
L 32.636562 -23.464713 
L 33.849606 -24.296312 
L 35.062649 -25.238792 
L 36.275693 -26.181272 
L 37.488736 -27.123752 
L 38.70178 -28.121672 
L 39.914823 -29.119592 
L 41.127867 -30.172953 
L 42.34091 -31.170873 
L 43.553954 -32.224232 
L 44.766997 -33.277592 
L 45.980041 -34.330952 
L 47.193084 -35.384313 
L 48.406128 -36.437672 
L 49.619171 -37.491033 
L 50.832215 -38.544393 
L 52.045258 -39.653193 
L 53.258302 -40.706553 
L 54.471345 -41.815353 
L 55.684389 -42.868713 
L 56.897432 -43.977513 
L 58.110476 -45.086313 
L 59.323519 -46.139673 
L 60.536563 -47.248472 
L 61.749606 -48.357273 
L 62.962649 -49.466072 
L 64.175693 -50.574872 
L 65.388736 -51.683673 
L 66.60178 -52.847912 
L 67.814823 -53.956713 
L 69.027867 -55.065512 
L 70.24091 -56.229753 
L 71.453954 -57.338552 
L 72.666997 -58.502792 
L 73.880041 -59.611593 
L 75.093084 -60.775833 
L 76.306128 -61.940072 
L 77.519171 -63.104312 
L 78.732215 -64.268552 
L 79.945258 -65.432793 
L 81.158302 -66.597032 
L 82.371345 -67.816712 
L 83.584389 -68.980953 
L 84.797432 -70.200632 
L 86.010476 -71.420312 
L 87.223519 -72.639993 
L 88.436563 -73.915113 
L 89.649606 -75.190232 
L 90.862649 -76.576232 
L 92.075693 -78.350313 
L 92.075693 -78.350313 
L 92.075693 -78.350313 
L 90.862649 -77.795913 
L 89.649606 -76.964312 
L 88.436563 -76.021833 
L 87.223519 -75.079352 
L 86.010476 -74.136872 
L 84.797432 -73.138953 
L 83.584389 -72.141032 
L 82.371345 -71.087672 
L 81.158302 -70.089753 
L 79.945258 -69.036392 
L 78.732215 -67.983032 
L 77.519171 -66.929672 
L 76.306128 -65.876312 
L 75.093084 -64.822952 
L 73.880041 -63.769593 
L 72.666997 -62.716232 
L 71.453954 -61.607433 
L 70.24091 -60.554073 
L 69.027867 -59.445273 
L 67.814823 -58.391913 
L 66.60178 -57.283113 
L 65.388736 -56.174312 
L 64.175693 -55.120953 
L 62.962649 -54.012152 
L 61.749606 -52.903352 
L 60.536563 -51.794552 
L 59.323519 -50.685752 
L 58.110476 -49.576952 
L 56.897432 -48.412712 
L 55.684389 -47.303912 
L 54.471345 -46.195112 
L 53.258302 -45.030873 
L 52.045258 -43.922072 
L 50.832215 -42.757832 
L 49.619171 -41.649033 
L 48.406128 -40.484792 
L 47.193084 -39.320552 
L 45.980041 -38.156312 
L 44.766997 -36.992072 
L 43.553954 -35.827832 
L 42.34091 -34.663593 
L 41.127867 -33.443912 
L 39.914823 -32.279673 
L 38.70178 -31.059992 
L 37.488736 -29.840312 
L 36.275693 -28.620632 
L 35.062649 -27.345512 
L 33.849606 -26.070393 
L 32.636562 -24.684393 
z
" style="stroke: #808080; stroke-opacity: 0.2"/>
    </defs>
    <g clip-path="url(#p8935002258)">
     <use xlink:href="#m5f148a1778" x="0" y="98.388906" style="fill: #808080; fill-opacity: 0.2; stroke: #808080; stroke-opacity: 0.2"/>
    </g>
   </g>
   <g id="matplotlib.axis_1">
    <g id="xtick_1">
     <g id="line2d_1">
      <defs>
       <path id="mb4b445d5af" d="M 0 0 
L 0 3.5 
" style="stroke: #000000; stroke-width: 1.5"/>
      </defs>
      <g>
       <use xlink:href="#mb4b445d5af" x="32.636562" y="75.478594" style="stroke: #000000; stroke-width: 1.5"/>
      </g>
     </g>
     <g id="text_1">
      <text style="font: 9px 'Arial', sans-serif; text-anchor: middle" x="32.636562" y="89.317188" transform="rotate(-0 32.636562 89.317188)">0</text>
     </g>
    </g>
    <g id="xtick_2">
     <g id="line2d_2">
      <g>
       <use xlink:href="#mb4b445d5af" x="93.288736" y="75.478594" style="stroke: #000000; stroke-width: 1.5"/>
      </g>
     </g>
     <g id="text_2">
      <text style="font: 9px 'Arial', sans-serif; text-anchor: middle" x="93.288736" y="89.317188" transform="rotate(-0 93.288736 89.317188)">1</text>
     </g>
    </g>
   </g>
   <g id="matplotlib.axis_2">
    <g id="ytick_1">
     <g id="line2d_3">
      <defs>
       <path id="m4fb821b3b6" d="M 0 0 
L -3.5 0 
" style="stroke: #000000; stroke-width: 1.5"/>
      </defs>
      <g>
       <use xlink:href="#m4fb821b3b6" x="32.636562" y="75.478594" style="stroke: #000000; stroke-width: 1.5"/>
      </g>
     </g>
     <g id="text_3">
      <text style="font: 9px 'Arial', sans-serif; text-anchor: end" x="25.636562" y="78.897891" transform="rotate(-0 25.636562 78.897891)">0</text>
     </g>
    </g>
    <g id="ytick_2">
     <g id="line2d_4">
      <g>
       <use xlink:href="#m4fb821b3b6" x="32.636562" y="20.038594" style="stroke: #000000; stroke-width: 1.5"/>
      </g>
     </g>
     <g id="text_4">
      <text style="font: 9px 'Arial', sans-serif; text-anchor: end" x="25.636562" y="23.457891" transform="rotate(-0 25.636562 23.457891)">1</text>
     </g>
    </g>
    <g id="text_5">
     <text style="font: 9px 'Arial', sans-serif; text-anchor: middle" x="14.038594" y="47.758594" transform="rotate(-90 14.038594 47.758594)">Emp. coverage</text>
    </g>
   </g>
   <g id="line2d_5">
    <path d="M 33.243084 74.148034 
L 33.243084 73.150114 
L 34.456128 73.150114 
L 34.456128 71.874994 
L 35.669171 71.874994 
L 35.669171 70.488994 
L 36.882215 70.488994 
L 36.882215 69.380194 
L 38.095258 69.380194 
L 38.095258 68.049634 
L 39.308302 68.049634 
L 39.308302 67.384354 
L 40.521345 67.384354 
L 40.521345 66.164674 
L 41.734389 66.164674 
L 41.734389 65.166754 
L 42.947432 65.166754 
L 42.947432 64.168834 
L 44.160476 64.168834 
L 44.160476 63.060034 
L 45.373519 63.060034 
L 45.373519 62.117554 
L 46.586562 62.117554 
L 46.586562 60.786994 
L 47.799606 60.786994 
L 47.799606 59.733634 
L 49.012649 59.733634 
L 49.012649 59.123794 
L 50.225693 59.123794 
L 50.225693 58.292194 
L 51.438736 58.292194 
L 51.438736 57.294274 
L 52.65178 57.294274 
L 52.65178 56.296354 
L 53.864823 56.296354 
L 53.864823 55.575634 
L 55.077867 55.575634 
L 55.077867 54.688594 
L 56.29091 54.688594 
L 56.29091 53.856994 
L 57.503954 53.856994 
L 57.503954 53.413474 
L 58.716997 53.413474 
L 58.716997 52.249234 
L 59.930041 52.249234 
L 59.930041 51.195874 
L 61.143084 51.195874 
L 61.143084 50.031634 
L 62.356128 50.031634 
L 62.356128 48.590194 
L 63.569171 48.590194 
L 63.569171 47.647714 
L 64.782215 47.647714 
L 64.782215 46.150834 
L 65.995258 46.150834 
L 65.995258 45.097474 
L 67.208302 45.097474 
L 67.208302 43.933234 
L 68.421345 43.933234 
L 68.421345 42.824434 
L 69.634389 42.824434 
L 69.634389 41.660194 
L 70.847432 41.660194 
L 70.847432 40.606834 
L 72.060476 40.606834 
L 72.060476 39.331714 
L 73.273519 39.331714 
L 73.273519 38.222914 
L 74.486562 38.222914 
L 74.486562 37.335874 
L 75.699606 37.335874 
L 75.699606 36.282514 
L 76.912649 36.282514 
L 76.912649 34.674754 
L 78.125693 34.674754 
L 78.125693 33.066994 
L 79.338736 33.066994 
L 79.338736 31.459234 
L 80.55178 31.459234 
L 80.55178 30.073234 
L 81.764823 30.073234 
L 81.764823 29.019874 
L 82.977867 29.019874 
L 82.977867 28.021954 
L 84.19091 28.021954 
L 84.19091 26.525074 
L 85.403954 26.525074 
L 85.403954 25.582594 
L 86.616997 25.582594 
L 86.616997 24.861874 
L 87.830041 24.861874 
L 87.830041 23.364994 
L 89.043084 23.364994 
L 89.043084 22.422514 
L 90.256128 22.422514 
L 90.256128 21.091954 
L 91.469171 21.091954 
L 91.469171 20.038594 
L 92.682215 20.038594 
" clip-path="url(#p8935002258)" style="fill: none; stroke: #eedf7a; stroke-linecap: square"/>
   </g>
   <g id="line2d_6">
    <path d="M 33.243084 74.037154 
L 33.243084 72.762034 
L 34.456128 72.762034 
L 34.456128 71.486914 
L 35.669171 71.486914 
L 35.669171 70.599874 
L 36.882215 70.599874 
L 36.882215 68.881234 
L 38.095258 68.881234 
L 38.095258 67.550674 
L 39.308302 67.550674 
L 39.308302 66.608194 
L 40.521345 66.608194 
L 40.521345 65.166754 
L 41.734389 65.166754 
L 41.734389 64.556914 
L 42.947432 64.556914 
L 42.947432 63.891634 
L 44.160476 63.891634 
L 44.160476 63.060034 
L 45.373519 63.060034 
L 45.373519 62.394754 
L 46.586562 62.394754 
L 46.586562 61.729474 
L 47.799606 61.729474 
L 47.799606 61.175074 
L 49.012649 61.175074 
L 49.012649 60.509794 
L 50.225693 60.509794 
L 50.225693 59.678194 
L 51.438736 59.678194 
L 51.438736 58.791154 
L 52.65178 58.791154 
L 52.65178 57.904114 
L 53.864823 57.904114 
L 53.864823 56.795314 
L 55.077867 56.795314 
L 55.077867 56.019154 
L 56.29091 56.019154 
L 56.29091 55.076674 
L 57.503954 55.076674 
L 57.503954 53.967874 
L 58.716997 53.967874 
L 58.716997 53.302594 
L 59.930041 53.302594 
L 59.930041 52.470994 
L 61.143084 52.470994 
L 61.143084 51.528514 
L 62.356128 51.528514 
L 62.356128 50.696914 
L 63.569171 50.696914 
L 63.569171 49.532674 
L 64.782215 49.532674 
L 64.782215 48.479314 
L 65.995258 48.479314 
L 65.995258 47.758594 
L 67.208302 47.758594 
L 67.208302 46.538914 
L 68.421345 46.538914 
L 68.421345 45.430114 
L 69.634389 45.430114 
L 69.634389 43.877794 
L 70.847432 43.877794 
L 70.847432 43.157074 
L 72.060476 43.157074 
L 72.060476 42.048274 
L 73.273519 42.048274 
L 73.273519 40.939474 
L 74.486562 40.939474 
L 74.486562 39.941554 
L 75.699606 39.941554 
L 75.699606 38.444674 
L 76.912649 38.444674 
L 76.912649 37.502194 
L 78.125693 37.502194 
L 78.125693 36.393394 
L 79.338736 36.393394 
L 79.338736 35.506354 
L 80.55178 35.506354 
L 80.55178 34.231234 
L 81.764823 34.231234 
L 81.764823 32.568034 
L 82.977867 32.568034 
L 82.977867 31.071154 
L 84.19091 31.071154 
L 84.19091 29.574274 
L 85.403954 29.574274 
L 85.403954 28.520914 
L 86.616997 28.520914 
L 86.616997 27.024034 
L 87.830041 27.024034 
L 87.830041 25.693474 
L 89.043084 25.693474 
L 89.043084 23.974834 
L 90.256128 23.974834 
L 90.256128 22.422514 
L 91.469171 22.422514 
L 91.469171 20.038594 
L 92.682215 20.038594 
" clip-path="url(#p8935002258)" style="fill: none; stroke: #e7cc71; stroke-linecap: square"/>
   </g>
   <g id="line2d_7">
    <path d="M 33.361962 73.759954 
L 33.361962 71.764114 
L 34.570154 71.764114 
L 34.570154 70.488994 
L 35.778345 70.488994 
L 35.778345 69.712834 
L 36.986536 69.712834 
L 36.986536 68.437714 
L 38.194728 68.437714 
L 38.194728 67.716994 
L 39.402919 67.716994 
L 39.402919 66.774514 
L 40.61111 66.774514 
L 40.61111 65.832034 
L 41.819302 65.832034 
L 41.819302 65.000434 
L 43.027493 65.000434 
L 43.027493 64.446034 
L 44.235684 64.446034 
L 44.235684 63.448114 
L 45.443876 63.448114 
L 45.443876 62.671954 
L 46.652067 62.671954 
L 46.652067 61.951234 
L 47.860258 61.951234 
L 47.860258 61.230514 
L 49.068449 61.230514 
L 49.068449 59.899954 
L 50.276641 59.899954 
L 50.276641 59.234674 
L 51.484832 59.234674 
L 51.484832 58.513954 
L 52.693023 58.513954 
L 52.693023 57.793234 
L 53.901215 57.793234 
L 53.901215 57.072514 
L 55.109406 57.072514 
L 55.109406 56.351794 
L 56.317597 56.351794 
L 56.317597 55.741954 
L 57.525789 55.741954 
L 57.525789 54.411394 
L 58.73398 54.411394 
L 58.73398 53.025394 
L 59.942171 53.025394 
L 59.942171 51.861154 
L 61.150362 51.861154 
L 61.150362 50.807794 
L 62.358554 50.807794 
L 62.358554 50.031634 
L 63.566745 50.031634 
L 63.566745 48.922834 
L 64.774936 48.922834 
L 64.774936 48.257554 
L 65.983128 48.257554 
L 65.983128 47.315074 
L 67.191319 47.315074 
L 67.191319 46.150834 
L 68.39951 46.150834 
L 68.39951 44.931154 
L 69.607702 44.931154 
L 69.607702 43.766914 
L 70.815893 43.766914 
L 70.815893 42.380914 
L 72.024084 42.380914 
L 72.024084 41.272114 
L 73.232276 41.272114 
L 73.232276 39.775234 
L 74.440467 39.775234 
L 74.440467 38.222914 
L 75.648658 38.222914 
L 75.648658 37.114114 
L 76.856849 37.114114 
L 76.856849 35.728114 
L 78.065041 35.728114 
L 78.065041 34.342114 
L 79.273232 34.342114 
L 79.273232 33.344194 
L 80.481423 33.344194 
L 80.481423 32.013634 
L 81.689615 32.013634 
L 81.689615 30.516754 
L 82.897806 30.516754 
L 82.897806 29.740594 
L 84.105997 29.740594 
L 84.105997 28.354594 
L 85.314189 28.354594 
L 85.314189 27.190354 
L 86.52238 27.190354 
L 86.52238 25.748914 
L 87.730571 25.748914 
L 87.730571 24.418354 
L 88.938763 24.418354 
L 88.938763 23.032354 
L 90.146954 23.032354 
L 90.146954 21.424594 
L 91.355145 21.424594 
L 91.355145 20.038594 
L 92.563336 20.038594 
" clip-path="url(#p8935002258)" style="fill: none; stroke: #e0b868; stroke-linecap: square"/>
   </g>
   <g id="line2d_8">
    <path d="M 33.243084 73.815394 
L 33.243084 72.484834 
L 34.456128 72.484834 
L 34.456128 71.098834 
L 35.669171 71.098834 
L 35.669171 70.100914 
L 36.882215 70.100914 
L 36.882215 69.435634 
L 38.095258 69.435634 
L 38.095258 68.382274 
L 39.308302 68.382274 
L 39.308302 67.218034 
L 40.521345 67.218034 
L 40.521345 66.386434 
L 41.734389 66.386434 
L 41.734389 65.665714 
L 42.947432 65.665714 
L 42.947432 64.667794 
L 44.160476 64.667794 
L 44.160476 64.002514 
L 45.373519 64.002514 
L 45.373519 62.949154 
L 46.586562 62.949154 
L 46.586562 62.117554 
L 47.799606 62.117554 
L 47.799606 61.285954 
L 49.012649 61.285954 
L 49.012649 60.509794 
L 50.225693 60.509794 
L 50.225693 59.511874 
L 51.438736 59.511874 
L 51.438736 58.624834 
L 52.65178 58.624834 
L 52.65178 57.904114 
L 53.864823 57.904114 
L 53.864823 57.072514 
L 55.077867 57.072514 
L 55.077867 55.797394 
L 56.29091 55.797394 
L 56.29091 54.799474 
L 57.503954 54.799474 
L 57.503954 53.579794 
L 58.716997 53.579794 
L 58.716997 52.470994 
L 59.930041 52.470994 
L 59.930041 51.306754 
L 61.143084 51.306754 
L 61.143084 50.142514 
L 62.356128 50.142514 
L 62.356128 49.366354 
L 63.569171 49.366354 
L 63.569171 48.312994 
L 64.782215 48.312994 
L 64.782215 46.760674 
L 65.995258 46.760674 
L 65.995258 45.873634 
L 67.208302 45.873634 
L 67.208302 44.432194 
L 68.421345 44.432194 
L 68.421345 43.434274 
L 69.634389 43.434274 
L 69.634389 41.992834 
L 70.847432 41.992834 
L 70.847432 39.886114 
L 72.060476 39.886114 
L 72.060476 38.555554 
L 73.273519 38.555554 
L 73.273519 37.335874 
L 74.486562 37.335874 
L 74.486562 36.726034 
L 75.699606 36.726034 
L 75.699606 35.284594 
L 76.912649 35.284594 
L 76.912649 33.954034 
L 78.125693 33.954034 
L 78.125693 32.845234 
L 79.338736 32.845234 
L 79.338736 31.514674 
L 80.55178 31.514674 
L 80.55178 30.683074 
L 81.764823 30.683074 
L 81.764823 29.740594 
L 82.977867 29.740594 
L 82.977867 28.354594 
L 84.19091 28.354594 
L 84.19091 27.024034 
L 85.403954 27.024034 
L 85.403954 25.804354 
L 86.616997 25.804354 
L 86.616997 24.307474 
L 87.830041 24.307474 
L 87.830041 23.420434 
L 89.043084 23.420434 
L 89.043084 22.311634 
L 90.256128 22.311634 
L 90.256128 21.091954 
L 91.469171 21.091954 
L 91.469171 20.038594 
L 92.682215 20.038594 
" clip-path="url(#p8935002258)" style="fill: none; stroke: #d9a45f; stroke-linecap: square"/>
   </g>
   <g id="line2d_9">
    <path d="M 33.243084 73.205554 
L 33.243084 71.209714 
L 34.456128 71.209714 
L 34.456128 69.712834 
L 35.669171 69.712834 
L 35.669171 68.659474 
L 36.882215 68.659474 
L 36.882215 67.495234 
L 38.095258 67.495234 
L 38.095258 66.774514 
L 39.308302 66.774514 
L 39.308302 66.220114 
L 40.521345 66.220114 
L 40.521345 65.499394 
L 41.734389 65.499394 
L 41.734389 64.556914 
L 42.947432 64.556914 
L 42.947432 64.002514 
L 44.160476 64.002514 
L 44.160476 63.503554 
L 45.373519 63.503554 
L 45.373519 63.170914 
L 46.586562 63.170914 
L 46.586562 62.561074 
L 47.799606 62.561074 
L 47.799606 62.062114 
L 49.012649 62.062114 
L 49.012649 61.341394 
L 50.225693 61.341394 
L 50.225693 60.953314 
L 51.438736 60.953314 
L 51.438736 60.454354 
L 52.65178 60.454354 
L 52.65178 60.010834 
L 53.864823 60.010834 
L 53.864823 59.567314 
L 55.077867 59.567314 
L 55.077867 58.902034 
L 56.29091 58.902034 
L 56.29091 58.181314 
L 57.503954 58.181314 
L 57.503954 57.682354 
L 58.716997 57.682354 
L 58.716997 56.795314 
L 59.930041 56.795314 
L 59.930041 56.130034 
L 61.143084 56.130034 
L 61.143084 55.132114 
L 62.356128 55.132114 
L 62.356128 54.411394 
L 63.569171 54.411394 
L 63.569171 53.524354 
L 64.782215 53.524354 
L 64.782215 52.637314 
L 65.995258 52.637314 
L 65.995258 51.195874 
L 67.208302 51.195874 
L 67.208302 49.809874 
L 68.421345 49.809874 
L 68.421345 48.257554 
L 69.634389 48.257554 
L 69.634389 47.204194 
L 70.847432 47.204194 
L 70.847432 45.540994 
L 72.060476 45.540994 
L 72.060476 44.210434 
L 73.273519 44.210434 
L 73.273519 42.824434 
L 74.486562 42.824434 
L 74.486562 41.327554 
L 75.699606 41.327554 
L 75.699606 39.830674 
L 76.912649 39.830674 
L 76.912649 38.333794 
L 78.125693 38.333794 
L 78.125693 36.504274 
L 79.338736 36.504274 
L 79.338736 34.951954 
L 80.55178 34.951954 
L 80.55178 32.845234 
L 81.764823 32.845234 
L 81.764823 31.459234 
L 82.977867 31.459234 
L 82.977867 30.405874 
L 84.19091 30.405874 
L 84.19091 28.798114 
L 85.403954 28.798114 
L 85.403954 26.802274 
L 86.616997 26.802274 
L 86.616997 25.527154 
L 87.830041 25.527154 
L 87.830041 23.808514 
L 89.043084 23.808514 
L 89.043084 22.755154 
L 90.256128 22.755154 
L 90.256128 21.424594 
L 91.469171 21.424594 
L 91.469171 20.038594 
L 92.682215 20.038594 
" clip-path="url(#p8935002258)" style="fill: none; stroke: #c78657; stroke-linecap: square"/>
   </g>
   <g id="line2d_10">
    <path d="M 33.243084 72.041314 
L 33.243084 69.657394 
L 34.456128 69.657394 
L 34.456128 68.548594 
L 35.669171 68.548594 
L 35.669171 67.606114 
L 36.882215 67.606114 
L 36.882215 66.552754 
L 38.095258 66.552754 
L 38.095258 65.887474 
L 39.308302 65.887474 
L 39.308302 65.111314 
L 40.521345 65.111314 
L 40.521345 64.556914 
L 41.734389 64.556914 
L 41.734389 63.891634 
L 42.947432 63.891634 
L 42.947432 63.115474 
L 44.160476 63.115474 
L 44.160476 62.782834 
L 45.373519 62.782834 
L 45.373519 62.228434 
L 46.586562 62.228434 
L 46.586562 61.618594 
L 47.799606 61.618594 
L 47.799606 61.230514 
L 49.012649 61.230514 
L 49.012649 60.509794 
L 50.225693 60.509794 
L 50.225693 59.899954 
L 51.438736 59.899954 
L 51.438736 59.400994 
L 52.65178 59.400994 
L 52.65178 58.846594 
L 53.864823 58.846594 
L 53.864823 58.181314 
L 55.077867 58.181314 
L 55.077867 57.737794 
L 56.29091 57.737794 
L 56.29091 57.127954 
L 57.503954 57.127954 
L 57.503954 56.518114 
L 58.716997 56.518114 
L 58.716997 55.908274 
L 59.930041 55.908274 
L 59.930041 55.298434 
L 61.143084 55.298434 
L 61.143084 54.633154 
L 62.356128 54.633154 
L 62.356128 53.746114 
L 63.569171 53.746114 
L 63.569171 53.191714 
L 64.782215 53.191714 
L 64.782215 52.360114 
L 65.995258 52.360114 
L 65.995258 51.750274 
L 67.208302 51.750274 
L 67.208302 50.807794 
L 68.421345 50.807794 
L 68.421345 49.865314 
L 69.634389 49.865314 
L 69.634389 49.144594 
L 70.847432 49.144594 
L 70.847432 47.924914 
L 72.060476 47.924914 
L 72.060476 46.317154 
L 73.273519 46.317154 
L 73.273519 44.931154 
L 74.486562 44.931154 
L 74.486562 43.434274 
L 75.699606 43.434274 
L 75.699606 42.214594 
L 76.912649 42.214594 
L 76.912649 40.329634 
L 78.125693 40.329634 
L 78.125693 38.333794 
L 79.338736 38.333794 
L 79.338736 36.726034 
L 80.55178 36.726034 
L 80.55178 34.730194 
L 81.764823 34.730194 
L 81.764823 32.900674 
L 82.977867 32.900674 
L 82.977867 31.459234 
L 84.19091 31.459234 
L 84.19091 30.128674 
L 85.403954 30.128674 
L 85.403954 28.243714 
L 86.616997 28.243714 
L 86.616997 26.525074 
L 87.830041 26.525074 
L 87.830041 24.750994 
L 89.043084 24.750994 
L 89.043084 23.475874 
L 90.256128 23.475874 
L 90.256128 22.200754 
L 91.469171 22.200754 
L 91.469171 20.038594 
L 92.682215 20.038594 
" clip-path="url(#p8935002258)" style="fill: none; stroke: #b4684f; stroke-linecap: square"/>
   </g>
   <g id="patch_3">
    <path d="M 32.636562 75.478594 
L 32.636562 20.038594 
" style="fill: none; stroke: #000000; stroke-width: 1.5; stroke-linejoin: miter; stroke-linecap: square"/>
   </g>
   <g id="patch_4">
    <path d="M 32.636562 75.478594 
L 93.288736 75.478594 
" style="fill: none; stroke: #000000; stroke-width: 1.5; stroke-linejoin: miter; stroke-linecap: square"/>
   </g>
   <g id="text_6">
    <!-- $\theta_1$ -->
    <g transform="translate(58.012649 14.038594)">
     <text>
      <tspan style="font: 9px 'DejaVu Sans'" x="0" y="-0.09375">θ</tspan>
      <tspan style="font: 6.3px 'DejaVu Sans'" x="5.59248" y="1.3828125">1</tspan>
     </text>
    </g>
   </g>
  </g>
  <g id="axes_2">
   <g id="patch_5">
    <path d="M 105.419171 75.478594 
L 166.071345 75.478594 
L 166.071345 20.038594 
L 105.419171 20.038594 
z
" style="fill: #ffffff"/>
   </g>
   <g id="PolyCollection_2">
    <defs>
     <path id="m154830fdb8" d="M 105.419171 -24.684393 
L 105.419171 -23.464713 
L 106.632215 -24.296312 
L 107.845258 -25.238792 
L 109.058302 -26.181272 
L 110.271345 -27.123752 
L 111.484389 -28.121672 
L 112.697432 -29.119592 
L 113.910476 -30.172953 
L 115.123519 -31.170873 
L 116.336563 -32.224232 
L 117.549606 -33.277592 
L 118.762649 -34.330952 
L 119.975693 -35.384313 
L 121.188736 -36.437672 
L 122.40178 -37.491033 
L 123.614823 -38.544393 
L 124.827867 -39.653193 
L 126.04091 -40.706553 
L 127.253954 -41.815353 
L 128.466997 -42.868713 
L 129.680041 -43.977513 
L 130.893084 -45.086313 
L 132.106128 -46.139673 
L 133.319171 -47.248472 
L 134.532215 -48.357273 
L 135.745258 -49.466072 
L 136.958302 -50.574872 
L 138.171345 -51.683673 
L 139.384389 -52.847912 
L 140.597432 -53.956713 
L 141.810476 -55.065512 
L 143.023519 -56.229753 
L 144.236562 -57.338552 
L 145.449606 -58.502792 
L 146.662649 -59.611593 
L 147.875693 -60.775833 
L 149.088736 -61.940072 
L 150.30178 -63.104312 
L 151.514823 -64.268552 
L 152.727867 -65.432793 
L 153.94091 -66.597032 
L 155.153954 -67.816712 
L 156.366997 -68.980953 
L 157.580041 -70.200632 
L 158.793084 -71.420312 
L 160.006128 -72.639993 
L 161.219171 -73.915113 
L 162.432215 -75.190232 
L 163.645258 -76.576232 
L 164.858302 -78.350313 
L 164.858302 -78.350313 
L 164.858302 -78.350313 
L 163.645258 -77.795913 
L 162.432215 -76.964312 
L 161.219171 -76.021833 
L 160.006128 -75.079352 
L 158.793084 -74.136872 
L 157.580041 -73.138953 
L 156.366997 -72.141032 
L 155.153954 -71.087672 
L 153.94091 -70.089753 
L 152.727867 -69.036392 
L 151.514823 -67.983032 
L 150.30178 -66.929672 
L 149.088736 -65.876312 
L 147.875693 -64.822952 
L 146.662649 -63.769593 
L 145.449606 -62.716232 
L 144.236562 -61.607433 
L 143.023519 -60.554073 
L 141.810476 -59.445273 
L 140.597432 -58.391913 
L 139.384389 -57.283113 
L 138.171345 -56.174312 
L 136.958302 -55.120953 
L 135.745258 -54.012152 
L 134.532215 -52.903352 
L 133.319171 -51.794552 
L 132.106128 -50.685752 
L 130.893084 -49.576952 
L 129.680041 -48.412712 
L 128.466997 -47.303912 
L 127.253954 -46.195112 
L 126.04091 -45.030873 
L 124.827867 -43.922072 
L 123.614823 -42.757832 
L 122.40178 -41.649033 
L 121.188736 -40.484792 
L 119.975693 -39.320552 
L 118.762649 -38.156312 
L 117.549606 -36.992072 
L 116.336563 -35.827832 
L 115.123519 -34.663593 
L 113.910476 -33.443912 
L 112.697432 -32.279673 
L 111.484389 -31.059992 
L 110.271345 -29.840312 
L 109.058302 -28.620632 
L 107.845258 -27.345512 
L 106.632215 -26.070393 
L 105.419171 -24.684393 
z
" style="stroke: #808080; stroke-opacity: 0.2"/>
    </defs>
    <g clip-path="url(#p9db6aec2be)">
     <use xlink:href="#m154830fdb8" x="0" y="98.388906" style="fill: #808080; fill-opacity: 0.2; stroke: #808080; stroke-opacity: 0.2"/>
    </g>
   </g>
   <g id="matplotlib.axis_3">
    <g id="xtick_3">
     <g id="line2d_11">
      <g>
       <use xlink:href="#mb4b445d5af" x="105.419171" y="75.478594" style="stroke: #000000; stroke-width: 1.5"/>
      </g>
     </g>
     <g id="text_7">
      <text style="font: 9px 'Arial', sans-serif; text-anchor: middle" x="105.419171" y="89.317188" transform="rotate(-0 105.419171 89.317188)">0</text>
     </g>
    </g>
    <g id="xtick_4">
     <g id="line2d_12">
      <g>
       <use xlink:href="#mb4b445d5af" x="166.071345" y="75.478594" style="stroke: #000000; stroke-width: 1.5"/>
      </g>
     </g>
     <g id="text_8">
      <text style="font: 9px 'Arial', sans-serif; text-anchor: middle" x="166.071345" y="89.317188" transform="rotate(-0 166.071345 89.317188)">1</text>
     </g>
    </g>
   </g>
   <g id="matplotlib.axis_4">
    <g id="ytick_3">
     <g id="line2d_13">
      <g>
       <use xlink:href="#m4fb821b3b6" x="105.419171" y="75.478594" style="stroke: #000000; stroke-width: 1.5"/>
      </g>
     </g>
    </g>
    <g id="ytick_4">
     <g id="line2d_14">
      <g>
       <use xlink:href="#m4fb821b3b6" x="105.419171" y="20.038594" style="stroke: #000000; stroke-width: 1.5"/>
      </g>
     </g>
    </g>
   </g>
   <g id="line2d_15">
    <path d="M 106.025693 73.981714 
L 106.025693 72.983794 
L 107.238736 72.983794 
L 107.238736 71.542354 
L 108.45178 71.542354 
L 108.45178 70.544434 
L 109.664823 70.544434 
L 109.664823 69.657394 
L 110.877867 69.657394 
L 110.877867 68.936674 
L 112.09091 68.936674 
L 112.09091 67.772434 
L 113.303954 67.772434 
L 113.303954 67.051714 
L 114.516997 67.051714 
L 114.516997 66.275554 
L 115.730041 66.275554 
L 115.730041 65.499394 
L 116.943084 65.499394 
L 116.943084 63.947074 
L 118.156128 63.947074 
L 118.156128 62.949154 
L 119.369171 62.949154 
L 119.369171 61.895794 
L 120.582215 61.895794 
L 120.582215 60.953314 
L 121.795258 60.953314 
L 121.795258 59.899954 
L 123.008302 59.899954 
L 123.008302 58.902034 
L 124.221345 58.902034 
L 124.221345 57.626914 
L 125.434389 57.626914 
L 125.434389 56.684434 
L 126.647432 56.684434 
L 126.647432 55.963714 
L 127.860476 55.963714 
L 127.860476 55.021234 
L 129.073519 55.021234 
L 129.073519 54.355954 
L 130.286563 54.355954 
L 130.286563 53.524354 
L 131.499606 53.524354 
L 131.499606 52.637314 
L 132.712649 52.637314 
L 132.712649 51.140434 
L 133.925693 51.140434 
L 133.925693 50.197954 
L 135.138736 50.197954 
L 135.138736 49.477234 
L 136.35178 49.477234 
L 136.35178 48.479314 
L 137.564823 48.479314 
L 137.564823 47.204194 
L 138.777867 47.204194 
L 138.777867 46.095394 
L 139.99091 46.095394 
L 139.99091 45.097474 
L 141.203954 45.097474 
L 141.203954 44.154994 
L 142.416997 44.154994 
L 142.416997 42.491794 
L 143.630041 42.491794 
L 143.630041 41.604754 
L 144.843084 41.604754 
L 144.843084 40.495954 
L 146.056128 40.495954 
L 146.056128 39.109954 
L 147.269171 39.109954 
L 147.269171 37.834834 
L 148.482215 37.834834 
L 148.482215 36.615154 
L 149.695258 36.615154 
L 149.695258 35.672674 
L 150.908302 35.672674 
L 150.908302 34.508434 
L 152.121345 34.508434 
L 152.121345 33.455074 
L 153.334389 33.455074 
L 153.334389 32.290834 
L 154.547432 32.290834 
L 154.547432 30.904834 
L 155.760476 30.904834 
L 155.760476 29.851474 
L 156.973519 29.851474 
L 156.973519 28.853554 
L 158.186563 28.853554 
L 158.186563 27.467554 
L 159.399606 27.467554 
L 159.399606 26.136994 
L 160.612649 26.136994 
L 160.612649 25.416274 
L 161.825693 25.416274 
L 161.825693 24.141154 
L 163.038736 24.141154 
L 163.038736 22.034434 
L 164.25178 22.034434 
L 164.25178 20.038594 
L 165.464823 20.038594 
" clip-path="url(#p9db6aec2be)" style="fill: none; stroke: #eedf7a; stroke-linecap: square"/>
   </g>
   <g id="line2d_16">
    <path d="M 106.025693 73.815394 
L 106.025693 72.484834 
L 107.238736 72.484834 
L 107.238736 71.320594 
L 108.45178 71.320594 
L 108.45178 70.544434 
L 109.664823 70.544434 
L 109.664823 69.879154 
L 110.877867 69.879154 
L 110.877867 68.881234 
L 112.09091 68.881234 
L 112.09091 67.661554 
L 113.303954 67.661554 
L 113.303954 66.774514 
L 114.516997 66.774514 
L 114.516997 65.942914 
L 115.730041 65.942914 
L 115.730041 65.055874 
L 116.943084 65.055874 
L 116.943084 64.446034 
L 118.156128 64.446034 
L 118.156128 63.614434 
L 119.369171 63.614434 
L 119.369171 62.782834 
L 120.582215 62.782834 
L 120.582215 61.895794 
L 121.795258 61.895794 
L 121.795258 61.396834 
L 123.008302 61.396834 
L 123.008302 60.676114 
L 124.221345 60.676114 
L 124.221345 60.232594 
L 125.434389 60.232594 
L 125.434389 59.511874 
L 126.647432 59.511874 
L 126.647432 58.513954 
L 127.860476 58.513954 
L 127.860476 57.626914 
L 129.073519 57.626914 
L 129.073519 56.684434 
L 130.286563 56.684434 
L 130.286563 55.741954 
L 131.499606 55.741954 
L 131.499606 54.910354 
L 132.712649 54.910354 
L 132.712649 54.355954 
L 133.925693 54.355954 
L 133.925693 53.468914 
L 135.138736 53.468914 
L 135.138736 52.415554 
L 136.35178 52.415554 
L 136.35178 51.029554 
L 137.564823 51.029554 
L 137.564823 50.087074 
L 138.777867 50.087074 
L 138.777867 49.033714 
L 139.99091 49.033714 
L 139.99091 47.980354 
L 141.203954 47.980354 
L 141.203954 46.982434 
L 142.416997 46.982434 
L 142.416997 45.707314 
L 143.630041 45.707314 
L 143.630041 44.210434 
L 144.843084 44.210434 
L 144.843084 43.267954 
L 146.056128 43.267954 
L 146.056128 41.992834 
L 147.269171 41.992834 
L 147.269171 40.218754 
L 148.482215 40.218754 
L 148.482215 39.109954 
L 149.695258 39.109954 
L 149.695258 37.668514 
L 150.908302 37.668514 
L 150.908302 36.559714 
L 152.121345 36.559714 
L 152.121345 35.118274 
L 153.334389 35.118274 
L 153.334389 34.120354 
L 154.547432 34.120354 
L 154.547432 32.900674 
L 155.760476 32.900674 
L 155.760476 31.570114 
L 156.973519 31.570114 
L 156.973519 30.239554 
L 158.186563 30.239554 
L 158.186563 28.853554 
L 159.399606 28.853554 
L 159.399606 27.689314 
L 160.612649 27.689314 
L 160.612649 26.136994 
L 161.825693 26.136994 
L 161.825693 24.418354 
L 163.038736 24.418354 
L 163.038736 22.256194 
L 164.25178 22.256194 
L 164.25178 20.038594 
L 165.464823 20.038594 
" clip-path="url(#p9db6aec2be)" style="fill: none; stroke: #e7cc71; stroke-linecap: square"/>
   </g>
   <g id="line2d_17">
    <path d="M 106.025693 73.926274 
L 106.025693 72.651154 
L 107.238736 72.651154 
L 107.238736 71.542354 
L 108.45178 71.542354 
L 108.45178 70.488994 
L 109.664823 70.488994 
L 109.664823 69.491074 
L 110.877867 69.491074 
L 110.877867 68.382274 
L 112.09091 68.382274 
L 112.09091 67.716994 
L 113.303954 67.716994 
L 113.303954 66.829954 
L 114.516997 66.829954 
L 114.516997 66.220114 
L 115.730041 66.220114 
L 115.730041 65.222194 
L 116.943084 65.222194 
L 116.943084 64.612354 
L 118.156128 64.612354 
L 118.156128 63.780754 
L 119.369171 63.780754 
L 119.369171 62.838274 
L 120.582215 62.838274 
L 120.582215 61.729474 
L 121.795258 61.729474 
L 121.795258 61.285954 
L 123.008302 61.285954 
L 123.008302 60.066274 
L 124.221345 60.066274 
L 124.221345 59.234674 
L 125.434389 59.234674 
L 125.434389 58.569394 
L 126.647432 58.569394 
L 126.647432 57.737794 
L 127.860476 57.737794 
L 127.860476 56.961634 
L 129.073519 56.961634 
L 129.073519 56.240914 
L 130.286563 56.240914 
L 130.286563 55.242994 
L 131.499606 55.242994 
L 131.499606 54.577714 
L 132.712649 54.577714 
L 132.712649 53.468914 
L 133.925693 53.468914 
L 133.925693 52.360114 
L 135.138736 52.360114 
L 135.138736 51.417634 
L 136.35178 51.417634 
L 136.35178 50.308834 
L 137.564823 50.308834 
L 137.564823 48.811954 
L 138.777867 48.811954 
L 138.777867 47.481394 
L 139.99091 47.481394 
L 139.99091 46.483474 
L 141.203954 46.483474 
L 141.203954 45.152914 
L 142.416997 45.152914 
L 142.416997 43.822354 
L 143.630041 43.822354 
L 143.630041 42.602674 
L 144.843084 42.602674 
L 144.843084 41.327554 
L 146.056128 41.327554 
L 146.056128 39.775234 
L 147.269171 39.775234 
L 147.269171 38.389234 
L 148.482215 38.389234 
L 148.482215 37.058674 
L 149.695258 37.058674 
L 149.695258 35.838994 
L 150.908302 35.838994 
L 150.908302 34.563874 
L 152.121345 34.563874 
L 152.121345 33.288754 
L 153.334389 33.288754 
L 153.334389 31.958194 
L 154.547432 31.958194 
L 154.547432 30.793954 
L 155.760476 30.793954 
L 155.760476 29.407954 
L 156.973519 29.407954 
L 156.973519 28.410034 
L 158.186563 28.410034 
L 158.186563 27.079474 
L 159.399606 27.079474 
L 159.399606 25.804354 
L 160.612649 25.804354 
L 160.612649 24.141154 
L 161.825693 24.141154 
L 161.825693 22.367074 
L 163.038736 22.367074 
L 163.038736 21.701794 
L 164.25178 21.701794 
L 164.25178 20.038594 
L 165.464823 20.038594 
" clip-path="url(#p9db6aec2be)" style="fill: none; stroke: #e0b868; stroke-linecap: square"/>
   </g>
   <g id="line2d_18">
    <path d="M 106.023267 73.981714 
L 106.023267 72.817474 
L 107.231458 72.817474 
L 107.231458 71.985874 
L 108.439649 71.985874 
L 108.439649 71.154274 
L 109.647841 71.154274 
L 109.647841 70.045474 
L 110.856032 70.045474 
L 110.856032 68.992114 
L 112.064223 68.992114 
L 112.064223 68.215954 
L 113.272415 68.215954 
L 113.272415 67.384354 
L 114.480606 67.384354 
L 114.480606 66.608194 
L 115.688797 66.608194 
L 115.688797 65.832034 
L 116.896989 65.832034 
L 116.896989 65.000434 
L 118.10518 65.000434 
L 118.10518 64.279714 
L 119.313371 64.279714 
L 119.313371 63.281794 
L 120.521563 63.281794 
L 120.521563 62.616514 
L 121.729754 62.616514 
L 121.729754 61.784914 
L 122.937945 61.784914 
L 122.937945 60.842434 
L 124.146136 60.842434 
L 124.146136 59.456434 
L 125.354328 59.456434 
L 125.354328 58.680274 
L 126.562519 58.680274 
L 126.562519 57.793234 
L 127.77071 57.793234 
L 127.77071 57.238834 
L 128.978902 57.238834 
L 128.978902 56.074594 
L 130.187093 56.074594 
L 130.187093 55.021234 
L 131.395284 55.021234 
L 131.395284 54.189634 
L 132.603476 54.189634 
L 132.603476 53.025394 
L 133.811667 53.025394 
L 133.811667 51.639394 
L 135.019858 51.639394 
L 135.019858 50.308834 
L 136.228049 50.308834 
L 136.228049 48.978274 
L 137.436241 48.978274 
L 137.436241 47.758594 
L 138.644432 47.758594 
L 138.644432 45.818194 
L 139.852623 45.818194 
L 139.852623 43.988674 
L 141.060815 43.988674 
L 141.060815 42.491794 
L 142.269006 42.491794 
L 142.269006 40.773154 
L 143.477197 40.773154 
L 143.477197 39.830674 
L 144.685389 39.830674 
L 144.685389 38.666434 
L 145.89358 38.666434 
L 145.89358 37.391314 
L 147.101771 37.391314 
L 147.101771 36.227074 
L 148.309963 36.227074 
L 148.309963 34.951954 
L 149.518154 34.951954 
L 149.518154 33.565954 
L 150.726345 33.565954 
L 150.726345 32.013634 
L 151.934536 32.013634 
L 151.934536 30.793954 
L 153.142728 30.793954 
L 153.142728 29.463394 
L 154.350919 29.463394 
L 154.350919 28.354594 
L 155.55911 28.354594 
L 155.55911 27.412114 
L 156.767302 27.412114 
L 156.767302 26.136994 
L 157.975493 26.136994 
L 157.975493 24.917314 
L 159.183684 24.917314 
L 159.183684 23.919394 
L 160.391876 23.919394 
L 160.391876 23.143234 
L 161.600067 23.143234 
L 161.600067 21.646354 
L 162.808258 21.646354 
L 162.808258 20.870194 
L 164.016449 20.870194 
L 164.016449 20.038594 
L 165.224641 20.038594 
" clip-path="url(#p9db6aec2be)" style="fill: none; stroke: #d9a45f; stroke-linecap: square"/>
   </g>
   <g id="line2d_19">
    <path d="M 106.025693 73.704514 
L 106.025693 72.540274 
L 107.238736 72.540274 
L 107.238736 71.376034 
L 108.45178 71.376034 
L 108.45178 70.156354 
L 109.664823 70.156354 
L 109.664823 69.213874 
L 110.877867 69.213874 
L 110.877867 68.548594 
L 112.09091 68.548594 
L 112.09091 67.827874 
L 113.303954 67.827874 
L 113.303954 66.774514 
L 114.516997 66.774514 
L 114.516997 65.998354 
L 115.730041 65.998354 
L 115.730041 65.443954 
L 116.943084 65.443954 
L 116.943084 64.889554 
L 118.156128 64.889554 
L 118.156128 64.501474 
L 119.369171 64.501474 
L 119.369171 63.891634 
L 120.582215 63.891634 
L 120.582215 63.337234 
L 121.795258 63.337234 
L 121.795258 62.838274 
L 123.008302 62.838274 
L 123.008302 62.450194 
L 124.221345 62.450194 
L 124.221345 61.784914 
L 125.434389 61.784914 
L 125.434389 61.230514 
L 126.647432 61.230514 
L 126.647432 60.398914 
L 127.860476 60.398914 
L 127.860476 59.899954 
L 129.073519 59.899954 
L 129.073519 58.957474 
L 130.286563 58.957474 
L 130.286563 57.959554 
L 131.499606 57.959554 
L 131.499606 56.961634 
L 132.712649 56.961634 
L 132.712649 56.130034 
L 133.925693 56.130034 
L 133.925693 55.076674 
L 135.138736 55.076674 
L 135.138736 54.300514 
L 136.35178 54.300514 
L 136.35178 53.302594 
L 137.564823 53.302594 
L 137.564823 52.470994 
L 138.777867 52.470994 
L 138.777867 51.140434 
L 139.99091 51.140434 
L 139.99091 49.588114 
L 141.203954 49.588114 
L 141.203954 48.479314 
L 142.416997 48.479314 
L 142.416997 47.259634 
L 143.630041 47.259634 
L 143.630041 45.319234 
L 144.843084 45.319234 
L 144.843084 43.711474 
L 146.056128 43.711474 
L 146.056128 41.881954 
L 147.269171 41.881954 
L 147.269171 40.939474 
L 148.482215 40.939474 
L 148.482215 38.888194 
L 149.695258 38.888194 
L 149.695258 37.169554 
L 150.908302 37.169554 
L 150.908302 35.450914 
L 152.121345 35.450914 
L 152.121345 34.286674 
L 153.334389 34.286674 
L 153.334389 32.401714 
L 154.547432 32.401714 
L 154.547432 30.960274 
L 155.760476 30.960274 
L 155.760476 29.407954 
L 156.973519 29.407954 
L 156.973519 27.911074 
L 158.186563 27.911074 
L 158.186563 26.192434 
L 159.399606 26.192434 
L 159.399606 24.917314 
L 160.612649 24.917314 
L 160.612649 23.974834 
L 161.825693 23.974834 
L 161.825693 22.422514 
L 163.038736 22.422514 
L 163.038736 21.424594 
L 164.25178 21.424594 
L 164.25178 20.038594 
L 165.464823 20.038594 
" clip-path="url(#p9db6aec2be)" style="fill: none; stroke: #c78657; stroke-linecap: square"/>
   </g>
   <g id="line2d_20">
    <path d="M 106.025693 73.482754 
L 106.025693 71.874994 
L 107.238736 71.874994 
L 107.238736 70.544434 
L 108.45178 70.544434 
L 108.45178 69.990034 
L 109.664823 69.990034 
L 109.664823 69.047554 
L 110.877867 69.047554 
L 110.877867 68.326834 
L 112.09091 68.326834 
L 112.09091 67.772434 
L 113.303954 67.772434 
L 113.303954 66.996274 
L 114.516997 66.996274 
L 114.516997 66.109234 
L 115.730041 66.109234 
L 115.730041 65.499394 
L 116.943084 65.499394 
L 116.943084 64.889554 
L 118.156128 64.889554 
L 118.156128 64.224274 
L 119.369171 64.224274 
L 119.369171 63.669874 
L 120.582215 63.669874 
L 120.582215 63.004594 
L 121.795258 63.004594 
L 121.795258 62.671954 
L 123.008302 62.671954 
L 123.008302 62.062114 
L 124.221345 62.062114 
L 124.221345 61.341394 
L 125.434389 61.341394 
L 125.434389 60.786994 
L 126.647432 60.786994 
L 126.647432 60.066274 
L 127.860476 60.066274 
L 127.860476 59.400994 
L 129.073519 59.400994 
L 129.073519 58.624834 
L 130.286563 58.624834 
L 130.286563 57.626914 
L 131.499606 57.626914 
L 131.499606 57.127954 
L 132.712649 57.127954 
L 132.712649 56.684434 
L 133.925693 56.684434 
L 133.925693 55.631074 
L 135.138736 55.631074 
L 135.138736 55.021234 
L 136.35178 55.021234 
L 136.35178 54.411394 
L 137.564823 54.411394 
L 137.564823 53.247154 
L 138.777867 53.247154 
L 138.777867 52.415554 
L 139.99091 52.415554 
L 139.99091 51.140434 
L 141.203954 51.140434 
L 141.203954 50.031634 
L 142.416997 50.031634 
L 142.416997 48.590194 
L 143.630041 48.590194 
L 143.630041 46.926994 
L 144.843084 46.926994 
L 144.843084 45.762754 
L 146.056128 45.762754 
L 146.056128 43.766914 
L 147.269171 43.766914 
L 147.269171 42.214594 
L 148.482215 42.214594 
L 148.482215 40.385074 
L 149.695258 40.385074 
L 149.695258 38.389234 
L 150.908302 38.389234 
L 150.908302 37.114114 
L 152.121345 37.114114 
L 152.121345 34.896514 
L 153.334389 34.896514 
L 153.334389 33.233314 
L 154.547432 33.233314 
L 154.547432 31.403794 
L 155.760476 31.403794 
L 155.760476 29.352514 
L 156.973519 29.352514 
L 156.973519 28.077394 
L 158.186563 28.077394 
L 158.186563 26.247874 
L 159.399606 26.247874 
L 159.399606 24.529234 
L 160.612649 24.529234 
L 160.612649 23.475874 
L 161.825693 23.475874 
L 161.825693 22.422514 
L 163.038736 22.422514 
L 163.038736 21.424594 
L 164.25178 21.424594 
L 164.25178 20.038594 
L 165.464823 20.038594 
" clip-path="url(#p9db6aec2be)" style="fill: none; stroke: #b4684f; stroke-linecap: square"/>
   </g>
   <g id="patch_6">
    <path d="M 105.419171 75.478594 
L 105.419171 20.038594 
" style="fill: none; stroke: #000000; stroke-width: 1.5; stroke-linejoin: miter; stroke-linecap: square"/>
   </g>
   <g id="patch_7">
    <path d="M 105.419171 75.478594 
L 166.071345 75.478594 
" style="fill: none; stroke: #000000; stroke-width: 1.5; stroke-linejoin: miter; stroke-linecap: square"/>
   </g>
   <g id="text_9">
    <!-- $\theta_2$ -->
    <g transform="translate(130.795258 14.038594)">
     <text>
      <tspan style="font: 9px 'DejaVu Sans'" x="0" y="-0.09375">θ</tspan>
      <tspan style="font: 6.3px 'DejaVu Sans'" x="5.59248" y="1.3828125">2</tspan>
     </text>
    </g>
   </g>
  </g>
  <g id="axes_3">
   <g id="patch_8">
    <path d="M 178.20178 75.478594 
L 238.853954 75.478594 
L 238.853954 20.038594 
L 178.20178 20.038594 
z
" style="fill: #ffffff"/>
   </g>
   <g id="PolyCollection_3">
    <defs>
     <path id="m14f5911775" d="M 178.20178 -24.684393 
L 178.20178 -23.464713 
L 179.414823 -24.296312 
L 180.627867 -25.238792 
L 181.84091 -26.181272 
L 183.053954 -27.123752 
L 184.266997 -28.121672 
L 185.480041 -29.119592 
L 186.693084 -30.172953 
L 187.906128 -31.170873 
L 189.119171 -32.224232 
L 190.332215 -33.277592 
L 191.545258 -34.330952 
L 192.758302 -35.384313 
L 193.971345 -36.437672 
L 195.184389 -37.491033 
L 196.397432 -38.544393 
L 197.610476 -39.653193 
L 198.823519 -40.706553 
L 200.036563 -41.815353 
L 201.249606 -42.868713 
L 202.462649 -43.977513 
L 203.675693 -45.086313 
L 204.888736 -46.139673 
L 206.10178 -47.248472 
L 207.314823 -48.357273 
L 208.527867 -49.466072 
L 209.74091 -50.574872 
L 210.953954 -51.683673 
L 212.166997 -52.847912 
L 213.380041 -53.956713 
L 214.593084 -55.065512 
L 215.806128 -56.229753 
L 217.019171 -57.338552 
L 218.232215 -58.502792 
L 219.445258 -59.611593 
L 220.658302 -60.775833 
L 221.871345 -61.940072 
L 223.084389 -63.104312 
L 224.297432 -64.268552 
L 225.510476 -65.432793 
L 226.723519 -66.597032 
L 227.936563 -67.816712 
L 229.149606 -68.980953 
L 230.362649 -70.200632 
L 231.575693 -71.420312 
L 232.788736 -72.639993 
L 234.00178 -73.915113 
L 235.214823 -75.190232 
L 236.427867 -76.576232 
L 237.64091 -78.350313 
L 237.64091 -78.350313 
L 237.64091 -78.350313 
L 236.427867 -77.795913 
L 235.214823 -76.964312 
L 234.00178 -76.021833 
L 232.788736 -75.079352 
L 231.575693 -74.136872 
L 230.362649 -73.138953 
L 229.149606 -72.141032 
L 227.936563 -71.087672 
L 226.723519 -70.089753 
L 225.510476 -69.036392 
L 224.297432 -67.983032 
L 223.084389 -66.929672 
L 221.871345 -65.876312 
L 220.658302 -64.822952 
L 219.445258 -63.769593 
L 218.232215 -62.716232 
L 217.019171 -61.607433 
L 215.806128 -60.554073 
L 214.593084 -59.445273 
L 213.380041 -58.391913 
L 212.166997 -57.283113 
L 210.953954 -56.174312 
L 209.74091 -55.120953 
L 208.527867 -54.012152 
L 207.314823 -52.903352 
L 206.10178 -51.794552 
L 204.888736 -50.685752 
L 203.675693 -49.576952 
L 202.462649 -48.412712 
L 201.249606 -47.303912 
L 200.036563 -46.195112 
L 198.823519 -45.030873 
L 197.610476 -43.922072 
L 196.397432 -42.757832 
L 195.184389 -41.649033 
L 193.971345 -40.484792 
L 192.758302 -39.320552 
L 191.545258 -38.156312 
L 190.332215 -36.992072 
L 189.119171 -35.827832 
L 187.906128 -34.663593 
L 186.693084 -33.443912 
L 185.480041 -32.279673 
L 184.266997 -31.059992 
L 183.053954 -29.840312 
L 181.84091 -28.620632 
L 180.627867 -27.345512 
L 179.414823 -26.070393 
L 178.20178 -24.684393 
z
" style="stroke: #808080; stroke-opacity: 0.2"/>
    </defs>
    <g clip-path="url(#pac939718b0)">
     <use xlink:href="#m14f5911775" x="0" y="98.388906" style="fill: #808080; fill-opacity: 0.2; stroke: #808080; stroke-opacity: 0.2"/>
    </g>
   </g>
   <g id="matplotlib.axis_5">
    <g id="xtick_5">
     <g id="line2d_21">
      <g>
       <use xlink:href="#mb4b445d5af" x="178.20178" y="75.478594" style="stroke: #000000; stroke-width: 1.5"/>
      </g>
     </g>
     <g id="text_10">
      <text style="font: 9px 'Arial', sans-serif; text-anchor: middle" x="178.20178" y="89.317188" transform="rotate(-0 178.20178 89.317188)">0</text>
     </g>
    </g>
    <g id="xtick_6">
     <g id="line2d_22">
      <g>
       <use xlink:href="#mb4b445d5af" x="238.853954" y="75.478594" style="stroke: #000000; stroke-width: 1.5"/>
      </g>
     </g>
     <g id="text_11">
      <text style="font: 9px 'Arial', sans-serif; text-anchor: middle" x="238.853954" y="89.317188" transform="rotate(-0 238.853954 89.317188)">1</text>
     </g>
    </g>
   </g>
   <g id="matplotlib.axis_6"/>
   <g id="line2d_23">
    <path d="M 178.928393 74.702434 
L 178.928393 73.759954 
L 180.13901 73.759954 
L 180.13901 72.540274 
L 181.349628 72.540274 
L 181.349628 71.486914 
L 182.560245 71.486914 
L 182.560245 70.211794 
L 183.770863 70.211794 
L 183.770863 68.992114 
L 184.98148 68.992114 
L 184.98148 67.883314 
L 186.192097 67.883314 
L 186.192097 66.885394 
L 187.402715 66.885394 
L 187.402715 65.610274 
L 188.613332 65.610274 
L 188.613332 64.501474 
L 189.823949 64.501474 
L 189.823949 63.170914 
L 191.034567 63.170914 
L 191.034567 61.729474 
L 192.245184 61.729474 
L 192.245184 60.731554 
L 193.455802 60.731554 
L 193.455802 59.899954 
L 194.666419 59.899954 
L 194.666419 59.012914 
L 195.877036 59.012914 
L 195.877036 57.737794 
L 197.087654 57.737794 
L 197.087654 56.462674 
L 198.298271 56.462674 
L 198.298271 55.353874 
L 199.508889 55.353874 
L 199.508889 54.522274 
L 200.719506 54.522274 
L 200.719506 53.635234 
L 201.930123 53.635234 
L 201.930123 52.637314 
L 203.140741 52.637314 
L 203.140741 51.251314 
L 204.351358 51.251314 
L 204.351358 50.253394 
L 205.561976 50.253394 
L 205.561976 48.756514 
L 206.772593 48.756514 
L 206.772593 47.481394 
L 207.98321 47.481394 
L 207.98321 46.095394 
L 209.193828 46.095394 
L 209.193828 45.540994 
L 210.404445 45.540994 
L 210.404445 44.265874 
L 211.615063 44.265874 
L 211.615063 43.656034 
L 212.82568 43.656034 
L 212.82568 42.436354 
L 214.036297 42.436354 
L 214.036297 41.382994 
L 215.246915 41.382994 
L 215.246915 40.440514 
L 216.457532 40.440514 
L 216.457532 39.830674 
L 217.668149 39.830674 
L 217.668149 39.054514 
L 218.878767 39.054514 
L 218.878767 38.056594 
L 220.089384 38.056594 
L 220.089384 36.726034 
L 221.300002 36.726034 
L 221.300002 35.672674 
L 222.510619 35.672674 
L 222.510619 34.896514 
L 223.721236 34.896514 
L 223.721236 33.843154 
L 224.931854 33.843154 
L 224.931854 32.900674 
L 226.142471 32.900674 
L 226.142471 31.680994 
L 227.353089 31.680994 
L 227.353089 30.294994 
L 228.563706 30.294994 
L 228.563706 29.130754 
L 229.774323 29.130754 
L 229.774323 28.354594 
L 230.984941 28.354594 
L 230.984941 27.079474 
L 232.195558 27.079474 
L 232.195558 25.859794 
L 233.406176 25.859794 
L 233.406176 24.695554 
L 234.616793 24.695554 
L 234.616793 23.198674 
L 235.82741 23.198674 
L 235.82741 21.757234 
L 237.038028 21.757234 
L 237.038028 20.038594 
L 238.248645 20.038594 
" clip-path="url(#pac939718b0)" style="fill: none; stroke: #eedf7a; stroke-linecap: square"/>
   </g>
   <g id="line2d_24">
    <path d="M 179.048484 74.924194 
L 179.048484 73.593634 
L 180.256676 73.593634 
L 180.256676 72.429394 
L 181.464867 72.429394 
L 181.464867 71.043394 
L 182.673058 71.043394 
L 182.673058 69.823714 
L 183.881249 69.823714 
L 183.881249 68.825794 
L 185.089441 68.825794 
L 185.089441 67.606114 
L 186.297632 67.606114 
L 186.297632 66.441874 
L 187.505823 66.441874 
L 187.505823 64.889554 
L 188.714015 64.889554 
L 188.714015 63.226354 
L 189.922206 63.226354 
L 189.922206 61.895794 
L 191.130397 61.895794 
L 191.130397 60.565234 
L 192.338589 60.565234 
L 192.338589 59.844514 
L 193.54678 59.844514 
L 193.54678 59.068354 
L 194.754971 59.068354 
L 194.754971 57.793234 
L 195.963163 57.793234 
L 195.963163 56.573554 
L 197.171354 56.573554 
L 197.171354 55.298434 
L 198.379545 55.298434 
L 198.379545 54.245074 
L 199.587736 54.245074 
L 199.587736 52.969954 
L 200.795928 52.969954 
L 200.795928 51.861154 
L 202.004119 51.861154 
L 202.004119 50.419714 
L 203.21231 50.419714 
L 203.21231 49.310914 
L 204.420502 49.310914 
L 204.420502 48.423874 
L 205.628693 48.423874 
L 205.628693 47.425954 
L 206.836884 47.425954 
L 206.836884 47.093314 
L 208.045076 47.093314 
L 208.045076 46.649794 
L 209.253267 46.649794 
L 209.253267 45.097474 
L 210.461458 45.097474 
L 210.461458 44.210434 
L 211.669649 44.210434 
L 211.669649 43.157074 
L 212.877841 43.157074 
L 212.877841 42.270034 
L 214.086032 42.270034 
L 214.086032 41.549314 
L 215.294223 41.549314 
L 215.294223 40.828594 
L 216.502415 40.828594 
L 216.502415 39.830674 
L 217.710606 39.830674 
L 217.710606 38.832754 
L 218.918797 38.832754 
L 218.918797 37.723954 
L 220.126989 37.723954 
L 220.126989 36.726034 
L 221.33518 36.726034 
L 221.33518 35.617234 
L 222.543371 35.617234 
L 222.543371 34.951954 
L 223.751563 34.951954 
L 223.751563 34.009474 
L 224.959754 34.009474 
L 224.959754 33.011554 
L 226.167945 33.011554 
L 226.167945 31.570114 
L 227.376136 31.570114 
L 227.376136 30.960274 
L 228.584328 30.960274 
L 228.584328 30.017794 
L 229.792519 30.017794 
L 229.792519 28.520914 
L 231.00071 28.520914 
L 231.00071 27.578434 
L 232.208902 27.578434 
L 232.208902 26.358754 
L 233.417093 26.358754 
L 233.417093 25.305394 
L 234.625284 25.305394 
L 234.625284 23.863954 
L 235.833476 23.863954 
L 235.833476 22.367074 
L 237.041667 22.367074 
L 237.041667 20.038594 
L 238.249858 20.038594 
" clip-path="url(#pac939718b0)" style="fill: none; stroke: #e7cc71; stroke-linecap: square"/>
   </g>
   <g id="line2d_25">
    <path d="M 178.808302 74.591554 
L 178.808302 73.593634 
L 180.021345 73.593634 
L 180.021345 72.096754 
L 181.234389 72.096754 
L 181.234389 70.488994 
L 182.447432 70.488994 
L 182.447432 69.380194 
L 183.660476 69.380194 
L 183.660476 67.772434 
L 184.873519 67.772434 
L 184.873519 66.552754 
L 186.086563 66.552754 
L 186.086563 65.111314 
L 187.299606 65.111314 
L 187.299606 63.558994 
L 188.512649 63.558994 
L 188.512649 62.172994 
L 189.725693 62.172994 
L 189.725693 60.953314 
L 190.938736 60.953314 
L 190.938736 59.899954 
L 192.15178 59.899954 
L 192.15178 58.846594 
L 193.364823 58.846594 
L 193.364823 57.737794 
L 194.577867 57.737794 
L 194.577867 56.795314 
L 195.79091 56.795314 
L 195.79091 55.852834 
L 197.003954 55.852834 
L 197.003954 54.854914 
L 198.216997 54.854914 
L 198.216997 53.746114 
L 199.430041 53.746114 
L 199.430041 52.637314 
L 200.643084 52.637314 
L 200.643084 51.583954 
L 201.856128 51.583954 
L 201.856128 50.807794 
L 203.069171 50.807794 
L 203.069171 49.698994 
L 204.282215 49.698994 
L 204.282215 48.534754 
L 205.495258 48.534754 
L 205.495258 47.536834 
L 206.708302 47.536834 
L 206.708302 46.483474 
L 207.921345 46.483474 
L 207.921345 45.263794 
L 209.134389 45.263794 
L 209.134389 44.044114 
L 210.347432 44.044114 
L 210.347432 43.046194 
L 211.560476 43.046194 
L 211.560476 41.660194 
L 212.773519 41.660194 
L 212.773519 40.717714 
L 213.986563 40.717714 
L 213.986563 39.775234 
L 215.199606 39.775234 
L 215.199606 38.777314 
L 216.412649 38.777314 
L 216.412649 37.723954 
L 217.625693 37.723954 
L 217.625693 37.224994 
L 218.838736 37.224994 
L 218.838736 36.116194 
L 220.05178 36.116194 
L 220.05178 35.561794 
L 221.264823 35.561794 
L 221.264823 34.563874 
L 222.477867 34.563874 
L 222.477867 33.344194 
L 223.69091 33.344194 
L 223.69091 32.678914 
L 224.903954 32.678914 
L 224.903954 31.791874 
L 226.116997 31.791874 
L 226.116997 31.015714 
L 227.330041 31.015714 
L 227.330041 30.350434 
L 228.543084 30.350434 
L 228.543084 29.685154 
L 229.756128 29.685154 
L 229.756128 28.798114 
L 230.969171 28.798114 
L 230.969171 27.467554 
L 232.182215 27.467554 
L 232.182215 26.358754 
L 233.395258 26.358754 
L 233.395258 25.028194 
L 234.608302 25.028194 
L 234.608302 23.586754 
L 235.821345 23.586754 
L 235.821345 22.422514 
L 237.034389 22.422514 
L 237.034389 20.038594 
L 238.247432 20.038594 
" clip-path="url(#pac939718b0)" style="fill: none; stroke: #e0b868; stroke-linecap: square"/>
   </g>
   <g id="line2d_26">
    <path d="M 178.808302 74.092594 
L 178.808302 72.817474 
L 180.021345 72.817474 
L 180.021345 71.486914 
L 181.234389 71.486914 
L 181.234389 69.491074 
L 182.447432 69.491074 
L 182.447432 68.215954 
L 183.660476 68.215954 
L 183.660476 66.719074 
L 184.873519 66.719074 
L 184.873519 65.222194 
L 186.086563 65.222194 
L 186.086563 64.113394 
L 187.299606 64.113394 
L 187.299606 62.782834 
L 188.512649 62.782834 
L 188.512649 60.897874 
L 189.725693 60.897874 
L 189.725693 59.234674 
L 190.938736 59.234674 
L 190.938736 57.848674 
L 192.15178 57.848674 
L 192.15178 56.684434 
L 193.364823 56.684434 
L 193.364823 55.464754 
L 194.577867 55.464754 
L 194.577867 53.856994 
L 195.79091 53.856994 
L 195.79091 52.360114 
L 197.003954 52.360114 
L 197.003954 51.306754 
L 198.216997 51.306754 
L 198.216997 50.419714 
L 199.430041 50.419714 
L 199.430041 49.144594 
L 200.643084 49.144594 
L 200.643084 47.204194 
L 201.856128 47.204194 
L 201.856128 46.317154 
L 203.069171 46.317154 
L 203.069171 45.263794 
L 204.282215 45.263794 
L 204.282215 44.321314 
L 205.495258 44.321314 
L 205.495258 43.822354 
L 206.708302 43.822354 
L 206.708302 42.658114 
L 207.921345 42.658114 
L 207.921345 41.771074 
L 209.134389 41.771074 
L 209.134389 40.939474 
L 210.347432 40.939474 
L 210.347432 40.218754 
L 211.560476 40.218754 
L 211.560476 39.331714 
L 212.773519 39.331714 
L 212.773519 38.555554 
L 213.986563 38.555554 
L 213.986563 38.001154 
L 215.199606 38.001154 
L 215.199606 37.169554 
L 216.412649 37.169554 
L 216.412649 36.393394 
L 217.625693 36.393394 
L 217.625693 35.395474 
L 218.838736 35.395474 
L 218.838736 34.342114 
L 220.05178 34.342114 
L 220.05178 33.288754 
L 221.264823 33.288754 
L 221.264823 32.734354 
L 222.477867 32.734354 
L 222.477867 31.847314 
L 223.69091 31.847314 
L 223.69091 30.904834 
L 224.903954 30.904834 
L 224.903954 29.962354 
L 226.116997 29.962354 
L 226.116997 28.964434 
L 227.330041 28.964434 
L 227.330041 28.354594 
L 228.543084 28.354594 
L 228.543084 26.802274 
L 229.756128 26.802274 
L 229.756128 26.192434 
L 230.969171 26.192434 
L 230.969171 25.360834 
L 232.182215 25.360834 
L 232.182215 24.418354 
L 233.395258 24.418354 
L 233.395258 23.586754 
L 234.608302 23.586754 
L 234.608302 22.699714 
L 235.821345 22.699714 
L 235.821345 21.701794 
L 237.034389 21.701794 
L 237.034389 20.038594 
L 238.247432 20.038594 
" clip-path="url(#pac939718b0)" style="fill: none; stroke: #d9a45f; stroke-linecap: square"/>
   </g>
   <g id="line2d_27">
    <path d="M 178.808302 74.037154 
L 178.808302 72.872914 
L 180.021345 72.872914 
L 180.021345 71.486914 
L 181.234389 71.486914 
L 181.234389 70.267234 
L 182.447432 70.267234 
L 182.447432 69.102994 
L 183.660476 69.102994 
L 183.660476 67.772434 
L 184.873519 67.772434 
L 184.873519 66.220114 
L 186.086563 66.220114 
L 186.086563 64.889554 
L 187.299606 64.889554 
L 187.299606 63.614434 
L 188.512649 63.614434 
L 188.512649 61.840354 
L 189.725693 61.840354 
L 189.725693 60.121714 
L 190.938736 60.121714 
L 190.938736 58.292194 
L 192.15178 58.292194 
L 192.15178 56.961634 
L 193.364823 56.961634 
L 193.364823 55.852834 
L 194.577867 55.852834 
L 194.577867 54.411394 
L 195.79091 54.411394 
L 195.79091 52.082914 
L 197.003954 52.082914 
L 197.003954 50.364274 
L 198.216997 50.364274 
L 198.216997 48.978274 
L 199.430041 48.978274 
L 199.430041 47.814034 
L 200.643084 47.814034 
L 200.643084 46.039954 
L 201.856128 46.039954 
L 201.856128 44.875714 
L 203.069171 44.875714 
L 203.069171 43.877794 
L 204.282215 43.877794 
L 204.282215 42.436354 
L 205.495258 42.436354 
L 205.495258 41.438434 
L 206.708302 41.438434 
L 206.708302 40.662274 
L 207.921345 40.662274 
L 207.921345 39.886114 
L 209.134389 39.886114 
L 209.134389 39.054514 
L 210.347432 39.054514 
L 210.347432 38.278354 
L 211.560476 38.278354 
L 211.560476 37.668514 
L 212.773519 37.668514 
L 212.773519 36.227074 
L 213.986563 36.227074 
L 213.986563 35.450914 
L 215.199606 35.450914 
L 215.199606 34.674754 
L 216.412649 34.674754 
L 216.412649 34.064914 
L 217.625693 34.064914 
L 217.625693 33.455074 
L 218.838736 33.455074 
L 218.838736 32.457154 
L 220.05178 32.457154 
L 220.05178 31.791874 
L 221.264823 31.791874 
L 221.264823 31.071154 
L 222.477867 31.071154 
L 222.477867 30.405874 
L 223.69091 30.405874 
L 223.69091 29.629714 
L 224.903954 29.629714 
L 224.903954 29.075314 
L 226.116997 29.075314 
L 226.116997 28.299154 
L 227.330041 28.299154 
L 227.330041 27.744754 
L 228.543084 27.744754 
L 228.543084 27.024034 
L 229.756128 27.024034 
L 229.756128 26.525074 
L 230.969171 26.525074 
L 230.969171 25.804354 
L 232.182215 25.804354 
L 232.182215 25.083634 
L 233.395258 25.083634 
L 233.395258 24.307474 
L 234.608302 24.307474 
L 234.608302 23.586754 
L 235.821345 23.586754 
L 235.821345 22.311634 
L 237.034389 22.311634 
L 237.034389 20.038594 
L 238.247432 20.038594 
" clip-path="url(#pac939718b0)" style="fill: none; stroke: #c78657; stroke-linecap: square"/>
   </g>
   <g id="line2d_28">
    <path d="M 178.808302 73.649074 
L 178.808302 72.263074 
L 180.021345 72.263074 
L 180.021345 71.265154 
L 181.234389 71.265154 
L 181.234389 69.435634 
L 182.447432 69.435634 
L 182.447432 67.328914 
L 183.660476 67.328914 
L 183.660476 66.164674 
L 184.873519 66.164674 
L 184.873519 64.834114 
L 186.086563 64.834114 
L 186.086563 63.392674 
L 187.299606 63.392674 
L 187.299606 62.283874 
L 188.512649 62.283874 
L 188.512649 60.620674 
L 189.725693 60.620674 
L 189.725693 58.735714 
L 190.938736 58.735714 
L 190.938736 56.628994 
L 192.15178 56.628994 
L 192.15178 55.021234 
L 193.364823 55.021234 
L 193.364823 53.524354 
L 194.577867 53.524354 
L 194.577867 51.639394 
L 195.79091 51.639394 
L 195.79091 49.920754 
L 197.003954 49.920754 
L 197.003954 48.312994 
L 198.216997 48.312994 
L 198.216997 47.204194 
L 199.430041 47.204194 
L 199.430041 45.929074 
L 200.643084 45.929074 
L 200.643084 44.764834 
L 201.856128 44.764834 
L 201.856128 43.545154 
L 203.069171 43.545154 
L 203.069171 42.380914 
L 204.282215 42.380914 
L 204.282215 41.771074 
L 205.495258 41.771074 
L 205.495258 40.884034 
L 206.708302 40.884034 
L 206.708302 40.274194 
L 207.921345 40.274194 
L 207.921345 39.276274 
L 209.134389 39.276274 
L 209.134389 38.444674 
L 210.347432 38.444674 
L 210.347432 37.890274 
L 211.560476 37.890274 
L 211.560476 36.947794 
L 212.773519 36.947794 
L 212.773519 35.949874 
L 213.986563 35.949874 
L 213.986563 35.229154 
L 215.199606 35.229154 
L 215.199606 34.730194 
L 216.412649 34.730194 
L 216.412649 33.843154 
L 217.625693 33.843154 
L 217.625693 32.900674 
L 218.838736 32.900674 
L 218.838736 32.235394 
L 220.05178 32.235394 
L 220.05178 31.459234 
L 221.264823 31.459234 
L 221.264823 30.904834 
L 222.477867 30.904834 
L 222.477867 30.128674 
L 223.69091 30.128674 
L 223.69091 29.352514 
L 224.903954 29.352514 
L 224.903954 28.465474 
L 226.116997 28.465474 
L 226.116997 28.021954 
L 227.330041 28.021954 
L 227.330041 27.578434 
L 228.543084 27.578434 
L 228.543084 26.857714 
L 229.756128 26.857714 
L 229.756128 26.414194 
L 230.969171 26.414194 
L 230.969171 25.915234 
L 232.182215 25.915234 
L 232.182215 25.305394 
L 233.395258 25.305394 
L 233.395258 24.085714 
L 234.608302 24.085714 
L 234.608302 23.254114 
L 235.821345 23.254114 
L 235.821345 22.477954 
L 237.034389 22.477954 
L 237.034389 20.038594 
L 238.247432 20.038594 
" clip-path="url(#pac939718b0)" style="fill: none; stroke: #b4684f; stroke-linecap: square"/>
   </g>
   <g id="patch_9">
    <path d="M 178.20178 75.478594 
L 178.20178 20.038594 
" style="fill: none; stroke: #000000; stroke-width: 1.5; stroke-linejoin: miter; stroke-linecap: square"/>
   </g>
   <g id="patch_10">
    <path d="M 178.20178 75.478594 
L 238.853954 75.478594 
" style="fill: none; stroke: #000000; stroke-width: 1.5; stroke-linejoin: miter; stroke-linecap: square"/>
   </g>
   <g id="text_12">
    <!-- $\theta_3$ -->
    <g transform="translate(203.577867 14.038594)">
     <text>
      <tspan style="font: 9px 'DejaVu Sans'" x="0" y="-0.09375">θ</tspan>
      <tspan style="font: 6.3px 'DejaVu Sans'" x="5.59248" y="1.3828125">3</tspan>
     </text>
    </g>
   </g>
  </g>
  <g id="axes_4">
   <g id="patch_11">
    <path d="M 250.984389 75.478594 
L 311.636563 75.478594 
L 311.636563 20.038594 
L 250.984389 20.038594 
z
" style="fill: #ffffff"/>
   </g>
   <g id="PolyCollection_4">
    <defs>
     <path id="m1deb0cddfa" d="M 250.984389 -24.684393 
L 250.984389 -23.464713 
L 252.197432 -24.296312 
L 253.410476 -25.238792 
L 254.623519 -26.181272 
L 255.836563 -27.123752 
L 257.049606 -28.121672 
L 258.262649 -29.119592 
L 259.475693 -30.172953 
L 260.688736 -31.170873 
L 261.90178 -32.224232 
L 263.114823 -33.277592 
L 264.327867 -34.330952 
L 265.54091 -35.384313 
L 266.753954 -36.437672 
L 267.966997 -37.491033 
L 269.180041 -38.544393 
L 270.393084 -39.653193 
L 271.606128 -40.706553 
L 272.819171 -41.815353 
L 274.032215 -42.868713 
L 275.245258 -43.977513 
L 276.458302 -45.086313 
L 277.671345 -46.139673 
L 278.884389 -47.248472 
L 280.097432 -48.357273 
L 281.310476 -49.466072 
L 282.523519 -50.574872 
L 283.736563 -51.683673 
L 284.949606 -52.847912 
L 286.162649 -53.956713 
L 287.375693 -55.065512 
L 288.588736 -56.229753 
L 289.80178 -57.338552 
L 291.014823 -58.502792 
L 292.227867 -59.611593 
L 293.44091 -60.775833 
L 294.653954 -61.940072 
L 295.866997 -63.104312 
L 297.080041 -64.268552 
L 298.293084 -65.432793 
L 299.506128 -66.597032 
L 300.719171 -67.816712 
L 301.932215 -68.980953 
L 303.145258 -70.200632 
L 304.358302 -71.420312 
L 305.571345 -72.639993 
L 306.784389 -73.915113 
L 307.997432 -75.190232 
L 309.210476 -76.576232 
L 310.423519 -78.350313 
L 310.423519 -78.350313 
L 310.423519 -78.350313 
L 309.210476 -77.795913 
L 307.997432 -76.964312 
L 306.784389 -76.021833 
L 305.571345 -75.079352 
L 304.358302 -74.136872 
L 303.145258 -73.138953 
L 301.932215 -72.141032 
L 300.719171 -71.087672 
L 299.506128 -70.089753 
L 298.293084 -69.036392 
L 297.080041 -67.983032 
L 295.866997 -66.929672 
L 294.653954 -65.876312 
L 293.44091 -64.822952 
L 292.227867 -63.769593 
L 291.014823 -62.716232 
L 289.80178 -61.607433 
L 288.588736 -60.554073 
L 287.375693 -59.445273 
L 286.162649 -58.391913 
L 284.949606 -57.283113 
L 283.736563 -56.174312 
L 282.523519 -55.120953 
L 281.310476 -54.012152 
L 280.097432 -52.903352 
L 278.884389 -51.794552 
L 277.671345 -50.685752 
L 276.458302 -49.576952 
L 275.245258 -48.412712 
L 274.032215 -47.303912 
L 272.819171 -46.195112 
L 271.606128 -45.030873 
L 270.393084 -43.922072 
L 269.180041 -42.757832 
L 267.966997 -41.649033 
L 266.753954 -40.484792 
L 265.54091 -39.320552 
L 264.327867 -38.156312 
L 263.114823 -36.992072 
L 261.90178 -35.827832 
L 260.688736 -34.663593 
L 259.475693 -33.443912 
L 258.262649 -32.279673 
L 257.049606 -31.059992 
L 255.836563 -29.840312 
L 254.623519 -28.620632 
L 253.410476 -27.345512 
L 252.197432 -26.070393 
L 250.984389 -24.684393 
z
" style="stroke: #808080; stroke-opacity: 0.2"/>
    </defs>
    <g clip-path="url(#p9cb49df08c)">
     <use xlink:href="#m1deb0cddfa" x="0" y="98.388906" style="fill: #808080; fill-opacity: 0.2; stroke: #808080; stroke-opacity: 0.2"/>
    </g>
   </g>
   <g id="matplotlib.axis_7">
    <g id="xtick_7">
     <g id="line2d_29">
      <g>
       <use xlink:href="#mb4b445d5af" x="250.984389" y="75.478594" style="stroke: #000000; stroke-width: 1.5"/>
      </g>
     </g>
     <g id="text_13">
      <text style="font: 9px 'Arial', sans-serif; text-anchor: middle" x="250.984389" y="89.317188" transform="rotate(-0 250.984389 89.317188)">0</text>
     </g>
    </g>
    <g id="xtick_8">
     <g id="line2d_30">
      <g>
       <use xlink:href="#mb4b445d5af" x="311.636563" y="75.478594" style="stroke: #000000; stroke-width: 1.5"/>
      </g>
     </g>
     <g id="text_14">
      <text style="font: 9px 'Arial', sans-serif; text-anchor: middle" x="311.636563" y="89.317188" transform="rotate(-0 311.636563 89.317188)">1</text>
     </g>
    </g>
   </g>
   <g id="matplotlib.axis_8"/>
   <g id="line2d_31">
    <path d="M 251.59091 74.425234 
L 251.59091 73.371874 
L 252.803954 73.371874 
L 252.803954 72.706594 
L 254.016997 72.706594 
L 254.016997 71.708674 
L 255.230041 71.708674 
L 255.230041 70.710754 
L 256.443084 70.710754 
L 256.443084 69.546514 
L 257.656128 69.546514 
L 257.656128 68.326834 
L 258.869171 68.326834 
L 258.869171 67.273474 
L 260.082215 67.273474 
L 260.082215 66.220114 
L 261.295258 66.220114 
L 261.295258 64.944994 
L 262.508302 64.944994 
L 262.508302 63.725314 
L 263.721345 63.725314 
L 263.721345 62.505634 
L 264.934389 62.505634 
L 264.934389 61.618594 
L 266.147432 61.618594 
L 266.147432 60.509794 
L 267.360476 60.509794 
L 267.360476 59.345554 
L 268.573519 59.345554 
L 268.573519 58.458514 
L 269.786563 58.458514 
L 269.786563 57.626914 
L 270.999606 57.626914 
L 270.999606 56.573554 
L 272.212649 56.573554 
L 272.212649 55.187554 
L 273.425693 55.187554 
L 273.425693 53.967874 
L 274.638736 53.967874 
L 274.638736 52.360114 
L 275.85178 52.360114 
L 275.85178 50.918674 
L 277.064823 50.918674 
L 277.064823 49.920754 
L 278.277867 49.920754 
L 278.277867 48.368434 
L 279.49091 48.368434 
L 279.49091 47.536834 
L 280.703954 47.536834 
L 280.703954 46.317154 
L 281.916997 46.317154 
L 281.916997 45.319234 
L 283.130041 45.319234 
L 283.130041 44.543074 
L 284.343084 44.543074 
L 284.343084 43.323394 
L 285.556128 43.323394 
L 285.556128 41.992834 
L 286.769171 41.992834 
L 286.769171 40.939474 
L 287.982215 40.939474 
L 287.982215 39.442594 
L 289.195258 39.442594 
L 289.195258 38.278354 
L 290.408302 38.278354 
L 290.408302 37.280434 
L 291.621345 37.280434 
L 291.621345 36.060754 
L 292.834389 36.060754 
L 292.834389 35.229154 
L 294.047432 35.229154 
L 294.047432 34.120354 
L 295.260476 34.120354 
L 295.260476 33.122434 
L 296.473519 33.122434 
L 296.473519 31.625554 
L 297.686563 31.625554 
L 297.686563 30.793954 
L 298.899606 30.793954 
L 298.899606 29.796034 
L 300.112649 29.796034 
L 300.112649 28.908994 
L 301.325693 28.908994 
L 301.325693 28.188274 
L 302.538736 28.188274 
L 302.538736 27.134914 
L 303.75178 27.134914 
L 303.75178 25.915234 
L 304.964823 25.915234 
L 304.964823 24.972754 
L 306.177867 24.972754 
L 306.177867 24.030274 
L 307.39091 24.030274 
L 307.39091 22.644274 
L 308.603954 22.644274 
L 308.603954 21.424594 
L 309.816997 21.424594 
L 309.816997 20.038594 
L 311.030041 20.038594 
" clip-path="url(#p9cb49df08c)" style="fill: none; stroke: #eedf7a; stroke-linecap: square"/>
   </g>
   <g id="line2d_32">
    <path d="M 251.59091 74.646994 
L 251.59091 73.759954 
L 252.803954 73.759954 
L 252.803954 72.872914 
L 254.016997 72.872914 
L 254.016997 72.263074 
L 255.230041 72.263074 
L 255.230041 71.320594 
L 256.443084 71.320594 
L 256.443084 70.100914 
L 257.656128 70.100914 
L 257.656128 68.825794 
L 258.869171 68.825794 
L 258.869171 68.215954 
L 260.082215 68.215954 
L 260.082215 67.273474 
L 261.295258 67.273474 
L 261.295258 66.275554 
L 262.508302 66.275554 
L 262.508302 65.055874 
L 263.721345 65.055874 
L 263.721345 63.337234 
L 264.934389 63.337234 
L 264.934389 62.339314 
L 266.147432 62.339314 
L 266.147432 60.897874 
L 267.360476 60.897874 
L 267.360476 59.567314 
L 268.573519 59.567314 
L 268.573519 58.735714 
L 269.786563 58.735714 
L 269.786563 57.405154 
L 270.999606 57.405154 
L 270.999606 56.296354 
L 272.212649 56.296354 
L 272.212649 55.353874 
L 273.425693 55.353874 
L 273.425693 54.245074 
L 274.638736 54.245074 
L 274.638736 52.637314 
L 275.85178 52.637314 
L 275.85178 51.362194 
L 277.064823 51.362194 
L 277.064823 50.308834 
L 278.277867 50.308834 
L 278.277867 49.366354 
L 279.49091 49.366354 
L 279.49091 47.869474 
L 280.703954 47.869474 
L 280.703954 46.816114 
L 281.916997 46.816114 
L 281.916997 45.984514 
L 283.130041 45.984514 
L 283.130041 44.820274 
L 284.343084 44.820274 
L 284.343084 43.877794 
L 285.556128 43.877794 
L 285.556128 42.713554 
L 286.769171 42.713554 
L 286.769171 41.660194 
L 287.982215 41.660194 
L 287.982215 40.773154 
L 289.195258 40.773154 
L 289.195258 39.442594 
L 290.408302 39.442594 
L 290.408302 38.389234 
L 291.621345 38.389234 
L 291.621345 37.280434 
L 292.834389 37.280434 
L 292.834389 36.448834 
L 294.047432 36.448834 
L 294.047432 35.783554 
L 295.260476 35.783554 
L 295.260476 34.563874 
L 296.473519 34.563874 
L 296.473519 33.676834 
L 297.686563 33.676834 
L 297.686563 32.290834 
L 298.899606 32.290834 
L 298.899606 31.182034 
L 300.112649 31.182034 
L 300.112649 30.017794 
L 301.325693 30.017794 
L 301.325693 29.130754 
L 302.538736 29.130754 
L 302.538736 27.911074 
L 303.75178 27.911074 
L 303.75178 26.525074 
L 304.964823 26.525074 
L 304.964823 25.582594 
L 306.177867 25.582594 
L 306.177867 24.972754 
L 307.39091 24.972754 
L 307.39091 23.808514 
L 308.603954 23.808514 
L 308.603954 22.256194 
L 309.816997 22.256194 
L 309.816997 20.038594 
L 311.030041 20.038594 
" clip-path="url(#p9cb49df08c)" style="fill: none; stroke: #e7cc71; stroke-linecap: square"/>
   </g>
   <g id="line2d_33">
    <path d="M 251.59091 74.425234 
L 251.59091 73.649074 
L 252.803954 73.649074 
L 252.803954 72.872914 
L 254.016997 72.872914 
L 254.016997 71.819554 
L 255.230041 71.819554 
L 255.230041 70.322674 
L 256.443084 70.322674 
L 256.443084 68.992114 
L 257.656128 68.992114 
L 257.656128 67.938754 
L 258.869171 67.938754 
L 258.869171 66.386434 
L 260.082215 66.386434 
L 260.082215 65.000434 
L 261.295258 65.000434 
L 261.295258 63.836194 
L 262.508302 63.836194 
L 262.508302 62.727394 
L 263.721345 62.727394 
L 263.721345 61.507714 
L 264.934389 61.507714 
L 264.934389 60.731554 
L 266.147432 60.731554 
L 266.147432 59.844514 
L 267.360476 59.844514 
L 267.360476 58.292194 
L 268.573519 58.292194 
L 268.573519 57.460594 
L 269.786563 57.460594 
L 269.786563 56.019154 
L 270.999606 56.019154 
L 270.999606 54.577714 
L 272.212649 54.577714 
L 272.212649 53.302594 
L 273.425693 53.302594 
L 273.425693 51.362194 
L 274.638736 51.362194 
L 274.638736 50.031634 
L 275.85178 50.031634 
L 275.85178 48.645634 
L 277.064823 48.645634 
L 277.064823 47.758594 
L 278.277867 47.758594 
L 278.277867 46.649794 
L 279.49091 46.649794 
L 279.49091 45.707314 
L 280.703954 45.707314 
L 280.703954 44.653954 
L 281.916997 44.653954 
L 281.916997 43.933234 
L 283.130041 43.933234 
L 283.130041 43.046194 
L 284.343084 43.046194 
L 284.343084 42.103714 
L 285.556128 42.103714 
L 285.556128 41.216674 
L 286.769171 41.216674 
L 286.769171 40.662274 
L 287.982215 40.662274 
L 287.982215 39.387154 
L 289.195258 39.387154 
L 289.195258 38.389234 
L 290.408302 38.389234 
L 290.408302 37.335874 
L 291.621345 37.335874 
L 291.621345 36.171634 
L 292.834389 36.171634 
L 292.834389 35.450914 
L 294.047432 35.450914 
L 294.047432 34.452994 
L 295.260476 34.452994 
L 295.260476 33.233314 
L 296.473519 33.233314 
L 296.473519 32.346274 
L 297.686563 32.346274 
L 297.686563 31.514674 
L 298.899606 31.514674 
L 298.899606 30.572194 
L 300.112649 30.572194 
L 300.112649 29.962354 
L 301.325693 29.962354 
L 301.325693 29.463394 
L 302.538736 29.463394 
L 302.538736 28.243714 
L 303.75178 28.243714 
L 303.75178 27.245794 
L 304.964823 27.245794 
L 304.964823 26.192434 
L 306.177867 26.192434 
L 306.177867 24.972754 
L 307.39091 24.972754 
L 307.39091 23.254114 
L 308.603954 23.254114 
L 308.603954 22.089874 
L 309.816997 22.089874 
L 309.816997 20.038594 
L 311.030041 20.038594 
" clip-path="url(#p9cb49df08c)" style="fill: none; stroke: #e0b868; stroke-linecap: square"/>
   </g>
   <g id="line2d_34">
    <path d="M 251.59091 74.702434 
L 251.59091 73.593634 
L 252.803954 73.593634 
L 252.803954 72.152194 
L 254.016997 72.152194 
L 254.016997 70.987954 
L 255.230041 70.987954 
L 255.230041 69.879154 
L 256.443084 69.879154 
L 256.443084 68.604034 
L 257.656128 68.604034 
L 257.656128 67.051714 
L 258.869171 67.051714 
L 258.869171 65.887474 
L 260.082215 65.887474 
L 260.082215 64.279714 
L 261.295258 64.279714 
L 261.295258 63.004594 
L 262.508302 63.004594 
L 262.508302 61.618594 
L 263.721345 61.618594 
L 263.721345 60.509794 
L 264.934389 60.509794 
L 264.934389 59.123794 
L 266.147432 59.123794 
L 266.147432 57.183394 
L 267.360476 57.183394 
L 267.360476 55.908274 
L 268.573519 55.908274 
L 268.573519 54.355954 
L 269.786563 54.355954 
L 269.786563 53.080834 
L 270.999606 53.080834 
L 270.999606 51.916594 
L 272.212649 51.916594 
L 272.212649 50.197954 
L 273.425693 50.197954 
L 273.425693 49.089154 
L 274.638736 49.089154 
L 274.638736 48.091234 
L 275.85178 48.091234 
L 275.85178 46.816114 
L 277.064823 46.816114 
L 277.064823 45.430114 
L 278.277867 45.430114 
L 278.277867 44.099554 
L 279.49091 44.099554 
L 279.49091 42.436354 
L 280.703954 42.436354 
L 280.703954 41.493874 
L 281.916997 41.493874 
L 281.916997 40.606834 
L 283.130041 40.606834 
L 283.130041 39.664354 
L 284.343084 39.664354 
L 284.343084 38.888194 
L 285.556128 38.888194 
L 285.556128 38.001154 
L 286.769171 38.001154 
L 286.769171 36.781474 
L 287.982215 36.781474 
L 287.982215 36.005314 
L 289.195258 36.005314 
L 289.195258 34.785634 
L 290.408302 34.785634 
L 290.408302 34.064914 
L 291.621345 34.064914 
L 291.621345 33.510514 
L 292.834389 33.510514 
L 292.834389 33.066994 
L 294.047432 33.066994 
L 294.047432 32.179954 
L 295.260476 32.179954 
L 295.260476 31.348354 
L 296.473519 31.348354 
L 296.473519 30.572194 
L 297.686563 30.572194 
L 297.686563 29.740594 
L 298.899606 29.740594 
L 298.899606 29.019874 
L 300.112649 29.019874 
L 300.112649 28.188274 
L 301.325693 28.188274 
L 301.325693 27.245794 
L 302.538736 27.245794 
L 302.538736 26.635954 
L 303.75178 26.635954 
L 303.75178 25.471714 
L 304.964823 25.471714 
L 304.964823 24.584674 
L 306.177867 24.584674 
L 306.177867 23.642194 
L 307.39091 23.642194 
L 307.39091 22.755154 
L 308.603954 22.755154 
L 308.603954 21.812674 
L 309.816997 21.812674 
L 309.816997 20.038594 
L 311.030041 20.038594 
" clip-path="url(#p9cb49df08c)" style="fill: none; stroke: #d9a45f; stroke-linecap: square"/>
   </g>
   <g id="line2d_35">
    <path d="M 251.59091 74.369794 
L 251.59091 73.704514 
L 252.803954 73.704514 
L 252.803954 72.817474 
L 254.016997 72.817474 
L 254.016997 71.431474 
L 255.230041 71.431474 
L 255.230041 69.601954 
L 256.443084 69.601954 
L 256.443084 68.160514 
L 257.656128 68.160514 
L 257.656128 66.220114 
L 258.869171 66.220114 
L 258.869171 64.501474 
L 260.082215 64.501474 
L 260.082215 62.893714 
L 261.295258 62.893714 
L 261.295258 61.064194 
L 262.508302 61.064194 
L 262.508302 59.678194 
L 263.721345 59.678194 
L 263.721345 57.959554 
L 264.934389 57.959554 
L 264.934389 56.185474 
L 266.147432 56.185474 
L 266.147432 54.078754 
L 267.360476 54.078754 
L 267.360476 52.138354 
L 268.573519 52.138354 
L 268.573519 50.142514 
L 269.786563 50.142514 
L 269.786563 48.202114 
L 270.999606 48.202114 
L 270.999606 46.926994 
L 272.212649 46.926994 
L 272.212649 45.707314 
L 273.425693 45.707314 
L 273.425693 44.099554 
L 274.638736 44.099554 
L 274.638736 42.436354 
L 275.85178 42.436354 
L 275.85178 41.493874 
L 277.064823 41.493874 
L 277.064823 40.495954 
L 278.277867 40.495954 
L 278.277867 39.553474 
L 279.49091 39.553474 
L 279.49091 38.555554 
L 280.703954 38.555554 
L 280.703954 37.668514 
L 281.916997 37.668514 
L 281.916997 36.892354 
L 283.130041 36.892354 
L 283.130041 35.728114 
L 284.343084 35.728114 
L 284.343084 34.951954 
L 285.556128 34.951954 
L 285.556128 33.954034 
L 286.769171 33.954034 
L 286.769171 33.288754 
L 287.982215 33.288754 
L 287.982215 32.568034 
L 289.195258 32.568034 
L 289.195258 32.069074 
L 290.408302 32.069074 
L 290.408302 31.071154 
L 291.621345 31.071154 
L 291.621345 30.516754 
L 292.834389 30.516754 
L 292.834389 29.851474 
L 294.047432 29.851474 
L 294.047432 29.130754 
L 295.260476 29.130754 
L 295.260476 28.798114 
L 296.473519 28.798114 
L 296.473519 28.465474 
L 297.686563 28.465474 
L 297.686563 27.966514 
L 298.899606 27.966514 
L 298.899606 27.412114 
L 300.112649 27.412114 
L 300.112649 26.857714 
L 301.325693 26.857714 
L 301.325693 26.358754 
L 302.538736 26.358754 
L 302.538736 25.748914 
L 303.75178 25.748914 
L 303.75178 25.194514 
L 304.964823 25.194514 
L 304.964823 24.695554 
L 306.177867 24.695554 
L 306.177867 23.697634 
L 307.39091 23.697634 
L 307.39091 22.422514 
L 308.603954 22.422514 
L 308.603954 21.480034 
L 309.816997 21.480034 
L 309.816997 20.038594 
L 311.030041 20.038594 
" clip-path="url(#p9cb49df08c)" style="fill: none; stroke: #c78657; stroke-linecap: square"/>
   </g>
   <g id="line2d_36">
    <path d="M 251.59091 72.983794 
L 251.59091 72.263074 
L 252.803954 72.263074 
L 252.803954 70.766194 
L 254.016997 70.766194 
L 254.016997 69.601954 
L 255.230041 69.601954 
L 255.230041 68.160514 
L 256.443084 68.160514 
L 256.443084 66.441874 
L 257.656128 66.441874 
L 257.656128 64.556914 
L 258.869171 64.556914 
L 258.869171 62.394754 
L 260.082215 62.394754 
L 260.082215 60.676114 
L 261.295258 60.676114 
L 261.295258 59.179234 
L 262.508302 59.179234 
L 262.508302 56.850754 
L 263.721345 56.850754 
L 263.721345 55.076674 
L 264.934389 55.076674 
L 264.934389 52.969954 
L 266.147432 52.969954 
L 266.147432 50.974114 
L 267.360476 50.974114 
L 267.360476 49.033714 
L 268.573519 49.033714 
L 268.573519 47.204194 
L 269.786563 47.204194 
L 269.786563 45.374674 
L 270.999606 45.374674 
L 270.999606 43.489714 
L 272.212649 43.489714 
L 272.212649 42.436354 
L 273.425693 42.436354 
L 273.425693 41.438434 
L 274.638736 41.438434 
L 274.638736 40.274194 
L 275.85178 40.274194 
L 275.85178 39.442594 
L 277.064823 39.442594 
L 277.064823 38.222914 
L 278.277867 38.222914 
L 278.277867 37.668514 
L 279.49091 37.668514 
L 279.49091 36.892354 
L 280.703954 36.892354 
L 280.703954 36.393394 
L 281.916997 36.393394 
L 281.916997 35.672674 
L 283.130041 35.672674 
L 283.130041 35.118274 
L 284.343084 35.118274 
L 284.343084 34.286674 
L 285.556128 34.286674 
L 285.556128 33.455074 
L 286.769171 33.455074 
L 286.769171 32.789794 
L 287.982215 32.789794 
L 287.982215 32.235394 
L 289.195258 32.235394 
L 289.195258 31.514674 
L 290.408302 31.514674 
L 290.408302 31.126594 
L 291.621345 31.126594 
L 291.621345 30.516754 
L 292.834389 30.516754 
L 292.834389 29.851474 
L 294.047432 29.851474 
L 294.047432 29.241634 
L 295.260476 29.241634 
L 295.260476 28.631794 
L 296.473519 28.631794 
L 296.473519 27.966514 
L 297.686563 27.966514 
L 297.686563 27.467554 
L 298.899606 27.467554 
L 298.899606 27.190354 
L 300.112649 27.190354 
L 300.112649 26.746834 
L 301.325693 26.746834 
L 301.325693 25.970674 
L 302.538736 25.970674 
L 302.538736 25.360834 
L 303.75178 25.360834 
L 303.75178 24.750994 
L 304.964823 24.750994 
L 304.964823 24.085714 
L 306.177867 24.085714 
L 306.177867 23.420434 
L 307.39091 23.420434 
L 307.39091 22.644274 
L 308.603954 22.644274 
L 308.603954 21.812674 
L 309.816997 21.812674 
L 309.816997 20.038594 
L 311.030041 20.038594 
" clip-path="url(#p9cb49df08c)" style="fill: none; stroke: #b4684f; stroke-linecap: square"/>
   </g>
   <g id="patch_12">
    <path d="M 250.984389 75.478594 
L 250.984389 20.038594 
" style="fill: none; stroke: #000000; stroke-width: 1.5; stroke-linejoin: miter; stroke-linecap: square"/>
   </g>
   <g id="patch_13">
    <path d="M 250.984389 75.478594 
L 311.636563 75.478594 
" style="fill: none; stroke: #000000; stroke-width: 1.5; stroke-linejoin: miter; stroke-linecap: square"/>
   </g>
   <g id="text_15">
    <!-- $\theta_4$ -->
    <g transform="translate(276.360476 14.038594)">
     <text>
      <tspan style="font: 9px 'DejaVu Sans'" x="0" y="-0.09375">θ</tspan>
      <tspan style="font: 6.3px 'DejaVu Sans'" x="5.59248" y="1.3828125">4</tspan>
     </text>
    </g>
   </g>
  </g>
 </g>
 <defs>
  <clipPath id="p8935002258">
   <rect x="32.636562" y="20.038594" width="60.652174" height="55.44"/>
  </clipPath>
  <clipPath id="p9db6aec2be">
   <rect x="105.419171" y="20.038594" width="60.652174" height="55.44"/>
  </clipPath>
  <clipPath id="pac939718b0">
   <rect x="178.20178" y="20.038594" width="60.652174" height="55.44"/>
  </clipPath>
  <clipPath id="p9cb49df08c">
   <rect x="250.984389" y="20.038594" width="60.652174" height="55.44"/>
  </clipPath>
 </defs>
</svg>
