<?xml version="1.0" encoding="utf-8" standalone="no"?>
<!DOCTYPE svg PUBLIC "-//W3C//DTD SVG 1.1//EN"
  "http://www.w3.org/Graphics/SVG/1.1/DTD/svg11.dtd">
<svg xmlns:xlink="http://www.w3.org/1999/xlink" width="404.02125pt" height="123.189609pt" viewBox="0 0 404.02125 123.189609" xmlns="http://www.w3.org/2000/svg" version="1.1">
 <metadata>
  <rdf:RDF xmlns:dc="http://purl.org/dc/elements/1.1/" xmlns:cc="http://creativecommons.org/ns#" xmlns:rdf="http://www.w3.org/1999/02/22-rdf-syntax-ns#">
   <cc:Work>
    <dc:type rdf:resource="http://purl.org/dc/dcmitype/StillImage"/>
    <dc:date>2024-11-20T14:49:44.617395</dc:date>
    <dc:format>image/svg+xml</dc:format>
    <dc:creator>
     <cc:Agent>
      <dc:title>Matplotlib v3.9.2, https://matplotlib.org/</dc:title>
     </cc:Agent>
    </dc:creator>
   </cc:Work>
  </rdf:RDF>
 </metadata>
 <defs>
  <style type="text/css">*{stroke-linejoin: round; stroke-linecap: butt}</style>
 </defs>
 <g id="figure_1">
  <g id="patch_1">
   <path d="M 0 123.189609 
L 404.02125 123.189609 
L 404.02125 0 
L 0 0 
z
" style="fill: #ffffff"/>
  </g>
  <g id="axes_1">
   <g id="patch_2">
    <path d="M 86.32125 66.059297 
L 146.973424 66.059297 
L 146.973424 10.619297 
L 86.32125 10.619297 
z
" style="fill: #ffffff"/>
   </g>
   <g id="PolyCollection_1">
    <defs>
     <path id="m7a7202f36b" d="M 86.32125 -58.904392 
L 86.32125 -57.684712 
L 87.534293 -58.516312 
L 88.747337 -59.458792 
L 89.96038 -60.401272 
L 91.173424 -61.343752 
L 92.386467 -62.341672 
L 93.599511 -63.339592 
L 94.812554 -64.392952 
L 96.025598 -65.390873 
L 97.238641 -66.444232 
L 98.451685 -67.497592 
L 99.664728 -68.550952 
L 100.877772 -69.604312 
L 102.090815 -70.657672 
L 103.303859 -71.711033 
L 104.516902 -72.764392 
L 105.729946 -73.873192 
L 106.942989 -74.926552 
L 108.156033 -76.035353 
L 109.369076 -77.088712 
L 110.58212 -78.197513 
L 111.795163 -79.306312 
L 113.008207 -80.359672 
L 114.22125 -81.468472 
L 115.434293 -82.577272 
L 116.647337 -83.686072 
L 117.86038 -84.794872 
L 119.073424 -85.903672 
L 120.286467 -87.067913 
L 121.499511 -88.176713 
L 122.712554 -89.285512 
L 123.925598 -90.449752 
L 125.138641 -91.558552 
L 126.351685 -92.722792 
L 127.564728 -93.831592 
L 128.777772 -94.995833 
L 129.990815 -96.160072 
L 131.203859 -97.324312 
L 132.416902 -98.488552 
L 133.629946 -99.652793 
L 134.842989 -100.817033 
L 136.056033 -102.036712 
L 137.269076 -103.200952 
L 138.48212 -104.420632 
L 139.695163 -105.640312 
L 140.908207 -106.859993 
L 142.12125 -108.135113 
L 143.334293 -109.410233 
L 144.547337 -110.796233 
L 145.76038 -112.570312 
L 145.76038 -112.570312 
L 145.76038 -112.570312 
L 144.547337 -112.015912 
L 143.334293 -111.184313 
L 142.12125 -110.241833 
L 140.908207 -109.299352 
L 139.695163 -108.356873 
L 138.48212 -107.358953 
L 137.269076 -106.361032 
L 136.056033 -105.307672 
L 134.842989 -104.309753 
L 133.629946 -103.256393 
L 132.416902 -102.203033 
L 131.203859 -101.149673 
L 129.990815 -100.096313 
L 128.777772 -99.042952 
L 127.564728 -97.989593 
L 126.351685 -96.936232 
L 125.138641 -95.827432 
L 123.925598 -94.774073 
L 122.712554 -93.665273 
L 121.499511 -92.611913 
L 120.286467 -91.503113 
L 119.073424 -90.394312 
L 117.86038 -89.340952 
L 116.647337 -88.232152 
L 115.434293 -87.123352 
L 114.22125 -86.014552 
L 113.008207 -84.905753 
L 111.795163 -83.796953 
L 110.58212 -82.632712 
L 109.369076 -81.523912 
L 108.156033 -80.415112 
L 106.942989 -79.250872 
L 105.729946 -78.142072 
L 104.516902 -76.977832 
L 103.303859 -75.869033 
L 102.090815 -74.704792 
L 100.877772 -73.540552 
L 99.664728 -72.376312 
L 98.451685 -71.212072 
L 97.238641 -70.047832 
L 96.025598 -68.883592 
L 94.812554 -67.663912 
L 93.599511 -66.499673 
L 92.386467 -65.279992 
L 91.173424 -64.060312 
L 89.96038 -62.840632 
L 88.747337 -61.565512 
L 87.534293 -60.290392 
L 86.32125 -58.904392 
z
" style="stroke: #808080; stroke-opacity: 0.2"/>
    </defs>
    <g clip-path="url(#pde36aca655)">
     <use xlink:href="#m7a7202f36b" x="0" y="123.189609" style="fill: #808080; fill-opacity: 0.2; stroke: #808080; stroke-opacity: 0.2"/>
    </g>
   </g>
   <g id="matplotlib.axis_1">
    <g id="xtick_1">
     <g id="line2d_1">
      <defs>
       <path id="ma6fdd9c6e5" d="M 0 0 
L 0 3.5 
" style="stroke: #000000; stroke-width: 1.5"/>
      </defs>
      <g>
       <use xlink:href="#ma6fdd9c6e5" x="86.32125" y="66.059297" style="stroke: #000000; stroke-width: 1.5"/>
      </g>
     </g>
     <g id="text_1">
      <text style="font: 9px 'Arial', sans-serif; text-anchor: middle" x="86.32125" y="79.897891" transform="rotate(-0 86.32125 79.897891)">0</text>
     </g>
    </g>
    <g id="xtick_2">
     <g id="line2d_2">
      <g>
       <use xlink:href="#ma6fdd9c6e5" x="146.973424" y="66.059297" style="stroke: #000000; stroke-width: 1.5"/>
      </g>
     </g>
     <g id="text_2">
      <text style="font: 9px 'Arial', sans-serif; text-anchor: middle" x="146.973424" y="79.897891" transform="rotate(-0 146.973424 79.897891)">1</text>
     </g>
    </g>
    <g id="text_3">
     <text style="font: 9px 'Arial', sans-serif; text-anchor: middle" x="116.647337" y="92.608203" transform="rotate(-0 116.647337 92.608203)">Exp. coverage</text>
    </g>
   </g>
   <g id="matplotlib.axis_2">
    <g id="ytick_1">
     <g id="line2d_3">
      <defs>
       <path id="m1cfbc61d7f" d="M 0 0 
L -3.5 0 
" style="stroke: #000000; stroke-width: 1.5"/>
      </defs>
      <g>
       <use xlink:href="#m1cfbc61d7f" x="86.32125" y="66.059297" style="stroke: #000000; stroke-width: 1.5"/>
      </g>
     </g>
     <g id="text_4">
      <text style="font: 9px 'Arial', sans-serif; text-anchor: end" x="79.32125" y="69.478594" transform="rotate(-0 79.32125 69.478594)">0</text>
     </g>
    </g>
    <g id="ytick_2">
     <g id="line2d_4">
      <g>
       <use xlink:href="#m1cfbc61d7f" x="86.32125" y="10.619297" style="stroke: #000000; stroke-width: 1.5"/>
      </g>
     </g>
     <g id="text_5">
      <text style="font: 9px 'Arial', sans-serif; text-anchor: end" x="79.32125" y="14.038594" transform="rotate(-0 79.32125 14.038594)">1</text>
     </g>
    </g>
    <g id="text_6">
     <text style="font: 9px 'Arial', sans-serif; text-anchor: middle" x="67.723281" y="38.339297" transform="rotate(-90 67.723281 38.339297)">Emp. coverage</text>
    </g>
   </g>
   <g id="line2d_5">
    <path d="M 87.047863 65.394017 
L 87.047863 64.229777 
L 88.25848 64.229777 
L 88.25848 62.788337 
L 89.469098 62.788337 
L 89.469098 61.402337 
L 90.679715 61.402337 
L 90.679715 60.127217 
L 91.890333 60.127217 
L 91.890333 59.129297 
L 93.10095 59.129297 
L 93.10095 58.131377 
L 94.311567 58.131377 
L 94.311567 57.022577 
L 95.522185 57.022577 
L 95.522185 56.135537 
L 96.732802 56.135537 
L 96.732802 55.082177 
L 97.94342 55.082177 
L 97.94342 53.585297 
L 99.154037 53.585297 
L 99.154037 51.866657 
L 100.364654 51.866657 
L 100.364654 50.591537 
L 101.575272 50.591537 
L 101.575272 49.593617 
L 102.785889 49.593617 
L 102.785889 48.928337 
L 103.996507 48.928337 
L 103.996507 47.320577 
L 105.207124 47.320577 
L 105.207124 46.322657 
L 106.417741 46.322657 
L 106.417741 45.324737 
L 107.628359 45.324737 
L 107.628359 44.049617 
L 108.838976 44.049617 
L 108.838976 43.162577 
L 110.049593 43.162577 
L 110.049593 41.055857 
L 111.260211 41.055857 
L 111.260211 40.057937 
L 112.470828 40.057937 
L 112.470828 38.949137 
L 113.681446 38.949137 
L 113.681446 37.729457 
L 114.892063 37.729457 
L 114.892063 37.064177 
L 116.10268 37.064177 
L 116.10268 36.121697 
L 117.313298 36.121697 
L 117.313298 35.068337 
L 118.523915 35.068337 
L 118.523915 33.793217 
L 119.734533 33.793217 
L 119.734533 32.628977 
L 120.94515 32.628977 
L 120.94515 31.741937 
L 122.155767 31.741937 
L 122.155767 30.910337 
L 123.366385 30.910337 
L 123.366385 29.967857 
L 124.577002 29.967857 
L 124.577002 29.136257 
L 125.78762 29.136257 
L 125.78762 28.193777 
L 126.998237 28.193777 
L 126.998237 26.974097 
L 128.208854 26.974097 
L 128.208854 25.754417 
L 129.419472 25.754417 
L 129.419472 24.423857 
L 130.630089 24.423857 
L 130.630089 23.315057 
L 131.840707 23.315057 
L 131.840707 22.206257 
L 133.051324 22.206257 
L 133.051324 20.820257 
L 134.261941 20.820257 
L 134.261941 20.321297 
L 135.472559 20.321297 
L 135.472559 19.212497 
L 136.683176 19.212497 
L 136.683176 18.214577 
L 137.893793 18.214577 
L 137.893793 17.216657 
L 139.104411 17.216657 
L 139.104411 16.274177 
L 140.315028 16.274177 
L 140.315028 14.888177 
L 141.525646 14.888177 
L 141.525646 14.167457 
L 142.736263 14.167457 
L 142.736263 12.892337 
L 143.94688 12.892337 
L 143.94688 12.005297 
L 145.157498 12.005297 
L 145.157498 10.619297 
L 146.368115 10.619297 
" clip-path="url(#pde36aca655)" style="fill: none; stroke: #eedf7a; stroke-linecap: square"/>
   </g>
   <g id="line2d_6">
    <path d="M 87.047863 65.671217 
L 87.047863 64.839617 
L 88.25848 64.839617 
L 88.25848 63.841697 
L 89.469098 63.841697 
L 89.469098 62.566577 
L 90.679715 62.566577 
L 90.679715 61.402337 
L 91.890333 61.402337 
L 91.890333 60.348977 
L 93.10095 60.348977 
L 93.10095 59.628257 
L 94.311567 59.628257 
L 94.311567 58.741217 
L 95.522185 58.741217 
L 95.522185 57.798737 
L 96.732802 57.798737 
L 96.732802 56.468177 
L 97.94342 56.468177 
L 97.94342 55.082177 
L 99.154037 55.082177 
L 99.154037 54.084257 
L 100.364654 54.084257 
L 100.364654 52.920017 
L 101.575272 52.920017 
L 101.575272 51.811217 
L 102.785889 51.811217 
L 102.785889 50.591537 
L 103.996507 50.591537 
L 103.996507 49.316417 
L 105.207124 49.316417 
L 105.207124 48.207617 
L 106.417741 48.207617 
L 106.417741 47.209697 
L 107.628359 47.209697 
L 107.628359 46.156337 
L 108.838976 46.156337 
L 108.838976 45.269297 
L 110.049593 45.269297 
L 110.049593 43.606097 
L 111.260211 43.606097 
L 111.260211 41.887457 
L 112.470828 41.887457 
L 112.470828 41.166737 
L 113.681446 41.166737 
L 113.681446 39.947057 
L 114.892063 39.947057 
L 114.892063 38.782817 
L 116.10268 38.782817 
L 116.10268 38.172977 
L 117.313298 38.172977 
L 117.313298 37.175057 
L 118.523915 37.175057 
L 118.523915 36.731537 
L 119.734533 36.731537 
L 119.734533 35.844497 
L 120.94515 35.844497 
L 120.94515 35.012897 
L 122.155767 35.012897 
L 122.155767 33.571457 
L 123.366385 33.571457 
L 123.366385 32.019137 
L 124.577002 32.019137 
L 124.577002 30.744017 
L 125.78762 30.744017 
L 125.78762 29.690657 
L 126.998237 29.690657 
L 126.998237 28.859057 
L 128.208854 28.859057 
L 128.208854 27.306737 
L 129.419472 27.306737 
L 129.419472 26.087057 
L 130.630089 26.087057 
L 130.630089 24.701057 
L 131.840707 24.701057 
L 131.840707 24.035777 
L 133.051324 24.035777 
L 133.051324 22.871537 
L 134.261941 22.871537 
L 134.261941 21.762737 
L 135.472559 21.762737 
L 135.472559 20.598497 
L 136.683176 20.598497 
L 136.683176 19.545137 
L 137.893793 19.545137 
L 137.893793 18.491777 
L 139.104411 18.491777 
L 139.104411 17.438417 
L 140.315028 17.438417 
L 140.315028 16.052417 
L 141.525646 16.052417 
L 141.525646 14.888177 
L 142.736263 14.888177 
L 142.736263 13.446737 
L 143.94688 13.446737 
L 143.94688 12.171617 
L 145.157498 12.171617 
L 145.157498 10.619297 
L 146.368115 10.619297 
" clip-path="url(#pde36aca655)" style="fill: none; stroke: #e7cb71; stroke-linecap: square"/>
   </g>
   <g id="line2d_7">
    <path d="M 87.047863 65.338577 
L 87.047863 64.008017 
L 88.25848 64.008017 
L 88.25848 62.899217 
L 89.469098 62.899217 
L 89.469098 61.402337 
L 90.679715 61.402337 
L 90.679715 60.238097 
L 91.890333 60.238097 
L 91.890333 59.295617 
L 93.10095 59.295617 
L 93.10095 58.075937 
L 94.311567 58.075937 
L 94.311567 56.634497 
L 95.522185 56.634497 
L 95.522185 55.026737 
L 96.732802 55.026737 
L 96.732802 53.917937 
L 97.94342 53.917937 
L 97.94342 52.587377 
L 99.154037 52.587377 
L 99.154037 50.979617 
L 100.364654 50.979617 
L 100.364654 49.371857 
L 101.575272 49.371857 
L 101.575272 48.263057 
L 102.785889 48.263057 
L 102.785889 47.154257 
L 103.996507 47.154257 
L 103.996507 45.546497 
L 105.207124 45.546497 
L 105.207124 44.049617 
L 106.417741 44.049617 
L 106.417741 42.608177 
L 107.628359 42.608177 
L 107.628359 41.277617 
L 108.838976 41.277617 
L 108.838976 40.335137 
L 110.049593 40.335137 
L 110.049593 38.949137 
L 111.260211 38.949137 
L 111.260211 38.172977 
L 112.470828 38.172977 
L 112.470828 37.674017 
L 113.681446 37.674017 
L 113.681446 36.953297 
L 114.892063 36.953297 
L 114.892063 36.676097 
L 116.10268 36.676097 
L 116.10268 35.789057 
L 117.313298 35.789057 
L 117.313298 34.957457 
L 118.523915 34.957457 
L 118.523915 33.460577 
L 119.734533 33.460577 
L 119.734533 32.407217 
L 120.94515 32.407217 
L 120.94515 31.575617 
L 122.155767 31.575617 
L 122.155767 30.744017 
L 123.366385 30.744017 
L 123.366385 29.358017 
L 124.577002 29.358017 
L 124.577002 27.639377 
L 125.78762 27.639377 
L 125.78762 26.364257 
L 126.998237 26.364257 
L 126.998237 25.033697 
L 128.208854 25.033697 
L 128.208854 24.091217 
L 129.419472 24.091217 
L 129.419472 23.204177 
L 130.630089 23.204177 
L 130.630089 22.483457 
L 131.840707 22.483457 
L 131.840707 21.651857 
L 133.051324 21.651857 
L 133.051324 20.598497 
L 134.261941 20.598497 
L 134.261941 19.489697 
L 135.472559 19.489697 
L 135.472559 18.270017 
L 136.683176 18.270017 
L 136.683176 17.327537 
L 137.893793 17.327537 
L 137.893793 16.052417 
L 139.104411 16.052417 
L 139.104411 15.054497 
L 140.315028 15.054497 
L 140.315028 14.389217 
L 141.525646 14.389217 
L 141.525646 13.557617 
L 142.736263 13.557617 
L 142.736263 12.726017 
L 143.94688 12.726017 
L 143.94688 11.783537 
L 145.157498 11.783537 
L 145.157498 10.619297 
L 146.368115 10.619297 
" clip-path="url(#pde36aca655)" style="fill: none; stroke: #e0b768; stroke-linecap: square"/>
   </g>
   <g id="line2d_8">
    <path d="M 87.047863 65.116817 
L 87.047863 63.675377 
L 88.25848 63.675377 
L 88.25848 62.677457 
L 89.469098 62.677457 
L 89.469098 61.125137 
L 90.679715 61.125137 
L 90.679715 60.182657 
L 91.890333 60.182657 
L 91.890333 58.962977 
L 93.10095 58.962977 
L 93.10095 58.075937 
L 94.311567 58.075937 
L 94.311567 56.634497 
L 95.522185 56.634497 
L 95.522185 55.026737 
L 96.732802 55.026737 
L 96.732802 54.028817 
L 97.94342 54.028817 
L 97.94342 53.141777 
L 99.154037 53.141777 
L 99.154037 51.977537 
L 100.364654 51.977537 
L 100.364654 50.425217 
L 101.575272 50.425217 
L 101.575272 49.150097 
L 102.785889 49.150097 
L 102.785889 48.207617 
L 103.996507 48.207617 
L 103.996507 47.043377 
L 105.207124 47.043377 
L 105.207124 45.879137 
L 106.417741 45.879137 
L 106.417741 44.714897 
L 107.628359 44.714897 
L 107.628359 43.772417 
L 108.838976 43.772417 
L 108.838976 43.107137 
L 110.049593 43.107137 
L 110.049593 41.610257 
L 111.260211 41.610257 
L 111.260211 40.612337 
L 112.470828 40.612337 
L 112.470828 39.725297 
L 113.681446 39.725297 
L 113.681446 38.394737 
L 114.892063 38.394737 
L 114.892063 37.507697 
L 116.10268 37.507697 
L 116.10268 36.676097 
L 117.313298 36.676097 
L 117.313298 35.899937 
L 118.523915 35.899937 
L 118.523915 35.234657 
L 119.734533 35.234657 
L 119.734533 34.292177 
L 120.94515 34.292177 
L 120.94515 33.405137 
L 122.155767 33.405137 
L 122.155767 31.852817 
L 123.366385 31.852817 
L 123.366385 30.411377 
L 124.577002 30.411377 
L 124.577002 28.803617 
L 125.78762 28.803617 
L 125.78762 27.694817 
L 126.998237 27.694817 
L 126.998237 26.807777 
L 128.208854 26.807777 
L 128.208854 25.477217 
L 129.419472 25.477217 
L 129.419472 24.645617 
L 130.630089 24.645617 
L 130.630089 23.536817 
L 131.840707 23.536817 
L 131.840707 22.261697 
L 133.051324 22.261697 
L 133.051324 21.263777 
L 134.261941 21.263777 
L 134.261941 20.210417 
L 135.472559 20.210417 
L 135.472559 18.768977 
L 136.683176 18.768977 
L 136.683176 17.272097 
L 137.893793 17.272097 
L 137.893793 16.440497 
L 139.104411 16.440497 
L 139.104411 15.498017 
L 140.315028 15.498017 
L 140.315028 14.389217 
L 141.525646 14.389217 
L 141.525646 13.224977 
L 142.736263 13.224977 
L 142.736263 12.504257 
L 143.94688 12.504257 
L 143.94688 11.838977 
L 145.157498 11.838977 
L 145.157498 10.619297 
L 146.368115 10.619297 
" clip-path="url(#pde36aca655)" style="fill: none; stroke: #d8a25e; stroke-linecap: square"/>
   </g>
   <g id="line2d_9">
    <path d="M 86.927772 65.449457 
L 86.927772 64.174337 
L 88.140815 64.174337 
L 88.140815 62.178497 
L 89.353859 62.178497 
L 89.353859 60.626177 
L 90.566902 60.626177 
L 90.566902 59.461937 
L 91.779946 59.461937 
L 91.779946 58.630337 
L 92.992989 58.630337 
L 92.992989 57.410657 
L 94.206033 57.410657 
L 94.206033 55.969217 
L 95.419076 55.969217 
L 95.419076 53.917937 
L 96.63212 53.917937 
L 96.63212 52.698257 
L 97.845163 52.698257 
L 97.845163 51.589457 
L 99.058207 51.589457 
L 99.058207 50.314337 
L 100.27125 50.314337 
L 100.27125 49.371857 
L 101.484293 49.371857 
L 101.484293 48.207617 
L 102.697337 48.207617 
L 102.697337 47.043377 
L 103.91038 47.043377 
L 103.91038 45.657377 
L 105.123424 45.657377 
L 105.123424 44.437697 
L 106.336467 44.437697 
L 106.336467 43.661537 
L 107.549511 43.661537 
L 107.549511 42.497297 
L 108.762554 42.497297 
L 108.762554 41.222177 
L 109.975598 41.222177 
L 109.975598 40.446017 
L 111.188641 40.446017 
L 111.188641 39.558977 
L 112.401685 39.558977 
L 112.401685 38.394737 
L 113.614728 38.394737 
L 113.614728 37.563137 
L 114.827772 37.563137 
L 114.827772 36.232577 
L 116.040815 36.232577 
L 116.040815 35.733617 
L 117.253859 35.733617 
L 117.253859 35.012897 
L 118.466902 35.012897 
L 118.466902 34.236737 
L 119.679946 34.236737 
L 119.679946 33.072497 
L 120.892989 33.072497 
L 120.892989 32.130017 
L 122.106033 32.130017 
L 122.106033 31.298417 
L 123.319076 31.298417 
L 123.319076 30.078737 
L 124.53212 30.078737 
L 124.53212 28.581857 
L 125.745163 28.581857 
L 125.745163 27.029537 
L 126.958207 27.029537 
L 126.958207 25.976177 
L 128.17125 25.976177 
L 128.17125 25.255457 
L 129.384293 25.255457 
L 129.384293 24.257537 
L 130.597337 24.257537 
L 130.597337 22.982417 
L 131.81038 22.982417 
L 131.81038 21.873617 
L 133.023424 21.873617 
L 133.023424 20.820257 
L 134.236467 20.820257 
L 134.236467 19.600577 
L 135.449511 19.600577 
L 135.449511 18.325457 
L 136.662554 18.325457 
L 136.662554 17.161217 
L 137.875598 17.161217 
L 137.875598 16.052417 
L 139.088641 16.052417 
L 139.088641 15.054497 
L 140.301685 15.054497 
L 140.301685 13.890257 
L 141.514728 13.890257 
L 141.514728 13.391297 
L 142.727772 13.391297 
L 142.727772 12.504257 
L 143.940815 12.504257 
L 143.940815 11.783537 
L 145.153859 11.783537 
L 145.153859 10.619297 
L 146.366902 10.619297 
" clip-path="url(#pde36aca655)" style="fill: none; stroke: #c68457; stroke-linecap: square"/>
   </g>
   <g id="line2d_10">
    <path d="M 86.927772 65.560337 
L 86.927772 64.340657 
L 88.140815 64.340657 
L 88.140815 62.511137 
L 89.353859 62.511137 
L 89.353859 61.069697 
L 90.566902 61.069697 
L 90.566902 59.739137 
L 91.779946 59.739137 
L 91.779946 58.242257 
L 92.992989 58.242257 
L 92.992989 57.410657 
L 94.206033 57.410657 
L 94.206033 56.190977 
L 95.419076 56.190977 
L 95.419076 54.971297 
L 96.63212 54.971297 
L 96.63212 53.030897 
L 97.845163 53.030897 
L 97.845163 51.090497 
L 99.058207 51.090497 
L 99.058207 49.981697 
L 100.27125 49.981697 
L 100.27125 49.039217 
L 101.484293 49.039217 
L 101.484293 47.431457 
L 102.697337 47.431457 
L 102.697337 46.156337 
L 103.91038 46.156337 
L 103.91038 44.992097 
L 105.123424 44.992097 
L 105.123424 43.162577 
L 106.336467 43.162577 
L 106.336467 41.388497 
L 107.549511 41.388497 
L 107.549511 40.113377 
L 108.762554 40.113377 
L 108.762554 39.392657 
L 109.975598 39.392657 
L 109.975598 38.228417 
L 111.188641 38.228417 
L 111.188641 36.953297 
L 112.401685 36.953297 
L 112.401685 35.955377 
L 113.614728 35.955377 
L 113.614728 35.068337 
L 114.827772 35.068337 
L 114.827772 34.070417 
L 116.040815 34.070417 
L 116.040815 33.405137 
L 117.253859 33.405137 
L 117.253859 32.628977 
L 118.466902 32.628977 
L 118.466902 31.076657 
L 119.679946 31.076657 
L 119.679946 30.189617 
L 120.892989 30.189617 
L 120.892989 28.859057 
L 122.106033 28.859057 
L 122.106033 27.528497 
L 123.319076 27.528497 
L 123.319076 26.087057 
L 124.53212 26.087057 
L 124.53212 25.200017 
L 125.745163 25.200017 
L 125.745163 23.924897 
L 126.958207 23.924897 
L 126.958207 23.037857 
L 128.17125 23.037857 
L 128.17125 22.317137 
L 129.384293 22.317137 
L 129.384293 21.430097 
L 130.597337 21.430097 
L 130.597337 20.709377 
L 131.81038 20.709377 
L 131.81038 19.933217 
L 133.023424 19.933217 
L 133.023424 18.935297 
L 134.236467 18.935297 
L 134.236467 17.881937 
L 135.449511 17.881937 
L 135.449511 17.272097 
L 136.662554 17.272097 
L 136.662554 16.163297 
L 137.875598 16.163297 
L 137.875598 15.276257 
L 139.088641 15.276257 
L 139.088641 14.500097 
L 140.301685 14.500097 
L 140.301685 13.779377 
L 141.514728 13.779377 
L 141.514728 13.003217 
L 142.727772 13.003217 
L 142.727772 12.448817 
L 143.940815 12.448817 
L 143.940815 11.728097 
L 145.153859 11.728097 
L 145.153859 10.619297 
L 146.366902 10.619297 
" clip-path="url(#pde36aca655)" style="fill: none; stroke: #b3664f; stroke-linecap: square"/>
   </g>
   <g id="patch_3">
    <path d="M 86.32125 66.059297 
L 86.32125 10.619297 
" style="fill: none; stroke: #000000; stroke-width: 1.5; stroke-linejoin: miter; stroke-linecap: square"/>
   </g>
   <g id="patch_4">
    <path d="M 86.32125 66.059297 
L 146.973424 66.059297 
" style="fill: none; stroke: #000000; stroke-width: 1.5; stroke-linejoin: miter; stroke-linecap: square"/>
   </g>
  </g>
  <g id="axes_2">
   <g id="patch_5">
    <path d="M 159.103859 66.059297 
L 219.756033 66.059297 
L 219.756033 10.619297 
L 159.103859 10.619297 
z
" style="fill: #ffffff"/>
   </g>
   <g id="PolyCollection_2">
    <defs>
     <path id="m2e5092b857" d="M 159.103859 -58.904392 
L 159.103859 -57.684712 
L 160.316902 -58.516312 
L 161.529946 -59.458792 
L 162.742989 -60.401272 
L 163.956033 -61.343752 
L 165.169076 -62.341672 
L 166.38212 -63.339592 
L 167.595163 -64.392952 
L 168.808207 -65.390873 
L 170.02125 -66.444232 
L 171.234293 -67.497592 
L 172.447337 -68.550952 
L 173.66038 -69.604312 
L 174.873424 -70.657672 
L 176.086467 -71.711033 
L 177.299511 -72.764392 
L 178.512554 -73.873192 
L 179.725598 -74.926552 
L 180.938641 -76.035353 
L 182.151685 -77.088712 
L 183.364728 -78.197513 
L 184.577772 -79.306312 
L 185.790815 -80.359672 
L 187.003859 -81.468472 
L 188.216902 -82.577272 
L 189.429946 -83.686072 
L 190.642989 -84.794872 
L 191.856033 -85.903672 
L 193.069076 -87.067913 
L 194.28212 -88.176713 
L 195.495163 -89.285512 
L 196.708207 -90.449752 
L 197.92125 -91.558552 
L 199.134293 -92.722792 
L 200.347337 -93.831592 
L 201.56038 -94.995833 
L 202.773424 -96.160072 
L 203.986467 -97.324312 
L 205.199511 -98.488552 
L 206.412554 -99.652793 
L 207.625598 -100.817033 
L 208.838641 -102.036712 
L 210.051685 -103.200952 
L 211.264728 -104.420632 
L 212.477772 -105.640312 
L 213.690815 -106.859993 
L 214.903859 -108.135113 
L 216.116902 -109.410233 
L 217.329946 -110.796233 
L 218.542989 -112.570312 
L 218.542989 -112.570312 
L 218.542989 -112.570312 
L 217.329946 -112.015912 
L 216.116902 -111.184313 
L 214.903859 -110.241833 
L 213.690815 -109.299352 
L 212.477772 -108.356873 
L 211.264728 -107.358953 
L 210.051685 -106.361032 
L 208.838641 -105.307672 
L 207.625598 -104.309753 
L 206.412554 -103.256393 
L 205.199511 -102.203033 
L 203.986467 -101.149673 
L 202.773424 -100.096313 
L 201.56038 -99.042952 
L 200.347337 -97.989593 
L 199.134293 -96.936232 
L 197.92125 -95.827432 
L 196.708207 -94.774073 
L 195.495163 -93.665273 
L 194.28212 -92.611913 
L 193.069076 -91.503113 
L 191.856033 -90.394312 
L 190.642989 -89.340952 
L 189.429946 -88.232152 
L 188.216902 -87.123352 
L 187.003859 -86.014552 
L 185.790815 -84.905753 
L 184.577772 -83.796953 
L 183.364728 -82.632712 
L 182.151685 -81.523912 
L 180.938641 -80.415112 
L 179.725598 -79.250872 
L 178.512554 -78.142072 
L 177.299511 -76.977832 
L 176.086467 -75.869033 
L 174.873424 -74.704792 
L 173.66038 -73.540552 
L 172.447337 -72.376312 
L 171.234293 -71.212072 
L 170.02125 -70.047832 
L 168.808207 -68.883592 
L 167.595163 -67.663912 
L 166.38212 -66.499673 
L 165.169076 -65.279992 
L 163.956033 -64.060312 
L 162.742989 -62.840632 
L 161.529946 -61.565512 
L 160.316902 -60.290392 
L 159.103859 -58.904392 
z
" style="stroke: #808080; stroke-opacity: 0.2"/>
    </defs>
    <g clip-path="url(#p9a5accc3de)">
     <use xlink:href="#m2e5092b857" x="0" y="123.189609" style="fill: #808080; fill-opacity: 0.2; stroke: #808080; stroke-opacity: 0.2"/>
    </g>
   </g>
   <g id="matplotlib.axis_3">
    <g id="xtick_3">
     <g id="line2d_11">
      <g>
       <use xlink:href="#ma6fdd9c6e5" x="159.103859" y="66.059297" style="stroke: #000000; stroke-width: 1.5"/>
      </g>
     </g>
     <g id="text_7">
      <text style="font: 9px 'Arial', sans-serif; text-anchor: middle" x="159.103859" y="79.897891" transform="rotate(-0 159.103859 79.897891)">0</text>
     </g>
    </g>
    <g id="xtick_4">
     <g id="line2d_12">
      <g>
       <use xlink:href="#ma6fdd9c6e5" x="219.756033" y="66.059297" style="stroke: #000000; stroke-width: 1.5"/>
      </g>
     </g>
     <g id="text_8">
      <text style="font: 9px 'Arial', sans-serif; text-anchor: middle" x="219.756033" y="79.897891" transform="rotate(-0 219.756033 79.897891)">1</text>
     </g>
    </g>
    <g id="text_9">
     <text style="font: 9px 'Arial', sans-serif; text-anchor: middle" x="189.429946" y="92.608203" transform="rotate(-0 189.429946 92.608203)">Exp. coverage</text>
    </g>
   </g>
   <g id="matplotlib.axis_4">
    <g id="ytick_3">
     <g id="line2d_13">
      <g>
       <use xlink:href="#m1cfbc61d7f" x="159.103859" y="66.059297" style="stroke: #000000; stroke-width: 1.5"/>
      </g>
     </g>
    </g>
    <g id="ytick_4">
     <g id="line2d_14">
      <g>
       <use xlink:href="#m1cfbc61d7f" x="159.103859" y="10.619297" style="stroke: #000000; stroke-width: 1.5"/>
      </g>
     </g>
    </g>
   </g>
   <g id="line2d_15">
    <path d="M 159.71038 65.504897 
L 159.71038 65.061377 
L 160.923424 65.061377 
L 160.923424 64.340657 
L 162.136467 64.340657 
L 162.136467 63.619937 
L 163.349511 63.619937 
L 163.349511 62.899217 
L 164.562554 62.899217 
L 164.562554 62.178497 
L 165.775598 62.178497 
L 165.775598 61.679537 
L 166.988641 61.679537 
L 166.988641 61.069697 
L 168.201685 61.069697 
L 168.201685 60.238097 
L 169.414728 60.238097 
L 169.414728 59.628257 
L 170.627772 59.628257 
L 170.627772 58.962977 
L 171.840815 58.962977 
L 171.840815 58.297697 
L 173.053859 58.297697 
L 173.053859 57.521537 
L 174.266902 57.521537 
L 174.266902 56.357297 
L 175.479946 56.357297 
L 175.479946 55.913777 
L 176.692989 55.913777 
L 176.692989 54.472337 
L 177.906033 54.472337 
L 177.906033 53.696177 
L 179.119076 53.696177 
L 179.119076 52.531937 
L 180.33212 52.531937 
L 180.33212 51.644897 
L 181.545163 51.644897 
L 181.545163 50.813297 
L 182.758207 50.813297 
L 182.758207 49.593617 
L 183.97125 49.593617 
L 183.97125 48.817457 
L 185.184293 48.817457 
L 185.184293 47.985857 
L 186.397337 47.985857 
L 186.397337 46.877057 
L 187.61038 46.877057 
L 187.61038 46.322657 
L 188.823424 46.322657 
L 188.823424 45.601937 
L 190.036467 45.601937 
L 190.036467 44.604017 
L 191.249511 44.604017 
L 191.249511 43.439777 
L 192.462554 43.439777 
L 192.462554 42.164657 
L 193.675598 42.164657 
L 193.675598 40.944977 
L 194.888641 40.944977 
L 194.888641 39.891617 
L 196.101685 39.891617 
L 196.101685 38.893697 
L 197.314728 38.893697 
L 197.314728 37.784897 
L 198.527772 37.784897 
L 198.527772 36.066257 
L 199.740815 36.066257 
L 199.740815 35.290097 
L 200.953859 35.290097 
L 200.953859 34.181297 
L 202.166902 34.181297 
L 202.166902 33.294257 
L 203.379946 33.294257 
L 203.379946 32.240897 
L 204.592989 32.240897 
L 204.592989 31.187537 
L 205.806033 31.187537 
L 205.806033 30.078737 
L 207.019076 30.078737 
L 207.019076 28.581857 
L 208.23212 28.581857 
L 208.23212 27.140417 
L 209.445163 27.140417 
L 209.445163 26.253377 
L 210.658207 26.253377 
L 210.658207 24.978257 
L 211.87125 24.978257 
L 211.87125 23.204177 
L 213.084293 23.204177 
L 213.084293 21.208337 
L 214.297337 21.208337 
L 214.297337 19.656017 
L 215.51038 19.656017 
L 215.51038 17.660177 
L 216.723424 17.660177 
L 216.723424 14.888177 
L 217.936467 14.888177 
L 217.936467 10.619297 
L 219.149511 10.619297 
" clip-path="url(#p9a5accc3de)" style="fill: none; stroke: #eedf7a; stroke-linecap: square"/>
   </g>
   <g id="line2d_16">
    <path d="M 159.71038 63.952577 
L 159.71038 61.734977 
L 160.923424 61.734977 
L 160.923424 59.794577 
L 162.136467 59.794577 
L 162.136467 58.353137 
L 163.349511 58.353137 
L 163.349511 56.579057 
L 164.562554 56.579057 
L 164.562554 55.359377 
L 165.775598 55.359377 
L 165.775598 54.084257 
L 166.988641 54.084257 
L 166.988641 52.531937 
L 168.201685 52.531937 
L 168.201685 51.201377 
L 169.414728 51.201377 
L 169.414728 50.037137 
L 170.627772 50.037137 
L 170.627772 49.039217 
L 171.840815 49.039217 
L 171.840815 48.041297 
L 173.053859 48.041297 
L 173.053859 46.821617 
L 174.266902 46.821617 
L 174.266902 45.435617 
L 175.479946 45.435617 
L 175.479946 44.271377 
L 176.692989 44.271377 
L 176.692989 42.774497 
L 177.906033 42.774497 
L 177.906033 42.164657 
L 179.119076 42.164657 
L 179.119076 40.834097 
L 180.33212 40.834097 
L 180.33212 39.891617 
L 181.545163 39.891617 
L 181.545163 38.671937 
L 182.758207 38.671937 
L 182.758207 37.674017 
L 183.97125 37.674017 
L 183.97125 36.731537 
L 185.184293 36.731537 
L 185.184293 35.622737 
L 186.397337 35.622737 
L 186.397337 35.123777 
L 187.61038 35.123777 
L 187.61038 34.236737 
L 188.823424 34.236737 
L 188.823424 32.739857 
L 190.036467 32.739857 
L 190.036467 31.464737 
L 191.249511 31.464737 
L 191.249511 30.522257 
L 192.462554 30.522257 
L 192.462554 29.468897 
L 193.675598 29.468897 
L 193.675598 28.969937 
L 194.888641 28.969937 
L 194.888641 27.861137 
L 196.101685 27.861137 
L 196.101685 26.752337 
L 197.314728 26.752337 
L 197.314728 25.865297 
L 198.527772 25.865297 
L 198.527772 25.144577 
L 199.740815 25.144577 
L 199.740815 24.312977 
L 200.953859 24.312977 
L 200.953859 23.259617 
L 202.166902 23.259617 
L 202.166902 22.871537 
L 203.379946 22.871537 
L 203.379946 22.150817 
L 204.592989 22.150817 
L 204.592989 20.986577 
L 205.806033 20.986577 
L 205.806033 19.933217 
L 207.019076 19.933217 
L 207.019076 19.323377 
L 208.23212 19.323377 
L 208.23212 18.491777 
L 209.445163 18.491777 
L 209.445163 17.771057 
L 210.658207 17.771057 
L 210.658207 16.329617 
L 211.87125 16.329617 
L 211.87125 15.165377 
L 213.084293 15.165377 
L 213.084293 14.610977 
L 214.297337 14.610977 
L 214.297337 13.224977 
L 215.51038 13.224977 
L 215.51038 12.171617 
L 216.723424 12.171617 
L 216.723424 11.340017 
L 217.936467 11.340017 
L 217.936467 10.619297 
L 219.149511 10.619297 
" clip-path="url(#p9a5accc3de)" style="fill: none; stroke: #e7cb71; stroke-linecap: square"/>
   </g>
   <g id="line2d_17">
    <path d="M 159.71038 65.394017 
L 159.71038 64.895057 
L 160.923424 64.895057 
L 160.923424 64.063457 
L 162.136467 64.063457 
L 162.136467 63.619937 
L 163.349511 63.619937 
L 163.349511 62.899217 
L 164.562554 62.899217 
L 164.562554 61.901297 
L 165.775598 61.901297 
L 165.775598 60.903377 
L 166.988641 60.903377 
L 166.988641 59.850017 
L 168.201685 59.850017 
L 168.201685 59.073857 
L 169.414728 59.073857 
L 169.414728 58.574897 
L 170.627772 58.574897 
L 170.627772 57.632417 
L 171.840815 57.632417 
L 171.840815 56.523617 
L 173.053859 56.523617 
L 173.053859 55.747457 
L 174.266902 55.747457 
L 174.266902 54.749537 
L 175.479946 54.749537 
L 175.479946 53.807057 
L 176.692989 53.807057 
L 176.692989 53.197217 
L 177.906033 53.197217 
L 177.906033 52.199297 
L 179.119076 52.199297 
L 179.119076 51.035057 
L 180.33212 51.035057 
L 180.33212 49.981697 
L 181.545163 49.981697 
L 181.545163 48.762017 
L 182.758207 48.762017 
L 182.758207 47.708657 
L 183.97125 47.708657 
L 183.97125 46.932497 
L 185.184293 46.932497 
L 185.184293 46.045457 
L 186.397337 46.045457 
L 186.397337 45.158417 
L 187.61038 45.158417 
L 187.61038 43.827857 
L 188.823424 43.827857 
L 188.823424 42.885377 
L 190.036467 42.885377 
L 190.036467 42.053777 
L 191.249511 42.053777 
L 191.249511 41.111297 
L 192.462554 41.111297 
L 192.462554 40.057937 
L 193.675598 40.057937 
L 193.675598 39.558977 
L 194.888641 39.558977 
L 194.888641 38.727377 
L 196.101685 38.727377 
L 196.101685 37.674017 
L 197.314728 37.674017 
L 197.314728 36.786977 
L 198.527772 36.786977 
L 198.527772 35.733617 
L 199.740815 35.733617 
L 199.740815 34.902017 
L 200.953859 34.902017 
L 200.953859 33.848657 
L 202.166902 33.848657 
L 202.166902 32.407217 
L 203.379946 32.407217 
L 203.379946 31.132097 
L 204.592989 31.132097 
L 204.592989 29.801537 
L 205.806033 29.801537 
L 205.806033 28.637297 
L 207.019076 28.637297 
L 207.019076 27.417617 
L 208.23212 27.417617 
L 208.23212 26.197937 
L 209.445163 26.197937 
L 209.445163 24.756497 
L 210.658207 24.756497 
L 210.658207 23.315057 
L 211.87125 23.315057 
L 211.87125 21.873617 
L 213.084293 21.873617 
L 213.084293 19.766897 
L 214.297337 19.766897 
L 214.297337 17.272097 
L 215.51038 17.272097 
L 215.51038 14.666417 
L 216.723424 14.666417 
L 216.723424 12.781457 
L 217.936467 12.781457 
L 217.936467 10.619297 
L 219.149511 10.619297 
" clip-path="url(#p9a5accc3de)" style="fill: none; stroke: #e0b768; stroke-linecap: square"/>
   </g>
   <g id="line2d_18">
    <path d="M 159.71038 65.560337 
L 159.71038 64.784177 
L 160.923424 64.784177 
L 160.923424 64.063457 
L 162.136467 64.063457 
L 162.136467 63.675377 
L 163.349511 63.675377 
L 163.349511 63.176417 
L 164.562554 63.176417 
L 164.562554 62.622017 
L 165.775598 62.622017 
L 165.775598 62.067617 
L 166.988641 62.067617 
L 166.988641 61.513217 
L 168.201685 61.513217 
L 168.201685 60.626177 
L 169.414728 60.626177 
L 169.414728 60.071777 
L 170.627772 60.071777 
L 170.627772 59.517377 
L 171.840815 59.517377 
L 171.840815 58.907537 
L 173.053859 58.907537 
L 173.053859 58.242257 
L 174.266902 58.242257 
L 174.266902 57.576977 
L 175.479946 57.576977 
L 175.479946 56.745377 
L 176.692989 56.745377 
L 176.692989 56.135537 
L 177.906033 56.135537 
L 177.906033 55.581137 
L 179.119076 55.581137 
L 179.119076 54.583217 
L 180.33212 54.583217 
L 180.33212 53.418977 
L 181.545163 53.418977 
L 181.545163 52.254737 
L 182.758207 52.254737 
L 182.758207 51.423137 
L 183.97125 51.423137 
L 183.97125 50.646977 
L 185.184293 50.646977 
L 185.184293 49.704497 
L 186.397337 49.704497 
L 186.397337 48.928337 
L 187.61038 48.928337 
L 187.61038 48.263057 
L 188.823424 48.263057 
L 188.823424 47.764097 
L 190.036467 47.764097 
L 190.036467 46.655297 
L 191.249511 46.655297 
L 191.249511 45.712817 
L 192.462554 45.712817 
L 192.462554 44.825777 
L 193.675598 44.825777 
L 193.675598 43.328897 
L 194.888641 43.328897 
L 194.888641 42.497297 
L 196.101685 42.497297 
L 196.101685 41.166737 
L 197.314728 41.166737 
L 197.314728 40.002497 
L 198.527772 40.002497 
L 198.527772 38.782817 
L 199.740815 38.782817 
L 199.740815 38.006657 
L 200.953859 38.006657 
L 200.953859 37.008737 
L 202.166902 37.008737 
L 202.166902 36.232577 
L 203.379946 36.232577 
L 203.379946 35.511857 
L 204.592989 35.511857 
L 204.592989 34.181297 
L 205.806033 34.181297 
L 205.806033 33.238817 
L 207.019076 33.238817 
L 207.019076 31.797377 
L 208.23212 31.797377 
L 208.23212 29.856977 
L 209.445163 29.856977 
L 209.445163 28.803617 
L 210.658207 28.803617 
L 210.658207 27.195857 
L 211.87125 27.195857 
L 211.87125 24.978257 
L 213.084293 24.978257 
L 213.084293 23.481377 
L 214.297337 23.481377 
L 214.297337 21.263777 
L 215.51038 21.263777 
L 215.51038 18.990737 
L 216.723424 18.990737 
L 216.723424 15.719777 
L 217.936467 15.719777 
L 217.936467 10.619297 
L 219.149511 10.619297 
" clip-path="url(#p9a5accc3de)" style="fill: none; stroke: #d8a25e; stroke-linecap: square"/>
   </g>
   <g id="line2d_19">
    <path d="M 159.830472 65.726657 
L 159.830472 65.283137 
L 161.041089 65.283137 
L 161.041089 64.673297 
L 162.251707 64.673297 
L 162.251707 64.340657 
L 163.462324 64.340657 
L 163.462324 64.063457 
L 164.672941 64.063457 
L 164.672941 63.619937 
L 165.883559 63.619937 
L 165.883559 63.176417 
L 167.094176 63.176417 
L 167.094176 62.289377 
L 168.304793 62.289377 
L 168.304793 61.624097 
L 169.515411 61.624097 
L 169.515411 60.792497 
L 170.726028 60.792497 
L 170.726028 60.182657 
L 171.936646 60.182657 
L 171.936646 59.628257 
L 173.147263 59.628257 
L 173.147263 58.796657 
L 174.35788 58.796657 
L 174.35788 58.075937 
L 175.568498 58.075937 
L 175.568498 57.410657 
L 176.779115 57.410657 
L 176.779115 56.856257 
L 177.989733 56.856257 
L 177.989733 56.357297 
L 179.20035 56.357297 
L 179.20035 55.303937 
L 180.410967 55.303937 
L 180.410967 54.472337 
L 181.621585 54.472337 
L 181.621585 53.585297 
L 182.832202 53.585297 
L 182.832202 52.587377 
L 184.04282 52.587377 
L 184.04282 51.700337 
L 185.253437 51.700337 
L 185.253437 50.979617 
L 186.464054 50.979617 
L 186.464054 49.926257 
L 187.674672 49.926257 
L 187.674672 48.651137 
L 188.885289 48.651137 
L 188.885289 47.819537 
L 190.095907 47.819537 
L 190.095907 46.821617 
L 191.306524 46.821617 
L 191.306524 46.045457 
L 192.517141 46.045457 
L 192.517141 44.992097 
L 193.727759 44.992097 
L 193.727759 43.994177 
L 194.938376 43.994177 
L 194.938376 42.996257 
L 196.148993 42.996257 
L 196.148993 42.164657 
L 197.359611 42.164657 
L 197.359611 40.612337 
L 198.570228 40.612337 
L 198.570228 39.558977 
L 199.780846 39.558977 
L 199.780846 38.339297 
L 200.991463 38.339297 
L 200.991463 37.452257 
L 202.20208 37.452257 
L 202.20208 35.844497 
L 203.412698 35.844497 
L 203.412698 34.735697 
L 204.623315 34.735697 
L 204.623315 33.072497 
L 205.833933 33.072497 
L 205.833933 32.407217 
L 207.04455 32.407217 
L 207.04455 30.854897 
L 208.255167 30.854897 
L 208.255167 29.247137 
L 209.465785 29.247137 
L 209.465785 28.249217 
L 210.676402 28.249217 
L 210.676402 26.364257 
L 211.88702 26.364257 
L 211.88702 24.645617 
L 213.097637 24.645617 
L 213.097637 22.649777 
L 214.308254 22.649777 
L 214.308254 20.099537 
L 215.518872 20.099537 
L 215.518872 18.380897 
L 216.729489 18.380897 
L 216.729489 15.664337 
L 217.940107 15.664337 
L 217.940107 10.619297 
L 219.150724 10.619297 
" clip-path="url(#p9a5accc3de)" style="fill: none; stroke: #c68457; stroke-linecap: square"/>
   </g>
   <g id="line2d_20">
    <path d="M 159.950563 65.283137 
L 159.950563 65.005937 
L 161.158754 65.005937 
L 161.158754 64.617857 
L 162.366946 64.617857 
L 162.366946 64.118897 
L 163.575137 64.118897 
L 163.575137 63.786257 
L 164.783328 63.786257 
L 164.783328 63.564497 
L 165.99152 63.564497 
L 165.99152 63.120977 
L 167.199711 63.120977 
L 167.199711 62.788337 
L 168.407902 62.788337 
L 168.407902 62.400257 
L 169.616093 62.400257 
L 169.616093 61.901297 
L 170.824285 61.901297 
L 170.824285 61.402337 
L 172.032476 61.402337 
L 172.032476 61.125137 
L 173.240667 61.125137 
L 173.240667 60.792497 
L 174.448859 60.792497 
L 174.448859 60.348977 
L 175.65705 60.348977 
L 175.65705 60.127217 
L 176.865241 60.127217 
L 176.865241 59.517377 
L 178.073433 59.517377 
L 178.073433 58.962977 
L 179.281624 58.962977 
L 179.281624 58.131377 
L 180.489815 58.131377 
L 180.489815 57.521537 
L 181.698007 57.521537 
L 181.698007 56.689937 
L 182.906198 56.689937 
L 182.906198 55.858337 
L 184.114389 55.858337 
L 184.114389 54.971297 
L 185.32258 54.971297 
L 185.32258 54.361457 
L 186.530772 54.361457 
L 186.530772 53.807057 
L 187.738963 53.807057 
L 187.738963 53.252657 
L 188.947154 53.252657 
L 188.947154 52.809137 
L 190.155346 52.809137 
L 190.155346 52.310177 
L 191.363537 52.310177 
L 191.363537 51.755777 
L 192.571728 51.755777 
L 192.571728 50.924177 
L 193.77992 50.924177 
L 193.77992 50.148017 
L 194.988111 50.148017 
L 194.988111 49.593617 
L 196.196302 49.593617 
L 196.196302 48.817457 
L 197.404493 48.817457 
L 197.404493 48.152177 
L 198.612685 48.152177 
L 198.612685 47.320577 
L 199.820876 47.320577 
L 199.820876 46.211777 
L 201.029067 46.211777 
L 201.029067 45.546497 
L 202.237259 45.546497 
L 202.237259 44.604017 
L 203.44545 44.604017 
L 203.44545 43.328897 
L 204.653641 43.328897 
L 204.653641 42.109217 
L 205.861833 42.109217 
L 205.861833 41.277617 
L 207.070024 41.277617 
L 207.070024 39.891617 
L 208.278215 39.891617 
L 208.278215 38.949137 
L 209.486407 38.949137 
L 209.486407 38.172977 
L 210.694598 38.172977 
L 210.694598 36.842417 
L 211.902789 36.842417 
L 211.902789 35.789057 
L 213.11098 35.789057 
L 213.11098 33.793217 
L 214.319172 33.793217 
L 214.319172 31.242977 
L 215.527363 31.242977 
L 215.527363 28.415537 
L 216.735554 28.415537 
L 216.735554 24.534737 
L 217.943746 24.534737 
L 217.943746 10.619297 
L 219.151937 10.619297 
" clip-path="url(#p9a5accc3de)" style="fill: none; stroke: #b3664f; stroke-linecap: square"/>
   </g>
   <g id="patch_6">
    <path d="M 159.103859 66.059297 
L 159.103859 10.619297 
" style="fill: none; stroke: #000000; stroke-width: 1.5; stroke-linejoin: miter; stroke-linecap: square"/>
   </g>
   <g id="patch_7">
    <path d="M 159.103859 66.059297 
L 219.756033 66.059297 
" style="fill: none; stroke: #000000; stroke-width: 1.5; stroke-linejoin: miter; stroke-linecap: square"/>
   </g>
  </g>
  <g id="axes_3">
   <g id="patch_8">
    <path d="M 231.886467 66.059297 
L 292.538641 66.059297 
L 292.538641 10.619297 
L 231.886467 10.619297 
z
" style="fill: #ffffff"/>
   </g>
   <g id="PolyCollection_3">
    <defs>
     <path id="m459fa13111" d="M 231.886467 -58.904392 
L 231.886467 -57.684712 
L 233.099511 -58.516312 
L 234.312554 -59.458792 
L 235.525598 -60.401272 
L 236.738641 -61.343752 
L 237.951685 -62.341672 
L 239.164728 -63.339592 
L 240.377772 -64.392952 
L 241.590815 -65.390873 
L 242.803859 -66.444232 
L 244.016902 -67.497592 
L 245.229946 -68.550952 
L 246.442989 -69.604312 
L 247.656033 -70.657672 
L 248.869076 -71.711033 
L 250.08212 -72.764392 
L 251.295163 -73.873192 
L 252.508207 -74.926552 
L 253.72125 -76.035353 
L 254.934293 -77.088712 
L 256.147337 -78.197513 
L 257.36038 -79.306312 
L 258.573424 -80.359672 
L 259.786467 -81.468472 
L 260.999511 -82.577272 
L 262.212554 -83.686072 
L 263.425598 -84.794872 
L 264.638641 -85.903672 
L 265.851685 -87.067913 
L 267.064728 -88.176713 
L 268.277772 -89.285512 
L 269.490815 -90.449752 
L 270.703859 -91.558552 
L 271.916902 -92.722792 
L 273.129946 -93.831592 
L 274.342989 -94.995833 
L 275.556033 -96.160072 
L 276.769076 -97.324312 
L 277.98212 -98.488552 
L 279.195163 -99.652793 
L 280.408207 -100.817033 
L 281.62125 -102.036712 
L 282.834293 -103.200952 
L 284.047337 -104.420632 
L 285.26038 -105.640312 
L 286.473424 -106.859993 
L 287.686467 -108.135113 
L 288.899511 -109.410233 
L 290.112554 -110.796233 
L 291.325598 -112.570312 
L 291.325598 -112.570312 
L 291.325598 -112.570312 
L 290.112554 -112.015912 
L 288.899511 -111.184313 
L 287.686467 -110.241833 
L 286.473424 -109.299352 
L 285.26038 -108.356873 
L 284.047337 -107.358953 
L 282.834293 -106.361032 
L 281.62125 -105.307672 
L 280.408207 -104.309753 
L 279.195163 -103.256393 
L 277.98212 -102.203033 
L 276.769076 -101.149673 
L 275.556033 -100.096313 
L 274.342989 -99.042952 
L 273.129946 -97.989593 
L 271.916902 -96.936232 
L 270.703859 -95.827432 
L 269.490815 -94.774073 
L 268.277772 -93.665273 
L 267.064728 -92.611913 
L 265.851685 -91.503113 
L 264.638641 -90.394312 
L 263.425598 -89.340952 
L 262.212554 -88.232152 
L 260.999511 -87.123352 
L 259.786467 -86.014552 
L 258.573424 -84.905753 
L 257.36038 -83.796953 
L 256.147337 -82.632712 
L 254.934293 -81.523912 
L 253.72125 -80.415112 
L 252.508207 -79.250872 
L 251.295163 -78.142072 
L 250.08212 -76.977832 
L 248.869076 -75.869033 
L 247.656033 -74.704792 
L 246.442989 -73.540552 
L 245.229946 -72.376312 
L 244.016902 -71.212072 
L 242.803859 -70.047832 
L 241.590815 -68.883592 
L 240.377772 -67.663912 
L 239.164728 -66.499673 
L 237.951685 -65.279992 
L 236.738641 -64.060312 
L 235.525598 -62.840632 
L 234.312554 -61.565512 
L 233.099511 -60.290392 
L 231.886467 -58.904392 
z
" style="stroke: #808080; stroke-opacity: 0.2"/>
    </defs>
    <g clip-path="url(#p44b2f4e57a)">
     <use xlink:href="#m459fa13111" x="0" y="123.189609" style="fill: #808080; fill-opacity: 0.2; stroke: #808080; stroke-opacity: 0.2"/>
    </g>
   </g>
   <g id="matplotlib.axis_5">
    <g id="xtick_5">
     <g id="line2d_21">
      <g>
       <use xlink:href="#ma6fdd9c6e5" x="231.886467" y="66.059297" style="stroke: #000000; stroke-width: 1.5"/>
      </g>
     </g>
     <g id="text_10">
      <text style="font: 9px 'Arial', sans-serif; text-anchor: middle" x="231.886467" y="79.897891" transform="rotate(-0 231.886467 79.897891)">0</text>
     </g>
    </g>
    <g id="xtick_6">
     <g id="line2d_22">
      <g>
       <use xlink:href="#ma6fdd9c6e5" x="292.538641" y="66.059297" style="stroke: #000000; stroke-width: 1.5"/>
      </g>
     </g>
     <g id="text_11">
      <text style="font: 9px 'Arial', sans-serif; text-anchor: middle" x="292.538641" y="79.897891" transform="rotate(-0 292.538641 79.897891)">1</text>
     </g>
    </g>
    <g id="text_12">
     <text style="font: 9px 'Arial', sans-serif; text-anchor: middle" x="262.212554" y="92.608203" transform="rotate(-0 262.212554 92.608203)">Exp. coverage</text>
    </g>
   </g>
   <g id="matplotlib.axis_6"/>
   <g id="line2d_23">
    <path d="M 232.492989 63.231857 
L 232.492989 60.681617 
L 233.706033 60.681617 
L 233.706033 58.297697 
L 234.919076 58.297697 
L 234.919076 56.468177 
L 236.13212 56.468177 
L 236.13212 53.973377 
L 237.345163 53.973377 
L 237.345163 52.365617 
L 238.558207 52.365617 
L 238.558207 50.646977 
L 239.77125 50.646977 
L 239.77125 48.540257 
L 240.984293 48.540257 
L 240.984293 46.710737 
L 242.197337 46.710737 
L 242.197337 44.659457 
L 243.41038 44.659457 
L 243.41038 43.107137 
L 244.623424 43.107137 
L 244.623424 41.166737 
L 245.836467 41.166737 
L 245.836467 39.891617 
L 247.049511 39.891617 
L 247.049511 37.951217 
L 248.262554 37.951217 
L 248.262554 36.953297 
L 249.475598 36.953297 
L 249.475598 35.400977 
L 250.688641 35.400977 
L 250.688641 34.292177 
L 251.901685 34.292177 
L 251.901685 33.626897 
L 253.114728 33.626897 
L 253.114728 32.130017 
L 254.327772 32.130017 
L 254.327772 31.076657 
L 255.540815 31.076657 
L 255.540815 29.690657 
L 256.753859 29.690657 
L 256.753859 27.972017 
L 257.966902 27.972017 
L 257.966902 26.863217 
L 259.179946 26.863217 
L 259.179946 25.809857 
L 260.392989 25.809857 
L 260.392989 24.811937 
L 261.606033 24.811937 
L 261.606033 24.312977 
L 262.819076 24.312977 
L 262.819076 23.592257 
L 264.03212 23.592257 
L 264.03212 23.204177 
L 265.245163 23.204177 
L 265.245163 22.317137 
L 266.458207 22.317137 
L 266.458207 21.485537 
L 267.67125 21.485537 
L 267.67125 20.820257 
L 268.884293 20.820257 
L 268.884293 20.044097 
L 270.097337 20.044097 
L 270.097337 19.378817 
L 271.31038 19.378817 
L 271.31038 19.157057 
L 272.523424 19.157057 
L 272.523424 18.602657 
L 273.736467 18.602657 
L 273.736467 17.771057 
L 274.949511 17.771057 
L 274.949511 16.939457 
L 276.162554 16.939457 
L 276.162554 16.107857 
L 277.375598 16.107857 
L 277.375598 15.442577 
L 278.588641 15.442577 
L 278.588641 14.999057 
L 279.801685 14.999057 
L 279.801685 14.444657 
L 281.014728 14.444657 
L 281.014728 14.056577 
L 282.227772 14.056577 
L 282.227772 13.668497 
L 283.440815 13.668497 
L 283.440815 13.446737 
L 284.653859 13.446737 
L 284.653859 13.224977 
L 285.866902 13.224977 
L 285.866902 12.670577 
L 287.079946 12.670577 
L 287.079946 11.894417 
L 288.292989 11.894417 
L 288.292989 11.506337 
L 289.506033 11.506337 
L 289.506033 10.951937 
L 290.719076 10.951937 
L 290.719076 10.619297 
L 291.93212 10.619297 
" clip-path="url(#p44b2f4e57a)" style="fill: none; stroke: #eedf7a; stroke-linecap: square"/>
   </g>
   <g id="line2d_24">
    <path d="M 232.492989 65.504897 
L 232.492989 64.617857 
L 233.706033 64.617857 
L 233.706033 64.008017 
L 234.919076 64.008017 
L 234.919076 63.398177 
L 236.13212 63.398177 
L 236.13212 62.843777 
L 237.345163 62.843777 
L 237.345163 62.233937 
L 238.558207 62.233937 
L 238.558207 61.236017 
L 239.77125 61.236017 
L 239.77125 60.238097 
L 240.984293 60.238097 
L 240.984293 59.129297 
L 242.197337 59.129297 
L 242.197337 58.242257 
L 243.41038 58.242257 
L 243.41038 57.355217 
L 244.623424 57.355217 
L 244.623424 56.579057 
L 245.836467 56.579057 
L 245.836467 55.858337 
L 247.049511 55.858337 
L 247.049511 55.248497 
L 248.262554 55.248497 
L 248.262554 54.139697 
L 249.475598 54.139697 
L 249.475598 52.864577 
L 250.688641 52.864577 
L 250.688641 52.199297 
L 251.901685 52.199297 
L 251.901685 50.868737 
L 253.114728 50.868737 
L 253.114728 49.593617 
L 254.327772 49.593617 
L 254.327772 48.595697 
L 255.540815 48.595697 
L 255.540815 47.597777 
L 256.753859 47.597777 
L 256.753859 46.045457 
L 257.966902 46.045457 
L 257.966902 44.881217 
L 259.179946 44.881217 
L 259.179946 43.439777 
L 260.392989 43.439777 
L 260.392989 41.832017 
L 261.606033 41.832017 
L 261.606033 40.390577 
L 262.819076 40.390577 
L 262.819076 38.949137 
L 264.03212 38.949137 
L 264.03212 37.563137 
L 265.245163 37.563137 
L 265.245163 36.288017 
L 266.458207 36.288017 
L 266.458207 34.957457 
L 267.67125 34.957457 
L 267.67125 33.072497 
L 268.884293 33.072497 
L 268.884293 31.963697 
L 270.097337 31.963697 
L 270.097337 30.744017 
L 271.31038 30.744017 
L 271.31038 29.413457 
L 272.523424 29.413457 
L 272.523424 27.750257 
L 273.736467 27.750257 
L 273.736467 26.419697 
L 274.949511 26.419697 
L 274.949511 25.200017 
L 276.162554 25.200017 
L 276.162554 24.534737 
L 277.375598 24.534737 
L 277.375598 23.148737 
L 278.588641 23.148737 
L 278.588641 21.152897 
L 279.801685 21.152897 
L 279.801685 20.487617 
L 281.014728 20.487617 
L 281.014728 19.434257 
L 282.227772 19.434257 
L 282.227772 17.937377 
L 283.440815 17.937377 
L 283.440815 16.551377 
L 284.653859 16.551377 
L 284.653859 14.943617 
L 285.866902 14.943617 
L 285.866902 14.001137 
L 287.079946 14.001137 
L 287.079946 13.613057 
L 288.292989 13.613057 
L 288.292989 12.615137 
L 289.506033 12.615137 
L 289.506033 11.450897 
L 290.719076 11.450897 
L 290.719076 10.619297 
L 291.93212 10.619297 
" clip-path="url(#p44b2f4e57a)" style="fill: none; stroke: #e7cb71; stroke-linecap: square"/>
   </g>
   <g id="line2d_25">
    <path d="M 232.733172 65.005937 
L 232.733172 64.063457 
L 233.941363 64.063457 
L 233.941363 63.287297 
L 235.149554 63.287297 
L 235.149554 62.123057 
L 236.357746 62.123057 
L 236.357746 61.125137 
L 237.565937 61.125137 
L 237.565937 60.071777 
L 238.774128 60.071777 
L 238.774128 59.184737 
L 239.98232 59.184737 
L 239.98232 58.297697 
L 241.190511 58.297697 
L 241.190511 57.355217 
L 242.398702 57.355217 
L 242.398702 56.301857 
L 243.606893 56.301857 
L 243.606893 55.026737 
L 244.815085 55.026737 
L 244.815085 54.028817 
L 246.023276 54.028817 
L 246.023276 53.197217 
L 247.231467 53.197217 
L 247.231467 52.310177 
L 248.439659 52.310177 
L 248.439659 51.201377 
L 249.64785 51.201377 
L 249.64785 50.480657 
L 250.856041 50.480657 
L 250.856041 49.371857 
L 252.064233 49.371857 
L 252.064233 47.542337 
L 253.272424 47.542337 
L 253.272424 46.211777 
L 254.480615 46.211777 
L 254.480615 45.324737 
L 255.688807 45.324737 
L 255.688807 43.994177 
L 256.896998 43.994177 
L 256.896998 42.663617 
L 258.105189 42.663617 
L 258.105189 41.388497 
L 259.31338 41.388497 
L 259.31338 40.113377 
L 260.521572 40.113377 
L 260.521572 38.838257 
L 261.729763 38.838257 
L 261.729763 37.341377 
L 262.937954 37.341377 
L 262.937954 36.066257 
L 264.146146 36.066257 
L 264.146146 34.735697 
L 265.354337 34.735697 
L 265.354337 33.571457 
L 266.562528 33.571457 
L 266.562528 32.518097 
L 267.77072 32.518097 
L 267.77072 31.464737 
L 268.978911 31.464737 
L 268.978911 30.189617 
L 270.187102 30.189617 
L 270.187102 29.191697 
L 271.395293 29.191697 
L 271.395293 28.304657 
L 272.603485 28.304657 
L 272.603485 27.362177 
L 273.811676 27.362177 
L 273.811676 26.475137 
L 275.019867 26.475137 
L 275.019867 24.867377 
L 276.228059 24.867377 
L 276.228059 24.368417 
L 277.43625 24.368417 
L 277.43625 23.259617 
L 278.644441 23.259617 
L 278.644441 22.039937 
L 279.852633 22.039937 
L 279.852633 21.152897 
L 281.060824 21.152897 
L 281.060824 19.656017 
L 282.269015 19.656017 
L 282.269015 18.658097 
L 283.477207 18.658097 
L 283.477207 17.272097 
L 284.685398 17.272097 
L 284.685398 15.941537 
L 285.893589 15.941537 
L 285.893589 15.165377 
L 287.10178 15.165377 
L 287.10178 13.945697 
L 288.309972 13.945697 
L 288.309972 12.559697 
L 289.518163 12.559697 
L 289.518163 11.617217 
L 290.726354 11.617217 
L 290.726354 10.619297 
L 291.934546 10.619297 
" clip-path="url(#p44b2f4e57a)" style="fill: none; stroke: #e0b768; stroke-linecap: square"/>
   </g>
   <g id="line2d_26">
    <path d="M 232.492989 63.952577 
L 232.492989 61.901297 
L 233.706033 61.901297 
L 233.706033 59.960897 
L 234.919076 59.960897 
L 234.919076 57.687857 
L 236.13212 57.687857 
L 236.13212 56.080097 
L 237.345163 56.080097 
L 237.345163 54.749537 
L 238.558207 54.749537 
L 238.558207 53.363537 
L 239.77125 53.363537 
L 239.77125 52.254737 
L 240.984293 52.254737 
L 240.984293 51.145937 
L 242.197337 51.145937 
L 242.197337 49.926257 
L 243.41038 49.926257 
L 243.41038 49.094657 
L 244.623424 49.094657 
L 244.623424 48.041297 
L 245.836467 48.041297 
L 245.836467 47.265137 
L 247.049511 47.265137 
L 247.049511 46.100897 
L 248.262554 46.100897 
L 248.262554 44.548577 
L 249.475598 44.548577 
L 249.475598 43.606097 
L 250.688641 43.606097 
L 250.688641 42.053777 
L 251.901685 42.053777 
L 251.901685 41.277617 
L 253.114728 41.277617 
L 253.114728 39.614417 
L 254.327772 39.614417 
L 254.327772 38.616497 
L 255.540815 38.616497 
L 255.540815 37.674017 
L 256.753859 37.674017 
L 256.753859 36.731537 
L 257.966902 36.731537 
L 257.966902 35.899937 
L 259.179946 35.899937 
L 259.179946 35.179217 
L 260.392989 35.179217 
L 260.392989 34.292177 
L 261.606033 34.292177 
L 261.606033 33.127937 
L 262.819076 33.127937 
L 262.819076 31.797377 
L 264.03212 31.797377 
L 264.03212 30.744017 
L 265.245163 30.744017 
L 265.245163 29.302577 
L 266.458207 29.302577 
L 266.458207 28.193777 
L 267.67125 28.193777 
L 267.67125 27.417617 
L 268.884293 27.417617 
L 268.884293 26.807777 
L 270.097337 26.807777 
L 270.097337 25.976177 
L 271.31038 25.976177 
L 271.31038 24.922817 
L 272.523424 24.922817 
L 272.523424 23.592257 
L 273.736467 23.592257 
L 273.736467 22.649777 
L 274.949511 22.649777 
L 274.949511 21.540977 
L 276.162554 21.540977 
L 276.162554 20.875697 
L 277.375598 20.875697 
L 277.375598 20.487617 
L 278.588641 20.487617 
L 278.588641 19.378817 
L 279.801685 19.378817 
L 279.801685 18.491777 
L 281.014728 18.491777 
L 281.014728 17.549297 
L 282.227772 17.549297 
L 282.227772 16.218737 
L 283.440815 16.218737 
L 283.440815 15.498017 
L 284.653859 15.498017 
L 284.653859 14.610977 
L 285.866902 14.610977 
L 285.866902 13.391297 
L 287.079946 13.391297 
L 287.079946 12.448817 
L 288.292989 12.448817 
L 288.292989 11.728097 
L 289.506033 11.728097 
L 289.506033 11.229137 
L 290.719076 11.229137 
L 290.719076 10.619297 
L 291.93212 10.619297 
" clip-path="url(#p44b2f4e57a)" style="fill: none; stroke: #d8a25e; stroke-linecap: square"/>
   </g>
   <g id="line2d_27">
    <path d="M 232.492989 63.010097 
L 232.492989 61.236017 
L 233.706033 61.236017 
L 233.706033 59.240177 
L 234.919076 59.240177 
L 234.919076 57.576977 
L 236.13212 57.576977 
L 236.13212 56.190977 
L 237.345163 56.190977 
L 237.345163 55.137617 
L 238.558207 55.137617 
L 238.558207 53.529857 
L 239.77125 53.529857 
L 239.77125 51.977537 
L 240.984293 51.977537 
L 240.984293 50.868737 
L 242.197337 50.868737 
L 242.197337 49.704497 
L 243.41038 49.704497 
L 243.41038 48.318497 
L 244.623424 48.318497 
L 244.623424 47.265137 
L 245.836467 47.265137 
L 245.836467 46.045457 
L 247.049511 46.045457 
L 247.049511 45.158417 
L 248.262554 45.158417 
L 248.262554 43.661537 
L 249.475598 43.661537 
L 249.475598 42.497297 
L 250.688641 42.497297 
L 250.688641 41.277617 
L 251.901685 41.277617 
L 251.901685 40.002497 
L 253.114728 40.002497 
L 253.114728 39.281777 
L 254.327772 39.281777 
L 254.327772 37.895777 
L 255.540815 37.895777 
L 255.540815 36.842417 
L 256.753859 36.842417 
L 256.753859 35.622737 
L 257.966902 35.622737 
L 257.966902 34.014977 
L 259.179946 34.014977 
L 259.179946 33.072497 
L 260.392989 33.072497 
L 260.392989 31.963697 
L 261.606033 31.963697 
L 261.606033 31.076657 
L 262.819076 31.076657 
L 262.819076 30.189617 
L 264.03212 30.189617 
L 264.03212 29.468897 
L 265.245163 29.468897 
L 265.245163 28.637297 
L 266.458207 28.637297 
L 266.458207 27.473057 
L 267.67125 27.473057 
L 267.67125 26.752337 
L 268.884293 26.752337 
L 268.884293 25.754417 
L 270.097337 25.754417 
L 270.097337 24.534737 
L 271.31038 24.534737 
L 271.31038 23.536817 
L 272.523424 23.536817 
L 272.523424 22.649777 
L 273.736467 22.649777 
L 273.736467 21.485537 
L 274.949511 21.485537 
L 274.949511 20.653937 
L 276.162554 20.653937 
L 276.162554 19.323377 
L 277.375598 19.323377 
L 277.375598 18.713537 
L 278.588641 18.713537 
L 278.588641 18.048257 
L 279.801685 18.048257 
L 279.801685 16.828577 
L 281.014728 16.828577 
L 281.014728 16.107857 
L 282.227772 16.107857 
L 282.227772 15.664337 
L 283.440815 15.664337 
L 283.440815 15.054497 
L 284.653859 15.054497 
L 284.653859 14.222897 
L 285.866902 14.222897 
L 285.866902 13.557617 
L 287.079946 13.557617 
L 287.079946 12.836897 
L 288.292989 12.836897 
L 288.292989 12.116177 
L 289.506033 12.116177 
L 289.506033 11.340017 
L 290.719076 11.340017 
L 290.719076 10.619297 
L 291.93212 10.619297 
" clip-path="url(#p44b2f4e57a)" style="fill: none; stroke: #c68457; stroke-linecap: square"/>
   </g>
   <g id="line2d_28">
    <path d="M 232.492989 51.090497 
L 232.492989 47.209697 
L 233.706033 47.209697 
L 233.706033 44.382257 
L 234.919076 44.382257 
L 234.919076 42.330977 
L 236.13212 42.330977 
L 236.13212 41.222177 
L 237.345163 41.222177 
L 237.345163 39.780737 
L 238.558207 39.780737 
L 238.558207 38.228417 
L 239.77125 38.228417 
L 239.77125 37.563137 
L 240.984293 37.563137 
L 240.984293 36.786977 
L 242.197337 36.786977 
L 242.197337 35.622737 
L 243.41038 35.622737 
L 243.41038 35.179217 
L 244.623424 35.179217 
L 244.623424 34.513937 
L 245.836467 34.513937 
L 245.836467 33.238817 
L 247.049511 33.238817 
L 247.049511 32.185457 
L 248.262554 32.185457 
L 248.262554 31.298417 
L 249.475598 31.298417 
L 249.475598 30.134177 
L 250.688641 30.134177 
L 250.688641 29.191697 
L 251.901685 29.191697 
L 251.901685 28.193777 
L 253.114728 28.193777 
L 253.114728 27.639377 
L 254.327772 27.639377 
L 254.327772 26.807777 
L 255.540815 26.807777 
L 255.540815 25.865297 
L 256.753859 25.865297 
L 256.753859 24.756497 
L 257.966902 24.756497 
L 257.966902 24.423857 
L 259.179946 24.423857 
L 259.179946 23.814017 
L 260.392989 23.814017 
L 260.392989 22.982417 
L 261.606033 22.982417 
L 261.606033 22.317137 
L 262.819076 22.317137 
L 262.819076 21.929057 
L 264.03212 21.929057 
L 264.03212 21.374657 
L 265.245163 21.374657 
L 265.245163 20.875697 
L 266.458207 20.875697 
L 266.458207 20.376737 
L 267.67125 20.376737 
L 267.67125 19.489697 
L 268.884293 19.489697 
L 268.884293 18.879857 
L 270.097337 18.879857 
L 270.097337 18.436337 
L 271.31038 18.436337 
L 271.31038 17.937377 
L 272.523424 17.937377 
L 272.523424 17.493857 
L 273.736467 17.493857 
L 273.736467 16.939457 
L 274.949511 16.939457 
L 274.949511 16.385057 
L 276.162554 16.385057 
L 276.162554 15.830657 
L 277.375598 15.830657 
L 277.375598 15.498017 
L 278.588641 15.498017 
L 278.588641 15.220817 
L 279.801685 15.220817 
L 279.801685 14.888177 
L 281.014728 14.888177 
L 281.014728 14.555537 
L 282.227772 14.555537 
L 282.227772 14.001137 
L 283.440815 14.001137 
L 283.440815 13.446737 
L 284.653859 13.446737 
L 284.653859 12.892337 
L 285.866902 12.892337 
L 285.866902 12.393377 
L 287.079946 12.393377 
L 287.079946 12.116177 
L 288.292989 12.116177 
L 288.292989 11.617217 
L 289.506033 11.617217 
L 289.506033 11.173697 
L 290.719076 11.173697 
L 290.719076 10.619297 
L 291.93212 10.619297 
" clip-path="url(#p44b2f4e57a)" style="fill: none; stroke: #b3664f; stroke-linecap: square"/>
   </g>
   <g id="patch_9">
    <path d="M 231.886467 66.059297 
L 231.886467 10.619297 
" style="fill: none; stroke: #000000; stroke-width: 1.5; stroke-linejoin: miter; stroke-linecap: square"/>
   </g>
   <g id="patch_10">
    <path d="M 231.886467 66.059297 
L 292.538641 66.059297 
" style="fill: none; stroke: #000000; stroke-width: 1.5; stroke-linejoin: miter; stroke-linecap: square"/>
   </g>
  </g>
  <g id="axes_4">
   <g id="patch_11">
    <path d="M 304.669076 66.059297 
L 365.32125 66.059297 
L 365.32125 10.619297 
L 304.669076 10.619297 
z
" style="fill: #ffffff"/>
   </g>
   <g id="PolyCollection_4">
    <defs>
     <path id="m686ac991f9" d="M 304.669076 -58.904392 
L 304.669076 -57.684712 
L 305.88212 -58.516312 
L 307.095163 -59.458792 
L 308.308207 -60.401272 
L 309.52125 -61.343752 
L 310.734293 -62.341672 
L 311.947337 -63.339592 
L 313.16038 -64.392952 
L 314.373424 -65.390873 
L 315.586467 -66.444232 
L 316.799511 -67.497592 
L 318.012554 -68.550952 
L 319.225598 -69.604312 
L 320.438641 -70.657672 
L 321.651685 -71.711033 
L 322.864728 -72.764392 
L 324.077772 -73.873192 
L 325.290815 -74.926552 
L 326.503859 -76.035353 
L 327.716902 -77.088712 
L 328.929946 -78.197513 
L 330.142989 -79.306312 
L 331.356033 -80.359672 
L 332.569076 -81.468472 
L 333.78212 -82.577272 
L 334.995163 -83.686072 
L 336.208207 -84.794872 
L 337.42125 -85.903672 
L 338.634293 -87.067913 
L 339.847337 -88.176713 
L 341.06038 -89.285512 
L 342.273424 -90.449752 
L 343.486467 -91.558552 
L 344.699511 -92.722792 
L 345.912554 -93.831592 
L 347.125598 -94.995833 
L 348.338641 -96.160072 
L 349.551685 -97.324312 
L 350.764728 -98.488552 
L 351.977772 -99.652793 
L 353.190815 -100.817033 
L 354.403859 -102.036712 
L 355.616902 -103.200952 
L 356.829946 -104.420632 
L 358.042989 -105.640312 
L 359.256033 -106.859993 
L 360.469076 -108.135113 
L 361.68212 -109.410233 
L 362.895163 -110.796233 
L 364.108207 -112.570312 
L 364.108207 -112.570312 
L 364.108207 -112.570312 
L 362.895163 -112.015912 
L 361.68212 -111.184313 
L 360.469076 -110.241833 
L 359.256033 -109.299352 
L 358.042989 -108.356873 
L 356.829946 -107.358953 
L 355.616902 -106.361032 
L 354.403859 -105.307672 
L 353.190815 -104.309753 
L 351.977772 -103.256393 
L 350.764728 -102.203033 
L 349.551685 -101.149673 
L 348.338641 -100.096313 
L 347.125598 -99.042952 
L 345.912554 -97.989593 
L 344.699511 -96.936232 
L 343.486467 -95.827432 
L 342.273424 -94.774073 
L 341.06038 -93.665273 
L 339.847337 -92.611913 
L 338.634293 -91.503113 
L 337.42125 -90.394312 
L 336.208207 -89.340952 
L 334.995163 -88.232152 
L 333.78212 -87.123352 
L 332.569076 -86.014552 
L 331.356033 -84.905753 
L 330.142989 -83.796953 
L 328.929946 -82.632712 
L 327.716902 -81.523912 
L 326.503859 -80.415112 
L 325.290815 -79.250872 
L 324.077772 -78.142072 
L 322.864728 -76.977832 
L 321.651685 -75.869033 
L 320.438641 -74.704792 
L 319.225598 -73.540552 
L 318.012554 -72.376312 
L 316.799511 -71.212072 
L 315.586467 -70.047832 
L 314.373424 -68.883592 
L 313.16038 -67.663912 
L 311.947337 -66.499673 
L 310.734293 -65.279992 
L 309.52125 -64.060312 
L 308.308207 -62.840632 
L 307.095163 -61.565512 
L 305.88212 -60.290392 
L 304.669076 -58.904392 
z
" style="stroke: #808080; stroke-opacity: 0.2"/>
    </defs>
    <g clip-path="url(#p03af1f4c8c)">
     <use xlink:href="#m686ac991f9" x="0" y="123.189609" style="fill: #808080; fill-opacity: 0.2; stroke: #808080; stroke-opacity: 0.2"/>
    </g>
   </g>
   <g id="matplotlib.axis_7">
    <g id="xtick_7">
     <g id="line2d_29">
      <g>
       <use xlink:href="#ma6fdd9c6e5" x="304.669076" y="66.059297" style="stroke: #000000; stroke-width: 1.5"/>
      </g>
     </g>
     <g id="text_13">
      <text style="font: 9px 'Arial', sans-serif; text-anchor: middle" x="304.669076" y="79.897891" transform="rotate(-0 304.669076 79.897891)">0</text>
     </g>
    </g>
    <g id="xtick_8">
     <g id="line2d_30">
      <g>
       <use xlink:href="#ma6fdd9c6e5" x="365.32125" y="66.059297" style="stroke: #000000; stroke-width: 1.5"/>
      </g>
     </g>
     <g id="text_14">
      <text style="font: 9px 'Arial', sans-serif; text-anchor: middle" x="365.32125" y="79.897891" transform="rotate(-0 365.32125 79.897891)">1</text>
     </g>
    </g>
    <g id="text_15">
     <text style="font: 9px 'Arial', sans-serif; text-anchor: middle" x="334.995163" y="92.608203" transform="rotate(-0 334.995163 92.608203)">Exp. coverage</text>
    </g>
   </g>
   <g id="matplotlib.axis_8"/>
   <g id="line2d_31">
    <path d="M 305.275598 65.116817 
L 305.275598 64.562417 
L 306.488641 64.562417 
L 306.488641 64.285217 
L 307.701685 64.285217 
L 307.701685 63.675377 
L 308.914728 63.675377 
L 308.914728 63.010097 
L 310.127772 63.010097 
L 310.127772 61.734977 
L 311.340815 61.734977 
L 311.340815 60.847937 
L 312.553859 60.847937 
L 312.553859 60.016337 
L 313.766902 60.016337 
L 313.766902 59.184737 
L 314.979946 59.184737 
L 314.979946 58.464017 
L 316.192989 58.464017 
L 316.192989 57.576977 
L 317.406033 57.576977 
L 317.406033 56.579057 
L 318.619076 56.579057 
L 318.619076 55.913777 
L 319.83212 55.913777 
L 319.83212 55.082177 
L 321.045163 55.082177 
L 321.045163 54.306017 
L 322.258207 54.306017 
L 322.258207 53.585297 
L 323.47125 53.585297 
L 323.47125 52.698257 
L 324.684293 52.698257 
L 324.684293 51.977537 
L 325.897337 51.977537 
L 325.897337 51.090497 
L 327.11038 51.090497 
L 327.11038 50.203457 
L 328.323424 50.203457 
L 328.323424 49.482737 
L 329.536467 49.482737 
L 329.536467 48.373937 
L 330.749511 48.373937 
L 330.749511 46.932497 
L 331.962554 46.932497 
L 331.962554 45.990017 
L 333.175598 45.990017 
L 333.175598 44.825777 
L 334.388641 44.825777 
L 334.388641 43.827857 
L 335.601685 43.827857 
L 335.601685 42.663617 
L 336.814728 42.663617 
L 336.814728 41.610257 
L 338.027772 41.610257 
L 338.027772 40.944977 
L 339.240815 40.944977 
L 339.240815 39.503537 
L 340.453859 39.503537 
L 340.453859 38.283857 
L 341.666902 38.283857 
L 341.666902 37.064177 
L 342.879946 37.064177 
L 342.879946 35.068337 
L 344.092989 35.068337 
L 344.092989 33.848657 
L 345.306033 33.848657 
L 345.306033 32.906177 
L 346.519076 32.906177 
L 346.519076 31.520177 
L 347.73212 31.520177 
L 347.73212 30.245057 
L 348.945163 30.245057 
L 348.945163 28.526417 
L 350.158207 28.526417 
L 350.158207 26.863217 
L 351.37125 26.863217 
L 351.37125 25.588097 
L 352.584293 25.588097 
L 352.584293 24.202097 
L 353.797337 24.202097 
L 353.797337 22.206257 
L 355.01038 22.206257 
L 355.01038 20.543057 
L 356.223424 20.543057 
L 356.223424 19.267937 
L 357.436467 19.267937 
L 357.436467 18.214577 
L 358.649511 18.214577 
L 358.649511 17.382977 
L 359.862554 17.382977 
L 359.862554 15.886097 
L 361.075598 15.886097 
L 361.075598 14.555537 
L 362.288641 14.555537 
L 362.288641 12.836897 
L 363.501685 12.836897 
L 363.501685 10.619297 
L 364.714728 10.619297 
" clip-path="url(#p03af1f4c8c)" style="fill: none; stroke: #eedf7a; stroke-linecap: square"/>
   </g>
   <g id="line2d_32">
    <path d="M 305.275598 65.061377 
L 305.275598 64.562417 
L 306.488641 64.562417 
L 306.488641 63.841697 
L 307.701685 63.841697 
L 307.701685 62.788337 
L 308.914728 62.788337 
L 308.914728 61.624097 
L 310.127772 61.624097 
L 310.127772 60.570737 
L 311.340815 60.570737 
L 311.340815 59.184737 
L 312.553859 59.184737 
L 312.553859 58.519457 
L 313.766902 58.519457 
L 313.766902 56.967137 
L 314.979946 56.967137 
L 314.979946 55.802897 
L 316.192989 55.802897 
L 316.192989 55.137617 
L 317.406033 55.137617 
L 317.406033 54.250577 
L 318.619076 54.250577 
L 318.619076 53.529857 
L 319.83212 53.529857 
L 319.83212 52.587377 
L 321.045163 52.587377 
L 321.045163 51.811217 
L 322.258207 51.811217 
L 322.258207 50.757857 
L 323.47125 50.757857 
L 323.47125 49.870817 
L 324.684293 49.870817 
L 324.684293 49.205537 
L 325.897337 49.205537 
L 325.897337 47.930417 
L 327.11038 47.930417 
L 327.11038 46.932497 
L 328.323424 46.932497 
L 328.323424 45.657377 
L 329.536467 45.657377 
L 329.536467 44.437697 
L 330.749511 44.437697 
L 330.749511 43.328897 
L 331.962554 43.328897 
L 331.962554 42.552737 
L 333.175598 42.552737 
L 333.175598 41.832017 
L 334.388641 41.832017 
L 334.388641 40.889537 
L 335.601685 40.889537 
L 335.601685 40.057937 
L 336.814728 40.057937 
L 336.814728 39.060017 
L 338.027772 39.060017 
L 338.027772 38.006657 
L 339.240815 38.006657 
L 339.240815 35.789057 
L 340.453859 35.789057 
L 340.453859 34.403057 
L 341.666902 34.403057 
L 341.666902 33.017057 
L 342.879946 33.017057 
L 342.879946 31.575617 
L 344.092989 31.575617 
L 344.092989 29.967857 
L 345.306033 29.967857 
L 345.306033 28.748177 
L 346.519076 28.748177 
L 346.519076 27.084977 
L 347.73212 27.084977 
L 347.73212 25.588097 
L 348.945163 25.588097 
L 348.945163 24.202097 
L 350.158207 24.202097 
L 350.158207 22.926977 
L 351.37125 22.926977 
L 351.37125 21.707297 
L 352.584293 21.707297 
L 352.584293 20.376737 
L 353.797337 20.376737 
L 353.797337 19.378817 
L 355.01038 19.378817 
L 355.01038 18.768977 
L 356.223424 18.768977 
L 356.223424 18.103697 
L 357.436467 18.103697 
L 357.436467 17.272097 
L 358.649511 17.272097 
L 358.649511 16.163297 
L 359.862554 16.163297 
L 359.862554 15.220817 
L 361.075598 15.220817 
L 361.075598 14.056577 
L 362.288641 14.056577 
L 362.288641 12.504257 
L 363.501685 12.504257 
L 363.501685 10.619297 
L 364.714728 10.619297 
" clip-path="url(#p03af1f4c8c)" style="fill: none; stroke: #e7cb71; stroke-linecap: square"/>
   </g>
   <g id="line2d_33">
    <path d="M 305.275598 65.116817 
L 305.275598 64.562417 
L 306.488641 64.562417 
L 306.488641 64.063457 
L 307.701685 64.063457 
L 307.701685 63.398177 
L 308.914728 63.398177 
L 308.914728 62.954657 
L 310.127772 62.954657 
L 310.127772 61.624097 
L 311.340815 61.624097 
L 311.340815 60.071777 
L 312.553859 60.071777 
L 312.553859 58.685777 
L 313.766902 58.685777 
L 313.766902 57.743297 
L 314.979946 57.743297 
L 314.979946 56.468177 
L 316.192989 56.468177 
L 316.192989 55.082177 
L 317.406033 55.082177 
L 317.406033 54.306017 
L 318.619076 54.306017 
L 318.619076 53.696177 
L 319.83212 53.696177 
L 319.83212 52.531937 
L 321.045163 52.531937 
L 321.045163 50.757857 
L 322.258207 50.757857 
L 322.258207 49.427297 
L 323.47125 49.427297 
L 323.47125 48.207617 
L 324.684293 48.207617 
L 324.684293 47.098817 
L 325.897337 47.098817 
L 325.897337 45.712817 
L 327.11038 45.712817 
L 327.11038 44.714897 
L 328.323424 44.714897 
L 328.323424 43.772417 
L 329.536467 43.772417 
L 329.536467 42.552737 
L 330.749511 42.552737 
L 330.749511 41.277617 
L 331.962554 41.277617 
L 331.962554 40.057937 
L 333.175598 40.057937 
L 333.175598 38.949137 
L 334.388641 38.949137 
L 334.388641 37.563137 
L 335.601685 37.563137 
L 335.601685 36.343457 
L 336.814728 36.343457 
L 336.814728 35.068337 
L 338.027772 35.068337 
L 338.027772 33.793217 
L 339.240815 33.793217 
L 339.240815 32.130017 
L 340.453859 32.130017 
L 340.453859 30.910337 
L 341.666902 30.910337 
L 341.666902 29.801537 
L 342.879946 29.801537 
L 342.879946 28.581857 
L 344.092989 28.581857 
L 344.092989 27.528497 
L 345.306033 27.528497 
L 345.306033 26.253377 
L 346.519076 26.253377 
L 346.519076 25.200017 
L 347.73212 25.200017 
L 347.73212 24.479297 
L 348.945163 24.479297 
L 348.945163 23.037857 
L 350.158207 23.037857 
L 350.158207 22.039937 
L 351.37125 22.039937 
L 351.37125 20.875697 
L 352.584293 20.875697 
L 352.584293 19.434257 
L 353.797337 19.434257 
L 353.797337 18.658097 
L 355.01038 18.658097 
L 355.01038 17.382977 
L 356.223424 17.382977 
L 356.223424 16.606817 
L 357.436467 16.606817 
L 357.436467 15.553457 
L 358.649511 15.553457 
L 358.649511 14.999057 
L 359.862554 14.999057 
L 359.862554 14.333777 
L 361.075598 14.333777 
L 361.075598 13.280417 
L 362.288641 13.280417 
L 362.288641 12.171617 
L 363.501685 12.171617 
L 363.501685 10.619297 
L 364.714728 10.619297 
" clip-path="url(#p03af1f4c8c)" style="fill: none; stroke: #e0b768; stroke-linecap: square"/>
   </g>
   <g id="line2d_34">
    <path d="M 305.275598 65.615777 
L 305.275598 65.449457 
L 306.488641 65.449457 
L 306.488641 64.617857 
L 307.701685 64.617857 
L 307.701685 63.952577 
L 308.914728 63.952577 
L 308.914728 62.843777 
L 310.127772 62.843777 
L 310.127772 62.344817 
L 311.340815 62.344817 
L 311.340815 61.291457 
L 312.553859 61.291457 
L 312.553859 60.847937 
L 313.766902 60.847937 
L 313.766902 60.238097 
L 314.979946 60.238097 
L 314.979946 59.461937 
L 316.192989 59.461937 
L 316.192989 58.574897 
L 317.406033 58.574897 
L 317.406033 58.186817 
L 318.619076 58.186817 
L 318.619076 57.299777 
L 319.83212 57.299777 
L 319.83212 56.412737 
L 321.045163 56.412737 
L 321.045163 55.303937 
L 322.258207 55.303937 
L 322.258207 54.694097 
L 323.47125 54.694097 
L 323.47125 53.751617 
L 324.684293 53.751617 
L 324.684293 53.141777 
L 325.897337 53.141777 
L 325.897337 51.977537 
L 327.11038 51.977537 
L 327.11038 50.868737 
L 328.323424 50.868737 
L 328.323424 50.037137 
L 329.536467 50.037137 
L 329.536467 49.371857 
L 330.749511 49.371857 
L 330.749511 48.373937 
L 331.962554 48.373937 
L 331.962554 47.431457 
L 333.175598 47.431457 
L 333.175598 46.599857 
L 334.388641 46.599857 
L 334.388641 45.324737 
L 335.601685 45.324737 
L 335.601685 44.326817 
L 336.814728 44.326817 
L 336.814728 43.661537 
L 338.027772 43.661537 
L 338.027772 42.608177 
L 339.240815 42.608177 
L 339.240815 41.832017 
L 340.453859 41.832017 
L 340.453859 40.612337 
L 341.666902 40.612337 
L 341.666902 39.004577 
L 342.879946 39.004577 
L 342.879946 37.729457 
L 344.092989 37.729457 
L 344.092989 36.620657 
L 345.306033 36.620657 
L 345.306033 35.511857 
L 346.519076 35.511857 
L 346.519076 34.292177 
L 347.73212 34.292177 
L 347.73212 32.850737 
L 348.945163 32.850737 
L 348.945163 31.741937 
L 350.158207 31.741937 
L 350.158207 30.522257 
L 351.37125 30.522257 
L 351.37125 28.969937 
L 352.584293 28.969937 
L 352.584293 27.417617 
L 353.797337 27.417617 
L 353.797337 25.976177 
L 355.01038 25.976177 
L 355.01038 24.479297 
L 356.223424 24.479297 
L 356.223424 22.649777 
L 357.436467 22.649777 
L 357.436467 20.986577 
L 358.649511 20.986577 
L 358.649511 19.600577 
L 359.862554 19.600577 
L 359.862554 17.216657 
L 361.075598 17.216657 
L 361.075598 15.109937 
L 362.288641 15.109937 
L 362.288641 13.058657 
L 363.501685 13.058657 
L 363.501685 10.619297 
L 364.714728 10.619297 
" clip-path="url(#p03af1f4c8c)" style="fill: none; stroke: #d8a25e; stroke-linecap: square"/>
   </g>
   <g id="line2d_35">
    <path d="M 305.275598 65.338577 
L 305.275598 64.506977 
L 306.488641 64.506977 
L 306.488641 63.841697 
L 307.701685 63.841697 
L 307.701685 63.176417 
L 308.914728 63.176417 
L 308.914728 62.566577 
L 310.127772 62.566577 
L 310.127772 61.513217 
L 311.340815 61.513217 
L 311.340815 60.847937 
L 312.553859 60.847937 
L 312.553859 60.293537 
L 313.766902 60.293537 
L 313.766902 59.184737 
L 314.979946 59.184737 
L 314.979946 58.131377 
L 316.192989 58.131377 
L 316.192989 57.244337 
L 317.406033 57.244337 
L 317.406033 56.468177 
L 318.619076 56.468177 
L 318.619076 55.414817 
L 319.83212 55.414817 
L 319.83212 54.361457 
L 321.045163 54.361457 
L 321.045163 53.252657 
L 322.258207 53.252657 
L 322.258207 52.531937 
L 323.47125 52.531937 
L 323.47125 51.589457 
L 324.684293 51.589457 
L 324.684293 50.757857 
L 325.897337 50.757857 
L 325.897337 50.148017 
L 327.11038 50.148017 
L 327.11038 49.371857 
L 328.323424 49.371857 
L 328.323424 48.595697 
L 329.536467 48.595697 
L 329.536467 47.265137 
L 330.749511 47.265137 
L 330.749511 46.156337 
L 331.962554 46.156337 
L 331.962554 44.992097 
L 333.175598 44.992097 
L 333.175598 44.604017 
L 334.388641 44.604017 
L 334.388641 43.661537 
L 335.601685 43.661537 
L 335.601685 42.663617 
L 336.814728 42.663617 
L 336.814728 41.443937 
L 338.027772 41.443937 
L 338.027772 40.113377 
L 339.240815 40.113377 
L 339.240815 38.838257 
L 340.453859 38.838257 
L 340.453859 37.840337 
L 341.666902 37.840337 
L 341.666902 37.119617 
L 342.879946 37.119617 
L 342.879946 36.010817 
L 344.092989 36.010817 
L 344.092989 34.846577 
L 345.306033 34.846577 
L 345.306033 33.682337 
L 346.519076 33.682337 
L 346.519076 31.520177 
L 347.73212 31.520177 
L 347.73212 30.300497 
L 348.945163 30.300497 
L 348.945163 29.025377 
L 350.158207 29.025377 
L 350.158207 27.805697 
L 351.37125 27.805697 
L 351.37125 26.752337 
L 352.584293 26.752337 
L 352.584293 25.976177 
L 353.797337 25.976177 
L 353.797337 24.534737 
L 355.01038 24.534737 
L 355.01038 23.315057 
L 356.223424 23.315057 
L 356.223424 21.873617 
L 357.436467 21.873617 
L 357.436467 20.487617 
L 358.649511 20.487617 
L 358.649511 18.658097 
L 359.862554 18.658097 
L 359.862554 16.717697 
L 361.075598 16.717697 
L 361.075598 15.054497 
L 362.288641 15.054497 
L 362.288641 13.058657 
L 363.501685 13.058657 
L 363.501685 10.619297 
L 364.714728 10.619297 
" clip-path="url(#p03af1f4c8c)" style="fill: none; stroke: #c68457; stroke-linecap: square"/>
   </g>
   <g id="line2d_36">
    <path d="M 305.275598 64.950497 
L 305.275598 64.118897 
L 306.488641 64.118897 
L 306.488641 63.619937 
L 307.701685 63.619937 
L 307.701685 62.788337 
L 308.914728 62.788337 
L 308.914728 61.845857 
L 310.127772 61.845857 
L 310.127772 61.291457 
L 311.340815 61.291457 
L 311.340815 60.404417 
L 312.553859 60.404417 
L 312.553859 59.351057 
L 313.766902 59.351057 
L 313.766902 58.519457 
L 314.979946 58.519457 
L 314.979946 57.576977 
L 316.192989 57.576977 
L 316.192989 56.745377 
L 317.406033 56.745377 
L 317.406033 55.747457 
L 318.619076 55.747457 
L 318.619076 55.082177 
L 319.83212 55.082177 
L 319.83212 53.696177 
L 321.045163 53.696177 
L 321.045163 52.753697 
L 322.258207 52.753697 
L 322.258207 51.977537 
L 323.47125 51.977537 
L 323.47125 51.201377 
L 324.684293 51.201377 
L 324.684293 50.425217 
L 325.897337 50.425217 
L 325.897337 49.260977 
L 327.11038 49.260977 
L 327.11038 48.651137 
L 328.323424 48.651137 
L 328.323424 47.597777 
L 329.536467 47.597777 
L 329.536467 46.710737 
L 330.749511 46.710737 
L 330.749511 45.934577 
L 331.962554 45.934577 
L 331.962554 45.491057 
L 333.175598 45.491057 
L 333.175598 44.825777 
L 334.388641 44.825777 
L 334.388641 43.772417 
L 335.601685 43.772417 
L 335.601685 42.885377 
L 336.814728 42.885377 
L 336.814728 41.776577 
L 338.027772 41.776577 
L 338.027772 40.944977 
L 339.240815 40.944977 
L 339.240815 39.836177 
L 340.453859 39.836177 
L 340.453859 38.228417 
L 341.666902 38.228417 
L 341.666902 36.897857 
L 342.879946 36.897857 
L 342.879946 36.288017 
L 344.092989 36.288017 
L 344.092989 35.290097 
L 345.306033 35.290097 
L 345.306033 33.737777 
L 346.519076 33.737777 
L 346.519076 32.961617 
L 347.73212 32.961617 
L 347.73212 31.686497 
L 348.945163 31.686497 
L 348.945163 30.134177 
L 350.158207 30.134177 
L 350.158207 28.581857 
L 351.37125 28.581857 
L 351.37125 27.195857 
L 352.584293 27.195857 
L 352.584293 25.865297 
L 353.797337 25.865297 
L 353.797337 24.645617 
L 355.01038 24.645617 
L 355.01038 22.926977 
L 356.223424 22.926977 
L 356.223424 21.319217 
L 357.436467 21.319217 
L 357.436467 19.323377 
L 358.649511 19.323377 
L 358.649511 17.992817 
L 359.862554 17.992817 
L 359.862554 16.828577 
L 361.075598 16.828577 
L 361.075598 14.999057 
L 362.288641 14.999057 
L 362.288641 13.224977 
L 363.501685 13.224977 
L 363.501685 10.619297 
L 364.714728 10.619297 
" clip-path="url(#p03af1f4c8c)" style="fill: none; stroke: #b3664f; stroke-linecap: square"/>
   </g>
   <g id="patch_12">
    <path d="M 304.669076 66.059297 
L 304.669076 10.619297 
" style="fill: none; stroke: #000000; stroke-width: 1.5; stroke-linejoin: miter; stroke-linecap: square"/>
   </g>
   <g id="patch_13">
    <path d="M 304.669076 66.059297 
L 365.32125 66.059297 
" style="fill: none; stroke: #000000; stroke-width: 1.5; stroke-linejoin: miter; stroke-linecap: square"/>
   </g>
  </g>
  <g id="legend_1">
   <g id="line2d_37">
    <path d="M 10.8 107.367891 
L 10.8 107.367891 
L 19.8 107.367891 
L 19.8 107.367891 
L 28.8 107.367891 
" style="fill: none; stroke: #eedf7a; stroke-linecap: square"/>
   </g>
   <g id="text_16">
    <text style="font: 9px 'Arial', sans-serif; text-anchor: start" x="36" y="110.517891" transform="rotate(-0 36 110.517891)">T=1</text>
   </g>
   <g id="line2d_38">
    <path d="M 72.765 107.367891 
L 72.765 107.367891 
L 81.765 107.367891 
L 81.765 107.367891 
L 90.765 107.367891 
" style="fill: none; stroke: #e7cb71; stroke-linecap: square"/>
   </g>
   <g id="text_17">
    <text style="font: 9px 'Arial', sans-serif; text-anchor: start" x="97.965" y="110.517891" transform="rotate(-0 97.965 110.517891)">T=5</text>
   </g>
   <g id="line2d_39">
    <path d="M 134.73 107.367891 
L 134.73 107.367891 
L 143.73 107.367891 
L 143.73 107.367891 
L 152.73 107.367891 
" style="fill: none; stroke: #e0b768; stroke-linecap: square"/>
   </g>
   <g id="text_18">
    <text style="font: 9px 'Arial', sans-serif; text-anchor: start" x="159.93" y="110.517891" transform="rotate(-0 159.93 110.517891)">T=10</text>
   </g>
   <g id="line2d_40">
    <path d="M 202.42125 107.367891 
L 202.42125 107.367891 
L 211.42125 107.367891 
L 211.42125 107.367891 
L 220.42125 107.367891 
" style="fill: none; stroke: #d8a25e; stroke-linecap: square"/>
   </g>
   <g id="text_19">
    <text style="font: 9px 'Arial', sans-serif; text-anchor: start" x="227.62125" y="110.517891" transform="rotate(-0 227.62125 110.517891)">T=20</text>
   </g>
   <g id="line2d_41">
    <path d="M 270.1125 107.367891 
L 270.1125 107.367891 
L 279.1125 107.367891 
L 279.1125 107.367891 
L 288.1125 107.367891 
" style="fill: none; stroke: #c68457; stroke-linecap: square"/>
   </g>
   <g id="text_20">
    <text style="font: 9px 'Arial', sans-serif; text-anchor: start" x="295.3125" y="110.517891" transform="rotate(-0 295.3125 110.517891)">T=50</text>
   </g>
   <g id="line2d_42">
    <path d="M 337.80375 107.367891 
L 337.80375 107.367891 
L 346.80375 107.367891 
L 346.80375 107.367891 
L 355.80375 107.367891 
" style="fill: none; stroke: #b3664f; stroke-linecap: square"/>
   </g>
   <g id="text_21">
    <text style="font: 9px 'Arial', sans-serif; text-anchor: start" x="363.00375" y="110.517891" transform="rotate(-0 363.00375 110.517891)">T=100</text>
   </g>
  </g>
 </g>
 <defs>
  <clipPath id="pde36aca655">
   <rect x="86.32125" y="10.619297" width="60.652174" height="55.44"/>
  </clipPath>
  <clipPath id="p9a5accc3de">
   <rect x="159.103859" y="10.619297" width="60.652174" height="55.44"/>
  </clipPath>
  <clipPath id="p44b2f4e57a">
   <rect x="231.886467" y="10.619297" width="60.652174" height="55.44"/>
  </clipPath>
  <clipPath id="p03af1f4c8c">
   <rect x="304.669076" y="10.619297" width="60.652174" height="55.44"/>
  </clipPath>
 </defs>
</svg>
